<?xml version="1.0" encoding="UTF-8" standalone="no"?>
<!DOCTYPE svg PUBLIC "-//W3C//DTD SVG 1.1//EN"
 "http://www.w3.org/Graphics/SVG/1.1/DTD/svg11.dtd">
<!-- Generated by graphviz version 2.43.0 (0)
 -->
<!-- Title: src/optimizer/acyclicgraph.cpp Pages: 1 -->
<svg width="425pt" height="252pt"
 viewBox="0.00 0.00 424.50 252.00" xmlns="http://www.w3.org/2000/svg" xmlns:xlink="http://www.w3.org/1999/xlink">
<g id="graph0" class="graph" transform="scale(1 1) rotate(0) translate(4 248)">
<title>src/optimizer/acyclicgraph.cpp</title>
<polygon fill="white" stroke="transparent" points="-4,4 -4,-248 420.5,-248 420.5,4 -4,4"/>
<!-- Node1 -->
<g id="node1" class="node">
<title>Node1</title>
<g id="a_node1"><a xlink:title=" ">
<polygon fill="#bfbfbf" stroke="black" points="132,-224.5 132,-243.5 297,-243.5 297,-224.5 132,-224.5"/>
<text text-anchor="middle" x="214.5" y="-231.5" font-family="Helvetica,sans-Serif" font-size="10.00">src/optimizer/acyclicgraph.cpp</text>
</a>
</g>
</g>
<!-- Node2 -->
<g id="node2" class="node">
<title>Node2</title>
<g id="a_node2"><a xlink:href="acyclicgraph_8hpp.html" target="_top" xlink:title=" ">
<polygon fill="white" stroke="black" points="68,-168.5 68,-187.5 217,-187.5 217,-168.5 68,-168.5"/>
<text text-anchor="middle" x="142.5" y="-175.5" font-family="Helvetica,sans-Serif" font-size="10.00">optimizer/acyclicgraph.hpp</text>
</a>
</g>
</g>
<!-- Node1&#45;&gt;Node2 -->
<g id="edge1" class="edge">
<title>Node1&#45;&gt;Node2</title>
<path fill="none" stroke="midnightblue" d="M202.93,-224.32C192.08,-216.18 175.62,-203.84 162.62,-194.09"/>
<polygon fill="midnightblue" stroke="midnightblue" points="164.38,-191.03 154.28,-187.83 160.18,-196.63 164.38,-191.03"/>
</g>
<!-- Node5 -->
<g id="node5" class="node">
<title>Node5</title>
<g id="a_node5"><a xlink:href="exprtype_8hpp.html" target="_top" xlink:title=" ">
<polygon fill="white" stroke="black" points="0,-0.5 0,-19.5 127,-19.5 127,-0.5 0,-0.5"/>
<text text-anchor="middle" x="63.5" y="-7.5" font-family="Helvetica,sans-Serif" font-size="10.00">common/exprtype.hpp</text>
</a>
</g>
</g>
<!-- Node1&#45;&gt;Node5 -->
<g id="edge13" class="edge">
<title>Node1&#45;&gt;Node5</title>
<path fill="none" stroke="midnightblue" d="M160.55,-224.45C120.61,-216.89 71.03,-204.5 58.5,-188 22.61,-140.74 43.69,-64.12 56.23,-29.28"/>
<polygon fill="midnightblue" stroke="midnightblue" points="59.52,-30.48 59.77,-19.89 52.97,-28.01 59.52,-30.48"/>
</g>
<!-- Node10 -->
<g id="node10" class="node">
<title>Node10</title>
<g id="a_node10"><a xlink:href="util_8hpp.html" target="_top" xlink:title=" ">
<polygon fill="white" stroke="black" points="235,-168.5 235,-187.5 338,-187.5 338,-168.5 235,-168.5"/>
<text text-anchor="middle" x="286.5" y="-175.5" font-family="Helvetica,sans-Serif" font-size="10.00">optimizer/util.hpp</text>
</a>
</g>
</g>
<!-- Node1&#45;&gt;Node10 -->
<g id="edge14" class="edge">
<title>Node1&#45;&gt;Node10</title>
<path fill="none" stroke="midnightblue" d="M226.07,-224.32C236.92,-216.18 253.38,-203.84 266.38,-194.09"/>
<polygon fill="midnightblue" stroke="midnightblue" points="268.82,-196.63 274.72,-187.83 264.62,-191.03 268.82,-196.63"/>
</g>
<!-- Node11 -->
<g id="node11" class="node">
<title>Node11</title>
<g id="a_node11"><a xlink:title=" ">
<polygon fill="white" stroke="#bfbfbf" points="356.5,-168.5 356.5,-187.5 416.5,-187.5 416.5,-168.5 356.5,-168.5"/>
<text text-anchor="middle" x="386.5" y="-175.5" font-family="Helvetica,sans-Serif" font-size="10.00">iostream</text>
</a>
</g>
</g>
<!-- Node1&#45;&gt;Node11 -->
<g id="edge17" class="edge">
<title>Node1&#45;&gt;Node11</title>
<path fill="none" stroke="midnightblue" d="M241.75,-224.44C270.94,-215.28 317.42,-200.69 349.81,-190.52"/>
<polygon fill="midnightblue" stroke="midnightblue" points="350.88,-193.85 359.37,-187.52 348.78,-187.17 350.88,-193.85"/>
</g>
<!-- Node3 -->
<g id="node3" class="node">
<title>Node3</title>
<g id="a_node3"><a xlink:title=" ">
<polygon fill="white" stroke="#bfbfbf" points="302,-0.5 302,-19.5 349,-19.5 349,-0.5 302,-0.5"/>
<text text-anchor="middle" x="325.5" y="-7.5" font-family="Helvetica,sans-Serif" font-size="10.00">vector</text>
</a>
</g>
</g>
<!-- Node2&#45;&gt;Node3 -->
<g id="edge2" class="edge">
<title>Node2&#45;&gt;Node3</title>
<path fill="none" stroke="midnightblue" d="M196.88,-168.43C238.41,-160.75 290.92,-148.2 305.5,-132 330.93,-103.73 330.61,-56.03 328.1,-29.75"/>
<polygon fill="midnightblue" stroke="midnightblue" points="331.55,-29.15 326.91,-19.63 324.6,-29.97 331.55,-29.15"/>
</g>
<!-- Node4 -->
<g id="node4" class="node">
<title>Node4</title>
<g id="a_node4"><a xlink:title=" ">
<polygon fill="white" stroke="#bfbfbf" points="88,-112.5 88,-131.5 133,-131.5 133,-112.5 88,-112.5"/>
<text text-anchor="middle" x="110.5" y="-119.5" font-family="Helvetica,sans-Serif" font-size="10.00">utility</text>
</a>
</g>
</g>
<!-- Node2&#45;&gt;Node4 -->
<g id="edge3" class="edge">
<title>Node2&#45;&gt;Node4</title>
<path fill="none" stroke="midnightblue" d="M137.22,-168.08C132.79,-160.61 126.34,-149.72 120.88,-140.52"/>
<polygon fill="midnightblue" stroke="midnightblue" points="123.79,-138.57 115.69,-131.75 117.77,-142.14 123.79,-138.57"/>
</g>
<!-- Node2&#45;&gt;Node5 -->
<g id="edge4" class="edge">
<title>Node2&#45;&gt;Node5</title>
<path fill="none" stroke="midnightblue" d="M122.55,-168.48C107.82,-161.08 88.64,-148.89 78.5,-132 59.32,-100.05 59.43,-54.83 61.36,-29.69"/>
<polygon fill="midnightblue" stroke="midnightblue" points="64.85,-29.96 62.32,-19.67 57.88,-29.3 64.85,-29.96"/>
</g>
<!-- Node6 -->
<g id="node6" class="node">
<title>Node6</title>
<g id="a_node6"><a xlink:href="tables_8hpp.html" target="_top" xlink:title=" ">
<polygon fill="white" stroke="black" points="170,-56.5 170,-75.5 283,-75.5 283,-56.5 170,-56.5"/>
<text text-anchor="middle" x="226.5" y="-63.5" font-family="Helvetica,sans-Serif" font-size="10.00">common/tables.hpp</text>
</a>
</g>
</g>
<!-- Node2&#45;&gt;Node6 -->
<g id="edge5" class="edge">
<title>Node2&#45;&gt;Node6</title>
<path fill="none" stroke="midnightblue" d="M146.73,-168.12C153.12,-155.15 166.02,-130.55 180.5,-112 188.81,-101.35 199.54,-90.71 208.55,-82.46"/>
<polygon fill="midnightblue" stroke="midnightblue" points="211.08,-84.89 216.21,-75.62 206.42,-79.67 211.08,-84.89"/>
</g>
<!-- Node9 -->
<g id="node9" class="node">
<title>Node9</title>
<g id="a_node9"><a xlink:href="poliz_8hpp.html" target="_top" xlink:title=" ">
<polygon fill="white" stroke="black" points="190,-112.5 190,-131.5 297,-131.5 297,-112.5 190,-112.5"/>
<text text-anchor="middle" x="243.5" y="-119.5" font-family="Helvetica,sans-Serif" font-size="10.00">common/poliz.hpp</text>
</a>
</g>
</g>
<!-- Node2&#45;&gt;Node9 -->
<g id="edge10" class="edge">
<title>Node2&#45;&gt;Node9</title>
<path fill="none" stroke="midnightblue" d="M158.73,-168.32C174.85,-159.7 199.8,-146.36 218.46,-136.39"/>
<polygon fill="midnightblue" stroke="midnightblue" points="220.14,-139.46 227.31,-131.65 216.84,-133.28 220.14,-139.46"/>
</g>
<!-- Node6&#45;&gt;Node3 -->
<g id="edge8" class="edge">
<title>Node6&#45;&gt;Node3</title>
<path fill="none" stroke="midnightblue" d="M242.41,-56.32C258.14,-47.74 282.44,-34.49 300.71,-24.52"/>
<polygon fill="midnightblue" stroke="midnightblue" points="302.53,-27.52 309.63,-19.65 299.18,-21.37 302.53,-27.52"/>
</g>
<!-- Node6&#45;&gt;Node5 -->
<g id="edge9" class="edge">
<title>Node6&#45;&gt;Node5</title>
<path fill="none" stroke="midnightblue" d="M200.67,-56.44C173.25,-47.36 129.72,-32.94 99.07,-22.78"/>
<polygon fill="midnightblue" stroke="midnightblue" points="99.8,-19.34 89.21,-19.52 97.6,-25.98 99.8,-19.34"/>
</g>
<!-- Node7 -->
<g id="node7" class="node">
<title>Node7</title>
<g id="a_node7"><a xlink:title=" ">
<polygon fill="white" stroke="#bfbfbf" points="152,-0.5 152,-19.5 205,-19.5 205,-0.5 152,-0.5"/>
<text text-anchor="middle" x="178.5" y="-7.5" font-family="Helvetica,sans-Serif" font-size="10.00">cstddef</text>
</a>
</g>
</g>
<!-- Node6&#45;&gt;Node7 -->
<g id="edge6" class="edge">
<title>Node6&#45;&gt;Node7</title>
<path fill="none" stroke="midnightblue" d="M218.57,-56.08C211.65,-48.3 201.43,-36.8 193.05,-27.37"/>
<polygon fill="midnightblue" stroke="midnightblue" points="195.54,-24.9 186.28,-19.75 190.31,-29.55 195.54,-24.9"/>
</g>
<!-- Node8 -->
<g id="node8" class="node">
<title>Node8</title>
<g id="a_node8"><a xlink:title=" ">
<polygon fill="white" stroke="#bfbfbf" points="223,-0.5 223,-19.5 280,-19.5 280,-0.5 223,-0.5"/>
<text text-anchor="middle" x="251.5" y="-7.5" font-family="Helvetica,sans-Serif" font-size="10.00">ostream</text>
</a>
</g>
</g>
<!-- Node6&#45;&gt;Node8 -->
<g id="edge7" class="edge">
<title>Node6&#45;&gt;Node8</title>
<path fill="none" stroke="midnightblue" d="M230.63,-56.08C234.01,-48.77 238.92,-38.18 243.12,-29.1"/>
<polygon fill="midnightblue" stroke="midnightblue" points="246.42,-30.3 247.45,-19.75 240.07,-27.36 246.42,-30.3"/>
</g>
<!-- Node9&#45;&gt;Node5 -->
<g id="edge12" class="edge">
<title>Node9&#45;&gt;Node5</title>
<path fill="none" stroke="midnightblue" d="M226.71,-112.48C209.76,-103.75 182.95,-89.56 160.5,-76 133.39,-59.62 103.24,-39.02 83.86,-25.45"/>
<polygon fill="midnightblue" stroke="midnightblue" points="85.7,-22.47 75.51,-19.58 81.68,-28.2 85.7,-22.47"/>
</g>
<!-- Node9&#45;&gt;Node6 -->
<g id="edge11" class="edge">
<title>Node9&#45;&gt;Node6</title>
<path fill="none" stroke="midnightblue" d="M240.69,-112.08C238.42,-104.85 235.13,-94.41 232.29,-85.4"/>
<polygon fill="midnightblue" stroke="midnightblue" points="235.6,-84.24 229.25,-75.75 228.92,-86.34 235.6,-84.24"/>
</g>
<!-- Node10&#45;&gt;Node3 -->
<g id="edge15" class="edge">
<title>Node10&#45;&gt;Node3</title>
<path fill="none" stroke="midnightblue" d="M302.83,-168.39C315.46,-160.72 332,-148.21 339.5,-132 355.13,-98.23 342.66,-53.72 333.33,-29.18"/>
<polygon fill="midnightblue" stroke="midnightblue" points="336.49,-27.66 329.5,-19.71 330,-30.29 336.49,-27.66"/>
</g>
<!-- Node10&#45;&gt;Node9 -->
<g id="edge16" class="edge">
<title>Node10&#45;&gt;Node9</title>
<path fill="none" stroke="midnightblue" d="M279.4,-168.08C273.26,-160.38 264.23,-149.03 256.76,-139.65"/>
<polygon fill="midnightblue" stroke="midnightblue" points="259.44,-137.39 250.47,-131.75 253.96,-141.75 259.44,-137.39"/>
</g>
</g>
</svg>
