<?xml version="1.0" encoding="UTF-8" standalone="no"?>
<!DOCTYPE svg PUBLIC "-//W3C//DTD SVG 1.1//EN"
 "http://www.w3.org/Graphics/SVG/1.1/DTD/svg11.dtd">
<!-- Generated by graphviz version 2.43.0 (0)
 -->
<!-- Title: src/optimizer/acyclicgraph.cpp Pages: 1 -->
<svg width="449pt" height="252pt"
 viewBox="0.00 0.00 448.53 252.00" xmlns="http://www.w3.org/2000/svg" xmlns:xlink="http://www.w3.org/1999/xlink">
<g id="graph0" class="graph" transform="scale(1 1) rotate(0) translate(4 248)">
<title>src/optimizer/acyclicgraph.cpp</title>
<polygon fill="white" stroke="transparent" points="-4,4 -4,-248 444.53,-248 444.53,4 -4,4"/>
<!-- Node1 -->
<g id="node1" class="node">
<title>Node1</title>
<g id="a_node1"><a xlink:title=" ">
<polygon fill="#bfbfbf" stroke="black" points="117,-224.5 117,-243.5 282,-243.5 282,-224.5 117,-224.5"/>
<text text-anchor="middle" x="199.5" y="-231.5" font-family="Helvetica,sans-Serif" font-size="10.00">src/optimizer/acyclicgraph.cpp</text>
</a>
</g>
</g>
<!-- Node2 -->
<g id="node2" class="node">
<title>Node2</title>
<g id="a_node2"><a xlink:href="acyclicgraph_8hpp.html" target="_top" xlink:title=" ">
<polygon fill="white" stroke="black" points="53,-168.5 53,-187.5 202,-187.5 202,-168.5 53,-168.5"/>
<text text-anchor="middle" x="127.5" y="-175.5" font-family="Helvetica,sans-Serif" font-size="10.00">optimizer/acyclicgraph.hpp</text>
</a>
</g>
</g>
<!-- Node1&#45;&gt;Node2 -->
<g id="edge1" class="edge">
<title>Node1&#45;&gt;Node2</title>
<path fill="none" stroke="midnightblue" d="M187.93,-224.32C177.08,-216.18 160.62,-203.84 147.62,-194.09"/>
<polygon fill="midnightblue" stroke="midnightblue" points="149.38,-191.03 139.28,-187.83 145.18,-196.63 149.38,-191.03"/>
</g>
<!-- Node5 -->
<g id="node5" class="node">
<title>Node5</title>
<g id="a_node5"><a xlink:href="exprtype_8hpp.html" target="_top" xlink:title=" ">
<polygon fill="white" stroke="black" points="0,-0.5 0,-19.5 127,-19.5 127,-0.5 0,-0.5"/>
<text text-anchor="middle" x="63.5" y="-7.5" font-family="Helvetica,sans-Serif" font-size="10.00">common/exprtype.hpp</text>
</a>
</g>
</g>
<!-- Node1&#45;&gt;Node5 -->
<g id="edge14" class="edge">
<title>Node1&#45;&gt;Node5</title>
<path fill="none" stroke="midnightblue" d="M145.51,-224.48C105.54,-216.94 55.96,-204.56 43.5,-188 7.61,-140.3 37.22,-63.9 53.95,-29.2"/>
<polygon fill="midnightblue" stroke="midnightblue" points="57.29,-30.36 58.65,-19.85 51.03,-27.22 57.29,-30.36"/>
</g>
<!-- Node11 -->
<g id="node11" class="node">
<title>Node11</title>
<g id="a_node11"><a xlink:href="util_8hpp.html" target="_top" xlink:title=" ">
<polygon fill="white" stroke="black" points="220,-168.5 220,-187.5 323,-187.5 323,-168.5 220,-168.5"/>
<text text-anchor="middle" x="271.5" y="-175.5" font-family="Helvetica,sans-Serif" font-size="10.00">optimizer/util.hpp</text>
</a>
</g>
</g>
<!-- Node1&#45;&gt;Node11 -->
<g id="edge15" class="edge">
<title>Node1&#45;&gt;Node11</title>
<path fill="none" stroke="midnightblue" d="M211.07,-224.32C221.92,-216.18 238.38,-203.84 251.38,-194.09"/>
<polygon fill="midnightblue" stroke="midnightblue" points="253.82,-196.63 259.72,-187.83 249.62,-191.03 253.82,-196.63"/>
</g>
<!-- Node12 -->
<g id="node12" class="node">
<title>Node12</title>
<g id="a_node12"><a xlink:title=" ">
<polygon fill="white" stroke="#bfbfbf" points="341.5,-168.5 341.5,-187.5 401.5,-187.5 401.5,-168.5 341.5,-168.5"/>
<text text-anchor="middle" x="371.5" y="-175.5" font-family="Helvetica,sans-Serif" font-size="10.00">iostream</text>
</a>
</g>
</g>
<!-- Node1&#45;&gt;Node12 -->
<g id="edge18" class="edge">
<title>Node1&#45;&gt;Node12</title>
<path fill="none" stroke="midnightblue" d="M226.75,-224.44C255.94,-215.28 302.42,-200.69 334.81,-190.52"/>
<polygon fill="midnightblue" stroke="midnightblue" points="335.88,-193.85 344.37,-187.52 333.78,-187.17 335.88,-193.85"/>
</g>
<!-- Node3 -->
<g id="node3" class="node">
<title>Node3</title>
<g id="a_node3"><a xlink:title=" ">
<polygon fill="white" stroke="#bfbfbf" points="391,-0.5 391,-19.5 438,-19.5 438,-0.5 391,-0.5"/>
<text text-anchor="middle" x="414.5" y="-7.5" font-family="Helvetica,sans-Serif" font-size="10.00">vector</text>
</a>
</g>
</g>
<!-- Node2&#45;&gt;Node3 -->
<g id="edge2" class="edge">
<title>Node2&#45;&gt;Node3</title>
<path fill="none" stroke="midnightblue" d="M187.02,-168.45C224.7,-161.65 273.81,-150.2 314.5,-132 354.45,-114.13 369.89,-111.49 395.5,-76 405.28,-62.44 410.06,-43.9 412.37,-30.08"/>
<polygon fill="midnightblue" stroke="midnightblue" points="415.89,-30.19 413.79,-19.8 408.96,-29.23 415.89,-30.19"/>
</g>
<!-- Node4 -->
<g id="node4" class="node">
<title>Node4</title>
<g id="a_node4"><a xlink:title=" ">
<polygon fill="white" stroke="#bfbfbf" points="97,-112.5 97,-131.5 142,-131.5 142,-112.5 97,-112.5"/>
<text text-anchor="middle" x="119.5" y="-119.5" font-family="Helvetica,sans-Serif" font-size="10.00">utility</text>
</a>
</g>
</g>
<!-- Node2&#45;&gt;Node4 -->
<g id="edge3" class="edge">
<title>Node2&#45;&gt;Node4</title>
<path fill="none" stroke="midnightblue" d="M126.18,-168.08C125.12,-160.93 123.59,-150.64 122.27,-141.69"/>
<polygon fill="midnightblue" stroke="midnightblue" points="125.72,-141.13 120.8,-131.75 118.8,-142.16 125.72,-141.13"/>
</g>
<!-- Node2&#45;&gt;Node5 -->
<g id="edge4" class="edge">
<title>Node2&#45;&gt;Node5</title>
<path fill="none" stroke="midnightblue" d="M117.28,-168.45C108.02,-160.12 94.76,-146.6 87.5,-132 70.88,-98.56 65.77,-54.53 64.19,-29.86"/>
<polygon fill="midnightblue" stroke="midnightblue" points="67.68,-29.52 63.68,-19.71 60.69,-29.87 67.68,-29.52"/>
</g>
<!-- Node6 -->
<g id="node6" class="node">
<title>Node6</title>
<g id="a_node6"><a xlink:href="tables_8hpp.html" target="_top" xlink:title=" ">
<polygon fill="white" stroke="black" points="126,-56.5 126,-75.5 239,-75.5 239,-56.5 126,-56.5"/>
<text text-anchor="middle" x="182.5" y="-63.5" font-family="Helvetica,sans-Serif" font-size="10.00">common/tables.hpp</text>
</a>
</g>
</g>
<!-- Node2&#45;&gt;Node6 -->
<g id="edge5" class="edge">
<title>Node2&#45;&gt;Node6</title>
<path fill="none" stroke="midnightblue" d="M131.95,-168.39C136.61,-159.35 144.13,-144.7 150.5,-132 158.42,-116.21 167.28,-98.18 173.67,-85.12"/>
<polygon fill="midnightblue" stroke="midnightblue" points="176.95,-86.37 178.19,-75.85 170.66,-83.3 176.95,-86.37"/>
</g>
<!-- Node9 -->
<g id="node9" class="node">
<title>Node9</title>
<g id="a_node9"><a xlink:href="poliz_8hpp.html" target="_top" xlink:title=" ">
<polygon fill="white" stroke="black" points="199,-112.5 199,-131.5 306,-131.5 306,-112.5 199,-112.5"/>
<text text-anchor="middle" x="252.5" y="-119.5" font-family="Helvetica,sans-Serif" font-size="10.00">common/poliz.hpp</text>
</a>
</g>
</g>
<!-- Node2&#45;&gt;Node9 -->
<g id="edge10" class="edge">
<title>Node2&#45;&gt;Node9</title>
<path fill="none" stroke="midnightblue" d="M147.31,-168.44C167.79,-159.6 199.98,-145.69 223.36,-135.59"/>
<polygon fill="midnightblue" stroke="midnightblue" points="224.99,-138.7 232.79,-131.52 222.22,-132.27 224.99,-138.7"/>
</g>
<!-- Node6&#45;&gt;Node3 -->
<g id="edge8" class="edge">
<title>Node6&#45;&gt;Node3</title>
<path fill="none" stroke="midnightblue" d="M219.26,-56.44C263.76,-46.09 338.06,-28.79 381.03,-18.79"/>
<polygon fill="midnightblue" stroke="midnightblue" points="382.04,-22.15 390.98,-16.47 380.45,-15.33 382.04,-22.15"/>
</g>
<!-- Node6&#45;&gt;Node5 -->
<g id="edge9" class="edge">
<title>Node6&#45;&gt;Node5</title>
<path fill="none" stroke="midnightblue" d="M163.64,-56.44C144.23,-47.64 113.77,-33.81 91.54,-23.72"/>
<polygon fill="midnightblue" stroke="midnightblue" points="92.82,-20.46 82.27,-19.52 89.93,-26.84 92.82,-20.46"/>
</g>
<!-- Node7 -->
<g id="node7" class="node">
<title>Node7</title>
<g id="a_node7"><a xlink:title=" ">
<polygon fill="white" stroke="#bfbfbf" points="149,-0.5 149,-19.5 202,-19.5 202,-0.5 149,-0.5"/>
<text text-anchor="middle" x="175.5" y="-7.5" font-family="Helvetica,sans-Serif" font-size="10.00">cstddef</text>
</a>
</g>
</g>
<!-- Node6&#45;&gt;Node7 -->
<g id="edge6" class="edge">
<title>Node6&#45;&gt;Node7</title>
<path fill="none" stroke="midnightblue" d="M181.34,-56.08C180.42,-48.93 179.08,-38.64 177.92,-29.69"/>
<polygon fill="midnightblue" stroke="midnightblue" points="181.39,-29.22 176.63,-19.75 174.45,-30.12 181.39,-29.22"/>
</g>
<!-- Node8 -->
<g id="node8" class="node">
<title>Node8</title>
<g id="a_node8"><a xlink:title=" ">
<polygon fill="white" stroke="#bfbfbf" points="220,-0.5 220,-19.5 277,-19.5 277,-0.5 220,-0.5"/>
<text text-anchor="middle" x="248.5" y="-7.5" font-family="Helvetica,sans-Serif" font-size="10.00">ostream</text>
</a>
</g>
</g>
<!-- Node6&#45;&gt;Node8 -->
<g id="edge7" class="edge">
<title>Node6&#45;&gt;Node8</title>
<path fill="none" stroke="midnightblue" d="M193.1,-56.32C202.96,-48.26 217.85,-36.08 229.72,-26.37"/>
<polygon fill="midnightblue" stroke="midnightblue" points="232.18,-28.88 237.7,-19.83 227.75,-23.46 232.18,-28.88"/>
</g>
<!-- Node9&#45;&gt;Node5 -->
<g id="edge12" class="edge">
<title>Node9&#45;&gt;Node5</title>
<path fill="none" stroke="midnightblue" d="M205.76,-112.43C178.05,-105.74 143.23,-94.41 116.5,-76 98.4,-63.53 83.22,-43.17 73.81,-28.56"/>
<polygon fill="midnightblue" stroke="midnightblue" points="76.71,-26.6 68.48,-19.93 70.75,-30.27 76.71,-26.6"/>
</g>
<!-- Node9&#45;&gt;Node6 -->
<g id="edge11" class="edge">
<title>Node9&#45;&gt;Node6</title>
<path fill="none" stroke="midnightblue" d="M241.25,-112.32C230.7,-104.18 214.7,-91.84 202.06,-82.09"/>
<polygon fill="midnightblue" stroke="midnightblue" points="204.01,-79.17 193.95,-75.83 199.73,-84.71 204.01,-79.17"/>
</g>
<!-- Node10 -->
<g id="node10" class="node">
<title>Node10</title>
<g id="a_node10"><a xlink:href="cppcheck_8hpp.html" target="_top" xlink:title=" ">
<polygon fill="white" stroke="black" points="257,-56.5 257,-75.5 386,-75.5 386,-56.5 257,-56.5"/>
<text text-anchor="middle" x="321.5" y="-63.5" font-family="Helvetica,sans-Serif" font-size="10.00">common/cppcheck.hpp</text>
</a>
</g>
</g>
<!-- Node9&#45;&gt;Node10 -->
<g id="edge13" class="edge">
<title>Node9&#45;&gt;Node10</title>
<path fill="none" stroke="midnightblue" d="M263.59,-112.32C273.99,-104.18 289.76,-91.84 302.22,-82.09"/>
<polygon fill="midnightblue" stroke="midnightblue" points="304.49,-84.75 310.21,-75.83 300.18,-79.24 304.49,-84.75"/>
</g>
<!-- Node11&#45;&gt;Node3 -->
<g id="edge16" class="edge">
<title>Node11&#45;&gt;Node3</title>
<path fill="none" stroke="midnightblue" d="M323.38,-168.98C364,-161.51 415.7,-148.98 428.5,-132 451.32,-101.72 435.31,-54.5 423.66,-28.92"/>
<polygon fill="midnightblue" stroke="midnightblue" points="426.71,-27.17 419.21,-19.68 420.4,-30.21 426.71,-27.17"/>
</g>
<!-- Node11&#45;&gt;Node9 -->
<g id="edge17" class="edge">
<title>Node11&#45;&gt;Node9</title>
<path fill="none" stroke="midnightblue" d="M268.36,-168.08C265.82,-160.85 262.14,-150.41 258.97,-141.4"/>
<polygon fill="midnightblue" stroke="midnightblue" points="262.2,-140.02 255.58,-131.75 255.6,-142.35 262.2,-140.02"/>
</g>
</g>
</svg>
