<?xml version="1.0" encoding="UTF-8" standalone="no"?>
<!DOCTYPE svg PUBLIC "-//W3C//DTD SVG 1.1//EN"
 "http://www.w3.org/Graphics/SVG/1.1/DTD/svg11.dtd">
<!-- Generated by graphviz version 2.43.0 (0)
 -->
<!-- Title: src/optimizer/acyclicgraph.cpp Pages: 1 -->
<svg width="503pt" height="308pt"
 viewBox="0.00 0.00 502.59 308.00" xmlns="http://www.w3.org/2000/svg" xmlns:xlink="http://www.w3.org/1999/xlink">
<g id="graph0" class="graph" transform="scale(1 1) rotate(0) translate(4 304)">
<title>src/optimizer/acyclicgraph.cpp</title>
<polygon fill="white" stroke="transparent" points="-4,4 -4,-304 498.59,-304 498.59,4 -4,4"/>
<!-- Node1 -->
<g id="node1" class="node">
<title>Node1</title>
<g id="a_node1"><a xlink:title=" ">
<polygon fill="#bfbfbf" stroke="black" points="139,-280.5 139,-299.5 304,-299.5 304,-280.5 139,-280.5"/>
<text text-anchor="middle" x="221.5" y="-287.5" font-family="Helvetica,sans-Serif" font-size="10.00">src/optimizer/acyclicgraph.cpp</text>
</a>
</g>
</g>
<!-- Node2 -->
<g id="node2" class="node">
<title>Node2</title>
<g id="a_node2"><a xlink:href="acyclicgraph_8hpp.html" target="_top" xlink:title=" ">
<polygon fill="white" stroke="black" points="84,-168.5 84,-187.5 233,-187.5 233,-168.5 84,-168.5"/>
<text text-anchor="middle" x="158.5" y="-175.5" font-family="Helvetica,sans-Serif" font-size="10.00">optimizer/acyclicgraph.hpp</text>
</a>
</g>
</g>
<!-- Node1&#45;&gt;Node2 -->
<g id="edge1" class="edge">
<title>Node1&#45;&gt;Node2</title>
<path fill="none" stroke="midnightblue" d="M216.56,-280.37C206.21,-262.3 182.08,-220.18 168.41,-196.31"/>
<polygon fill="midnightblue" stroke="midnightblue" points="171.43,-194.53 163.42,-187.59 165.35,-198.01 171.43,-194.53"/>
</g>
<!-- Node5 -->
<g id="node5" class="node">
<title>Node5</title>
<g id="a_node5"><a xlink:href="exprtype_8hpp.html" target="_top" xlink:title=" ">
<polygon fill="white" stroke="black" points="0,-0.5 0,-19.5 127,-19.5 127,-0.5 0,-0.5"/>
<text text-anchor="middle" x="63.5" y="-7.5" font-family="Helvetica,sans-Serif" font-size="10.00">common/exprtype.hpp</text>
</a>
</g>
</g>
<!-- Node1&#45;&gt;Node5 -->
<g id="edge13" class="edge">
<title>Node1&#45;&gt;Node5</title>
<path fill="none" stroke="midnightblue" d="M153.34,-280.5C94.37,-268.87 18.5,-241.73 18.5,-179 18.5,-179 18.5,-179 18.5,-121 18.5,-85.93 38.34,-48.94 51.67,-28.04"/>
<polygon fill="midnightblue" stroke="midnightblue" points="54.63,-29.9 57.24,-19.63 48.8,-26.03 54.63,-29.9"/>
</g>
<!-- Node10 -->
<g id="node10" class="node">
<title>Node10</title>
<g id="a_node10"><a xlink:href="util_8hpp.html" target="_top" xlink:title=" ">
<polygon fill="white" stroke="black" points="220,-224.5 220,-243.5 319,-243.5 319,-224.5 220,-224.5"/>
<text text-anchor="middle" x="269.5" y="-231.5" font-family="Helvetica,sans-Serif" font-size="10.00">common/util.hpp</text>
</a>
</g>
</g>
<!-- Node1&#45;&gt;Node10 -->
<g id="edge14" class="edge">
<title>Node1&#45;&gt;Node10</title>
<path fill="none" stroke="midnightblue" d="M229.43,-280.08C236.35,-272.3 246.57,-260.8 254.95,-251.37"/>
<polygon fill="midnightblue" stroke="midnightblue" points="257.69,-253.55 261.72,-243.75 252.46,-248.9 257.69,-253.55"/>
</g>
<!-- Node13 -->
<g id="node13" class="node">
<title>Node13</title>
<g id="a_node13"><a xlink:title=" ">
<polygon fill="white" stroke="#bfbfbf" points="337.5,-224.5 337.5,-243.5 397.5,-243.5 397.5,-224.5 337.5,-224.5"/>
<text text-anchor="middle" x="367.5" y="-231.5" font-family="Helvetica,sans-Serif" font-size="10.00">iostream</text>
</a>
</g>
</g>
<!-- Node1&#45;&gt;Node13 -->
<g id="edge22" class="edge">
<title>Node1&#45;&gt;Node13</title>
<path fill="none" stroke="midnightblue" d="M244.63,-280.44C268.98,-271.44 307.51,-257.19 334.92,-247.05"/>
<polygon fill="midnightblue" stroke="midnightblue" points="336.31,-250.27 344.47,-243.52 333.88,-243.7 336.31,-250.27"/>
</g>
<!-- Node3 -->
<g id="node3" class="node">
<title>Node3</title>
<g id="a_node3"><a xlink:title=" ">
<polygon fill="white" stroke="#bfbfbf" points="335,-0.5 335,-19.5 382,-19.5 382,-0.5 335,-0.5"/>
<text text-anchor="middle" x="358.5" y="-7.5" font-family="Helvetica,sans-Serif" font-size="10.00">vector</text>
</a>
</g>
</g>
<!-- Node2&#45;&gt;Node3 -->
<g id="edge2" class="edge">
<title>Node2&#45;&gt;Node3</title>
<path fill="none" stroke="midnightblue" d="M165.1,-168.45C175.33,-155.47 195.99,-130.36 216.5,-112 255.55,-77.04 306.78,-43.14 335.82,-24.88"/>
<polygon fill="midnightblue" stroke="midnightblue" points="337.79,-27.77 344.43,-19.52 334.09,-21.83 337.79,-27.77"/>
</g>
<!-- Node4 -->
<g id="node4" class="node">
<title>Node4</title>
<g id="a_node4"><a xlink:title=" ">
<polygon fill="white" stroke="#bfbfbf" points="85,-112.5 85,-131.5 130,-131.5 130,-112.5 85,-112.5"/>
<text text-anchor="middle" x="107.5" y="-119.5" font-family="Helvetica,sans-Serif" font-size="10.00">utility</text>
</a>
</g>
</g>
<!-- Node2&#45;&gt;Node4 -->
<g id="edge3" class="edge">
<title>Node2&#45;&gt;Node4</title>
<path fill="none" stroke="midnightblue" d="M150.08,-168.08C142.65,-160.22 131.65,-148.57 122.69,-139.08"/>
<polygon fill="midnightblue" stroke="midnightblue" points="125.18,-136.62 115.76,-131.75 120.09,-141.42 125.18,-136.62"/>
</g>
<!-- Node2&#45;&gt;Node5 -->
<g id="edge4" class="edge">
<title>Node2&#45;&gt;Node5</title>
<path fill="none" stroke="midnightblue" d="M127.79,-168.39C109.5,-161.59 87.56,-150.16 75.5,-132 54.83,-100.89 57,-55 60.31,-29.61"/>
<polygon fill="midnightblue" stroke="midnightblue" points="63.8,-29.92 61.83,-19.51 56.88,-28.87 63.8,-29.92"/>
</g>
<!-- Node6 -->
<g id="node6" class="node">
<title>Node6</title>
<g id="a_node6"><a xlink:href="tables_8hpp.html" target="_top" xlink:title=" ">
<polygon fill="white" stroke="black" points="123,-56.5 123,-75.5 236,-75.5 236,-56.5 123,-56.5"/>
<text text-anchor="middle" x="179.5" y="-63.5" font-family="Helvetica,sans-Serif" font-size="10.00">common/tables.hpp</text>
</a>
</g>
</g>
<!-- Node2&#45;&gt;Node6 -->
<g id="edge5" class="edge">
<title>Node2&#45;&gt;Node6</title>
<path fill="none" stroke="midnightblue" d="M160.15,-168.37C163.54,-150.62 171.35,-109.67 175.95,-85.6"/>
<polygon fill="midnightblue" stroke="midnightblue" points="179.42,-86.07 177.86,-75.59 172.55,-84.76 179.42,-86.07"/>
</g>
<!-- Node9 -->
<g id="node9" class="node">
<title>Node9</title>
<g id="a_node9"><a xlink:href="poliz_8hpp.html" target="_top" xlink:title=" ">
<polygon fill="white" stroke="black" points="225,-112.5 225,-131.5 332,-131.5 332,-112.5 225,-112.5"/>
<text text-anchor="middle" x="278.5" y="-119.5" font-family="Helvetica,sans-Serif" font-size="10.00">common/poliz.hpp</text>
</a>
</g>
</g>
<!-- Node2&#45;&gt;Node9 -->
<g id="edge10" class="edge">
<title>Node2&#45;&gt;Node9</title>
<path fill="none" stroke="midnightblue" d="M177.51,-168.44C197.09,-159.64 227.81,-145.81 250.23,-135.72"/>
<polygon fill="midnightblue" stroke="midnightblue" points="251.89,-138.81 259.57,-131.52 249.02,-132.43 251.89,-138.81"/>
</g>
<!-- Node6&#45;&gt;Node3 -->
<g id="edge8" class="edge">
<title>Node6&#45;&gt;Node3</title>
<path fill="none" stroke="midnightblue" d="M207.86,-56.44C239.67,-46.85 291.2,-31.3 324.97,-21.11"/>
<polygon fill="midnightblue" stroke="midnightblue" points="326.28,-24.38 334.84,-18.14 324.26,-17.67 326.28,-24.38"/>
</g>
<!-- Node6&#45;&gt;Node5 -->
<g id="edge9" class="edge">
<title>Node6&#45;&gt;Node5</title>
<path fill="none" stroke="midnightblue" d="M161.12,-56.44C142.28,-47.68 112.77,-33.94 91.12,-23.86"/>
<polygon fill="midnightblue" stroke="midnightblue" points="92.34,-20.56 81.79,-19.52 89.38,-26.91 92.34,-20.56"/>
</g>
<!-- Node7 -->
<g id="node7" class="node">
<title>Node7</title>
<g id="a_node7"><a xlink:title=" ">
<polygon fill="white" stroke="#bfbfbf" points="149,-0.5 149,-19.5 202,-19.5 202,-0.5 149,-0.5"/>
<text text-anchor="middle" x="175.5" y="-7.5" font-family="Helvetica,sans-Serif" font-size="10.00">cstddef</text>
</a>
</g>
</g>
<!-- Node6&#45;&gt;Node7 -->
<g id="edge6" class="edge">
<title>Node6&#45;&gt;Node7</title>
<path fill="none" stroke="midnightblue" d="M178.84,-56.08C178.32,-49.01 177.56,-38.86 176.91,-29.99"/>
<polygon fill="midnightblue" stroke="midnightblue" points="180.38,-29.47 176.15,-19.75 173.4,-29.98 180.38,-29.47"/>
</g>
<!-- Node8 -->
<g id="node8" class="node">
<title>Node8</title>
<g id="a_node8"><a xlink:title=" ">
<polygon fill="white" stroke="#bfbfbf" points="220,-0.5 220,-19.5 277,-19.5 277,-0.5 220,-0.5"/>
<text text-anchor="middle" x="248.5" y="-7.5" font-family="Helvetica,sans-Serif" font-size="10.00">ostream</text>
</a>
</g>
</g>
<!-- Node6&#45;&gt;Node8 -->
<g id="edge7" class="edge">
<title>Node6&#45;&gt;Node8</title>
<path fill="none" stroke="midnightblue" d="M190.59,-56.32C200.99,-48.18 216.76,-35.84 229.22,-26.09"/>
<polygon fill="midnightblue" stroke="midnightblue" points="231.49,-28.75 237.21,-19.83 227.18,-23.24 231.49,-28.75"/>
</g>
<!-- Node9&#45;&gt;Node5 -->
<g id="edge12" class="edge">
<title>Node9&#45;&gt;Node5</title>
<path fill="none" stroke="midnightblue" d="M224.69,-115.24C190.53,-109.53 146.67,-98.24 113.5,-76 95.63,-64.02 81.43,-43.53 72.8,-28.76"/>
<polygon fill="midnightblue" stroke="midnightblue" points="75.64,-26.67 67.74,-19.61 69.52,-30.06 75.64,-26.67"/>
</g>
<!-- Node9&#45;&gt;Node6 -->
<g id="edge11" class="edge">
<title>Node9&#45;&gt;Node6</title>
<path fill="none" stroke="midnightblue" d="M262.59,-112.32C246.86,-103.74 222.56,-90.49 204.29,-80.52"/>
<polygon fill="midnightblue" stroke="midnightblue" points="205.82,-77.37 195.37,-75.65 202.47,-83.52 205.82,-77.37"/>
</g>
<!-- Node10&#45;&gt;Node3 -->
<g id="edge15" class="edge">
<title>Node10&#45;&gt;Node3</title>
<path fill="none" stroke="midnightblue" d="M318.38,-224.46C363.71,-215.87 427.27,-201.94 448.5,-188 474.73,-170.77 481.41,-161.71 491.5,-132 509.55,-78.85 436.63,-40.67 391.63,-22.65"/>
<polygon fill="midnightblue" stroke="midnightblue" points="392.81,-19.36 382.22,-19.01 390.28,-25.88 392.81,-19.36"/>
</g>
<!-- Node10&#45;&gt;Node9 -->
<g id="edge16" class="edge">
<title>Node10&#45;&gt;Node9</title>
<path fill="none" stroke="midnightblue" d="M270.21,-224.37C271.66,-206.62 275.01,-165.67 276.98,-141.6"/>
<polygon fill="midnightblue" stroke="midnightblue" points="280.47,-141.84 277.8,-131.59 273.49,-141.27 280.47,-141.84"/>
</g>
<!-- Node11 -->
<g id="node11" class="node">
<title>Node11</title>
<g id="a_node11"><a xlink:href="controlflow_8hpp.html" target="_top" xlink:title=" ">
<polygon fill="white" stroke="black" points="298,-168.5 298,-187.5 439,-187.5 439,-168.5 298,-168.5"/>
<text text-anchor="middle" x="368.5" y="-175.5" font-family="Helvetica,sans-Serif" font-size="10.00">optimizer/controlflow.hpp</text>
</a>
</g>
</g>
<!-- Node10&#45;&gt;Node11 -->
<g id="edge17" class="edge">
<title>Node10&#45;&gt;Node11</title>
<path fill="none" stroke="midnightblue" d="M285.41,-224.32C301.14,-215.74 325.44,-202.49 343.71,-192.52"/>
<polygon fill="midnightblue" stroke="midnightblue" points="345.53,-195.52 352.63,-187.65 342.18,-189.37 345.53,-195.52"/>
</g>
<!-- Node11&#45;&gt;Node3 -->
<g id="edge18" class="edge">
<title>Node11&#45;&gt;Node3</title>
<path fill="none" stroke="midnightblue" d="M367.96,-168.08C366.39,-141.95 361.77,-65.21 359.62,-29.58"/>
<polygon fill="midnightblue" stroke="midnightblue" points="363.11,-29.34 359.02,-19.57 356.12,-29.76 363.11,-29.34"/>
</g>
<!-- Node11&#45;&gt;Node6 -->
<g id="edge20" class="edge">
<title>Node11&#45;&gt;Node6</title>
<path fill="none" stroke="midnightblue" d="M367.37,-168.45C365.06,-154.55 358.53,-127.06 341.5,-112 315.36,-88.88 278.3,-77.54 246.22,-72.02"/>
<polygon fill="midnightblue" stroke="midnightblue" points="246.42,-68.51 236,-70.43 245.34,-75.43 246.42,-68.51"/>
</g>
<!-- Node11&#45;&gt;Node9 -->
<g id="edge21" class="edge">
<title>Node11&#45;&gt;Node9</title>
<path fill="none" stroke="midnightblue" d="M354.04,-168.32C340,-159.9 318.45,-146.97 301.96,-137.07"/>
<polygon fill="midnightblue" stroke="midnightblue" points="303.3,-133.8 292.92,-131.65 299.7,-139.8 303.3,-133.8"/>
</g>
<!-- Node12 -->
<g id="node12" class="node">
<title>Node12</title>
<g id="a_node12"><a xlink:title=" ">
<polygon fill="white" stroke="#bfbfbf" points="427,-112.5 427,-131.5 482,-131.5 482,-112.5 427,-112.5"/>
<text text-anchor="middle" x="454.5" y="-119.5" font-family="Helvetica,sans-Serif" font-size="10.00">fstream</text>
</a>
</g>
</g>
<!-- Node11&#45;&gt;Node12 -->
<g id="edge19" class="edge">
<title>Node11&#45;&gt;Node12</title>
<path fill="none" stroke="midnightblue" d="M382.32,-168.32C395.73,-159.9 416.32,-146.97 432.09,-137.07"/>
<polygon fill="midnightblue" stroke="midnightblue" points="434.11,-139.94 440.72,-131.65 430.39,-134.01 434.11,-139.94"/>
</g>
</g>
</svg>
