<?xml version="1.0" encoding="UTF-8" standalone="no"?>
<!DOCTYPE svg PUBLIC "-//W3C//DTD SVG 1.1//EN"
 "http://www.w3.org/Graphics/SVG/1.1/DTD/svg11.dtd">
<!-- Generated by graphviz version 2.43.0 (0)
 -->
<!-- Title: src/optimizer/acyclicgraph.hpp Pages: 1 -->
<svg width="346pt" height="196pt"
 viewBox="0.00 0.00 346.00 196.00" xmlns="http://www.w3.org/2000/svg" xmlns:xlink="http://www.w3.org/1999/xlink">
<g id="graph0" class="graph" transform="scale(1 1) rotate(0) translate(4 192)">
<title>src/optimizer/acyclicgraph.hpp</title>
<polygon fill="white" stroke="transparent" points="-4,4 -4,-192 342,-192 342,4 -4,4"/>
<!-- Node1 -->
<g id="node1" class="node">
<title>Node1</title>
<g id="a_node1"><a xlink:title=" ">
<polygon fill="#bfbfbf" stroke="black" points="42.5,-168.5 42.5,-187.5 208.5,-187.5 208.5,-168.5 42.5,-168.5"/>
<text text-anchor="middle" x="125.5" y="-175.5" font-family="Helvetica,sans-Serif" font-size="10.00">src/optimizer/acyclicgraph.hpp</text>
</a>
</g>
</g>
<!-- Node2 -->
<g id="node2" class="node">
<title>Node2</title>
<g id="a_node2"><a xlink:title=" ">
<polygon fill="white" stroke="#bfbfbf" points="0,-0.5 0,-19.5 47,-19.5 47,-0.5 0,-0.5"/>
<text text-anchor="middle" x="23.5" y="-7.5" font-family="Helvetica,sans-Serif" font-size="10.00">vector</text>
</a>
</g>
</g>
<!-- Node1&#45;&gt;Node2 -->
<g id="edge1" class="edge">
<title>Node1&#45;&gt;Node2</title>
<path fill="none" stroke="midnightblue" d="M95.96,-168.46C77.65,-161.6 55.26,-150.08 42.5,-132 20.8,-101.27 20.02,-55.23 21.61,-29.71"/>
<polygon fill="midnightblue" stroke="midnightblue" points="25.11,-29.82 22.44,-19.56 18.13,-29.24 25.11,-29.82"/>
</g>
<!-- Node3 -->
<g id="node3" class="node">
<title>Node3</title>
<g id="a_node3"><a xlink:title=" ">
<polygon fill="white" stroke="#bfbfbf" points="52,-112.5 52,-131.5 97,-131.5 97,-112.5 52,-112.5"/>
<text text-anchor="middle" x="74.5" y="-119.5" font-family="Helvetica,sans-Serif" font-size="10.00">utility</text>
</a>
</g>
</g>
<!-- Node1&#45;&gt;Node3 -->
<g id="edge2" class="edge">
<title>Node1&#45;&gt;Node3</title>
<path fill="none" stroke="midnightblue" d="M117.08,-168.08C109.65,-160.22 98.65,-148.57 89.69,-139.08"/>
<polygon fill="midnightblue" stroke="midnightblue" points="92.18,-136.62 82.76,-131.75 87.09,-141.42 92.18,-136.62"/>
</g>
<!-- Node4 -->
<g id="node4" class="node">
<title>Node4</title>
<g id="a_node4"><a xlink:href="exprtype_8hpp.html" target="_top" xlink:title=" ">
<polygon fill="white" stroke="black" points="211,-0.5 211,-19.5 338,-19.5 338,-0.5 211,-0.5"/>
<text text-anchor="middle" x="274.5" y="-7.5" font-family="Helvetica,sans-Serif" font-size="10.00">common/exprtype.hpp</text>
</a>
</g>
</g>
<!-- Node1&#45;&gt;Node4 -->
<g id="edge3" class="edge">
<title>Node1&#45;&gt;Node4</title>
<path fill="none" stroke="midnightblue" d="M208.54,-169.31C232.19,-162.88 255.56,-151.6 270.5,-132 293.15,-102.3 286.28,-55.53 279.96,-29.7"/>
<polygon fill="midnightblue" stroke="midnightblue" points="283.26,-28.48 277.29,-19.73 276.5,-30.29 283.26,-28.48"/>
</g>
<!-- Node5 -->
<g id="node5" class="node">
<title>Node5</title>
<g id="a_node5"><a xlink:href="tables_8hpp.html" target="_top" xlink:title=" ">
<polygon fill="white" stroke="black" points="79,-56.5 79,-75.5 192,-75.5 192,-56.5 79,-56.5"/>
<text text-anchor="middle" x="135.5" y="-63.5" font-family="Helvetica,sans-Serif" font-size="10.00">common/tables.hpp</text>
</a>
</g>
</g>
<!-- Node1&#45;&gt;Node5 -->
<g id="edge4" class="edge">
<title>Node1&#45;&gt;Node5</title>
<path fill="none" stroke="midnightblue" d="M126.28,-168.37C127.9,-150.62 131.62,-109.67 133.81,-85.6"/>
<polygon fill="midnightblue" stroke="midnightblue" points="137.3,-85.87 134.72,-75.59 130.33,-85.23 137.3,-85.87"/>
</g>
<!-- Node8 -->
<g id="node8" class="node">
<title>Node8</title>
<g id="a_node8"><a xlink:href="poliz_8hpp.html" target="_top" xlink:title=" ">
<polygon fill="white" stroke="black" points="154,-112.5 154,-131.5 261,-131.5 261,-112.5 154,-112.5"/>
<text text-anchor="middle" x="207.5" y="-119.5" font-family="Helvetica,sans-Serif" font-size="10.00">common/poliz.hpp</text>
</a>
</g>
</g>
<!-- Node1&#45;&gt;Node8 -->
<g id="edge9" class="edge">
<title>Node1&#45;&gt;Node8</title>
<path fill="none" stroke="midnightblue" d="M138.67,-168.32C151.35,-159.98 170.73,-147.21 185.71,-137.35"/>
<polygon fill="midnightblue" stroke="midnightblue" points="187.93,-140.08 194.36,-131.65 184.08,-134.23 187.93,-140.08"/>
</g>
<!-- Node5&#45;&gt;Node2 -->
<g id="edge7" class="edge">
<title>Node5&#45;&gt;Node2</title>
<path fill="none" stroke="midnightblue" d="M117.51,-56.32C99.46,-47.62 71.45,-34.12 50.7,-24.11"/>
<polygon fill="midnightblue" stroke="midnightblue" points="51.98,-20.84 41.45,-19.65 48.94,-27.15 51.98,-20.84"/>
</g>
<!-- Node5&#45;&gt;Node4 -->
<g id="edge8" class="edge">
<title>Node5&#45;&gt;Node4</title>
<path fill="none" stroke="midnightblue" d="M157.52,-56.44C180.6,-47.48 217.06,-33.31 243.14,-23.18"/>
<polygon fill="midnightblue" stroke="midnightblue" points="244.52,-26.4 252.58,-19.52 241.99,-19.88 244.52,-26.4"/>
</g>
<!-- Node6 -->
<g id="node6" class="node">
<title>Node6</title>
<g id="a_node6"><a xlink:title=" ">
<polygon fill="white" stroke="#bfbfbf" points="65,-0.5 65,-19.5 118,-19.5 118,-0.5 65,-0.5"/>
<text text-anchor="middle" x="91.5" y="-7.5" font-family="Helvetica,sans-Serif" font-size="10.00">cstddef</text>
</a>
</g>
</g>
<!-- Node5&#45;&gt;Node6 -->
<g id="edge5" class="edge">
<title>Node5&#45;&gt;Node6</title>
<path fill="none" stroke="midnightblue" d="M128.23,-56.08C121.96,-48.38 112.71,-37.03 105.07,-27.65"/>
<polygon fill="midnightblue" stroke="midnightblue" points="107.66,-25.29 98.63,-19.75 102.23,-29.71 107.66,-25.29"/>
</g>
<!-- Node7 -->
<g id="node7" class="node">
<title>Node7</title>
<g id="a_node7"><a xlink:title=" ">
<polygon fill="white" stroke="#bfbfbf" points="136,-0.5 136,-19.5 193,-19.5 193,-0.5 136,-0.5"/>
<text text-anchor="middle" x="164.5" y="-7.5" font-family="Helvetica,sans-Serif" font-size="10.00">ostream</text>
</a>
</g>
</g>
<!-- Node5&#45;&gt;Node7 -->
<g id="edge6" class="edge">
<title>Node5&#45;&gt;Node7</title>
<path fill="none" stroke="midnightblue" d="M140.29,-56.08C144.26,-48.69 150.03,-37.95 154.93,-28.81"/>
<polygon fill="midnightblue" stroke="midnightblue" points="158.15,-30.22 159.8,-19.75 151.99,-26.91 158.15,-30.22"/>
</g>
<!-- Node8&#45;&gt;Node4 -->
<g id="edge11" class="edge">
<title>Node8&#45;&gt;Node4</title>
<path fill="none" stroke="midnightblue" d="M212.76,-112.37C223.77,-94.3 249.42,-52.18 263.96,-28.31"/>
<polygon fill="midnightblue" stroke="midnightblue" points="267.05,-29.95 269.27,-19.59 261.08,-26.31 267.05,-29.95"/>
</g>
<!-- Node8&#45;&gt;Node5 -->
<g id="edge10" class="edge">
<title>Node8&#45;&gt;Node5</title>
<path fill="none" stroke="midnightblue" d="M195.93,-112.32C185.08,-104.18 168.62,-91.84 155.62,-82.09"/>
<polygon fill="midnightblue" stroke="midnightblue" points="157.38,-79.03 147.28,-75.83 153.18,-84.63 157.38,-79.03"/>
</g>
</g>
</svg>
