<?xml version="1.0" encoding="UTF-8" standalone="no"?>
<!DOCTYPE svg PUBLIC "-//W3C//DTD SVG 1.1//EN"
 "http://www.w3.org/Graphics/SVG/1.1/DTD/svg11.dtd">
<!-- Generated by graphviz version 2.43.0 (0)
 -->
<!-- Title: src/optimizer/acyclicgraph.hpp Pages: 1 -->
<svg width="387pt" height="196pt"
 viewBox="0.00 0.00 386.55 196.00" xmlns="http://www.w3.org/2000/svg" xmlns:xlink="http://www.w3.org/1999/xlink">
<g id="graph0" class="graph" transform="scale(1 1) rotate(0) translate(4 192)">
<title>src/optimizer/acyclicgraph.hpp</title>
<polygon fill="white" stroke="transparent" points="-4,4 -4,-192 382.55,-192 382.55,4 -4,4"/>
<!-- Node1 -->
<g id="node1" class="node">
<title>Node1</title>
<g id="a_node1"><a xlink:title=" ">
<polygon fill="#bfbfbf" stroke="black" points="42.5,-168.5 42.5,-187.5 208.5,-187.5 208.5,-168.5 42.5,-168.5"/>
<text text-anchor="middle" x="125.5" y="-175.5" font-family="Helvetica,sans-Serif" font-size="10.00">src/optimizer/acyclicgraph.hpp</text>
</a>
</g>
</g>
<!-- Node2 -->
<g id="node2" class="node">
<title>Node2</title>
<g id="a_node2"><a xlink:title=" ">
<polygon fill="white" stroke="#bfbfbf" points="0,-0.5 0,-19.5 47,-19.5 47,-0.5 0,-0.5"/>
<text text-anchor="middle" x="23.5" y="-7.5" font-family="Helvetica,sans-Serif" font-size="10.00">vector</text>
</a>
</g>
</g>
<!-- Node1&#45;&gt;Node2 -->
<g id="edge1" class="edge">
<title>Node1&#45;&gt;Node2</title>
<path fill="none" stroke="midnightblue" d="M95.96,-168.46C77.65,-161.6 55.26,-150.08 42.5,-132 20.8,-101.27 20.02,-55.23 21.61,-29.71"/>
<polygon fill="midnightblue" stroke="midnightblue" points="25.11,-29.82 22.44,-19.56 18.13,-29.24 25.11,-29.82"/>
</g>
<!-- Node3 -->
<g id="node3" class="node">
<title>Node3</title>
<g id="a_node3"><a xlink:title=" ">
<polygon fill="white" stroke="#bfbfbf" points="52,-112.5 52,-131.5 97,-131.5 97,-112.5 52,-112.5"/>
<text text-anchor="middle" x="74.5" y="-119.5" font-family="Helvetica,sans-Serif" font-size="10.00">utility</text>
</a>
</g>
</g>
<!-- Node1&#45;&gt;Node3 -->
<g id="edge2" class="edge">
<title>Node1&#45;&gt;Node3</title>
<path fill="none" stroke="midnightblue" d="M117.08,-168.08C109.65,-160.22 98.65,-148.57 89.69,-139.08"/>
<polygon fill="midnightblue" stroke="midnightblue" points="92.18,-136.62 82.76,-131.75 87.09,-141.42 92.18,-136.62"/>
</g>
<!-- Node4 -->
<g id="node4" class="node">
<title>Node4</title>
<g id="a_node4"><a xlink:href="exprtype_8hpp.html" target="_top" xlink:title=" ">
<polygon fill="white" stroke="black" points="211,-0.5 211,-19.5 338,-19.5 338,-0.5 211,-0.5"/>
<text text-anchor="middle" x="274.5" y="-7.5" font-family="Helvetica,sans-Serif" font-size="10.00">common/exprtype.hpp</text>
</a>
</g>
</g>
<!-- Node1&#45;&gt;Node4 -->
<g id="edge3" class="edge">
<title>Node1&#45;&gt;Node4</title>
<path fill="none" stroke="midnightblue" d="M208.77,-168.66C267.02,-157.84 340.3,-133 374.5,-76 389.95,-50.25 355.81,-32.82 323.31,-22.54"/>
<polygon fill="midnightblue" stroke="midnightblue" points="323.91,-19.07 313.33,-19.58 321.92,-25.78 323.91,-19.07"/>
</g>
<!-- Node5 -->
<g id="node5" class="node">
<title>Node5</title>
<g id="a_node5"><a xlink:href="tables_8hpp.html" target="_top" xlink:title=" ">
<polygon fill="white" stroke="black" points="66,-56.5 66,-75.5 179,-75.5 179,-56.5 66,-56.5"/>
<text text-anchor="middle" x="122.5" y="-63.5" font-family="Helvetica,sans-Serif" font-size="10.00">common/tables.hpp</text>
</a>
</g>
</g>
<!-- Node1&#45;&gt;Node5 -->
<g id="edge4" class="edge">
<title>Node1&#45;&gt;Node5</title>
<path fill="none" stroke="midnightblue" d="M125.26,-168.37C124.78,-150.62 123.66,-109.67 123.01,-85.6"/>
<polygon fill="midnightblue" stroke="midnightblue" points="126.51,-85.49 122.73,-75.59 119.51,-85.68 126.51,-85.49"/>
</g>
<!-- Node8 -->
<g id="node8" class="node">
<title>Node8</title>
<g id="a_node8"><a xlink:href="poliz_8hpp.html" target="_top" xlink:title=" ">
<polygon fill="white" stroke="black" points="154,-112.5 154,-131.5 261,-131.5 261,-112.5 154,-112.5"/>
<text text-anchor="middle" x="207.5" y="-119.5" font-family="Helvetica,sans-Serif" font-size="10.00">common/poliz.hpp</text>
</a>
</g>
</g>
<!-- Node1&#45;&gt;Node8 -->
<g id="edge9" class="edge">
<title>Node1&#45;&gt;Node8</title>
<path fill="none" stroke="midnightblue" d="M138.67,-168.32C151.35,-159.98 170.73,-147.21 185.71,-137.35"/>
<polygon fill="midnightblue" stroke="midnightblue" points="187.93,-140.08 194.36,-131.65 184.08,-134.23 187.93,-140.08"/>
</g>
<!-- Node5&#45;&gt;Node2 -->
<g id="edge7" class="edge">
<title>Node5&#45;&gt;Node2</title>
<path fill="none" stroke="midnightblue" d="M106.59,-56.32C90.86,-47.74 66.56,-34.49 48.29,-24.52"/>
<polygon fill="midnightblue" stroke="midnightblue" points="49.82,-21.37 39.37,-19.65 46.47,-27.52 49.82,-21.37"/>
</g>
<!-- Node5&#45;&gt;Node4 -->
<g id="edge8" class="edge">
<title>Node5&#45;&gt;Node4</title>
<path fill="none" stroke="midnightblue" d="M146.58,-56.44C172.04,-47.4 212.39,-33.06 240.96,-22.92"/>
<polygon fill="midnightblue" stroke="midnightblue" points="242.28,-26.16 250.53,-19.52 239.93,-19.57 242.28,-26.16"/>
</g>
<!-- Node6 -->
<g id="node6" class="node">
<title>Node6</title>
<g id="a_node6"><a xlink:title=" ">
<polygon fill="white" stroke="#bfbfbf" points="65,-0.5 65,-19.5 118,-19.5 118,-0.5 65,-0.5"/>
<text text-anchor="middle" x="91.5" y="-7.5" font-family="Helvetica,sans-Serif" font-size="10.00">cstddef</text>
</a>
</g>
</g>
<!-- Node5&#45;&gt;Node6 -->
<g id="edge5" class="edge">
<title>Node5&#45;&gt;Node6</title>
<path fill="none" stroke="midnightblue" d="M117.38,-56.08C113.09,-48.61 106.84,-37.72 101.56,-28.52"/>
<polygon fill="midnightblue" stroke="midnightblue" points="104.54,-26.68 96.52,-19.75 98.47,-30.17 104.54,-26.68"/>
</g>
<!-- Node7 -->
<g id="node7" class="node">
<title>Node7</title>
<g id="a_node7"><a xlink:title=" ">
<polygon fill="white" stroke="#bfbfbf" points="136,-0.5 136,-19.5 193,-19.5 193,-0.5 136,-0.5"/>
<text text-anchor="middle" x="164.5" y="-7.5" font-family="Helvetica,sans-Serif" font-size="10.00">ostream</text>
</a>
</g>
</g>
<!-- Node5&#45;&gt;Node7 -->
<g id="edge6" class="edge">
<title>Node5&#45;&gt;Node7</title>
<path fill="none" stroke="midnightblue" d="M129.44,-56.08C135.43,-48.38 144.25,-37.03 151.55,-27.65"/>
<polygon fill="midnightblue" stroke="midnightblue" points="154.32,-29.79 157.69,-19.75 148.79,-25.5 154.32,-29.79"/>
</g>
<!-- Node8&#45;&gt;Node4 -->
<g id="edge11" class="edge">
<title>Node8&#45;&gt;Node4</title>
<path fill="none" stroke="midnightblue" d="M208.72,-112.43C210.87,-99.43 216.22,-74.29 227.5,-56 234.57,-44.55 245.23,-34.01 254.62,-26.02"/>
<polygon fill="midnightblue" stroke="midnightblue" points="256.86,-28.71 262.41,-19.69 252.44,-23.27 256.86,-28.71"/>
</g>
<!-- Node8&#45;&gt;Node5 -->
<g id="edge10" class="edge">
<title>Node8&#45;&gt;Node5</title>
<path fill="none" stroke="midnightblue" d="M193.84,-112.32C180.58,-103.9 160.23,-90.97 144.65,-81.07"/>
<polygon fill="midnightblue" stroke="midnightblue" points="146.44,-78.06 136.12,-75.65 142.69,-83.97 146.44,-78.06"/>
</g>
<!-- Node9 -->
<g id="node9" class="node">
<title>Node9</title>
<g id="a_node9"><a xlink:href="cppcheck_8hpp.html" target="_top" xlink:title=" ">
<polygon fill="white" stroke="black" points="236,-56.5 236,-75.5 365,-75.5 365,-56.5 236,-56.5"/>
<text text-anchor="middle" x="300.5" y="-63.5" font-family="Helvetica,sans-Serif" font-size="10.00">common/cppcheck.hpp</text>
</a>
</g>
</g>
<!-- Node8&#45;&gt;Node9 -->
<g id="edge12" class="edge">
<title>Node8&#45;&gt;Node9</title>
<path fill="none" stroke="midnightblue" d="M222.44,-112.32C237.09,-103.82 259.63,-90.73 276.74,-80.8"/>
<polygon fill="midnightblue" stroke="midnightblue" points="278.7,-83.7 285.6,-75.65 275.19,-77.65 278.7,-83.7"/>
</g>
</g>
</svg>
