<?xml version="1.0" encoding="UTF-8" standalone="no"?>
<!DOCTYPE svg PUBLIC "-//W3C//DTD SVG 1.1//EN"
 "http://www.w3.org/Graphics/SVG/1.1/DTD/svg11.dtd">
<!-- Generated by graphviz version 2.43.0 (0)
 -->
<!-- Title: Parser Pages: 1 -->
<!--zoomable 414 -->
<svg id="main" version="1.1" xmlns="http://www.w3.org/2000/svg" xmlns:xlink="http://www.w3.org/1999/xlink" xml:space="preserve" onload="init(evt)">
<style type="text/css"><![CDATA[
.edge:hover path { stroke: red; }
.edge:hover polygon { stroke: red; fill: red; }
]]></style>
<script type="text/javascript"><![CDATA[
var edges = document.getElementsByTagName('g');
if (edges && edges.length) {
  for (var i=0;i<edges.length;i++) {
    if (edges[i].id.substr(0,4)=='edge') {
      edges[i].setAttribute('class','edge');
    }
  }
}
]]></script>
        <defs>
                <circle id="rim" cx="0" cy="0" r="7"/>
                <circle id="rim2" cx="0" cy="0" r="3.5"/>
                <g id="zoomPlus">
                        <use xlink:href="#rim" fill="#404040">
                                <set attributeName="fill" to="#808080" begin="zoomplus.mouseover" end="zoomplus.mouseout"/>
                        </use>
                        <path d="M-4,0h8M0,-4v8" fill="none" stroke="white" stroke-width="1.5" pointer-events="none"/>
                </g>
                <g id="zoomMin">
                        <use xlink:href="#rim" fill="#404040">
                                <set attributeName="fill" to="#808080" begin="zoomminus.mouseover" end="zoomminus.mouseout"/>
                        </use>
                        <path d="M-4,0h8" fill="none" stroke="white" stroke-width="1.5" pointer-events="none"/>
                </g>
                <g id="dirArrow">
                        <path fill="none" stroke="white" stroke-width="1.5" d="M0,-3.0v7 M-2.5,-0.5L0,-3.0L2.5,-0.5"/>
                </g>
               <g id="resetDef">
                       <use xlink:href="#rim2" fill="#404040">
                               <set attributeName="fill" to="#808080" begin="reset.mouseover" end="reset.mouseout"/>
                       </use>
               </g>
        </defs>

<script type="text/javascript">
var viewWidth = 1077;
var viewHeight = 414;
var sectionId = 'dynsection-0';
</script>
<script xlink:href="svgpan.js"/>
<svg id="graph" class="graph">
<g id="viewport">
<title>Parser</title>
<polygon fill="white" stroke="transparent" points="-4,4 -4,-410 1073,-410 1073,4 -4,4"/>
<!-- Node1 -->
<g id="node1" class="node">
<title>Node1</title>
<g id="a_node1"><a xlink:title=" ">
<polygon fill="#bfbfbf" stroke="black" points="1022,-181.5 1022,-200.5 1069,-200.5 1069,-181.5 1022,-181.5"/>
<text text-anchor="middle" x="1045.5" y="-188.5" font-family="Helvetica,sans-Serif" font-size="10.00">Parser</text>
</a>
</g>
</g>
<!-- Node2 -->
<g id="node2" class="node">
<title>Node2</title>
<g id="a_node2"><a xlink:href="classStructTable.html" target="_top" xlink:title=" ">
<polygon fill="white" stroke="black" points="820,-297.5 820,-316.5 891,-316.5 891,-297.5 820,-297.5"/>
<text text-anchor="middle" x="855.5" y="-304.5" font-family="Helvetica,sans-Serif" font-size="10.00">StructTable</text>
</a>
</g>
</g>
<!-- Node2&#45;&gt;Node1 -->
<g id="edge1" class="edge">
<title>Node2&#45;&gt;Node1</title>
<path fill="none" stroke="#9a32cd" stroke-dasharray="5,2" d="M901.41,-306.11C933.09,-303.33 974.9,-295.06 1004,-272 1027.41,-253.45 1038.38,-217.82 1042.48,-200.68"/>
<polygon fill="#9a32cd" stroke="#9a32cd" points="900.81,-302.65 891.09,-306.86 901.31,-309.63 900.81,-302.65"/>
<text text-anchor="middle" x="979" y="-298" font-family="Helvetica,sans-Serif" font-size="10.00"> StTable</text>
</g>
<!-- Node2&#45;&gt;Node2 -->
<g id="edge2" class="edge">
<title>Node2&#45;&gt;Node2</title>
<path fill="none" stroke="#9a32cd" stroke-dasharray="5,2" d="M832.81,-326.03C834.04,-331.13 841.61,-335 855.5,-335 877.18,-335 883.45,-325.57 874.3,-316.76"/>
<polygon fill="#9a32cd" stroke="#9a32cd" points="836.06,-327.33 836.7,-316.76 829.6,-324.62 836.06,-327.33"/>
<text text-anchor="middle" x="855.5" y="-338" font-family="Helvetica,sans-Serif" font-size="10.00"> next</text>
</g>
<!-- Node3 -->
<g id="node3" class="node">
<title>Node3</title>
<g id="a_node3"><a xlink:href="classIdentTable.html" target="_top" xlink:title=" ">
<polygon fill="white" stroke="black" points="584,-346.5 584,-365.5 651,-365.5 651,-346.5 584,-346.5"/>
<text text-anchor="middle" x="617.5" y="-353.5" font-family="Helvetica,sans-Serif" font-size="10.00">IdentTable</text>
</a>
</g>
</g>
<!-- Node3&#45;&gt;Node1 -->
<g id="edge17" class="edge">
<title>Node3&#45;&gt;Node1</title>
<path fill="none" stroke="#9a32cd" stroke-dasharray="5,2" d="M661.69,-363.76C723.95,-373.21 841.77,-384.51 936,-355 970.58,-344.17 981.86,-338.69 1004,-310 1030.66,-275.44 1040.38,-222.25 1043.36,-200.63"/>
<polygon fill="#9a32cd" stroke="#9a32cd" points="661.89,-360.25 651.46,-362.15 660.8,-367.17 661.89,-360.25"/>
<text text-anchor="middle" x="855.5" y="-388" font-family="Helvetica,sans-Serif" font-size="10.00"> IdTable</text>
<text text-anchor="middle" x="855.5" y="-377" font-family="Helvetica,sans-Serif" font-size="10.00">threads</text>
</g>
<!-- Node3&#45;&gt;Node2 -->
<g id="edge3" class="edge">
<title>Node3&#45;&gt;Node2</title>
<path fill="none" stroke="#9a32cd" stroke-dasharray="5,2" d="M661.15,-347.14C706.54,-337.72 777.5,-322.99 819.66,-314.23"/>
<polygon fill="#9a32cd" stroke="#9a32cd" points="660.39,-343.73 651.31,-349.19 661.82,-350.58 660.39,-343.73"/>
<text text-anchor="middle" x="716" y="-347" font-family="Helvetica,sans-Serif" font-size="10.00"> fields</text>
</g>
<!-- Node3&#45;&gt;Node3 -->
<g id="edge4" class="edge">
<title>Node3&#45;&gt;Node3</title>
<path fill="none" stroke="#9a32cd" stroke-dasharray="5,2" d="M606.82,-375.77C607.66,-380.5 611.22,-384 617.5,-384 627.81,-384 630.79,-374.57 626.44,-365.76"/>
<polygon fill="#9a32cd" stroke="#9a32cd" points="610.29,-376.21 608.56,-365.76 603.4,-375.01 610.29,-376.21"/>
<text text-anchor="middle" x="617.5" y="-398" font-family="Helvetica,sans-Serif" font-size="10.00"> next</text>
<text text-anchor="middle" x="617.5" y="-387" font-family="Helvetica,sans-Serif" font-size="10.00">mainTable</text>
</g>
<!-- Node4 -->
<g id="node4" class="node">
<title>Node4</title>
<g id="a_node4"><a xlink:href="classCursor.html" target="_top" xlink:title=" ">
<polygon fill="white" stroke="black" points="831.5,-259.5 831.5,-278.5 879.5,-278.5 879.5,-259.5 831.5,-259.5"/>
<text text-anchor="middle" x="855.5" y="-266.5" font-family="Helvetica,sans-Serif" font-size="10.00">Cursor</text>
</a>
</g>
</g>
<!-- Node4&#45;&gt;Node1 -->
<g id="edge5" class="edge">
<title>Node4&#45;&gt;Node1</title>
<path fill="none" stroke="#9a32cd" stroke-dasharray="5,2" d="M889.61,-268.06C921.02,-265.83 968.57,-258.92 1004,-238 1019.58,-228.8 1032.15,-211.43 1038.96,-200.58"/>
<polygon fill="#9a32cd" stroke="#9a32cd" points="889.39,-264.56 879.61,-268.65 889.8,-271.55 889.39,-264.56"/>
<text text-anchor="middle" x="979" y="-260" font-family="Helvetica,sans-Serif" font-size="10.00"> c</text>
</g>
<!-- Node5 -->
<g id="node5" class="node">
<title>Node5</title>
<g id="a_node5"><a xlink:href="classStack.html" target="_top" xlink:title=" ">
<polygon fill="white" stroke="black" points="833.5,-220.5 833.5,-239.5 877.5,-239.5 877.5,-220.5 833.5,-220.5"/>
<text text-anchor="middle" x="855.5" y="-227.5" font-family="Helvetica,sans-Serif" font-size="10.00">Stack</text>
</a>
</g>
</g>
<!-- Node5&#45;&gt;Node1 -->
<g id="edge6" class="edge">
<title>Node5&#45;&gt;Node1</title>
<path fill="none" stroke="#9a32cd" stroke-dasharray="5,2" d="M887.47,-224.84C917.42,-219.68 964.01,-211.21 1004,-202 1009.82,-200.66 1016.07,-199.05 1021.87,-197.48"/>
<polygon fill="#9a32cd" stroke="#9a32cd" points="886.88,-221.39 877.61,-226.52 888.06,-228.29 886.88,-221.39"/>
<text text-anchor="middle" x="979" y="-226" font-family="Helvetica,sans-Serif" font-size="10.00"> exits</text>
<text text-anchor="middle" x="979" y="-215" font-family="Helvetica,sans-Serif" font-size="10.00">steps</text>
</g>
<!-- Node6 -->
<g id="node6" class="node">
<title>Node6</title>
<g id="a_node6"><a xlink:href="classGendarme.html" target="_top" xlink:title="Класс, предназначенный для освобождения неиспользуемой памяти.">
<polygon fill="white" stroke="black" points="583.5,-220.5 583.5,-239.5 651.5,-239.5 651.5,-220.5 583.5,-220.5"/>
<text text-anchor="middle" x="617.5" y="-227.5" font-family="Helvetica,sans-Serif" font-size="10.00">Gendarme</text>
</a>
</g>
</g>
<!-- Node6&#45;&gt;Node5 -->
<g id="edge7" class="edge">
<title>Node6&#45;&gt;Node5</title>
<path fill="none" stroke="#9a32cd" stroke-dasharray="5,2" d="M661.58,-230C712.33,-230 794.61,-230 833.22,-230"/>
<polygon fill="#9a32cd" stroke="#9a32cd" points="661.56,-226.5 651.56,-230 661.56,-233.5 661.56,-226.5"/>
<text text-anchor="middle" x="716" y="-233" font-family="Helvetica,sans-Serif" font-size="10.00"> memControl</text>
</g>
<!-- Node7 -->
<g id="node7" class="node">
<title>Node7</title>
<g id="a_node7"><a xlink:title="STL class.">
<polygon fill="white" stroke="#bfbfbf" points="578,-145.5 578,-164.5 657,-164.5 657,-145.5 578,-145.5"/>
<text text-anchor="middle" x="617.5" y="-152.5" font-family="Helvetica,sans-Serif" font-size="10.00">std::ifstream</text>
</a>
</g>
</g>
<!-- Node7&#45;&gt;Node1 -->
<g id="edge8" class="edge">
<title>Node7&#45;&gt;Node1</title>
<path fill="none" stroke="#9a32cd" stroke-dasharray="5,2" d="M667.31,-165.82C669.9,-166.26 672.48,-166.65 675,-167 805.55,-185.01 963.96,-189.56 1021.89,-190.67"/>
<polygon fill="#9a32cd" stroke="#9a32cd" points="667.74,-162.34 657.27,-164 666.49,-169.23 667.74,-162.34"/>
<text text-anchor="middle" x="855.5" y="-191" font-family="Helvetica,sans-Serif" font-size="10.00"> code</text>
</g>
<!-- Node12 -->
<g id="node12" class="node">
<title>Node12</title>
<g id="a_node12"><a xlink:title=" ">
<polygon fill="white" stroke="#bfbfbf" points="775,-135.5 775,-154.5 936,-154.5 936,-135.5 775,-135.5"/>
<text text-anchor="middle" x="855.5" y="-142.5" font-family="Helvetica,sans-Serif" font-size="10.00">std::vector&lt; std::ifstream * &gt;</text>
</a>
</g>
</g>
<!-- Node7&#45;&gt;Node12 -->
<g id="edge14" class="edge">
<title>Node7&#45;&gt;Node12</title>
<path fill="none" stroke="#9a32cd" stroke-dasharray="5,2" d="M667.31,-152.93C698.27,-151.62 739.06,-149.89 774.66,-148.38"/>
<polygon fill="#9a32cd" stroke="#9a32cd" points="667.05,-149.44 657.21,-153.36 667.35,-156.43 667.05,-149.44"/>
<text text-anchor="middle" x="716" y="-155" font-family="Helvetica,sans-Serif" font-size="10.00"> elements</text>
</g>
<!-- Node8 -->
<g id="node8" class="node">
<title>Node8</title>
<g id="a_node8"><a xlink:title="STL class.">
<polygon fill="white" stroke="#bfbfbf" points="429.5,-140 429.5,-170 539.5,-170 539.5,-140 429.5,-140"/>
<text text-anchor="start" x="437.5" y="-158" font-family="Helvetica,sans-Serif" font-size="10.00">std::basic_ifstream</text>
<text text-anchor="middle" x="484.5" y="-147" font-family="Helvetica,sans-Serif" font-size="10.00">&lt; char &gt;</text>
</a>
</g>
</g>
<!-- Node8&#45;&gt;Node7 -->
<g id="edge9" class="edge">
<title>Node8&#45;&gt;Node7</title>
<path fill="none" stroke="midnightblue" d="M549.55,-155C559.2,-155 568.89,-155 577.79,-155"/>
<polygon fill="midnightblue" stroke="midnightblue" points="549.54,-151.5 539.54,-155 549.54,-158.5 549.54,-151.5"/>
</g>
<!-- Node9 -->
<g id="node9" class="node">
<title>Node9</title>
<g id="a_node9"><a xlink:title="STL class.">
<polygon fill="white" stroke="#bfbfbf" points="283.5,-140 283.5,-170 389.5,-170 389.5,-140 283.5,-140"/>
<text text-anchor="start" x="291.5" y="-158" font-family="Helvetica,sans-Serif" font-size="10.00">std::basic_istream</text>
<text text-anchor="middle" x="336.5" y="-147" font-family="Helvetica,sans-Serif" font-size="10.00">&lt; Char &gt;</text>
</a>
</g>
</g>
<!-- Node9&#45;&gt;Node8 -->
<g id="edge10" class="edge">
<title>Node9&#45;&gt;Node8</title>
<path fill="none" stroke="midnightblue" d="M399.82,-155C409.56,-155 419.56,-155 429.11,-155"/>
<polygon fill="midnightblue" stroke="midnightblue" points="399.8,-151.5 389.8,-155 399.8,-158.5 399.8,-151.5"/>
</g>
<!-- Node10 -->
<g id="node10" class="node">
<title>Node10</title>
<g id="a_node10"><a xlink:title="STL class.">
<polygon fill="white" stroke="#bfbfbf" points="117,-120.5 117,-139.5 245,-139.5 245,-120.5 117,-120.5"/>
<text text-anchor="middle" x="181" y="-127.5" font-family="Helvetica,sans-Serif" font-size="10.00">std::basic_ios&lt; Char &gt;</text>
</a>
</g>
</g>
<!-- Node10&#45;&gt;Node9 -->
<g id="edge11" class="edge">
<title>Node10&#45;&gt;Node9</title>
<path fill="none" stroke="midnightblue" d="M250.48,-141.15C261.47,-142.94 272.69,-144.77 283.23,-146.49"/>
<polygon fill="midnightblue" stroke="midnightblue" points="250.9,-137.68 240.47,-139.52 249.78,-144.58 250.9,-137.68"/>
</g>
<!-- Node17 -->
<g id="node17" class="node">
<title>Node17</title>
<g id="a_node17"><a xlink:title="STL class.">
<polygon fill="white" stroke="#bfbfbf" points="282,-91 282,-121 391,-121 391,-91 282,-91"/>
<text text-anchor="start" x="290" y="-109" font-family="Helvetica,sans-Serif" font-size="10.00">std::basic_ostream</text>
<text text-anchor="middle" x="336.5" y="-98" font-family="Helvetica,sans-Serif" font-size="10.00">&lt; Char &gt;</text>
</a>
</g>
</g>
<!-- Node10&#45;&gt;Node17 -->
<g id="edge21" class="edge">
<title>Node10&#45;&gt;Node17</title>
<path fill="none" stroke="midnightblue" d="M253.03,-118.89C262.62,-117.4 272.33,-115.88 281.55,-114.44"/>
<polygon fill="midnightblue" stroke="midnightblue" points="252.45,-115.44 243.11,-120.45 253.53,-122.36 252.45,-115.44"/>
</g>
<!-- Node11 -->
<g id="node11" class="node">
<title>Node11</title>
<g id="a_node11"><a xlink:title="STL class.">
<polygon fill="white" stroke="#bfbfbf" points="0,-120.5 0,-139.5 80,-139.5 80,-120.5 0,-120.5"/>
<text text-anchor="middle" x="40" y="-127.5" font-family="Helvetica,sans-Serif" font-size="10.00">std::ios_base</text>
</a>
</g>
</g>
<!-- Node11&#45;&gt;Node10 -->
<g id="edge12" class="edge">
<title>Node11&#45;&gt;Node10</title>
<path fill="none" stroke="midnightblue" d="M90.28,-130C98.85,-130 107.87,-130 116.75,-130"/>
<polygon fill="midnightblue" stroke="midnightblue" points="90.09,-126.5 80.09,-130 90.09,-133.5 90.09,-126.5"/>
</g>
<!-- Node12&#45;&gt;Node1 -->
<g id="edge13" class="edge">
<title>Node12&#45;&gt;Node1</title>
<path fill="none" stroke="#9a32cd" stroke-dasharray="5,2" d="M946.13,-151.76C965.58,-154.87 985.77,-159.4 1004,-166 1014.1,-169.66 1024.39,-176.05 1032.07,-181.45"/>
<polygon fill="#9a32cd" stroke="#9a32cd" points="946.45,-148.27 936.04,-150.25 945.42,-155.19 946.45,-148.27"/>
<text text-anchor="middle" x="979" y="-169" font-family="Helvetica,sans-Serif" font-size="10.00"> fileQueue</text>
</g>
<!-- Node13 -->
<g id="node13" class="node">
<title>Node13</title>
<g id="a_node13"><a xlink:title=" ">
<polygon fill="white" stroke="#bfbfbf" points="796,-39 796,-69 915,-69 915,-39 796,-39"/>
<text text-anchor="start" x="804" y="-57" font-family="Helvetica,sans-Serif" font-size="10.00">std::vector&lt; std::pair</text>
<text text-anchor="middle" x="855.5" y="-46" font-family="Helvetica,sans-Serif" font-size="10.00">&lt; type_t, char * &gt; &gt;</text>
</a>
</g>
</g>
<!-- Node13&#45;&gt;Node1 -->
<g id="edge15" class="edge">
<title>Node13&#45;&gt;Node1</title>
<path fill="none" stroke="#9a32cd" stroke-dasharray="5,2" d="M925.36,-52.44C952.53,-55.18 982.36,-62.79 1004,-81 1035.14,-107.21 1042.34,-159.6 1044,-181.27"/>
<polygon fill="#9a32cd" stroke="#9a32cd" points="925.34,-48.93 915.09,-51.62 924.78,-55.9 925.34,-48.93"/>
<text text-anchor="middle" x="979" y="-84" font-family="Helvetica,sans-Serif" font-size="10.00"> retTypes</text>
</g>
<!-- Node14 -->
<g id="node14" class="node">
<title>Node14</title>
<g id="a_node14"><a xlink:href="classPOLIZ.html" target="_top" xlink:title=" ">
<polygon fill="white" stroke="black" points="833,-0.5 833,-19.5 878,-19.5 878,-0.5 833,-0.5"/>
<text text-anchor="middle" x="855.5" y="-7.5" font-family="Helvetica,sans-Serif" font-size="10.00">POLIZ</text>
</a>
</g>
</g>
<!-- Node14&#45;&gt;Node1 -->
<g id="edge16" class="edge">
<title>Node14&#45;&gt;Node1</title>
<path fill="none" stroke="#9a32cd" stroke-dasharray="5,2" d="M888.3,-8.21C921.51,-8.15 972.99,-13.42 1004,-43 1044.09,-81.25 1045.77,-155.05 1044.99,-181.38"/>
<polygon fill="#9a32cd" stroke="#9a32cd" points="888.15,-4.71 878.21,-8.4 888.28,-11.71 888.15,-4.71"/>
<text text-anchor="middle" x="979" y="-46" font-family="Helvetica,sans-Serif" font-size="10.00"> poliz</text>
</g>
<!-- Node15 -->
<g id="node15" class="node">
<title>Node15</title>
<g id="a_node15"><a xlink:title="STL class.">
<polygon fill="white" stroke="#bfbfbf" points="675,-96.5 675,-115.5 757,-115.5 757,-96.5 675,-96.5"/>
<text text-anchor="middle" x="716" y="-103.5" font-family="Helvetica,sans-Serif" font-size="10.00">std::ofstream</text>
</a>
</g>
</g>
<!-- Node15&#45;&gt;Node1 -->
<g id="edge18" class="edge">
<title>Node15&#45;&gt;Node1</title>
<path fill="none" stroke="#9a32cd" stroke-dasharray="5,2" d="M767.38,-102.14C812.34,-100.09 879.6,-100.46 936,-115 968.72,-123.44 976.77,-128.99 1004,-149 1016.9,-158.48 1029.3,-172.25 1036.91,-181.41"/>
<polygon fill="#9a32cd" stroke="#9a32cd" points="767.1,-98.65 757.3,-102.66 767.46,-105.64 767.1,-98.65"/>
<text text-anchor="middle" x="855.5" y="-118" font-family="Helvetica,sans-Serif" font-size="10.00"> bin</text>
</g>
<!-- Node16 -->
<g id="node16" class="node">
<title>Node16</title>
<g id="a_node16"><a xlink:title="STL class.">
<polygon fill="white" stroke="#bfbfbf" points="428,-91 428,-121 541,-121 541,-91 428,-91"/>
<text text-anchor="start" x="436" y="-109" font-family="Helvetica,sans-Serif" font-size="10.00">std::basic_ofstream</text>
<text text-anchor="middle" x="484.5" y="-98" font-family="Helvetica,sans-Serif" font-size="10.00">&lt; char &gt;</text>
</a>
</g>
</g>
<!-- Node16&#45;&gt;Node15 -->
<g id="edge19" class="edge">
<title>Node16&#45;&gt;Node15</title>
<path fill="none" stroke="midnightblue" d="M551.22,-106C591.05,-106 640.6,-106 674.7,-106"/>
<polygon fill="midnightblue" stroke="midnightblue" points="551.06,-102.5 541.06,-106 551.06,-109.5 551.06,-102.5"/>
</g>
<!-- Node17&#45;&gt;Node16 -->
<g id="edge20" class="edge">
<title>Node17&#45;&gt;Node16</title>
<path fill="none" stroke="midnightblue" d="M401.21,-106C409.97,-106 418.91,-106 427.52,-106"/>
<polygon fill="midnightblue" stroke="midnightblue" points="401.04,-102.5 391.04,-106 401.04,-109.5 401.04,-102.5"/>
</g>
</g>
</svg>
        <g id="navigator" transform="translate(0 0)" fill="#404254">
                <rect fill="#f2f5e9" fill-opacity="0.5" stroke="#606060" stroke-width=".5" x="0" y="0" width="60" height="60"/>
                <use id="zoomplus" xlink:href="#zoomPlus" x="17" y="9" onmousedown="handleZoom(evt,'in')"/>
                <use id="zoomminus" xlink:href="#zoomMin" x="42" y="9" onmousedown="handleZoom(evt,'out')"/>
                <use id="reset" xlink:href="#resetDef" x="30" y="36" onmousedown="handleReset()"/>
                <g id="arrowUp" xlink:href="#dirArrow" transform="translate(30 24)" onmousedown="handlePan(0,-1)">
                  <use xlink:href="#rim" fill="#404040">
                        <set attributeName="fill" to="#808080" begin="arrowUp.mouseover" end="arrowUp.mouseout"/>
                  </use>
                  <path fill="none" stroke="white" stroke-width="1.5" d="M0,-3.0v7 M-2.5,-0.5L0,-3.0L2.5,-0.5"/>
                </g>
                <g id="arrowRight" xlink:href="#dirArrow" transform="rotate(90) translate(36 -43)" onmousedown="handlePan(1,0)">
                  <use xlink:href="#rim" fill="#404040">
                        <set attributeName="fill" to="#808080" begin="arrowRight.mouseover" end="arrowRight.mouseout"/>
                  </use>
                  <path fill="none" stroke="white" stroke-width="1.5" d="M0,-3.0v7 M-2.5,-0.5L0,-3.0L2.5,-0.5"/>
                </g>
                <g id="arrowDown" xlink:href="#dirArrow" transform="rotate(180) translate(-30 -48)" onmousedown="handlePan(0,1)">
                  <use xlink:href="#rim" fill="#404040">
                        <set attributeName="fill" to="#808080" begin="arrowDown.mouseover" end="arrowDown.mouseout"/>
                  </use>
                  <path fill="none" stroke="white" stroke-width="1.5" d="M0,-3.0v7 M-2.5,-0.5L0,-3.0L2.5,-0.5"/>
                </g>
                <g id="arrowLeft" xlink:href="#dirArrow" transform="rotate(270) translate(-36 17)" onmousedown="handlePan(-1,0)">
                  <use xlink:href="#rim" fill="#404040">
                        <set attributeName="fill" to="#808080" begin="arrowLeft.mouseover" end="arrowLeft.mouseout"/>
                  </use>
                  <path fill="none" stroke="white" stroke-width="1.5" d="M0,-3.0v7 M-2.5,-0.5L0,-3.0L2.5,-0.5"/>
                </g>
        </g>
        <svg viewBox="0 0 15 15" width="100%" height="30px" preserveAspectRatio="xMaxYMin meet">
         <g id="arrow_out" transform="scale(0.3 0.3)">
          <a xlink:href="classParser__coll__graph_org.svg" target="_base">
           <rect id="button" ry="5" rx="5" y="6" x="6" height="38" width="38"
                fill="#f2f5e9" fill-opacity="0.5" stroke="#606060" stroke-width="1.0"/>
           <path id="arrow"
             d="M 11.500037,31.436501 C 11.940474,20.09759 22.043105,11.32322 32.158766,21.979434 L 37.068811,17.246167 C 37.068811,17.246167 37.088388,32 37.088388,32 L 22.160133,31.978069 C 22.160133,31.978069 26.997745,27.140456 26.997745,27.140456 C 18.528582,18.264221 13.291696,25.230495 11.500037,31.436501 z"
             style="fill:#404040;"/>
          </a>
         </g>
        </svg>
</svg>
