<?xml version="1.0" encoding="UTF-8" standalone="no"?>
<!DOCTYPE svg PUBLIC "-//W3C//DTD SVG 1.1//EN"
 "http://www.w3.org/Graphics/SVG/1.1/DTD/svg11.dtd">
<!-- Generated by graphviz version 2.43.0 (0)
 -->
<!-- Title: Parser Pages: 1 -->
<svg width="1078pt" height="414pt"
 viewBox="0.00 0.00 1078.00 414.00" xmlns="http://www.w3.org/2000/svg" xmlns:xlink="http://www.w3.org/1999/xlink">
<g id="graph0" class="graph" transform="scale(1 1) rotate(0) translate(4 410)">
<title>Parser</title>
<polygon fill="white" stroke="transparent" points="-4,4 -4,-410 1074,-410 1074,4 -4,4"/>
<!-- Node1 -->
<g id="node1" class="node">
<title>Node1</title>
<g id="a_node1"><a xlink:title=" ">
<polygon fill="#bfbfbf" stroke="black" points="1023,-181.5 1023,-200.5 1070,-200.5 1070,-181.5 1023,-181.5"/>
<text text-anchor="middle" x="1046.5" y="-188.5" font-family="Helvetica,sans-Serif" font-size="10.00">Parser</text>
</a>
</g>
</g>
<!-- Node2 -->
<g id="node2" class="node">
<title>Node2</title>
<g id="a_node2"><a xlink:href="classStructTable.html" target="_top" xlink:title=" ">
<polygon fill="white" stroke="black" points="820,-297.5 820,-316.5 891,-316.5 891,-297.5 820,-297.5"/>
<text text-anchor="middle" x="855.5" y="-304.5" font-family="Helvetica,sans-Serif" font-size="10.00">StructTable</text>
</a>
</g>
</g>
<!-- Node2&#45;&gt;Node1 -->
<g id="edge1" class="edge">
<title>Node2&#45;&gt;Node1</title>
<path fill="none" stroke="#9a32cd" stroke-dasharray="5,2" d="M900.99,-306.25C932.97,-303.57 975.48,-295.36 1005,-272 1028.43,-253.47 1039.39,-217.83 1043.48,-200.68"/>
<polygon fill="#9a32cd" stroke="#9a32cd" points="900.74,-302.76 891.01,-306.94 901.22,-309.74 900.74,-302.76"/>
<text text-anchor="middle" x="979.5" y="-298" font-family="Helvetica,sans-Serif" font-size="10.00"> StTable</text>
</g>
<!-- Node2&#45;&gt;Node2 -->
<g id="edge2" class="edge">
<title>Node2&#45;&gt;Node2</title>
<path fill="none" stroke="#9a32cd" stroke-dasharray="5,2" d="M832.43,-326.03C833.69,-331.13 841.38,-335 855.5,-335 877.54,-335 883.91,-325.57 874.61,-316.76"/>
<polygon fill="#9a32cd" stroke="#9a32cd" points="835.69,-327.33 836.39,-316.76 829.25,-324.58 835.69,-327.33"/>
<text text-anchor="middle" x="855.5" y="-338" font-family="Helvetica,sans-Serif" font-size="10.00"> next</text>
</g>
<!-- Node3 -->
<g id="node3" class="node">
<title>Node3</title>
<g id="a_node3"><a xlink:href="classIdentTable.html" target="_top" xlink:title=" ">
<polygon fill="white" stroke="black" points="584,-346.5 584,-365.5 651,-365.5 651,-346.5 584,-346.5"/>
<text text-anchor="middle" x="617.5" y="-353.5" font-family="Helvetica,sans-Serif" font-size="10.00">IdentTable</text>
</a>
</g>
</g>
<!-- Node3&#45;&gt;Node1 -->
<g id="edge17" class="edge">
<title>Node3&#45;&gt;Node1</title>
<path fill="none" stroke="#9a32cd" stroke-dasharray="5,2" d="M661.67,-363.68C723.89,-373.02 841.67,-384.19 936,-355 970.98,-344.18 982.54,-338.91 1005,-310 1031.78,-275.53 1041.43,-222.29 1044.38,-200.64"/>
<polygon fill="#9a32cd" stroke="#9a32cd" points="661.86,-360.17 651.44,-362.08 660.78,-367.08 661.86,-360.17"/>
<text text-anchor="middle" x="855.5" y="-387" font-family="Helvetica,sans-Serif" font-size="10.00"> IdTable</text>
<text text-anchor="middle" x="855.5" y="-376" font-family="Helvetica,sans-Serif" font-size="10.00">threads</text>
</g>
<!-- Node3&#45;&gt;Node2 -->
<g id="edge3" class="edge">
<title>Node3&#45;&gt;Node2</title>
<path fill="none" stroke="#9a32cd" stroke-dasharray="5,2" d="M661.15,-347.14C706.54,-337.72 777.5,-322.99 819.66,-314.23"/>
<polygon fill="#9a32cd" stroke="#9a32cd" points="660.39,-343.73 651.31,-349.19 661.82,-350.58 660.39,-343.73"/>
<text text-anchor="middle" x="716" y="-347" font-family="Helvetica,sans-Serif" font-size="10.00"> fields</text>
</g>
<!-- Node3&#45;&gt;Node3 -->
<g id="edge4" class="edge">
<title>Node3&#45;&gt;Node3</title>
<path fill="none" stroke="#9a32cd" stroke-dasharray="5,2" d="M606.82,-375.77C607.66,-380.5 611.22,-384 617.5,-384 627.81,-384 630.79,-374.57 626.44,-365.76"/>
<polygon fill="#9a32cd" stroke="#9a32cd" points="610.29,-376.21 608.56,-365.76 603.4,-375.01 610.29,-376.21"/>
<text text-anchor="middle" x="617.5" y="-398" font-family="Helvetica,sans-Serif" font-size="10.00"> mainTable</text>
<text text-anchor="middle" x="617.5" y="-387" font-family="Helvetica,sans-Serif" font-size="10.00">next</text>
</g>
<!-- Node4 -->
<g id="node4" class="node">
<title>Node4</title>
<g id="a_node4"><a xlink:href="classCursor.html" target="_top" xlink:title=" ">
<polygon fill="white" stroke="black" points="831.5,-259.5 831.5,-278.5 879.5,-278.5 879.5,-259.5 831.5,-259.5"/>
<text text-anchor="middle" x="855.5" y="-266.5" font-family="Helvetica,sans-Serif" font-size="10.00">Cursor</text>
</a>
</g>
</g>
<!-- Node4&#45;&gt;Node1 -->
<g id="edge5" class="edge">
<title>Node4&#45;&gt;Node1</title>
<path fill="none" stroke="#9a32cd" stroke-dasharray="5,2" d="M889.56,-268.13C921.19,-265.96 969.23,-259.09 1005,-238 1020.59,-228.81 1033.16,-211.44 1039.96,-200.59"/>
<polygon fill="#9a32cd" stroke="#9a32cd" points="889.29,-264.64 879.51,-268.69 889.69,-271.63 889.29,-264.64"/>
<text text-anchor="middle" x="979.5" y="-260" font-family="Helvetica,sans-Serif" font-size="10.00"> c</text>
</g>
<!-- Node5 -->
<g id="node5" class="node">
<title>Node5</title>
<g id="a_node5"><a xlink:href="classStack.html" target="_top" xlink:title=" ">
<polygon fill="white" stroke="black" points="833.5,-220.5 833.5,-239.5 877.5,-239.5 877.5,-220.5 833.5,-220.5"/>
<text text-anchor="middle" x="855.5" y="-227.5" font-family="Helvetica,sans-Serif" font-size="10.00">Stack</text>
</a>
</g>
</g>
<!-- Node5&#45;&gt;Node1 -->
<g id="edge6" class="edge">
<title>Node5&#45;&gt;Node1</title>
<path fill="none" stroke="#9a32cd" stroke-dasharray="5,2" d="M887.69,-224.86C917.84,-219.71 964.74,-211.25 1005,-202 1010.82,-200.66 1017.07,-199.05 1022.87,-197.48"/>
<polygon fill="#9a32cd" stroke="#9a32cd" points="887.03,-221.42 877.76,-226.53 888.2,-228.32 887.03,-221.42"/>
<text text-anchor="middle" x="979.5" y="-226" font-family="Helvetica,sans-Serif" font-size="10.00"> exits</text>
<text text-anchor="middle" x="979.5" y="-215" font-family="Helvetica,sans-Serif" font-size="10.00">steps</text>
</g>
<!-- Node6 -->
<g id="node6" class="node">
<title>Node6</title>
<g id="a_node6"><a xlink:href="classGendarme.html" target="_top" xlink:title="Класс, предназначенный для освобождения неиспользуемой памяти.">
<polygon fill="white" stroke="black" points="583.5,-220.5 583.5,-239.5 651.5,-239.5 651.5,-220.5 583.5,-220.5"/>
<text text-anchor="middle" x="617.5" y="-227.5" font-family="Helvetica,sans-Serif" font-size="10.00">Gendarme</text>
</a>
</g>
</g>
<!-- Node6&#45;&gt;Node5 -->
<g id="edge7" class="edge">
<title>Node6&#45;&gt;Node5</title>
<path fill="none" stroke="#9a32cd" stroke-dasharray="5,2" d="M661.58,-230C712.33,-230 794.61,-230 833.22,-230"/>
<polygon fill="#9a32cd" stroke="#9a32cd" points="661.56,-226.5 651.56,-230 661.56,-233.5 661.56,-226.5"/>
<text text-anchor="middle" x="716" y="-233" font-family="Helvetica,sans-Serif" font-size="10.00"> memControl</text>
</g>
<!-- Node7 -->
<g id="node7" class="node">
<title>Node7</title>
<g id="a_node7"><a xlink:title=" ">
<polygon fill="white" stroke="#bfbfbf" points="578,-145.5 578,-164.5 657,-164.5 657,-145.5 578,-145.5"/>
<text text-anchor="middle" x="617.5" y="-152.5" font-family="Helvetica,sans-Serif" font-size="10.00">std::ifstream</text>
</a>
</g>
</g>
<!-- Node7&#45;&gt;Node1 -->
<g id="edge8" class="edge">
<title>Node7&#45;&gt;Node1</title>
<path fill="none" stroke="#9a32cd" stroke-dasharray="5,2" d="M667.31,-165.82C669.9,-166.26 672.48,-166.65 675,-167 805.9,-185.04 964.74,-189.58 1022.83,-190.67"/>
<polygon fill="#9a32cd" stroke="#9a32cd" points="667.74,-162.34 657.27,-164.01 666.49,-169.23 667.74,-162.34"/>
<text text-anchor="middle" x="855.5" y="-191" font-family="Helvetica,sans-Serif" font-size="10.00"> code</text>
</g>
<!-- Node12 -->
<g id="node12" class="node">
<title>Node12</title>
<g id="a_node12"><a xlink:title=" ">
<polygon fill="white" stroke="#bfbfbf" points="775,-135.5 775,-154.5 936,-154.5 936,-135.5 775,-135.5"/>
<text text-anchor="middle" x="855.5" y="-142.5" font-family="Helvetica,sans-Serif" font-size="10.00">std::vector&lt; std::ifstream * &gt;</text>
</a>
</g>
</g>
<!-- Node7&#45;&gt;Node12 -->
<g id="edge14" class="edge">
<title>Node7&#45;&gt;Node12</title>
<path fill="none" stroke="#9a32cd" stroke-dasharray="5,2" d="M667.31,-152.93C698.27,-151.62 739.06,-149.89 774.66,-148.38"/>
<polygon fill="#9a32cd" stroke="#9a32cd" points="667.05,-149.44 657.21,-153.36 667.35,-156.43 667.05,-149.44"/>
<text text-anchor="middle" x="716" y="-155" font-family="Helvetica,sans-Serif" font-size="10.00"> elements</text>
</g>
<!-- Node8 -->
<g id="node8" class="node">
<title>Node8</title>
<g id="a_node8"><a xlink:title=" ">
<polygon fill="white" stroke="#bfbfbf" points="429.5,-140 429.5,-170 539.5,-170 539.5,-140 429.5,-140"/>
<text text-anchor="start" x="437.5" y="-158" font-family="Helvetica,sans-Serif" font-size="10.00">std::basic_ifstream</text>
<text text-anchor="middle" x="484.5" y="-147" font-family="Helvetica,sans-Serif" font-size="10.00">&lt; Char &gt;</text>
</a>
</g>
</g>
<!-- Node8&#45;&gt;Node7 -->
<g id="edge9" class="edge">
<title>Node8&#45;&gt;Node7</title>
<path fill="none" stroke="midnightblue" d="M549.55,-155C559.2,-155 568.89,-155 577.79,-155"/>
<polygon fill="midnightblue" stroke="midnightblue" points="549.54,-151.5 539.54,-155 549.54,-158.5 549.54,-151.5"/>
</g>
<!-- Node9 -->
<g id="node9" class="node">
<title>Node9</title>
<g id="a_node9"><a xlink:title=" ">
<polygon fill="white" stroke="#bfbfbf" points="283.5,-140 283.5,-170 389.5,-170 389.5,-140 283.5,-140"/>
<text text-anchor="start" x="291.5" y="-158" font-family="Helvetica,sans-Serif" font-size="10.00">std::basic_istream</text>
<text text-anchor="middle" x="336.5" y="-147" font-family="Helvetica,sans-Serif" font-size="10.00">&lt; Char &gt;</text>
</a>
</g>
</g>
<!-- Node9&#45;&gt;Node8 -->
<g id="edge10" class="edge">
<title>Node9&#45;&gt;Node8</title>
<path fill="none" stroke="midnightblue" d="M399.82,-155C409.56,-155 419.56,-155 429.11,-155"/>
<polygon fill="midnightblue" stroke="midnightblue" points="399.8,-151.5 389.8,-155 399.8,-158.5 399.8,-151.5"/>
</g>
<!-- Node10 -->
<g id="node10" class="node">
<title>Node10</title>
<g id="a_node10"><a xlink:title=" ">
<polygon fill="white" stroke="#bfbfbf" points="117,-120.5 117,-139.5 245,-139.5 245,-120.5 117,-120.5"/>
<text text-anchor="middle" x="181" y="-127.5" font-family="Helvetica,sans-Serif" font-size="10.00">std::basic_ios&lt; Char &gt;</text>
</a>
</g>
</g>
<!-- Node10&#45;&gt;Node9 -->
<g id="edge11" class="edge">
<title>Node10&#45;&gt;Node9</title>
<path fill="none" stroke="midnightblue" d="M250.48,-141.15C261.47,-142.94 272.69,-144.77 283.23,-146.49"/>
<polygon fill="midnightblue" stroke="midnightblue" points="250.9,-137.68 240.47,-139.52 249.78,-144.58 250.9,-137.68"/>
</g>
<!-- Node17 -->
<g id="node17" class="node">
<title>Node17</title>
<g id="a_node17"><a xlink:title=" ">
<polygon fill="white" stroke="#bfbfbf" points="282,-91 282,-121 391,-121 391,-91 282,-91"/>
<text text-anchor="start" x="290" y="-109" font-family="Helvetica,sans-Serif" font-size="10.00">std::basic_ostream</text>
<text text-anchor="middle" x="336.5" y="-98" font-family="Helvetica,sans-Serif" font-size="10.00">&lt; Char &gt;</text>
</a>
</g>
</g>
<!-- Node10&#45;&gt;Node17 -->
<g id="edge21" class="edge">
<title>Node10&#45;&gt;Node17</title>
<path fill="none" stroke="midnightblue" d="M253.03,-118.89C262.62,-117.4 272.33,-115.88 281.55,-114.44"/>
<polygon fill="midnightblue" stroke="midnightblue" points="252.45,-115.44 243.11,-120.45 253.53,-122.36 252.45,-115.44"/>
</g>
<!-- Node11 -->
<g id="node11" class="node">
<title>Node11</title>
<g id="a_node11"><a xlink:title=" ">
<polygon fill="white" stroke="#bfbfbf" points="0,-120.5 0,-139.5 80,-139.5 80,-120.5 0,-120.5"/>
<text text-anchor="middle" x="40" y="-127.5" font-family="Helvetica,sans-Serif" font-size="10.00">std::ios_base</text>
</a>
</g>
</g>
<!-- Node11&#45;&gt;Node10 -->
<g id="edge12" class="edge">
<title>Node11&#45;&gt;Node10</title>
<path fill="none" stroke="midnightblue" d="M90.28,-130C98.85,-130 107.87,-130 116.75,-130"/>
<polygon fill="midnightblue" stroke="midnightblue" points="90.09,-126.5 80.09,-130 90.09,-133.5 90.09,-126.5"/>
</g>
<!-- Node12&#45;&gt;Node1 -->
<g id="edge13" class="edge">
<title>Node12&#45;&gt;Node1</title>
<path fill="none" stroke="#9a32cd" stroke-dasharray="5,2" d="M946.13,-151.61C965.9,-154.73 986.46,-159.3 1005,-166 1015.1,-169.65 1025.39,-176.04 1033.07,-181.45"/>
<polygon fill="#9a32cd" stroke="#9a32cd" points="946.6,-148.14 936.2,-150.15 945.58,-155.06 946.6,-148.14"/>
<text text-anchor="middle" x="979.5" y="-169" font-family="Helvetica,sans-Serif" font-size="10.00"> fileQueue</text>
</g>
<!-- Node13 -->
<g id="node13" class="node">
<title>Node13</title>
<g id="a_node13"><a xlink:title=" ">
<polygon fill="white" stroke="#bfbfbf" points="796,-39 796,-69 915,-69 915,-39 796,-39"/>
<text text-anchor="start" x="804" y="-57" font-family="Helvetica,sans-Serif" font-size="10.00">std::vector&lt; std::pair</text>
<text text-anchor="middle" x="855.5" y="-46" font-family="Helvetica,sans-Serif" font-size="10.00">&lt; type_t, char * &gt; &gt;</text>
</a>
</g>
</g>
<!-- Node13&#45;&gt;Node1 -->
<g id="edge15" class="edge">
<title>Node13&#45;&gt;Node1</title>
<path fill="none" stroke="#9a32cd" stroke-dasharray="5,2" d="M925.12,-52.27C952.66,-54.92 983.03,-62.53 1005,-81 1036.16,-107.19 1043.35,-159.6 1045.01,-181.27"/>
<polygon fill="#9a32cd" stroke="#9a32cd" points="925.36,-48.77 915.12,-51.5 924.82,-55.75 925.36,-48.77"/>
<text text-anchor="middle" x="979.5" y="-84" font-family="Helvetica,sans-Serif" font-size="10.00"> retTypes</text>
</g>
<!-- Node14 -->
<g id="node14" class="node">
<title>Node14</title>
<g id="a_node14"><a xlink:href="classPOLIZ.html" target="_top" xlink:title=" ">
<polygon fill="white" stroke="black" points="833,-0.5 833,-19.5 878,-19.5 878,-0.5 833,-0.5"/>
<text text-anchor="middle" x="855.5" y="-7.5" font-family="Helvetica,sans-Serif" font-size="10.00">POLIZ</text>
</a>
</g>
</g>
<!-- Node14&#45;&gt;Node1 -->
<g id="edge16" class="edge">
<title>Node14&#45;&gt;Node1</title>
<path fill="none" stroke="#9a32cd" stroke-dasharray="5,2" d="M888.23,-7.9C921.64,-7.49 973.66,-12.28 1005,-42 1045.46,-80.36 1046.91,-154.75 1046.03,-181.3"/>
<polygon fill="#9a32cd" stroke="#9a32cd" points="887.98,-4.4 878.08,-8.18 888.18,-11.4 887.98,-4.4"/>
<text text-anchor="middle" x="979.5" y="-45" font-family="Helvetica,sans-Serif" font-size="10.00"> poliz</text>
</g>
<!-- Node15 -->
<g id="node15" class="node">
<title>Node15</title>
<g id="a_node15"><a xlink:title=" ">
<polygon fill="white" stroke="#bfbfbf" points="675,-96.5 675,-115.5 757,-115.5 757,-96.5 675,-96.5"/>
<text text-anchor="middle" x="716" y="-103.5" font-family="Helvetica,sans-Serif" font-size="10.00">std::ofstream</text>
</a>
</g>
</g>
<!-- Node15&#45;&gt;Node1 -->
<g id="edge18" class="edge">
<title>Node15&#45;&gt;Node1</title>
<path fill="none" stroke="#9a32cd" stroke-dasharray="5,2" d="M767.36,-102.22C812.31,-100.22 879.55,-100.62 936,-115 969.13,-123.44 977.39,-128.84 1005,-149 1017.93,-158.44 1030.32,-172.22 1037.92,-181.4"/>
<polygon fill="#9a32cd" stroke="#9a32cd" points="767.09,-98.73 757.28,-102.73 767.44,-105.72 767.09,-98.73"/>
<text text-anchor="middle" x="855.5" y="-118" font-family="Helvetica,sans-Serif" font-size="10.00"> bin</text>
</g>
<!-- Node16 -->
<g id="node16" class="node">
<title>Node16</title>
<g id="a_node16"><a xlink:title=" ">
<polygon fill="white" stroke="#bfbfbf" points="428,-91 428,-121 541,-121 541,-91 428,-91"/>
<text text-anchor="start" x="436" y="-109" font-family="Helvetica,sans-Serif" font-size="10.00">std::basic_ofstream</text>
<text text-anchor="middle" x="484.5" y="-98" font-family="Helvetica,sans-Serif" font-size="10.00">&lt; Char &gt;</text>
</a>
</g>
</g>
<!-- Node16&#45;&gt;Node15 -->
<g id="edge19" class="edge">
<title>Node16&#45;&gt;Node15</title>
<path fill="none" stroke="midnightblue" d="M551.22,-106C591.05,-106 640.6,-106 674.7,-106"/>
<polygon fill="midnightblue" stroke="midnightblue" points="551.06,-102.5 541.06,-106 551.06,-109.5 551.06,-102.5"/>
</g>
<!-- Node17&#45;&gt;Node16 -->
<g id="edge20" class="edge">
<title>Node17&#45;&gt;Node16</title>
<path fill="none" stroke="midnightblue" d="M401.21,-106C409.97,-106 418.91,-106 427.52,-106"/>
<polygon fill="midnightblue" stroke="midnightblue" points="401.04,-102.5 391.04,-106 401.04,-109.5 401.04,-102.5"/>
</g>
</g>
</svg>
