<?xml version="1.0" encoding="UTF-8" standalone="no"?>
<!DOCTYPE svg PUBLIC "-//W3C//DTD SVG 1.1//EN"
 "http://www.w3.org/Graphics/SVG/1.1/DTD/svg11.dtd">
<!-- Generated by graphviz version 2.43.0 (0)
 -->
<!-- Title: ControlFlowGraph Pages: 1 -->
<svg width="458pt" height="376pt"
 viewBox="0.00 0.00 457.50 376.00" xmlns="http://www.w3.org/2000/svg" xmlns:xlink="http://www.w3.org/1999/xlink">
<g id="graph0" class="graph" transform="scale(1 1) rotate(0) translate(4 372)">
<title>ControlFlowGraph</title>
<polygon fill="white" stroke="transparent" points="-4,4 -4,-372 453.5,-372 453.5,4 -4,4"/>
<!-- Node1 -->
<g id="node1" class="node">
<title>Node1</title>
<g id="a_node1"><a xlink:title=" ">
<polygon fill="#bfbfbf" stroke="black" points="217.5,-0.5 217.5,-19.5 321.5,-19.5 321.5,-0.5 217.5,-0.5"/>
<text text-anchor="middle" x="269.5" y="-7.5" font-family="Helvetica,sans-Serif" font-size="10.00">ControlFlowGraph</text>
</a>
</g>
</g>
<!-- Node2 -->
<g id="node2" class="node">
<title>Node2</title>
<g id="a_node2"><a xlink:title=" ">
<polygon fill="white" stroke="#bfbfbf" points="126.5,-67.5 126.5,-86.5 266.5,-86.5 266.5,-67.5 126.5,-67.5"/>
<text text-anchor="middle" x="196.5" y="-74.5" font-family="Helvetica,sans-Serif" font-size="10.00">std::vector&lt; flowTree * &gt;</text>
</a>
</g>
</g>
<!-- Node2&#45;&gt;Node1 -->
<g id="edge1" class="edge">
<title>Node2&#45;&gt;Node1</title>
<path fill="none" stroke="#9a32cd" stroke-dasharray="5,2" d="M214.07,-60.36C228.42,-47.58 248.17,-29.99 259.81,-19.63"/>
<polygon fill="#9a32cd" stroke="#9a32cd" points="211.49,-57.97 206.35,-67.23 216.14,-63.2 211.49,-57.97"/>
<text text-anchor="middle" x="250" y="-41" font-family="Helvetica,sans-Serif" font-size="10.00"> tails</text>
</g>
<!-- Node3 -->
<g id="node3" class="node">
<title>Node3</title>
<g id="a_node3"><a xlink:href="structflowTree.html" target="_top" xlink:title=" ">
<polygon fill="white" stroke="black" points="138.5,-140 138.5,-159 196.5,-159 196.5,-140 138.5,-140"/>
<text text-anchor="middle" x="167.5" y="-147" font-family="Helvetica,sans-Serif" font-size="10.00">flowTree</text>
</a>
</g>
</g>
<!-- Node3&#45;&gt;Node1 -->
<g id="edge7" class="edge">
<title>Node3&#45;&gt;Node1</title>
<path fill="none" stroke="#9a32cd" stroke-dasharray="5,2" d="M143.78,-134.16C120.1,-118 89.47,-90.85 106.5,-67 131.45,-32.05 179.64,-18.69 217.18,-13.69"/>
<polygon fill="#9a32cd" stroke="#9a32cd" points="142.12,-137.26 152.41,-139.79 145.95,-131.4 142.12,-137.26"/>
<text text-anchor="middle" x="112" y="-74.5" font-family="Helvetica,sans-Serif" font-size="10.00"> ft</text>
</g>
<!-- Node3&#45;&gt;Node2 -->
<g id="edge2" class="edge">
<title>Node3&#45;&gt;Node2</title>
<path fill="none" stroke="#9a32cd" stroke-dasharray="5,2" d="M175,-130.27C180.76,-116.26 188.47,-97.53 192.91,-86.72"/>
<polygon fill="#9a32cd" stroke="#9a32cd" points="171.62,-129.28 171.06,-139.86 178.1,-131.94 171.62,-129.28"/>
<text text-anchor="middle" x="210" y="-108" font-family="Helvetica,sans-Serif" font-size="10.00"> elements</text>
</g>
<!-- Node4 -->
<g id="node4" class="node">
<title>Node4</title>
<g id="a_node4"><a xlink:title=" ">
<polygon fill="white" stroke="#bfbfbf" points="0,-223.5 0,-253.5 127,-253.5 127,-223.5 0,-223.5"/>
<text text-anchor="start" x="8" y="-241.5" font-family="Helvetica,sans-Serif" font-size="10.00">std::vector&lt; std::pair</text>
<text text-anchor="middle" x="63.5" y="-230.5" font-family="Helvetica,sans-Serif" font-size="10.00">&lt; flowTree *, char &gt; &gt;</text>
</a>
</g>
</g>
<!-- Node4&#45;&gt;Node3 -->
<g id="edge3" class="edge">
<title>Node4&#45;&gt;Node3</title>
<path fill="none" stroke="#9a32cd" stroke-dasharray="5,2" d="M88.62,-216.49C110.6,-198.1 141.43,-172.3 157.25,-159.07"/>
<polygon fill="#9a32cd" stroke="#9a32cd" points="86.1,-214.03 80.67,-223.13 90.59,-219.4 86.1,-214.03"/>
<text text-anchor="middle" x="141" y="-197" font-family="Helvetica,sans-Serif" font-size="10.00"> next</text>
<text text-anchor="middle" x="141" y="-186" font-family="Helvetica,sans-Serif" font-size="10.00">prev</text>
</g>
<!-- Node5 -->
<g id="node5" class="node">
<title>Node5</title>
<g id="a_node5"><a xlink:href="classPOLIZ.html" target="_top" xlink:title=" ">
<polygon fill="white" stroke="black" points="145,-229 145,-248 190,-248 190,-229 145,-229"/>
<text text-anchor="middle" x="167.5" y="-236" font-family="Helvetica,sans-Serif" font-size="10.00">POLIZ</text>
</a>
</g>
</g>
<!-- Node5&#45;&gt;Node3 -->
<g id="edge4" class="edge">
<title>Node5&#45;&gt;Node3</title>
<path fill="none" stroke="#9a32cd" stroke-dasharray="5,2" d="M167.5,-218.69C167.5,-200.24 167.5,-172.91 167.5,-159.12"/>
<polygon fill="#9a32cd" stroke="#9a32cd" points="164,-218.84 167.5,-228.84 171,-218.84 164,-218.84"/>
<text text-anchor="middle" x="182.5" y="-191.5" font-family="Helvetica,sans-Serif" font-size="10.00"> block</text>
</g>
<!-- Node6 -->
<g id="node6" class="node">
<title>Node6</title>
<g id="a_node6"><a xlink:title=" ">
<polygon fill="white" stroke="#bfbfbf" points="208.5,-229 208.5,-248 312.5,-248 312.5,-229 208.5,-229"/>
<text text-anchor="middle" x="260.5" y="-236" font-family="Helvetica,sans-Serif" font-size="10.00">std::vector&lt; int &gt;</text>
</a>
</g>
</g>
<!-- Node6&#45;&gt;Node1 -->
<g id="edge6" class="edge">
<title>Node6&#45;&gt;Node1</title>
<path fill="none" stroke="#9a32cd" stroke-dasharray="5,2" d="M268.3,-219.6C270,-214.93 271.57,-209.85 272.5,-205 284.06,-144.75 278.77,-128.26 275.5,-67 274.6,-50.21 272.2,-30.7 270.72,-19.71"/>
<polygon fill="#9a32cd" stroke="#9a32cd" points="265.05,-218.31 264.56,-228.9 271.54,-220.92 265.05,-218.31"/>
<text text-anchor="middle" x="298.5" y="-108" font-family="Helvetica,sans-Serif" font-size="10.00"> drawed</text>
</g>
<!-- Node6&#45;&gt;Node3 -->
<g id="edge5" class="edge">
<title>Node6&#45;&gt;Node3</title>
<path fill="none" stroke="#9a32cd" stroke-dasharray="5,2" d="M243.91,-221.98C224.3,-203.64 192.36,-173.76 176.72,-159.12"/>
<polygon fill="#9a32cd" stroke="#9a32cd" points="241.55,-224.56 251.24,-228.84 246.33,-219.45 241.55,-224.56"/>
<text text-anchor="middle" x="247" y="-191.5" font-family="Helvetica,sans-Serif" font-size="10.00"> checked</text>
</g>
<!-- Node7 -->
<g id="node7" class="node">
<title>Node7</title>
<g id="a_node7"><a xlink:title=" ">
<polygon fill="white" stroke="#bfbfbf" points="327.5,-67.5 327.5,-86.5 409.5,-86.5 409.5,-67.5 327.5,-67.5"/>
<text text-anchor="middle" x="368.5" y="-74.5" font-family="Helvetica,sans-Serif" font-size="10.00">std::ofstream</text>
</a>
</g>
</g>
<!-- Node7&#45;&gt;Node1 -->
<g id="edge8" class="edge">
<title>Node7&#45;&gt;Node1</title>
<path fill="none" stroke="#9a32cd" stroke-dasharray="5,2" d="M346.56,-61.59C326.97,-48.74 298.94,-30.33 282.64,-19.63"/>
<polygon fill="#9a32cd" stroke="#9a32cd" points="344.87,-64.67 355.15,-67.23 348.71,-58.82 344.87,-64.67"/>
<text text-anchor="middle" x="340" y="-41" font-family="Helvetica,sans-Serif" font-size="10.00"> graph</text>
</g>
<!-- Node8 -->
<g id="node8" class="node">
<title>Node8</title>
<g id="a_node8"><a xlink:title=" ">
<polygon fill="white" stroke="#bfbfbf" points="326,-134.5 326,-164.5 439,-164.5 439,-134.5 326,-134.5"/>
<text text-anchor="start" x="334" y="-152.5" font-family="Helvetica,sans-Serif" font-size="10.00">std::basic_ofstream</text>
<text text-anchor="middle" x="382.5" y="-141.5" font-family="Helvetica,sans-Serif" font-size="10.00">&lt; Char &gt;</text>
</a>
</g>
</g>
<!-- Node8&#45;&gt;Node7 -->
<g id="edge9" class="edge">
<title>Node8&#45;&gt;Node7</title>
<path fill="none" stroke="midnightblue" d="M377.65,-124.09C375.1,-111.21 372.11,-96.2 370.27,-86.89"/>
<polygon fill="midnightblue" stroke="midnightblue" points="374.29,-125.11 379.67,-134.23 381.15,-123.74 374.29,-125.11"/>
</g>
<!-- Node9 -->
<g id="node9" class="node">
<title>Node9</title>
<g id="a_node9"><a xlink:title=" ">
<polygon fill="white" stroke="#bfbfbf" points="331,-223.5 331,-253.5 440,-253.5 440,-223.5 331,-223.5"/>
<text text-anchor="start" x="339" y="-241.5" font-family="Helvetica,sans-Serif" font-size="10.00">std::basic_ostream</text>
<text text-anchor="middle" x="385.5" y="-230.5" font-family="Helvetica,sans-Serif" font-size="10.00">&lt; Char &gt;</text>
</a>
</g>
</g>
<!-- Node9&#45;&gt;Node8 -->
<g id="edge10" class="edge">
<title>Node9&#45;&gt;Node8</title>
<path fill="none" stroke="midnightblue" d="M384.66,-213.09C384.12,-197.44 383.44,-177.68 382.99,-164.6"/>
<polygon fill="midnightblue" stroke="midnightblue" points="381.16,-213.26 385,-223.13 388.16,-213.02 381.16,-213.26"/>
</g>
<!-- Node10 -->
<g id="node10" class="node">
<title>Node10</title>
<g id="a_node10"><a xlink:title=" ">
<polygon fill="white" stroke="#bfbfbf" points="321.5,-291.5 321.5,-310.5 449.5,-310.5 449.5,-291.5 321.5,-291.5"/>
<text text-anchor="middle" x="385.5" y="-298.5" font-family="Helvetica,sans-Serif" font-size="10.00">std::basic_ios&lt; Char &gt;</text>
</a>
</g>
</g>
<!-- Node10&#45;&gt;Node9 -->
<g id="edge11" class="edge">
<title>Node10&#45;&gt;Node9</title>
<path fill="none" stroke="midnightblue" d="M385.5,-281.22C385.5,-272.36 385.5,-261.96 385.5,-253.76"/>
<polygon fill="midnightblue" stroke="midnightblue" points="382,-281.33 385.5,-291.33 389,-281.33 382,-281.33"/>
</g>
<!-- Node11 -->
<g id="node11" class="node">
<title>Node11</title>
<g id="a_node11"><a xlink:title=" ">
<polygon fill="white" stroke="#bfbfbf" points="345.5,-348.5 345.5,-367.5 425.5,-367.5 425.5,-348.5 345.5,-348.5"/>
<text text-anchor="middle" x="385.5" y="-355.5" font-family="Helvetica,sans-Serif" font-size="10.00">std::ios_base</text>
</a>
</g>
</g>
<!-- Node11&#45;&gt;Node10 -->
<g id="edge12" class="edge">
<title>Node11&#45;&gt;Node10</title>
<path fill="none" stroke="midnightblue" d="M385.5,-338.12C385.5,-328.82 385.5,-318.06 385.5,-310.71"/>
<polygon fill="midnightblue" stroke="midnightblue" points="382,-338.41 385.5,-348.41 389,-338.41 382,-338.41"/>
</g>
</g>
</svg>
