<?xml version="1.0" encoding="UTF-8" standalone="no"?>
<!DOCTYPE svg PUBLIC "-//W3C//DTD SVG 1.1//EN"
 "http://www.w3.org/Graphics/SVG/1.1/DTD/svg11.dtd">
<!-- Generated by graphviz version 2.43.0 (0)
 -->
<!-- Title: VirtualMachine Pages: 1 -->
<svg width="431pt" height="206pt"
 viewBox="0.00 0.00 430.50 206.00" xmlns="http://www.w3.org/2000/svg" xmlns:xlink="http://www.w3.org/1999/xlink">
<g id="graph0" class="graph" transform="scale(1 1) rotate(0) translate(4 202)">
<title>VirtualMachine</title>
<polygon fill="white" stroke="transparent" points="-4,4 -4,-202 426.5,-202 426.5,4 -4,4"/>
<!-- Node1 -->
<g id="node1" class="node">
<title>Node1</title>
<g id="a_node1"><a xlink:title=" ">
<polygon fill="#bfbfbf" stroke="black" points="149,-0.5 149,-19.5 239,-19.5 239,-0.5 149,-0.5"/>
<text text-anchor="middle" x="194" y="-7.5" font-family="Helvetica,sans-Serif" font-size="10.00">VirtualMachine</text>
</a>
</g>
</g>
<!-- Node2 -->
<g id="node2" class="node">
<title>Node2</title>
<g id="a_node2"><a xlink:href="classStack.html" target="_top" xlink:title=" ">
<polygon fill="white" stroke="black" points="115,-111.5 115,-130.5 159,-130.5 159,-111.5 115,-111.5"/>
<text text-anchor="middle" x="137" y="-118.5" font-family="Helvetica,sans-Serif" font-size="10.00">Stack</text>
</a>
</g>
</g>
<!-- Node2&#45;&gt;Node1 -->
<g id="edge1" class="edge">
<title>Node2&#45;&gt;Node1</title>
<path fill="none" stroke="#9a32cd" stroke-dasharray="5,2" d="M134.47,-101.53C133.02,-83.77 133.51,-56.91 146,-38 151.43,-29.78 160.26,-23.81 168.88,-19.6"/>
<polygon fill="#9a32cd" stroke="#9a32cd" points="130.99,-101.93 135.56,-111.49 137.95,-101.17 130.99,-101.93"/>
<text text-anchor="middle" x="173.5" y="-85" font-family="Helvetica,sans-Serif" font-size="10.00"> offsets</text>
<text text-anchor="middle" x="173.5" y="-74" font-family="Helvetica,sans-Serif" font-size="10.00">params</text>
<text text-anchor="middle" x="173.5" y="-63" font-family="Helvetica,sans-Serif" font-size="10.00">registerVM</text>
<text text-anchor="middle" x="173.5" y="-52" font-family="Helvetica,sans-Serif" font-size="10.00">sharedVars</text>
<text text-anchor="middle" x="173.5" y="-41" font-family="Helvetica,sans-Serif" font-size="10.00">stackVM</text>
</g>
<!-- Node3 -->
<g id="node3" class="node">
<title>Node3</title>
<g id="a_node3"><a xlink:href="classGendarme.html" target="_top" xlink:title="Класс, предназначенный для освобождения неиспользуемой памяти.">
<polygon fill="white" stroke="black" points="0,-178.5 0,-197.5 68,-197.5 68,-178.5 0,-178.5"/>
<text text-anchor="middle" x="34" y="-185.5" font-family="Helvetica,sans-Serif" font-size="10.00">Gendarme</text>
</a>
</g>
</g>
<!-- Node3&#45;&gt;Node1 -->
<g id="edge5" class="edge">
<title>Node3&#45;&gt;Node1</title>
<path fill="none" stroke="#9a32cd" stroke-dasharray="5,2" d="M26.97,-168.66C21.99,-152.56 17.71,-128.98 27,-111 53.69,-59.37 119.9,-31.97 160.48,-19.56"/>
<polygon fill="#9a32cd" stroke="#9a32cd" points="23.78,-170.14 30.36,-178.45 30.39,-167.85 23.78,-170.14"/>
<text text-anchor="middle" x="66.5" y="-118.5" font-family="Helvetica,sans-Serif" font-size="10.00"> dynamicStrings</text>
</g>
<!-- Node3&#45;&gt;Node2 -->
<g id="edge2" class="edge">
<title>Node3&#45;&gt;Node2</title>
<path fill="none" stroke="#9a32cd" stroke-dasharray="5,2" d="M56.55,-172.77C76.94,-159.9 106.29,-141.38 123.33,-130.63"/>
<polygon fill="#9a32cd" stroke="#9a32cd" points="54.48,-169.94 47.89,-178.23 58.22,-175.86 54.48,-169.94"/>
<text text-anchor="middle" x="124" y="-152" font-family="Helvetica,sans-Serif" font-size="10.00"> memControl</text>
</g>
<!-- Node4 -->
<g id="node4" class="node">
<title>Node4</title>
<g id="a_node4"><a xlink:title=" ">
<polygon fill="white" stroke="#bfbfbf" points="177,-111.5 177,-130.5 289,-130.5 289,-111.5 177,-111.5"/>
<text text-anchor="middle" x="233" y="-118.5" font-family="Helvetica,sans-Serif" font-size="10.00">std::vector&lt; int * &gt;</text>
</a>
</g>
</g>
<!-- Node4&#45;&gt;Node1 -->
<g id="edge3" class="edge">
<title>Node4&#45;&gt;Node1</title>
<path fill="none" stroke="#9a32cd" stroke-dasharray="5,2" d="M227.1,-101.73C221.62,-85.04 213.13,-59.73 205,-38 202.73,-31.93 199.98,-25.18 197.8,-19.95"/>
<polygon fill="#9a32cd" stroke="#9a32cd" points="223.8,-102.9 230.22,-111.32 230.45,-100.73 223.8,-102.9"/>
<text text-anchor="middle" x="241" y="-63" font-family="Helvetica,sans-Serif" font-size="10.00"> pipefd</text>
</g>
<!-- Node5 -->
<g id="node5" class="node">
<title>Node5</title>
<g id="a_node5"><a xlink:title=" ">
<polygon fill="white" stroke="#bfbfbf" points="307.5,-111.5 307.5,-130.5 422.5,-130.5 422.5,-111.5 307.5,-111.5"/>
<text text-anchor="middle" x="365" y="-118.5" font-family="Helvetica,sans-Serif" font-size="10.00">std::vector&lt; pid_t &gt;</text>
</a>
</g>
</g>
<!-- Node5&#45;&gt;Node1 -->
<g id="edge4" class="edge">
<title>Node5&#45;&gt;Node1</title>
<path fill="none" stroke="#9a32cd" stroke-dasharray="5,2" d="M348.63,-104.42C329.2,-86.55 295.22,-57.25 262,-38 249.03,-30.49 233.57,-24.16 220.67,-19.53"/>
<polygon fill="#9a32cd" stroke="#9a32cd" points="346.33,-107.05 356.03,-111.31 351.1,-101.93 346.33,-107.05"/>
<text text-anchor="middle" x="354" y="-63" font-family="Helvetica,sans-Serif" font-size="10.00"> threads</text>
</g>
</g>
</svg>
