<?xml version="1.0" encoding="UTF-8" standalone="no"?>
<!DOCTYPE svg PUBLIC "-//W3C//DTD SVG 1.1//EN"
 "http://www.w3.org/Graphics/SVG/1.1/DTD/svg11.dtd">
<!-- Generated by graphviz version 2.43.0 (0)
 -->
<!-- Title: Optimizer Pages: 1 -->
<svg width="457pt" height="445pt"
 viewBox="0.00 0.00 456.50 445.00" xmlns="http://www.w3.org/2000/svg" xmlns:xlink="http://www.w3.org/1999/xlink">
<g id="graph0" class="graph" transform="scale(1 1) rotate(0) translate(4 441)">
<title>Optimizer</title>
<polygon fill="white" stroke="transparent" points="-4,4 -4,-441 452.5,-441 452.5,4 -4,4"/>
<!-- Node1 -->
<g id="node1" class="node">
<title>Node1</title>
<g id="a_node1"><a xlink:title=" ">
<polygon fill="#bfbfbf" stroke="black" points="151,-0.5 151,-19.5 216,-19.5 216,-0.5 151,-0.5"/>
<text text-anchor="middle" x="183.5" y="-7.5" font-family="Helvetica,sans-Serif" font-size="10.00">Optimizer</text>
</a>
</g>
</g>
<!-- Node2 -->
<g id="node2" class="node">
<title>Node2</title>
<g id="a_node2"><a xlink:href="classControlFlowGraph.html" target="_top" xlink:title=" ">
<polygon fill="white" stroke="black" points="131.5,-68.5 131.5,-87.5 235.5,-87.5 235.5,-68.5 131.5,-68.5"/>
<text text-anchor="middle" x="183.5" y="-75.5" font-family="Helvetica,sans-Serif" font-size="10.00">ControlFlowGraph</text>
</a>
</g>
</g>
<!-- Node2&#45;&gt;Node1 -->
<g id="edge1" class="edge">
<title>Node2&#45;&gt;Node1</title>
<path fill="none" stroke="#9a32cd" stroke-dasharray="5,2" d="M183.5,-58.04C183.5,-45.47 183.5,-29.56 183.5,-19.84"/>
<polygon fill="#9a32cd" stroke="#9a32cd" points="180,-58.37 183.5,-68.37 187,-58.37 180,-58.37"/>
<text text-anchor="middle" x="195.5" y="-41" font-family="Helvetica,sans-Serif" font-size="10.00"> CFG</text>
</g>
<!-- Node3 -->
<g id="node3" class="node">
<title>Node3</title>
<g id="a_node3"><a xlink:title=" ">
<polygon fill="white" stroke="#bfbfbf" points="113.5,-136.5 113.5,-155.5 253.5,-155.5 253.5,-136.5 113.5,-136.5"/>
<text text-anchor="middle" x="183.5" y="-143.5" font-family="Helvetica,sans-Serif" font-size="10.00">std::vector&lt; flowTree * &gt;</text>
</a>
</g>
</g>
<!-- Node3&#45;&gt;Node2 -->
<g id="edge2" class="edge">
<title>Node3&#45;&gt;Node2</title>
<path fill="none" stroke="#9a32cd" stroke-dasharray="5,2" d="M183.5,-126.04C183.5,-113.47 183.5,-97.56 183.5,-87.84"/>
<polygon fill="#9a32cd" stroke="#9a32cd" points="180,-126.37 183.5,-136.37 187,-126.37 180,-126.37"/>
<text text-anchor="middle" x="196" y="-110" font-family="Helvetica,sans-Serif" font-size="10.00"> tails</text>
</g>
<!-- Node4 -->
<g id="node4" class="node">
<title>Node4</title>
<g id="a_node4"><a xlink:href="structflowTree.html" target="_top" xlink:title=" ">
<polygon fill="white" stroke="black" points="98,-209 98,-228 155,-228 155,-209 98,-209"/>
<text text-anchor="middle" x="126.5" y="-216" font-family="Helvetica,sans-Serif" font-size="10.00">flowTree</text>
</a>
</g>
</g>
<!-- Node4&#45;&gt;Node2 -->
<g id="edge8" class="edge">
<title>Node4&#45;&gt;Node2</title>
<path fill="none" stroke="#9a32cd" stroke-dasharray="5,2" d="M111.47,-200.74C98.26,-183.87 82.82,-157.35 94.5,-136 107.8,-111.69 136.37,-96.23 157.58,-87.63"/>
<polygon fill="#9a32cd" stroke="#9a32cd" points="108.93,-203.16 118.02,-208.61 114.31,-198.69 108.93,-203.16"/>
<text text-anchor="middle" x="99.5" y="-143.5" font-family="Helvetica,sans-Serif" font-size="10.00"> ft</text>
</g>
<!-- Node4&#45;&gt;Node3 -->
<g id="edge3" class="edge">
<title>Node4&#45;&gt;Node3</title>
<path fill="none" stroke="#9a32cd" stroke-dasharray="5,2" d="M139.92,-200.9C151.37,-186.74 167.36,-166.96 176.45,-155.72"/>
<polygon fill="#9a32cd" stroke="#9a32cd" points="137.05,-198.88 133.49,-208.86 142.5,-203.28 137.05,-198.88"/>
<text text-anchor="middle" x="185" y="-177" font-family="Helvetica,sans-Serif" font-size="10.00"> elements</text>
</g>
<!-- Node5 -->
<g id="node5" class="node">
<title>Node5</title>
<g id="a_node5"><a xlink:title=" ">
<polygon fill="white" stroke="#bfbfbf" points="63.5,-292.5 63.5,-322.5 189.5,-322.5 189.5,-292.5 63.5,-292.5"/>
<text text-anchor="start" x="71.5" y="-310.5" font-family="Helvetica,sans-Serif" font-size="10.00">std::vector&lt; std::pair</text>
<text text-anchor="middle" x="126.5" y="-299.5" font-family="Helvetica,sans-Serif" font-size="10.00">&lt; flowTree *, char &gt; &gt;</text>
</a>
</g>
</g>
<!-- Node5&#45;&gt;Node4 -->
<g id="edge4" class="edge">
<title>Node5&#45;&gt;Node4</title>
<path fill="none" stroke="#9a32cd" stroke-dasharray="5,2" d="M126.5,-282.06C126.5,-264.13 126.5,-240.8 126.5,-228.31"/>
<polygon fill="#9a32cd" stroke="#9a32cd" points="123,-282.13 126.5,-292.13 130,-282.13 123,-282.13"/>
<text text-anchor="middle" x="139" y="-266" font-family="Helvetica,sans-Serif" font-size="10.00"> prev</text>
<text text-anchor="middle" x="139" y="-255" font-family="Helvetica,sans-Serif" font-size="10.00">next</text>
</g>
<!-- Node6 -->
<g id="node6" class="node">
<title>Node6</title>
<g id="a_node6"><a xlink:href="classPOLIZ.html" target="_top" xlink:title=" ">
<polygon fill="white" stroke="black" points="0,-298 0,-317 45,-317 45,-298 0,-298"/>
<text text-anchor="middle" x="22.5" y="-305" font-family="Helvetica,sans-Serif" font-size="10.00">POLIZ</text>
</a>
</g>
</g>
<!-- Node6&#45;&gt;Node1 -->
<g id="edge14" class="edge">
<title>Node6&#45;&gt;Node1</title>
<path fill="none" stroke="#9a32cd" stroke-dasharray="5,2" d="M22.5,-287.78C22.5,-270.17 22.5,-243.04 22.5,-219.5 22.5,-219.5 22.5,-219.5 22.5,-77 22.5,-22.02 103.87,-11.86 150.92,-10.57"/>
<polygon fill="#9a32cd" stroke="#9a32cd" points="19,-287.86 22.5,-297.86 26,-287.86 19,-287.86"/>
<text text-anchor="middle" x="36" y="-143.5" font-family="Helvetica,sans-Serif" font-size="10.00"> poliz</text>
</g>
<!-- Node6&#45;&gt;Node4 -->
<g id="edge5" class="edge">
<title>Node6&#45;&gt;Node4</title>
<path fill="none" stroke="#9a32cd" stroke-dasharray="5,2" d="M40.76,-291.23C62.66,-272.91 98.62,-242.82 116.19,-228.12"/>
<polygon fill="#9a32cd" stroke="#9a32cd" points="38.28,-288.74 32.85,-297.84 42.77,-294.11 38.28,-288.74"/>
<text text-anchor="middle" x="102.5" y="-260.5" font-family="Helvetica,sans-Serif" font-size="10.00"> block</text>
</g>
<!-- Node7 -->
<g id="node7" class="node">
<title>Node7</title>
<g id="a_node7"><a xlink:title=" ">
<polygon fill="white" stroke="#bfbfbf" points="207.5,-298 207.5,-317 311.5,-317 311.5,-298 207.5,-298"/>
<text text-anchor="middle" x="259.5" y="-305" font-family="Helvetica,sans-Serif" font-size="10.00">std::vector&lt; int &gt;</text>
</a>
</g>
</g>
<!-- Node7&#45;&gt;Node2 -->
<g id="edge7" class="edge">
<title>Node7&#45;&gt;Node2</title>
<path fill="none" stroke="#9a32cd" stroke-dasharray="5,2" d="M265.28,-287.68C274.24,-254.82 287.95,-185.75 262.5,-136 250.48,-112.51 223.78,-96.48 204.75,-87.55"/>
<polygon fill="#9a32cd" stroke="#9a32cd" points="261.8,-287.12 262.38,-297.7 268.52,-289.07 261.8,-287.12"/>
<text text-anchor="middle" x="295.5" y="-177" font-family="Helvetica,sans-Serif" font-size="10.00"> drawed</text>
</g>
<!-- Node7&#45;&gt;Node4 -->
<g id="edge6" class="edge">
<title>Node7&#45;&gt;Node4</title>
<path fill="none" stroke="#9a32cd" stroke-dasharray="5,2" d="M237.62,-292.19C209.78,-273.98 162.55,-243.08 139.69,-228.12"/>
<polygon fill="#9a32cd" stroke="#9a32cd" points="235.98,-295.29 246.26,-297.84 239.81,-289.44 235.98,-295.29"/>
<text text-anchor="middle" x="230" y="-260.5" font-family="Helvetica,sans-Serif" font-size="10.00"> checked</text>
</g>
<!-- Node8 -->
<g id="node8" class="node">
<title>Node8</title>
<g id="a_node8"><a xlink:title="STL class.">
<polygon fill="white" stroke="#bfbfbf" points="321.5,-136.5 321.5,-155.5 403.5,-155.5 403.5,-136.5 321.5,-136.5"/>
<text text-anchor="middle" x="362.5" y="-143.5" font-family="Helvetica,sans-Serif" font-size="10.00">std::ofstream</text>
</a>
</g>
</g>
<!-- Node8&#45;&gt;Node2 -->
<g id="edge9" class="edge">
<title>Node8&#45;&gt;Node2</title>
<path fill="none" stroke="#9a32cd" stroke-dasharray="5,2" d="M341.14,-130.91C328.34,-122.97 311.49,-113.39 295.5,-107 274.38,-98.55 249.97,-92.09 229.34,-87.52"/>
<polygon fill="#9a32cd" stroke="#9a32cd" points="339.36,-133.92 349.68,-136.33 343.12,-128.01 339.36,-133.92"/>
<text text-anchor="middle" x="333" y="-110" font-family="Helvetica,sans-Serif" font-size="10.00"> graph</text>
</g>
<!-- Node9 -->
<g id="node9" class="node">
<title>Node9</title>
<g id="a_node9"><a xlink:title="STL class.">
<polygon fill="white" stroke="#bfbfbf" points="319,-203.5 319,-233.5 432,-233.5 432,-203.5 319,-203.5"/>
<text text-anchor="start" x="327" y="-221.5" font-family="Helvetica,sans-Serif" font-size="10.00">std::basic_ofstream</text>
<text text-anchor="middle" x="375.5" y="-210.5" font-family="Helvetica,sans-Serif" font-size="10.00">&lt; char &gt;</text>
</a>
</g>
</g>
<!-- Node9&#45;&gt;Node8 -->
<g id="edge10" class="edge">
<title>Node9&#45;&gt;Node8</title>
<path fill="none" stroke="midnightblue" d="M371,-193.09C368.62,-180.21 365.86,-165.2 364.14,-155.89"/>
<polygon fill="midnightblue" stroke="midnightblue" points="367.61,-194.03 372.87,-203.23 374.5,-192.76 367.61,-194.03"/>
</g>
<!-- Node10 -->
<g id="node10" class="node">
<title>Node10</title>
<g id="a_node10"><a xlink:title="STL class.">
<polygon fill="white" stroke="#bfbfbf" points="330,-292.5 330,-322.5 439,-322.5 439,-292.5 330,-292.5"/>
<text text-anchor="start" x="338" y="-310.5" font-family="Helvetica,sans-Serif" font-size="10.00">std::basic_ostream</text>
<text text-anchor="middle" x="384.5" y="-299.5" font-family="Helvetica,sans-Serif" font-size="10.00">&lt; Char &gt;</text>
</a>
</g>
</g>
<!-- Node10&#45;&gt;Node9 -->
<g id="edge11" class="edge">
<title>Node10&#45;&gt;Node9</title>
<path fill="none" stroke="midnightblue" d="M381.97,-282.09C380.36,-266.44 378.31,-246.68 376.96,-233.6"/>
<polygon fill="midnightblue" stroke="midnightblue" points="378.5,-282.55 383.01,-292.13 385.47,-281.83 378.5,-282.55"/>
</g>
<!-- Node11 -->
<g id="node11" class="node">
<title>Node11</title>
<g id="a_node11"><a xlink:title="STL class.">
<polygon fill="white" stroke="#bfbfbf" points="320.5,-360.5 320.5,-379.5 448.5,-379.5 448.5,-360.5 320.5,-360.5"/>
<text text-anchor="middle" x="384.5" y="-367.5" font-family="Helvetica,sans-Serif" font-size="10.00">std::basic_ios&lt; Char &gt;</text>
</a>
</g>
</g>
<!-- Node11&#45;&gt;Node10 -->
<g id="edge12" class="edge">
<title>Node11&#45;&gt;Node10</title>
<path fill="none" stroke="midnightblue" d="M384.5,-350.22C384.5,-341.36 384.5,-330.96 384.5,-322.76"/>
<polygon fill="midnightblue" stroke="midnightblue" points="381,-350.33 384.5,-360.33 388,-350.33 381,-350.33"/>
</g>
<!-- Node12 -->
<g id="node12" class="node">
<title>Node12</title>
<g id="a_node12"><a xlink:title="STL class.">
<polygon fill="white" stroke="#bfbfbf" points="344.5,-417.5 344.5,-436.5 424.5,-436.5 424.5,-417.5 344.5,-417.5"/>
<text text-anchor="middle" x="384.5" y="-424.5" font-family="Helvetica,sans-Serif" font-size="10.00">std::ios_base</text>
</a>
</g>
</g>
<!-- Node12&#45;&gt;Node11 -->
<g id="edge13" class="edge">
<title>Node12&#45;&gt;Node11</title>
<path fill="none" stroke="midnightblue" d="M384.5,-407.12C384.5,-397.82 384.5,-387.06 384.5,-379.71"/>
<polygon fill="midnightblue" stroke="midnightblue" points="381,-407.41 384.5,-417.41 388,-407.41 381,-407.41"/>
</g>
<!-- Node13 -->
<g id="node13" class="node">
<title>Node13</title>
<g id="a_node13"><a xlink:href="classIdentTable.html" target="_top" xlink:title=" ">
<polygon fill="white" stroke="black" points="254,-68.5 254,-87.5 321,-87.5 321,-68.5 254,-68.5"/>
<text text-anchor="middle" x="287.5" y="-75.5" font-family="Helvetica,sans-Serif" font-size="10.00">IdentTable</text>
</a>
</g>
</g>
<!-- Node13&#45;&gt;Node1 -->
<g id="edge15" class="edge">
<title>Node13&#45;&gt;Node1</title>
<path fill="none" stroke="#9a32cd" stroke-dasharray="5,2" d="M265.42,-62.99C244.73,-49.86 214.46,-30.65 197.1,-19.63"/>
<polygon fill="#9a32cd" stroke="#9a32cd" points="263.59,-65.97 273.9,-68.37 267.34,-60.06 263.59,-65.97"/>
<text text-anchor="middle" x="260.5" y="-41" font-family="Helvetica,sans-Serif" font-size="10.00"> IdTable</text>
</g>
<!-- Node13&#45;&gt;Node13 -->
<g id="edge16" class="edge">
<title>Node13&#45;&gt;Node13</title>
<path fill="none" stroke="#9a32cd" stroke-dasharray="5,2" d="M331.22,-83.33C335.95,-82.31 339,-80.53 339,-78 339,-73.95 331.2,-71.83 321.18,-71.64"/>
<polygon fill="#9a32cd" stroke="#9a32cd" points="330.77,-79.86 321.18,-84.36 331.49,-86.82 330.77,-79.86"/>
<text text-anchor="middle" x="364.5" y="-81" font-family="Helvetica,sans-Serif" font-size="10.00"> next</text>
<text text-anchor="middle" x="364.5" y="-70" font-family="Helvetica,sans-Serif" font-size="10.00">mainTable</text>
</g>
</g>
</svg>
