<?xml version="1.0" encoding="UTF-8" standalone="no"?>
<!DOCTYPE svg PUBLIC "-//W3C//DTD SVG 1.1//EN"
 "http://www.w3.org/Graphics/SVG/1.1/DTD/svg11.dtd">
<!-- Generated by graphviz version 2.43.0 (0)
 -->
<!-- Title: DirectedAcyclicGraph Pages: 1 -->
<svg width="392pt" height="110pt"
 viewBox="0.00 0.00 391.50 110.00" xmlns="http://www.w3.org/2000/svg" xmlns:xlink="http://www.w3.org/1999/xlink">
<g id="graph0" class="graph" transform="scale(1 1) rotate(0) translate(4 106)">
<title>DirectedAcyclicGraph</title>
<polygon fill="white" stroke="transparent" points="-4,4 -4,-106 387.5,-106 387.5,4 -4,4"/>
<!-- Node1 -->
<g id="node1" class="node">
<title>Node1</title>
<g id="a_node1"><a xlink:title=" ">
<polygon fill="#bfbfbf" stroke="black" points="261.5,-7 261.5,-26 383.5,-26 383.5,-7 261.5,-7"/>
<text text-anchor="middle" x="322.5" y="-14" font-family="Helvetica,sans-Serif" font-size="10.00">DirectedAcyclicGraph</text>
</a>
</g>
</g>
<!-- Node2 -->
<g id="node2" class="node">
<title>Node2</title>
<g id="a_node2"><a xlink:title=" ">
<polygon fill="white" stroke="#bfbfbf" points="157.5,-81.5 157.5,-100.5 299.5,-100.5 299.5,-81.5 157.5,-81.5"/>
<text text-anchor="middle" x="228.5" y="-88.5" font-family="Helvetica,sans-Serif" font-size="10.00">std::vector&lt; DAGRow * &gt;</text>
</a>
</g>
</g>
<!-- Node2&#45;&gt;Node1 -->
<g id="edge1" class="edge">
<title>Node2&#45;&gt;Node1</title>
<path fill="none" stroke="#9a32cd" stroke-dasharray="5,2" d="M247.7,-75.19C266.87,-60.4 295.68,-38.18 311.36,-26.09"/>
<polygon fill="#9a32cd" stroke="#9a32cd" points="245.43,-72.52 239.65,-81.4 249.71,-78.06 245.43,-72.52"/>
<text text-anchor="middle" x="291" y="-54" font-family="Helvetica,sans-Serif" font-size="10.00"> rows</text>
</g>
<!-- Node3 -->
<g id="node3" class="node">
<title>Node3</title>
<g id="a_node3"><a xlink:href="structDAGRow.html" target="_top" xlink:title=" ">
<polygon fill="white" stroke="black" points="126,-7 126,-26 185,-26 185,-7 126,-7"/>
<text text-anchor="middle" x="155.5" y="-14" font-family="Helvetica,sans-Serif" font-size="10.00">DAGRow</text>
</a>
</g>
</g>
<!-- Node2&#45;&gt;Node3 -->
<g id="edge3" class="edge">
<title>Node2&#45;&gt;Node3</title>
<path fill="none" stroke="#9a32cd" stroke-dasharray="5,2" d="M219.97,-71.79C216.16,-64.81 211.23,-57.07 205.5,-51 195.89,-40.82 182.64,-32.12 172.19,-26.14"/>
<polygon fill="#9a32cd" stroke="#9a32cd" points="217.09,-73.85 224.72,-81.2 223.34,-70.7 217.09,-73.85"/>
<text text-anchor="middle" x="234.5" y="-54" font-family="Helvetica,sans-Serif" font-size="10.00"> created</text>
</g>
<!-- Node3&#45;&gt;Node2 -->
<g id="edge2" class="edge">
<title>Node3&#45;&gt;Node2</title>
<path fill="none" stroke="#9a32cd" stroke-dasharray="5,2" d="M151.47,-36.12C150.66,-44.71 151.32,-54.61 156.5,-62 162.89,-71.12 172.7,-77.27 183.05,-81.41"/>
<polygon fill="#9a32cd" stroke="#9a32cd" points="154.93,-36.67 153.05,-26.24 148.02,-35.56 154.93,-36.67"/>
<text text-anchor="middle" x="181" y="-54" font-family="Helvetica,sans-Serif" font-size="10.00"> elements</text>
</g>
<!-- Node3&#45;&gt;Node3 -->
<g id="edge6" class="edge">
<title>Node3&#45;&gt;Node3</title>
<path fill="none" stroke="#9a32cd" stroke-dasharray="5,2" d="M195.17,-22.95C199.91,-21.77 203,-19.62 203,-16.5 203,-11.5 195.08,-9 185.19,-9"/>
<polygon fill="#9a32cd" stroke="#9a32cd" points="194.76,-19.47 185.19,-24 195.5,-26.43 194.76,-19.47"/>
<text text-anchor="middle" x="214" y="-25" font-family="Helvetica,sans-Serif" font-size="10.00"> lvar</text>
<text text-anchor="middle" x="214" y="-14" font-family="Helvetica,sans-Serif" font-size="10.00">prev</text>
<text text-anchor="middle" x="214" y="-3" font-family="Helvetica,sans-Serif" font-size="10.00">rvar</text>
</g>
<!-- Node4 -->
<g id="node4" class="node">
<title>Node4</title>
<g id="a_node4"><a xlink:href="classIdentTable.html" target="_top" xlink:title=" ">
<polygon fill="white" stroke="black" points="0,-81.5 0,-100.5 67,-100.5 67,-81.5 0,-81.5"/>
<text text-anchor="middle" x="33.5" y="-88.5" font-family="Helvetica,sans-Serif" font-size="10.00">IdentTable</text>
</a>
</g>
</g>
<!-- Node4&#45;&gt;Node3 -->
<g id="edge4" class="edge">
<title>Node4&#45;&gt;Node3</title>
<path fill="none" stroke="#9a32cd" stroke-dasharray="5,2" d="M56.76,-76.18C81.61,-61.41 120.24,-38.46 141.04,-26.09"/>
<polygon fill="#9a32cd" stroke="#9a32cd" points="54.78,-73.28 47.97,-81.4 58.36,-79.3 54.78,-73.28"/>
<text text-anchor="middle" x="112.5" y="-54" font-family="Helvetica,sans-Serif" font-size="10.00"> ident</text>
</g>
<!-- Node4&#45;&gt;Node4 -->
<g id="edge5" class="edge">
<title>Node4&#45;&gt;Node4</title>
<path fill="none" stroke="#9a32cd" stroke-dasharray="5,2" d="M77.22,-96.33C81.95,-95.31 85,-93.53 85,-91 85,-86.95 77.2,-84.83 67.18,-84.64"/>
<polygon fill="#9a32cd" stroke="#9a32cd" points="76.77,-92.86 67.18,-97.36 77.49,-99.82 76.77,-92.86"/>
<text text-anchor="middle" x="112" y="-94" font-family="Helvetica,sans-Serif" font-size="10.00"> mainTable</text>
<text text-anchor="middle" x="112" y="-83" font-family="Helvetica,sans-Serif" font-size="10.00">next</text>
</g>
<!-- Node5 -->
<g id="node5" class="node">
<title>Node5</title>
<g id="a_node5"><a xlink:href="classPOLIZ.html" target="_top" xlink:title=" ">
<polygon fill="white" stroke="black" points="318,-81.5 318,-100.5 363,-100.5 363,-81.5 318,-81.5"/>
<text text-anchor="middle" x="340.5" y="-88.5" font-family="Helvetica,sans-Serif" font-size="10.00">POLIZ</text>
</a>
</g>
</g>
<!-- Node5&#45;&gt;Node1 -->
<g id="edge7" class="edge">
<title>Node5&#45;&gt;Node1</title>
<path fill="none" stroke="#9a32cd" stroke-dasharray="5,2" d="M335.9,-71.46C332.27,-56.87 327.39,-37.2 324.63,-26.09"/>
<polygon fill="#9a32cd" stroke="#9a32cd" points="332.56,-72.54 338.36,-81.4 339.35,-70.85 332.56,-72.54"/>
<text text-anchor="middle" x="353.5" y="-54" font-family="Helvetica,sans-Serif" font-size="10.00"> stashed</text>
</g>
</g>
</svg>
