<?xml version="1.0" encoding="UTF-8" standalone="no"?>
<!DOCTYPE svg PUBLIC "-//W3C//DTD SVG 1.1//EN"
 "http://www.w3.org/Graphics/SVG/1.1/DTD/svg11.dtd">
<!-- Generated by graphviz version 2.43.0 (0)
 -->
<!-- Title: DirectedAcyclicGraph Pages: 1 -->
<svg width="390pt" height="110pt"
 viewBox="0.00 0.00 389.50 110.00" xmlns="http://www.w3.org/2000/svg" xmlns:xlink="http://www.w3.org/1999/xlink">
<g id="graph0" class="graph" transform="scale(1 1) rotate(0) translate(4 106)">
<title>DirectedAcyclicGraph</title>
<polygon fill="white" stroke="transparent" points="-4,4 -4,-106 385.5,-106 385.5,4 -4,4"/>
<!-- Node1 -->
<g id="node1" class="node">
<title>Node1</title>
<g id="a_node1"><a xlink:title=" ">
<polygon fill="#bfbfbf" stroke="black" points="259.5,-7 259.5,-26 381.5,-26 381.5,-7 259.5,-7"/>
<text text-anchor="middle" x="320.5" y="-14" font-family="Helvetica,sans-Serif" font-size="10.00">DirectedAcyclicGraph</text>
</a>
</g>
</g>
<!-- Node2 -->
<g id="node2" class="node">
<title>Node2</title>
<g id="a_node2"><a xlink:title=" ">
<polygon fill="white" stroke="#bfbfbf" points="154.5,-81.5 154.5,-100.5 296.5,-100.5 296.5,-81.5 154.5,-81.5"/>
<text text-anchor="middle" x="225.5" y="-88.5" font-family="Helvetica,sans-Serif" font-size="10.00">std::vector&lt; DAGRow * &gt;</text>
</a>
</g>
</g>
<!-- Node2&#45;&gt;Node1 -->
<g id="edge1" class="edge">
<title>Node2&#45;&gt;Node1</title>
<path fill="none" stroke="#9a32cd" stroke-dasharray="5,2" d="M244.91,-75.19C264.28,-60.4 293.4,-38.18 309.24,-26.09"/>
<polygon fill="#9a32cd" stroke="#9a32cd" points="242.6,-72.55 236.77,-81.4 246.84,-78.11 242.6,-72.55"/>
<text text-anchor="middle" x="289" y="-54" font-family="Helvetica,sans-Serif" font-size="10.00"> rows</text>
</g>
<!-- Node3 -->
<g id="node3" class="node">
<title>Node3</title>
<g id="a_node3"><a xlink:href="structDAGRow.html" target="_top" xlink:title=" ">
<polygon fill="white" stroke="black" points="123,-7 123,-26 182,-26 182,-7 123,-7"/>
<text text-anchor="middle" x="152.5" y="-14" font-family="Helvetica,sans-Serif" font-size="10.00">DAGRow</text>
</a>
</g>
</g>
<!-- Node2&#45;&gt;Node3 -->
<g id="edge3" class="edge">
<title>Node2&#45;&gt;Node3</title>
<path fill="none" stroke="#9a32cd" stroke-dasharray="5,2" d="M216.97,-71.79C213.16,-64.81 208.23,-57.07 202.5,-51 192.89,-40.82 179.64,-32.12 169.19,-26.14"/>
<polygon fill="#9a32cd" stroke="#9a32cd" points="214.09,-73.85 221.72,-81.2 220.34,-70.7 214.09,-73.85"/>
<text text-anchor="middle" x="231.5" y="-54" font-family="Helvetica,sans-Serif" font-size="10.00"> created</text>
</g>
<!-- Node3&#45;&gt;Node2 -->
<g id="edge2" class="edge">
<title>Node3&#45;&gt;Node2</title>
<path fill="none" stroke="#9a32cd" stroke-dasharray="5,2" d="M148.47,-36.12C147.66,-44.71 148.32,-54.61 153.5,-62 159.89,-71.12 169.7,-77.27 180.05,-81.41"/>
<polygon fill="#9a32cd" stroke="#9a32cd" points="151.93,-36.67 150.05,-26.24 145.02,-35.56 151.93,-36.67"/>
<text text-anchor="middle" x="178" y="-54" font-family="Helvetica,sans-Serif" font-size="10.00"> elements</text>
</g>
<!-- Node3&#45;&gt;Node3 -->
<g id="edge6" class="edge">
<title>Node3&#45;&gt;Node3</title>
<path fill="none" stroke="#9a32cd" stroke-dasharray="5,2" d="M192.17,-22.95C196.91,-21.77 200,-19.62 200,-16.5 200,-11.5 192.08,-9 182.19,-9"/>
<polygon fill="#9a32cd" stroke="#9a32cd" points="191.76,-19.47 182.19,-24 192.5,-26.43 191.76,-19.47"/>
<text text-anchor="middle" x="212.5" y="-25" font-family="Helvetica,sans-Serif" font-size="10.00"> prev</text>
<text text-anchor="middle" x="212.5" y="-14" font-family="Helvetica,sans-Serif" font-size="10.00">rvar</text>
<text text-anchor="middle" x="212.5" y="-3" font-family="Helvetica,sans-Serif" font-size="10.00">lvar</text>
</g>
<!-- Node4 -->
<g id="node4" class="node">
<title>Node4</title>
<g id="a_node4"><a xlink:href="classIdentTable.html" target="_top" xlink:title=" ">
<polygon fill="white" stroke="black" points="0,-81.5 0,-100.5 67,-100.5 67,-81.5 0,-81.5"/>
<text text-anchor="middle" x="33.5" y="-88.5" font-family="Helvetica,sans-Serif" font-size="10.00">IdentTable</text>
</a>
</g>
</g>
<!-- Node4&#45;&gt;Node3 -->
<g id="edge4" class="edge">
<title>Node4&#45;&gt;Node3</title>
<path fill="none" stroke="#9a32cd" stroke-dasharray="5,2" d="M56.19,-76.18C80.43,-61.41 118.1,-38.46 138.4,-26.09"/>
<polygon fill="#9a32cd" stroke="#9a32cd" points="54.34,-73.21 47.62,-81.4 57.98,-79.18 54.34,-73.21"/>
<text text-anchor="middle" x="111.5" y="-54" font-family="Helvetica,sans-Serif" font-size="10.00"> ident</text>
</g>
<!-- Node4&#45;&gt;Node4 -->
<g id="edge5" class="edge">
<title>Node4&#45;&gt;Node4</title>
<path fill="none" stroke="#9a32cd" stroke-dasharray="5,2" d="M77.22,-96.33C81.95,-95.31 85,-93.53 85,-91 85,-86.95 77.2,-84.83 67.18,-84.64"/>
<polygon fill="#9a32cd" stroke="#9a32cd" points="76.77,-92.86 67.18,-97.36 77.49,-99.82 76.77,-92.86"/>
<text text-anchor="middle" x="110.5" y="-94" font-family="Helvetica,sans-Serif" font-size="10.00"> next</text>
<text text-anchor="middle" x="110.5" y="-83" font-family="Helvetica,sans-Serif" font-size="10.00">mainTable</text>
</g>
<!-- Node5 -->
<g id="node5" class="node">
<title>Node5</title>
<g id="a_node5"><a xlink:href="classPOLIZ.html" target="_top" xlink:title=" ">
<polygon fill="white" stroke="black" points="315,-81.5 315,-100.5 360,-100.5 360,-81.5 315,-81.5"/>
<text text-anchor="middle" x="337.5" y="-88.5" font-family="Helvetica,sans-Serif" font-size="10.00">POLIZ</text>
</a>
</g>
</g>
<!-- Node5&#45;&gt;Node1 -->
<g id="edge7" class="edge">
<title>Node5&#45;&gt;Node1</title>
<path fill="none" stroke="#9a32cd" stroke-dasharray="5,2" d="M333.15,-71.46C329.73,-56.87 325.12,-37.2 322.51,-26.09"/>
<polygon fill="#9a32cd" stroke="#9a32cd" points="329.79,-72.46 335.48,-81.4 336.61,-70.86 329.79,-72.46"/>
<text text-anchor="middle" x="351.5" y="-54" font-family="Helvetica,sans-Serif" font-size="10.00"> stashed</text>
</g>
</g>
</svg>
