<?xml version="1.0" encoding="UTF-8" standalone="no"?>
<!DOCTYPE svg PUBLIC "-//W3C//DTD SVG 1.1//EN"
 "http://www.w3.org/Graphics/SVG/1.1/DTD/svg11.dtd">
<!-- Generated by graphviz version 2.43.0 (0)
 -->
<!-- Title: Debugger Pages: 1 -->
<!--zoomable 262 -->
<svg id="main" version="1.1" xmlns="http://www.w3.org/2000/svg" xmlns:xlink="http://www.w3.org/1999/xlink" xml:space="preserve" onload="init(evt)">
<style type="text/css"><![CDATA[
.edge:hover path { stroke: red; }
.edge:hover polygon { stroke: red; fill: red; }
]]></style>
<script type="text/javascript"><![CDATA[
var edges = document.getElementsByTagName('g');
if (edges && edges.length) {
  for (var i=0;i<edges.length;i++) {
    if (edges[i].id.substr(0,4)=='edge') {
      edges[i].setAttribute('class','edge');
    }
  }
}
]]></script>
        <defs>
                <circle id="rim" cx="0" cy="0" r="7"/>
                <circle id="rim2" cx="0" cy="0" r="3.5"/>
                <g id="zoomPlus">
                        <use xlink:href="#rim" fill="#404040">
                                <set attributeName="fill" to="#808080" begin="zoomplus.mouseover" end="zoomplus.mouseout"/>
                        </use>
                        <path d="M-4,0h8M0,-4v8" fill="none" stroke="white" stroke-width="1.5" pointer-events="none"/>
                </g>
                <g id="zoomMin">
                        <use xlink:href="#rim" fill="#404040">
                                <set attributeName="fill" to="#808080" begin="zoomminus.mouseover" end="zoomminus.mouseout"/>
                        </use>
                        <path d="M-4,0h8" fill="none" stroke="white" stroke-width="1.5" pointer-events="none"/>
                </g>
                <g id="dirArrow">
                        <path fill="none" stroke="white" stroke-width="1.5" d="M0,-3.0v7 M-2.5,-0.5L0,-3.0L2.5,-0.5"/>
                </g>
               <g id="resetDef">
                       <use xlink:href="#rim2" fill="#404040">
                               <set attributeName="fill" to="#808080" begin="reset.mouseover" end="reset.mouseout"/>
                       </use>
               </g>
        </defs>

<script type="text/javascript">
var viewWidth = 853;
var viewHeight = 262;
var sectionId = 'dynsection-1';
</script>
<script xlink:href="svgpan.js"/>
<svg id="graph" class="graph">
<g id="viewport">
<title>Debugger</title>
<polygon fill="white" stroke="transparent" points="-4,4 -4,-258 849,-258 849,4 -4,4"/>
<!-- Node1 -->
<g id="node1" class="node">
<title>Node1</title>
<g id="a_node1"><a xlink:title=" ">
<polygon fill="#bfbfbf" stroke="black" points="781,-39.5 781,-58.5 845,-58.5 845,-39.5 781,-39.5"/>
<text text-anchor="middle" x="813" y="-46.5" font-family="Helvetica,sans-Serif" font-size="10.00">Debugger</text>
</a>
</g>
</g>
<!-- Node2 -->
<g id="node2" class="node">
<title>Node2</title>
<g id="a_node2"><a xlink:href="classVirtualMachine.html" target="_top" xlink:title=" ">
<polygon fill="white" stroke="black" points="572,-121.5 572,-140.5 662,-140.5 662,-121.5 572,-121.5"/>
<text text-anchor="middle" x="617" y="-128.5" font-family="Helvetica,sans-Serif" font-size="10.00">VirtualMachine</text>
</a>
</g>
</g>
<!-- Node2&#45;&gt;Node1 -->
<g id="edge1" class="edge">
<title>Node2&#45;&gt;Node1</title>
<path fill="none" stroke="midnightblue" d="M650.03,-117.46C689.39,-100.83 755.14,-73.04 789.51,-58.51"/>
<polygon fill="midnightblue" stroke="midnightblue" points="648.48,-114.32 640.63,-121.43 651.21,-120.76 648.48,-114.32"/>
</g>
<!-- Node3 -->
<g id="node3" class="node">
<title>Node3</title>
<g id="a_node3"><a xlink:href="classStack.html" target="_top" xlink:title=" ">
<polygon fill="white" stroke="black" points="357,-170.5 357,-189.5 401,-189.5 401,-170.5 357,-170.5"/>
<text text-anchor="middle" x="379" y="-177.5" font-family="Helvetica,sans-Serif" font-size="10.00">Stack</text>
</a>
</g>
</g>
<!-- Node3&#45;&gt;Node2 -->
<g id="edge2" class="edge">
<title>Node3&#45;&gt;Node2</title>
<path fill="none" stroke="#9a32cd" stroke-dasharray="5,2" d="M411.36,-173.49C452.53,-164.94 525.04,-149.89 571.77,-140.18"/>
<polygon fill="#9a32cd" stroke="#9a32cd" points="410.44,-170.11 401.36,-175.57 411.86,-176.96 410.44,-170.11"/>
<text text-anchor="middle" x="494.5" y="-208" font-family="Helvetica,sans-Serif" font-size="10.00"> offsets</text>
<text text-anchor="middle" x="494.5" y="-197" font-family="Helvetica,sans-Serif" font-size="10.00">registerVM</text>
<text text-anchor="middle" x="494.5" y="-186" font-family="Helvetica,sans-Serif" font-size="10.00">params</text>
<text text-anchor="middle" x="494.5" y="-175" font-family="Helvetica,sans-Serif" font-size="10.00">sharedVars</text>
<text text-anchor="middle" x="494.5" y="-164" font-family="Helvetica,sans-Serif" font-size="10.00">stackVM</text>
</g>
<!-- Node4 -->
<g id="node4" class="node">
<title>Node4</title>
<g id="a_node4"><a xlink:href="classGendarme.html" target="_top" xlink:title="Класс, предназначенный для освобождения неиспользуемой памяти.">
<polygon fill="white" stroke="black" points="141,-204.5 141,-223.5 209,-223.5 209,-204.5 141,-204.5"/>
<text text-anchor="middle" x="175" y="-211.5" font-family="Helvetica,sans-Serif" font-size="10.00">Gendarme</text>
</a>
</g>
</g>
<!-- Node4&#45;&gt;Node2 -->
<g id="edge6" class="edge">
<title>Node4&#45;&gt;Node2</title>
<path fill="none" stroke="#9a32cd" stroke-dasharray="5,2" d="M219.33,-225.08C286.8,-240.11 419.8,-260.7 522,-220 562.92,-203.7 596.28,-160.19 609.67,-140.69"/>
<polygon fill="#9a32cd" stroke="#9a32cd" points="220,-221.65 209.47,-222.82 218.44,-228.47 220,-221.65"/>
<text text-anchor="middle" x="379" y="-246" font-family="Helvetica,sans-Serif" font-size="10.00"> dynamicStrings</text>
</g>
<!-- Node4&#45;&gt;Node3 -->
<g id="edge3" class="edge">
<title>Node4&#45;&gt;Node3</title>
<path fill="none" stroke="#9a32cd" stroke-dasharray="5,2" d="M219.41,-206.69C261.83,-199.55 324.6,-188.99 356.98,-183.54"/>
<polygon fill="#9a32cd" stroke="#9a32cd" points="218.64,-203.27 209.36,-208.39 219.8,-210.18 218.64,-203.27"/>
<text text-anchor="middle" x="259" y="-207" font-family="Helvetica,sans-Serif" font-size="10.00"> memControl</text>
</g>
<!-- Node5 -->
<g id="node5" class="node">
<title>Node5</title>
<g id="a_node5"><a xlink:title=" ">
<polygon fill="white" stroke="#bfbfbf" points="323,-123.5 323,-142.5 435,-142.5 435,-123.5 323,-123.5"/>
<text text-anchor="middle" x="379" y="-130.5" font-family="Helvetica,sans-Serif" font-size="10.00">std::vector&lt; int * &gt;</text>
</a>
</g>
</g>
<!-- Node5&#45;&gt;Node2 -->
<g id="edge4" class="edge">
<title>Node5&#45;&gt;Node2</title>
<path fill="none" stroke="#9a32cd" stroke-dasharray="5,2" d="M445.45,-132.21C452.72,-132.14 460.02,-132.06 467,-132 502.31,-131.68 542.33,-131.42 571.99,-131.24"/>
<polygon fill="#9a32cd" stroke="#9a32cd" points="445.19,-128.72 435.23,-132.33 445.27,-135.72 445.19,-128.72"/>
<text text-anchor="middle" x="494.5" y="-135" font-family="Helvetica,sans-Serif" font-size="10.00"> pipefd</text>
</g>
<!-- Node6 -->
<g id="node6" class="node">
<title>Node6</title>
<g id="a_node6"><a xlink:title=" ">
<polygon fill="white" stroke="#bfbfbf" points="321.5,-85.5 321.5,-104.5 436.5,-104.5 436.5,-85.5 321.5,-85.5"/>
<text text-anchor="middle" x="379" y="-92.5" font-family="Helvetica,sans-Serif" font-size="10.00">std::vector&lt; pid_t &gt;</text>
</a>
</g>
</g>
<!-- Node6&#45;&gt;Node2 -->
<g id="edge5" class="edge">
<title>Node6&#45;&gt;Node2</title>
<path fill="none" stroke="#9a32cd" stroke-dasharray="5,2" d="M446.66,-104.7C470.45,-108.2 497.43,-112.22 522,-116 538.17,-118.49 555.89,-121.29 571.55,-123.8"/>
<polygon fill="#9a32cd" stroke="#9a32cd" points="447.09,-101.22 436.68,-103.23 446.07,-108.15 447.09,-101.22"/>
<text text-anchor="middle" x="494.5" y="-119" font-family="Helvetica,sans-Serif" font-size="10.00"> threads</text>
</g>
<!-- Node7 -->
<g id="node7" class="node">
<title>Node7</title>
<g id="a_node7"><a xlink:title=" ">
<polygon fill="white" stroke="#bfbfbf" points="540,-34 540,-64 694,-64 694,-34 540,-34"/>
<text text-anchor="start" x="548" y="-52" font-family="Helvetica,sans-Serif" font-size="10.00">std::map&lt; std::string,</text>
<text text-anchor="middle" x="617" y="-41" font-family="Helvetica,sans-Serif" font-size="10.00"> std::vector&lt; std::string &gt; &gt;</text>
</a>
</g>
</g>
<!-- Node7&#45;&gt;Node1 -->
<g id="edge7" class="edge">
<title>Node7&#45;&gt;Node1</title>
<path fill="none" stroke="#9a32cd" stroke-dasharray="5,2" d="M704.45,-49C731.61,-49 759.89,-49 780.63,-49"/>
<polygon fill="#9a32cd" stroke="#9a32cd" points="704.12,-45.5 694.12,-49 704.12,-52.5 704.12,-45.5"/>
<text text-anchor="middle" x="737.5" y="-52" font-family="Helvetica,sans-Serif" font-size="10.00"> synonims</text>
</g>
<!-- Node8 -->
<g id="node8" class="node">
<title>Node8</title>
<g id="a_node8"><a xlink:title="STL class.">
<polygon fill="white" stroke="#bfbfbf" points="142.5,-33.5 142.5,-52.5 207.5,-52.5 207.5,-33.5 142.5,-33.5"/>
<text text-anchor="middle" x="175" y="-40.5" font-family="Helvetica,sans-Serif" font-size="10.00">std::string</text>
</a>
</g>
</g>
<!-- Node8&#45;&gt;Node7 -->
<g id="edge8" class="edge">
<title>Node8&#45;&gt;Node7</title>
<path fill="none" stroke="#9a32cd" stroke-dasharray="5,2" d="M217.96,-43.57C291.98,-44.58 446.7,-46.69 539.94,-47.96"/>
<polygon fill="#9a32cd" stroke="#9a32cd" points="217.69,-40.07 207.64,-43.43 217.6,-47.07 217.69,-40.07"/>
<text text-anchor="middle" x="379" y="-50" font-family="Helvetica,sans-Serif" font-size="10.00"> keys</text>
</g>
<!-- Node10 -->
<g id="node10" class="node">
<title>Node10</title>
<g id="a_node10"><a xlink:title=" ">
<polygon fill="white" stroke="#bfbfbf" points="309,-0.5 309,-19.5 449,-19.5 449,-0.5 309,-0.5"/>
<text text-anchor="middle" x="379" y="-7.5" font-family="Helvetica,sans-Serif" font-size="10.00">std::vector&lt; std::string &gt;</text>
</a>
</g>
</g>
<!-- Node8&#45;&gt;Node10 -->
<g id="edge11" class="edge">
<title>Node8&#45;&gt;Node10</title>
<path fill="none" stroke="#9a32cd" stroke-dasharray="5,2" d="M217.71,-32.85C220.85,-32.19 223.97,-31.57 227,-31 253.54,-26.04 282.9,-21.7 308.62,-18.27"/>
<polygon fill="#9a32cd" stroke="#9a32cd" points="216.75,-29.48 207.73,-35.05 218.25,-36.32 216.75,-29.48"/>
<text text-anchor="middle" x="259" y="-34" font-family="Helvetica,sans-Serif" font-size="10.00"> elements</text>
</g>
<!-- Node9 -->
<g id="node9" class="node">
<title>Node9</title>
<g id="a_node9"><a xlink:title="STL class.">
<polygon fill="white" stroke="#bfbfbf" points="0,-28 0,-58 104,-58 104,-28 0,-28"/>
<text text-anchor="start" x="8" y="-46" font-family="Helvetica,sans-Serif" font-size="10.00">std::basic_string&lt;</text>
<text text-anchor="middle" x="52" y="-35" font-family="Helvetica,sans-Serif" font-size="10.00"> char &gt;</text>
</a>
</g>
</g>
<!-- Node9&#45;&gt;Node8 -->
<g id="edge9" class="edge">
<title>Node9&#45;&gt;Node8</title>
<path fill="none" stroke="midnightblue" d="M114.35,-43C124.01,-43 133.64,-43 142.26,-43"/>
<polygon fill="midnightblue" stroke="midnightblue" points="114.31,-39.5 104.31,-43 114.31,-46.5 114.31,-39.5"/>
</g>
<!-- Node10&#45;&gt;Node1 -->
<g id="edge12" class="edge">
<title>Node10&#45;&gt;Node1</title>
<path fill="none" stroke="#9a32cd" stroke-dasharray="5,2" d="M459.05,-4.54C522.86,-1.62 614.73,-0.79 694,-13 727.45,-18.15 764.56,-30.66 788.07,-39.48"/>
<polygon fill="#9a32cd" stroke="#9a32cd" points="458.88,-1.04 449.06,-5.03 459.22,-8.04 458.88,-1.04"/>
<text text-anchor="middle" x="617" y="-16" font-family="Helvetica,sans-Serif" font-size="10.00"> lastcmd</text>
</g>
<!-- Node10&#45;&gt;Node7 -->
<g id="edge10" class="edge">
<title>Node10&#45;&gt;Node7</title>
<path fill="none" stroke="#9a32cd" stroke-dasharray="5,2" d="M458.37,-20.98C479.09,-24.05 501.41,-27.51 522,-31 527.82,-31.99 533.83,-33.05 539.87,-34.14"/>
<polygon fill="#9a32cd" stroke="#9a32cd" points="458.75,-17.5 448.35,-19.51 457.73,-24.43 458.75,-17.5"/>
<text text-anchor="middle" x="494.5" y="-34" font-family="Helvetica,sans-Serif" font-size="10.00"> elements</text>
</g>
</g>
</svg>
        <g id="navigator" transform="translate(0 0)" fill="#404254">
                <rect fill="#f2f5e9" fill-opacity="0.5" stroke="#606060" stroke-width=".5" x="0" y="0" width="60" height="60"/>
                <use id="zoomplus" xlink:href="#zoomPlus" x="17" y="9" onmousedown="handleZoom(evt,'in')"/>
                <use id="zoomminus" xlink:href="#zoomMin" x="42" y="9" onmousedown="handleZoom(evt,'out')"/>
                <use id="reset" xlink:href="#resetDef" x="30" y="36" onmousedown="handleReset()"/>
                <g id="arrowUp" xlink:href="#dirArrow" transform="translate(30 24)" onmousedown="handlePan(0,-1)">
                  <use xlink:href="#rim" fill="#404040">
                        <set attributeName="fill" to="#808080" begin="arrowUp.mouseover" end="arrowUp.mouseout"/>
                  </use>
                  <path fill="none" stroke="white" stroke-width="1.5" d="M0,-3.0v7 M-2.5,-0.5L0,-3.0L2.5,-0.5"/>
                </g>
                <g id="arrowRight" xlink:href="#dirArrow" transform="rotate(90) translate(36 -43)" onmousedown="handlePan(1,0)">
                  <use xlink:href="#rim" fill="#404040">
                        <set attributeName="fill" to="#808080" begin="arrowRight.mouseover" end="arrowRight.mouseout"/>
                  </use>
                  <path fill="none" stroke="white" stroke-width="1.5" d="M0,-3.0v7 M-2.5,-0.5L0,-3.0L2.5,-0.5"/>
                </g>
                <g id="arrowDown" xlink:href="#dirArrow" transform="rotate(180) translate(-30 -48)" onmousedown="handlePan(0,1)">
                  <use xlink:href="#rim" fill="#404040">
                        <set attributeName="fill" to="#808080" begin="arrowDown.mouseover" end="arrowDown.mouseout"/>
                  </use>
                  <path fill="none" stroke="white" stroke-width="1.5" d="M0,-3.0v7 M-2.5,-0.5L0,-3.0L2.5,-0.5"/>
                </g>
                <g id="arrowLeft" xlink:href="#dirArrow" transform="rotate(270) translate(-36 17)" onmousedown="handlePan(-1,0)">
                  <use xlink:href="#rim" fill="#404040">
                        <set attributeName="fill" to="#808080" begin="arrowLeft.mouseover" end="arrowLeft.mouseout"/>
                  </use>
                  <path fill="none" stroke="white" stroke-width="1.5" d="M0,-3.0v7 M-2.5,-0.5L0,-3.0L2.5,-0.5"/>
                </g>
        </g>
        <svg viewBox="0 0 15 15" width="100%" height="30px" preserveAspectRatio="xMaxYMin meet">
         <g id="arrow_out" transform="scale(0.3 0.3)">
          <a xlink:href="classDebugger__coll__graph_org.svg" target="_base">
           <rect id="button" ry="5" rx="5" y="6" x="6" height="38" width="38"
                fill="#f2f5e9" fill-opacity="0.5" stroke="#606060" stroke-width="1.0"/>
           <path id="arrow"
             d="M 11.500037,31.436501 C 11.940474,20.09759 22.043105,11.32322 32.158766,21.979434 L 37.068811,17.246167 C 37.068811,17.246167 37.088388,32 37.088388,32 L 22.160133,31.978069 C 22.160133,31.978069 26.997745,27.140456 26.997745,27.140456 C 18.528582,18.264221 13.291696,25.230495 11.500037,31.436501 z"
             style="fill:#404040;"/>
          </a>
         </g>
        </svg>
</svg>
