<?xml version="1.0" encoding="UTF-8" standalone="no"?>
<!DOCTYPE svg PUBLIC "-//W3C//DTD SVG 1.1//EN"
 "http://www.w3.org/Graphics/SVG/1.1/DTD/svg11.dtd">
<!-- Generated by graphviz version 2.43.0 (0)
 -->
<!-- Title: Optimizer Pages: 1 -->
<svg width="458pt" height="445pt"
 viewBox="0.00 0.00 457.50 445.00" xmlns="http://www.w3.org/2000/svg" xmlns:xlink="http://www.w3.org/1999/xlink">
<g id="graph0" class="graph" transform="scale(1 1) rotate(0) translate(4 441)">
<title>Optimizer</title>
<polygon fill="white" stroke="transparent" points="-4,4 -4,-441 453.5,-441 453.5,4 -4,4"/>
<!-- Node1 -->
<g id="node1" class="node">
<title>Node1</title>
<g id="a_node1"><a xlink:title=" ">
<polygon fill="#bfbfbf" stroke="black" points="152,-0.5 152,-19.5 217,-19.5 217,-0.5 152,-0.5"/>
<text text-anchor="middle" x="184.5" y="-7.5" font-family="Helvetica,sans-Serif" font-size="10.00">Optimizer</text>
</a>
</g>
</g>
<!-- Node2 -->
<g id="node2" class="node">
<title>Node2</title>
<g id="a_node2"><a xlink:href="classControlFlowGraph.html" target="_top" xlink:title=" ">
<polygon fill="white" stroke="black" points="132.5,-68.5 132.5,-87.5 236.5,-87.5 236.5,-68.5 132.5,-68.5"/>
<text text-anchor="middle" x="184.5" y="-75.5" font-family="Helvetica,sans-Serif" font-size="10.00">ControlFlowGraph</text>
</a>
</g>
</g>
<!-- Node2&#45;&gt;Node1 -->
<g id="edge1" class="edge">
<title>Node2&#45;&gt;Node1</title>
<path fill="none" stroke="#9a32cd" stroke-dasharray="5,2" d="M184.5,-58.04C184.5,-45.47 184.5,-29.56 184.5,-19.84"/>
<polygon fill="#9a32cd" stroke="#9a32cd" points="181,-58.37 184.5,-68.37 188,-58.37 181,-58.37"/>
<text text-anchor="middle" x="196.5" y="-41" font-family="Helvetica,sans-Serif" font-size="10.00"> CFG</text>
</g>
<!-- Node3 -->
<g id="node3" class="node">
<title>Node3</title>
<g id="a_node3"><a xlink:title=" ">
<polygon fill="white" stroke="#bfbfbf" points="114.5,-136.5 114.5,-155.5 254.5,-155.5 254.5,-136.5 114.5,-136.5"/>
<text text-anchor="middle" x="184.5" y="-143.5" font-family="Helvetica,sans-Serif" font-size="10.00">std::vector&lt; flowTree * &gt;</text>
</a>
</g>
</g>
<!-- Node3&#45;&gt;Node2 -->
<g id="edge2" class="edge">
<title>Node3&#45;&gt;Node2</title>
<path fill="none" stroke="#9a32cd" stroke-dasharray="5,2" d="M184.5,-126.04C184.5,-113.47 184.5,-97.56 184.5,-87.84"/>
<polygon fill="#9a32cd" stroke="#9a32cd" points="181,-126.37 184.5,-136.37 188,-126.37 181,-126.37"/>
<text text-anchor="middle" x="197" y="-110" font-family="Helvetica,sans-Serif" font-size="10.00"> tails</text>
</g>
<!-- Node4 -->
<g id="node4" class="node">
<title>Node4</title>
<g id="a_node4"><a xlink:href="structflowTree.html" target="_top" xlink:title=" ">
<polygon fill="white" stroke="black" points="97.5,-209 97.5,-228 155.5,-228 155.5,-209 97.5,-209"/>
<text text-anchor="middle" x="126.5" y="-216" font-family="Helvetica,sans-Serif" font-size="10.00">flowTree</text>
</a>
</g>
</g>
<!-- Node4&#45;&gt;Node2 -->
<g id="edge8" class="edge">
<title>Node4&#45;&gt;Node2</title>
<path fill="none" stroke="#9a32cd" stroke-dasharray="5,2" d="M111.45,-200.73C98.22,-183.85 82.77,-157.32 94.5,-136 107.97,-111.53 136.86,-96.1 158.29,-87.55"/>
<polygon fill="#9a32cd" stroke="#9a32cd" points="108.92,-203.16 118.01,-208.6 114.3,-198.68 108.92,-203.16"/>
<text text-anchor="middle" x="100" y="-143.5" font-family="Helvetica,sans-Serif" font-size="10.00"> ft</text>
</g>
<!-- Node4&#45;&gt;Node3 -->
<g id="edge3" class="edge">
<title>Node4&#45;&gt;Node3</title>
<path fill="none" stroke="#9a32cd" stroke-dasharray="5,2" d="M140.16,-200.9C151.8,-186.74 168.08,-166.96 177.33,-155.72"/>
<polygon fill="#9a32cd" stroke="#9a32cd" points="137.26,-198.91 133.61,-208.86 142.67,-203.36 137.26,-198.91"/>
<text text-anchor="middle" x="186" y="-177" font-family="Helvetica,sans-Serif" font-size="10.00"> elements</text>
</g>
<!-- Node5 -->
<g id="node5" class="node">
<title>Node5</title>
<g id="a_node5"><a xlink:title=" ">
<polygon fill="white" stroke="#bfbfbf" points="63,-292.5 63,-322.5 190,-322.5 190,-292.5 63,-292.5"/>
<text text-anchor="start" x="71" y="-310.5" font-family="Helvetica,sans-Serif" font-size="10.00">std::vector&lt; std::pair</text>
<text text-anchor="middle" x="126.5" y="-299.5" font-family="Helvetica,sans-Serif" font-size="10.00">&lt; flowTree *, char &gt; &gt;</text>
</a>
</g>
</g>
<!-- Node5&#45;&gt;Node4 -->
<g id="edge4" class="edge">
<title>Node5&#45;&gt;Node4</title>
<path fill="none" stroke="#9a32cd" stroke-dasharray="5,2" d="M126.5,-282.06C126.5,-264.13 126.5,-240.8 126.5,-228.31"/>
<polygon fill="#9a32cd" stroke="#9a32cd" points="123,-282.13 126.5,-292.13 130,-282.13 123,-282.13"/>
<text text-anchor="middle" x="139" y="-266" font-family="Helvetica,sans-Serif" font-size="10.00"> next</text>
<text text-anchor="middle" x="139" y="-255" font-family="Helvetica,sans-Serif" font-size="10.00">prev</text>
</g>
<!-- Node6 -->
<g id="node6" class="node">
<title>Node6</title>
<g id="a_node6"><a xlink:href="classPOLIZ.html" target="_top" xlink:title=" ">
<polygon fill="white" stroke="black" points="0,-298 0,-317 45,-317 45,-298 0,-298"/>
<text text-anchor="middle" x="22.5" y="-305" font-family="Helvetica,sans-Serif" font-size="10.00">POLIZ</text>
</a>
</g>
</g>
<!-- Node6&#45;&gt;Node1 -->
<g id="edge14" class="edge">
<title>Node6&#45;&gt;Node1</title>
<path fill="none" stroke="#9a32cd" stroke-dasharray="5,2" d="M22.5,-287.78C22.5,-270.17 22.5,-243.04 22.5,-219.5 22.5,-219.5 22.5,-219.5 22.5,-77 22.5,-21.73 104.38,-11.69 151.72,-10.5"/>
<polygon fill="#9a32cd" stroke="#9a32cd" points="19,-287.86 22.5,-297.86 26,-287.86 19,-287.86"/>
<text text-anchor="middle" x="36" y="-143.5" font-family="Helvetica,sans-Serif" font-size="10.00"> poliz</text>
</g>
<!-- Node6&#45;&gt;Node4 -->
<g id="edge5" class="edge">
<title>Node6&#45;&gt;Node4</title>
<path fill="none" stroke="#9a32cd" stroke-dasharray="5,2" d="M40.76,-291.23C62.66,-272.91 98.62,-242.82 116.19,-228.12"/>
<polygon fill="#9a32cd" stroke="#9a32cd" points="38.28,-288.74 32.85,-297.84 42.77,-294.11 38.28,-288.74"/>
<text text-anchor="middle" x="102.5" y="-260.5" font-family="Helvetica,sans-Serif" font-size="10.00"> block</text>
</g>
<!-- Node7 -->
<g id="node7" class="node">
<title>Node7</title>
<g id="a_node7"><a xlink:title=" ">
<polygon fill="white" stroke="#bfbfbf" points="208.5,-298 208.5,-317 312.5,-317 312.5,-298 208.5,-298"/>
<text text-anchor="middle" x="260.5" y="-305" font-family="Helvetica,sans-Serif" font-size="10.00">std::vector&lt; int &gt;</text>
</a>
</g>
</g>
<!-- Node7&#45;&gt;Node2 -->
<g id="edge7" class="edge">
<title>Node7&#45;&gt;Node2</title>
<path fill="none" stroke="#9a32cd" stroke-dasharray="5,2" d="M266.28,-287.68C275.24,-254.82 288.95,-185.75 263.5,-136 251.48,-112.51 224.78,-96.48 205.75,-87.55"/>
<polygon fill="#9a32cd" stroke="#9a32cd" points="262.8,-287.12 263.38,-297.7 269.52,-289.07 262.8,-287.12"/>
<text text-anchor="middle" x="296.5" y="-177" font-family="Helvetica,sans-Serif" font-size="10.00"> drawed</text>
</g>
<!-- Node7&#45;&gt;Node4 -->
<g id="edge6" class="edge">
<title>Node7&#45;&gt;Node4</title>
<path fill="none" stroke="#9a32cd" stroke-dasharray="5,2" d="M238.46,-292.19C210.41,-273.98 162.82,-243.08 139.78,-228.12"/>
<polygon fill="#9a32cd" stroke="#9a32cd" points="236.87,-295.33 247.16,-297.84 240.68,-289.46 236.87,-295.33"/>
<text text-anchor="middle" x="230" y="-260.5" font-family="Helvetica,sans-Serif" font-size="10.00"> checked</text>
</g>
<!-- Node8 -->
<g id="node8" class="node">
<title>Node8</title>
<g id="a_node8"><a xlink:title=" ">
<polygon fill="white" stroke="#bfbfbf" points="322.5,-136.5 322.5,-155.5 404.5,-155.5 404.5,-136.5 322.5,-136.5"/>
<text text-anchor="middle" x="363.5" y="-143.5" font-family="Helvetica,sans-Serif" font-size="10.00">std::ofstream</text>
</a>
</g>
</g>
<!-- Node8&#45;&gt;Node2 -->
<g id="edge9" class="edge">
<title>Node8&#45;&gt;Node2</title>
<path fill="none" stroke="#9a32cd" stroke-dasharray="5,2" d="M342.14,-130.91C329.34,-122.97 312.49,-113.39 296.5,-107 275.38,-98.55 250.97,-92.09 230.34,-87.52"/>
<polygon fill="#9a32cd" stroke="#9a32cd" points="340.36,-133.92 350.68,-136.33 344.12,-128.01 340.36,-133.92"/>
<text text-anchor="middle" x="334" y="-110" font-family="Helvetica,sans-Serif" font-size="10.00"> graph</text>
</g>
<!-- Node9 -->
<g id="node9" class="node">
<title>Node9</title>
<g id="a_node9"><a xlink:title=" ">
<polygon fill="white" stroke="#bfbfbf" points="320,-203.5 320,-233.5 433,-233.5 433,-203.5 320,-203.5"/>
<text text-anchor="start" x="328" y="-221.5" font-family="Helvetica,sans-Serif" font-size="10.00">std::basic_ofstream</text>
<text text-anchor="middle" x="376.5" y="-210.5" font-family="Helvetica,sans-Serif" font-size="10.00">&lt; Char &gt;</text>
</a>
</g>
</g>
<!-- Node9&#45;&gt;Node8 -->
<g id="edge10" class="edge">
<title>Node9&#45;&gt;Node8</title>
<path fill="none" stroke="midnightblue" d="M372,-193.09C369.62,-180.21 366.86,-165.2 365.14,-155.89"/>
<polygon fill="midnightblue" stroke="midnightblue" points="368.61,-194.03 373.87,-203.23 375.5,-192.76 368.61,-194.03"/>
</g>
<!-- Node10 -->
<g id="node10" class="node">
<title>Node10</title>
<g id="a_node10"><a xlink:title=" ">
<polygon fill="white" stroke="#bfbfbf" points="331,-292.5 331,-322.5 440,-322.5 440,-292.5 331,-292.5"/>
<text text-anchor="start" x="339" y="-310.5" font-family="Helvetica,sans-Serif" font-size="10.00">std::basic_ostream</text>
<text text-anchor="middle" x="385.5" y="-299.5" font-family="Helvetica,sans-Serif" font-size="10.00">&lt; Char &gt;</text>
</a>
</g>
</g>
<!-- Node10&#45;&gt;Node9 -->
<g id="edge11" class="edge">
<title>Node10&#45;&gt;Node9</title>
<path fill="none" stroke="midnightblue" d="M382.97,-282.09C381.36,-266.44 379.31,-246.68 377.96,-233.6"/>
<polygon fill="midnightblue" stroke="midnightblue" points="379.5,-282.55 384.01,-292.13 386.47,-281.83 379.5,-282.55"/>
</g>
<!-- Node11 -->
<g id="node11" class="node">
<title>Node11</title>
<g id="a_node11"><a xlink:title=" ">
<polygon fill="white" stroke="#bfbfbf" points="321.5,-360.5 321.5,-379.5 449.5,-379.5 449.5,-360.5 321.5,-360.5"/>
<text text-anchor="middle" x="385.5" y="-367.5" font-family="Helvetica,sans-Serif" font-size="10.00">std::basic_ios&lt; Char &gt;</text>
</a>
</g>
</g>
<!-- Node11&#45;&gt;Node10 -->
<g id="edge12" class="edge">
<title>Node11&#45;&gt;Node10</title>
<path fill="none" stroke="midnightblue" d="M385.5,-350.22C385.5,-341.36 385.5,-330.96 385.5,-322.76"/>
<polygon fill="midnightblue" stroke="midnightblue" points="382,-350.33 385.5,-360.33 389,-350.33 382,-350.33"/>
</g>
<!-- Node12 -->
<g id="node12" class="node">
<title>Node12</title>
<g id="a_node12"><a xlink:title=" ">
<polygon fill="white" stroke="#bfbfbf" points="345.5,-417.5 345.5,-436.5 425.5,-436.5 425.5,-417.5 345.5,-417.5"/>
<text text-anchor="middle" x="385.5" y="-424.5" font-family="Helvetica,sans-Serif" font-size="10.00">std::ios_base</text>
</a>
</g>
</g>
<!-- Node12&#45;&gt;Node11 -->
<g id="edge13" class="edge">
<title>Node12&#45;&gt;Node11</title>
<path fill="none" stroke="midnightblue" d="M385.5,-407.12C385.5,-397.82 385.5,-387.06 385.5,-379.71"/>
<polygon fill="midnightblue" stroke="midnightblue" points="382,-407.41 385.5,-417.41 389,-407.41 382,-407.41"/>
</g>
<!-- Node13 -->
<g id="node13" class="node">
<title>Node13</title>
<g id="a_node13"><a xlink:href="classIdentTable.html" target="_top" xlink:title=" ">
<polygon fill="white" stroke="black" points="255,-68.5 255,-87.5 322,-87.5 322,-68.5 255,-68.5"/>
<text text-anchor="middle" x="288.5" y="-75.5" font-family="Helvetica,sans-Serif" font-size="10.00">IdentTable</text>
</a>
</g>
</g>
<!-- Node13&#45;&gt;Node1 -->
<g id="edge15" class="edge">
<title>Node13&#45;&gt;Node1</title>
<path fill="none" stroke="#9a32cd" stroke-dasharray="5,2" d="M266.42,-62.99C245.73,-49.86 215.46,-30.65 198.1,-19.63"/>
<polygon fill="#9a32cd" stroke="#9a32cd" points="264.59,-65.97 274.9,-68.37 268.34,-60.06 264.59,-65.97"/>
<text text-anchor="middle" x="261.5" y="-41" font-family="Helvetica,sans-Serif" font-size="10.00"> IdTable</text>
</g>
<!-- Node13&#45;&gt;Node13 -->
<g id="edge16" class="edge">
<title>Node13&#45;&gt;Node13</title>
<path fill="none" stroke="#9a32cd" stroke-dasharray="5,2" d="M332.22,-83.33C336.95,-82.31 340,-80.53 340,-78 340,-73.95 332.2,-71.83 322.18,-71.64"/>
<polygon fill="#9a32cd" stroke="#9a32cd" points="331.77,-79.86 322.18,-84.36 332.49,-86.82 331.77,-79.86"/>
<text text-anchor="middle" x="367" y="-81" font-family="Helvetica,sans-Serif" font-size="10.00"> mainTable</text>
<text text-anchor="middle" x="367" y="-70" font-family="Helvetica,sans-Serif" font-size="10.00">next</text>
</g>
</g>
</svg>
