<?xml version="1.0" encoding="UTF-8" standalone="no"?>
<!DOCTYPE svg PUBLIC "-//W3C//DTD SVG 1.1//EN"
 "http://www.w3.org/Graphics/SVG/1.1/DTD/svg11.dtd">
<!-- Generated by graphviz version 2.43.0 (0)
 -->
<!-- Title: ControlFlowGraph Pages: 1 -->
<svg width="457pt" height="376pt"
 viewBox="0.00 0.00 457.00 376.00" xmlns="http://www.w3.org/2000/svg" xmlns:xlink="http://www.w3.org/1999/xlink">
<g id="graph0" class="graph" transform="scale(1 1) rotate(0) translate(4 372)">
<title>ControlFlowGraph</title>
<polygon fill="white" stroke="transparent" points="-4,4 -4,-372 453,-372 453,4 -4,4"/>
<!-- Node1 -->
<g id="node1" class="node">
<title>Node1</title>
<g id="a_node1"><a xlink:title=" ">
<polygon fill="#bfbfbf" stroke="black" points="217,-0.5 217,-19.5 321,-19.5 321,-0.5 217,-0.5"/>
<text text-anchor="middle" x="269" y="-7.5" font-family="Helvetica,sans-Serif" font-size="10.00">ControlFlowGraph</text>
</a>
</g>
</g>
<!-- Node2 -->
<g id="node2" class="node">
<title>Node2</title>
<g id="a_node2"><a xlink:title=" ">
<polygon fill="white" stroke="#bfbfbf" points="126,-67.5 126,-86.5 266,-86.5 266,-67.5 126,-67.5"/>
<text text-anchor="middle" x="196" y="-74.5" font-family="Helvetica,sans-Serif" font-size="10.00">std::vector&lt; flowTree * &gt;</text>
</a>
</g>
</g>
<!-- Node2&#45;&gt;Node1 -->
<g id="edge1" class="edge">
<title>Node2&#45;&gt;Node1</title>
<path fill="none" stroke="#9a32cd" stroke-dasharray="5,2" d="M213.57,-60.36C227.92,-47.58 247.67,-29.99 259.31,-19.63"/>
<polygon fill="#9a32cd" stroke="#9a32cd" points="210.99,-57.97 205.85,-67.23 215.64,-63.2 210.99,-57.97"/>
<text text-anchor="middle" x="249.5" y="-41" font-family="Helvetica,sans-Serif" font-size="10.00"> tails</text>
</g>
<!-- Node3 -->
<g id="node3" class="node">
<title>Node3</title>
<g id="a_node3"><a xlink:href="structflowTree.html" target="_top" xlink:title=" ">
<polygon fill="white" stroke="black" points="138.5,-140 138.5,-159 195.5,-159 195.5,-140 138.5,-140"/>
<text text-anchor="middle" x="167" y="-147" font-family="Helvetica,sans-Serif" font-size="10.00">flowTree</text>
</a>
</g>
</g>
<!-- Node3&#45;&gt;Node1 -->
<g id="edge7" class="edge">
<title>Node3&#45;&gt;Node1</title>
<path fill="none" stroke="#9a32cd" stroke-dasharray="5,2" d="M143.99,-134.38C120.59,-118.2 90.01,-90.86 107,-67 131.78,-32.22 179.68,-18.84 217,-13.79"/>
<polygon fill="#9a32cd" stroke="#9a32cd" points="142.22,-137.4 152.49,-140 146.08,-131.56 142.22,-137.4"/>
<text text-anchor="middle" x="112" y="-74.5" font-family="Helvetica,sans-Serif" font-size="10.00"> ft</text>
</g>
<!-- Node3&#45;&gt;Node2 -->
<g id="edge2" class="edge">
<title>Node3&#45;&gt;Node2</title>
<path fill="none" stroke="#9a32cd" stroke-dasharray="5,2" d="M174.5,-130.27C180.26,-116.26 187.97,-97.53 192.41,-86.72"/>
<polygon fill="#9a32cd" stroke="#9a32cd" points="171.12,-129.28 170.56,-139.86 177.6,-131.94 171.12,-129.28"/>
<text text-anchor="middle" x="209.5" y="-108" font-family="Helvetica,sans-Serif" font-size="10.00"> elements</text>
</g>
<!-- Node4 -->
<g id="node4" class="node">
<title>Node4</title>
<g id="a_node4"><a xlink:title=" ">
<polygon fill="white" stroke="#bfbfbf" points="0,-223.5 0,-253.5 126,-253.5 126,-223.5 0,-223.5"/>
<text text-anchor="start" x="8" y="-241.5" font-family="Helvetica,sans-Serif" font-size="10.00">std::vector&lt; std::pair</text>
<text text-anchor="middle" x="63" y="-230.5" font-family="Helvetica,sans-Serif" font-size="10.00">&lt; flowTree *, char &gt; &gt;</text>
</a>
</g>
</g>
<!-- Node4&#45;&gt;Node3 -->
<g id="edge3" class="edge">
<title>Node4&#45;&gt;Node3</title>
<path fill="none" stroke="#9a32cd" stroke-dasharray="5,2" d="M88.12,-216.49C110.1,-198.1 140.93,-172.3 156.75,-159.07"/>
<polygon fill="#9a32cd" stroke="#9a32cd" points="85.6,-214.03 80.17,-223.13 90.09,-219.4 85.6,-214.03"/>
<text text-anchor="middle" x="140.5" y="-197" font-family="Helvetica,sans-Serif" font-size="10.00"> prev</text>
<text text-anchor="middle" x="140.5" y="-186" font-family="Helvetica,sans-Serif" font-size="10.00">next</text>
</g>
<!-- Node5 -->
<g id="node5" class="node">
<title>Node5</title>
<g id="a_node5"><a xlink:href="classPOLIZ.html" target="_top" xlink:title=" ">
<polygon fill="white" stroke="black" points="144.5,-229 144.5,-248 189.5,-248 189.5,-229 144.5,-229"/>
<text text-anchor="middle" x="167" y="-236" font-family="Helvetica,sans-Serif" font-size="10.00">POLIZ</text>
</a>
</g>
</g>
<!-- Node5&#45;&gt;Node3 -->
<g id="edge4" class="edge">
<title>Node5&#45;&gt;Node3</title>
<path fill="none" stroke="#9a32cd" stroke-dasharray="5,2" d="M167,-218.69C167,-200.24 167,-172.91 167,-159.12"/>
<polygon fill="#9a32cd" stroke="#9a32cd" points="163.5,-218.84 167,-228.84 170.5,-218.84 163.5,-218.84"/>
<text text-anchor="middle" x="182" y="-191.5" font-family="Helvetica,sans-Serif" font-size="10.00"> block</text>
</g>
<!-- Node6 -->
<g id="node6" class="node">
<title>Node6</title>
<g id="a_node6"><a xlink:title=" ">
<polygon fill="white" stroke="#bfbfbf" points="208,-229 208,-248 312,-248 312,-229 208,-229"/>
<text text-anchor="middle" x="260" y="-236" font-family="Helvetica,sans-Serif" font-size="10.00">std::vector&lt; int &gt;</text>
</a>
</g>
</g>
<!-- Node6&#45;&gt;Node1 -->
<g id="edge6" class="edge">
<title>Node6&#45;&gt;Node1</title>
<path fill="none" stroke="#9a32cd" stroke-dasharray="5,2" d="M267.8,-219.6C269.5,-214.93 271.07,-209.85 272,-205 283.56,-144.75 278.27,-128.26 275,-67 274.1,-50.21 271.7,-30.7 270.22,-19.71"/>
<polygon fill="#9a32cd" stroke="#9a32cd" points="264.55,-218.31 264.06,-228.9 271.04,-220.92 264.55,-218.31"/>
<text text-anchor="middle" x="298" y="-108" font-family="Helvetica,sans-Serif" font-size="10.00"> drawed</text>
</g>
<!-- Node6&#45;&gt;Node3 -->
<g id="edge5" class="edge">
<title>Node6&#45;&gt;Node3</title>
<path fill="none" stroke="#9a32cd" stroke-dasharray="5,2" d="M243.41,-221.98C223.8,-203.64 191.86,-173.76 176.22,-159.12"/>
<polygon fill="#9a32cd" stroke="#9a32cd" points="241.05,-224.56 250.74,-228.84 245.83,-219.45 241.05,-224.56"/>
<text text-anchor="middle" x="246.5" y="-191.5" font-family="Helvetica,sans-Serif" font-size="10.00"> checked</text>
</g>
<!-- Node7 -->
<g id="node7" class="node">
<title>Node7</title>
<g id="a_node7"><a xlink:title="STL class.">
<polygon fill="white" stroke="#bfbfbf" points="327,-67.5 327,-86.5 409,-86.5 409,-67.5 327,-67.5"/>
<text text-anchor="middle" x="368" y="-74.5" font-family="Helvetica,sans-Serif" font-size="10.00">std::ofstream</text>
</a>
</g>
</g>
<!-- Node7&#45;&gt;Node1 -->
<g id="edge8" class="edge">
<title>Node7&#45;&gt;Node1</title>
<path fill="none" stroke="#9a32cd" stroke-dasharray="5,2" d="M346.06,-61.59C326.47,-48.74 298.44,-30.33 282.14,-19.63"/>
<polygon fill="#9a32cd" stroke="#9a32cd" points="344.37,-64.67 354.65,-67.23 348.21,-58.82 344.37,-64.67"/>
<text text-anchor="middle" x="339.5" y="-41" font-family="Helvetica,sans-Serif" font-size="10.00"> graph</text>
</g>
<!-- Node8 -->
<g id="node8" class="node">
<title>Node8</title>
<g id="a_node8"><a xlink:title="STL class.">
<polygon fill="white" stroke="#bfbfbf" points="325.5,-134.5 325.5,-164.5 438.5,-164.5 438.5,-134.5 325.5,-134.5"/>
<text text-anchor="start" x="333.5" y="-152.5" font-family="Helvetica,sans-Serif" font-size="10.00">std::basic_ofstream</text>
<text text-anchor="middle" x="382" y="-141.5" font-family="Helvetica,sans-Serif" font-size="10.00">&lt; char &gt;</text>
</a>
</g>
</g>
<!-- Node8&#45;&gt;Node7 -->
<g id="edge9" class="edge">
<title>Node8&#45;&gt;Node7</title>
<path fill="none" stroke="midnightblue" d="M377.15,-124.09C374.6,-111.21 371.61,-96.2 369.77,-86.89"/>
<polygon fill="midnightblue" stroke="midnightblue" points="373.79,-125.11 379.17,-134.23 380.65,-123.74 373.79,-125.11"/>
</g>
<!-- Node9 -->
<g id="node9" class="node">
<title>Node9</title>
<g id="a_node9"><a xlink:title="STL class.">
<polygon fill="white" stroke="#bfbfbf" points="330.5,-223.5 330.5,-253.5 439.5,-253.5 439.5,-223.5 330.5,-223.5"/>
<text text-anchor="start" x="338.5" y="-241.5" font-family="Helvetica,sans-Serif" font-size="10.00">std::basic_ostream</text>
<text text-anchor="middle" x="385" y="-230.5" font-family="Helvetica,sans-Serif" font-size="10.00">&lt; Char &gt;</text>
</a>
</g>
</g>
<!-- Node9&#45;&gt;Node8 -->
<g id="edge10" class="edge">
<title>Node9&#45;&gt;Node8</title>
<path fill="none" stroke="midnightblue" d="M384.16,-213.09C383.62,-197.44 382.94,-177.68 382.49,-164.6"/>
<polygon fill="midnightblue" stroke="midnightblue" points="380.66,-213.26 384.5,-223.13 387.66,-213.02 380.66,-213.26"/>
</g>
<!-- Node10 -->
<g id="node10" class="node">
<title>Node10</title>
<g id="a_node10"><a xlink:title="STL class.">
<polygon fill="white" stroke="#bfbfbf" points="321,-291.5 321,-310.5 449,-310.5 449,-291.5 321,-291.5"/>
<text text-anchor="middle" x="385" y="-298.5" font-family="Helvetica,sans-Serif" font-size="10.00">std::basic_ios&lt; Char &gt;</text>
</a>
</g>
</g>
<!-- Node10&#45;&gt;Node9 -->
<g id="edge11" class="edge">
<title>Node10&#45;&gt;Node9</title>
<path fill="none" stroke="midnightblue" d="M385,-281.22C385,-272.36 385,-261.96 385,-253.76"/>
<polygon fill="midnightblue" stroke="midnightblue" points="381.5,-281.33 385,-291.33 388.5,-281.33 381.5,-281.33"/>
</g>
<!-- Node11 -->
<g id="node11" class="node">
<title>Node11</title>
<g id="a_node11"><a xlink:title="STL class.">
<polygon fill="white" stroke="#bfbfbf" points="345,-348.5 345,-367.5 425,-367.5 425,-348.5 345,-348.5"/>
<text text-anchor="middle" x="385" y="-355.5" font-family="Helvetica,sans-Serif" font-size="10.00">std::ios_base</text>
</a>
</g>
</g>
<!-- Node11&#45;&gt;Node10 -->
<g id="edge12" class="edge">
<title>Node11&#45;&gt;Node10</title>
<path fill="none" stroke="midnightblue" d="M385,-338.12C385,-328.82 385,-318.06 385,-310.71"/>
<polygon fill="midnightblue" stroke="midnightblue" points="381.5,-338.41 385,-348.41 388.5,-338.41 381.5,-338.41"/>
</g>
</g>
</svg>
