<?xml version="1.0" encoding="UTF-8" standalone="no"?>
<!DOCTYPE svg PUBLIC "-//W3C//DTD SVG 1.1//EN"
 "http://www.w3.org/Graphics/SVG/1.1/DTD/svg11.dtd">
<!-- Generated by graphviz version 2.43.0 (0)
 -->
<!-- Title: StructTable Pages: 1 -->
<svg width="146pt" height="97pt"
 viewBox="0.00 0.00 146.00 97.00" xmlns="http://www.w3.org/2000/svg" xmlns:xlink="http://www.w3.org/1999/xlink">
<g id="graph0" class="graph" transform="scale(1 1) rotate(0) translate(4 93)">
<title>StructTable</title>
<polygon fill="white" stroke="transparent" points="-4,4 -4,-93 142,-93 142,4 -4,4"/>
<!-- Node1 -->
<g id="node1" class="node">
<title>Node1</title>
<g id="a_node1"><a xlink:title=" ">
<polygon fill="#bfbfbf" stroke="black" points="0,-0.5 0,-19.5 71,-19.5 71,-0.5 0,-0.5"/>
<text text-anchor="middle" x="35.5" y="-7.5" font-family="Helvetica,sans-Serif" font-size="10.00">StructTable</text>
</a>
</g>
</g>
<!-- Node1&#45;&gt;Node1 -->
<g id="edge1" class="edge">
<title>Node1&#45;&gt;Node1</title>
<path fill="none" stroke="#9a32cd" stroke-dasharray="5,2" d="M81.28,-14.95C85.99,-13.97 89,-12.32 89,-10 89,-6.28 81.29,-4.29 71.25,-4.03"/>
<polygon fill="#9a32cd" stroke="#9a32cd" points="80.85,-11.47 71.25,-15.97 81.56,-18.44 80.85,-11.47"/>
<text text-anchor="middle" x="101.5" y="-7.5" font-family="Helvetica,sans-Serif" font-size="10.00"> next</text>
</g>
<!-- Node2 -->
<g id="node2" class="node">
<title>Node2</title>
<g id="a_node2"><a xlink:href="classIdentTable.html" target="_top" xlink:title=" ">
<polygon fill="white" stroke="black" points="2,-68.5 2,-87.5 69,-87.5 69,-68.5 2,-68.5"/>
<text text-anchor="middle" x="35.5" y="-75.5" font-family="Helvetica,sans-Serif" font-size="10.00">IdentTable</text>
</a>
</g>
</g>
<!-- Node2&#45;&gt;Node1 -->
<g id="edge2" class="edge">
<title>Node2&#45;&gt;Node1</title>
<path fill="none" stroke="#9a32cd" stroke-dasharray="5,2" d="M35.5,-58.04C35.5,-45.47 35.5,-29.56 35.5,-19.84"/>
<polygon fill="#9a32cd" stroke="#9a32cd" points="32,-58.37 35.5,-68.37 39,-58.37 32,-58.37"/>
<text text-anchor="middle" x="50.5" y="-41" font-family="Helvetica,sans-Serif" font-size="10.00"> fields</text>
</g>
<!-- Node2&#45;&gt;Node2 -->
<g id="edge3" class="edge">
<title>Node2&#45;&gt;Node2</title>
<path fill="none" stroke="#9a32cd" stroke-dasharray="5,2" d="M79.22,-83.33C83.95,-82.31 87,-80.53 87,-78 87,-73.95 79.2,-71.83 69.18,-71.64"/>
<polygon fill="#9a32cd" stroke="#9a32cd" points="78.77,-79.86 69.18,-84.36 79.49,-86.82 78.77,-79.86"/>
<text text-anchor="middle" x="112.5" y="-81" font-family="Helvetica,sans-Serif" font-size="10.00"> next</text>
<text text-anchor="middle" x="112.5" y="-70" font-family="Helvetica,sans-Serif" font-size="10.00">mainTable</text>
</g>
</g>
</svg>
