<?xml version="1.0" encoding="UTF-8" standalone="no"?>
<!DOCTYPE svg PUBLIC "-//W3C//DTD SVG 1.1//EN"
 "http://www.w3.org/Graphics/SVG/1.1/DTD/svg11.dtd">
<!-- Generated by graphviz version 2.43.0 (0)
 -->
<!-- Title: src/config.hpp Pages: 1 -->
<svg width="709pt" height="252pt"
 viewBox="0.00 0.00 709.00 252.00" xmlns="http://www.w3.org/2000/svg" xmlns:xlink="http://www.w3.org/1999/xlink">
<g id="graph0" class="graph" transform="scale(1 1) rotate(0) translate(4 248)">
<title>src/config.hpp</title>
<polygon fill="white" stroke="transparent" points="-4,4 -4,-248 705,-248 705,4 -4,4"/>
<!-- Node1 -->
<g id="node1" class="node">
<title>Node1</title>
<g id="a_node1"><a xlink:title=" ">
<polygon fill="#bfbfbf" stroke="black" points="462,-224.5 462,-243.5 546,-243.5 546,-224.5 462,-224.5"/>
<text text-anchor="middle" x="504" y="-231.5" font-family="Helvetica,sans-Serif" font-size="10.00">src/config.hpp</text>
</a>
</g>
</g>
<!-- Node2 -->
<g id="node2" class="node">
<title>Node2</title>
<g id="a_node2"><a xlink:href="stack_8hpp.html" target="_top" xlink:title=" ">
<polygon fill="white" stroke="black" points="332.5,-168.5 332.5,-187.5 459.5,-187.5 459.5,-168.5 332.5,-168.5"/>
<text text-anchor="middle" x="396" y="-175.5" font-family="Helvetica,sans-Serif" font-size="10.00">src/common/stack.hpp</text>
</a>
</g>
</g>
<!-- Node1&#45;&gt;Node2 -->
<g id="edge1" class="edge">
<title>Node1&#45;&gt;Node2</title>
<path fill="none" stroke="midnightblue" d="M477.45,-219.73C457.45,-209.73 430.61,-196.31 413.31,-187.65"/>
<polygon fill="midnightblue" stroke="midnightblue" points="476.14,-222.98 486.65,-224.32 479.27,-216.72 476.14,-222.98"/>
</g>
<!-- Node4 -->
<g id="node4" class="node">
<title>Node4</title>
<g id="a_node4"><a xlink:href="parser_8hpp.html" target="_top" xlink:title=" ">
<polygon fill="white" stroke="black" points="454.5,-112.5 454.5,-131.5 585.5,-131.5 585.5,-112.5 454.5,-112.5"/>
<text text-anchor="middle" x="520" y="-119.5" font-family="Helvetica,sans-Serif" font-size="10.00">src/compiler/parser.hpp</text>
</a>
</g>
</g>
<!-- Node1&#45;&gt;Node4 -->
<g id="edge13" class="edge">
<title>Node1&#45;&gt;Node4</title>
<path fill="none" stroke="midnightblue" d="M506.71,-214.35C510.22,-190.25 516.17,-149.31 518.75,-131.59"/>
<polygon fill="midnightblue" stroke="midnightblue" points="503.23,-213.97 505.26,-224.37 510.16,-214.98 503.23,-213.97"/>
</g>
<!-- Node13 -->
<g id="node13" class="node">
<title>Node13</title>
<g id="a_node13"><a xlink:href="tables_8cpp.html" target="_top" xlink:title=" ">
<polygon fill="white" stroke="black" points="532,-168.5 532,-187.5 662,-187.5 662,-168.5 532,-168.5"/>
<text text-anchor="middle" x="597" y="-175.5" font-family="Helvetica,sans-Serif" font-size="10.00">src/common/tables.cpp</text>
</a>
</g>
</g>
<!-- Node1&#45;&gt;Node13 -->
<g id="edge12" class="edge">
<title>Node1&#45;&gt;Node13</title>
<path fill="none" stroke="midnightblue" d="M527.81,-219.18C544.92,-209.24 567.47,-196.15 582.1,-187.65"/>
<polygon fill="midnightblue" stroke="midnightblue" points="525.83,-216.28 518.94,-224.32 529.35,-222.33 525.83,-216.28"/>
</g>
<!-- Node3 -->
<g id="node3" class="node">
<title>Node3</title>
<g id="a_node3"><a xlink:href="stack_8cpp.html" target="_top" xlink:title=" ">
<polygon fill="white" stroke="black" points="148,-112.5 148,-131.5 274,-131.5 274,-112.5 148,-112.5"/>
<text text-anchor="middle" x="211" y="-119.5" font-family="Helvetica,sans-Serif" font-size="10.00">src/common/stack.cpp</text>
</a>
</g>
</g>
<!-- Node2&#45;&gt;Node3 -->
<g id="edge2" class="edge">
<title>Node2&#45;&gt;Node3</title>
<path fill="none" stroke="midnightblue" d="M356.83,-165.57C321.93,-155.38 271.65,-140.7 240.18,-131.52"/>
<polygon fill="midnightblue" stroke="midnightblue" points="356.11,-169 366.69,-168.44 358.07,-162.28 356.11,-169"/>
</g>
<!-- Node2&#45;&gt;Node4 -->
<g id="edge3" class="edge">
<title>Node2&#45;&gt;Node4</title>
<path fill="none" stroke="midnightblue" d="M425.01,-164.37C448.23,-154.26 480.16,-140.35 500.44,-131.52"/>
<polygon fill="midnightblue" stroke="midnightblue" points="423.42,-161.24 415.65,-168.44 426.21,-167.66 423.42,-161.24"/>
</g>
<!-- Node7 -->
<g id="node7" class="node">
<title>Node7</title>
<g id="a_node7"><a xlink:href="vmachine_8hpp.html" target="_top" xlink:title=" ">
<polygon fill="white" stroke="black" points="292,-112.5 292,-131.5 436,-131.5 436,-112.5 292,-112.5"/>
<text text-anchor="middle" x="364" y="-119.5" font-family="Helvetica,sans-Serif" font-size="10.00">src/runtime/vmachine.hpp</text>
</a>
</g>
</g>
<!-- Node2&#45;&gt;Node7 -->
<g id="edge6" class="edge">
<title>Node2&#45;&gt;Node7</title>
<path fill="none" stroke="midnightblue" d="M385.5,-159.27C380.03,-150.05 373.58,-139.17 369.19,-131.75"/>
<polygon fill="midnightblue" stroke="midnightblue" points="382.61,-161.26 390.72,-168.08 388.63,-157.7 382.61,-161.26"/>
</g>
<!-- Node5 -->
<g id="node5" class="node">
<title>Node5</title>
<g id="a_node5"><a xlink:href="parser_8cpp.html" target="_top" xlink:title=" ">
<polygon fill="white" stroke="black" points="571,-56.5 571,-75.5 701,-75.5 701,-56.5 571,-56.5"/>
<text text-anchor="middle" x="636" y="-63.5" font-family="Helvetica,sans-Serif" font-size="10.00">src/compiler/parser.cpp</text>
</a>
</g>
</g>
<!-- Node4&#45;&gt;Node5 -->
<g id="edge4" class="edge">
<title>Node4&#45;&gt;Node5</title>
<path fill="none" stroke="midnightblue" d="M547.72,-108.1C569.39,-98.01 598.9,-84.27 617.71,-75.52"/>
<polygon fill="midnightblue" stroke="midnightblue" points="545.97,-105.05 538.38,-112.44 548.92,-111.4 545.97,-105.05"/>
</g>
<!-- Node6 -->
<g id="node6" class="node">
<title>Node6</title>
<g id="a_node6"><a xlink:href="flc_8cpp.html" target="_top" xlink:title=" ">
<polygon fill="white" stroke="black" points="487.5,-56.5 487.5,-75.5 552.5,-75.5 552.5,-56.5 487.5,-56.5"/>
<text text-anchor="middle" x="520" y="-63.5" font-family="Helvetica,sans-Serif" font-size="10.00">src/flc.cpp</text>
</a>
</g>
</g>
<!-- Node4&#45;&gt;Node6 -->
<g id="edge5" class="edge">
<title>Node4&#45;&gt;Node6</title>
<path fill="none" stroke="midnightblue" d="M520,-101.8C520,-92.91 520,-82.78 520,-75.75"/>
<polygon fill="midnightblue" stroke="midnightblue" points="516.5,-102.08 520,-112.08 523.5,-102.08 516.5,-102.08"/>
</g>
<!-- Node8 -->
<g id="node8" class="node">
<title>Node8</title>
<g id="a_node8"><a xlink:href="debugger_8hpp.html" target="_top" xlink:title=" ">
<polygon fill="white" stroke="black" points="64.5,-56.5 64.5,-75.5 213.5,-75.5 213.5,-56.5 64.5,-56.5"/>
<text text-anchor="middle" x="139" y="-63.5" font-family="Helvetica,sans-Serif" font-size="10.00">src/debugger/debugger.hpp</text>
</a>
</g>
</g>
<!-- Node7&#45;&gt;Node8 -->
<g id="edge7" class="edge">
<title>Node7&#45;&gt;Node8</title>
<path fill="none" stroke="midnightblue" d="M318.53,-110.09C276.03,-99.89 213.42,-84.86 174.49,-75.52"/>
<polygon fill="midnightblue" stroke="midnightblue" points="317.81,-113.51 328.35,-112.44 319.44,-106.71 317.81,-113.51"/>
</g>
<!-- Node11 -->
<g id="node11" class="node">
<title>Node11</title>
<g id="a_node11"><a xlink:href="flvm_8cpp.html" target="_top" xlink:title=" ">
<polygon fill="white" stroke="black" points="232,-56.5 232,-75.5 308,-75.5 308,-56.5 232,-56.5"/>
<text text-anchor="middle" x="270" y="-63.5" font-family="Helvetica,sans-Serif" font-size="10.00">src/flvm.cpp</text>
</a>
</g>
</g>
<!-- Node7&#45;&gt;Node11 -->
<g id="edge10" class="edge">
<title>Node7&#45;&gt;Node11</title>
<path fill="none" stroke="midnightblue" d="M339.94,-107.18C322.64,-97.24 299.85,-84.15 285.07,-75.65"/>
<polygon fill="midnightblue" stroke="midnightblue" points="338.48,-110.38 348.9,-112.32 341.97,-104.31 338.48,-110.38"/>
</g>
<!-- Node12 -->
<g id="node12" class="node">
<title>Node12</title>
<g id="a_node12"><a xlink:href="vmachine_8cpp.html" target="_top" xlink:title=" ">
<polygon fill="white" stroke="black" points="326.5,-56.5 326.5,-75.5 469.5,-75.5 469.5,-56.5 326.5,-56.5"/>
<text text-anchor="middle" x="398" y="-63.5" font-family="Helvetica,sans-Serif" font-size="10.00">src/runtime/vmachine.cpp</text>
</a>
</g>
</g>
<!-- Node7&#45;&gt;Node12 -->
<g id="edge11" class="edge">
<title>Node7&#45;&gt;Node12</title>
<path fill="none" stroke="midnightblue" d="M374.98,-103.57C380.83,-94.27 387.77,-83.25 392.49,-75.75"/>
<polygon fill="midnightblue" stroke="midnightblue" points="371.98,-101.76 369.61,-112.08 377.9,-105.49 371.98,-101.76"/>
</g>
<!-- Node9 -->
<g id="node9" class="node">
<title>Node9</title>
<g id="a_node9"><a xlink:href="debugger_8cpp.html" target="_top" xlink:title=" ">
<polygon fill="white" stroke="black" points="0,-0.5 0,-19.5 148,-19.5 148,-0.5 0,-0.5"/>
<text text-anchor="middle" x="74" y="-7.5" font-family="Helvetica,sans-Serif" font-size="10.00">src/debugger/debugger.cpp</text>
</a>
</g>
</g>
<!-- Node8&#45;&gt;Node9 -->
<g id="edge8" class="edge">
<title>Node8&#45;&gt;Node9</title>
<path fill="none" stroke="midnightblue" d="M120.73,-49.82C109.08,-40.15 94.4,-27.95 84.63,-19.83"/>
<polygon fill="midnightblue" stroke="midnightblue" points="118.63,-52.63 128.56,-56.32 123.1,-47.24 118.63,-52.63"/>
</g>
<!-- Node10 -->
<g id="node10" class="node">
<title>Node10</title>
<g id="a_node10"><a xlink:href="fldbg_8cpp.html" target="_top" xlink:title=" ">
<polygon fill="white" stroke="black" points="166,-0.5 166,-19.5 244,-19.5 244,-0.5 166,-0.5"/>
<text text-anchor="middle" x="205" y="-7.5" font-family="Helvetica,sans-Serif" font-size="10.00">src/fldbg.cpp</text>
</a>
</g>
</g>
<!-- Node8&#45;&gt;Node10 -->
<g id="edge9" class="edge">
<title>Node8&#45;&gt;Node10</title>
<path fill="none" stroke="midnightblue" d="M157.55,-49.82C169.38,-40.15 184.29,-27.95 194.2,-19.83"/>
<polygon fill="midnightblue" stroke="midnightblue" points="155.13,-47.28 149.6,-56.32 159.56,-52.7 155.13,-47.28"/>
</g>
</g>
</svg>
