<?xml version="1.0" encoding="UTF-8" standalone="no"?>
<!DOCTYPE svg PUBLIC "-//W3C//DTD SVG 1.1//EN"
 "http://www.w3.org/Graphics/SVG/1.1/DTD/svg11.dtd">
<!-- Generated by graphviz version 2.43.0 (0)
 -->
<!-- Title: src/optimizer/controlflow.cpp Pages: 1 -->
<svg width="604pt" height="252pt"
 viewBox="0.00 0.00 603.50 252.00" xmlns="http://www.w3.org/2000/svg" xmlns:xlink="http://www.w3.org/1999/xlink">
<g id="graph0" class="graph" transform="scale(1 1) rotate(0) translate(4 248)">
<title>src/optimizer/controlflow.cpp</title>
<polygon fill="white" stroke="transparent" points="-4,4 -4,-248 599.5,-248 599.5,4 -4,4"/>
<!-- Node1 -->
<g id="node1" class="node">
<title>Node1</title>
<g id="a_node1"><a xlink:title=" ">
<polygon fill="#bfbfbf" stroke="black" points="250,-224.5 250,-243.5 407,-243.5 407,-224.5 250,-224.5"/>
<text text-anchor="middle" x="328.5" y="-231.5" font-family="Helvetica,sans-Serif" font-size="10.00">src/optimizer/controlflow.cpp</text>
</a>
</g>
</g>
<!-- Node2 -->
<g id="node2" class="node">
<title>Node2</title>
<g id="a_node2"><a xlink:href="controlflow_8hpp.html" target="_top" xlink:title=" ">
<polygon fill="white" stroke="black" points="41.5,-168.5 41.5,-187.5 181.5,-187.5 181.5,-168.5 41.5,-168.5"/>
<text text-anchor="middle" x="111.5" y="-175.5" font-family="Helvetica,sans-Serif" font-size="10.00">optimizer/controlflow.hpp</text>
</a>
</g>
</g>
<!-- Node1&#45;&gt;Node2 -->
<g id="edge1" class="edge">
<title>Node1&#45;&gt;Node2</title>
<path fill="none" stroke="midnightblue" d="M294.12,-224.44C256.58,-215.1 196.37,-200.12 155.43,-189.93"/>
<polygon fill="midnightblue" stroke="midnightblue" points="156.27,-186.53 145.72,-187.52 154.58,-193.33 156.27,-186.53"/>
</g>
<!-- Node5 -->
<g id="node5" class="node">
<title>Node5</title>
<g id="a_node5"><a xlink:href="tables_8hpp.html" target="_top" xlink:title=" ">
<polygon fill="white" stroke="black" points="68,-56.5 68,-75.5 181,-75.5 181,-56.5 68,-56.5"/>
<text text-anchor="middle" x="124.5" y="-63.5" font-family="Helvetica,sans-Serif" font-size="10.00">common/tables.hpp</text>
</a>
</g>
</g>
<!-- Node1&#45;&gt;Node5 -->
<g id="edge12" class="edge">
<title>Node1&#45;&gt;Node5</title>
<path fill="none" stroke="midnightblue" d="M249.9,-232.19C171.87,-229.53 60.03,-220.03 32.5,-188 10.48,-162.38 14.62,-140.66 32.5,-112 42.26,-96.36 59.2,-86.01 75.9,-79.23"/>
<polygon fill="midnightblue" stroke="midnightblue" points="77.48,-82.38 85.65,-75.64 75.06,-75.81 77.48,-82.38"/>
</g>
<!-- Node10 -->
<g id="node10" class="node">
<title>Node10</title>
<g id="a_node10"><a xlink:href="obstacle_8hpp.html" target="_top" xlink:title=" ">
<polygon fill="white" stroke="black" points="200,-168.5 200,-187.5 325,-187.5 325,-168.5 200,-168.5"/>
<text text-anchor="middle" x="262.5" y="-175.5" font-family="Helvetica,sans-Serif" font-size="10.00">common/obstacle.hpp</text>
</a>
</g>
</g>
<!-- Node1&#45;&gt;Node10 -->
<g id="edge13" class="edge">
<title>Node1&#45;&gt;Node10</title>
<path fill="none" stroke="midnightblue" d="M317.9,-224.32C308.04,-216.26 293.15,-204.08 281.28,-194.37"/>
<polygon fill="midnightblue" stroke="midnightblue" points="283.25,-191.46 273.3,-187.83 278.82,-196.88 283.25,-191.46"/>
</g>
<!-- Node11 -->
<g id="node11" class="node">
<title>Node11</title>
<g id="a_node11"><a xlink:href="util_8hpp.html" target="_top" xlink:title=" ">
<polygon fill="white" stroke="black" points="343,-168.5 343,-187.5 446,-187.5 446,-168.5 343,-168.5"/>
<text text-anchor="middle" x="394.5" y="-175.5" font-family="Helvetica,sans-Serif" font-size="10.00">optimizer/util.hpp</text>
</a>
</g>
</g>
<!-- Node1&#45;&gt;Node11 -->
<g id="edge14" class="edge">
<title>Node1&#45;&gt;Node11</title>
<path fill="none" stroke="midnightblue" d="M339.1,-224.32C348.96,-216.26 363.85,-204.08 375.72,-194.37"/>
<polygon fill="midnightblue" stroke="midnightblue" points="378.18,-196.88 383.7,-187.83 373.75,-191.46 378.18,-196.88"/>
</g>
<!-- Node12 -->
<g id="node12" class="node">
<title>Node12</title>
<g id="a_node12"><a xlink:title=" ">
<polygon fill="white" stroke="#bfbfbf" points="464,-168.5 464,-187.5 517,-187.5 517,-168.5 464,-168.5"/>
<text text-anchor="middle" x="490.5" y="-175.5" font-family="Helvetica,sans-Serif" font-size="10.00">iterator</text>
</a>
</g>
</g>
<!-- Node1&#45;&gt;Node12 -->
<g id="edge17" class="edge">
<title>Node1&#45;&gt;Node12</title>
<path fill="none" stroke="midnightblue" d="M354.17,-224.44C381.42,-215.36 424.68,-200.94 455.15,-190.78"/>
<polygon fill="midnightblue" stroke="midnightblue" points="456.57,-194 464.95,-187.52 454.36,-187.36 456.57,-194"/>
</g>
<!-- Node13 -->
<g id="node13" class="node">
<title>Node13</title>
<g id="a_node13"><a xlink:title=" ">
<polygon fill="white" stroke="#bfbfbf" points="535.5,-168.5 535.5,-187.5 595.5,-187.5 595.5,-168.5 535.5,-168.5"/>
<text text-anchor="middle" x="565.5" y="-175.5" font-family="Helvetica,sans-Serif" font-size="10.00">iostream</text>
</a>
</g>
</g>
<!-- Node1&#45;&gt;Node13 -->
<g id="edge18" class="edge">
<title>Node1&#45;&gt;Node13</title>
<path fill="none" stroke="midnightblue" d="M366.1,-224.49C403.91,-215.93 464.15,-202.26 525.43,-188.24"/>
<polygon fill="midnightblue" stroke="midnightblue" points="526.3,-191.63 535.27,-185.99 524.74,-184.81 526.3,-191.63"/>
</g>
<!-- Node3 -->
<g id="node3" class="node">
<title>Node3</title>
<g id="a_node3"><a xlink:title=" ">
<polygon fill="white" stroke="#bfbfbf" points="291,-0.5 291,-19.5 338,-19.5 338,-0.5 291,-0.5"/>
<text text-anchor="middle" x="314.5" y="-7.5" font-family="Helvetica,sans-Serif" font-size="10.00">vector</text>
</a>
</g>
</g>
<!-- Node2&#45;&gt;Node3 -->
<g id="edge2" class="edge">
<title>Node2&#45;&gt;Node3</title>
<path fill="none" stroke="midnightblue" d="M159.4,-168.42C200.07,-160.27 254.32,-147.04 270.5,-132 299.74,-104.82 309.59,-56.68 312.88,-30.05"/>
<polygon fill="midnightblue" stroke="midnightblue" points="316.4,-30.09 313.95,-19.78 309.44,-29.36 316.4,-30.09"/>
</g>
<!-- Node4 -->
<g id="node4" class="node">
<title>Node4</title>
<g id="a_node4"><a xlink:title=" ">
<polygon fill="white" stroke="#bfbfbf" points="42,-112.5 42,-131.5 97,-131.5 97,-112.5 42,-112.5"/>
<text text-anchor="middle" x="69.5" y="-119.5" font-family="Helvetica,sans-Serif" font-size="10.00">fstream</text>
</a>
</g>
</g>
<!-- Node2&#45;&gt;Node4 -->
<g id="edge3" class="edge">
<title>Node2&#45;&gt;Node4</title>
<path fill="none" stroke="midnightblue" d="M104.56,-168.08C98.57,-160.38 89.75,-149.03 82.45,-139.65"/>
<polygon fill="midnightblue" stroke="midnightblue" points="85.21,-137.5 76.31,-131.75 79.68,-141.79 85.21,-137.5"/>
</g>
<!-- Node2&#45;&gt;Node5 -->
<g id="edge4" class="edge">
<title>Node2&#45;&gt;Node5</title>
<path fill="none" stroke="midnightblue" d="M112.52,-168.37C114.62,-150.62 119.46,-109.67 122.3,-85.6"/>
<polygon fill="midnightblue" stroke="midnightblue" points="125.79,-85.93 123.48,-75.59 118.84,-85.11 125.79,-85.93"/>
</g>
<!-- Node9 -->
<g id="node9" class="node">
<title>Node9</title>
<g id="a_node9"><a xlink:href="poliz_8hpp.html" target="_top" xlink:title=" ">
<polygon fill="white" stroke="black" points="155,-112.5 155,-131.5 262,-131.5 262,-112.5 155,-112.5"/>
<text text-anchor="middle" x="208.5" y="-119.5" font-family="Helvetica,sans-Serif" font-size="10.00">common/poliz.hpp</text>
</a>
</g>
</g>
<!-- Node2&#45;&gt;Node9 -->
<g id="edge9" class="edge">
<title>Node2&#45;&gt;Node9</title>
<path fill="none" stroke="midnightblue" d="M127.08,-168.32C142.5,-159.74 166.31,-146.49 184.21,-136.52"/>
<polygon fill="midnightblue" stroke="midnightblue" points="185.92,-139.58 192.95,-131.65 182.51,-133.46 185.92,-139.58"/>
</g>
<!-- Node5&#45;&gt;Node3 -->
<g id="edge7" class="edge">
<title>Node5&#45;&gt;Node3</title>
<path fill="none" stroke="midnightblue" d="M154.61,-56.44C188.99,-46.67 245.09,-30.73 280.87,-20.56"/>
<polygon fill="midnightblue" stroke="midnightblue" points="282.18,-23.83 290.84,-17.73 280.26,-17.09 282.18,-23.83"/>
</g>
<!-- Node6 -->
<g id="node6" class="node">
<title>Node6</title>
<g id="a_node6"><a xlink:title=" ">
<polygon fill="white" stroke="#bfbfbf" points="0,-0.5 0,-19.5 53,-19.5 53,-0.5 0,-0.5"/>
<text text-anchor="middle" x="26.5" y="-7.5" font-family="Helvetica,sans-Serif" font-size="10.00">cstddef</text>
</a>
</g>
</g>
<!-- Node5&#45;&gt;Node6 -->
<g id="edge5" class="edge">
<title>Node5&#45;&gt;Node6</title>
<path fill="none" stroke="midnightblue" d="M108.75,-56.32C93.18,-47.74 69.12,-34.49 51.04,-24.52"/>
<polygon fill="midnightblue" stroke="midnightblue" points="52.65,-21.42 42.21,-19.65 49.28,-27.55 52.65,-21.42"/>
</g>
<!-- Node7 -->
<g id="node7" class="node">
<title>Node7</title>
<g id="a_node7"><a xlink:title=" ">
<polygon fill="white" stroke="#bfbfbf" points="71,-0.5 71,-19.5 128,-19.5 128,-0.5 71,-0.5"/>
<text text-anchor="middle" x="99.5" y="-7.5" font-family="Helvetica,sans-Serif" font-size="10.00">ostream</text>
</a>
</g>
</g>
<!-- Node5&#45;&gt;Node7 -->
<g id="edge6" class="edge">
<title>Node5&#45;&gt;Node7</title>
<path fill="none" stroke="midnightblue" d="M120.37,-56.08C116.99,-48.77 112.08,-38.18 107.88,-29.1"/>
<polygon fill="midnightblue" stroke="midnightblue" points="110.93,-27.36 103.55,-19.75 104.58,-30.3 110.93,-27.36"/>
</g>
<!-- Node8 -->
<g id="node8" class="node">
<title>Node8</title>
<g id="a_node8"><a xlink:href="exprtype_8hpp.html" target="_top" xlink:title=" ">
<polygon fill="white" stroke="black" points="146,-0.5 146,-19.5 273,-19.5 273,-0.5 146,-0.5"/>
<text text-anchor="middle" x="209.5" y="-7.5" font-family="Helvetica,sans-Serif" font-size="10.00">common/exprtype.hpp</text>
</a>
</g>
</g>
<!-- Node5&#45;&gt;Node8 -->
<g id="edge8" class="edge">
<title>Node5&#45;&gt;Node8</title>
<path fill="none" stroke="midnightblue" d="M138.16,-56.32C151.42,-47.9 171.77,-34.97 187.35,-25.07"/>
<polygon fill="midnightblue" stroke="midnightblue" points="189.31,-27.97 195.88,-19.65 185.56,-22.06 189.31,-27.97"/>
</g>
<!-- Node9&#45;&gt;Node5 -->
<g id="edge10" class="edge">
<title>Node9&#45;&gt;Node5</title>
<path fill="none" stroke="midnightblue" d="M195,-112.32C181.9,-103.9 161.79,-90.97 146.39,-81.07"/>
<polygon fill="midnightblue" stroke="midnightblue" points="148.27,-78.12 137.96,-75.65 144.48,-84.01 148.27,-78.12"/>
</g>
<!-- Node9&#45;&gt;Node8 -->
<g id="edge11" class="edge">
<title>Node9&#45;&gt;Node8</title>
<path fill="none" stroke="midnightblue" d="M208.58,-112.37C208.74,-94.62 209.11,-53.67 209.33,-29.6"/>
<polygon fill="midnightblue" stroke="midnightblue" points="212.83,-29.62 209.42,-19.59 205.83,-29.56 212.83,-29.62"/>
</g>
<!-- Node11&#45;&gt;Node3 -->
<g id="edge15" class="edge">
<title>Node11&#45;&gt;Node3</title>
<path fill="none" stroke="midnightblue" d="M390.2,-168.08C377.5,-141.72 339.98,-63.88 323.01,-28.66"/>
<polygon fill="midnightblue" stroke="midnightblue" points="326.12,-27.06 318.63,-19.57 319.82,-30.1 326.12,-27.06"/>
</g>
<!-- Node11&#45;&gt;Node9 -->
<g id="edge16" class="edge">
<title>Node11&#45;&gt;Node9</title>
<path fill="none" stroke="midnightblue" d="M365.03,-168.44C333.33,-159.24 282.77,-144.56 247.73,-134.39"/>
<polygon fill="midnightblue" stroke="midnightblue" points="248.41,-130.94 237.83,-131.52 246.46,-137.67 248.41,-130.94"/>
</g>
</g>
</svg>
