<?xml version="1.0" encoding="UTF-8" standalone="no"?>
<!DOCTYPE svg PUBLIC "-//W3C//DTD SVG 1.1//EN"
 "http://www.w3.org/Graphics/SVG/1.1/DTD/svg11.dtd">
<!-- Generated by graphviz version 2.43.0 (0)
 -->
<!-- Title: src/optimizer/controlflow.cpp Pages: 1 -->
<svg width="639pt" height="252pt"
 viewBox="0.00 0.00 638.50 252.00" xmlns="http://www.w3.org/2000/svg" xmlns:xlink="http://www.w3.org/1999/xlink">
<g id="graph0" class="graph" transform="scale(1 1) rotate(0) translate(4 248)">
<title>src/optimizer/controlflow.cpp</title>
<polygon fill="white" stroke="transparent" points="-4,4 -4,-248 634.5,-248 634.5,4 -4,4"/>
<!-- Node1 -->
<g id="node1" class="node">
<title>Node1</title>
<g id="a_node1"><a xlink:title=" ">
<polygon fill="#bfbfbf" stroke="black" points="273.5,-224.5 273.5,-243.5 431.5,-243.5 431.5,-224.5 273.5,-224.5"/>
<text text-anchor="middle" x="352.5" y="-231.5" font-family="Helvetica,sans-Serif" font-size="10.00">src/optimizer/controlflow.cpp</text>
</a>
</g>
</g>
<!-- Node2 -->
<g id="node2" class="node">
<title>Node2</title>
<g id="a_node2"><a xlink:href="controlflow_8hpp.html" target="_top" xlink:title=" ">
<polygon fill="white" stroke="black" points="76,-168.5 76,-187.5 217,-187.5 217,-168.5 76,-168.5"/>
<text text-anchor="middle" x="146.5" y="-175.5" font-family="Helvetica,sans-Serif" font-size="10.00">optimizer/controlflow.hpp</text>
</a>
</g>
</g>
<!-- Node1&#45;&gt;Node2 -->
<g id="edge1" class="edge">
<title>Node1&#45;&gt;Node2</title>
<path fill="none" stroke="midnightblue" d="M319.86,-224.44C284.45,-215.16 227.79,-200.31 188.95,-190.13"/>
<polygon fill="midnightblue" stroke="midnightblue" points="189.55,-186.67 178.99,-187.52 187.77,-193.44 189.55,-186.67"/>
</g>
<!-- Node5 -->
<g id="node5" class="node">
<title>Node5</title>
<g id="a_node5"><a xlink:href="tables_8hpp.html" target="_top" xlink:title=" ">
<polygon fill="white" stroke="black" points="43,-56.5 43,-75.5 156,-75.5 156,-56.5 43,-56.5"/>
<text text-anchor="middle" x="99.5" y="-63.5" font-family="Helvetica,sans-Serif" font-size="10.00">common/tables.hpp</text>
</a>
</g>
</g>
<!-- Node1&#45;&gt;Node5 -->
<g id="edge13" class="edge">
<title>Node1&#45;&gt;Node5</title>
<path fill="none" stroke="midnightblue" d="M273.38,-231.67C198.15,-228.53 92.67,-218.61 66.5,-188 40.79,-157.93 68.2,-109.6 86.27,-84.07"/>
<polygon fill="midnightblue" stroke="midnightblue" points="89.27,-85.89 92.4,-75.77 83.64,-81.74 89.27,-85.89"/>
</g>
<!-- Node11 -->
<g id="node11" class="node">
<title>Node11</title>
<g id="a_node11"><a xlink:href="obstacle_8hpp.html" target="_top" xlink:title=" ">
<polygon fill="white" stroke="black" points="356,-168.5 356,-187.5 481,-187.5 481,-168.5 356,-168.5"/>
<text text-anchor="middle" x="418.5" y="-175.5" font-family="Helvetica,sans-Serif" font-size="10.00">common/obstacle.hpp</text>
</a>
</g>
</g>
<!-- Node1&#45;&gt;Node11 -->
<g id="edge14" class="edge">
<title>Node1&#45;&gt;Node11</title>
<path fill="none" stroke="midnightblue" d="M363.1,-224.32C372.96,-216.26 387.85,-204.08 399.72,-194.37"/>
<polygon fill="midnightblue" stroke="midnightblue" points="402.18,-196.88 407.7,-187.83 397.75,-191.46 402.18,-196.88"/>
</g>
<!-- Node12 -->
<g id="node12" class="node">
<title>Node12</title>
<g id="a_node12"><a xlink:href="util_8hpp.html" target="_top" xlink:title=" ">
<polygon fill="white" stroke="black" points="235,-168.5 235,-187.5 338,-187.5 338,-168.5 235,-168.5"/>
<text text-anchor="middle" x="286.5" y="-175.5" font-family="Helvetica,sans-Serif" font-size="10.00">optimizer/util.hpp</text>
</a>
</g>
</g>
<!-- Node1&#45;&gt;Node12 -->
<g id="edge15" class="edge">
<title>Node1&#45;&gt;Node12</title>
<path fill="none" stroke="midnightblue" d="M341.9,-224.32C332.04,-216.26 317.15,-204.08 305.28,-194.37"/>
<polygon fill="midnightblue" stroke="midnightblue" points="307.25,-191.46 297.3,-187.83 302.82,-196.88 307.25,-191.46"/>
</g>
<!-- Node13 -->
<g id="node13" class="node">
<title>Node13</title>
<g id="a_node13"><a xlink:title=" ">
<polygon fill="white" stroke="#bfbfbf" points="499,-168.5 499,-187.5 552,-187.5 552,-168.5 499,-168.5"/>
<text text-anchor="middle" x="525.5" y="-175.5" font-family="Helvetica,sans-Serif" font-size="10.00">iterator</text>
</a>
</g>
</g>
<!-- Node1&#45;&gt;Node13 -->
<g id="edge18" class="edge">
<title>Node1&#45;&gt;Node13</title>
<path fill="none" stroke="midnightblue" d="M379.91,-224.44C409.44,-215.23 456.57,-200.52 489.17,-190.34"/>
<polygon fill="midnightblue" stroke="midnightblue" points="490.28,-193.66 498.78,-187.34 488.2,-186.98 490.28,-193.66"/>
</g>
<!-- Node14 -->
<g id="node14" class="node">
<title>Node14</title>
<g id="a_node14"><a xlink:title=" ">
<polygon fill="white" stroke="#bfbfbf" points="570.5,-168.5 570.5,-187.5 630.5,-187.5 630.5,-168.5 570.5,-168.5"/>
<text text-anchor="middle" x="600.5" y="-175.5" font-family="Helvetica,sans-Serif" font-size="10.00">iostream</text>
</a>
</g>
</g>
<!-- Node1&#45;&gt;Node14 -->
<g id="edge19" class="edge">
<title>Node1&#45;&gt;Node14</title>
<path fill="none" stroke="midnightblue" d="M393,-224.47C433.07,-215.98 496.43,-202.45 560.42,-188.22"/>
<polygon fill="midnightblue" stroke="midnightblue" points="561.28,-191.61 570.28,-186.02 559.75,-184.78 561.28,-191.61"/>
</g>
<!-- Node3 -->
<g id="node3" class="node">
<title>Node3</title>
<g id="a_node3"><a xlink:title=" ">
<polygon fill="white" stroke="#bfbfbf" points="291,-0.5 291,-19.5 338,-19.5 338,-0.5 291,-0.5"/>
<text text-anchor="middle" x="314.5" y="-7.5" font-family="Helvetica,sans-Serif" font-size="10.00">vector</text>
</a>
</g>
</g>
<!-- Node2&#45;&gt;Node3 -->
<g id="edge2" class="edge">
<title>Node2&#45;&gt;Node3</title>
<path fill="none" stroke="midnightblue" d="M153.3,-168.25C169.58,-147.57 212.6,-94.47 254.5,-56 266.58,-44.91 281.29,-33.85 293.12,-25.46"/>
<polygon fill="midnightblue" stroke="midnightblue" points="295.31,-28.2 301.52,-19.62 291.31,-22.46 295.31,-28.2"/>
</g>
<!-- Node4 -->
<g id="node4" class="node">
<title>Node4</title>
<g id="a_node4"><a xlink:title=" ">
<polygon fill="white" stroke="#bfbfbf" points="114,-112.5 114,-131.5 169,-131.5 169,-112.5 114,-112.5"/>
<text text-anchor="middle" x="141.5" y="-119.5" font-family="Helvetica,sans-Serif" font-size="10.00">fstream</text>
</a>
</g>
</g>
<!-- Node2&#45;&gt;Node4 -->
<g id="edge3" class="edge">
<title>Node2&#45;&gt;Node4</title>
<path fill="none" stroke="midnightblue" d="M145.67,-168.08C145.02,-161.01 144.08,-150.86 143.26,-141.99"/>
<polygon fill="midnightblue" stroke="midnightblue" points="146.72,-141.39 142.31,-131.75 139.75,-142.03 146.72,-141.39"/>
</g>
<!-- Node2&#45;&gt;Node5 -->
<g id="edge4" class="edge">
<title>Node2&#45;&gt;Node5</title>
<path fill="none" stroke="midnightblue" d="M134.96,-168.44C124.97,-160.29 111.12,-147.07 104.5,-132 98.16,-117.57 97.24,-99.61 97.72,-86.23"/>
<polygon fill="midnightblue" stroke="midnightblue" points="101.23,-86.06 98.39,-75.85 94.25,-85.6 101.23,-86.06"/>
</g>
<!-- Node9 -->
<g id="node9" class="node">
<title>Node9</title>
<g id="a_node9"><a xlink:href="poliz_8hpp.html" target="_top" xlink:title=" ">
<polygon fill="white" stroke="black" points="226,-112.5 226,-131.5 333,-131.5 333,-112.5 226,-112.5"/>
<text text-anchor="middle" x="279.5" y="-119.5" font-family="Helvetica,sans-Serif" font-size="10.00">common/poliz.hpp</text>
</a>
</g>
</g>
<!-- Node2&#45;&gt;Node9 -->
<g id="edge9" class="edge">
<title>Node2&#45;&gt;Node9</title>
<path fill="none" stroke="midnightblue" d="M167.57,-168.44C189.56,-159.52 224.23,-145.44 249.16,-135.32"/>
<polygon fill="midnightblue" stroke="midnightblue" points="250.58,-138.52 258.52,-131.52 247.94,-132.04 250.58,-138.52"/>
</g>
<!-- Node5&#45;&gt;Node3 -->
<g id="edge7" class="edge">
<title>Node5&#45;&gt;Node3</title>
<path fill="none" stroke="midnightblue" d="M135.14,-56.46C169.86,-48.07 224.41,-34.74 280.9,-20.11"/>
<polygon fill="midnightblue" stroke="midnightblue" points="281.93,-23.46 290.73,-17.56 280.17,-16.68 281.93,-23.46"/>
</g>
<!-- Node6 -->
<g id="node6" class="node">
<title>Node6</title>
<g id="a_node6"><a xlink:title=" ">
<polygon fill="white" stroke="#bfbfbf" points="0,-0.5 0,-19.5 53,-19.5 53,-0.5 0,-0.5"/>
<text text-anchor="middle" x="26.5" y="-7.5" font-family="Helvetica,sans-Serif" font-size="10.00">cstddef</text>
</a>
</g>
</g>
<!-- Node5&#45;&gt;Node6 -->
<g id="edge5" class="edge">
<title>Node5&#45;&gt;Node6</title>
<path fill="none" stroke="midnightblue" d="M87.77,-56.32C76.66,-48.11 59.76,-35.6 46.52,-25.81"/>
<polygon fill="midnightblue" stroke="midnightblue" points="48.56,-22.97 38.44,-19.83 44.4,-28.59 48.56,-22.97"/>
</g>
<!-- Node7 -->
<g id="node7" class="node">
<title>Node7</title>
<g id="a_node7"><a xlink:title=" ">
<polygon fill="white" stroke="#bfbfbf" points="71,-0.5 71,-19.5 128,-19.5 128,-0.5 71,-0.5"/>
<text text-anchor="middle" x="99.5" y="-7.5" font-family="Helvetica,sans-Serif" font-size="10.00">ostream</text>
</a>
</g>
</g>
<!-- Node5&#45;&gt;Node7 -->
<g id="edge6" class="edge">
<title>Node5&#45;&gt;Node7</title>
<path fill="none" stroke="midnightblue" d="M99.5,-56.08C99.5,-49.01 99.5,-38.86 99.5,-29.99"/>
<polygon fill="midnightblue" stroke="midnightblue" points="103,-29.75 99.5,-19.75 96,-29.75 103,-29.75"/>
</g>
<!-- Node8 -->
<g id="node8" class="node">
<title>Node8</title>
<g id="a_node8"><a xlink:href="exprtype_8hpp.html" target="_top" xlink:title=" ">
<polygon fill="white" stroke="black" points="146,-0.5 146,-19.5 273,-19.5 273,-0.5 146,-0.5"/>
<text text-anchor="middle" x="209.5" y="-7.5" font-family="Helvetica,sans-Serif" font-size="10.00">common/exprtype.hpp</text>
</a>
</g>
</g>
<!-- Node5&#45;&gt;Node8 -->
<g id="edge8" class="edge">
<title>Node5&#45;&gt;Node8</title>
<path fill="none" stroke="midnightblue" d="M117.17,-56.32C134.89,-47.62 162.4,-34.12 182.79,-24.11"/>
<polygon fill="midnightblue" stroke="midnightblue" points="184.44,-27.2 191.87,-19.65 181.35,-20.92 184.44,-27.2"/>
</g>
<!-- Node9&#45;&gt;Node5 -->
<g id="edge10" class="edge">
<title>Node9&#45;&gt;Node5</title>
<path fill="none" stroke="midnightblue" d="M250.98,-112.44C220.43,-103.28 171.79,-88.69 137.9,-78.52"/>
<polygon fill="midnightblue" stroke="midnightblue" points="138.47,-75.04 127.89,-75.52 136.46,-81.74 138.47,-75.04"/>
</g>
<!-- Node9&#45;&gt;Node8 -->
<g id="edge11" class="edge">
<title>Node9&#45;&gt;Node8</title>
<path fill="none" stroke="midnightblue" d="M274.01,-112.37C262.51,-94.3 235.7,-52.18 220.51,-28.31"/>
<polygon fill="midnightblue" stroke="midnightblue" points="223.29,-26.15 214.97,-19.59 217.38,-29.91 223.29,-26.15"/>
</g>
<!-- Node10 -->
<g id="node10" class="node">
<title>Node10</title>
<g id="a_node10"><a xlink:href="cppcheck_8hpp.html" target="_top" xlink:title=" ">
<polygon fill="white" stroke="black" points="264,-56.5 264,-75.5 393,-75.5 393,-56.5 264,-56.5"/>
<text text-anchor="middle" x="328.5" y="-63.5" font-family="Helvetica,sans-Serif" font-size="10.00">common/cppcheck.hpp</text>
</a>
</g>
</g>
<!-- Node9&#45;&gt;Node10 -->
<g id="edge12" class="edge">
<title>Node9&#45;&gt;Node10</title>
<path fill="none" stroke="midnightblue" d="M287.59,-112.08C294.66,-104.3 305.09,-92.8 313.65,-83.37"/>
<polygon fill="midnightblue" stroke="midnightblue" points="316.43,-85.51 320.56,-75.75 311.25,-80.8 316.43,-85.51"/>
</g>
<!-- Node12&#45;&gt;Node3 -->
<g id="edge16" class="edge">
<title>Node12&#45;&gt;Node3</title>
<path fill="none" stroke="midnightblue" d="M303.73,-168.44C330.9,-153.83 382.63,-121.23 402.5,-76 414.69,-48.27 377.54,-29.86 347.8,-19.93"/>
<polygon fill="midnightblue" stroke="midnightblue" points="348.66,-16.53 338.08,-16.88 346.57,-23.21 348.66,-16.53"/>
</g>
<!-- Node12&#45;&gt;Node9 -->
<g id="edge17" class="edge">
<title>Node12&#45;&gt;Node9</title>
<path fill="none" stroke="midnightblue" d="M285.34,-168.08C284.42,-160.93 283.08,-150.64 281.92,-141.69"/>
<polygon fill="midnightblue" stroke="midnightblue" points="285.39,-141.22 280.63,-131.75 278.45,-142.12 285.39,-141.22"/>
</g>
</g>
</svg>
