<?xml version="1.0" encoding="UTF-8" standalone="no"?>
<!DOCTYPE svg PUBLIC "-//W3C//DTD SVG 1.1//EN"
 "http://www.w3.org/Graphics/SVG/1.1/DTD/svg11.dtd">
<!-- Generated by graphviz version 2.43.0 (0)
 -->
<!-- Title: src/optimizer/controlflow.hpp Pages: 1 -->
<svg width="407pt" height="196pt"
 viewBox="0.00 0.00 407.00 196.00" xmlns="http://www.w3.org/2000/svg" xmlns:xlink="http://www.w3.org/1999/xlink">
<g id="graph0" class="graph" transform="scale(1 1) rotate(0) translate(4 192)">
<title>src/optimizer/controlflow.hpp</title>
<polygon fill="white" stroke="transparent" points="-4,4 -4,-192 403,-192 403,4 -4,4"/>
<!-- Node1 -->
<g id="node1" class="node">
<title>Node1</title>
<g id="a_node1"><a xlink:title=" ">
<polygon fill="#bfbfbf" stroke="black" points="49.5,-168.5 49.5,-187.5 207.5,-187.5 207.5,-168.5 49.5,-168.5"/>
<text text-anchor="middle" x="128.5" y="-175.5" font-family="Helvetica,sans-Serif" font-size="10.00">src/optimizer/controlflow.hpp</text>
</a>
</g>
</g>
<!-- Node2 -->
<g id="node2" class="node">
<title>Node2</title>
<g id="a_node2"><a xlink:title=" ">
<polygon fill="white" stroke="#bfbfbf" points="0,-0.5 0,-19.5 47,-19.5 47,-0.5 0,-0.5"/>
<text text-anchor="middle" x="23.5" y="-7.5" font-family="Helvetica,sans-Serif" font-size="10.00">vector</text>
</a>
</g>
</g>
<!-- Node1&#45;&gt;Node2 -->
<g id="edge1" class="edge">
<title>Node1&#45;&gt;Node2</title>
<path fill="none" stroke="midnightblue" d="M110.05,-168.42C95.49,-160.76 75.67,-148.27 63.5,-132 40.17,-100.81 30.01,-55.3 25.94,-29.91"/>
<polygon fill="midnightblue" stroke="midnightblue" points="29.37,-29.18 24.47,-19.79 22.44,-30.19 29.37,-29.18"/>
</g>
<!-- Node3 -->
<g id="node3" class="node">
<title>Node3</title>
<g id="a_node3"><a xlink:title=" ">
<polygon fill="white" stroke="#bfbfbf" points="73,-112.5 73,-131.5 128,-131.5 128,-112.5 73,-112.5"/>
<text text-anchor="middle" x="100.5" y="-119.5" font-family="Helvetica,sans-Serif" font-size="10.00">fstream</text>
</a>
</g>
</g>
<!-- Node1&#45;&gt;Node3 -->
<g id="edge2" class="edge">
<title>Node1&#45;&gt;Node3</title>
<path fill="none" stroke="midnightblue" d="M123.88,-168.08C120.04,-160.69 114.48,-149.95 109.74,-140.81"/>
<polygon fill="midnightblue" stroke="midnightblue" points="112.75,-139.02 105.04,-131.75 106.53,-142.24 112.75,-139.02"/>
</g>
<!-- Node4 -->
<g id="node4" class="node">
<title>Node4</title>
<g id="a_node4"><a xlink:href="tables_8hpp.html" target="_top" xlink:title=" ">
<polygon fill="white" stroke="black" points="100,-56.5 100,-75.5 213,-75.5 213,-56.5 100,-56.5"/>
<text text-anchor="middle" x="156.5" y="-63.5" font-family="Helvetica,sans-Serif" font-size="10.00">common/tables.hpp</text>
</a>
</g>
</g>
<!-- Node1&#45;&gt;Node4 -->
<g id="edge3" class="edge">
<title>Node1&#45;&gt;Node4</title>
<path fill="none" stroke="midnightblue" d="M130.7,-168.37C135.22,-150.62 145.64,-109.67 151.77,-85.6"/>
<polygon fill="midnightblue" stroke="midnightblue" points="155.24,-86.15 154.31,-75.59 148.45,-84.42 155.24,-86.15"/>
</g>
<!-- Node8 -->
<g id="node8" class="node">
<title>Node8</title>
<g id="a_node8"><a xlink:href="poliz_8hpp.html" target="_top" xlink:title=" ">
<polygon fill="white" stroke="black" points="187,-112.5 187,-131.5 294,-131.5 294,-112.5 187,-112.5"/>
<text text-anchor="middle" x="240.5" y="-119.5" font-family="Helvetica,sans-Serif" font-size="10.00">common/poliz.hpp</text>
</a>
</g>
</g>
<!-- Node1&#45;&gt;Node8 -->
<g id="edge8" class="edge">
<title>Node1&#45;&gt;Node8</title>
<path fill="none" stroke="midnightblue" d="M146.49,-168.32C164.54,-159.62 192.55,-146.12 213.3,-136.11"/>
<polygon fill="midnightblue" stroke="midnightblue" points="215.06,-139.15 222.55,-131.65 212.02,-132.84 215.06,-139.15"/>
</g>
<!-- Node4&#45;&gt;Node2 -->
<g id="edge6" class="edge">
<title>Node4&#45;&gt;Node2</title>
<path fill="none" stroke="midnightblue" d="M135.43,-56.44C113.44,-47.52 78.77,-33.44 53.84,-23.32"/>
<polygon fill="midnightblue" stroke="midnightblue" points="55.06,-20.04 44.48,-19.52 52.42,-26.52 55.06,-20.04"/>
</g>
<!-- Node5 -->
<g id="node5" class="node">
<title>Node5</title>
<g id="a_node5"><a xlink:title=" ">
<polygon fill="white" stroke="#bfbfbf" points="65,-0.5 65,-19.5 118,-19.5 118,-0.5 65,-0.5"/>
<text text-anchor="middle" x="91.5" y="-7.5" font-family="Helvetica,sans-Serif" font-size="10.00">cstddef</text>
</a>
</g>
</g>
<!-- Node4&#45;&gt;Node5 -->
<g id="edge4" class="edge">
<title>Node4&#45;&gt;Node5</title>
<path fill="none" stroke="midnightblue" d="M146.06,-56.32C136.35,-48.26 121.68,-36.08 110,-26.37"/>
<polygon fill="midnightblue" stroke="midnightblue" points="112.06,-23.53 102.13,-19.83 107.59,-28.92 112.06,-23.53"/>
</g>
<!-- Node6 -->
<g id="node6" class="node">
<title>Node6</title>
<g id="a_node6"><a xlink:title=" ">
<polygon fill="white" stroke="#bfbfbf" points="136,-0.5 136,-19.5 193,-19.5 193,-0.5 136,-0.5"/>
<text text-anchor="middle" x="164.5" y="-7.5" font-family="Helvetica,sans-Serif" font-size="10.00">ostream</text>
</a>
</g>
</g>
<!-- Node4&#45;&gt;Node6 -->
<g id="edge5" class="edge">
<title>Node4&#45;&gt;Node6</title>
<path fill="none" stroke="midnightblue" d="M157.82,-56.08C158.88,-48.93 160.41,-38.64 161.73,-29.69"/>
<polygon fill="midnightblue" stroke="midnightblue" points="165.2,-30.16 163.2,-19.75 158.28,-29.13 165.2,-30.16"/>
</g>
<!-- Node7 -->
<g id="node7" class="node">
<title>Node7</title>
<g id="a_node7"><a xlink:href="exprtype_8hpp.html" target="_top" xlink:title=" ">
<polygon fill="white" stroke="black" points="211,-0.5 211,-19.5 338,-19.5 338,-0.5 211,-0.5"/>
<text text-anchor="middle" x="274.5" y="-7.5" font-family="Helvetica,sans-Serif" font-size="10.00">common/exprtype.hpp</text>
</a>
</g>
</g>
<!-- Node4&#45;&gt;Node7 -->
<g id="edge7" class="edge">
<title>Node4&#45;&gt;Node7</title>
<path fill="none" stroke="midnightblue" d="M175.2,-56.44C194.44,-47.64 224.65,-33.81 246.7,-23.72"/>
<polygon fill="midnightblue" stroke="midnightblue" points="248.25,-26.86 255.89,-19.52 245.34,-20.5 248.25,-26.86"/>
</g>
<!-- Node8&#45;&gt;Node4 -->
<g id="edge9" class="edge">
<title>Node8&#45;&gt;Node4</title>
<path fill="none" stroke="midnightblue" d="M227,-112.32C213.9,-103.9 193.79,-90.97 178.39,-81.07"/>
<polygon fill="midnightblue" stroke="midnightblue" points="180.27,-78.12 169.96,-75.65 176.48,-84.01 180.27,-78.12"/>
</g>
<!-- Node8&#45;&gt;Node7 -->
<g id="edge10" class="edge">
<title>Node8&#45;&gt;Node7</title>
<path fill="none" stroke="midnightblue" d="M243.21,-112.17C247.05,-99.66 254.29,-76.08 260.5,-56 263.22,-47.2 266.26,-37.43 268.81,-29.25"/>
<polygon fill="midnightblue" stroke="midnightblue" points="272.17,-30.21 271.81,-19.62 265.49,-28.13 272.17,-30.21"/>
</g>
<!-- Node9 -->
<g id="node9" class="node">
<title>Node9</title>
<g id="a_node9"><a xlink:href="cppcheck_8hpp.html" target="_top" xlink:title=" ">
<polygon fill="white" stroke="black" points="270,-56.5 270,-75.5 399,-75.5 399,-56.5 270,-56.5"/>
<text text-anchor="middle" x="334.5" y="-63.5" font-family="Helvetica,sans-Serif" font-size="10.00">common/cppcheck.hpp</text>
</a>
</g>
</g>
<!-- Node8&#45;&gt;Node9 -->
<g id="edge11" class="edge">
<title>Node8&#45;&gt;Node9</title>
<path fill="none" stroke="midnightblue" d="M255.6,-112.32C270.4,-103.82 293.19,-90.73 310.48,-80.8"/>
<polygon fill="midnightblue" stroke="midnightblue" points="312.51,-83.67 319.43,-75.65 309.02,-77.6 312.51,-83.67"/>
</g>
</g>
</svg>
