<?xml version="1.0" encoding="UTF-8" standalone="no"?>
<!DOCTYPE svg PUBLIC "-//W3C//DTD SVG 1.1//EN"
 "http://www.w3.org/Graphics/SVG/1.1/DTD/svg11.dtd">
<!-- Generated by graphviz version 2.43.0 (0)
 -->
<!-- Title: src/optimizer/controlflow.hpp Pages: 1 -->
<svg width="471pt" height="196pt"
 viewBox="0.00 0.00 471.00 196.00" xmlns="http://www.w3.org/2000/svg" xmlns:xlink="http://www.w3.org/1999/xlink">
<g id="graph0" class="graph" transform="scale(1 1) rotate(0) translate(4 192)">
<title>src/optimizer/controlflow.hpp</title>
<polygon fill="white" stroke="transparent" points="-4,4 -4,-192 467,-192 467,4 -4,4"/>
<!-- Node1 -->
<g id="node1" class="node">
<title>Node1</title>
<g id="a_node1"><a xlink:title=" ">
<polygon fill="#bfbfbf" stroke="black" points="171.5,-168.5 171.5,-187.5 329.5,-187.5 329.5,-168.5 171.5,-168.5"/>
<text text-anchor="middle" x="250.5" y="-175.5" font-family="Helvetica,sans-Serif" font-size="10.00">src/optimizer/controlflow.hpp</text>
</a>
</g>
</g>
<!-- Node2 -->
<g id="node2" class="node">
<title>Node2</title>
<g id="a_node2"><a xlink:href="controlflow_8cpp.html" target="_top" xlink:title=" ">
<polygon fill="white" stroke="black" points="0,-112.5 0,-131.5 157,-131.5 157,-112.5 0,-112.5"/>
<text text-anchor="middle" x="78.5" y="-119.5" font-family="Helvetica,sans-Serif" font-size="10.00">src/optimizer/controlflow.cpp</text>
</a>
</g>
</g>
<!-- Node1&#45;&gt;Node2 -->
<g id="edge1" class="edge">
<title>Node1&#45;&gt;Node2</title>
<path fill="none" stroke="midnightblue" d="M213.67,-165.44C181.24,-155.26 134.76,-140.66 105.63,-131.52"/>
<polygon fill="midnightblue" stroke="midnightblue" points="212.66,-168.79 223.25,-168.44 214.75,-162.11 212.66,-168.79"/>
</g>
<!-- Node3 -->
<g id="node3" class="node">
<title>Node3</title>
<g id="a_node3"><a xlink:href="optimizer_8hpp.html" target="_top" xlink:title=" ">
<polygon fill="white" stroke="black" points="175.5,-112.5 175.5,-131.5 325.5,-131.5 325.5,-112.5 175.5,-112.5"/>
<text text-anchor="middle" x="250.5" y="-119.5" font-family="Helvetica,sans-Serif" font-size="10.00">src/optimizer/optimizer.hpp</text>
</a>
</g>
</g>
<!-- Node1&#45;&gt;Node3 -->
<g id="edge2" class="edge">
<title>Node1&#45;&gt;Node3</title>
<path fill="none" stroke="midnightblue" d="M250.5,-157.8C250.5,-148.91 250.5,-138.78 250.5,-131.75"/>
<polygon fill="midnightblue" stroke="midnightblue" points="247,-158.08 250.5,-168.08 254,-158.08 247,-158.08"/>
</g>
<!-- Node8 -->
<g id="node8" class="node">
<title>Node8</title>
<g id="a_node8"><a xlink:href="util_8cpp.html" target="_top" xlink:title=" ">
<polygon fill="white" stroke="black" points="344,-112.5 344,-131.5 463,-131.5 463,-112.5 344,-112.5"/>
<text text-anchor="middle" x="403.5" y="-119.5" font-family="Helvetica,sans-Serif" font-size="10.00">src/optimizer/util.cpp</text>
</a>
</g>
</g>
<!-- Node1&#45;&gt;Node8 -->
<g id="edge7" class="edge">
<title>Node1&#45;&gt;Node8</title>
<path fill="none" stroke="midnightblue" d="M284.39,-165.04C313.18,-154.88 353.79,-140.55 379.37,-131.52"/>
<polygon fill="midnightblue" stroke="midnightblue" points="283.01,-161.81 274.74,-168.44 285.34,-168.42 283.01,-161.81"/>
</g>
<!-- Node4 -->
<g id="node4" class="node">
<title>Node4</title>
<g id="a_node4"><a xlink:href="parser_8hpp.html" target="_top" xlink:title=" ">
<polygon fill="white" stroke="black" points="106,-56.5 106,-75.5 237,-75.5 237,-56.5 106,-56.5"/>
<text text-anchor="middle" x="171.5" y="-63.5" font-family="Helvetica,sans-Serif" font-size="10.00">src/compiler/parser.hpp</text>
</a>
</g>
</g>
<!-- Node3&#45;&gt;Node4 -->
<g id="edge3" class="edge">
<title>Node3&#45;&gt;Node4</title>
<path fill="none" stroke="midnightblue" d="M229.47,-106.62C215.03,-96.76 196.36,-83.99 184.16,-75.65"/>
<polygon fill="midnightblue" stroke="midnightblue" points="227.58,-109.57 237.81,-112.32 231.53,-103.79 227.58,-109.57"/>
</g>
<!-- Node7 -->
<g id="node7" class="node">
<title>Node7</title>
<g id="a_node7"><a xlink:href="optimizer_8cpp.html" target="_top" xlink:title=" ">
<polygon fill="white" stroke="black" points="255,-56.5 255,-75.5 404,-75.5 404,-56.5 255,-56.5"/>
<text text-anchor="middle" x="329.5" y="-63.5" font-family="Helvetica,sans-Serif" font-size="10.00">src/optimizer/optimizer.cpp</text>
</a>
</g>
</g>
<!-- Node3&#45;&gt;Node7 -->
<g id="edge6" class="edge">
<title>Node3&#45;&gt;Node7</title>
<path fill="none" stroke="midnightblue" d="M271.53,-106.62C285.97,-96.76 304.64,-83.99 316.84,-75.65"/>
<polygon fill="midnightblue" stroke="midnightblue" points="269.47,-103.79 263.19,-112.32 273.42,-109.57 269.47,-103.79"/>
</g>
<!-- Node5 -->
<g id="node5" class="node">
<title>Node5</title>
<g id="a_node5"><a xlink:href="parser_8cpp.html" target="_top" xlink:title=" ">
<polygon fill="white" stroke="black" points="48.5,-0.5 48.5,-19.5 178.5,-19.5 178.5,-0.5 48.5,-0.5"/>
<text text-anchor="middle" x="113.5" y="-7.5" font-family="Helvetica,sans-Serif" font-size="10.00">src/compiler/parser.cpp</text>
</a>
</g>
</g>
<!-- Node4&#45;&gt;Node5 -->
<g id="edge4" class="edge">
<title>Node4&#45;&gt;Node5</title>
<path fill="none" stroke="midnightblue" d="M154.59,-49.25C144.3,-39.67 131.53,-27.79 122.99,-19.83"/>
<polygon fill="midnightblue" stroke="midnightblue" points="152.48,-52.07 162.18,-56.32 157.25,-46.95 152.48,-52.07"/>
</g>
<!-- Node6 -->
<g id="node6" class="node">
<title>Node6</title>
<g id="a_node6"><a xlink:href="flc_8cpp.html" target="_top" xlink:title=" ">
<polygon fill="white" stroke="black" points="197,-0.5 197,-19.5 262,-19.5 262,-0.5 197,-0.5"/>
<text text-anchor="middle" x="229.5" y="-7.5" font-family="Helvetica,sans-Serif" font-size="10.00">src/flc.cpp</text>
</a>
</g>
</g>
<!-- Node4&#45;&gt;Node6 -->
<g id="edge5" class="edge">
<title>Node4&#45;&gt;Node6</title>
<path fill="none" stroke="midnightblue" d="M188.41,-49.25C198.7,-39.67 211.47,-27.79 220.01,-19.83"/>
<polygon fill="midnightblue" stroke="midnightblue" points="185.75,-46.95 180.82,-56.32 190.52,-52.07 185.75,-46.95"/>
</g>
</g>
</svg>
