<?xml version="1.0" encoding="UTF-8" standalone="no"?>
<!DOCTYPE svg PUBLIC "-//W3C//DTD SVG 1.1//EN"
 "http://www.w3.org/Graphics/SVG/1.1/DTD/svg11.dtd">
<!-- Generated by graphviz version 2.43.0 (0)
 -->
<!-- Title: src/debugger/debugger.cpp Pages: 1 -->
<svg width="621pt" height="308pt"
 viewBox="0.00 0.00 620.50 308.00" xmlns="http://www.w3.org/2000/svg" xmlns:xlink="http://www.w3.org/1999/xlink">
<g id="graph0" class="graph" transform="scale(1 1) rotate(0) translate(4 304)">
<title>src/debugger/debugger.cpp</title>
<polygon fill="white" stroke="transparent" points="-4,4 -4,-304 616.5,-304 616.5,4 -4,4"/>
<!-- Node1 -->
<g id="node1" class="node">
<title>Node1</title>
<g id="a_node1"><a xlink:title=" ">
<polygon fill="#bfbfbf" stroke="black" points="106,-280.5 106,-299.5 254,-299.5 254,-280.5 106,-280.5"/>
<text text-anchor="middle" x="180" y="-287.5" font-family="Helvetica,sans-Serif" font-size="10.00">src/debugger/debugger.cpp</text>
</a>
</g>
</g>
<!-- Node2 -->
<g id="node2" class="node">
<title>Node2</title>
<g id="a_node2"><a xlink:title=" ">
<polygon fill="white" stroke="#bfbfbf" points="0,-224.5 0,-243.5 56,-243.5 56,-224.5 0,-224.5"/>
<text text-anchor="middle" x="28" y="-231.5" font-family="Helvetica,sans-Serif" font-size="10.00">unistd.h</text>
</a>
</g>
</g>
<!-- Node1&#45;&gt;Node2 -->
<g id="edge1" class="edge">
<title>Node1&#45;&gt;Node2</title>
<path fill="none" stroke="midnightblue" d="M155.92,-280.44C130.46,-271.4 90.11,-257.06 61.54,-246.92"/>
<polygon fill="midnightblue" stroke="midnightblue" points="62.57,-243.57 51.97,-243.52 60.22,-250.16 62.57,-243.57"/>
</g>
<!-- Node3 -->
<g id="node3" class="node">
<title>Node3</title>
<g id="a_node3"><a xlink:title=" ">
<polygon fill="white" stroke="#bfbfbf" points="74,-224.5 74,-243.5 130,-243.5 130,-224.5 74,-224.5"/>
<text text-anchor="middle" x="102" y="-231.5" font-family="Helvetica,sans-Serif" font-size="10.00">iomanip</text>
</a>
</g>
</g>
<!-- Node1&#45;&gt;Node3 -->
<g id="edge2" class="edge">
<title>Node1&#45;&gt;Node3</title>
<path fill="none" stroke="midnightblue" d="M167.47,-280.32C155.41,-271.98 136.97,-259.21 122.73,-249.35"/>
<polygon fill="midnightblue" stroke="midnightblue" points="124.72,-246.47 114.5,-243.65 120.73,-252.22 124.72,-246.47"/>
</g>
<!-- Node4 -->
<g id="node4" class="node">
<title>Node4</title>
<g id="a_node4"><a xlink:title=" ">
<polygon fill="white" stroke="#bfbfbf" points="148,-224.5 148,-243.5 212,-243.5 212,-224.5 148,-224.5"/>
<text text-anchor="middle" x="180" y="-231.5" font-family="Helvetica,sans-Serif" font-size="10.00">algorithm</text>
</a>
</g>
</g>
<!-- Node1&#45;&gt;Node4 -->
<g id="edge3" class="edge">
<title>Node1&#45;&gt;Node4</title>
<path fill="none" stroke="midnightblue" d="M180,-280.08C180,-273.01 180,-262.86 180,-253.99"/>
<polygon fill="midnightblue" stroke="midnightblue" points="183.5,-253.75 180,-243.75 176.5,-253.75 183.5,-253.75"/>
</g>
<!-- Node5 -->
<g id="node5" class="node">
<title>Node5</title>
<g id="a_node5"><a xlink:href="debugger_8hpp.html" target="_top" xlink:title=" ">
<polygon fill="white" stroke="black" points="230.5,-224.5 230.5,-243.5 361.5,-243.5 361.5,-224.5 230.5,-224.5"/>
<text text-anchor="middle" x="296" y="-231.5" font-family="Helvetica,sans-Serif" font-size="10.00">debugger/debugger.hpp</text>
</a>
</g>
</g>
<!-- Node1&#45;&gt;Node5 -->
<g id="edge4" class="edge">
<title>Node1&#45;&gt;Node5</title>
<path fill="none" stroke="midnightblue" d="M198.38,-280.44C217.22,-271.68 246.73,-257.94 268.38,-247.86"/>
<polygon fill="midnightblue" stroke="midnightblue" points="270.12,-250.91 277.71,-243.52 267.16,-244.56 270.12,-250.91"/>
</g>
<!-- Node14 -->
<g id="node14" class="node">
<title>Node14</title>
<g id="a_node14"><a xlink:href="exprtype_8hpp.html" target="_top" xlink:title=" ">
<polygon fill="white" stroke="black" points="400.5,-0.5 400.5,-19.5 527.5,-19.5 527.5,-0.5 400.5,-0.5"/>
<text text-anchor="middle" x="464" y="-7.5" font-family="Helvetica,sans-Serif" font-size="10.00">common/exprtype.hpp</text>
</a>
</g>
</g>
<!-- Node1&#45;&gt;Node14 -->
<g id="edge22" class="edge">
<title>Node1&#45;&gt;Node14</title>
<path fill="none" stroke="midnightblue" d="M254.29,-282.45C363.86,-270.7 556,-241.23 556,-179 556,-179 556,-179 556,-121 556,-90.9 555.25,-79.94 537,-56 526.34,-42.01 509.97,-31.35 495.44,-23.93"/>
<polygon fill="midnightblue" stroke="midnightblue" points="496.76,-20.68 486.23,-19.51 493.73,-26.99 496.76,-20.68"/>
</g>
<!-- Node6 -->
<g id="node6" class="node">
<title>Node6</title>
<g id="a_node6"><a xlink:title=" ">
<polygon fill="white" stroke="#bfbfbf" points="149,-168.5 149,-187.5 209,-187.5 209,-168.5 149,-168.5"/>
<text text-anchor="middle" x="179" y="-175.5" font-family="Helvetica,sans-Serif" font-size="10.00">iostream</text>
</a>
</g>
</g>
<!-- Node5&#45;&gt;Node6 -->
<g id="edge5" class="edge">
<title>Node5&#45;&gt;Node6</title>
<path fill="none" stroke="midnightblue" d="M277.46,-224.44C258.38,-215.64 228.43,-201.81 206.56,-191.72"/>
<polygon fill="midnightblue" stroke="midnightblue" points="208,-188.53 197.45,-187.52 205.07,-194.88 208,-188.53"/>
</g>
<!-- Node7 -->
<g id="node7" class="node">
<title>Node7</title>
<g id="a_node7"><a xlink:title=" ">
<polygon fill="white" stroke="#bfbfbf" points="227,-168.5 227,-187.5 265,-187.5 265,-168.5 227,-168.5"/>
<text text-anchor="middle" x="246" y="-175.5" font-family="Helvetica,sans-Serif" font-size="10.00">map</text>
</a>
</g>
</g>
<!-- Node5&#45;&gt;Node7 -->
<g id="edge6" class="edge">
<title>Node5&#45;&gt;Node7</title>
<path fill="none" stroke="midnightblue" d="M287.74,-224.08C280.54,-216.3 269.89,-204.8 261.15,-195.37"/>
<polygon fill="midnightblue" stroke="midnightblue" points="263.47,-192.71 254.1,-187.75 258.33,-197.47 263.47,-192.71"/>
</g>
<!-- Node8 -->
<g id="node8" class="node">
<title>Node8</title>
<g id="a_node8"><a xlink:href="vmachine_8hpp.html" target="_top" xlink:title=" ">
<polygon fill="white" stroke="black" points="283.5,-168.5 283.5,-187.5 410.5,-187.5 410.5,-168.5 283.5,-168.5"/>
<text text-anchor="middle" x="347" y="-175.5" font-family="Helvetica,sans-Serif" font-size="10.00">runtime/vmachine.hpp</text>
</a>
</g>
</g>
<!-- Node5&#45;&gt;Node8 -->
<g id="edge7" class="edge">
<title>Node5&#45;&gt;Node8</title>
<path fill="none" stroke="midnightblue" d="M304.42,-224.08C311.85,-216.22 322.85,-204.57 331.81,-195.08"/>
<polygon fill="midnightblue" stroke="midnightblue" points="334.41,-197.42 338.74,-187.75 329.32,-192.62 334.41,-197.42"/>
</g>
<!-- Node9 -->
<g id="node9" class="node">
<title>Node9</title>
<g id="a_node9"><a xlink:title=" ">
<polygon fill="white" stroke="#bfbfbf" points="270.5,-112.5 270.5,-131.5 325.5,-131.5 325.5,-112.5 270.5,-112.5"/>
<text text-anchor="middle" x="298" y="-119.5" font-family="Helvetica,sans-Serif" font-size="10.00">fstream</text>
</a>
</g>
</g>
<!-- Node8&#45;&gt;Node9 -->
<g id="edge8" class="edge">
<title>Node8&#45;&gt;Node9</title>
<path fill="none" stroke="midnightblue" d="M338.91,-168.08C331.84,-160.3 321.41,-148.8 312.85,-139.37"/>
<polygon fill="midnightblue" stroke="midnightblue" points="315.25,-136.8 305.94,-131.75 310.07,-141.51 315.25,-136.8"/>
</g>
<!-- Node10 -->
<g id="node10" class="node">
<title>Node10</title>
<g id="a_node10"><a xlink:title=" ">
<polygon fill="white" stroke="#bfbfbf" points="181.5,-0.5 181.5,-19.5 228.5,-19.5 228.5,-0.5 181.5,-0.5"/>
<text text-anchor="middle" x="205" y="-7.5" font-family="Helvetica,sans-Serif" font-size="10.00">vector</text>
</a>
</g>
</g>
<!-- Node8&#45;&gt;Node10 -->
<g id="edge9" class="edge">
<title>Node8&#45;&gt;Node10</title>
<path fill="none" stroke="midnightblue" d="M316.28,-168.5C296.25,-161.57 270.79,-149.94 254,-132 226.47,-102.6 213.55,-55.71 208.22,-29.78"/>
<polygon fill="midnightblue" stroke="midnightblue" points="211.63,-28.95 206.33,-19.77 204.75,-30.25 211.63,-28.95"/>
</g>
<!-- Node11 -->
<g id="node11" class="node">
<title>Node11</title>
<g id="a_node11"><a xlink:href="tables_8hpp.html" target="_top" xlink:title=" ">
<polygon fill="white" stroke="black" points="243.5,-56.5 243.5,-75.5 356.5,-75.5 356.5,-56.5 243.5,-56.5"/>
<text text-anchor="middle" x="300" y="-63.5" font-family="Helvetica,sans-Serif" font-size="10.00">common/tables.hpp</text>
</a>
</g>
</g>
<!-- Node8&#45;&gt;Node11 -->
<g id="edge10" class="edge">
<title>Node8&#45;&gt;Node11</title>
<path fill="none" stroke="midnightblue" d="M312.82,-168.49C294.01,-161.88 272.26,-150.6 261,-132 250.71,-115 266.13,-95.43 280.51,-82.25"/>
<polygon fill="midnightblue" stroke="midnightblue" points="282.91,-84.8 288.23,-75.63 278.36,-79.49 282.91,-84.8"/>
</g>
<!-- Node15 -->
<g id="node15" class="node">
<title>Node15</title>
<g id="a_node15"><a xlink:href="poliz_8hpp.html" target="_top" xlink:title=" ">
<polygon fill="white" stroke="black" points="343.5,-112.5 343.5,-131.5 450.5,-131.5 450.5,-112.5 343.5,-112.5"/>
<text text-anchor="middle" x="397" y="-119.5" font-family="Helvetica,sans-Serif" font-size="10.00">common/poliz.hpp</text>
</a>
</g>
</g>
<!-- Node8&#45;&gt;Node15 -->
<g id="edge15" class="edge">
<title>Node8&#45;&gt;Node15</title>
<path fill="none" stroke="midnightblue" d="M355.26,-168.08C362.46,-160.3 373.11,-148.8 381.85,-139.37"/>
<polygon fill="midnightblue" stroke="midnightblue" points="384.67,-141.47 388.9,-131.75 379.53,-136.71 384.67,-141.47"/>
</g>
<!-- Node16 -->
<g id="node16" class="node">
<title>Node16</title>
<g id="a_node16"><a xlink:href="stack_8hpp.html" target="_top" xlink:title=" ">
<polygon fill="white" stroke="black" points="418,-56.5 418,-75.5 528,-75.5 528,-56.5 418,-56.5"/>
<text text-anchor="middle" x="473" y="-63.5" font-family="Helvetica,sans-Serif" font-size="10.00">common/stack.hpp</text>
</a>
</g>
</g>
<!-- Node8&#45;&gt;Node16 -->
<g id="edge18" class="edge">
<title>Node8&#45;&gt;Node16</title>
<path fill="none" stroke="midnightblue" d="M395.37,-168.43C417.81,-162.04 442.99,-150.99 459,-132 469.8,-119.19 472.86,-100 473.47,-85.79"/>
<polygon fill="midnightblue" stroke="midnightblue" points="476.97,-85.71 473.55,-75.68 469.97,-85.65 476.97,-85.71"/>
</g>
<!-- Node11&#45;&gt;Node10 -->
<g id="edge13" class="edge">
<title>Node11&#45;&gt;Node10</title>
<path fill="none" stroke="midnightblue" d="M284.74,-56.32C269.78,-47.82 246.75,-34.73 229.27,-24.8"/>
<polygon fill="midnightblue" stroke="midnightblue" points="230.65,-21.55 220.23,-19.65 227.19,-27.64 230.65,-21.55"/>
</g>
<!-- Node12 -->
<g id="node12" class="node">
<title>Node12</title>
<g id="a_node12"><a xlink:title=" ">
<polygon fill="white" stroke="#bfbfbf" points="329.5,-0.5 329.5,-19.5 382.5,-19.5 382.5,-0.5 329.5,-0.5"/>
<text text-anchor="middle" x="356" y="-7.5" font-family="Helvetica,sans-Serif" font-size="10.00">cstddef</text>
</a>
</g>
</g>
<!-- Node11&#45;&gt;Node12 -->
<g id="edge11" class="edge">
<title>Node11&#45;&gt;Node12</title>
<path fill="none" stroke="midnightblue" d="M309,-56.32C317.19,-48.42 329.51,-36.55 339.47,-26.94"/>
<polygon fill="midnightblue" stroke="midnightblue" points="342.07,-29.29 346.84,-19.83 337.21,-24.26 342.07,-29.29"/>
</g>
<!-- Node13 -->
<g id="node13" class="node">
<title>Node13</title>
<g id="a_node13"><a xlink:title=" ">
<polygon fill="white" stroke="#bfbfbf" points="254.5,-0.5 254.5,-19.5 311.5,-19.5 311.5,-0.5 254.5,-0.5"/>
<text text-anchor="middle" x="283" y="-7.5" font-family="Helvetica,sans-Serif" font-size="10.00">ostream</text>
</a>
</g>
</g>
<!-- Node11&#45;&gt;Node13 -->
<g id="edge12" class="edge">
<title>Node11&#45;&gt;Node13</title>
<path fill="none" stroke="midnightblue" d="M297.19,-56.08C294.92,-48.85 291.63,-38.41 288.79,-29.4"/>
<polygon fill="midnightblue" stroke="midnightblue" points="292.1,-28.24 285.75,-19.75 285.42,-30.34 292.1,-28.24"/>
</g>
<!-- Node11&#45;&gt;Node14 -->
<g id="edge14" class="edge">
<title>Node11&#45;&gt;Node14</title>
<path fill="none" stroke="midnightblue" d="M325.99,-56.44C353.7,-47.32 397.75,-32.81 428.62,-22.65"/>
<polygon fill="midnightblue" stroke="midnightblue" points="429.73,-25.97 438.14,-19.52 427.54,-19.32 429.73,-25.97"/>
</g>
<!-- Node15&#45;&gt;Node11 -->
<g id="edge16" class="edge">
<title>Node15&#45;&gt;Node11</title>
<path fill="none" stroke="midnightblue" d="M381.42,-112.32C366,-103.74 342.19,-90.49 324.29,-80.52"/>
<polygon fill="midnightblue" stroke="midnightblue" points="325.99,-77.46 315.55,-75.65 322.58,-83.58 325.99,-77.46"/>
</g>
<!-- Node15&#45;&gt;Node14 -->
<g id="edge17" class="edge">
<title>Node15&#45;&gt;Node14</title>
<path fill="none" stroke="midnightblue" d="M396.76,-112.35C396.79,-99.25 398.37,-73.98 409,-56 416.43,-43.43 428.75,-32.86 439.84,-25.14"/>
<polygon fill="midnightblue" stroke="midnightblue" points="441.91,-27.97 448.36,-19.56 438.08,-22.11 441.91,-27.97"/>
</g>
<!-- Node16&#45;&gt;Node12 -->
<g id="edge19" class="edge">
<title>Node16&#45;&gt;Node12</title>
<path fill="none" stroke="midnightblue" d="M454.46,-56.44C435.38,-47.64 405.43,-33.81 383.56,-23.72"/>
<polygon fill="midnightblue" stroke="midnightblue" points="385,-20.53 374.45,-19.52 382.07,-26.88 385,-20.53"/>
</g>
<!-- Node16&#45;&gt;Node14 -->
<g id="edge21" class="edge">
<title>Node16&#45;&gt;Node14</title>
<path fill="none" stroke="midnightblue" d="M471.51,-56.08C470.32,-48.93 468.61,-38.64 467.12,-29.69"/>
<polygon fill="midnightblue" stroke="midnightblue" points="470.55,-29.04 465.46,-19.75 463.65,-30.19 470.55,-29.04"/>
</g>
<!-- Node17 -->
<g id="node17" class="node">
<title>Node17</title>
<g id="a_node17"><a xlink:href="config_8hpp.html" target="_top" xlink:title=" ">
<polygon fill="white" stroke="black" points="545.5,-0.5 545.5,-19.5 612.5,-19.5 612.5,-0.5 545.5,-0.5"/>
<text text-anchor="middle" x="579" y="-7.5" font-family="Helvetica,sans-Serif" font-size="10.00">config.hpp</text>
</a>
</g>
</g>
<!-- Node16&#45;&gt;Node17 -->
<g id="edge20" class="edge">
<title>Node16&#45;&gt;Node17</title>
<path fill="none" stroke="midnightblue" d="M490.03,-56.32C507.03,-47.66 533.38,-34.24 552.99,-24.25"/>
<polygon fill="midnightblue" stroke="midnightblue" points="554.69,-27.31 562.01,-19.65 551.51,-21.08 554.69,-27.31"/>
</g>
</g>
</svg>
