<?xml version="1.0" encoding="UTF-8" standalone="no"?>
<!DOCTYPE svg PUBLIC "-//W3C//DTD SVG 1.1//EN"
 "http://www.w3.org/Graphics/SVG/1.1/DTD/svg11.dtd">
<!-- Generated by graphviz version 2.43.0 (0)
 -->
<!-- Title: src/debugger/debugger.hpp Pages: 1 -->
<svg width="576pt" height="252pt"
 viewBox="0.00 0.00 576.00 252.00" xmlns="http://www.w3.org/2000/svg" xmlns:xlink="http://www.w3.org/1999/xlink">
<g id="graph0" class="graph" transform="scale(1 1) rotate(0) translate(4 248)">
<title>src/debugger/debugger.hpp</title>
<polygon fill="white" stroke="transparent" points="-4,4 -4,-248 572,-248 572,4 -4,4"/>
<!-- Node1 -->
<g id="node1" class="node">
<title>Node1</title>
<g id="a_node1"><a xlink:title=" ">
<polygon fill="#bfbfbf" stroke="black" points="22.5,-224.5 22.5,-243.5 171.5,-243.5 171.5,-224.5 22.5,-224.5"/>
<text text-anchor="middle" x="97" y="-231.5" font-family="Helvetica,sans-Serif" font-size="10.00">src/debugger/debugger.hpp</text>
</a>
</g>
</g>
<!-- Node2 -->
<g id="node2" class="node">
<title>Node2</title>
<g id="a_node2"><a xlink:title=" ">
<polygon fill="white" stroke="#bfbfbf" points="0,-168.5 0,-187.5 60,-187.5 60,-168.5 0,-168.5"/>
<text text-anchor="middle" x="30" y="-175.5" font-family="Helvetica,sans-Serif" font-size="10.00">iostream</text>
</a>
</g>
</g>
<!-- Node1&#45;&gt;Node2 -->
<g id="edge1" class="edge">
<title>Node1&#45;&gt;Node2</title>
<path fill="none" stroke="midnightblue" d="M86.24,-224.32C76.23,-216.26 61.11,-204.08 49.07,-194.37"/>
<polygon fill="midnightblue" stroke="midnightblue" points="50.94,-191.38 40.96,-187.83 46.55,-196.83 50.94,-191.38"/>
</g>
<!-- Node3 -->
<g id="node3" class="node">
<title>Node3</title>
<g id="a_node3"><a xlink:title=" ">
<polygon fill="white" stroke="#bfbfbf" points="78,-168.5 78,-187.5 116,-187.5 116,-168.5 78,-168.5"/>
<text text-anchor="middle" x="97" y="-175.5" font-family="Helvetica,sans-Serif" font-size="10.00">map</text>
</a>
</g>
</g>
<!-- Node1&#45;&gt;Node3 -->
<g id="edge2" class="edge">
<title>Node1&#45;&gt;Node3</title>
<path fill="none" stroke="midnightblue" d="M97,-224.08C97,-217.01 97,-206.86 97,-197.99"/>
<polygon fill="midnightblue" stroke="midnightblue" points="100.5,-197.75 97,-187.75 93.5,-197.75 100.5,-197.75"/>
</g>
<!-- Node4 -->
<g id="node4" class="node">
<title>Node4</title>
<g id="a_node4"><a xlink:href="vmachine_8hpp.html" target="_top" xlink:title=" ">
<polygon fill="white" stroke="black" points="134.5,-168.5 134.5,-187.5 261.5,-187.5 261.5,-168.5 134.5,-168.5"/>
<text text-anchor="middle" x="198" y="-175.5" font-family="Helvetica,sans-Serif" font-size="10.00">runtime/vmachine.hpp</text>
</a>
</g>
</g>
<!-- Node1&#45;&gt;Node4 -->
<g id="edge3" class="edge">
<title>Node1&#45;&gt;Node4</title>
<path fill="none" stroke="midnightblue" d="M113.23,-224.32C129.35,-215.7 154.3,-202.36 172.96,-192.39"/>
<polygon fill="midnightblue" stroke="midnightblue" points="174.64,-195.46 181.81,-187.65 171.34,-189.28 174.64,-195.46"/>
</g>
<!-- Node5 -->
<g id="node5" class="node">
<title>Node5</title>
<g id="a_node5"><a xlink:title=" ">
<polygon fill="white" stroke="#bfbfbf" points="29.5,-112.5 29.5,-131.5 84.5,-131.5 84.5,-112.5 29.5,-112.5"/>
<text text-anchor="middle" x="57" y="-119.5" font-family="Helvetica,sans-Serif" font-size="10.00">fstream</text>
</a>
</g>
</g>
<!-- Node4&#45;&gt;Node5 -->
<g id="edge4" class="edge">
<title>Node4&#45;&gt;Node5</title>
<path fill="none" stroke="midnightblue" d="M175.66,-168.44C152.25,-159.48 115.26,-145.31 88.81,-135.18"/>
<polygon fill="midnightblue" stroke="midnightblue" points="89.83,-131.82 79.24,-131.52 87.32,-138.36 89.83,-131.82"/>
</g>
<!-- Node6 -->
<g id="node6" class="node">
<title>Node6</title>
<g id="a_node6"><a xlink:title=" ">
<polygon fill="white" stroke="#bfbfbf" points="97.5,-0.5 97.5,-19.5 144.5,-19.5 144.5,-0.5 97.5,-0.5"/>
<text text-anchor="middle" x="121" y="-7.5" font-family="Helvetica,sans-Serif" font-size="10.00">vector</text>
</a>
</g>
</g>
<!-- Node4&#45;&gt;Node6 -->
<g id="edge5" class="edge">
<title>Node4&#45;&gt;Node6</title>
<path fill="none" stroke="midnightblue" d="M190.65,-168.5C176.77,-151.93 146.74,-113.64 132,-76 126.19,-61.16 123.45,-43.24 122.15,-29.98"/>
<polygon fill="midnightblue" stroke="midnightblue" points="125.62,-29.41 121.35,-19.71 118.64,-29.96 125.62,-29.41"/>
</g>
<!-- Node7 -->
<g id="node7" class="node">
<title>Node7</title>
<g id="a_node7"><a xlink:href="tables_8hpp.html" target="_top" xlink:title=" ">
<polygon fill="white" stroke="black" points="141.5,-56.5 141.5,-75.5 254.5,-75.5 254.5,-56.5 141.5,-56.5"/>
<text text-anchor="middle" x="198" y="-63.5" font-family="Helvetica,sans-Serif" font-size="10.00">common/tables.hpp</text>
</a>
</g>
</g>
<!-- Node4&#45;&gt;Node7 -->
<g id="edge6" class="edge">
<title>Node4&#45;&gt;Node7</title>
<path fill="none" stroke="midnightblue" d="M198,-168.37C198,-150.62 198,-109.67 198,-85.6"/>
<polygon fill="midnightblue" stroke="midnightblue" points="201.5,-85.59 198,-75.59 194.5,-85.59 201.5,-85.59"/>
</g>
<!-- Node11 -->
<g id="node11" class="node">
<title>Node11</title>
<g id="a_node11"><a xlink:href="poliz_8hpp.html" target="_top" xlink:title=" ">
<polygon fill="white" stroke="black" points="254.5,-112.5 254.5,-131.5 361.5,-131.5 361.5,-112.5 254.5,-112.5"/>
<text text-anchor="middle" x="308" y="-119.5" font-family="Helvetica,sans-Serif" font-size="10.00">common/poliz.hpp</text>
</a>
</g>
</g>
<!-- Node4&#45;&gt;Node11 -->
<g id="edge11" class="edge">
<title>Node4&#45;&gt;Node11</title>
<path fill="none" stroke="midnightblue" d="M215.67,-168.32C233.39,-159.62 260.9,-146.12 281.29,-136.11"/>
<polygon fill="midnightblue" stroke="midnightblue" points="282.94,-139.2 290.37,-131.65 279.85,-132.92 282.94,-139.2"/>
</g>
<!-- Node13 -->
<g id="node13" class="node">
<title>Node13</title>
<g id="a_node13"><a xlink:href="stack_8hpp.html" target="_top" xlink:title=" ">
<polygon fill="white" stroke="black" points="458,-56.5 458,-75.5 568,-75.5 568,-56.5 458,-56.5"/>
<text text-anchor="middle" x="513" y="-63.5" font-family="Helvetica,sans-Serif" font-size="10.00">common/stack.hpp</text>
</a>
</g>
</g>
<!-- Node4&#45;&gt;Node13 -->
<g id="edge15" class="edge">
<title>Node4&#45;&gt;Node13</title>
<path fill="none" stroke="midnightblue" d="M238.55,-168.45C273.79,-160.54 325.93,-147.65 370,-132 412.3,-116.98 459.32,-94.4 487.5,-80.2"/>
<polygon fill="midnightblue" stroke="midnightblue" points="489.32,-83.2 496.65,-75.55 486.15,-76.96 489.32,-83.2"/>
</g>
<!-- Node7&#45;&gt;Node6 -->
<g id="edge9" class="edge">
<title>Node7&#45;&gt;Node6</title>
<path fill="none" stroke="midnightblue" d="M185.63,-56.32C173.84,-48.06 155.87,-35.45 141.86,-25.63"/>
<polygon fill="midnightblue" stroke="midnightblue" points="143.54,-22.53 133.34,-19.65 139.52,-28.26 143.54,-22.53"/>
</g>
<!-- Node8 -->
<g id="node8" class="node">
<title>Node8</title>
<g id="a_node8"><a xlink:title=" ">
<polygon fill="white" stroke="#bfbfbf" points="269.5,-0.5 269.5,-19.5 322.5,-19.5 322.5,-0.5 269.5,-0.5"/>
<text text-anchor="middle" x="296" y="-7.5" font-family="Helvetica,sans-Serif" font-size="10.00">cstddef</text>
</a>
</g>
</g>
<!-- Node7&#45;&gt;Node8 -->
<g id="edge7" class="edge">
<title>Node7&#45;&gt;Node8</title>
<path fill="none" stroke="midnightblue" d="M213.75,-56.32C229.32,-47.74 253.38,-34.49 271.46,-24.52"/>
<polygon fill="midnightblue" stroke="midnightblue" points="273.22,-27.55 280.29,-19.65 269.85,-21.42 273.22,-27.55"/>
</g>
<!-- Node9 -->
<g id="node9" class="node">
<title>Node9</title>
<g id="a_node9"><a xlink:title=" ">
<polygon fill="white" stroke="#bfbfbf" points="169.5,-0.5 169.5,-19.5 226.5,-19.5 226.5,-0.5 169.5,-0.5"/>
<text text-anchor="middle" x="198" y="-7.5" font-family="Helvetica,sans-Serif" font-size="10.00">ostream</text>
</a>
</g>
</g>
<!-- Node7&#45;&gt;Node9 -->
<g id="edge8" class="edge">
<title>Node7&#45;&gt;Node9</title>
<path fill="none" stroke="midnightblue" d="M198,-56.08C198,-49.01 198,-38.86 198,-29.99"/>
<polygon fill="midnightblue" stroke="midnightblue" points="201.5,-29.75 198,-19.75 194.5,-29.75 201.5,-29.75"/>
</g>
<!-- Node10 -->
<g id="node10" class="node">
<title>Node10</title>
<g id="a_node10"><a xlink:href="exprtype_8hpp.html" target="_top" xlink:title=" ">
<polygon fill="white" stroke="black" points="349.5,-0.5 349.5,-19.5 476.5,-19.5 476.5,-0.5 349.5,-0.5"/>
<text text-anchor="middle" x="413" y="-7.5" font-family="Helvetica,sans-Serif" font-size="10.00">common/exprtype.hpp</text>
</a>
</g>
</g>
<!-- Node7&#45;&gt;Node10 -->
<g id="edge10" class="edge">
<title>Node7&#45;&gt;Node10</title>
<path fill="none" stroke="midnightblue" d="M232.07,-56.44C269.18,-47.12 328.66,-32.18 369.21,-22"/>
<polygon fill="midnightblue" stroke="midnightblue" points="370.25,-25.35 379.09,-19.52 368.54,-18.56 370.25,-25.35"/>
</g>
<!-- Node11&#45;&gt;Node7 -->
<g id="edge12" class="edge">
<title>Node11&#45;&gt;Node7</title>
<path fill="none" stroke="midnightblue" d="M290.33,-112.32C272.61,-103.62 245.1,-90.12 224.71,-80.11"/>
<polygon fill="midnightblue" stroke="midnightblue" points="226.15,-76.92 215.63,-75.65 223.06,-83.2 226.15,-76.92"/>
</g>
<!-- Node11&#45;&gt;Node10 -->
<g id="edge13" class="edge">
<title>Node11&#45;&gt;Node10</title>
<path fill="none" stroke="midnightblue" d="M354.27,-112.49C375.2,-106.12 398.1,-95.07 411,-76 420.09,-62.57 419.61,-43.75 417.44,-29.82"/>
<polygon fill="midnightblue" stroke="midnightblue" points="420.85,-29.02 415.48,-19.89 413.98,-30.38 420.85,-29.02"/>
</g>
<!-- Node12 -->
<g id="node12" class="node">
<title>Node12</title>
<g id="a_node12"><a xlink:href="cppcheck_8hpp.html" target="_top" xlink:title=" ">
<polygon fill="white" stroke="black" points="272.5,-56.5 272.5,-75.5 401.5,-75.5 401.5,-56.5 272.5,-56.5"/>
<text text-anchor="middle" x="337" y="-63.5" font-family="Helvetica,sans-Serif" font-size="10.00">common/cppcheck.hpp</text>
</a>
</g>
</g>
<!-- Node11&#45;&gt;Node12 -->
<g id="edge14" class="edge">
<title>Node11&#45;&gt;Node12</title>
<path fill="none" stroke="midnightblue" d="M312.79,-112.08C316.76,-104.69 322.53,-93.95 327.43,-84.81"/>
<polygon fill="midnightblue" stroke="midnightblue" points="330.65,-86.22 332.3,-75.75 324.49,-82.91 330.65,-86.22"/>
</g>
<!-- Node13&#45;&gt;Node8 -->
<g id="edge16" class="edge">
<title>Node13&#45;&gt;Node8</title>
<path fill="none" stroke="midnightblue" d="M478.62,-56.44C438.73,-46.52 373.26,-30.23 332.5,-20.08"/>
<polygon fill="midnightblue" stroke="midnightblue" points="333.25,-16.66 322.7,-17.64 331.56,-23.46 333.25,-16.66"/>
</g>
<!-- Node13&#45;&gt;Node10 -->
<g id="edge18" class="edge">
<title>Node13&#45;&gt;Node10</title>
<path fill="none" stroke="midnightblue" d="M496.93,-56.32C481.04,-47.74 456.49,-34.49 438.04,-24.52"/>
<polygon fill="midnightblue" stroke="midnightblue" points="439.49,-21.33 429.03,-19.65 436.16,-27.49 439.49,-21.33"/>
</g>
<!-- Node14 -->
<g id="node14" class="node">
<title>Node14</title>
<g id="a_node14"><a xlink:href="config_8hpp.html" target="_top" xlink:title=" ">
<polygon fill="white" stroke="black" points="495,-0.5 495,-19.5 563,-19.5 563,-0.5 495,-0.5"/>
<text text-anchor="middle" x="529" y="-7.5" font-family="Helvetica,sans-Serif" font-size="10.00">config.hpp</text>
</a>
</g>
</g>
<!-- Node13&#45;&gt;Node14 -->
<g id="edge17" class="edge">
<title>Node13&#45;&gt;Node14</title>
<path fill="none" stroke="midnightblue" d="M515.64,-56.08C517.79,-48.85 520.88,-38.41 523.55,-29.4"/>
<polygon fill="midnightblue" stroke="midnightblue" points="526.92,-30.33 526.41,-19.75 520.21,-28.34 526.92,-30.33"/>
</g>
</g>
</svg>
