<?xml version="1.0" encoding="UTF-8" standalone="no"?>
<!DOCTYPE svg PUBLIC "-//W3C//DTD SVG 1.1//EN"
 "http://www.w3.org/Graphics/SVG/1.1/DTD/svg11.dtd">
<!-- Generated by graphviz version 2.43.0 (0)
 -->
<!-- Title: src/compiler Pages: 1 -->
<svg width="116pt" height="223pt"
 viewBox="0.00 0.00 115.50 223.00" xmlns="http://www.w3.org/2000/svg" xmlns:xlink="http://www.w3.org/1999/xlink">
<g id="graph0" class="graph" transform="scale(1 1) rotate(0) translate(4 219)">
<title>src/compiler</title>
<polygon fill="white" stroke="transparent" points="-4,4 -4,-219 111.5,-219 111.5,4 -4,4"/>
<g id="clust1" class="cluster">
<title>clusterdir_68267d1309a1af8e8297ef4c3efbcdba</title>
<g id="a_clust1"><a xlink:href="dir_68267d1309a1af8e8297ef4c3efbcdba.html" target="_top" xlink:title="src">
<polygon fill="#ddddee" stroke="black" points="23.5,-136 23.5,-207 99.5,-207 99.5,-136 23.5,-136"/>
<text text-anchor="middle" x="61.5" y="-195" font-family="Helvetica,sans-Serif" font-size="10.00">src</text>
</a>
</g>
</g>
<!-- dir_f13bc85843fa14191e0ad4a3a157cf60 -->
<g id="node1" class="node">
<title>dir_f13bc85843fa14191e0ad4a3a157cf60</title>
<g id="a_node1"><a xlink:href="dir_f13bc85843fa14191e0ad4a3a157cf60.html" target="_top" xlink:title="compiler">
<polygon fill="#eeeeff" stroke="black" points="91,-180 32,-180 32,-144 91,-144 91,-180"/>
<text text-anchor="middle" x="61.5" y="-159.5" font-family="Helvetica,sans-Serif" font-size="10.00">compiler</text>
</a>
</g>
</g>
<!-- dir_fef26d3633d38d4ca65fa53115b5e5dd -->
<g id="node2" class="node">
<title>dir_fef26d3633d38d4ca65fa53115b5e5dd</title>
<g id="a_node2"><a xlink:href="dir_fef26d3633d38d4ca65fa53115b5e5dd.html" target="_top" xlink:title="optimizer">
<polygon fill="none" stroke="black" points="63,-108 0,-108 0,-72 63,-72 63,-108"/>
<text text-anchor="middle" x="31.5" y="-87.5" font-family="Helvetica,sans-Serif" font-size="10.00">optimizer</text>
</a>
</g>
</g>
<!-- dir_f13bc85843fa14191e0ad4a3a157cf60&#45;&gt;dir_fef26d3633d38d4ca65fa53115b5e5dd -->
<g id="edge1" class="edge">
<title>dir_f13bc85843fa14191e0ad4a3a157cf60&#45;&gt;dir_fef26d3633d38d4ca65fa53115b5e5dd</title>
<path fill="none" stroke="black" d="M54.08,-143.7C50.71,-135.81 46.63,-126.3 42.88,-117.55"/>
<polygon fill="black" stroke="black" points="45.99,-115.92 38.83,-108.1 39.55,-118.67 45.99,-115.92"/>
<g id="a_edge1&#45;headlabel"><a xlink:href="dir_000002_000004.html" target="_top" xlink:title="1">
<text text-anchor="middle" x="50.01" y="-115.6" font-family="Helvetica,sans-Serif" font-size="10.00">1</text>
</a>
</g>
</g>
<!-- dir_fdedb0aba14d44ce9d99bc100e026e6a -->
<g id="node3" class="node">
<title>dir_fdedb0aba14d44ce9d99bc100e026e6a</title>
<g id="a_node3"><a xlink:href="dir_fdedb0aba14d44ce9d99bc100e026e6a.html" target="_top" xlink:title="common">
<polygon fill="none" stroke="black" points="91,-36 32,-36 32,0 91,0 91,-36"/>
<text text-anchor="middle" x="61.5" y="-15.5" font-family="Helvetica,sans-Serif" font-size="10.00">common</text>
</a>
</g>
</g>
<!-- dir_f13bc85843fa14191e0ad4a3a157cf60&#45;&gt;dir_fdedb0aba14d44ce9d99bc100e026e6a -->
<g id="edge2" class="edge">
<title>dir_f13bc85843fa14191e0ad4a3a157cf60&#45;&gt;dir_fdedb0aba14d44ce9d99bc100e026e6a</title>
<path fill="none" stroke="black" d="M65.96,-143.95C68.44,-133.63 71.25,-120.15 72.5,-108 74.13,-92.08 74.13,-87.92 72.5,-72 71.62,-63.46 69.97,-54.26 68.21,-45.96"/>
<polygon fill="black" stroke="black" points="71.58,-45.03 65.96,-36.05 64.76,-46.57 71.58,-45.03"/>
<g id="a_edge2&#45;headlabel"><a xlink:href="dir_000002_000001.html" target="_top" xlink:title="7">
<text text-anchor="middle" x="75.15" y="-45.41" font-family="Helvetica,sans-Serif" font-size="10.00">7</text>
</a>
</g>
</g>
<!-- dir_fef26d3633d38d4ca65fa53115b5e5dd&#45;&gt;dir_fdedb0aba14d44ce9d99bc100e026e6a -->
<g id="edge3" class="edge">
<title>dir_fef26d3633d38d4ca65fa53115b5e5dd&#45;&gt;dir_fdedb0aba14d44ce9d99bc100e026e6a</title>
<path fill="none" stroke="black" d="M38.92,-71.7C42.29,-63.81 46.37,-54.3 50.12,-45.55"/>
<polygon fill="black" stroke="black" points="53.45,-46.67 54.17,-36.1 47.01,-43.92 53.45,-46.67"/>
<g id="a_edge3&#45;headlabel"><a xlink:href="dir_000004_000001.html" target="_top" xlink:title="12">
<text text-anchor="middle" x="54.64" y="-48.6" font-family="Helvetica,sans-Serif" font-size="10.00">12</text>
</a>
</g>
</g>
</g>
</svg>
