<?xml version="1.0" encoding="UTF-8" standalone="no"?>
<!DOCTYPE svg PUBLIC "-//W3C//DTD SVG 1.1//EN"
 "http://www.w3.org/Graphics/SVG/1.1/DTD/svg11.dtd">
<!-- Generated by graphviz version 2.43.0 (0)
 -->
<!-- Title: src/debugger Pages: 1 -->
<svg width="116pt" height="239pt"
 viewBox="0.00 0.00 116.00 239.00" xmlns="http://www.w3.org/2000/svg" xmlns:xlink="http://www.w3.org/1999/xlink">
<g id="graph0" class="graph" transform="scale(1 1) rotate(0) translate(4 235)">
<title>src/debugger</title>
<polygon fill="white" stroke="transparent" points="-4,4 -4,-235 112,-235 112,4 -4,4"/>
<g id="clust1" class="cluster">
<title>clusterdir_68267d1309a1af8e8297ef4c3efbcdba</title>
<g id="a_clust1"><a xlink:href="dir_68267d1309a1af8e8297ef4c3efbcdba.html" target="_top" xlink:title="src">
<polygon fill="#ddddee" stroke="black" points="8,-8 8,-223 100,-223 100,-8 8,-8"/>
<text text-anchor="middle" x="54" y="-211" font-family="Helvetica,sans-Serif" font-size="10.00">src</text>
</a>
</g>
</g>
<!-- dir_bf9f26469d00835ba20ff8d80ee5a804 -->
<g id="node1" class="node">
<title>dir_bf9f26469d00835ba20ff8d80ee5a804</title>
<g id="a_node1"><a xlink:href="dir_bf9f26469d00835ba20ff8d80ee5a804.html" target="_top" xlink:title="runtime">
<polygon fill="none" stroke="black" points="71.5,-124 16.5,-124 16.5,-88 71.5,-88 71.5,-124"/>
<text text-anchor="middle" x="44" y="-103.5" font-family="Helvetica,sans-Serif" font-size="10.00">runtime</text>
</a>
</g>
</g>
<!-- dir_fdedb0aba14d44ce9d99bc100e026e6a -->
<g id="node2" class="node">
<title>dir_fdedb0aba14d44ce9d99bc100e026e6a</title>
<g id="a_node2"><a xlink:href="dir_fdedb0aba14d44ce9d99bc100e026e6a.html" target="_top" xlink:title="common">
<polygon fill="none" stroke="black" points="83.5,-52 24.5,-52 24.5,-16 83.5,-16 83.5,-52"/>
<text text-anchor="middle" x="54" y="-31.5" font-family="Helvetica,sans-Serif" font-size="10.00">common</text>
</a>
</g>
</g>
<!-- dir_bf9f26469d00835ba20ff8d80ee5a804&#45;&gt;dir_fdedb0aba14d44ce9d99bc100e026e6a -->
<g id="edge3" class="edge">
<title>dir_bf9f26469d00835ba20ff8d80ee5a804&#45;&gt;dir_fdedb0aba14d44ce9d99bc100e026e6a</title>
<path fill="none" stroke="black" d="M46.47,-87.7C47.57,-79.98 48.9,-70.71 50.13,-62.11"/>
<polygon fill="black" stroke="black" points="53.61,-62.5 51.56,-52.1 46.68,-61.51 53.61,-62.5"/>
<g id="a_edge3&#45;headlabel"><a xlink:href="dir_000005_000001.html" target="_top" xlink:title="5">
<text text-anchor="middle" x="55.91" y="-63.96" font-family="Helvetica,sans-Serif" font-size="10.00">5</text>
</a>
</g>
</g>
<!-- dir_3b0503ee98bf82388a1f66e962123523 -->
<g id="node3" class="node">
<title>dir_3b0503ee98bf82388a1f66e962123523</title>
<g id="a_node3"><a xlink:href="dir_3b0503ee98bf82388a1f66e962123523.html" target="_top" xlink:title="debugger">
<polygon fill="#eeeeff" stroke="black" points="85,-196 23,-196 23,-160 85,-160 85,-196"/>
<text text-anchor="middle" x="54" y="-175.5" font-family="Helvetica,sans-Serif" font-size="10.00">debugger</text>
</a>
</g>
</g>
<!-- dir_3b0503ee98bf82388a1f66e962123523&#45;&gt;dir_bf9f26469d00835ba20ff8d80ee5a804 -->
<g id="edge1" class="edge">
<title>dir_3b0503ee98bf82388a1f66e962123523&#45;&gt;dir_bf9f26469d00835ba20ff8d80ee5a804</title>
<path fill="none" stroke="black" d="M51.53,-159.7C50.43,-151.98 49.1,-142.71 47.87,-134.11"/>
<polygon fill="black" stroke="black" points="51.32,-133.51 46.44,-124.1 44.39,-134.5 51.32,-133.51"/>
<g id="a_edge1&#45;headlabel"><a xlink:href="dir_000003_000005.html" target="_top" xlink:title="1">
<text text-anchor="middle" x="54.64" y="-134.17" font-family="Helvetica,sans-Serif" font-size="10.00">1</text>
</a>
</g>
</g>
<!-- dir_3b0503ee98bf82388a1f66e962123523&#45;&gt;dir_fdedb0aba14d44ce9d99bc100e026e6a -->
<g id="edge2" class="edge">
<title>dir_3b0503ee98bf82388a1f66e962123523&#45;&gt;dir_fdedb0aba14d44ce9d99bc100e026e6a</title>
<path fill="none" stroke="black" d="M65.47,-159.67C71.37,-149.69 77.96,-136.65 81,-124 84.73,-108.44 84.73,-103.56 81,-88 78.79,-78.81 74.71,-69.41 70.38,-61.13"/>
<polygon fill="black" stroke="black" points="73.4,-59.36 65.47,-52.33 67.28,-62.77 73.4,-59.36"/>
<g id="a_edge2&#45;headlabel"><a xlink:href="dir_000003_000001.html" target="_top" xlink:title="1">
<text text-anchor="middle" x="77.63" y="-58.61" font-family="Helvetica,sans-Serif" font-size="10.00">1</text>
</a>
</g>
</g>
</g>
</svg>
