<?xml version="1.0" encoding="UTF-8" standalone="no"?>
<!DOCTYPE svg PUBLIC "-//W3C//DTD SVG 1.1//EN"
 "http://www.w3.org/Graphics/SVG/1.1/DTD/svg11.dtd">
<!-- Generated by graphviz version 2.43.0 (0)
 -->
<!-- Title: src Pages: 1 -->
<svg width="218pt" height="292pt"
 viewBox="0.00 0.00 218.00 292.00" xmlns="http://www.w3.org/2000/svg" xmlns:xlink="http://www.w3.org/1999/xlink">
<g id="graph0" class="graph" transform="scale(1 1) rotate(0) translate(4 288)">
<title>src</title>
<polygon fill="white" stroke="transparent" points="-4,4 -4,-288 214,-288 214,4 -4,4"/>
<g id="clust1" class="cluster">
<title>clusterdir_68267d1309a1af8e8297ef4c3efbcdba</title>
<g id="a_clust1"><a xlink:href="dir_68267d1309a1af8e8297ef4c3efbcdba.html" target="_top">
<polygon fill="#eeeeff" stroke="black" points="8,-8 8,-276 202,-276 202,-8 8,-8"/>
</a>
</g>
</g>
<!-- dir_68267d1309a1af8e8297ef4c3efbcdba -->
<g id="node1" class="node">
<title>dir_68267d1309a1af8e8297ef4c3efbcdba</title>
<text text-anchor="middle" x="96" y="-247.5" font-family="Helvetica,sans-Serif" font-size="10.00">src</text>
</g>
<!-- dir_f13bc85843fa14191e0ad4a3a157cf60 -->
<g id="node3" class="node">
<title>dir_f13bc85843fa14191e0ad4a3a157cf60</title>
<g id="a_node3"><a xlink:href="dir_f13bc85843fa14191e0ad4a3a157cf60.html" target="_top" xlink:title="compiler">
<polygon fill="white" stroke="black" points="86.5,-196 27.5,-196 27.5,-160 86.5,-160 86.5,-196"/>
<text text-anchor="middle" x="57" y="-175.5" font-family="Helvetica,sans-Serif" font-size="10.00">compiler</text>
</a>
</g>
</g>
<!-- dir_68267d1309a1af8e8297ef4c3efbcdba&#45;&gt;dir_f13bc85843fa14191e0ad4a3a157cf60 -->
<g id="edge1" class="edge">
<title>dir_68267d1309a1af8e8297ef4c3efbcdba&#45;&gt;dir_f13bc85843fa14191e0ad4a3a157cf60</title>
<path fill="none" stroke="black" d="M86.36,-231.7C81.87,-223.64 76.44,-213.89 71.48,-204.98"/>
<polygon fill="black" stroke="black" points="74.45,-203.14 66.53,-196.1 68.34,-206.54 74.45,-203.14"/>
<g id="a_edge1&#45;headlabel"><a xlink:href="dir_000000_000002.html" target="_top" xlink:title="1">
<text text-anchor="middle" x="78.68" y="-202.39" font-family="Helvetica,sans-Serif" font-size="10.00">1</text>
</a>
</g>
</g>
<!-- dir_3b0503ee98bf82388a1f66e962123523 -->
<g id="node4" class="node">
<title>dir_3b0503ee98bf82388a1f66e962123523</title>
<g id="a_node4"><a xlink:href="dir_3b0503ee98bf82388a1f66e962123523.html" target="_top" xlink:title="debugger">
<polygon fill="white" stroke="black" points="167,-196 105,-196 105,-160 167,-160 167,-196"/>
<text text-anchor="middle" x="136" y="-175.5" font-family="Helvetica,sans-Serif" font-size="10.00">debugger</text>
</a>
</g>
</g>
<!-- dir_68267d1309a1af8e8297ef4c3efbcdba&#45;&gt;dir_3b0503ee98bf82388a1f66e962123523 -->
<g id="edge2" class="edge">
<title>dir_68267d1309a1af8e8297ef4c3efbcdba&#45;&gt;dir_3b0503ee98bf82388a1f66e962123523</title>
<path fill="none" stroke="black" d="M105.89,-231.7C110.49,-223.64 116.06,-213.89 121.15,-204.98"/>
<polygon fill="black" stroke="black" points="124.3,-206.52 126.23,-196.1 118.23,-203.05 124.3,-206.52"/>
<g id="a_edge2&#45;headlabel"><a xlink:href="dir_000000_000003.html" target="_top" xlink:title="1">
<text text-anchor="middle" x="124.99" y="-208.55" font-family="Helvetica,sans-Serif" font-size="10.00">1</text>
</a>
</g>
</g>
<!-- dir_fdedb0aba14d44ce9d99bc100e026e6a -->
<g id="node2" class="node">
<title>dir_fdedb0aba14d44ce9d99bc100e026e6a</title>
<g id="a_node2"><a xlink:href="dir_fdedb0aba14d44ce9d99bc100e026e6a.html" target="_top" xlink:title="common">
<polygon fill="white" stroke="black" points="122.5,-52 63.5,-52 63.5,-16 122.5,-16 122.5,-52"/>
<text text-anchor="middle" x="93" y="-31.5" font-family="Helvetica,sans-Serif" font-size="10.00">common</text>
</a>
</g>
</g>
<!-- dir_f13bc85843fa14191e0ad4a3a157cf60&#45;&gt;dir_fdedb0aba14d44ce9d99bc100e026e6a -->
<g id="edge4" class="edge">
<title>dir_f13bc85843fa14191e0ad4a3a157cf60&#45;&gt;dir_fdedb0aba14d44ce9d99bc100e026e6a</title>
<path fill="none" stroke="black" d="M43.45,-159.79C30.81,-141.49 15.51,-111.97 27,-88 33.08,-75.33 43.82,-64.73 54.9,-56.42"/>
<polygon fill="black" stroke="black" points="57.16,-59.11 63.37,-50.52 53.16,-53.37 57.16,-59.11"/>
<g id="a_edge4&#45;headlabel"><a xlink:href="dir_000002_000001.html" target="_top" xlink:title="7">
<text text-anchor="middle" x="55.84" y="-60.99" font-family="Helvetica,sans-Serif" font-size="10.00">7</text>
</a>
</g>
</g>
<!-- dir_fef26d3633d38d4ca65fa53115b5e5dd -->
<g id="node5" class="node">
<title>dir_fef26d3633d38d4ca65fa53115b5e5dd</title>
<g id="a_node5"><a xlink:href="dir_fef26d3633d38d4ca65fa53115b5e5dd.html" target="_top" xlink:title="optimizer">
<polygon fill="white" stroke="black" points="99.5,-124 36.5,-124 36.5,-88 99.5,-88 99.5,-124"/>
<text text-anchor="middle" x="68" y="-103.5" font-family="Helvetica,sans-Serif" font-size="10.00">optimizer</text>
</a>
</g>
</g>
<!-- dir_f13bc85843fa14191e0ad4a3a157cf60&#45;&gt;dir_fef26d3633d38d4ca65fa53115b5e5dd -->
<g id="edge3" class="edge">
<title>dir_f13bc85843fa14191e0ad4a3a157cf60&#45;&gt;dir_fef26d3633d38d4ca65fa53115b5e5dd</title>
<path fill="none" stroke="black" d="M59.72,-159.7C60.93,-151.98 62.39,-142.71 63.74,-134.11"/>
<polygon fill="black" stroke="black" points="67.22,-134.53 65.31,-124.1 60.3,-133.44 67.22,-134.53"/>
<g id="a_edge3&#45;headlabel"><a xlink:href="dir_000002_000004.html" target="_top" xlink:title="1">
<text text-anchor="middle" x="69.46" y="-136.02" font-family="Helvetica,sans-Serif" font-size="10.00">1</text>
</a>
</g>
</g>
<!-- dir_3b0503ee98bf82388a1f66e962123523&#45;&gt;dir_fdedb0aba14d44ce9d99bc100e026e6a -->
<g id="edge7" class="edge">
<title>dir_3b0503ee98bf82388a1f66e962123523&#45;&gt;dir_fdedb0aba14d44ce9d99bc100e026e6a</title>
<path fill="none" stroke="black" d="M130.81,-159.87C123.45,-135.56 109.9,-90.82 101.18,-62.01"/>
<polygon fill="black" stroke="black" points="104.45,-60.75 98.21,-52.19 97.75,-62.77 104.45,-60.75"/>
<g id="a_edge7&#45;headlabel"><a xlink:href="dir_000003_000001.html" target="_top" xlink:title="1">
<text text-anchor="middle" x="108.21" y="-60.86" font-family="Helvetica,sans-Serif" font-size="10.00">1</text>
</a>
</g>
</g>
<!-- dir_bf9f26469d00835ba20ff8d80ee5a804 -->
<g id="node6" class="node">
<title>dir_bf9f26469d00835ba20ff8d80ee5a804</title>
<g id="a_node6"><a xlink:href="dir_bf9f26469d00835ba20ff8d80ee5a804.html" target="_top" xlink:title="runtime">
<polygon fill="white" stroke="black" points="193.5,-124 138.5,-124 138.5,-88 193.5,-88 193.5,-124"/>
<text text-anchor="middle" x="166" y="-103.5" font-family="Helvetica,sans-Serif" font-size="10.00">runtime</text>
</a>
</g>
</g>
<!-- dir_3b0503ee98bf82388a1f66e962123523&#45;&gt;dir_bf9f26469d00835ba20ff8d80ee5a804 -->
<g id="edge6" class="edge">
<title>dir_3b0503ee98bf82388a1f66e962123523&#45;&gt;dir_bf9f26469d00835ba20ff8d80ee5a804</title>
<path fill="none" stroke="black" d="M143.42,-159.7C146.79,-151.81 150.87,-142.3 154.62,-133.55"/>
<polygon fill="black" stroke="black" points="157.95,-134.67 158.67,-124.1 151.51,-131.92 157.95,-134.67"/>
<g id="a_edge6&#45;headlabel"><a xlink:href="dir_000003_000005.html" target="_top" xlink:title="1">
<text text-anchor="middle" x="159.14" y="-136.6" font-family="Helvetica,sans-Serif" font-size="10.00">1</text>
</a>
</g>
</g>
<!-- dir_fef26d3633d38d4ca65fa53115b5e5dd&#45;&gt;dir_fdedb0aba14d44ce9d99bc100e026e6a -->
<g id="edge5" class="edge">
<title>dir_fef26d3633d38d4ca65fa53115b5e5dd&#45;&gt;dir_fdedb0aba14d44ce9d99bc100e026e6a</title>
<path fill="none" stroke="black" d="M74.18,-87.7C77,-79.81 80.39,-70.3 83.52,-61.55"/>
<polygon fill="black" stroke="black" points="86.82,-62.7 86.89,-52.1 80.23,-60.34 86.82,-62.7"/>
<g id="a_edge5&#45;headlabel"><a xlink:href="dir_000004_000001.html" target="_top" xlink:title="12">
<text text-anchor="middle" x="88.29" y="-64.54" font-family="Helvetica,sans-Serif" font-size="10.00">12</text>
</a>
</g>
</g>
<!-- dir_bf9f26469d00835ba20ff8d80ee5a804&#45;&gt;dir_fdedb0aba14d44ce9d99bc100e026e6a -->
<g id="edge8" class="edge">
<title>dir_bf9f26469d00835ba20ff8d80ee5a804&#45;&gt;dir_fdedb0aba14d44ce9d99bc100e026e6a</title>
<path fill="none" stroke="black" d="M147.96,-87.7C138.94,-79.05 127.88,-68.45 118.06,-59.03"/>
<polygon fill="black" stroke="black" points="120.48,-56.5 110.84,-52.1 115.63,-61.55 120.48,-56.5"/>
<g id="a_edge8&#45;headlabel"><a xlink:href="dir_000005_000001.html" target="_top" xlink:title="5">
<text text-anchor="middle" x="125.04" y="-54.44" font-family="Helvetica,sans-Serif" font-size="10.00">5</text>
</a>
</g>
</g>
</g>
</svg>
