<?xml version="1.0" encoding="UTF-8" standalone="no"?>
<!DOCTYPE svg PUBLIC "-//W3C//DTD SVG 1.1//EN"
 "http://www.w3.org/Graphics/SVG/1.1/DTD/svg11.dtd">
<!-- Generated by graphviz version 2.43.0 (0)
 -->
<!-- Title: src/compiler Pages: 1 -->
<svg width="124pt" height="239pt"
 viewBox="0.00 0.00 124.00 239.00" xmlns="http://www.w3.org/2000/svg" xmlns:xlink="http://www.w3.org/1999/xlink">
<g id="graph0" class="graph" transform="scale(1 1) rotate(0) translate(4 235)">
<title>src/compiler</title>
<polygon fill="white" stroke="transparent" points="-4,4 -4,-235 120,-235 120,4 -4,4"/>
<g id="clust1" class="cluster">
<title>clusterdir_68267d1309a1af8e8297ef4c3efbcdba</title>
<g id="a_clust1"><a xlink:href="dir_68267d1309a1af8e8297ef4c3efbcdba.html" target="_top" xlink:title="src">
<polygon fill="#ddddee" stroke="black" points="8,-8 8,-223 108,-223 108,-8 8,-8"/>
<text text-anchor="middle" x="58" y="-211" font-family="Helvetica,sans-Serif" font-size="10.00">src</text>
</a>
</g>
</g>
<!-- dir_fdedb0aba14d44ce9d99bc100e026e6a -->
<g id="node1" class="node">
<title>dir_fdedb0aba14d44ce9d99bc100e026e6a</title>
<g id="a_node1"><a xlink:href="dir_fdedb0aba14d44ce9d99bc100e026e6a.html" target="_top" xlink:title="common">
<polygon fill="none" stroke="black" points="86.5,-52 27.5,-52 27.5,-16 86.5,-16 86.5,-52"/>
<text text-anchor="middle" x="57" y="-31.5" font-family="Helvetica,sans-Serif" font-size="10.00">common</text>
</a>
</g>
</g>
<!-- dir_fef26d3633d38d4ca65fa53115b5e5dd -->
<g id="node2" class="node">
<title>dir_fef26d3633d38d4ca65fa53115b5e5dd</title>
<g id="a_node2"><a xlink:href="dir_fef26d3633d38d4ca65fa53115b5e5dd.html" target="_top" xlink:title="optimizer">
<polygon fill="none" stroke="black" points="99.5,-124 36.5,-124 36.5,-88 99.5,-88 99.5,-124"/>
<text text-anchor="middle" x="68" y="-103.5" font-family="Helvetica,sans-Serif" font-size="10.00">optimizer</text>
</a>
</g>
</g>
<!-- dir_fef26d3633d38d4ca65fa53115b5e5dd&#45;&gt;dir_fdedb0aba14d44ce9d99bc100e026e6a -->
<g id="edge3" class="edge">
<title>dir_fef26d3633d38d4ca65fa53115b5e5dd&#45;&gt;dir_fdedb0aba14d44ce9d99bc100e026e6a</title>
<path fill="none" stroke="black" d="M65.28,-87.7C64.07,-79.98 62.61,-70.71 61.26,-62.11"/>
<polygon fill="black" stroke="black" points="64.7,-61.44 59.69,-52.1 57.78,-62.53 64.7,-61.44"/>
<g id="a_edge3&#45;headlabel"><a xlink:href="dir_000004_000001.html" target="_top" xlink:title="12">
<text text-anchor="middle" x="68.06" y="-62.05" font-family="Helvetica,sans-Serif" font-size="10.00">12</text>
</a>
</g>
</g>
<!-- dir_f13bc85843fa14191e0ad4a3a157cf60 -->
<g id="node3" class="node">
<title>dir_f13bc85843fa14191e0ad4a3a157cf60</title>
<g id="a_node3"><a xlink:href="dir_f13bc85843fa14191e0ad4a3a157cf60.html" target="_top" xlink:title="compiler">
<polygon fill="#eeeeff" stroke="black" points="86.5,-196 27.5,-196 27.5,-160 86.5,-160 86.5,-196"/>
<text text-anchor="middle" x="57" y="-175.5" font-family="Helvetica,sans-Serif" font-size="10.00">compiler</text>
</a>
</g>
</g>
<!-- dir_f13bc85843fa14191e0ad4a3a157cf60&#45;&gt;dir_fdedb0aba14d44ce9d99bc100e026e6a -->
<g id="edge1" class="edge">
<title>dir_f13bc85843fa14191e0ad4a3a157cf60&#45;&gt;dir_fdedb0aba14d44ce9d99bc100e026e6a</title>
<path fill="none" stroke="black" d="M44.27,-159.85C37.71,-149.92 30.39,-136.88 27,-124 22.92,-108.53 22.92,-103.47 27,-88 29.49,-78.54 34.1,-68.99 38.97,-60.66"/>
<polygon fill="black" stroke="black" points="41.95,-62.49 44.27,-52.15 36.01,-58.79 41.95,-62.49"/>
<g id="a_edge1&#45;headlabel"><a xlink:href="dir_000002_000001.html" target="_top" xlink:title="7">
<text text-anchor="middle" x="42.46" y="-64.54" font-family="Helvetica,sans-Serif" font-size="10.00">7</text>
</a>
</g>
</g>
<!-- dir_f13bc85843fa14191e0ad4a3a157cf60&#45;&gt;dir_fef26d3633d38d4ca65fa53115b5e5dd -->
<g id="edge2" class="edge">
<title>dir_f13bc85843fa14191e0ad4a3a157cf60&#45;&gt;dir_fef26d3633d38d4ca65fa53115b5e5dd</title>
<path fill="none" stroke="black" d="M59.72,-159.7C60.93,-151.98 62.39,-142.71 63.74,-134.11"/>
<polygon fill="black" stroke="black" points="67.22,-134.53 65.31,-124.1 60.3,-133.44 67.22,-134.53"/>
<g id="a_edge2&#45;headlabel"><a xlink:href="dir_000002_000004.html" target="_top" xlink:title="1">
<text text-anchor="middle" x="69.46" y="-136.02" font-family="Helvetica,sans-Serif" font-size="10.00">1</text>
</a>
</g>
</g>
</g>
</svg>
