<?xml version="1.0" encoding="UTF-8" standalone="no"?>
<!DOCTYPE svg PUBLIC "-//W3C//DTD SVG 1.1//EN"
 "http://www.w3.org/Graphics/SVG/1.1/DTD/svg11.dtd">
<!-- Generated by graphviz version 2.43.0 (0)
 -->
<!-- Title: src/debugger Pages: 1 -->
<svg width="111pt" height="223pt"
 viewBox="0.00 0.00 110.50 223.00" xmlns="http://www.w3.org/2000/svg" xmlns:xlink="http://www.w3.org/1999/xlink">
<g id="graph0" class="graph" transform="scale(1 1) rotate(0) translate(4 219)">
<title>src/debugger</title>
<polygon fill="white" stroke="transparent" points="-4,4 -4,-219 106.5,-219 106.5,4 -4,4"/>
<g id="clust1" class="cluster">
<title>clusterdir_68267d1309a1af8e8297ef4c3efbcdba</title>
<g id="a_clust1"><a xlink:href="dir_68267d1309a1af8e8297ef4c3efbcdba.html" target="_top" xlink:title="src">
<polygon fill="#ddddee" stroke="black" points="16.5,-136 16.5,-207 94.5,-207 94.5,-136 16.5,-136"/>
<text text-anchor="middle" x="55.5" y="-195" font-family="Helvetica,sans-Serif" font-size="10.00">src</text>
</a>
</g>
</g>
<!-- dir_3b0503ee98bf82388a1f66e962123523 -->
<g id="node1" class="node">
<title>dir_3b0503ee98bf82388a1f66e962123523</title>
<g id="a_node1"><a xlink:href="dir_3b0503ee98bf82388a1f66e962123523.html" target="_top" xlink:title="debugger">
<polygon fill="#eeeeff" stroke="black" points="86.5,-180 24.5,-180 24.5,-144 86.5,-144 86.5,-180"/>
<text text-anchor="middle" x="55.5" y="-159.5" font-family="Helvetica,sans-Serif" font-size="10.00">debugger</text>
</a>
</g>
</g>
<!-- dir_bf9f26469d00835ba20ff8d80ee5a804 -->
<g id="node2" class="node">
<title>dir_bf9f26469d00835ba20ff8d80ee5a804</title>
<g id="a_node2"><a xlink:href="dir_bf9f26469d00835ba20ff8d80ee5a804.html" target="_top" xlink:title="runtime">
<polygon fill="none" stroke="black" points="55,-108 0,-108 0,-72 55,-72 55,-108"/>
<text text-anchor="middle" x="27.5" y="-87.5" font-family="Helvetica,sans-Serif" font-size="10.00">runtime</text>
</a>
</g>
</g>
<!-- dir_3b0503ee98bf82388a1f66e962123523&#45;&gt;dir_bf9f26469d00835ba20ff8d80ee5a804 -->
<g id="edge1" class="edge">
<title>dir_3b0503ee98bf82388a1f66e962123523&#45;&gt;dir_bf9f26469d00835ba20ff8d80ee5a804</title>
<path fill="none" stroke="black" d="M48.58,-143.7C45.43,-135.81 41.62,-126.3 38.12,-117.55"/>
<polygon fill="black" stroke="black" points="41.31,-116.09 34.34,-108.1 34.81,-118.69 41.31,-116.09"/>
<g id="a_edge1&#45;headlabel"><a xlink:href="dir_000003_000005.html" target="_top" xlink:title="1">
<text text-anchor="middle" x="45.28" y="-115.87" font-family="Helvetica,sans-Serif" font-size="10.00">1</text>
</a>
</g>
</g>
<!-- dir_fdedb0aba14d44ce9d99bc100e026e6a -->
<g id="node3" class="node">
<title>dir_fdedb0aba14d44ce9d99bc100e026e6a</title>
<g id="a_node3"><a xlink:href="dir_fdedb0aba14d44ce9d99bc100e026e6a.html" target="_top" xlink:title="common">
<polygon fill="none" stroke="black" points="85,-36 26,-36 26,0 85,0 85,-36"/>
<text text-anchor="middle" x="55.5" y="-15.5" font-family="Helvetica,sans-Serif" font-size="10.00">common</text>
</a>
</g>
</g>
<!-- dir_3b0503ee98bf82388a1f66e962123523&#45;&gt;dir_fdedb0aba14d44ce9d99bc100e026e6a -->
<g id="edge2" class="edge">
<title>dir_3b0503ee98bf82388a1f66e962123523&#45;&gt;dir_fdedb0aba14d44ce9d99bc100e026e6a</title>
<path fill="none" stroke="black" d="M59.15,-143.91C61.18,-133.57 63.48,-120.09 64.5,-108 65.84,-92.06 65.84,-87.94 64.5,-72 63.78,-63.5 62.43,-54.31 60.99,-46.01"/>
<polygon fill="black" stroke="black" points="64.41,-45.29 59.15,-36.09 57.53,-46.56 64.41,-45.29"/>
<g id="a_edge2&#45;headlabel"><a xlink:href="dir_000003_000001.html" target="_top" xlink:title="1">
<text text-anchor="middle" x="67.86" y="-45.81" font-family="Helvetica,sans-Serif" font-size="10.00">1</text>
</a>
</g>
</g>
<!-- dir_bf9f26469d00835ba20ff8d80ee5a804&#45;&gt;dir_fdedb0aba14d44ce9d99bc100e026e6a -->
<g id="edge3" class="edge">
<title>dir_bf9f26469d00835ba20ff8d80ee5a804&#45;&gt;dir_fdedb0aba14d44ce9d99bc100e026e6a</title>
<path fill="none" stroke="black" d="M34.42,-71.7C37.57,-63.81 41.38,-54.3 44.88,-45.55"/>
<polygon fill="black" stroke="black" points="48.19,-46.69 48.66,-36.1 41.69,-44.09 48.19,-46.69"/>
<g id="a_edge3&#45;headlabel"><a xlink:href="dir_000005_000001.html" target="_top" xlink:title="5">
<text text-anchor="middle" x="49.5" y="-48.58" font-family="Helvetica,sans-Serif" font-size="10.00">5</text>
</a>
</g>
</g>
</g>
</svg>
