<?xml version="1.0" encoding="UTF-8" standalone="no"?>
<!DOCTYPE svg PUBLIC "-//W3C//DTD SVG 1.1//EN"
 "http://www.w3.org/Graphics/SVG/1.1/DTD/svg11.dtd">
<!-- Generated by graphviz version 2.43.0 (0)
 -->
<!-- Title: src/common/exprtype.hpp Pages: 1 -->
<svg width="1660pt" height="364pt"
 viewBox="0.00 0.00 1659.50 364.00" xmlns="http://www.w3.org/2000/svg" xmlns:xlink="http://www.w3.org/1999/xlink">
<g id="graph0" class="graph" transform="scale(1 1) rotate(0) translate(4 360)">
<title>src/common/exprtype.hpp</title>
<polygon fill="white" stroke="transparent" points="-4,4 -4,-360 1655.5,-360 1655.5,4 -4,4"/>
<!-- Node1 -->
<g id="node1" class="node">
<title>Node1</title>
<g id="a_node1"><a xlink:title=" ">
<polygon fill="#bfbfbf" stroke="black" points="1060.5,-336.5 1060.5,-355.5 1204.5,-355.5 1204.5,-336.5 1060.5,-336.5"/>
<text text-anchor="middle" x="1132.5" y="-343.5" font-family="Helvetica,sans-Serif" font-size="10.00">src/common/exprtype.hpp</text>
</a>
</g>
</g>
<!-- Node2 -->
<g id="node2" class="node">
<title>Node2</title>
<g id="a_node2"><a xlink:href="exprtype_8cpp.html" target="_top" xlink:title=" ">
<polygon fill="white" stroke="black" points="0,-280.5 0,-299.5 143,-299.5 143,-280.5 0,-280.5"/>
<text text-anchor="middle" x="71.5" y="-287.5" font-family="Helvetica,sans-Serif" font-size="10.00">src/common/exprtype.cpp</text>
</a>
</g>
</g>
<!-- Node1&#45;&gt;Node2 -->
<g id="edge1" class="edge">
<title>Node1&#45;&gt;Node2</title>
<path fill="none" stroke="midnightblue" d="M1050.24,-342.82C882.28,-338.01 487.85,-324.89 157.5,-300 152.86,-299.65 148.08,-299.25 143.27,-298.83"/>
<polygon fill="midnightblue" stroke="midnightblue" points="1050.15,-346.32 1060.25,-343.1 1050.35,-339.32 1050.15,-346.32"/>
</g>
<!-- Node3 -->
<g id="node3" class="node">
<title>Node3</title>
<g id="a_node3"><a xlink:href="poliz_8hpp.html" target="_top" xlink:title=" ">
<polygon fill="white" stroke="black" points="735.5,-224.5 735.5,-243.5 859.5,-243.5 859.5,-224.5 735.5,-224.5"/>
<text text-anchor="middle" x="797.5" y="-231.5" font-family="Helvetica,sans-Serif" font-size="10.00">src/common/poliz.hpp</text>
</a>
</g>
</g>
<!-- Node1&#45;&gt;Node3 -->
<g id="edge2" class="edge">
<title>Node1&#45;&gt;Node3</title>
<path fill="none" stroke="midnightblue" d="M1050.39,-335.35C1006.92,-328.57 953.23,-317.5 907.5,-300 868.97,-285.25 828.36,-257.62 809.03,-243.61"/>
<polygon fill="midnightblue" stroke="midnightblue" points="1049.94,-338.82 1060.35,-336.86 1050.98,-331.9 1049.94,-338.82"/>
</g>
<!-- Node5 -->
<g id="node5" class="node">
<title>Node5</title>
<g id="a_node5"><a xlink:href="parser_8hpp.html" target="_top" xlink:title=" ">
<polygon fill="white" stroke="black" points="993,-56.5 993,-75.5 1124,-75.5 1124,-56.5 993,-56.5"/>
<text text-anchor="middle" x="1058.5" y="-63.5" font-family="Helvetica,sans-Serif" font-size="10.00">src/compiler/parser.hpp</text>
</a>
</g>
</g>
<!-- Node1&#45;&gt;Node5 -->
<g id="edge46" class="edge">
<title>Node1&#45;&gt;Node5</title>
<path fill="none" stroke="midnightblue" d="M1153.54,-330.02C1183.65,-306.71 1232.68,-260.66 1206.5,-224 1177.83,-183.86 1136.58,-222.69 1101.5,-188 1069,-155.86 1060.98,-97.6 1059.07,-75.67"/>
<polygon fill="midnightblue" stroke="midnightblue" points="1151.16,-327.42 1145.26,-336.22 1155.36,-333.02 1151.16,-327.42"/>
</g>
<!-- Node6 -->
<g id="node6" class="node">
<title>Node6</title>
<g id="a_node6"><a xlink:href="parser_8cpp.html" target="_top" xlink:title=" ">
<polygon fill="white" stroke="black" points="1510.5,-0.5 1510.5,-19.5 1640.5,-19.5 1640.5,-0.5 1510.5,-0.5"/>
<text text-anchor="middle" x="1575.5" y="-7.5" font-family="Helvetica,sans-Serif" font-size="10.00">src/compiler/parser.cpp</text>
</a>
</g>
</g>
<!-- Node1&#45;&gt;Node6 -->
<g id="edge45" class="edge">
<title>Node1&#45;&gt;Node6</title>
<path fill="none" stroke="midnightblue" d="M1214.95,-344.36C1361.37,-340.98 1651.5,-323.15 1651.5,-235 1651.5,-235 1651.5,-235 1651.5,-121 1651.5,-76.2 1608.3,-36.43 1587.04,-19.57"/>
<polygon fill="midnightblue" stroke="midnightblue" points="1214.59,-340.87 1204.66,-344.58 1214.74,-347.87 1214.59,-340.87"/>
</g>
<!-- Node10 -->
<g id="node10" class="node">
<title>Node10</title>
<g id="a_node10"><a xlink:href="debugger_8cpp.html" target="_top" xlink:title=" ">
<polygon fill="white" stroke="black" points="1384.5,-56.5 1384.5,-75.5 1532.5,-75.5 1532.5,-56.5 1384.5,-56.5"/>
<text text-anchor="middle" x="1458.5" y="-63.5" font-family="Helvetica,sans-Serif" font-size="10.00">src/debugger/debugger.cpp</text>
</a>
</g>
</g>
<!-- Node1&#45;&gt;Node10 -->
<g id="edge47" class="edge">
<title>Node1&#45;&gt;Node10</title>
<path fill="none" stroke="midnightblue" d="M1214.58,-342.95C1351.95,-337.28 1613.5,-315.86 1613.5,-235 1613.5,-235 1613.5,-235 1613.5,-177 1613.5,-119.09 1540.65,-88.88 1494.84,-75.61"/>
<polygon fill="midnightblue" stroke="midnightblue" points="1214.36,-339.46 1204.51,-343.35 1214.64,-346.45 1214.36,-339.46"/>
</g>
<!-- Node13 -->
<g id="node13" class="node">
<title>Node13</title>
<g id="a_node13"><a xlink:href="vmachine_8cpp.html" target="_top" xlink:title=" ">
<polygon fill="white" stroke="black" points="1404,-112.5 1404,-131.5 1547,-131.5 1547,-112.5 1404,-112.5"/>
<text text-anchor="middle" x="1475.5" y="-119.5" font-family="Helvetica,sans-Serif" font-size="10.00">src/runtime/vmachine.cpp</text>
</a>
</g>
</g>
<!-- Node1&#45;&gt;Node13 -->
<g id="edge51" class="edge">
<title>Node1&#45;&gt;Node13</title>
<path fill="none" stroke="midnightblue" d="M1214.96,-341.42C1273.46,-336.65 1352.9,-325.6 1418.5,-300 1460.3,-283.69 1481.33,-283.56 1502.5,-244 1523.02,-205.67 1494.34,-152.49 1481.34,-131.76"/>
<polygon fill="midnightblue" stroke="midnightblue" points="1214.36,-337.96 1204.66,-342.21 1214.89,-344.94 1214.36,-337.96"/>
</g>
<!-- Node14 -->
<g id="node14" class="node">
<title>Node14</title>
<g id="a_node14"><a xlink:href="acyclicgraph_8hpp.html" target="_top" xlink:title=" ">
<polygon fill="white" stroke="black" points="237.5,-168.5 237.5,-187.5 403.5,-187.5 403.5,-168.5 237.5,-168.5"/>
<text text-anchor="middle" x="320.5" y="-175.5" font-family="Helvetica,sans-Serif" font-size="10.00">src/optimizer/acyclicgraph.hpp</text>
</a>
</g>
</g>
<!-- Node1&#45;&gt;Node14 -->
<g id="edge49" class="edge">
<title>Node1&#45;&gt;Node14</title>
<path fill="none" stroke="midnightblue" d="M1067.92,-334.92C1013.15,-326.2 932.55,-312.99 862.5,-300 740.29,-277.33 709.81,-271.1 588.5,-244 503.93,-225.11 404.97,-200.44 354.25,-187.6"/>
<polygon fill="midnightblue" stroke="midnightblue" points="1067.42,-338.38 1077.84,-336.49 1068.51,-331.46 1067.42,-338.38"/>
</g>
<!-- Node15 -->
<g id="node15" class="node">
<title>Node15</title>
<g id="a_node15"><a xlink:href="acyclicgraph_8cpp.html" target="_top" xlink:title=" ">
<polygon fill="white" stroke="black" points="238,-112.5 238,-131.5 403,-131.5 403,-112.5 238,-112.5"/>
<text text-anchor="middle" x="320.5" y="-119.5" font-family="Helvetica,sans-Serif" font-size="10.00">src/optimizer/acyclicgraph.cpp</text>
</a>
</g>
</g>
<!-- Node1&#45;&gt;Node15 -->
<g id="edge48" class="edge">
<title>Node1&#45;&gt;Node15</title>
<path fill="none" stroke="midnightblue" d="M1050.41,-343.88C847.45,-339.16 331.06,-314.7 228.5,-188 207.71,-162.31 254.46,-142.21 288.64,-131.52"/>
<polygon fill="midnightblue" stroke="midnightblue" points="1050.34,-347.38 1060.42,-344.1 1050.5,-340.38 1050.34,-347.38"/>
</g>
<!-- Node17 -->
<g id="node17" class="node">
<title>Node17</title>
<g id="a_node17"><a xlink:href="optimizer_8cpp.html" target="_top" xlink:title=" ">
<polygon fill="white" stroke="black" points="377,-56.5 377,-75.5 526,-75.5 526,-56.5 377,-56.5"/>
<text text-anchor="middle" x="451.5" y="-63.5" font-family="Helvetica,sans-Serif" font-size="10.00">src/optimizer/optimizer.cpp</text>
</a>
</g>
</g>
<!-- Node1&#45;&gt;Node17 -->
<g id="edge50" class="edge">
<title>Node1&#45;&gt;Node17</title>
<path fill="none" stroke="midnightblue" d="M1050.17,-344.16C817.43,-340.68 171.5,-323.11 171.5,-235 171.5,-235 171.5,-235 171.5,-177 171.5,-138.58 195.25,-131.26 228.5,-112 273.61,-85.87 331.49,-74.72 376.98,-70.05"/>
<polygon fill="midnightblue" stroke="midnightblue" points="1050.22,-347.66 1060.27,-344.3 1050.32,-340.66 1050.22,-347.66"/>
</g>
<!-- Node22 -->
<g id="node22" class="node">
<title>Node22</title>
<g id="a_node22"><a xlink:href="stack_8cpp.html" target="_top" xlink:title=" ">
<polygon fill="white" stroke="black" points="1367.5,-224.5 1367.5,-243.5 1493.5,-243.5 1493.5,-224.5 1367.5,-224.5"/>
<text text-anchor="middle" x="1430.5" y="-231.5" font-family="Helvetica,sans-Serif" font-size="10.00">src/common/stack.cpp</text>
</a>
</g>
</g>
<!-- Node1&#45;&gt;Node22 -->
<g id="edge29" class="edge">
<title>Node1&#45;&gt;Node22</title>
<path fill="none" stroke="midnightblue" d="M1214.61,-338.8C1280.7,-332.4 1367.1,-320.41 1395.5,-300 1414.86,-286.09 1424.56,-258.08 1428.42,-243.8"/>
<polygon fill="midnightblue" stroke="midnightblue" points="1214.23,-335.32 1204.6,-339.74 1214.88,-342.29 1214.23,-335.32"/>
</g>
<!-- Node23 -->
<g id="node23" class="node">
<title>Node23</title>
<g id="a_node23"><a xlink:href="stack_8hpp.html" target="_top" xlink:title=" ">
<polygon fill="white" stroke="black" points="1260,-280.5 1260,-299.5 1387,-299.5 1387,-280.5 1260,-280.5"/>
<text text-anchor="middle" x="1323.5" y="-287.5" font-family="Helvetica,sans-Serif" font-size="10.00">src/common/stack.hpp</text>
</a>
</g>
</g>
<!-- Node1&#45;&gt;Node23 -->
<g id="edge30" class="edge">
<title>Node1&#45;&gt;Node23</title>
<path fill="none" stroke="midnightblue" d="M1172.47,-333.7C1208.52,-323.51 1260.74,-308.74 1293.38,-299.52"/>
<polygon fill="midnightblue" stroke="midnightblue" points="1171.44,-330.35 1162.76,-336.44 1173.34,-337.09 1171.44,-330.35"/>
</g>
<!-- Node24 -->
<g id="node24" class="node">
<title>Node24</title>
<g id="a_node24"><a xlink:href="tables_8cpp.html" target="_top" xlink:title=" ">
<polygon fill="white" stroke="black" points="1067.5,-224.5 1067.5,-243.5 1197.5,-243.5 1197.5,-224.5 1067.5,-224.5"/>
<text text-anchor="middle" x="1132.5" y="-231.5" font-family="Helvetica,sans-Serif" font-size="10.00">src/common/tables.cpp</text>
</a>
</g>
</g>
<!-- Node1&#45;&gt;Node24 -->
<g id="edge34" class="edge">
<title>Node1&#45;&gt;Node24</title>
<path fill="none" stroke="midnightblue" d="M1132.5,-326.35C1132.5,-302.25 1132.5,-261.31 1132.5,-243.59"/>
<polygon fill="midnightblue" stroke="midnightblue" points="1129,-326.37 1132.5,-336.37 1136,-326.37 1129,-326.37"/>
</g>
<!-- Node25 -->
<g id="node25" class="node">
<title>Node25</title>
<g id="a_node25"><a xlink:href="tables_8hpp.html" target="_top" xlink:title=" ">
<polygon fill="white" stroke="black" points="917,-280.5 917,-299.5 1048,-299.5 1048,-280.5 917,-280.5"/>
<text text-anchor="middle" x="982.5" y="-287.5" font-family="Helvetica,sans-Serif" font-size="10.00">src/common/tables.hpp</text>
</a>
</g>
</g>
<!-- Node1&#45;&gt;Node25 -->
<g id="edge35" class="edge">
<title>Node1&#45;&gt;Node25</title>
<path fill="none" stroke="midnightblue" d="M1099.28,-333.04C1071.05,-322.88 1031.24,-308.55 1006.16,-299.52"/>
<polygon fill="midnightblue" stroke="midnightblue" points="1098.14,-336.35 1108.73,-336.44 1100.51,-329.76 1098.14,-336.35"/>
</g>
<!-- Node4 -->
<g id="node4" class="node">
<title>Node4</title>
<g id="a_node4"><a xlink:href="poliz_8cpp.html" target="_top" xlink:title=" ">
<polygon fill="white" stroke="black" points="560,-168.5 560,-187.5 683,-187.5 683,-168.5 560,-168.5"/>
<text text-anchor="middle" x="621.5" y="-175.5" font-family="Helvetica,sans-Serif" font-size="10.00">src/common/poliz.cpp</text>
</a>
</g>
</g>
<!-- Node3&#45;&gt;Node4 -->
<g id="edge3" class="edge">
<title>Node3&#45;&gt;Node4</title>
<path fill="none" stroke="midnightblue" d="M759.81,-221.44C726.63,-211.26 679.07,-196.66 649.26,-187.52"/>
<polygon fill="midnightblue" stroke="midnightblue" points="759.03,-224.86 769.61,-224.44 761.08,-218.16 759.03,-224.86"/>
</g>
<!-- Node3&#45;&gt;Node5 -->
<g id="edge4" class="edge">
<title>Node3&#45;&gt;Node5</title>
<path fill="none" stroke="midnightblue" d="M833.58,-221.01C855.41,-213.06 883.4,-201.6 906.5,-188 965.8,-153.1 1027.11,-96.99 1049.57,-75.63"/>
<polygon fill="midnightblue" stroke="midnightblue" points="832.27,-217.76 824.02,-224.41 834.62,-224.36 832.27,-217.76"/>
</g>
<!-- Node8 -->
<g id="node8" class="node">
<title>Node8</title>
<g id="a_node8"><a xlink:href="vmachine_8hpp.html" target="_top" xlink:title=" ">
<polygon fill="white" stroke="black" points="1110.5,-168.5 1110.5,-187.5 1254.5,-187.5 1254.5,-168.5 1110.5,-168.5"/>
<text text-anchor="middle" x="1182.5" y="-175.5" font-family="Helvetica,sans-Serif" font-size="10.00">src/runtime/vmachine.hpp</text>
</a>
</g>
</g>
<!-- Node3&#45;&gt;Node8 -->
<g id="edge7" class="edge">
<title>Node3&#45;&gt;Node8</title>
<path fill="none" stroke="midnightblue" d="M868.5,-223.04C941.21,-212.84 1053.05,-197.16 1121.78,-187.52"/>
<polygon fill="midnightblue" stroke="midnightblue" points="867.92,-219.59 858.5,-224.44 868.89,-226.52 867.92,-219.59"/>
</g>
<!-- Node3&#45;&gt;Node14 -->
<g id="edge13" class="edge">
<title>Node3&#45;&gt;Node14</title>
<path fill="none" stroke="midnightblue" d="M725.14,-224.81C636.23,-214.74 486.1,-197.75 395.85,-187.53"/>
<polygon fill="midnightblue" stroke="midnightblue" points="724.81,-228.29 735.14,-225.94 725.6,-221.34 724.81,-228.29"/>
</g>
<!-- Node16 -->
<g id="node16" class="node">
<title>Node16</title>
<g id="a_node16"><a xlink:href="optimizer_8hpp.html" target="_top" xlink:title=" ">
<polygon fill="white" stroke="black" points="636.5,-112.5 636.5,-131.5 786.5,-131.5 786.5,-112.5 636.5,-112.5"/>
<text text-anchor="middle" x="711.5" y="-119.5" font-family="Helvetica,sans-Serif" font-size="10.00">src/optimizer/optimizer.hpp</text>
</a>
</g>
</g>
<!-- Node3&#45;&gt;Node16 -->
<g id="edge23" class="edge">
<title>Node3&#45;&gt;Node16</title>
<path fill="none" stroke="midnightblue" d="M768.81,-219.62C755.42,-212.06 740.32,-201.41 730.5,-188 717.86,-170.73 713.59,-145.16 712.18,-131.83"/>
<polygon fill="midnightblue" stroke="midnightblue" points="767.24,-222.75 777.71,-224.36 770.53,-216.57 767.24,-222.75"/>
</g>
<!-- Node19 -->
<g id="node19" class="node">
<title>Node19</title>
<g id="a_node19"><a xlink:href="controlflow_8hpp.html" target="_top" xlink:title=" ">
<polygon fill="white" stroke="black" points="739.5,-168.5 739.5,-187.5 897.5,-187.5 897.5,-168.5 739.5,-168.5"/>
<text text-anchor="middle" x="818.5" y="-175.5" font-family="Helvetica,sans-Serif" font-size="10.00">src/optimizer/controlflow.hpp</text>
</a>
</g>
</g>
<!-- Node3&#45;&gt;Node19 -->
<g id="edge19" class="edge">
<title>Node3&#45;&gt;Node19</title>
<path fill="none" stroke="midnightblue" d="M804.62,-214.69C808.16,-205.59 812.27,-195.01 815.1,-187.75"/>
<polygon fill="midnightblue" stroke="midnightblue" points="801.33,-213.49 800.97,-224.08 807.85,-216.03 801.33,-213.49"/>
</g>
<!-- Node21 -->
<g id="node21" class="node">
<title>Node21</title>
<g id="a_node21"><a xlink:href="util_8hpp.html" target="_top" xlink:title=" ">
<polygon fill="white" stroke="black" points="421.5,-168.5 421.5,-187.5 541.5,-187.5 541.5,-168.5 421.5,-168.5"/>
<text text-anchor="middle" x="481.5" y="-175.5" font-family="Helvetica,sans-Serif" font-size="10.00">src/optimizer/util.hpp</text>
</a>
</g>
</g>
<!-- Node3&#45;&gt;Node21 -->
<g id="edge24" class="edge">
<title>Node3&#45;&gt;Node21</title>
<path fill="none" stroke="midnightblue" d="M737.39,-222.73C677.67,-212.52 587.17,-197.06 531.34,-187.52"/>
<polygon fill="midnightblue" stroke="midnightblue" points="736.98,-226.21 747.43,-224.44 738.16,-219.31 736.98,-226.21"/>
</g>
<!-- Node5&#45;&gt;Node6 -->
<g id="edge5" class="edge">
<title>Node5&#45;&gt;Node6</title>
<path fill="none" stroke="midnightblue" d="M1134.43,-57.07C1236,-46.46 1414.38,-27.83 1510.22,-17.82"/>
<polygon fill="midnightblue" stroke="midnightblue" points="1133.82,-53.61 1124.24,-58.13 1134.55,-60.58 1133.82,-53.61"/>
</g>
<!-- Node7 -->
<g id="node7" class="node">
<title>Node7</title>
<g id="a_node7"><a xlink:href="flc_8cpp.html" target="_top" xlink:title=" ">
<polygon fill="white" stroke="black" points="1026,-0.5 1026,-19.5 1091,-19.5 1091,-0.5 1026,-0.5"/>
<text text-anchor="middle" x="1058.5" y="-7.5" font-family="Helvetica,sans-Serif" font-size="10.00">src/flc.cpp</text>
</a>
</g>
</g>
<!-- Node5&#45;&gt;Node7 -->
<g id="edge6" class="edge">
<title>Node5&#45;&gt;Node7</title>
<path fill="none" stroke="midnightblue" d="M1058.5,-45.8C1058.5,-36.91 1058.5,-26.78 1058.5,-19.75"/>
<polygon fill="midnightblue" stroke="midnightblue" points="1055,-46.08 1058.5,-56.08 1062,-46.08 1055,-46.08"/>
</g>
<!-- Node9 -->
<g id="node9" class="node">
<title>Node9</title>
<g id="a_node9"><a xlink:href="debugger_8hpp.html" target="_top" xlink:title=" ">
<polygon fill="white" stroke="black" points="1237,-112.5 1237,-131.5 1386,-131.5 1386,-112.5 1237,-112.5"/>
<text text-anchor="middle" x="1311.5" y="-119.5" font-family="Helvetica,sans-Serif" font-size="10.00">src/debugger/debugger.hpp</text>
</a>
</g>
</g>
<!-- Node8&#45;&gt;Node9 -->
<g id="edge8" class="edge">
<title>Node8&#45;&gt;Node9</title>
<path fill="none" stroke="midnightblue" d="M1212.35,-164.5C1236.54,-154.38 1269.96,-140.39 1291.16,-131.52"/>
<polygon fill="midnightblue" stroke="midnightblue" points="1210.81,-161.35 1202.94,-168.44 1213.52,-167.81 1210.81,-161.35"/>
</g>
<!-- Node12 -->
<g id="node12" class="node">
<title>Node12</title>
<g id="a_node12"><a xlink:href="flvm_8cpp.html" target="_top" xlink:title=" ">
<polygon fill="white" stroke="black" points="1105.5,-112.5 1105.5,-131.5 1181.5,-131.5 1181.5,-112.5 1105.5,-112.5"/>
<text text-anchor="middle" x="1143.5" y="-119.5" font-family="Helvetica,sans-Serif" font-size="10.00">src/flvm.cpp</text>
</a>
</g>
</g>
<!-- Node8&#45;&gt;Node12 -->
<g id="edge11" class="edge">
<title>Node8&#45;&gt;Node12</title>
<path fill="none" stroke="midnightblue" d="M1170.12,-159.86C1163.36,-150.5 1155.29,-139.33 1149.82,-131.75"/>
<polygon fill="midnightblue" stroke="midnightblue" points="1167.37,-162.03 1176.06,-168.08 1173.04,-157.93 1167.37,-162.03"/>
</g>
<!-- Node8&#45;&gt;Node13 -->
<g id="edge12" class="edge">
<title>Node8&#45;&gt;Node13</title>
<path fill="none" stroke="midnightblue" d="M1238.93,-166.6C1294.3,-156.4 1377.73,-141.02 1429.29,-131.52"/>
<polygon fill="midnightblue" stroke="midnightblue" points="1238.13,-163.19 1228.93,-168.44 1239.4,-170.07 1238.13,-163.19"/>
</g>
<!-- Node9&#45;&gt;Node10 -->
<g id="edge9" class="edge">
<title>Node9&#45;&gt;Node10</title>
<path fill="none" stroke="midnightblue" d="M1344.42,-108.91C1372.06,-98.75 1410.84,-84.51 1435.32,-75.52"/>
<polygon fill="midnightblue" stroke="midnightblue" points="1342.97,-105.71 1334.79,-112.44 1345.39,-112.28 1342.97,-105.71"/>
</g>
<!-- Node11 -->
<g id="node11" class="node">
<title>Node11</title>
<g id="a_node11"><a xlink:href="fldbg_8cpp.html" target="_top" xlink:title=" ">
<polygon fill="white" stroke="black" points="1272.5,-56.5 1272.5,-75.5 1350.5,-75.5 1350.5,-56.5 1272.5,-56.5"/>
<text text-anchor="middle" x="1311.5" y="-63.5" font-family="Helvetica,sans-Serif" font-size="10.00">src/fldbg.cpp</text>
</a>
</g>
</g>
<!-- Node9&#45;&gt;Node11 -->
<g id="edge10" class="edge">
<title>Node9&#45;&gt;Node11</title>
<path fill="none" stroke="midnightblue" d="M1311.5,-101.8C1311.5,-92.91 1311.5,-82.78 1311.5,-75.75"/>
<polygon fill="midnightblue" stroke="midnightblue" points="1308,-102.08 1311.5,-112.08 1315,-102.08 1308,-102.08"/>
</g>
<!-- Node14&#45;&gt;Node15 -->
<g id="edge14" class="edge">
<title>Node14&#45;&gt;Node15</title>
<path fill="none" stroke="midnightblue" d="M320.5,-157.8C320.5,-148.91 320.5,-138.78 320.5,-131.75"/>
<polygon fill="midnightblue" stroke="midnightblue" points="317,-158.08 320.5,-168.08 324,-158.08 317,-158.08"/>
</g>
<!-- Node14&#45;&gt;Node16 -->
<g id="edge15" class="edge">
<title>Node14&#45;&gt;Node16</title>
<path fill="none" stroke="midnightblue" d="M392.6,-167.04C466.45,-156.84 580.03,-141.16 649.83,-131.52"/>
<polygon fill="midnightblue" stroke="midnightblue" points="391.88,-163.61 382.46,-168.44 392.84,-170.54 391.88,-163.61"/>
</g>
<!-- Node18 -->
<g id="node18" class="node">
<title>Node18</title>
<g id="a_node18"><a xlink:href="util_8cpp.html" target="_top" xlink:title=" ">
<polygon fill="white" stroke="black" points="480,-112.5 480,-131.5 599,-131.5 599,-112.5 480,-112.5"/>
<text text-anchor="middle" x="539.5" y="-119.5" font-family="Helvetica,sans-Serif" font-size="10.00">src/optimizer/util.cpp</text>
</a>
</g>
</g>
<!-- Node14&#45;&gt;Node18 -->
<g id="edge18" class="edge">
<title>Node14&#45;&gt;Node18</title>
<path fill="none" stroke="midnightblue" d="M365.01,-166.02C406.38,-155.82 467.14,-140.84 504.96,-131.52"/>
<polygon fill="midnightblue" stroke="midnightblue" points="364.07,-162.65 355.2,-168.44 365.75,-169.45 364.07,-162.65"/>
</g>
<!-- Node16&#45;&gt;Node5 -->
<g id="edge16" class="edge">
<title>Node16&#45;&gt;Node5</title>
<path fill="none" stroke="midnightblue" d="M776.7,-110.85C842.26,-100.65 942.21,-85.1 1003.77,-75.52"/>
<polygon fill="midnightblue" stroke="midnightblue" points="775.83,-107.45 766.48,-112.44 776.9,-114.36 775.83,-107.45"/>
</g>
<!-- Node16&#45;&gt;Node17 -->
<g id="edge17" class="edge">
<title>Node16&#45;&gt;Node17</title>
<path fill="none" stroke="midnightblue" d="M660.51,-110.41C611.37,-100.2 537.97,-84.96 492.51,-75.52"/>
<polygon fill="midnightblue" stroke="midnightblue" points="659.8,-113.84 670.3,-112.44 661.22,-106.98 659.8,-113.84"/>
</g>
<!-- Node19&#45;&gt;Node16 -->
<g id="edge21" class="edge">
<title>Node19&#45;&gt;Node16</title>
<path fill="none" stroke="midnightblue" d="M792.2,-163.73C772.39,-153.73 745.79,-140.31 728.65,-131.65"/>
<polygon fill="midnightblue" stroke="midnightblue" points="790.8,-166.94 801.31,-168.32 793.96,-160.69 790.8,-166.94"/>
</g>
<!-- Node19&#45;&gt;Node18 -->
<g id="edge22" class="edge">
<title>Node19&#45;&gt;Node18</title>
<path fill="none" stroke="midnightblue" d="M764.44,-166.54C711.71,-156.33 632.5,-141 583.5,-131.52"/>
<polygon fill="midnightblue" stroke="midnightblue" points="763.81,-169.98 774.29,-168.44 765.14,-163.11 763.81,-169.98"/>
</g>
<!-- Node20 -->
<g id="node20" class="node">
<title>Node20</title>
<g id="a_node20"><a xlink:href="controlflow_8cpp.html" target="_top" xlink:title=" ">
<polygon fill="white" stroke="black" points="805,-112.5 805,-131.5 962,-131.5 962,-112.5 805,-112.5"/>
<text text-anchor="middle" x="883.5" y="-119.5" font-family="Helvetica,sans-Serif" font-size="10.00">src/optimizer/controlflow.cpp</text>
</a>
</g>
</g>
<!-- Node19&#45;&gt;Node20 -->
<g id="edge20" class="edge">
<title>Node19&#45;&gt;Node20</title>
<path fill="none" stroke="midnightblue" d="M836.77,-161.82C848.42,-152.15 863.1,-139.95 872.87,-131.83"/>
<polygon fill="midnightblue" stroke="midnightblue" points="834.4,-159.24 828.94,-168.32 838.87,-164.63 834.4,-159.24"/>
</g>
<!-- Node21&#45;&gt;Node15 -->
<g id="edge25" class="edge">
<title>Node21&#45;&gt;Node15</title>
<path fill="none" stroke="midnightblue" d="M446.24,-165.17C415.92,-155 372.93,-140.59 345.89,-131.52"/>
<polygon fill="midnightblue" stroke="midnightblue" points="445.4,-168.58 455.99,-168.44 447.62,-161.95 445.4,-168.58"/>
</g>
<!-- Node21&#45;&gt;Node17 -->
<g id="edge27" class="edge">
<title>Node21&#45;&gt;Node17</title>
<path fill="none" stroke="midnightblue" d="M476.5,-158.67C469.94,-134.62 458.7,-93.39 453.84,-75.59"/>
<polygon fill="midnightblue" stroke="midnightblue" points="473.14,-159.64 479.15,-168.37 479.89,-157.8 473.14,-159.64"/>
</g>
<!-- Node21&#45;&gt;Node18 -->
<g id="edge28" class="edge">
<title>Node21&#45;&gt;Node18</title>
<path fill="none" stroke="midnightblue" d="M498.41,-161.25C508.7,-151.67 521.47,-139.79 530.01,-131.83"/>
<polygon fill="midnightblue" stroke="midnightblue" points="495.75,-158.95 490.82,-168.32 500.52,-164.07 495.75,-158.95"/>
</g>
<!-- Node21&#45;&gt;Node20 -->
<g id="edge26" class="edge">
<title>Node21&#45;&gt;Node20</title>
<path fill="none" stroke="midnightblue" d="M551.61,-167.58C627.31,-157.41 746.85,-141.36 819.91,-131.54"/>
<polygon fill="midnightblue" stroke="midnightblue" points="551.13,-164.12 541.68,-168.92 552.06,-171.05 551.13,-164.12"/>
</g>
<!-- Node23&#45;&gt;Node5 -->
<g id="edge32" class="edge">
<title>Node23&#45;&gt;Node5</title>
<path fill="none" stroke="midnightblue" d="M1317.39,-270.63C1308.42,-245.54 1289.84,-200.02 1263.5,-168 1220.27,-115.45 1142.96,-87.98 1096.63,-75.57"/>
<polygon fill="midnightblue" stroke="midnightblue" points="1314.16,-272.01 1320.74,-280.32 1320.78,-269.72 1314.16,-272.01"/>
</g>
<!-- Node23&#45;&gt;Node8 -->
<g id="edge33" class="edge">
<title>Node23&#45;&gt;Node8</title>
<path fill="none" stroke="midnightblue" d="M1304.42,-274.12C1274.49,-250.77 1217.46,-206.27 1193.51,-187.59"/>
<polygon fill="midnightblue" stroke="midnightblue" points="1302.4,-276.98 1312.44,-280.37 1306.7,-271.46 1302.4,-276.98"/>
</g>
<!-- Node23&#45;&gt;Node22 -->
<g id="edge31" class="edge">
<title>Node23&#45;&gt;Node22</title>
<path fill="none" stroke="midnightblue" d="M1349.8,-275.73C1369.61,-265.73 1396.21,-252.31 1413.35,-243.65"/>
<polygon fill="midnightblue" stroke="midnightblue" points="1348.04,-272.69 1340.69,-280.32 1351.2,-278.94 1348.04,-272.69"/>
</g>
<!-- Node25&#45;&gt;Node3 -->
<g id="edge36" class="edge">
<title>Node25&#45;&gt;Node3</title>
<path fill="none" stroke="midnightblue" d="M943.33,-277.57C908.43,-267.38 858.15,-252.7 826.68,-243.52"/>
<polygon fill="midnightblue" stroke="midnightblue" points="942.61,-281 953.19,-280.44 944.57,-274.28 942.61,-281"/>
</g>
<!-- Node25&#45;&gt;Node5 -->
<g id="edge39" class="edge">
<title>Node25&#45;&gt;Node5</title>
<path fill="none" stroke="midnightblue" d="M988.8,-270.58C1004.36,-225.14 1044.15,-108.92 1055.46,-75.88"/>
<polygon fill="midnightblue" stroke="midnightblue" points="985.41,-269.7 985.48,-280.3 992.03,-271.97 985.41,-269.7"/>
</g>
<!-- Node25&#45;&gt;Node6 -->
<g id="edge38" class="edge">
<title>Node25&#45;&gt;Node6</title>
<path fill="none" stroke="midnightblue" d="M1057.27,-279C1197.45,-258.65 1491.54,-207.82 1556.5,-132 1584.86,-98.9 1579.98,-41.22 1576.92,-19.55"/>
<polygon fill="midnightblue" stroke="midnightblue" points="1056.44,-275.58 1047.04,-280.47 1057.43,-282.51 1056.44,-275.58"/>
</g>
<!-- Node25&#45;&gt;Node8 -->
<g id="edge40" class="edge">
<title>Node25&#45;&gt;Node8</title>
<path fill="none" stroke="midnightblue" d="M997.73,-273.03C1012.22,-258.59 1035.21,-237.58 1058.5,-224 1087.29,-207.22 1123.41,-194.98 1149.23,-187.53"/>
<polygon fill="midnightblue" stroke="midnightblue" points="995.11,-270.7 990.6,-280.29 1000.11,-275.6 995.11,-270.7"/>
</g>
<!-- Node25&#45;&gt;Node14 -->
<g id="edge41" class="edge">
<title>Node25&#45;&gt;Node14</title>
<path fill="none" stroke="midnightblue" d="M920.95,-278.77C791.28,-257.23 492.06,-207.51 371.86,-187.53"/>
<polygon fill="midnightblue" stroke="midnightblue" points="920.67,-282.27 931.1,-280.46 921.81,-275.37 920.67,-282.27"/>
</g>
<!-- Node25&#45;&gt;Node16 -->
<g id="edge44" class="edge">
<title>Node25&#45;&gt;Node16</title>
<path fill="none" stroke="midnightblue" d="M973.45,-271.11C957.81,-240.86 925.57,-181.57 906.5,-168 884.84,-152.59 819.42,-139.53 770.28,-131.51"/>
<polygon fill="midnightblue" stroke="midnightblue" points="970.4,-272.84 978.08,-280.15 976.64,-269.65 970.4,-272.84"/>
</g>
<!-- Node25&#45;&gt;Node19 -->
<g id="edge43" class="edge">
<title>Node25&#45;&gt;Node19</title>
<path fill="none" stroke="midnightblue" d="M959.97,-275.08C945.93,-266.32 927.54,-254.68 911.5,-244 881.99,-224.35 848,-200.2 830.42,-187.59"/>
<polygon fill="midnightblue" stroke="midnightblue" points="958.16,-278.08 968.5,-280.39 961.86,-272.14 958.16,-278.08"/>
</g>
<!-- Node25&#45;&gt;Node20 -->
<g id="edge42" class="edge">
<title>Node25&#45;&gt;Node20</title>
<path fill="none" stroke="midnightblue" d="M979.19,-270.32C974.03,-245.2 962.23,-199.99 939.5,-168 928.52,-152.54 910.84,-139.58 898.28,-131.59"/>
<polygon fill="midnightblue" stroke="midnightblue" points="975.79,-271.17 981.1,-280.33 982.66,-269.85 975.79,-271.17"/>
</g>
<!-- Node25&#45;&gt;Node24 -->
<g id="edge37" class="edge">
<title>Node25&#45;&gt;Node24</title>
<path fill="none" stroke="midnightblue" d="M1015.72,-277.04C1043.95,-266.88 1083.76,-252.55 1108.84,-243.52"/>
<polygon fill="midnightblue" stroke="midnightblue" points="1014.49,-273.76 1006.27,-280.44 1016.86,-280.35 1014.49,-273.76"/>
</g>
</g>
</svg>
