<?xml version="1.0" encoding="UTF-8" standalone="no"?>
<!DOCTYPE svg PUBLIC "-//W3C//DTD SVG 1.1//EN"
 "http://www.w3.org/Graphics/SVG/1.1/DTD/svg11.dtd">
<!-- Generated by graphviz version 2.43.0 (0)
 -->
<!-- Title: src/common/exprtype.hpp Pages: 1 -->
<svg width="1678pt" height="364pt"
 viewBox="0.00 0.00 1677.50 364.00" xmlns="http://www.w3.org/2000/svg" xmlns:xlink="http://www.w3.org/1999/xlink">
<g id="graph0" class="graph" transform="scale(1 1) rotate(0) translate(4 360)">
<title>src/common/exprtype.hpp</title>
<polygon fill="white" stroke="transparent" points="-4,4 -4,-360 1673.5,-360 1673.5,4 -4,4"/>
<!-- Node1 -->
<g id="node1" class="node">
<title>Node1</title>
<g id="a_node1"><a xlink:title=" ">
<polygon fill="#bfbfbf" stroke="black" points="578.5,-336.5 578.5,-355.5 722.5,-355.5 722.5,-336.5 578.5,-336.5"/>
<text text-anchor="middle" x="650.5" y="-343.5" font-family="Helvetica,sans-Serif" font-size="10.00">src/common/exprtype.hpp</text>
</a>
</g>
</g>
<!-- Node2 -->
<g id="node2" class="node">
<title>Node2</title>
<g id="a_node2"><a xlink:href="exprtype_8cpp.html" target="_top" xlink:title=" ">
<polygon fill="white" stroke="black" points="0,-280.5 0,-299.5 143,-299.5 143,-280.5 0,-280.5"/>
<text text-anchor="middle" x="71.5" y="-287.5" font-family="Helvetica,sans-Serif" font-size="10.00">src/common/exprtype.cpp</text>
</a>
</g>
</g>
<!-- Node1&#45;&gt;Node2 -->
<g id="edge1" class="edge">
<title>Node1&#45;&gt;Node2</title>
<path fill="none" stroke="midnightblue" d="M568.08,-337.81C470.16,-329.2 301.87,-314.14 157.5,-300 152.87,-299.55 148.1,-299.07 143.29,-298.58"/>
<polygon fill="midnightblue" stroke="midnightblue" points="567.94,-341.31 578.21,-338.7 568.56,-334.34 567.94,-341.31"/>
</g>
<!-- Node3 -->
<g id="node3" class="node">
<title>Node3</title>
<g id="a_node3"><a xlink:href="stack_8cpp.html" target="_top" xlink:title=" ">
<polygon fill="white" stroke="black" points="495.5,-224.5 495.5,-243.5 621.5,-243.5 621.5,-224.5 495.5,-224.5"/>
<text text-anchor="middle" x="558.5" y="-231.5" font-family="Helvetica,sans-Serif" font-size="10.00">src/common/stack.cpp</text>
</a>
</g>
</g>
<!-- Node1&#45;&gt;Node3 -->
<g id="edge2" class="edge">
<title>Node1&#45;&gt;Node3</title>
<path fill="none" stroke="midnightblue" d="M619.06,-332.07C604.53,-324.65 588.16,-313.99 577.5,-300 564.53,-282.98 560.4,-257.31 559.09,-243.89"/>
<polygon fill="midnightblue" stroke="midnightblue" points="617.74,-335.32 628.27,-336.49 620.77,-329.01 617.74,-335.32"/>
</g>
<!-- Node4 -->
<g id="node4" class="node">
<title>Node4</title>
<g id="a_node4"><a xlink:href="stack_8hpp.html" target="_top" xlink:title=" ">
<polygon fill="white" stroke="black" points="587,-280.5 587,-299.5 714,-299.5 714,-280.5 587,-280.5"/>
<text text-anchor="middle" x="650.5" y="-287.5" font-family="Helvetica,sans-Serif" font-size="10.00">src/common/stack.hpp</text>
</a>
</g>
</g>
<!-- Node1&#45;&gt;Node4 -->
<g id="edge3" class="edge">
<title>Node1&#45;&gt;Node4</title>
<path fill="none" stroke="midnightblue" d="M650.5,-325.8C650.5,-316.91 650.5,-306.78 650.5,-299.75"/>
<polygon fill="midnightblue" stroke="midnightblue" points="647,-326.08 650.5,-336.08 654,-326.08 647,-326.08"/>
</g>
<!-- Node5 -->
<g id="node5" class="node">
<title>Node5</title>
<g id="a_node5"><a xlink:href="parser_8hpp.html" target="_top" xlink:title=" ">
<polygon fill="white" stroke="black" points="1215,-56.5 1215,-75.5 1346,-75.5 1346,-56.5 1215,-56.5"/>
<text text-anchor="middle" x="1280.5" y="-63.5" font-family="Helvetica,sans-Serif" font-size="10.00">src/compiler/parser.hpp</text>
</a>
</g>
</g>
<!-- Node1&#45;&gt;Node5 -->
<g id="edge45" class="edge">
<title>Node1&#45;&gt;Node5</title>
<path fill="none" stroke="midnightblue" d="M732.72,-344.71C975.03,-342.77 1669.5,-329.01 1669.5,-235 1669.5,-235 1669.5,-235 1669.5,-177 1669.5,-136.14 1641.08,-130.2 1604.5,-112 1560.39,-90.05 1427.25,-77.19 1346.02,-71.17"/>
<polygon fill="midnightblue" stroke="midnightblue" points="732.53,-341.21 722.56,-344.78 732.59,-348.21 732.53,-341.21"/>
</g>
<!-- Node6 -->
<g id="node6" class="node">
<title>Node6</title>
<g id="a_node6"><a xlink:href="parser_8cpp.html" target="_top" xlink:title=" ">
<polygon fill="white" stroke="black" points="698,-0.5 698,-19.5 829,-19.5 829,-0.5 698,-0.5"/>
<text text-anchor="middle" x="763.5" y="-7.5" font-family="Helvetica,sans-Serif" font-size="10.00">src/compiler/parser.cpp</text>
</a>
</g>
</g>
<!-- Node1&#45;&gt;Node6 -->
<g id="edge46" class="edge">
<title>Node1&#45;&gt;Node6</title>
<path fill="none" stroke="midnightblue" d="M568.11,-341.85C466.31,-336.93 299.69,-325.24 243.5,-300 204.18,-282.33 171.5,-278.11 171.5,-235 171.5,-235 171.5,-235 171.5,-121 171.5,-84 190.85,-73.4 223.5,-56 304.03,-13.09 572.62,-9.37 697.99,-10.09"/>
<polygon fill="midnightblue" stroke="midnightblue" points="568.21,-345.36 578.36,-342.33 568.54,-338.36 568.21,-345.36"/>
</g>
<!-- Node10 -->
<g id="node10" class="node">
<title>Node10</title>
<g id="a_node10"><a xlink:href="debugger_8cpp.html" target="_top" xlink:title=" ">
<polygon fill="white" stroke="black" points="233,-56.5 233,-75.5 382,-75.5 382,-56.5 233,-56.5"/>
<text text-anchor="middle" x="307.5" y="-63.5" font-family="Helvetica,sans-Serif" font-size="10.00">src/debugger/debugger.cpp</text>
</a>
</g>
</g>
<!-- Node1&#45;&gt;Node10 -->
<g id="edge47" class="edge">
<title>Node1&#45;&gt;Node10</title>
<path fill="none" stroke="midnightblue" d="M568.03,-341.18C440.39,-333 209.5,-308.08 209.5,-235 209.5,-235 209.5,-235 209.5,-177 209.5,-146.9 209.84,-135.62 228.5,-112 242.3,-94.54 264.86,-82.66 282.35,-75.51"/>
<polygon fill="midnightblue" stroke="midnightblue" points="567.97,-344.69 578.17,-341.81 568.41,-337.7 567.97,-344.69"/>
</g>
<!-- Node13 -->
<g id="node13" class="node">
<title>Node13</title>
<g id="a_node13"><a xlink:href="vmachine_8cpp.html" target="_top" xlink:title=" ">
<polygon fill="white" stroke="black" points="238,-112.5 238,-131.5 381,-131.5 381,-112.5 238,-112.5"/>
<text text-anchor="middle" x="309.5" y="-119.5" font-family="Helvetica,sans-Serif" font-size="10.00">src/runtime/vmachine.cpp</text>
</a>
</g>
</g>
<!-- Node1&#45;&gt;Node13 -->
<g id="edge51" class="edge">
<title>Node1&#45;&gt;Node13</title>
<path fill="none" stroke="midnightblue" d="M567.95,-338.43C530.78,-332.49 487.68,-321.25 453.5,-300 381.17,-255.03 328.76,-160.75 313.83,-131.71"/>
<polygon fill="midnightblue" stroke="midnightblue" points="567.86,-341.95 578.26,-339.96 568.89,-335.03 567.86,-341.95"/>
</g>
<!-- Node14 -->
<g id="node14" class="node">
<title>Node14</title>
<g id="a_node14"><a xlink:href="tables_8hpp.html" target="_top" xlink:title=" ">
<polygon fill="white" stroke="black" points="1082,-280.5 1082,-299.5 1213,-299.5 1213,-280.5 1082,-280.5"/>
<text text-anchor="middle" x="1147.5" y="-287.5" font-family="Helvetica,sans-Serif" font-size="10.00">src/common/tables.hpp</text>
</a>
</g>
</g>
<!-- Node1&#45;&gt;Node14 -->
<g id="edge14" class="edge">
<title>Node1&#45;&gt;Node14</title>
<path fill="none" stroke="midnightblue" d="M732.64,-336.08C830.46,-325.45 991.88,-307.91 1081.81,-298.14"/>
<polygon fill="midnightblue" stroke="midnightblue" points="732.07,-332.62 722.5,-337.18 732.82,-339.58 732.07,-332.62"/>
</g>
<!-- Node15 -->
<g id="node15" class="node">
<title>Node15</title>
<g id="a_node15"><a xlink:href="poliz_8hpp.html" target="_top" xlink:title=" ">
<polygon fill="white" stroke="black" points="1007.5,-224.5 1007.5,-243.5 1131.5,-243.5 1131.5,-224.5 1007.5,-224.5"/>
<text text-anchor="middle" x="1069.5" y="-231.5" font-family="Helvetica,sans-Serif" font-size="10.00">src/common/poliz.hpp</text>
</a>
</g>
</g>
<!-- Node1&#45;&gt;Node15 -->
<g id="edge43" class="edge">
<title>Node1&#45;&gt;Node15</title>
<path fill="none" stroke="midnightblue" d="M692.72,-333.92C776.45,-311.93 961.9,-263.25 1036.99,-243.53"/>
<polygon fill="midnightblue" stroke="midnightblue" points="691.81,-330.54 683.03,-336.46 693.59,-337.31 691.81,-330.54"/>
</g>
<!-- Node17 -->
<g id="node17" class="node">
<title>Node17</title>
<g id="a_node17"><a xlink:href="acyclicgraph_8hpp.html" target="_top" xlink:title=" ">
<polygon fill="white" stroke="black" points="1399.5,-168.5 1399.5,-187.5 1565.5,-187.5 1565.5,-168.5 1399.5,-168.5"/>
<text text-anchor="middle" x="1482.5" y="-175.5" font-family="Helvetica,sans-Serif" font-size="10.00">src/optimizer/acyclicgraph.hpp</text>
</a>
</g>
</g>
<!-- Node1&#45;&gt;Node17 -->
<g id="edge48" class="edge">
<title>Node1&#45;&gt;Node17</title>
<path fill="none" stroke="midnightblue" d="M732.6,-342.42C948.87,-334.76 1521.33,-308.51 1574.5,-244 1595.52,-218.5 1548.69,-198.34 1514.44,-187.58"/>
<polygon fill="midnightblue" stroke="midnightblue" points="732.44,-338.92 722.57,-342.77 732.69,-345.92 732.44,-338.92"/>
</g>
<!-- Node18 -->
<g id="node18" class="node">
<title>Node18</title>
<g id="a_node18"><a xlink:href="acyclicgraph_8cpp.html" target="_top" xlink:title=" ">
<polygon fill="white" stroke="black" points="1415,-112.5 1415,-131.5 1580,-131.5 1580,-112.5 1415,-112.5"/>
<text text-anchor="middle" x="1497.5" y="-119.5" font-family="Helvetica,sans-Serif" font-size="10.00">src/optimizer/acyclicgraph.cpp</text>
</a>
</g>
</g>
<!-- Node1&#45;&gt;Node18 -->
<g id="edge49" class="edge">
<title>Node1&#45;&gt;Node18</title>
<path fill="none" stroke="midnightblue" d="M732.59,-343.27C905.68,-339.15 1303.04,-326.98 1435.5,-300 1507.68,-285.3 1549.11,-304.25 1591.5,-244 1604.59,-225.4 1587.55,-184.53 1574.5,-168 1560.88,-150.74 1538.67,-138.79 1521.6,-131.56"/>
<polygon fill="midnightblue" stroke="midnightblue" points="732.43,-339.78 722.52,-343.51 732.6,-346.78 732.43,-339.78"/>
</g>
<!-- Node20 -->
<g id="node20" class="node">
<title>Node20</title>
<g id="a_node20"><a xlink:href="optimizer_8cpp.html" target="_top" xlink:title=" ">
<polygon fill="white" stroke="black" points="1005.5,-56.5 1005.5,-75.5 1155.5,-75.5 1155.5,-56.5 1005.5,-56.5"/>
<text text-anchor="middle" x="1080.5" y="-63.5" font-family="Helvetica,sans-Serif" font-size="10.00">src/optimizer/optimizer.cpp</text>
</a>
</g>
</g>
<!-- Node1&#45;&gt;Node20 -->
<g id="edge50" class="edge">
<title>Node1&#45;&gt;Node20</title>
<path fill="none" stroke="midnightblue" d="M609.06,-333.23C568.98,-319.31 510.82,-291.76 486.5,-244 469,-209.63 534.5,-141.15 595.5,-112 665.98,-78.32 887.33,-69.82 1005.08,-67.69"/>
<polygon fill="midnightblue" stroke="midnightblue" points="607.99,-336.56 618.58,-336.4 610.2,-329.92 607.99,-336.56"/>
</g>
<!-- Node25 -->
<g id="node25" class="node">
<title>Node25</title>
<g id="a_node25"><a xlink:href="tables_8cpp.html" target="_top" xlink:title=" ">
<polygon fill="white" stroke="black" points="1435.5,-224.5 1435.5,-243.5 1565.5,-243.5 1565.5,-224.5 1435.5,-224.5"/>
<text text-anchor="middle" x="1500.5" y="-231.5" font-family="Helvetica,sans-Serif" font-size="10.00">src/common/tables.cpp</text>
</a>
</g>
</g>
<!-- Node1&#45;&gt;Node25 -->
<g id="edge44" class="edge">
<title>Node1&#45;&gt;Node25</title>
<path fill="none" stroke="midnightblue" d="M732.72,-342.4C844.07,-337.99 1048.78,-326.77 1221.5,-300 1313.41,-285.76 1419.91,-257.64 1470.65,-243.52"/>
<polygon fill="midnightblue" stroke="midnightblue" points="732.42,-338.91 722.56,-342.79 732.69,-345.9 732.42,-338.91"/>
</g>
<!-- Node4&#45;&gt;Node3 -->
<g id="edge4" class="edge">
<title>Node4&#45;&gt;Node3</title>
<path fill="none" stroke="midnightblue" d="M626.95,-275.18C610.02,-265.24 587.72,-252.15 573.24,-243.65"/>
<polygon fill="midnightblue" stroke="midnightblue" points="625.32,-278.28 635.72,-280.32 628.87,-272.24 625.32,-278.28"/>
</g>
<!-- Node4&#45;&gt;Node5 -->
<g id="edge5" class="edge">
<title>Node4&#45;&gt;Node5</title>
<path fill="none" stroke="midnightblue" d="M647.88,-270.02C645.26,-256.26 640.16,-237.73 630.5,-224 615.16,-202.19 594.43,-211.85 582.5,-188 564.42,-151.84 596.18,-129.76 632.5,-112 738.95,-59.95 1046.32,-84.58 1164.5,-76 1180.82,-74.81 1198.42,-73.48 1214.87,-72.21"/>
<polygon fill="midnightblue" stroke="midnightblue" points="644.49,-270.95 649.55,-280.25 651.39,-269.82 644.49,-270.95"/>
</g>
<!-- Node8 -->
<g id="node8" class="node">
<title>Node8</title>
<g id="a_node8"><a xlink:href="vmachine_8hpp.html" target="_top" xlink:title=" ">
<polygon fill="white" stroke="black" points="591.5,-168.5 591.5,-187.5 735.5,-187.5 735.5,-168.5 591.5,-168.5"/>
<text text-anchor="middle" x="663.5" y="-175.5" font-family="Helvetica,sans-Serif" font-size="10.00">src/runtime/vmachine.hpp</text>
</a>
</g>
</g>
<!-- Node4&#45;&gt;Node8 -->
<g id="edge8" class="edge">
<title>Node4&#45;&gt;Node8</title>
<path fill="none" stroke="midnightblue" d="M657.05,-270.7C659.61,-262.63 662.23,-252.96 663.5,-244 666.32,-224.11 665.22,-200.46 664.28,-187.89"/>
<polygon fill="midnightblue" stroke="midnightblue" points="653.73,-269.6 653.84,-280.2 660.36,-271.84 653.73,-269.6"/>
</g>
<!-- Node5&#45;&gt;Node6 -->
<g id="edge6" class="edge">
<title>Node5&#45;&gt;Node6</title>
<path fill="none" stroke="midnightblue" d="M1204.59,-57.07C1103.17,-46.48 925.13,-27.88 829.19,-17.86"/>
<polygon fill="midnightblue" stroke="midnightblue" points="1204.45,-60.58 1214.76,-58.13 1205.18,-53.61 1204.45,-60.58"/>
</g>
<!-- Node7 -->
<g id="node7" class="node">
<title>Node7</title>
<g id="a_node7"><a xlink:href="flc_8cpp.html" target="_top" xlink:title=" ">
<polygon fill="white" stroke="black" points="1247.5,-0.5 1247.5,-19.5 1313.5,-19.5 1313.5,-0.5 1247.5,-0.5"/>
<text text-anchor="middle" x="1280.5" y="-7.5" font-family="Helvetica,sans-Serif" font-size="10.00">src/flc.cpp</text>
</a>
</g>
</g>
<!-- Node5&#45;&gt;Node7 -->
<g id="edge7" class="edge">
<title>Node5&#45;&gt;Node7</title>
<path fill="none" stroke="midnightblue" d="M1280.5,-45.8C1280.5,-36.91 1280.5,-26.78 1280.5,-19.75"/>
<polygon fill="midnightblue" stroke="midnightblue" points="1277,-46.08 1280.5,-56.08 1284,-46.08 1277,-46.08"/>
</g>
<!-- Node9 -->
<g id="node9" class="node">
<title>Node9</title>
<g id="a_node9"><a xlink:href="debugger_8hpp.html" target="_top" xlink:title=" ">
<polygon fill="white" stroke="black" points="399,-112.5 399,-131.5 548,-131.5 548,-112.5 399,-112.5"/>
<text text-anchor="middle" x="473.5" y="-119.5" font-family="Helvetica,sans-Serif" font-size="10.00">src/debugger/debugger.hpp</text>
</a>
</g>
</g>
<!-- Node8&#45;&gt;Node9 -->
<g id="edge9" class="edge">
<title>Node8&#45;&gt;Node9</title>
<path fill="none" stroke="midnightblue" d="M623.74,-165.7C587.88,-155.51 535.93,-140.74 503.47,-131.52"/>
<polygon fill="midnightblue" stroke="midnightblue" points="622.82,-169.08 633.39,-168.44 624.73,-162.34 622.82,-169.08"/>
</g>
<!-- Node12 -->
<g id="node12" class="node">
<title>Node12</title>
<g id="a_node12"><a xlink:href="flvm_8cpp.html" target="_top" xlink:title=" ">
<polygon fill="white" stroke="black" points="642,-112.5 642,-131.5 719,-131.5 719,-112.5 642,-112.5"/>
<text text-anchor="middle" x="680.5" y="-119.5" font-family="Helvetica,sans-Serif" font-size="10.00">src/flvm.cpp</text>
</a>
</g>
</g>
<!-- Node8&#45;&gt;Node12 -->
<g id="edge12" class="edge">
<title>Node8&#45;&gt;Node12</title>
<path fill="none" stroke="midnightblue" d="M669.36,-158.4C672.2,-149.36 675.48,-138.94 677.75,-131.75"/>
<polygon fill="midnightblue" stroke="midnightblue" points="665.97,-157.49 666.31,-168.08 672.65,-159.6 665.97,-157.49"/>
</g>
<!-- Node8&#45;&gt;Node13 -->
<g id="edge13" class="edge">
<title>Node8&#45;&gt;Node13</title>
<path fill="none" stroke="midnightblue" d="M597.4,-166.92C530.52,-156.71 428.27,-141.12 365.33,-131.52"/>
<polygon fill="midnightblue" stroke="midnightblue" points="596.99,-170.4 607.41,-168.44 598.05,-163.48 596.99,-170.4"/>
</g>
<!-- Node9&#45;&gt;Node10 -->
<g id="edge10" class="edge">
<title>Node9&#45;&gt;Node10</title>
<path fill="none" stroke="midnightblue" d="M437.55,-109.3C406.27,-99.13 361.68,-84.62 333.68,-75.52"/>
<polygon fill="midnightblue" stroke="midnightblue" points="436.6,-112.68 447.2,-112.44 438.77,-106.02 436.6,-112.68"/>
</g>
<!-- Node11 -->
<g id="node11" class="node">
<title>Node11</title>
<g id="a_node11"><a xlink:href="fldbg_8cpp.html" target="_top" xlink:title=" ">
<polygon fill="white" stroke="black" points="434,-56.5 434,-75.5 513,-75.5 513,-56.5 434,-56.5"/>
<text text-anchor="middle" x="473.5" y="-63.5" font-family="Helvetica,sans-Serif" font-size="10.00">src/fldbg.cpp</text>
</a>
</g>
</g>
<!-- Node9&#45;&gt;Node11 -->
<g id="edge11" class="edge">
<title>Node9&#45;&gt;Node11</title>
<path fill="none" stroke="midnightblue" d="M473.5,-101.8C473.5,-92.91 473.5,-82.78 473.5,-75.75"/>
<polygon fill="midnightblue" stroke="midnightblue" points="470,-102.08 473.5,-112.08 477,-102.08 470,-102.08"/>
</g>
<!-- Node14&#45;&gt;Node5 -->
<g id="edge36" class="edge">
<title>Node14&#45;&gt;Node5</title>
<path fill="none" stroke="midnightblue" d="M1223.02,-278.96C1269.4,-271.69 1329.65,-260.27 1381.5,-244 1402.38,-237.45 1405.78,-231.06 1426.5,-224 1490.58,-202.17 1526.48,-235.72 1574.5,-188 1592.7,-169.92 1585.37,-157.46 1588.5,-132 1589.59,-123.18 1594.31,-118.72 1588.5,-112 1557.84,-76.54 1427.27,-68.47 1346.29,-66.96"/>
<polygon fill="midnightblue" stroke="midnightblue" points="1222.4,-275.51 1213.04,-280.49 1223.46,-282.43 1222.4,-275.51"/>
</g>
<!-- Node14&#45;&gt;Node6 -->
<g id="edge37" class="edge">
<title>Node14&#45;&gt;Node6</title>
<path fill="none" stroke="midnightblue" d="M1071.7,-282.75C959.8,-271.41 763.5,-242.47 763.5,-179 763.5,-179 763.5,-179 763.5,-121 763.5,-83.19 763.5,-38.06 763.5,-19.56"/>
<polygon fill="midnightblue" stroke="midnightblue" points="1071.63,-286.26 1081.92,-283.76 1072.32,-279.3 1071.63,-286.26"/>
</g>
<!-- Node14&#45;&gt;Node8 -->
<g id="edge42" class="edge">
<title>Node14&#45;&gt;Node8</title>
<path fill="none" stroke="midnightblue" d="M1071.47,-285.19C972.72,-279.42 806.26,-266.66 749.5,-244 716.82,-230.95 685.76,-202.01 671.56,-187.56"/>
<polygon fill="midnightblue" stroke="midnightblue" points="1071.51,-288.7 1081.69,-285.78 1071.91,-281.71 1071.51,-288.7"/>
</g>
<!-- Node14&#45;&gt;Node15 -->
<g id="edge15" class="edge">
<title>Node14&#45;&gt;Node15</title>
<path fill="none" stroke="midnightblue" d="M1126.73,-274.62C1112.48,-264.76 1094.04,-251.99 1082,-243.65"/>
<polygon fill="midnightblue" stroke="midnightblue" points="1124.75,-277.51 1134.97,-280.32 1128.74,-271.75 1124.75,-277.51"/>
</g>
<!-- Node14&#45;&gt;Node17 -->
<g id="edge38" class="edge">
<title>Node14&#45;&gt;Node17</title>
<path fill="none" stroke="midnightblue" d="M1209.26,-278.58C1248.82,-271.03 1300.91,-259.43 1345.5,-244 1369.38,-235.73 1434.5,-203.3 1465.57,-187.61"/>
<polygon fill="midnightblue" stroke="midnightblue" points="1208.42,-275.18 1199.23,-280.46 1209.71,-282.06 1208.42,-275.18"/>
</g>
<!-- Node19 -->
<g id="node19" class="node">
<title>Node19</title>
<g id="a_node19"><a xlink:href="optimizer_8hpp.html" target="_top" xlink:title=" ">
<polygon fill="white" stroke="black" points="1246,-112.5 1246,-131.5 1397,-131.5 1397,-112.5 1246,-112.5"/>
<text text-anchor="middle" x="1321.5" y="-119.5" font-family="Helvetica,sans-Serif" font-size="10.00">src/optimizer/optimizer.hpp</text>
</a>
</g>
</g>
<!-- Node14&#45;&gt;Node19 -->
<g id="edge41" class="edge">
<title>Node14&#45;&gt;Node19</title>
<path fill="none" stroke="midnightblue" d="M1196.1,-277.64C1240.64,-264.37 1303.98,-237.62 1333.5,-188 1344.18,-170.05 1333.61,-144.77 1326.61,-131.65"/>
<polygon fill="midnightblue" stroke="midnightblue" points="1195,-274.32 1186.34,-280.43 1196.92,-281.05 1195,-274.32"/>
</g>
<!-- Node22 -->
<g id="node22" class="node">
<title>Node22</title>
<g id="a_node22"><a xlink:href="controlflow_8hpp.html" target="_top" xlink:title=" ">
<polygon fill="white" stroke="black" points="1147.5,-168.5 1147.5,-187.5 1305.5,-187.5 1305.5,-168.5 1147.5,-168.5"/>
<text text-anchor="middle" x="1226.5" y="-175.5" font-family="Helvetica,sans-Serif" font-size="10.00">src/optimizer/controlflow.hpp</text>
</a>
</g>
</g>
<!-- Node14&#45;&gt;Node22 -->
<g id="edge40" class="edge">
<title>Node14&#45;&gt;Node22</title>
<path fill="none" stroke="midnightblue" d="M1159.74,-271.96C1176.86,-248.12 1207.32,-205.71 1220.33,-187.59"/>
<polygon fill="midnightblue" stroke="midnightblue" points="1156.69,-270.2 1153.7,-280.37 1162.38,-274.29 1156.69,-270.2"/>
</g>
<!-- Node23 -->
<g id="node23" class="node">
<title>Node23</title>
<g id="a_node23"><a xlink:href="controlflow_8cpp.html" target="_top" xlink:title=" ">
<polygon fill="white" stroke="black" points="894.5,-112.5 894.5,-131.5 1052.5,-131.5 1052.5,-112.5 894.5,-112.5"/>
<text text-anchor="middle" x="973.5" y="-119.5" font-family="Helvetica,sans-Serif" font-size="10.00">src/optimizer/controlflow.cpp</text>
</a>
</g>
</g>
<!-- Node14&#45;&gt;Node23 -->
<g id="edge39" class="edge">
<title>Node14&#45;&gt;Node23</title>
<path fill="none" stroke="midnightblue" d="M1084.96,-278.7C999.16,-263.14 851.94,-230.86 820.5,-188 796.38,-155.13 845.46,-138.75 894.3,-130.66"/>
<polygon fill="midnightblue" stroke="midnightblue" points="1084.4,-282.15 1094.86,-280.47 1085.63,-275.26 1084.4,-282.15"/>
</g>
<!-- Node14&#45;&gt;Node25 -->
<g id="edge35" class="edge">
<title>Node14&#45;&gt;Node25</title>
<path fill="none" stroke="midnightblue" d="M1213.42,-278.92C1280.1,-268.71 1382.07,-253.12 1444.83,-243.52"/>
<polygon fill="midnightblue" stroke="midnightblue" points="1212.79,-275.47 1203.43,-280.44 1213.85,-282.39 1212.79,-275.47"/>
</g>
<!-- Node15&#45;&gt;Node5 -->
<g id="edge17" class="edge">
<title>Node15&#45;&gt;Node5</title>
<path fill="none" stroke="midnightblue" d="M1047.4,-218.81C1025.83,-205.18 991.91,-184.3 961.5,-168 928.56,-150.34 905.49,-163.58 885.5,-132 880.75,-124.49 879.58,-118.63 885.5,-112 896.33,-99.87 1105.37,-81.2 1214.86,-72.21"/>
<polygon fill="midnightblue" stroke="midnightblue" points="1045.79,-221.94 1056.11,-224.35 1049.55,-216.03 1045.79,-221.94"/>
</g>
<!-- Node15&#45;&gt;Node8 -->
<g id="edge34" class="edge">
<title>Node15&#45;&gt;Node8</title>
<path fill="none" stroke="midnightblue" d="M997.35,-223.4C920.79,-213.22 800.96,-197.28 727.61,-187.53"/>
<polygon fill="midnightblue" stroke="midnightblue" points="997.02,-226.89 1007.4,-224.74 997.94,-219.95 997.02,-226.89"/>
</g>
<!-- Node16 -->
<g id="node16" class="node">
<title>Node16</title>
<g id="a_node16"><a xlink:href="poliz_8cpp.html" target="_top" xlink:title=" ">
<polygon fill="white" stroke="black" points="830,-168.5 830,-187.5 953,-187.5 953,-168.5 830,-168.5"/>
<text text-anchor="middle" x="891.5" y="-175.5" font-family="Helvetica,sans-Serif" font-size="10.00">src/common/poliz.cpp</text>
</a>
</g>
</g>
<!-- Node15&#45;&gt;Node16 -->
<g id="edge16" class="edge">
<title>Node15&#45;&gt;Node16</title>
<path fill="none" stroke="midnightblue" d="M1031.38,-221.44C997.82,-211.26 949.73,-196.66 919.57,-187.52"/>
<polygon fill="midnightblue" stroke="midnightblue" points="1030.71,-224.89 1041.3,-224.44 1032.74,-218.19 1030.71,-224.89"/>
</g>
<!-- Node15&#45;&gt;Node17 -->
<g id="edge18" class="edge">
<title>Node15&#45;&gt;Node17</title>
<path fill="none" stroke="midnightblue" d="M1141.98,-223.52C1219.84,-213.34 1342.42,-197.32 1417.33,-187.52"/>
<polygon fill="midnightblue" stroke="midnightblue" points="1141.24,-220.09 1131.78,-224.86 1142.15,-227.03 1141.24,-220.09"/>
</g>
<!-- Node15&#45;&gt;Node19 -->
<g id="edge33" class="edge">
<title>Node15&#45;&gt;Node19</title>
<path fill="none" stroke="midnightblue" d="M1141.76,-229.1C1205.43,-224.05 1291.53,-212.75 1314.5,-188 1328.71,-172.69 1326.11,-145.81 1323.52,-131.9"/>
<polygon fill="midnightblue" stroke="midnightblue" points="1141.46,-225.61 1131.75,-229.85 1141.98,-232.59 1141.46,-225.61"/>
</g>
<!-- Node15&#45;&gt;Node22 -->
<g id="edge24" class="edge">
<title>Node15&#45;&gt;Node22</title>
<path fill="none" stroke="midnightblue" d="M1103.89,-221.17C1133.45,-211 1175.37,-196.59 1201.74,-187.52"/>
<polygon fill="midnightblue" stroke="midnightblue" points="1102.7,-217.88 1094.38,-224.44 1104.97,-224.5 1102.7,-217.88"/>
</g>
<!-- Node24 -->
<g id="node24" class="node">
<title>Node24</title>
<g id="a_node24"><a xlink:href="util_8hpp.html" target="_top" xlink:title=" ">
<polygon fill="white" stroke="black" points="1009.5,-168.5 1009.5,-187.5 1129.5,-187.5 1129.5,-168.5 1009.5,-168.5"/>
<text text-anchor="middle" x="1069.5" y="-175.5" font-family="Helvetica,sans-Serif" font-size="10.00">src/optimizer/util.hpp</text>
</a>
</g>
</g>
<!-- Node15&#45;&gt;Node24 -->
<g id="edge28" class="edge">
<title>Node15&#45;&gt;Node24</title>
<path fill="none" stroke="midnightblue" d="M1069.5,-213.8C1069.5,-204.91 1069.5,-194.78 1069.5,-187.75"/>
<polygon fill="midnightblue" stroke="midnightblue" points="1066,-214.08 1069.5,-224.08 1073,-214.08 1066,-214.08"/>
</g>
<!-- Node17&#45;&gt;Node18 -->
<g id="edge19" class="edge">
<title>Node17&#45;&gt;Node18</title>
<path fill="none" stroke="midnightblue" d="M1487.67,-158.4C1490.18,-149.36 1493.07,-138.94 1495.07,-131.75"/>
<polygon fill="midnightblue" stroke="midnightblue" points="1484.28,-157.51 1484.98,-168.08 1491.03,-159.38 1484.28,-157.51"/>
</g>
<!-- Node17&#45;&gt;Node19 -->
<g id="edge20" class="edge">
<title>Node17&#45;&gt;Node19</title>
<path fill="none" stroke="midnightblue" d="M1447.24,-165.17C1416.92,-155 1373.93,-140.59 1346.89,-131.52"/>
<polygon fill="midnightblue" stroke="midnightblue" points="1446.4,-168.58 1456.99,-168.44 1448.62,-161.95 1446.4,-168.58"/>
</g>
<!-- Node21 -->
<g id="node21" class="node">
<title>Node21</title>
<g id="a_node21"><a xlink:href="util_8cpp.html" target="_top" xlink:title=" ">
<polygon fill="white" stroke="black" points="1109,-112.5 1109,-131.5 1228,-131.5 1228,-112.5 1109,-112.5"/>
<text text-anchor="middle" x="1168.5" y="-119.5" font-family="Helvetica,sans-Serif" font-size="10.00">src/optimizer/util.cpp</text>
</a>
</g>
</g>
<!-- Node17&#45;&gt;Node21 -->
<g id="edge23" class="edge">
<title>Node17&#45;&gt;Node21</title>
<path fill="none" stroke="midnightblue" d="M1422.77,-166.73C1363.43,-156.52 1273.51,-141.06 1218.02,-131.52"/>
<polygon fill="midnightblue" stroke="midnightblue" points="1422.3,-170.2 1432.75,-168.44 1423.48,-163.3 1422.3,-170.2"/>
</g>
<!-- Node19&#45;&gt;Node5 -->
<g id="edge21" class="edge">
<title>Node19&#45;&gt;Node5</title>
<path fill="none" stroke="midnightblue" d="M1308.48,-103.86C1301.38,-94.5 1292.9,-83.33 1287.14,-75.75"/>
<polygon fill="midnightblue" stroke="midnightblue" points="1305.89,-106.24 1314.73,-112.08 1311.47,-102 1305.89,-106.24"/>
</g>
<!-- Node19&#45;&gt;Node20 -->
<g id="edge22" class="edge">
<title>Node19&#45;&gt;Node20</title>
<path fill="none" stroke="midnightblue" d="M1273.38,-110.22C1227.84,-100.01 1160.39,-84.9 1118.51,-75.52"/>
<polygon fill="midnightblue" stroke="midnightblue" points="1272.79,-113.67 1283.31,-112.44 1274.32,-106.84 1272.79,-113.67"/>
</g>
<!-- Node22&#45;&gt;Node19 -->
<g id="edge26" class="edge">
<title>Node22&#45;&gt;Node19</title>
<path fill="none" stroke="midnightblue" d="M1250.82,-163.18C1268.3,-153.24 1291.33,-140.15 1306.27,-131.65"/>
<polygon fill="midnightblue" stroke="midnightblue" points="1248.73,-160.34 1241.76,-168.32 1252.19,-166.43 1248.73,-160.34"/>
</g>
<!-- Node22&#45;&gt;Node21 -->
<g id="edge27" class="edge">
<title>Node22&#45;&gt;Node21</title>
<path fill="none" stroke="midnightblue" d="M1209.59,-161.25C1199.3,-151.67 1186.53,-139.79 1177.99,-131.83"/>
<polygon fill="midnightblue" stroke="midnightblue" points="1207.48,-164.07 1217.18,-168.32 1212.25,-158.95 1207.48,-164.07"/>
</g>
<!-- Node22&#45;&gt;Node23 -->
<g id="edge25" class="edge">
<title>Node22&#45;&gt;Node23</title>
<path fill="none" stroke="midnightblue" d="M1176.58,-166.35C1128.77,-156.14 1057.55,-140.94 1013.4,-131.52"/>
<polygon fill="midnightblue" stroke="midnightblue" points="1175.9,-169.78 1186.41,-168.44 1177.36,-162.93 1175.9,-169.78"/>
</g>
<!-- Node24&#45;&gt;Node18 -->
<g id="edge29" class="edge">
<title>Node24&#45;&gt;Node18</title>
<path fill="none" stroke="midnightblue" d="M1139.69,-167.85C1246.48,-154.21 1358.58,-140.23 1428.66,-131.52"/>
<polygon fill="midnightblue" stroke="midnightblue" points="1139.18,-164.39 1129.71,-169.13 1140.07,-171.33 1139.18,-164.39"/>
</g>
<!-- Node24&#45;&gt;Node20 -->
<g id="edge31" class="edge">
<title>Node24&#45;&gt;Node20</title>
<path fill="none" stroke="midnightblue" d="M1071.37,-158.35C1073.77,-134.25 1077.87,-93.31 1079.64,-75.59"/>
<polygon fill="midnightblue" stroke="midnightblue" points="1067.88,-158.07 1070.36,-168.37 1074.84,-158.77 1067.88,-158.07"/>
</g>
<!-- Node24&#45;&gt;Node21 -->
<g id="edge32" class="edge">
<title>Node24&#45;&gt;Node21</title>
<path fill="none" stroke="midnightblue" d="M1094.34,-163.45C1112.61,-153.48 1136.92,-140.23 1152.63,-131.65"/>
<polygon fill="midnightblue" stroke="midnightblue" points="1092.51,-160.46 1085.41,-168.32 1095.86,-166.61 1092.51,-160.46"/>
</g>
<!-- Node24&#45;&gt;Node23 -->
<g id="edge30" class="edge">
<title>Node24&#45;&gt;Node23</title>
<path fill="none" stroke="midnightblue" d="M1044.93,-163.18C1027.26,-153.24 1003.99,-140.15 988.89,-131.65"/>
<polygon fill="midnightblue" stroke="midnightblue" points="1043.64,-166.47 1054.08,-168.32 1047.08,-160.37 1043.64,-166.47"/>
</g>
</g>
</svg>
