<?xml version="1.0" encoding="UTF-8" standalone="no"?>
<!DOCTYPE svg PUBLIC "-//W3C//DTD SVG 1.1//EN"
 "http://www.w3.org/Graphics/SVG/1.1/DTD/svg11.dtd">
<!-- Generated by graphviz version 2.43.0 (0)
 -->
<!-- Title: src/flc.cpp Pages: 1 -->
<svg width="1048pt" height="364pt"
 viewBox="0.00 0.00 1047.97 364.00" xmlns="http://www.w3.org/2000/svg" xmlns:xlink="http://www.w3.org/1999/xlink">
<g id="graph0" class="graph" transform="scale(1 1) rotate(0) translate(4 360)">
<title>src/flc.cpp</title>
<polygon fill="white" stroke="transparent" points="-4,4 -4,-360 1043.97,-360 1043.97,4 -4,4"/>
<!-- Node1 -->
<g id="node1" class="node">
<title>Node1</title>
<g id="a_node1"><a xlink:title=" ">
<polygon fill="#bfbfbf" stroke="black" points="95,-336.5 95,-355.5 161,-355.5 161,-336.5 95,-336.5"/>
<text text-anchor="middle" x="128" y="-343.5" font-family="Helvetica,sans-Serif" font-size="10.00">src/flc.cpp</text>
</a>
</g>
</g>
<!-- Node2 -->
<g id="node2" class="node">
<title>Node2</title>
<g id="a_node2"><a xlink:href="version_8hpp.html" target="_top" xlink:title=" ">
<polygon fill="white" stroke="black" points="0,-280.5 0,-299.5 74,-299.5 74,-280.5 0,-280.5"/>
<text text-anchor="middle" x="37" y="-287.5" font-family="Helvetica,sans-Serif" font-size="10.00">version.hpp</text>
</a>
</g>
</g>
<!-- Node1&#45;&gt;Node2 -->
<g id="edge1" class="edge">
<title>Node1&#45;&gt;Node2</title>
<path fill="none" stroke="midnightblue" d="M113.38,-336.32C99.05,-327.82 76.99,-314.73 60.25,-304.8"/>
<polygon fill="midnightblue" stroke="midnightblue" points="61.97,-301.75 51.58,-299.65 58.4,-307.77 61.97,-301.75"/>
</g>
<!-- Node3 -->
<g id="node3" class="node">
<title>Node3</title>
<g id="a_node3"><a xlink:title=" ">
<polygon fill="white" stroke="#bfbfbf" points="110,-168.5 110,-187.5 170,-187.5 170,-168.5 110,-168.5"/>
<text text-anchor="middle" x="140" y="-175.5" font-family="Helvetica,sans-Serif" font-size="10.00">iostream</text>
</a>
</g>
</g>
<!-- Node1&#45;&gt;Node3 -->
<g id="edge2" class="edge">
<title>Node1&#45;&gt;Node3</title>
<path fill="none" stroke="midnightblue" d="M126.26,-336.42C124.53,-327.4 121.99,-312.77 121,-300 118.17,-263.4 127.8,-221.13 134.37,-197.48"/>
<polygon fill="midnightblue" stroke="midnightblue" points="137.77,-198.33 137.2,-187.75 131.05,-196.38 137.77,-198.33"/>
</g>
<!-- Node4 -->
<g id="node4" class="node">
<title>Node4</title>
<g id="a_node4"><a xlink:title=" ">
<polygon fill="white" stroke="#bfbfbf" points="130,-280.5 130,-299.5 180,-299.5 180,-280.5 130,-280.5"/>
<text text-anchor="middle" x="155" y="-287.5" font-family="Helvetica,sans-Serif" font-size="10.00">chrono</text>
</a>
</g>
</g>
<!-- Node1&#45;&gt;Node4 -->
<g id="edge3" class="edge">
<title>Node1&#45;&gt;Node4</title>
<path fill="none" stroke="midnightblue" d="M132.46,-336.08C136.15,-328.69 141.52,-317.95 146.09,-308.81"/>
<polygon fill="midnightblue" stroke="midnightblue" points="149.28,-310.26 150.62,-299.75 143.02,-307.13 149.28,-310.26"/>
</g>
<!-- Node5 -->
<g id="node5" class="node">
<title>Node5</title>
<g id="a_node5"><a xlink:href="parser_8hpp.html" target="_top" xlink:title=" ">
<polygon fill="white" stroke="black" points="400,-280.5 400,-299.5 514,-299.5 514,-280.5 400,-280.5"/>
<text text-anchor="middle" x="457" y="-287.5" font-family="Helvetica,sans-Serif" font-size="10.00">compiler/parser.hpp</text>
</a>
</g>
</g>
<!-- Node1&#45;&gt;Node5 -->
<g id="edge4" class="edge">
<title>Node1&#45;&gt;Node5</title>
<path fill="none" stroke="midnightblue" d="M161.05,-339.58C215.72,-330.6 325.82,-312.53 395.23,-301.14"/>
<polygon fill="midnightblue" stroke="midnightblue" points="395.86,-304.58 405.16,-299.51 394.73,-297.67 395.86,-304.58"/>
</g>
<!-- Node5&#45;&gt;Node3 -->
<g id="edge5" class="edge">
<title>Node5&#45;&gt;Node3</title>
<path fill="none" stroke="midnightblue" d="M399.99,-287.52C323.71,-284.37 193.97,-274.55 159,-244 145.88,-232.53 141.58,-212.56 140.29,-197.77"/>
<polygon fill="midnightblue" stroke="midnightblue" points="143.78,-197.51 139.79,-187.69 136.79,-197.86 143.78,-197.51"/>
</g>
<!-- Node6 -->
<g id="node6" class="node">
<title>Node6</title>
<g id="a_node6"><a xlink:title=" ">
<polygon fill="white" stroke="#bfbfbf" points="542.5,-112.5 542.5,-131.5 597.5,-131.5 597.5,-112.5 542.5,-112.5"/>
<text text-anchor="middle" x="570" y="-119.5" font-family="Helvetica,sans-Serif" font-size="10.00">fstream</text>
</a>
</g>
</g>
<!-- Node5&#45;&gt;Node6 -->
<g id="edge6" class="edge">
<title>Node5&#45;&gt;Node6</title>
<path fill="none" stroke="midnightblue" d="M477.73,-280.47C493.54,-272.99 514.77,-260.7 528,-244 552.43,-213.17 563.15,-167.17 567.45,-141.68"/>
<polygon fill="midnightblue" stroke="midnightblue" points="570.94,-141.96 568.99,-131.55 564.02,-140.91 570.94,-141.96"/>
</g>
<!-- Node7 -->
<g id="node7" class="node">
<title>Node7</title>
<g id="a_node7"><a xlink:href="config_8hpp.html" target="_top" xlink:title=" ">
<polygon fill="white" stroke="black" points="380,-168.5 380,-187.5 448,-187.5 448,-168.5 380,-168.5"/>
<text text-anchor="middle" x="414" y="-175.5" font-family="Helvetica,sans-Serif" font-size="10.00">config.hpp</text>
</a>
</g>
</g>
<!-- Node5&#45;&gt;Node7 -->
<g id="edge7" class="edge">
<title>Node5&#45;&gt;Node7</title>
<path fill="none" stroke="midnightblue" d="M453.63,-280.37C446.62,-262.46 430.39,-220.92 421.02,-196.95"/>
<polygon fill="midnightblue" stroke="midnightblue" points="424.26,-195.63 417.36,-187.59 417.74,-198.18 424.26,-195.63"/>
</g>
<!-- Node8 -->
<g id="node8" class="node">
<title>Node8</title>
<g id="a_node8"><a xlink:href="exprtype_8hpp.html" target="_top" xlink:title=" ">
<polygon fill="white" stroke="black" points="472.5,-0.5 472.5,-19.5 599.5,-19.5 599.5,-0.5 472.5,-0.5"/>
<text text-anchor="middle" x="536" y="-7.5" font-family="Helvetica,sans-Serif" font-size="10.00">common/exprtype.hpp</text>
</a>
</g>
</g>
<!-- Node5&#45;&gt;Node8 -->
<g id="edge8" class="edge">
<title>Node5&#45;&gt;Node8</title>
<path fill="none" stroke="midnightblue" d="M459.56,-280.25C464.75,-261.74 476,-217.18 476,-179 476,-179 476,-179 476,-121 476,-83.88 502.65,-47.38 520.43,-27.16"/>
<polygon fill="midnightblue" stroke="midnightblue" points="523.24,-29.28 527.4,-19.53 518.07,-24.55 523.24,-29.28"/>
</g>
<!-- Node9 -->
<g id="node9" class="node">
<title>Node9</title>
<g id="a_node9"><a xlink:href="tables_8hpp.html" target="_top" xlink:title=" ">
<polygon fill="white" stroke="black" points="711.5,-56.5 711.5,-75.5 824.5,-75.5 824.5,-56.5 711.5,-56.5"/>
<text text-anchor="middle" x="768" y="-63.5" font-family="Helvetica,sans-Serif" font-size="10.00">common/tables.hpp</text>
</a>
</g>
</g>
<!-- Node5&#45;&gt;Node9 -->
<g id="edge9" class="edge">
<title>Node5&#45;&gt;Node9</title>
<path fill="none" stroke="midnightblue" d="M464.71,-280.24C472.05,-271.55 482.97,-257.6 490,-244 518.41,-189.07 487.49,-152.75 534,-112 546.57,-100.99 636.52,-85.94 701.14,-76.35"/>
<polygon fill="midnightblue" stroke="midnightblue" points="701.9,-79.78 711.28,-74.86 700.88,-72.85 701.9,-79.78"/>
</g>
<!-- Node13 -->
<g id="node13" class="node">
<title>Node13</title>
<g id="a_node13"><a xlink:href="poliz_8hpp.html" target="_top" xlink:title=" ">
<polygon fill="white" stroke="black" points="615.5,-112.5 615.5,-131.5 722.5,-131.5 722.5,-112.5 615.5,-112.5"/>
<text text-anchor="middle" x="669" y="-119.5" font-family="Helvetica,sans-Serif" font-size="10.00">common/poliz.hpp</text>
</a>
</g>
</g>
<!-- Node5&#45;&gt;Node13 -->
<g id="edge14" class="edge">
<title>Node5&#45;&gt;Node13</title>
<path fill="none" stroke="midnightblue" d="M479.08,-280.49C498.23,-272.55 526.23,-259.62 548,-244 592.05,-212.4 634.78,-164.37 655.69,-139.39"/>
<polygon fill="midnightblue" stroke="midnightblue" points="658.47,-141.51 662.15,-131.58 653.08,-137.06 658.47,-141.51"/>
</g>
<!-- Node15 -->
<g id="node15" class="node">
<title>Node15</title>
<g id="a_node15"><a xlink:href="stack_8hpp.html" target="_top" xlink:title=" ">
<polygon fill="white" stroke="black" points="300,-224.5 300,-243.5 410,-243.5 410,-224.5 300,-224.5"/>
<text text-anchor="middle" x="355" y="-231.5" font-family="Helvetica,sans-Serif" font-size="10.00">common/stack.hpp</text>
</a>
</g>
</g>
<!-- Node5&#45;&gt;Node15 -->
<g id="edge18" class="edge">
<title>Node5&#45;&gt;Node15</title>
<path fill="none" stroke="midnightblue" d="M440.61,-280.32C424.33,-271.7 399.13,-258.36 380.28,-248.39"/>
<polygon fill="midnightblue" stroke="midnightblue" points="381.82,-245.24 371.35,-243.65 378.55,-251.43 381.82,-245.24"/>
</g>
<!-- Node16 -->
<g id="node16" class="node">
<title>Node16</title>
<g id="a_node16"><a xlink:href="cursor_8hpp.html" target="_top" xlink:title=" ">
<polygon fill="white" stroke="black" points="168.5,-224.5 168.5,-243.5 281.5,-243.5 281.5,-224.5 168.5,-224.5"/>
<text text-anchor="middle" x="225" y="-231.5" font-family="Helvetica,sans-Serif" font-size="10.00">compiler/cursor.hpp</text>
</a>
</g>
</g>
<!-- Node5&#45;&gt;Node16 -->
<g id="edge22" class="edge">
<title>Node5&#45;&gt;Node16</title>
<path fill="none" stroke="midnightblue" d="M420.24,-280.44C379.94,-271.06 315.19,-255.99 271.42,-245.8"/>
<polygon fill="midnightblue" stroke="midnightblue" points="272.12,-242.37 261.59,-243.52 270.54,-249.19 272.12,-242.37"/>
</g>
<!-- Node17 -->
<g id="node17" class="node">
<title>Node17</title>
<g id="a_node17"><a xlink:href="optimizer_8hpp.html" target="_top" xlink:title=" ">
<polygon fill="white" stroke="black" points="710,-224.5 710,-243.5 844,-243.5 844,-224.5 710,-224.5"/>
<text text-anchor="middle" x="777" y="-231.5" font-family="Helvetica,sans-Serif" font-size="10.00">optimizer/optimizer.hpp</text>
</a>
</g>
</g>
<!-- Node5&#45;&gt;Node17 -->
<g id="edge24" class="edge">
<title>Node5&#45;&gt;Node17</title>
<path fill="none" stroke="midnightblue" d="M507.7,-280.44C564.35,-270.89 656,-255.42 716.38,-245.23"/>
<polygon fill="midnightblue" stroke="midnightblue" points="717.25,-248.63 726.53,-243.52 716.09,-241.73 717.25,-248.63"/>
</g>
<!-- Node9&#45;&gt;Node8 -->
<g id="edge13" class="edge">
<title>Node9&#45;&gt;Node8</title>
<path fill="none" stroke="midnightblue" d="M731.24,-56.44C690.94,-47.06 626.19,-31.99 582.42,-21.8"/>
<polygon fill="midnightblue" stroke="midnightblue" points="583.12,-18.37 572.59,-19.52 581.54,-25.19 583.12,-18.37"/>
</g>
<!-- Node10 -->
<g id="node10" class="node">
<title>Node10</title>
<g id="a_node10"><a xlink:title=" ">
<polygon fill="white" stroke="#bfbfbf" points="353.5,-0.5 353.5,-19.5 406.5,-19.5 406.5,-0.5 353.5,-0.5"/>
<text text-anchor="middle" x="380" y="-7.5" font-family="Helvetica,sans-Serif" font-size="10.00">cstddef</text>
</a>
</g>
</g>
<!-- Node9&#45;&gt;Node10 -->
<g id="edge10" class="edge">
<title>Node9&#45;&gt;Node10</title>
<path fill="none" stroke="midnightblue" d="M711.17,-57.09C630.45,-45.86 484.86,-25.59 416.86,-16.13"/>
<polygon fill="midnightblue" stroke="midnightblue" points="417.02,-12.62 406.64,-14.71 416.06,-19.55 417.02,-12.62"/>
</g>
<!-- Node11 -->
<g id="node11" class="node">
<title>Node11</title>
<g id="a_node11"><a xlink:title=" ">
<polygon fill="white" stroke="#bfbfbf" points="739.5,-0.5 739.5,-19.5 796.5,-19.5 796.5,-0.5 739.5,-0.5"/>
<text text-anchor="middle" x="768" y="-7.5" font-family="Helvetica,sans-Serif" font-size="10.00">ostream</text>
</a>
</g>
</g>
<!-- Node9&#45;&gt;Node11 -->
<g id="edge11" class="edge">
<title>Node9&#45;&gt;Node11</title>
<path fill="none" stroke="midnightblue" d="M768,-56.08C768,-49.01 768,-38.86 768,-29.99"/>
<polygon fill="midnightblue" stroke="midnightblue" points="771.5,-29.75 768,-19.75 764.5,-29.75 771.5,-29.75"/>
</g>
<!-- Node12 -->
<g id="node12" class="node">
<title>Node12</title>
<g id="a_node12"><a xlink:title=" ">
<polygon fill="white" stroke="#bfbfbf" points="940.5,-0.5 940.5,-19.5 987.5,-19.5 987.5,-0.5 940.5,-0.5"/>
<text text-anchor="middle" x="964" y="-7.5" font-family="Helvetica,sans-Serif" font-size="10.00">vector</text>
</a>
</g>
</g>
<!-- Node9&#45;&gt;Node12 -->
<g id="edge12" class="edge">
<title>Node9&#45;&gt;Node12</title>
<path fill="none" stroke="midnightblue" d="M799.06,-56.44C834.97,-46.55 893.86,-30.32 930.7,-20.17"/>
<polygon fill="midnightblue" stroke="midnightblue" points="931.76,-23.51 940.47,-17.48 929.9,-16.76 931.76,-23.51"/>
</g>
<!-- Node13&#45;&gt;Node8 -->
<g id="edge16" class="edge">
<title>Node13&#45;&gt;Node8</title>
<path fill="none" stroke="midnightblue" d="M622.89,-112.48C599.95,-106.04 573.47,-94.93 556,-76 544.38,-63.4 539.5,-44.19 537.46,-29.91"/>
<polygon fill="midnightblue" stroke="midnightblue" points="540.92,-29.31 536.36,-19.74 533.96,-30.06 540.92,-29.31"/>
</g>
<!-- Node13&#45;&gt;Node9 -->
<g id="edge15" class="edge">
<title>Node13&#45;&gt;Node9</title>
<path fill="none" stroke="midnightblue" d="M684.91,-112.32C700.64,-103.74 724.94,-90.49 743.21,-80.52"/>
<polygon fill="midnightblue" stroke="midnightblue" points="745.03,-83.52 752.13,-75.65 741.68,-77.37 745.03,-83.52"/>
</g>
<!-- Node14 -->
<g id="node14" class="node">
<title>Node14</title>
<g id="a_node14"><a xlink:href="cppcheck_8hpp.html" target="_top" xlink:title=" ">
<polygon fill="white" stroke="black" points="564.5,-56.5 564.5,-75.5 693.5,-75.5 693.5,-56.5 564.5,-56.5"/>
<text text-anchor="middle" x="629" y="-63.5" font-family="Helvetica,sans-Serif" font-size="10.00">common/cppcheck.hpp</text>
</a>
</g>
</g>
<!-- Node13&#45;&gt;Node14 -->
<g id="edge17" class="edge">
<title>Node13&#45;&gt;Node14</title>
<path fill="none" stroke="midnightblue" d="M662.39,-112.08C656.74,-104.46 648.46,-93.26 641.55,-83.94"/>
<polygon fill="midnightblue" stroke="midnightblue" points="644.25,-81.7 635.48,-75.75 638.62,-85.87 644.25,-81.7"/>
</g>
<!-- Node15&#45;&gt;Node7 -->
<g id="edge20" class="edge">
<title>Node15&#45;&gt;Node7</title>
<path fill="none" stroke="midnightblue" d="M364.48,-224.32C373.2,-216.34 386.34,-204.31 396.9,-194.65"/>
<polygon fill="midnightblue" stroke="midnightblue" points="399.33,-197.17 404.35,-187.83 394.61,-192 399.33,-197.17"/>
</g>
<!-- Node15&#45;&gt;Node8 -->
<g id="edge21" class="edge">
<title>Node15&#45;&gt;Node8</title>
<path fill="none" stroke="midnightblue" d="M355.93,-224.17C357.56,-211.25 361.68,-186.73 371,-168 399.58,-110.58 413.67,-98.17 462,-56 476.22,-43.59 494.28,-32.54 509,-24.49"/>
<polygon fill="midnightblue" stroke="midnightblue" points="510.93,-27.43 518.12,-19.65 507.65,-21.24 510.93,-27.43"/>
</g>
<!-- Node15&#45;&gt;Node10 -->
<g id="edge19" class="edge">
<title>Node15&#45;&gt;Node10</title>
<path fill="none" stroke="midnightblue" d="M350.63,-224.31C346.44,-215.44 340.4,-201.14 338,-188 327.46,-130.29 316.49,-110.58 338,-56 342.51,-44.55 351.47,-34.29 359.95,-26.47"/>
<polygon fill="midnightblue" stroke="midnightblue" points="362.47,-28.93 367.79,-19.76 357.91,-23.61 362.47,-28.93"/>
</g>
<!-- Node16&#45;&gt;Node3 -->
<g id="edge23" class="edge">
<title>Node16&#45;&gt;Node3</title>
<path fill="none" stroke="midnightblue" d="M211.34,-224.32C198.08,-215.9 177.73,-202.97 162.15,-193.07"/>
<polygon fill="midnightblue" stroke="midnightblue" points="163.94,-190.06 153.62,-187.65 160.19,-195.97 163.94,-190.06"/>
</g>
<!-- Node17&#45;&gt;Node9 -->
<g id="edge26" class="edge">
<title>Node17&#45;&gt;Node9</title>
<path fill="none" stroke="midnightblue" d="M785.21,-224.18C792.54,-215.66 802.76,-202.02 807,-188 809.58,-179.49 808.63,-176.74 807,-168 801.31,-137.47 786.72,-104.28 777.09,-84.58"/>
<polygon fill="midnightblue" stroke="midnightblue" points="780.19,-82.96 772.58,-75.59 773.94,-86.1 780.19,-82.96"/>
</g>
<!-- Node17&#45;&gt;Node12 -->
<g id="edge25" class="edge">
<title>Node17&#45;&gt;Node12</title>
<path fill="none" stroke="midnightblue" d="M844.17,-229.43C905.94,-224.58 991.02,-213.37 1012,-188 1027.25,-169.55 1071.28,-225.51 1001,-56 996.47,-45.07 988.35,-34.73 980.87,-26.73"/>
<polygon fill="midnightblue" stroke="midnightblue" points="983.29,-24.19 973.76,-19.56 978.32,-29.13 983.29,-24.19"/>
</g>
<!-- Node17&#45;&gt;Node13 -->
<g id="edge27" class="edge">
<title>Node17&#45;&gt;Node13</title>
<path fill="none" stroke="midnightblue" d="M709.68,-225.52C686.25,-219.31 662.28,-208.11 648,-188 637.75,-173.57 646.6,-153.86 655.75,-139.94"/>
<polygon fill="midnightblue" stroke="midnightblue" points="658.65,-141.91 661.62,-131.74 652.95,-137.84 658.65,-141.91"/>
</g>
<!-- Node18 -->
<g id="node18" class="node">
<title>Node18</title>
<g id="a_node18"><a xlink:href="controlflow_8hpp.html" target="_top" xlink:title=" ">
<polygon fill="white" stroke="black" points="656.5,-168.5 656.5,-187.5 797.5,-187.5 797.5,-168.5 656.5,-168.5"/>
<text text-anchor="middle" x="727" y="-175.5" font-family="Helvetica,sans-Serif" font-size="10.00">optimizer/controlflow.hpp</text>
</a>
</g>
</g>
<!-- Node17&#45;&gt;Node18 -->
<g id="edge28" class="edge">
<title>Node17&#45;&gt;Node18</title>
<path fill="none" stroke="midnightblue" d="M768.74,-224.08C761.54,-216.3 750.89,-204.8 742.15,-195.37"/>
<polygon fill="midnightblue" stroke="midnightblue" points="744.47,-192.71 735.1,-187.75 739.33,-197.47 744.47,-192.71"/>
</g>
<!-- Node19 -->
<g id="node19" class="node">
<title>Node19</title>
<g id="a_node19"><a xlink:href="acyclicgraph_8hpp.html" target="_top" xlink:title=" ">
<polygon fill="white" stroke="black" points="853.5,-168.5 853.5,-187.5 1002.5,-187.5 1002.5,-168.5 853.5,-168.5"/>
<text text-anchor="middle" x="928" y="-175.5" font-family="Helvetica,sans-Serif" font-size="10.00">optimizer/acyclicgraph.hpp</text>
</a>
</g>
</g>
<!-- Node17&#45;&gt;Node19 -->
<g id="edge33" class="edge">
<title>Node17&#45;&gt;Node19</title>
<path fill="none" stroke="midnightblue" d="M800.93,-224.44C826.22,-215.4 866.3,-201.06 894.68,-190.92"/>
<polygon fill="midnightblue" stroke="midnightblue" points="895.95,-194.18 904.19,-187.52 893.59,-187.59 895.95,-194.18"/>
</g>
<!-- Node18&#45;&gt;Node6 -->
<g id="edge30" class="edge">
<title>Node18&#45;&gt;Node6</title>
<path fill="none" stroke="midnightblue" d="M702.12,-168.44C675.71,-159.36 633.78,-144.94 604.26,-134.78"/>
<polygon fill="midnightblue" stroke="midnightblue" points="605.36,-131.46 594.76,-131.52 603.08,-138.08 605.36,-131.46"/>
</g>
<!-- Node18&#45;&gt;Node9 -->
<g id="edge31" class="edge">
<title>Node18&#45;&gt;Node9</title>
<path fill="none" stroke="midnightblue" d="M730.22,-168.37C736.86,-150.54 752.24,-109.3 761.19,-85.27"/>
<polygon fill="midnightblue" stroke="midnightblue" points="764.58,-86.18 764.8,-75.59 758.03,-83.74 764.58,-86.18"/>
</g>
<!-- Node18&#45;&gt;Node12 -->
<g id="edge29" class="edge">
<title>Node18&#45;&gt;Node12</title>
<path fill="none" stroke="midnightblue" d="M739.41,-168.31C777.88,-141.36 895.46,-59.01 943.36,-25.46"/>
<polygon fill="midnightblue" stroke="midnightblue" points="945.53,-28.21 951.71,-19.61 941.52,-22.48 945.53,-28.21"/>
</g>
<!-- Node18&#45;&gt;Node13 -->
<g id="edge32" class="edge">
<title>Node18&#45;&gt;Node13</title>
<path fill="none" stroke="midnightblue" d="M717.68,-168.32C709.11,-160.34 696.19,-148.31 685.81,-138.65"/>
<polygon fill="midnightblue" stroke="midnightblue" points="688.19,-136.09 678.49,-131.83 683.42,-141.21 688.19,-136.09"/>
</g>
<!-- Node19&#45;&gt;Node8 -->
<g id="edge36" class="edge">
<title>Node19&#45;&gt;Node8</title>
<path fill="none" stroke="midnightblue" d="M924.21,-168.46C913.65,-145.77 881.51,-83.84 834,-56 797.08,-34.37 685.7,-22.01 610.07,-15.9"/>
<polygon fill="midnightblue" stroke="midnightblue" points="609.89,-12.38 599.65,-15.08 609.34,-19.36 609.89,-12.38"/>
</g>
<!-- Node19&#45;&gt;Node9 -->
<g id="edge37" class="edge">
<title>Node19&#45;&gt;Node9</title>
<path fill="none" stroke="midnightblue" d="M915.45,-168.37C888.11,-149.57 822.94,-104.77 789.14,-81.53"/>
<polygon fill="midnightblue" stroke="midnightblue" points="790.72,-78.37 780.5,-75.59 786.75,-84.14 790.72,-78.37"/>
</g>
<!-- Node19&#45;&gt;Node12 -->
<g id="edge34" class="edge">
<title>Node19&#45;&gt;Node12</title>
<path fill="none" stroke="midnightblue" d="M946.39,-168.47C960.1,-161 977.81,-148.71 986,-132 1002.6,-98.11 985.79,-53.34 973.79,-28.86"/>
<polygon fill="midnightblue" stroke="midnightblue" points="976.76,-26.98 969.06,-19.71 970.54,-30.2 976.76,-26.98"/>
</g>
<!-- Node19&#45;&gt;Node13 -->
<g id="edge38" class="edge">
<title>Node19&#45;&gt;Node13</title>
<path fill="none" stroke="midnightblue" d="M886.96,-168.44C841.68,-159 768.77,-143.8 719.89,-133.61"/>
<polygon fill="midnightblue" stroke="midnightblue" points="720.35,-130.13 709.85,-131.52 718.92,-136.98 720.35,-130.13"/>
</g>
<!-- Node20 -->
<g id="node20" class="node">
<title>Node20</title>
<g id="a_node20"><a xlink:title=" ">
<polygon fill="white" stroke="#bfbfbf" points="931.5,-112.5 931.5,-131.5 976.5,-131.5 976.5,-112.5 931.5,-112.5"/>
<text text-anchor="middle" x="954" y="-119.5" font-family="Helvetica,sans-Serif" font-size="10.00">utility</text>
</a>
</g>
</g>
<!-- Node19&#45;&gt;Node20 -->
<g id="edge35" class="edge">
<title>Node19&#45;&gt;Node20</title>
<path fill="none" stroke="midnightblue" d="M932.29,-168.08C935.85,-160.69 941.02,-149.95 945.42,-140.81"/>
<polygon fill="midnightblue" stroke="midnightblue" points="948.6,-142.28 949.79,-131.75 942.29,-139.24 948.6,-142.28"/>
</g>
</g>
</svg>
