<?xml version="1.0" encoding="UTF-8" standalone="no"?>
<!DOCTYPE svg PUBLIC "-//W3C//DTD SVG 1.1//EN"
 "http://www.w3.org/Graphics/SVG/1.1/DTD/svg11.dtd">
<!-- Generated by graphviz version 2.43.0 (0)
 -->
<!-- Title: src/flc.cpp Pages: 1 -->
<!--zoomable 364 -->
<svg id="main" version="1.1" xmlns="http://www.w3.org/2000/svg" xmlns:xlink="http://www.w3.org/1999/xlink" xml:space="preserve" onload="init(evt)">
<style type="text/css"><![CDATA[
.edge:hover path { stroke: red; }
.edge:hover polygon { stroke: red; fill: red; }
]]></style>
<script type="text/javascript"><![CDATA[
var edges = document.getElementsByTagName('g');
if (edges && edges.length) {
  for (var i=0;i<edges.length;i++) {
    if (edges[i].id.substr(0,4)=='edge') {
      edges[i].setAttribute('class','edge');
    }
  }
}
]]></script>
        <defs>
                <circle id="rim" cx="0" cy="0" r="7"/>
                <circle id="rim2" cx="0" cy="0" r="3.5"/>
                <g id="zoomPlus">
                        <use xlink:href="#rim" fill="#404040">
                                <set attributeName="fill" to="#808080" begin="zoomplus.mouseover" end="zoomplus.mouseout"/>
                        </use>
                        <path d="M-4,0h8M0,-4v8" fill="none" stroke="white" stroke-width="1.5" pointer-events="none"/>
                </g>
                <g id="zoomMin">
                        <use xlink:href="#rim" fill="#404040">
                                <set attributeName="fill" to="#808080" begin="zoomminus.mouseover" end="zoomminus.mouseout"/>
                        </use>
                        <path d="M-4,0h8" fill="none" stroke="white" stroke-width="1.5" pointer-events="none"/>
                </g>
                <g id="dirArrow">
                        <path fill="none" stroke="white" stroke-width="1.5" d="M0,-3.0v7 M-2.5,-0.5L0,-3.0L2.5,-0.5"/>
                </g>
               <g id="resetDef">
                       <use xlink:href="#rim2" fill="#404040">
                               <set attributeName="fill" to="#808080" begin="reset.mouseover" end="reset.mouseout"/>
                       </use>
               </g>
        </defs>

<script type="text/javascript">
var viewWidth = 1048;
var viewHeight = 364;
var sectionId = 'dynsection-0';
</script>
<script xlink:href="svgpan.js"/>
<svg id="graph" class="graph">
<g id="viewport">
<title>src/flc.cpp</title>
<polygon fill="white" stroke="transparent" points="-4,4 -4,-360 1044.31,-360 1044.31,4 -4,4"/>
<!-- Node1 -->
<g id="node1" class="node">
<title>Node1</title>
<g id="a_node1"><a xlink:title=" ">
<polygon fill="#bfbfbf" stroke="black" points="95.5,-336.5 95.5,-355.5 160.5,-355.5 160.5,-336.5 95.5,-336.5"/>
<text text-anchor="middle" x="128" y="-343.5" font-family="Helvetica,sans-Serif" font-size="10.00">src/flc.cpp</text>
</a>
</g>
</g>
<!-- Node2 -->
<g id="node2" class="node">
<title>Node2</title>
<g id="a_node2"><a xlink:href="version_8hpp.html" target="_top" xlink:title=" ">
<polygon fill="white" stroke="black" points="0,-280.5 0,-299.5 74,-299.5 74,-280.5 0,-280.5"/>
<text text-anchor="middle" x="37" y="-287.5" font-family="Helvetica,sans-Serif" font-size="10.00">version.hpp</text>
</a>
</g>
</g>
<!-- Node1&#45;&gt;Node2 -->
<g id="edge1" class="edge">
<title>Node1&#45;&gt;Node2</title>
<path fill="none" stroke="midnightblue" d="M113.38,-336.32C99.05,-327.82 76.99,-314.73 60.25,-304.8"/>
<polygon fill="midnightblue" stroke="midnightblue" points="61.97,-301.75 51.58,-299.65 58.4,-307.77 61.97,-301.75"/>
</g>
<!-- Node3 -->
<g id="node3" class="node">
<title>Node3</title>
<g id="a_node3"><a xlink:title=" ">
<polygon fill="white" stroke="#bfbfbf" points="110,-168.5 110,-187.5 170,-187.5 170,-168.5 110,-168.5"/>
<text text-anchor="middle" x="140" y="-175.5" font-family="Helvetica,sans-Serif" font-size="10.00">iostream</text>
</a>
</g>
</g>
<!-- Node1&#45;&gt;Node3 -->
<g id="edge2" class="edge">
<title>Node1&#45;&gt;Node3</title>
<path fill="none" stroke="midnightblue" d="M126.26,-336.42C124.53,-327.4 121.99,-312.77 121,-300 118.17,-263.4 127.8,-221.13 134.37,-197.48"/>
<polygon fill="midnightblue" stroke="midnightblue" points="137.77,-198.33 137.2,-187.75 131.05,-196.38 137.77,-198.33"/>
</g>
<!-- Node4 -->
<g id="node4" class="node">
<title>Node4</title>
<g id="a_node4"><a xlink:title=" ">
<polygon fill="white" stroke="#bfbfbf" points="130,-280.5 130,-299.5 180,-299.5 180,-280.5 130,-280.5"/>
<text text-anchor="middle" x="155" y="-287.5" font-family="Helvetica,sans-Serif" font-size="10.00">chrono</text>
</a>
</g>
</g>
<!-- Node1&#45;&gt;Node4 -->
<g id="edge3" class="edge">
<title>Node1&#45;&gt;Node4</title>
<path fill="none" stroke="midnightblue" d="M132.46,-336.08C136.15,-328.69 141.52,-317.95 146.09,-308.81"/>
<polygon fill="midnightblue" stroke="midnightblue" points="149.28,-310.26 150.62,-299.75 143.02,-307.13 149.28,-310.26"/>
</g>
<!-- Node5 -->
<g id="node5" class="node">
<title>Node5</title>
<g id="a_node5"><a xlink:href="parser_8hpp.html" target="_top" xlink:title=" ">
<polygon fill="white" stroke="black" points="400.5,-280.5 400.5,-299.5 513.5,-299.5 513.5,-280.5 400.5,-280.5"/>
<text text-anchor="middle" x="457" y="-287.5" font-family="Helvetica,sans-Serif" font-size="10.00">compiler/parser.hpp</text>
</a>
</g>
</g>
<!-- Node1&#45;&gt;Node5 -->
<g id="edge4" class="edge">
<title>Node1&#45;&gt;Node5</title>
<path fill="none" stroke="midnightblue" d="M160.75,-339.62C215.28,-330.67 325.55,-312.58 395.1,-301.16"/>
<polygon fill="midnightblue" stroke="midnightblue" points="395.75,-304.6 405.05,-299.53 394.62,-297.69 395.75,-304.6"/>
</g>
<!-- Node5&#45;&gt;Node3 -->
<g id="edge5" class="edge">
<title>Node5&#45;&gt;Node3</title>
<path fill="none" stroke="midnightblue" d="M400.31,-287.53C324.07,-284.4 194.02,-274.6 159,-244 145.88,-232.53 141.58,-212.56 140.29,-197.77"/>
<polygon fill="midnightblue" stroke="midnightblue" points="143.78,-197.51 139.79,-187.69 136.79,-197.86 143.78,-197.51"/>
</g>
<!-- Node6 -->
<g id="node6" class="node">
<title>Node6</title>
<g id="a_node6"><a xlink:title=" ">
<polygon fill="white" stroke="#bfbfbf" points="542.5,-112.5 542.5,-131.5 597.5,-131.5 597.5,-112.5 542.5,-112.5"/>
<text text-anchor="middle" x="570" y="-119.5" font-family="Helvetica,sans-Serif" font-size="10.00">fstream</text>
</a>
</g>
</g>
<!-- Node5&#45;&gt;Node6 -->
<g id="edge6" class="edge">
<title>Node5&#45;&gt;Node6</title>
<path fill="none" stroke="midnightblue" d="M477.73,-280.47C493.54,-272.99 514.77,-260.7 528,-244 552.43,-213.17 563.15,-167.17 567.45,-141.68"/>
<polygon fill="midnightblue" stroke="midnightblue" points="570.94,-141.96 568.99,-131.55 564.02,-140.91 570.94,-141.96"/>
</g>
<!-- Node7 -->
<g id="node7" class="node">
<title>Node7</title>
<g id="a_node7"><a xlink:href="config_8hpp.html" target="_top" xlink:title=" ">
<polygon fill="white" stroke="black" points="380.5,-168.5 380.5,-187.5 447.5,-187.5 447.5,-168.5 380.5,-168.5"/>
<text text-anchor="middle" x="414" y="-175.5" font-family="Helvetica,sans-Serif" font-size="10.00">config.hpp</text>
</a>
</g>
</g>
<!-- Node5&#45;&gt;Node7 -->
<g id="edge7" class="edge">
<title>Node5&#45;&gt;Node7</title>
<path fill="none" stroke="midnightblue" d="M453.63,-280.37C446.62,-262.46 430.39,-220.92 421.02,-196.95"/>
<polygon fill="midnightblue" stroke="midnightblue" points="424.26,-195.63 417.36,-187.59 417.74,-198.18 424.26,-195.63"/>
</g>
<!-- Node8 -->
<g id="node8" class="node">
<title>Node8</title>
<g id="a_node8"><a xlink:href="exprtype_8hpp.html" target="_top" xlink:title=" ">
<polygon fill="white" stroke="black" points="584.5,-0.5 584.5,-19.5 711.5,-19.5 711.5,-0.5 584.5,-0.5"/>
<text text-anchor="middle" x="648" y="-7.5" font-family="Helvetica,sans-Serif" font-size="10.00">common/exprtype.hpp</text>
</a>
</g>
</g>
<!-- Node5&#45;&gt;Node8 -->
<g id="edge8" class="edge">
<title>Node5&#45;&gt;Node8</title>
<path fill="none" stroke="midnightblue" d="M459.56,-280.25C464.75,-261.74 476,-217.18 476,-179 476,-179 476,-179 476,-121 476,-64.51 542.66,-35.72 592.99,-22.04"/>
<polygon fill="midnightblue" stroke="midnightblue" points="594,-25.39 602.81,-19.5 592.25,-18.61 594,-25.39"/>
</g>
<!-- Node9 -->
<g id="node9" class="node">
<title>Node9</title>
<g id="a_node9"><a xlink:href="tables_8hpp.html" target="_top" xlink:title=" ">
<polygon fill="white" stroke="black" points="694.5,-56.5 694.5,-75.5 807.5,-75.5 807.5,-56.5 694.5,-56.5"/>
<text text-anchor="middle" x="751" y="-63.5" font-family="Helvetica,sans-Serif" font-size="10.00">common/tables.hpp</text>
</a>
</g>
</g>
<!-- Node5&#45;&gt;Node9 -->
<g id="edge9" class="edge">
<title>Node5&#45;&gt;Node9</title>
<path fill="none" stroke="midnightblue" d="M464.71,-280.24C472.05,-271.55 482.97,-257.6 490,-244 518.41,-189.07 487.78,-153.09 534,-112 555.96,-92.48 628.97,-80.23 684.29,-73.53"/>
<polygon fill="midnightblue" stroke="midnightblue" points="684.87,-76.98 694.39,-72.34 684.05,-70.03 684.87,-76.98"/>
</g>
<!-- Node13 -->
<g id="node13" class="node">
<title>Node13</title>
<g id="a_node13"><a xlink:href="poliz_8hpp.html" target="_top" xlink:title=" ">
<polygon fill="white" stroke="black" points="615.5,-112.5 615.5,-131.5 722.5,-131.5 722.5,-112.5 615.5,-112.5"/>
<text text-anchor="middle" x="669" y="-119.5" font-family="Helvetica,sans-Serif" font-size="10.00">common/poliz.hpp</text>
</a>
</g>
</g>
<!-- Node5&#45;&gt;Node13 -->
<g id="edge14" class="edge">
<title>Node5&#45;&gt;Node13</title>
<path fill="none" stroke="midnightblue" d="M479.08,-280.49C498.23,-272.55 526.23,-259.62 548,-244 592.05,-212.4 634.78,-164.37 655.69,-139.39"/>
<polygon fill="midnightblue" stroke="midnightblue" points="658.47,-141.51 662.15,-131.58 653.08,-137.06 658.47,-141.51"/>
</g>
<!-- Node14 -->
<g id="node14" class="node">
<title>Node14</title>
<g id="a_node14"><a xlink:href="stack_8hpp.html" target="_top" xlink:title=" ">
<polygon fill="white" stroke="black" points="300,-224.5 300,-243.5 410,-243.5 410,-224.5 300,-224.5"/>
<text text-anchor="middle" x="355" y="-231.5" font-family="Helvetica,sans-Serif" font-size="10.00">common/stack.hpp</text>
</a>
</g>
</g>
<!-- Node5&#45;&gt;Node14 -->
<g id="edge17" class="edge">
<title>Node5&#45;&gt;Node14</title>
<path fill="none" stroke="midnightblue" d="M440.61,-280.32C424.33,-271.7 399.13,-258.36 380.28,-248.39"/>
<polygon fill="midnightblue" stroke="midnightblue" points="381.82,-245.24 371.35,-243.65 378.55,-251.43 381.82,-245.24"/>
</g>
<!-- Node15 -->
<g id="node15" class="node">
<title>Node15</title>
<g id="a_node15"><a xlink:href="cursor_8hpp.html" target="_top" xlink:title=" ">
<polygon fill="white" stroke="black" points="168.5,-224.5 168.5,-243.5 281.5,-243.5 281.5,-224.5 168.5,-224.5"/>
<text text-anchor="middle" x="225" y="-231.5" font-family="Helvetica,sans-Serif" font-size="10.00">compiler/cursor.hpp</text>
</a>
</g>
</g>
<!-- Node5&#45;&gt;Node15 -->
<g id="edge21" class="edge">
<title>Node5&#45;&gt;Node15</title>
<path fill="none" stroke="midnightblue" d="M420.24,-280.44C379.94,-271.06 315.19,-255.99 271.42,-245.8"/>
<polygon fill="midnightblue" stroke="midnightblue" points="272.12,-242.37 261.59,-243.52 270.54,-249.19 272.12,-242.37"/>
</g>
<!-- Node16 -->
<g id="node16" class="node">
<title>Node16</title>
<g id="a_node16"><a xlink:href="optimizer_8hpp.html" target="_top" xlink:title=" ">
<polygon fill="white" stroke="black" points="708.5,-224.5 708.5,-243.5 841.5,-243.5 841.5,-224.5 708.5,-224.5"/>
<text text-anchor="middle" x="775" y="-231.5" font-family="Helvetica,sans-Serif" font-size="10.00">optimizer/optimizer.hpp</text>
</a>
</g>
</g>
<!-- Node5&#45;&gt;Node16 -->
<g id="edge23" class="edge">
<title>Node5&#45;&gt;Node16</title>
<path fill="none" stroke="midnightblue" d="M507.39,-280.44C563.68,-270.89 654.75,-255.42 714.76,-245.23"/>
<polygon fill="midnightblue" stroke="midnightblue" points="715.57,-248.64 724.85,-243.52 714.4,-241.74 715.57,-248.64"/>
</g>
<!-- Node9&#45;&gt;Node8 -->
<g id="edge13" class="edge">
<title>Node9&#45;&gt;Node8</title>
<path fill="none" stroke="midnightblue" d="M734.45,-56.32C718.01,-47.7 692.57,-34.36 673.53,-24.39"/>
<polygon fill="midnightblue" stroke="midnightblue" points="674.99,-21.2 664.51,-19.65 671.74,-27.4 674.99,-21.2"/>
</g>
<!-- Node10 -->
<g id="node10" class="node">
<title>Node10</title>
<g id="a_node10"><a xlink:title=" ">
<polygon fill="white" stroke="#bfbfbf" points="400.5,-0.5 400.5,-19.5 453.5,-19.5 453.5,-0.5 400.5,-0.5"/>
<text text-anchor="middle" x="427" y="-7.5" font-family="Helvetica,sans-Serif" font-size="10.00">cstddef</text>
</a>
</g>
</g>
<!-- Node9&#45;&gt;Node10 -->
<g id="edge10" class="edge">
<title>Node9&#45;&gt;Node10</title>
<path fill="none" stroke="midnightblue" d="M699.66,-56.44C633.98,-45.5 521.81,-26.8 463.95,-17.16"/>
<polygon fill="midnightblue" stroke="midnightblue" points="464.24,-13.66 453.8,-15.47 463.09,-20.56 464.24,-13.66"/>
</g>
<!-- Node11 -->
<g id="node11" class="node">
<title>Node11</title>
<g id="a_node11"><a xlink:title=" ">
<polygon fill="white" stroke="#bfbfbf" points="729.5,-0.5 729.5,-19.5 786.5,-19.5 786.5,-0.5 729.5,-0.5"/>
<text text-anchor="middle" x="758" y="-7.5" font-family="Helvetica,sans-Serif" font-size="10.00">ostream</text>
</a>
</g>
</g>
<!-- Node9&#45;&gt;Node11 -->
<g id="edge11" class="edge">
<title>Node9&#45;&gt;Node11</title>
<path fill="none" stroke="midnightblue" d="M752.16,-56.08C753.08,-48.93 754.42,-38.64 755.58,-29.69"/>
<polygon fill="midnightblue" stroke="midnightblue" points="759.05,-30.12 756.87,-19.75 752.11,-29.22 759.05,-30.12"/>
</g>
<!-- Node12 -->
<g id="node12" class="node">
<title>Node12</title>
<g id="a_node12"><a xlink:title=" ">
<polygon fill="white" stroke="#bfbfbf" points="932.5,-0.5 932.5,-19.5 979.5,-19.5 979.5,-0.5 932.5,-0.5"/>
<text text-anchor="middle" x="956" y="-7.5" font-family="Helvetica,sans-Serif" font-size="10.00">vector</text>
</a>
</g>
</g>
<!-- Node9&#45;&gt;Node12 -->
<g id="edge12" class="edge">
<title>Node9&#45;&gt;Node12</title>
<path fill="none" stroke="midnightblue" d="M783.48,-56.44C821.52,-46.42 884.19,-29.92 922.61,-19.79"/>
<polygon fill="midnightblue" stroke="midnightblue" points="923.52,-23.18 932.3,-17.24 921.74,-16.41 923.52,-23.18"/>
</g>
<!-- Node13&#45;&gt;Node8 -->
<g id="edge16" class="edge">
<title>Node13&#45;&gt;Node8</title>
<path fill="none" stroke="midnightblue" d="M667.35,-112.37C663.96,-94.62 656.15,-53.67 651.55,-29.6"/>
<polygon fill="midnightblue" stroke="midnightblue" points="654.95,-28.76 649.64,-19.59 648.08,-30.07 654.95,-28.76"/>
</g>
<!-- Node13&#45;&gt;Node9 -->
<g id="edge15" class="edge">
<title>Node13&#45;&gt;Node9</title>
<path fill="none" stroke="midnightblue" d="M682.17,-112.32C694.85,-103.98 714.23,-91.21 729.21,-81.35"/>
<polygon fill="midnightblue" stroke="midnightblue" points="731.43,-84.08 737.86,-75.65 727.58,-78.23 731.43,-84.08"/>
</g>
<!-- Node14&#45;&gt;Node7 -->
<g id="edge19" class="edge">
<title>Node14&#45;&gt;Node7</title>
<path fill="none" stroke="midnightblue" d="M364.48,-224.32C373.2,-216.34 386.34,-204.31 396.9,-194.65"/>
<polygon fill="midnightblue" stroke="midnightblue" points="399.33,-197.17 404.35,-187.83 394.61,-192 399.33,-197.17"/>
</g>
<!-- Node14&#45;&gt;Node8 -->
<g id="edge20" class="edge">
<title>Node14&#45;&gt;Node8</title>
<path fill="none" stroke="midnightblue" d="M355.93,-224.17C357.56,-211.25 361.68,-186.73 371,-168 399.58,-110.58 407.76,-90.23 462,-56 495.52,-34.85 538.18,-23.64 574.19,-17.7"/>
<polygon fill="midnightblue" stroke="midnightblue" points="574.81,-21.14 584.16,-16.16 573.74,-14.23 574.81,-21.14"/>
</g>
<!-- Node14&#45;&gt;Node10 -->
<g id="edge18" class="edge">
<title>Node14&#45;&gt;Node10</title>
<path fill="none" stroke="midnightblue" d="M350.81,-224.44C338.2,-197.35 303.56,-112.01 338,-56 349.51,-37.29 371.47,-26.07 390.7,-19.51"/>
<polygon fill="midnightblue" stroke="midnightblue" points="391.92,-22.8 400.44,-16.5 389.85,-16.11 391.92,-22.8"/>
</g>
<!-- Node15&#45;&gt;Node3 -->
<g id="edge22" class="edge">
<title>Node15&#45;&gt;Node3</title>
<path fill="none" stroke="midnightblue" d="M211.34,-224.32C198.08,-215.9 177.73,-202.97 162.15,-193.07"/>
<polygon fill="midnightblue" stroke="midnightblue" points="163.94,-190.06 153.62,-187.65 160.19,-195.97 163.94,-190.06"/>
</g>
<!-- Node16&#45;&gt;Node9 -->
<g id="edge25" class="edge">
<title>Node16&#45;&gt;Node9</title>
<path fill="none" stroke="midnightblue" d="M783.21,-224.18C790.54,-215.66 800.76,-202.02 805,-188 807.58,-179.49 807.16,-176.62 805,-168 796.99,-136.01 776.69,-103.08 763.39,-83.85"/>
<polygon fill="midnightblue" stroke="midnightblue" points="766.15,-81.7 757.51,-75.58 760.45,-85.75 766.15,-81.7"/>
</g>
<!-- Node16&#45;&gt;Node12 -->
<g id="edge24" class="edge">
<title>Node16&#45;&gt;Node12</title>
<path fill="none" stroke="midnightblue" d="M841.59,-229.48C903.4,-224.65 988.96,-213.45 1010,-188 1026.11,-168.51 1074.12,-219.66 999,-56 993.69,-44.42 984.14,-33.96 975.4,-26.05"/>
<polygon fill="midnightblue" stroke="midnightblue" points="977.62,-23.34 967.73,-19.54 973.09,-28.68 977.62,-23.34"/>
</g>
<!-- Node16&#45;&gt;Node13 -->
<g id="edge26" class="edge">
<title>Node16&#45;&gt;Node13</title>
<path fill="none" stroke="midnightblue" d="M708.19,-225.39C684.94,-219.16 661.16,-207.99 647,-188 636.72,-173.49 645.91,-153.79 655.36,-139.9"/>
<polygon fill="midnightblue" stroke="midnightblue" points="658.28,-141.84 661.41,-131.72 652.65,-137.68 658.28,-141.84"/>
</g>
<!-- Node17 -->
<g id="node17" class="node">
<title>Node17</title>
<g id="a_node17"><a xlink:href="controlflow_8hpp.html" target="_top" xlink:title=" ">
<polygon fill="white" stroke="black" points="656,-168.5 656,-187.5 796,-187.5 796,-168.5 656,-168.5"/>
<text text-anchor="middle" x="726" y="-175.5" font-family="Helvetica,sans-Serif" font-size="10.00">optimizer/controlflow.hpp</text>
</a>
</g>
</g>
<!-- Node16&#45;&gt;Node17 -->
<g id="edge27" class="edge">
<title>Node16&#45;&gt;Node17</title>
<path fill="none" stroke="midnightblue" d="M766.91,-224.08C759.84,-216.3 749.41,-204.8 740.85,-195.37"/>
<polygon fill="midnightblue" stroke="midnightblue" points="743.25,-192.8 733.94,-187.75 738.07,-197.51 743.25,-192.8"/>
</g>
<!-- Node18 -->
<g id="node18" class="node">
<title>Node18</title>
<g id="a_node18"><a xlink:href="acyclicgraph_8hpp.html" target="_top" xlink:title=" ">
<polygon fill="white" stroke="black" points="851.5,-168.5 851.5,-187.5 1000.5,-187.5 1000.5,-168.5 851.5,-168.5"/>
<text text-anchor="middle" x="926" y="-175.5" font-family="Helvetica,sans-Serif" font-size="10.00">optimizer/acyclicgraph.hpp</text>
</a>
</g>
</g>
<!-- Node16&#45;&gt;Node18 -->
<g id="edge32" class="edge">
<title>Node16&#45;&gt;Node18</title>
<path fill="none" stroke="midnightblue" d="M798.93,-224.44C824.22,-215.4 864.3,-201.06 892.68,-190.92"/>
<polygon fill="midnightblue" stroke="midnightblue" points="893.95,-194.18 902.19,-187.52 891.59,-187.59 893.95,-194.18"/>
</g>
<!-- Node17&#45;&gt;Node6 -->
<g id="edge29" class="edge">
<title>Node17&#45;&gt;Node6</title>
<path fill="none" stroke="midnightblue" d="M701.28,-168.44C675.15,-159.4 633.74,-145.06 604.42,-134.92"/>
<polygon fill="midnightblue" stroke="midnightblue" points="605.2,-131.48 594.6,-131.52 602.91,-138.1 605.2,-131.48"/>
</g>
<!-- Node17&#45;&gt;Node9 -->
<g id="edge30" class="edge">
<title>Node17&#45;&gt;Node9</title>
<path fill="none" stroke="midnightblue" d="M727.96,-168.37C732,-150.62 741.3,-109.67 746.77,-85.6"/>
<polygon fill="midnightblue" stroke="midnightblue" points="750.24,-86.12 749.05,-75.59 743.42,-84.57 750.24,-86.12"/>
</g>
<!-- Node17&#45;&gt;Node12 -->
<g id="edge28" class="edge">
<title>Node17&#45;&gt;Node12</title>
<path fill="none" stroke="midnightblue" d="M738.04,-168.31C775.3,-141.42 889.01,-59.35 935.68,-25.67"/>
<polygon fill="midnightblue" stroke="midnightblue" points="938.02,-28.3 944.08,-19.61 933.92,-22.62 938.02,-28.3"/>
</g>
<!-- Node17&#45;&gt;Node13 -->
<g id="edge31" class="edge">
<title>Node17&#45;&gt;Node13</title>
<path fill="none" stroke="midnightblue" d="M716.84,-168.32C708.5,-160.42 695.97,-148.55 685.82,-138.94"/>
<polygon fill="midnightblue" stroke="midnightblue" points="687.99,-136.17 678.32,-131.83 683.18,-141.25 687.99,-136.17"/>
</g>
<!-- Node18&#45;&gt;Node8 -->
<g id="edge35" class="edge">
<title>Node18&#45;&gt;Node8</title>
<path fill="none" stroke="midnightblue" d="M920.84,-168.43C906.99,-146.22 866.69,-86.39 817,-56 788.25,-38.42 752.66,-27.62 721.57,-21.03"/>
<polygon fill="midnightblue" stroke="midnightblue" points="722.14,-17.58 711.65,-19.04 720.76,-24.44 722.14,-17.58"/>
</g>
<!-- Node18&#45;&gt;Node9 -->
<g id="edge36" class="edge">
<title>Node18&#45;&gt;Node9</title>
<path fill="none" stroke="midnightblue" d="M912.27,-168.37C882.11,-149.41 809.86,-104 773.18,-80.94"/>
<polygon fill="midnightblue" stroke="midnightblue" points="775,-77.95 764.67,-75.59 771.27,-83.88 775,-77.95"/>
</g>
<!-- Node18&#45;&gt;Node12 -->
<g id="edge33" class="edge">
<title>Node18&#45;&gt;Node12</title>
<path fill="none" stroke="midnightblue" d="M945.3,-168.48C959.43,-161.08 977.56,-148.89 986,-132 1003.18,-97.63 982.1,-52.74 967.57,-28.45"/>
<polygon fill="midnightblue" stroke="midnightblue" points="970.33,-26.27 962.05,-19.66 964.41,-29.99 970.33,-26.27"/>
</g>
<!-- Node18&#45;&gt;Node13 -->
<g id="edge37" class="edge">
<title>Node18&#45;&gt;Node13</title>
<path fill="none" stroke="midnightblue" d="M885.28,-168.44C840.35,-159 768,-143.8 719.5,-133.61"/>
<polygon fill="midnightblue" stroke="midnightblue" points="720.04,-130.15 709.53,-131.52 718.6,-137 720.04,-130.15"/>
</g>
<!-- Node19 -->
<g id="node19" class="node">
<title>Node19</title>
<g id="a_node19"><a xlink:title=" ">
<polygon fill="white" stroke="#bfbfbf" points="931.5,-112.5 931.5,-131.5 976.5,-131.5 976.5,-112.5 931.5,-112.5"/>
<text text-anchor="middle" x="954" y="-119.5" font-family="Helvetica,sans-Serif" font-size="10.00">utility</text>
</a>
</g>
</g>
<!-- Node18&#45;&gt;Node19 -->
<g id="edge34" class="edge">
<title>Node18&#45;&gt;Node19</title>
<path fill="none" stroke="midnightblue" d="M930.62,-168.08C934.46,-160.69 940.02,-149.95 944.76,-140.81"/>
<polygon fill="midnightblue" stroke="midnightblue" points="947.97,-142.24 949.46,-131.75 941.75,-139.02 947.97,-142.24"/>
</g>
</g>
</svg>
        <g id="navigator" transform="translate(0 0)" fill="#404254">
                <rect fill="#f2f5e9" fill-opacity="0.5" stroke="#606060" stroke-width=".5" x="0" y="0" width="60" height="60"/>
                <use id="zoomplus" xlink:href="#zoomPlus" x="17" y="9" onmousedown="handleZoom(evt,'in')"/>
                <use id="zoomminus" xlink:href="#zoomMin" x="42" y="9" onmousedown="handleZoom(evt,'out')"/>
                <use id="reset" xlink:href="#resetDef" x="30" y="36" onmousedown="handleReset()"/>
                <g id="arrowUp" xlink:href="#dirArrow" transform="translate(30 24)" onmousedown="handlePan(0,-1)">
                  <use xlink:href="#rim" fill="#404040">
                        <set attributeName="fill" to="#808080" begin="arrowUp.mouseover" end="arrowUp.mouseout"/>
                  </use>
                  <path fill="none" stroke="white" stroke-width="1.5" d="M0,-3.0v7 M-2.5,-0.5L0,-3.0L2.5,-0.5"/>
                </g>
                <g id="arrowRight" xlink:href="#dirArrow" transform="rotate(90) translate(36 -43)" onmousedown="handlePan(1,0)">
                  <use xlink:href="#rim" fill="#404040">
                        <set attributeName="fill" to="#808080" begin="arrowRight.mouseover" end="arrowRight.mouseout"/>
                  </use>
                  <path fill="none" stroke="white" stroke-width="1.5" d="M0,-3.0v7 M-2.5,-0.5L0,-3.0L2.5,-0.5"/>
                </g>
                <g id="arrowDown" xlink:href="#dirArrow" transform="rotate(180) translate(-30 -48)" onmousedown="handlePan(0,1)">
                  <use xlink:href="#rim" fill="#404040">
                        <set attributeName="fill" to="#808080" begin="arrowDown.mouseover" end="arrowDown.mouseout"/>
                  </use>
                  <path fill="none" stroke="white" stroke-width="1.5" d="M0,-3.0v7 M-2.5,-0.5L0,-3.0L2.5,-0.5"/>
                </g>
                <g id="arrowLeft" xlink:href="#dirArrow" transform="rotate(270) translate(-36 17)" onmousedown="handlePan(-1,0)">
                  <use xlink:href="#rim" fill="#404040">
                        <set attributeName="fill" to="#808080" begin="arrowLeft.mouseover" end="arrowLeft.mouseout"/>
                  </use>
                  <path fill="none" stroke="white" stroke-width="1.5" d="M0,-3.0v7 M-2.5,-0.5L0,-3.0L2.5,-0.5"/>
                </g>
        </g>
        <svg viewBox="0 0 15 15" width="100%" height="30px" preserveAspectRatio="xMaxYMin meet">
         <g id="arrow_out" transform="scale(0.3 0.3)">
          <a xlink:href="flc_8cpp__incl_org.svg" target="_base">
           <rect id="button" ry="5" rx="5" y="6" x="6" height="38" width="38"
                fill="#f2f5e9" fill-opacity="0.5" stroke="#606060" stroke-width="1.0"/>
           <path id="arrow"
             d="M 11.500037,31.436501 C 11.940474,20.09759 22.043105,11.32322 32.158766,21.979434 L 37.068811,17.246167 C 37.068811,17.246167 37.088388,32 37.088388,32 L 22.160133,31.978069 C 22.160133,31.978069 26.997745,27.140456 26.997745,27.140456 C 18.528582,18.264221 13.291696,25.230495 11.500037,31.436501 z"
             style="fill:#404040;"/>
          </a>
         </g>
        </svg>
</svg>
