<?xml version="1.0" encoding="UTF-8" standalone="no"?>
<!DOCTYPE svg PUBLIC "-//W3C//DTD SVG 1.1//EN"
 "http://www.w3.org/Graphics/SVG/1.1/DTD/svg11.dtd">
<!-- Generated by graphviz version 2.43.0 (0)
 -->
<!-- Title: src/fldbg.cpp Pages: 1 -->
<svg width="547pt" height="308pt"
 viewBox="0.00 0.00 546.50 308.00" xmlns="http://www.w3.org/2000/svg" xmlns:xlink="http://www.w3.org/1999/xlink">
<g id="graph0" class="graph" transform="scale(1 1) rotate(0) translate(4 304)">
<title>src/fldbg.cpp</title>
<polygon fill="white" stroke="transparent" points="-4,4 -4,-304 542.5,-304 542.5,4 -4,4"/>
<!-- Node1 -->
<g id="node1" class="node">
<title>Node1</title>
<g id="a_node1"><a xlink:title=" ">
<polygon fill="#bfbfbf" stroke="black" points="63,-280.5 63,-299.5 141,-299.5 141,-280.5 63,-280.5"/>
<text text-anchor="middle" x="102" y="-287.5" font-family="Helvetica,sans-Serif" font-size="10.00">src/fldbg.cpp</text>
</a>
</g>
</g>
<!-- Node2 -->
<g id="node2" class="node">
<title>Node2</title>
<g id="a_node2"><a xlink:href="version_8hpp.html" target="_top" xlink:title=" ">
<polygon fill="white" stroke="black" points="0,-224.5 0,-243.5 74,-243.5 74,-224.5 0,-224.5"/>
<text text-anchor="middle" x="37" y="-231.5" font-family="Helvetica,sans-Serif" font-size="10.00">version.hpp</text>
</a>
</g>
</g>
<!-- Node1&#45;&gt;Node2 -->
<g id="edge1" class="edge">
<title>Node1&#45;&gt;Node2</title>
<path fill="none" stroke="midnightblue" d="M91.56,-280.32C81.85,-272.26 67.18,-260.08 55.5,-250.37"/>
<polygon fill="midnightblue" stroke="midnightblue" points="57.56,-247.53 47.63,-243.83 53.09,-252.92 57.56,-247.53"/>
</g>
<!-- Node3 -->
<g id="node3" class="node">
<title>Node3</title>
<g id="a_node3"><a xlink:title=" ">
<polygon fill="white" stroke="#bfbfbf" points="68,-168.5 68,-187.5 128,-187.5 128,-168.5 68,-168.5"/>
<text text-anchor="middle" x="98" y="-175.5" font-family="Helvetica,sans-Serif" font-size="10.00">iostream</text>
</a>
</g>
</g>
<!-- Node1&#45;&gt;Node3 -->
<g id="edge2" class="edge">
<title>Node1&#45;&gt;Node3</title>
<path fill="none" stroke="midnightblue" d="M101.69,-280.37C101.04,-262.62 99.55,-221.67 98.68,-197.6"/>
<polygon fill="midnightblue" stroke="midnightblue" points="102.17,-197.46 98.31,-187.59 95.18,-197.71 102.17,-197.46"/>
</g>
<!-- Node4 -->
<g id="node4" class="node">
<title>Node4</title>
<g id="a_node4"><a xlink:href="debugger_8hpp.html" target="_top" xlink:title=" ">
<polygon fill="white" stroke="black" points="139.5,-224.5 139.5,-243.5 270.5,-243.5 270.5,-224.5 139.5,-224.5"/>
<text text-anchor="middle" x="205" y="-231.5" font-family="Helvetica,sans-Serif" font-size="10.00">debugger/debugger.hpp</text>
</a>
</g>
</g>
<!-- Node1&#45;&gt;Node4 -->
<g id="edge3" class="edge">
<title>Node1&#45;&gt;Node4</title>
<path fill="none" stroke="midnightblue" d="M118.55,-280.32C134.99,-271.7 160.43,-258.36 179.47,-248.39"/>
<polygon fill="midnightblue" stroke="midnightblue" points="181.26,-251.4 188.49,-243.65 178.01,-245.2 181.26,-251.4"/>
</g>
<!-- Node4&#45;&gt;Node3 -->
<g id="edge4" class="edge">
<title>Node4&#45;&gt;Node3</title>
<path fill="none" stroke="midnightblue" d="M187.81,-224.32C170.65,-215.66 144.05,-202.24 124.25,-192.25"/>
<polygon fill="midnightblue" stroke="midnightblue" points="125.65,-189.04 115.15,-187.65 122.5,-195.28 125.65,-189.04"/>
</g>
<!-- Node5 -->
<g id="node5" class="node">
<title>Node5</title>
<g id="a_node5"><a xlink:title=" ">
<polygon fill="white" stroke="#bfbfbf" points="292,-168.5 292,-187.5 330,-187.5 330,-168.5 292,-168.5"/>
<text text-anchor="middle" x="311" y="-175.5" font-family="Helvetica,sans-Serif" font-size="10.00">map</text>
</a>
</g>
</g>
<!-- Node4&#45;&gt;Node5 -->
<g id="edge5" class="edge">
<title>Node4&#45;&gt;Node5</title>
<path fill="none" stroke="midnightblue" d="M222.03,-224.32C239.03,-215.66 265.38,-202.24 284.99,-192.25"/>
<polygon fill="midnightblue" stroke="midnightblue" points="286.69,-195.31 294.01,-187.65 283.51,-189.08 286.69,-195.31"/>
</g>
<!-- Node6 -->
<g id="node6" class="node">
<title>Node6</title>
<g id="a_node6"><a xlink:href="vmachine_8hpp.html" target="_top" xlink:title=" ">
<polygon fill="white" stroke="black" points="146.5,-168.5 146.5,-187.5 273.5,-187.5 273.5,-168.5 146.5,-168.5"/>
<text text-anchor="middle" x="210" y="-175.5" font-family="Helvetica,sans-Serif" font-size="10.00">runtime/vmachine.hpp</text>
</a>
</g>
</g>
<!-- Node4&#45;&gt;Node6 -->
<g id="edge6" class="edge">
<title>Node4&#45;&gt;Node6</title>
<path fill="none" stroke="midnightblue" d="M205.83,-224.08C206.48,-217.01 207.42,-206.86 208.24,-197.99"/>
<polygon fill="midnightblue" stroke="midnightblue" points="211.75,-198.03 209.19,-187.75 204.78,-197.39 211.75,-198.03"/>
</g>
<!-- Node7 -->
<g id="node7" class="node">
<title>Node7</title>
<g id="a_node7"><a xlink:title=" ">
<polygon fill="white" stroke="#bfbfbf" points="65.5,-112.5 65.5,-131.5 120.5,-131.5 120.5,-112.5 65.5,-112.5"/>
<text text-anchor="middle" x="93" y="-119.5" font-family="Helvetica,sans-Serif" font-size="10.00">fstream</text>
</a>
</g>
</g>
<!-- Node6&#45;&gt;Node7 -->
<g id="edge7" class="edge">
<title>Node6&#45;&gt;Node7</title>
<path fill="none" stroke="midnightblue" d="M191.46,-168.44C172.38,-159.64 142.43,-145.81 120.56,-135.72"/>
<polygon fill="midnightblue" stroke="midnightblue" points="122,-132.53 111.45,-131.52 119.07,-138.88 122,-132.53"/>
</g>
<!-- Node8 -->
<g id="node8" class="node">
<title>Node8</title>
<g id="a_node8"><a xlink:title=" ">
<polygon fill="white" stroke="#bfbfbf" points="115.5,-0.5 115.5,-19.5 162.5,-19.5 162.5,-0.5 115.5,-0.5"/>
<text text-anchor="middle" x="139" y="-7.5" font-family="Helvetica,sans-Serif" font-size="10.00">vector</text>
</a>
</g>
</g>
<!-- Node6&#45;&gt;Node8 -->
<g id="edge8" class="edge">
<title>Node6&#45;&gt;Node8</title>
<path fill="none" stroke="midnightblue" d="M206.18,-168.08C194.96,-141.83 161.9,-64.55 146.75,-29.12"/>
<polygon fill="midnightblue" stroke="midnightblue" points="149.82,-27.39 142.66,-19.57 143.38,-30.14 149.82,-27.39"/>
</g>
<!-- Node9 -->
<g id="node9" class="node">
<title>Node9</title>
<g id="a_node9"><a xlink:href="tables_8hpp.html" target="_top" xlink:title=" ">
<polygon fill="white" stroke="black" points="177.5,-56.5 177.5,-75.5 290.5,-75.5 290.5,-56.5 177.5,-56.5"/>
<text text-anchor="middle" x="234" y="-63.5" font-family="Helvetica,sans-Serif" font-size="10.00">common/tables.hpp</text>
</a>
</g>
</g>
<!-- Node6&#45;&gt;Node9 -->
<g id="edge9" class="edge">
<title>Node6&#45;&gt;Node9</title>
<path fill="none" stroke="midnightblue" d="M211.88,-168.37C215.76,-150.62 224.69,-109.67 229.94,-85.6"/>
<polygon fill="midnightblue" stroke="midnightblue" points="233.41,-86.11 232.13,-75.59 226.57,-84.62 233.41,-86.11"/>
</g>
<!-- Node13 -->
<g id="node13" class="node">
<title>Node13</title>
<g id="a_node13"><a xlink:href="poliz_8hpp.html" target="_top" xlink:title=" ">
<polygon fill="white" stroke="black" points="238.5,-112.5 238.5,-131.5 345.5,-131.5 345.5,-112.5 238.5,-112.5"/>
<text text-anchor="middle" x="292" y="-119.5" font-family="Helvetica,sans-Serif" font-size="10.00">common/poliz.hpp</text>
</a>
</g>
</g>
<!-- Node6&#45;&gt;Node13 -->
<g id="edge14" class="edge">
<title>Node6&#45;&gt;Node13</title>
<path fill="none" stroke="midnightblue" d="M223.17,-168.32C235.85,-159.98 255.23,-147.21 270.21,-137.35"/>
<polygon fill="midnightblue" stroke="midnightblue" points="272.43,-140.08 278.86,-131.65 268.58,-134.23 272.43,-140.08"/>
</g>
<!-- Node14 -->
<g id="node14" class="node">
<title>Node14</title>
<g id="a_node14"><a xlink:href="stack_8hpp.html" target="_top" xlink:title=" ">
<polygon fill="white" stroke="black" points="359,-56.5 359,-75.5 469,-75.5 469,-56.5 359,-56.5"/>
<text text-anchor="middle" x="414" y="-63.5" font-family="Helvetica,sans-Serif" font-size="10.00">common/stack.hpp</text>
</a>
</g>
</g>
<!-- Node6&#45;&gt;Node14 -->
<g id="edge17" class="edge">
<title>Node6&#45;&gt;Node14</title>
<path fill="none" stroke="midnightblue" d="M258.4,-168.49C287.69,-161.79 324.89,-150.42 354,-132 373.78,-119.49 391.27,-98.84 402.19,-84.18"/>
<polygon fill="midnightblue" stroke="midnightblue" points="405.11,-86.11 408.1,-75.95 399.42,-82.03 405.11,-86.11"/>
</g>
<!-- Node9&#45;&gt;Node8 -->
<g id="edge12" class="edge">
<title>Node9&#45;&gt;Node8</title>
<path fill="none" stroke="midnightblue" d="M218.74,-56.32C203.78,-47.82 180.75,-34.73 163.27,-24.8"/>
<polygon fill="midnightblue" stroke="midnightblue" points="164.65,-21.55 154.23,-19.65 161.19,-27.64 164.65,-21.55"/>
</g>
<!-- Node10 -->
<g id="node10" class="node">
<title>Node10</title>
<g id="a_node10"><a xlink:title=" ">
<polygon fill="white" stroke="#bfbfbf" points="400.5,-0.5 400.5,-19.5 453.5,-19.5 453.5,-0.5 400.5,-0.5"/>
<text text-anchor="middle" x="427" y="-7.5" font-family="Helvetica,sans-Serif" font-size="10.00">cstddef</text>
</a>
</g>
</g>
<!-- Node9&#45;&gt;Node10 -->
<g id="edge10" class="edge">
<title>Node9&#45;&gt;Node10</title>
<path fill="none" stroke="midnightblue" d="M264.58,-56.44C298.78,-46.87 354.14,-31.39 390.55,-21.2"/>
<polygon fill="midnightblue" stroke="midnightblue" points="391.6,-24.54 400.29,-18.47 389.72,-17.8 391.6,-24.54"/>
</g>
<!-- Node11 -->
<g id="node11" class="node">
<title>Node11</title>
<g id="a_node11"><a xlink:title=" ">
<polygon fill="white" stroke="#bfbfbf" points="180.5,-0.5 180.5,-19.5 237.5,-19.5 237.5,-0.5 180.5,-0.5"/>
<text text-anchor="middle" x="209" y="-7.5" font-family="Helvetica,sans-Serif" font-size="10.00">ostream</text>
</a>
</g>
</g>
<!-- Node9&#45;&gt;Node11 -->
<g id="edge11" class="edge">
<title>Node9&#45;&gt;Node11</title>
<path fill="none" stroke="midnightblue" d="M229.87,-56.08C226.49,-48.77 221.58,-38.18 217.38,-29.1"/>
<polygon fill="midnightblue" stroke="midnightblue" points="220.43,-27.36 213.05,-19.75 214.08,-30.3 220.43,-27.36"/>
</g>
<!-- Node12 -->
<g id="node12" class="node">
<title>Node12</title>
<g id="a_node12"><a xlink:href="exprtype_8hpp.html" target="_top" xlink:title=" ">
<polygon fill="white" stroke="black" points="255.5,-0.5 255.5,-19.5 382.5,-19.5 382.5,-0.5 255.5,-0.5"/>
<text text-anchor="middle" x="319" y="-7.5" font-family="Helvetica,sans-Serif" font-size="10.00">common/exprtype.hpp</text>
</a>
</g>
</g>
<!-- Node9&#45;&gt;Node12 -->
<g id="edge13" class="edge">
<title>Node9&#45;&gt;Node12</title>
<path fill="none" stroke="midnightblue" d="M247.66,-56.32C260.92,-47.9 281.27,-34.97 296.85,-25.07"/>
<polygon fill="midnightblue" stroke="midnightblue" points="298.81,-27.97 305.38,-19.65 295.06,-22.06 298.81,-27.97"/>
</g>
<!-- Node13&#45;&gt;Node9 -->
<g id="edge15" class="edge">
<title>Node13&#45;&gt;Node9</title>
<path fill="none" stroke="midnightblue" d="M282.68,-112.32C274.11,-104.34 261.19,-92.31 250.81,-82.65"/>
<polygon fill="midnightblue" stroke="midnightblue" points="253.19,-80.09 243.49,-75.83 248.42,-85.21 253.19,-80.09"/>
</g>
<!-- Node13&#45;&gt;Node12 -->
<g id="edge16" class="edge">
<title>Node13&#45;&gt;Node12</title>
<path fill="none" stroke="midnightblue" d="M294.12,-112.37C298.48,-94.62 308.53,-53.67 314.44,-29.6"/>
<polygon fill="midnightblue" stroke="midnightblue" points="317.91,-30.14 316.89,-19.59 311.11,-28.47 317.91,-30.14"/>
</g>
<!-- Node14&#45;&gt;Node10 -->
<g id="edge18" class="edge">
<title>Node14&#45;&gt;Node10</title>
<path fill="none" stroke="midnightblue" d="M416.15,-56.08C417.87,-48.93 420.35,-38.64 422.5,-29.69"/>
<polygon fill="midnightblue" stroke="midnightblue" points="425.96,-30.29 424.89,-19.75 419.15,-28.65 425.96,-30.29"/>
</g>
<!-- Node14&#45;&gt;Node12 -->
<g id="edge20" class="edge">
<title>Node14&#45;&gt;Node12</title>
<path fill="none" stroke="midnightblue" d="M398.74,-56.32C383.78,-47.82 360.75,-34.73 343.27,-24.8"/>
<polygon fill="midnightblue" stroke="midnightblue" points="344.65,-21.55 334.23,-19.65 341.19,-27.64 344.65,-21.55"/>
</g>
<!-- Node15 -->
<g id="node15" class="node">
<title>Node15</title>
<g id="a_node15"><a xlink:href="config_8hpp.html" target="_top" xlink:title=" ">
<polygon fill="white" stroke="black" points="471.5,-0.5 471.5,-19.5 538.5,-19.5 538.5,-0.5 471.5,-0.5"/>
<text text-anchor="middle" x="505" y="-7.5" font-family="Helvetica,sans-Serif" font-size="10.00">config.hpp</text>
</a>
</g>
</g>
<!-- Node14&#45;&gt;Node15 -->
<g id="edge19" class="edge">
<title>Node14&#45;&gt;Node15</title>
<path fill="none" stroke="midnightblue" d="M428.62,-56.32C442.95,-47.82 465.01,-34.73 481.75,-24.8"/>
<polygon fill="midnightblue" stroke="midnightblue" points="483.6,-27.77 490.42,-19.65 480.03,-21.75 483.6,-27.77"/>
</g>
</g>
</svg>
