<?xml version="1.0" encoding="UTF-8" standalone="no"?>
<!DOCTYPE svg PUBLIC "-//W3C//DTD SVG 1.1//EN"
 "http://www.w3.org/Graphics/SVG/1.1/DTD/svg11.dtd">
<!-- Generated by graphviz version 2.43.0 (0)
 -->
<!-- Title: src/fldbg.cpp Pages: 1 -->
<svg width="588pt" height="308pt"
 viewBox="0.00 0.00 588.00 308.00" xmlns="http://www.w3.org/2000/svg" xmlns:xlink="http://www.w3.org/1999/xlink">
<g id="graph0" class="graph" transform="scale(1 1) rotate(0) translate(4 304)">
<title>src/fldbg.cpp</title>
<polygon fill="white" stroke="transparent" points="-4,4 -4,-304 584,-304 584,4 -4,4"/>
<!-- Node1 -->
<g id="node1" class="node">
<title>Node1</title>
<g id="a_node1"><a xlink:title=" ">
<polygon fill="#bfbfbf" stroke="black" points="62.5,-280.5 62.5,-299.5 141.5,-299.5 141.5,-280.5 62.5,-280.5"/>
<text text-anchor="middle" x="102" y="-287.5" font-family="Helvetica,sans-Serif" font-size="10.00">src/fldbg.cpp</text>
</a>
</g>
</g>
<!-- Node2 -->
<g id="node2" class="node">
<title>Node2</title>
<g id="a_node2"><a xlink:href="version_8hpp.html" target="_top" xlink:title=" ">
<polygon fill="white" stroke="black" points="0,-224.5 0,-243.5 74,-243.5 74,-224.5 0,-224.5"/>
<text text-anchor="middle" x="37" y="-231.5" font-family="Helvetica,sans-Serif" font-size="10.00">version.hpp</text>
</a>
</g>
</g>
<!-- Node1&#45;&gt;Node2 -->
<g id="edge1" class="edge">
<title>Node1&#45;&gt;Node2</title>
<path fill="none" stroke="midnightblue" d="M91.56,-280.32C81.85,-272.26 67.18,-260.08 55.5,-250.37"/>
<polygon fill="midnightblue" stroke="midnightblue" points="57.56,-247.53 47.63,-243.83 53.09,-252.92 57.56,-247.53"/>
</g>
<!-- Node3 -->
<g id="node3" class="node">
<title>Node3</title>
<g id="a_node3"><a xlink:title=" ">
<polygon fill="white" stroke="#bfbfbf" points="68,-168.5 68,-187.5 128,-187.5 128,-168.5 68,-168.5"/>
<text text-anchor="middle" x="98" y="-175.5" font-family="Helvetica,sans-Serif" font-size="10.00">iostream</text>
</a>
</g>
</g>
<!-- Node1&#45;&gt;Node3 -->
<g id="edge2" class="edge">
<title>Node1&#45;&gt;Node3</title>
<path fill="none" stroke="midnightblue" d="M101.69,-280.37C101.04,-262.62 99.55,-221.67 98.68,-197.6"/>
<polygon fill="midnightblue" stroke="midnightblue" points="102.17,-197.46 98.31,-187.59 95.18,-197.71 102.17,-197.46"/>
</g>
<!-- Node4 -->
<g id="node4" class="node">
<title>Node4</title>
<g id="a_node4"><a xlink:href="debugger_8hpp.html" target="_top" xlink:title=" ">
<polygon fill="white" stroke="black" points="139,-224.5 139,-243.5 271,-243.5 271,-224.5 139,-224.5"/>
<text text-anchor="middle" x="205" y="-231.5" font-family="Helvetica,sans-Serif" font-size="10.00">debugger/debugger.hpp</text>
</a>
</g>
</g>
<!-- Node1&#45;&gt;Node4 -->
<g id="edge3" class="edge">
<title>Node1&#45;&gt;Node4</title>
<path fill="none" stroke="midnightblue" d="M118.55,-280.32C134.99,-271.7 160.43,-258.36 179.47,-248.39"/>
<polygon fill="midnightblue" stroke="midnightblue" points="181.26,-251.4 188.49,-243.65 178.01,-245.2 181.26,-251.4"/>
</g>
<!-- Node4&#45;&gt;Node3 -->
<g id="edge4" class="edge">
<title>Node4&#45;&gt;Node3</title>
<path fill="none" stroke="midnightblue" d="M187.81,-224.32C170.65,-215.66 144.05,-202.24 124.25,-192.25"/>
<polygon fill="midnightblue" stroke="midnightblue" points="125.65,-189.04 115.15,-187.65 122.5,-195.28 125.65,-189.04"/>
</g>
<!-- Node5 -->
<g id="node5" class="node">
<title>Node5</title>
<g id="a_node5"><a xlink:title=" ">
<polygon fill="white" stroke="#bfbfbf" points="292,-168.5 292,-187.5 330,-187.5 330,-168.5 292,-168.5"/>
<text text-anchor="middle" x="311" y="-175.5" font-family="Helvetica,sans-Serif" font-size="10.00">map</text>
</a>
</g>
</g>
<!-- Node4&#45;&gt;Node5 -->
<g id="edge5" class="edge">
<title>Node4&#45;&gt;Node5</title>
<path fill="none" stroke="midnightblue" d="M222.03,-224.32C239.03,-215.66 265.38,-202.24 284.99,-192.25"/>
<polygon fill="midnightblue" stroke="midnightblue" points="286.69,-195.31 294.01,-187.65 283.51,-189.08 286.69,-195.31"/>
</g>
<!-- Node6 -->
<g id="node6" class="node">
<title>Node6</title>
<g id="a_node6"><a xlink:href="vmachine_8hpp.html" target="_top" xlink:title=" ">
<polygon fill="white" stroke="black" points="146.5,-168.5 146.5,-187.5 273.5,-187.5 273.5,-168.5 146.5,-168.5"/>
<text text-anchor="middle" x="210" y="-175.5" font-family="Helvetica,sans-Serif" font-size="10.00">runtime/vmachine.hpp</text>
</a>
</g>
</g>
<!-- Node4&#45;&gt;Node6 -->
<g id="edge6" class="edge">
<title>Node4&#45;&gt;Node6</title>
<path fill="none" stroke="midnightblue" d="M205.83,-224.08C206.48,-217.01 207.42,-206.86 208.24,-197.99"/>
<polygon fill="midnightblue" stroke="midnightblue" points="211.75,-198.03 209.19,-187.75 204.78,-197.39 211.75,-198.03"/>
</g>
<!-- Node7 -->
<g id="node7" class="node">
<title>Node7</title>
<g id="a_node7"><a xlink:title=" ">
<polygon fill="white" stroke="#bfbfbf" points="41.5,-112.5 41.5,-131.5 96.5,-131.5 96.5,-112.5 41.5,-112.5"/>
<text text-anchor="middle" x="69" y="-119.5" font-family="Helvetica,sans-Serif" font-size="10.00">fstream</text>
</a>
</g>
</g>
<!-- Node6&#45;&gt;Node7 -->
<g id="edge7" class="edge">
<title>Node6&#45;&gt;Node7</title>
<path fill="none" stroke="midnightblue" d="M187.66,-168.44C164.25,-159.48 127.26,-145.31 100.81,-135.18"/>
<polygon fill="midnightblue" stroke="midnightblue" points="101.83,-131.82 91.24,-131.52 99.32,-138.36 101.83,-131.82"/>
</g>
<!-- Node8 -->
<g id="node8" class="node">
<title>Node8</title>
<g id="a_node8"><a xlink:title=" ">
<polygon fill="white" stroke="#bfbfbf" points="109.5,-0.5 109.5,-19.5 156.5,-19.5 156.5,-0.5 109.5,-0.5"/>
<text text-anchor="middle" x="133" y="-7.5" font-family="Helvetica,sans-Serif" font-size="10.00">vector</text>
</a>
</g>
</g>
<!-- Node6&#45;&gt;Node8 -->
<g id="edge8" class="edge">
<title>Node6&#45;&gt;Node8</title>
<path fill="none" stroke="midnightblue" d="M202.65,-168.5C188.77,-151.93 158.74,-113.64 144,-76 138.19,-61.16 135.45,-43.24 134.15,-29.98"/>
<polygon fill="midnightblue" stroke="midnightblue" points="137.62,-29.41 133.35,-19.71 130.64,-29.96 137.62,-29.41"/>
</g>
<!-- Node9 -->
<g id="node9" class="node">
<title>Node9</title>
<g id="a_node9"><a xlink:href="tables_8hpp.html" target="_top" xlink:title=" ">
<polygon fill="white" stroke="black" points="153.5,-56.5 153.5,-75.5 266.5,-75.5 266.5,-56.5 153.5,-56.5"/>
<text text-anchor="middle" x="210" y="-63.5" font-family="Helvetica,sans-Serif" font-size="10.00">common/tables.hpp</text>
</a>
</g>
</g>
<!-- Node6&#45;&gt;Node9 -->
<g id="edge9" class="edge">
<title>Node6&#45;&gt;Node9</title>
<path fill="none" stroke="midnightblue" d="M210,-168.37C210,-150.62 210,-109.67 210,-85.6"/>
<polygon fill="midnightblue" stroke="midnightblue" points="213.5,-85.59 210,-75.59 206.5,-85.59 213.5,-85.59"/>
</g>
<!-- Node13 -->
<g id="node13" class="node">
<title>Node13</title>
<g id="a_node13"><a xlink:href="poliz_8hpp.html" target="_top" xlink:title=" ">
<polygon fill="white" stroke="black" points="266.5,-112.5 266.5,-131.5 373.5,-131.5 373.5,-112.5 266.5,-112.5"/>
<text text-anchor="middle" x="320" y="-119.5" font-family="Helvetica,sans-Serif" font-size="10.00">common/poliz.hpp</text>
</a>
</g>
</g>
<!-- Node6&#45;&gt;Node13 -->
<g id="edge14" class="edge">
<title>Node6&#45;&gt;Node13</title>
<path fill="none" stroke="midnightblue" d="M227.67,-168.32C245.39,-159.62 272.9,-146.12 293.29,-136.11"/>
<polygon fill="midnightblue" stroke="midnightblue" points="294.94,-139.2 302.37,-131.65 291.85,-132.92 294.94,-139.2"/>
</g>
<!-- Node15 -->
<g id="node15" class="node">
<title>Node15</title>
<g id="a_node15"><a xlink:href="stack_8hpp.html" target="_top" xlink:title=" ">
<polygon fill="white" stroke="black" points="470,-56.5 470,-75.5 580,-75.5 580,-56.5 470,-56.5"/>
<text text-anchor="middle" x="525" y="-63.5" font-family="Helvetica,sans-Serif" font-size="10.00">common/stack.hpp</text>
</a>
</g>
</g>
<!-- Node6&#45;&gt;Node15 -->
<g id="edge18" class="edge">
<title>Node6&#45;&gt;Node15</title>
<path fill="none" stroke="midnightblue" d="M250.55,-168.45C285.79,-160.54 337.93,-147.65 382,-132 424.3,-116.98 471.32,-94.4 499.5,-80.2"/>
<polygon fill="midnightblue" stroke="midnightblue" points="501.32,-83.2 508.65,-75.55 498.15,-76.96 501.32,-83.2"/>
</g>
<!-- Node9&#45;&gt;Node8 -->
<g id="edge12" class="edge">
<title>Node9&#45;&gt;Node8</title>
<path fill="none" stroke="midnightblue" d="M197.63,-56.32C185.84,-48.06 167.87,-35.45 153.86,-25.63"/>
<polygon fill="midnightblue" stroke="midnightblue" points="155.54,-22.53 145.34,-19.65 151.52,-28.26 155.54,-22.53"/>
</g>
<!-- Node10 -->
<g id="node10" class="node">
<title>Node10</title>
<g id="a_node10"><a xlink:title=" ">
<polygon fill="white" stroke="#bfbfbf" points="281.5,-0.5 281.5,-19.5 334.5,-19.5 334.5,-0.5 281.5,-0.5"/>
<text text-anchor="middle" x="308" y="-7.5" font-family="Helvetica,sans-Serif" font-size="10.00">cstddef</text>
</a>
</g>
</g>
<!-- Node9&#45;&gt;Node10 -->
<g id="edge10" class="edge">
<title>Node9&#45;&gt;Node10</title>
<path fill="none" stroke="midnightblue" d="M225.75,-56.32C241.32,-47.74 265.38,-34.49 283.46,-24.52"/>
<polygon fill="midnightblue" stroke="midnightblue" points="285.22,-27.55 292.29,-19.65 281.85,-21.42 285.22,-27.55"/>
</g>
<!-- Node11 -->
<g id="node11" class="node">
<title>Node11</title>
<g id="a_node11"><a xlink:title=" ">
<polygon fill="white" stroke="#bfbfbf" points="181.5,-0.5 181.5,-19.5 238.5,-19.5 238.5,-0.5 181.5,-0.5"/>
<text text-anchor="middle" x="210" y="-7.5" font-family="Helvetica,sans-Serif" font-size="10.00">ostream</text>
</a>
</g>
</g>
<!-- Node9&#45;&gt;Node11 -->
<g id="edge11" class="edge">
<title>Node9&#45;&gt;Node11</title>
<path fill="none" stroke="midnightblue" d="M210,-56.08C210,-49.01 210,-38.86 210,-29.99"/>
<polygon fill="midnightblue" stroke="midnightblue" points="213.5,-29.75 210,-19.75 206.5,-29.75 213.5,-29.75"/>
</g>
<!-- Node12 -->
<g id="node12" class="node">
<title>Node12</title>
<g id="a_node12"><a xlink:href="exprtype_8hpp.html" target="_top" xlink:title=" ">
<polygon fill="white" stroke="black" points="361.5,-0.5 361.5,-19.5 488.5,-19.5 488.5,-0.5 361.5,-0.5"/>
<text text-anchor="middle" x="425" y="-7.5" font-family="Helvetica,sans-Serif" font-size="10.00">common/exprtype.hpp</text>
</a>
</g>
</g>
<!-- Node9&#45;&gt;Node12 -->
<g id="edge13" class="edge">
<title>Node9&#45;&gt;Node12</title>
<path fill="none" stroke="midnightblue" d="M244.07,-56.44C281.18,-47.12 340.66,-32.18 381.21,-22"/>
<polygon fill="midnightblue" stroke="midnightblue" points="382.25,-25.35 391.09,-19.52 380.54,-18.56 382.25,-25.35"/>
</g>
<!-- Node13&#45;&gt;Node9 -->
<g id="edge15" class="edge">
<title>Node13&#45;&gt;Node9</title>
<path fill="none" stroke="midnightblue" d="M302.33,-112.32C284.61,-103.62 257.1,-90.12 236.71,-80.11"/>
<polygon fill="midnightblue" stroke="midnightblue" points="238.15,-76.92 227.63,-75.65 235.06,-83.2 238.15,-76.92"/>
</g>
<!-- Node13&#45;&gt;Node12 -->
<g id="edge16" class="edge">
<title>Node13&#45;&gt;Node12</title>
<path fill="none" stroke="midnightblue" d="M366.27,-112.49C387.2,-106.12 410.1,-95.07 423,-76 432.09,-62.57 431.61,-43.75 429.44,-29.82"/>
<polygon fill="midnightblue" stroke="midnightblue" points="432.85,-29.02 427.48,-19.89 425.98,-30.38 432.85,-29.02"/>
</g>
<!-- Node14 -->
<g id="node14" class="node">
<title>Node14</title>
<g id="a_node14"><a xlink:href="cppcheck_8hpp.html" target="_top" xlink:title=" ">
<polygon fill="white" stroke="black" points="284.5,-56.5 284.5,-75.5 413.5,-75.5 413.5,-56.5 284.5,-56.5"/>
<text text-anchor="middle" x="349" y="-63.5" font-family="Helvetica,sans-Serif" font-size="10.00">common/cppcheck.hpp</text>
</a>
</g>
</g>
<!-- Node13&#45;&gt;Node14 -->
<g id="edge17" class="edge">
<title>Node13&#45;&gt;Node14</title>
<path fill="none" stroke="midnightblue" d="M324.79,-112.08C328.76,-104.69 334.53,-93.95 339.43,-84.81"/>
<polygon fill="midnightblue" stroke="midnightblue" points="342.65,-86.22 344.3,-75.75 336.49,-82.91 342.65,-86.22"/>
</g>
<!-- Node15&#45;&gt;Node10 -->
<g id="edge19" class="edge">
<title>Node15&#45;&gt;Node10</title>
<path fill="none" stroke="midnightblue" d="M490.62,-56.44C450.73,-46.52 385.26,-30.23 344.5,-20.08"/>
<polygon fill="midnightblue" stroke="midnightblue" points="345.25,-16.66 334.7,-17.64 343.56,-23.46 345.25,-16.66"/>
</g>
<!-- Node15&#45;&gt;Node12 -->
<g id="edge21" class="edge">
<title>Node15&#45;&gt;Node12</title>
<path fill="none" stroke="midnightblue" d="M508.93,-56.32C493.04,-47.74 468.49,-34.49 450.04,-24.52"/>
<polygon fill="midnightblue" stroke="midnightblue" points="451.49,-21.33 441.03,-19.65 448.16,-27.49 451.49,-21.33"/>
</g>
<!-- Node16 -->
<g id="node16" class="node">
<title>Node16</title>
<g id="a_node16"><a xlink:href="config_8hpp.html" target="_top" xlink:title=" ">
<polygon fill="white" stroke="black" points="507,-0.5 507,-19.5 575,-19.5 575,-0.5 507,-0.5"/>
<text text-anchor="middle" x="541" y="-7.5" font-family="Helvetica,sans-Serif" font-size="10.00">config.hpp</text>
</a>
</g>
</g>
<!-- Node15&#45;&gt;Node16 -->
<g id="edge20" class="edge">
<title>Node15&#45;&gt;Node16</title>
<path fill="none" stroke="midnightblue" d="M527.64,-56.08C529.79,-48.85 532.88,-38.41 535.55,-29.4"/>
<polygon fill="midnightblue" stroke="midnightblue" points="538.92,-30.33 538.41,-19.75 532.21,-28.34 538.92,-30.33"/>
</g>
</g>
</svg>
