<?xml version="1.0" encoding="UTF-8" standalone="no"?>
<!DOCTYPE svg PUBLIC "-//W3C//DTD SVG 1.1//EN"
 "http://www.w3.org/Graphics/SVG/1.1/DTD/svg11.dtd">
<!-- Generated by graphviz version 2.43.0 (0)
 -->
<!-- Title: src/flvm.cpp Pages: 1 -->
<svg width="571pt" height="252pt"
 viewBox="0.00 0.00 570.50 252.00" xmlns="http://www.w3.org/2000/svg" xmlns:xlink="http://www.w3.org/1999/xlink">
<g id="graph0" class="graph" transform="scale(1 1) rotate(0) translate(4 248)">
<title>src/flvm.cpp</title>
<polygon fill="white" stroke="transparent" points="-4,4 -4,-248 566.5,-248 566.5,4 -4,4"/>
<!-- Node1 -->
<g id="node1" class="node">
<title>Node1</title>
<g id="a_node1"><a xlink:title=" ">
<polygon fill="#bfbfbf" stroke="black" points="84,-224.5 84,-243.5 160,-243.5 160,-224.5 84,-224.5"/>
<text text-anchor="middle" x="122" y="-231.5" font-family="Helvetica,sans-Serif" font-size="10.00">src/flvm.cpp</text>
</a>
</g>
</g>
<!-- Node2 -->
<g id="node2" class="node">
<title>Node2</title>
<g id="a_node2"><a xlink:href="version_8hpp.html" target="_top" xlink:title=" ">
<polygon fill="white" stroke="black" points="0,-168.5 0,-187.5 74,-187.5 74,-168.5 0,-168.5"/>
<text text-anchor="middle" x="37" y="-175.5" font-family="Helvetica,sans-Serif" font-size="10.00">version.hpp</text>
</a>
</g>
</g>
<!-- Node1&#45;&gt;Node2 -->
<g id="edge1" class="edge">
<title>Node1&#45;&gt;Node2</title>
<path fill="none" stroke="midnightblue" d="M108.34,-224.32C95.08,-215.9 74.73,-202.97 59.15,-193.07"/>
<polygon fill="midnightblue" stroke="midnightblue" points="60.94,-190.06 50.62,-187.65 57.19,-195.97 60.94,-190.06"/>
</g>
<!-- Node3 -->
<g id="node3" class="node">
<title>Node3</title>
<g id="a_node3"><a xlink:title=" ">
<polygon fill="white" stroke="#bfbfbf" points="92,-168.5 92,-187.5 152,-187.5 152,-168.5 92,-168.5"/>
<text text-anchor="middle" x="122" y="-175.5" font-family="Helvetica,sans-Serif" font-size="10.00">iostream</text>
</a>
</g>
</g>
<!-- Node1&#45;&gt;Node3 -->
<g id="edge2" class="edge">
<title>Node1&#45;&gt;Node3</title>
<path fill="none" stroke="midnightblue" d="M122,-224.08C122,-217.01 122,-206.86 122,-197.99"/>
<polygon fill="midnightblue" stroke="midnightblue" points="125.5,-197.75 122,-187.75 118.5,-197.75 125.5,-197.75"/>
</g>
<!-- Node4 -->
<g id="node4" class="node">
<title>Node4</title>
<g id="a_node4"><a xlink:href="vmachine_8hpp.html" target="_top" xlink:title=" ">
<polygon fill="white" stroke="black" points="170.5,-168.5 170.5,-187.5 297.5,-187.5 297.5,-168.5 170.5,-168.5"/>
<text text-anchor="middle" x="234" y="-175.5" font-family="Helvetica,sans-Serif" font-size="10.00">runtime/vmachine.hpp</text>
</a>
</g>
</g>
<!-- Node1&#45;&gt;Node4 -->
<g id="edge3" class="edge">
<title>Node1&#45;&gt;Node4</title>
<path fill="none" stroke="midnightblue" d="M139.99,-224.32C158.04,-215.62 186.05,-202.12 206.8,-192.11"/>
<polygon fill="midnightblue" stroke="midnightblue" points="208.56,-195.15 216.05,-187.65 205.52,-188.84 208.56,-195.15"/>
</g>
<!-- Node5 -->
<g id="node5" class="node">
<title>Node5</title>
<g id="a_node5"><a xlink:title=" ">
<polygon fill="white" stroke="#bfbfbf" points="89.5,-112.5 89.5,-131.5 144.5,-131.5 144.5,-112.5 89.5,-112.5"/>
<text text-anchor="middle" x="117" y="-119.5" font-family="Helvetica,sans-Serif" font-size="10.00">fstream</text>
</a>
</g>
</g>
<!-- Node4&#45;&gt;Node5 -->
<g id="edge4" class="edge">
<title>Node4&#45;&gt;Node5</title>
<path fill="none" stroke="midnightblue" d="M215.46,-168.44C196.38,-159.64 166.43,-145.81 144.56,-135.72"/>
<polygon fill="midnightblue" stroke="midnightblue" points="146,-132.53 135.45,-131.52 143.07,-138.88 146,-132.53"/>
</g>
<!-- Node6 -->
<g id="node6" class="node">
<title>Node6</title>
<g id="a_node6"><a xlink:title=" ">
<polygon fill="white" stroke="#bfbfbf" points="139.5,-0.5 139.5,-19.5 186.5,-19.5 186.5,-0.5 139.5,-0.5"/>
<text text-anchor="middle" x="163" y="-7.5" font-family="Helvetica,sans-Serif" font-size="10.00">vector</text>
</a>
</g>
</g>
<!-- Node4&#45;&gt;Node6 -->
<g id="edge5" class="edge">
<title>Node4&#45;&gt;Node6</title>
<path fill="none" stroke="midnightblue" d="M230.18,-168.08C218.96,-141.83 185.9,-64.55 170.75,-29.12"/>
<polygon fill="midnightblue" stroke="midnightblue" points="173.82,-27.39 166.66,-19.57 167.38,-30.14 173.82,-27.39"/>
</g>
<!-- Node7 -->
<g id="node7" class="node">
<title>Node7</title>
<g id="a_node7"><a xlink:href="tables_8hpp.html" target="_top" xlink:title=" ">
<polygon fill="white" stroke="black" points="201.5,-56.5 201.5,-75.5 314.5,-75.5 314.5,-56.5 201.5,-56.5"/>
<text text-anchor="middle" x="258" y="-63.5" font-family="Helvetica,sans-Serif" font-size="10.00">common/tables.hpp</text>
</a>
</g>
</g>
<!-- Node4&#45;&gt;Node7 -->
<g id="edge6" class="edge">
<title>Node4&#45;&gt;Node7</title>
<path fill="none" stroke="midnightblue" d="M235.88,-168.37C239.76,-150.62 248.69,-109.67 253.94,-85.6"/>
<polygon fill="midnightblue" stroke="midnightblue" points="257.41,-86.11 256.13,-75.59 250.57,-84.62 257.41,-86.11"/>
</g>
<!-- Node11 -->
<g id="node11" class="node">
<title>Node11</title>
<g id="a_node11"><a xlink:href="poliz_8hpp.html" target="_top" xlink:title=" ">
<polygon fill="white" stroke="black" points="262.5,-112.5 262.5,-131.5 369.5,-131.5 369.5,-112.5 262.5,-112.5"/>
<text text-anchor="middle" x="316" y="-119.5" font-family="Helvetica,sans-Serif" font-size="10.00">common/poliz.hpp</text>
</a>
</g>
</g>
<!-- Node4&#45;&gt;Node11 -->
<g id="edge11" class="edge">
<title>Node4&#45;&gt;Node11</title>
<path fill="none" stroke="midnightblue" d="M247.17,-168.32C259.85,-159.98 279.23,-147.21 294.21,-137.35"/>
<polygon fill="midnightblue" stroke="midnightblue" points="296.43,-140.08 302.86,-131.65 292.58,-134.23 296.43,-140.08"/>
</g>
<!-- Node12 -->
<g id="node12" class="node">
<title>Node12</title>
<g id="a_node12"><a xlink:href="stack_8hpp.html" target="_top" xlink:title=" ">
<polygon fill="white" stroke="black" points="383,-56.5 383,-75.5 493,-75.5 493,-56.5 383,-56.5"/>
<text text-anchor="middle" x="438" y="-63.5" font-family="Helvetica,sans-Serif" font-size="10.00">common/stack.hpp</text>
</a>
</g>
</g>
<!-- Node4&#45;&gt;Node12 -->
<g id="edge14" class="edge">
<title>Node4&#45;&gt;Node12</title>
<path fill="none" stroke="midnightblue" d="M282.4,-168.49C311.69,-161.79 348.89,-150.42 378,-132 397.78,-119.49 415.27,-98.84 426.19,-84.18"/>
<polygon fill="midnightblue" stroke="midnightblue" points="429.11,-86.11 432.1,-75.95 423.42,-82.03 429.11,-86.11"/>
</g>
<!-- Node7&#45;&gt;Node6 -->
<g id="edge9" class="edge">
<title>Node7&#45;&gt;Node6</title>
<path fill="none" stroke="midnightblue" d="M242.74,-56.32C227.78,-47.82 204.75,-34.73 187.27,-24.8"/>
<polygon fill="midnightblue" stroke="midnightblue" points="188.65,-21.55 178.23,-19.65 185.19,-27.64 188.65,-21.55"/>
</g>
<!-- Node8 -->
<g id="node8" class="node">
<title>Node8</title>
<g id="a_node8"><a xlink:title=" ">
<polygon fill="white" stroke="#bfbfbf" points="424.5,-0.5 424.5,-19.5 477.5,-19.5 477.5,-0.5 424.5,-0.5"/>
<text text-anchor="middle" x="451" y="-7.5" font-family="Helvetica,sans-Serif" font-size="10.00">cstddef</text>
</a>
</g>
</g>
<!-- Node7&#45;&gt;Node8 -->
<g id="edge7" class="edge">
<title>Node7&#45;&gt;Node8</title>
<path fill="none" stroke="midnightblue" d="M288.58,-56.44C322.78,-46.87 378.14,-31.39 414.55,-21.2"/>
<polygon fill="midnightblue" stroke="midnightblue" points="415.6,-24.54 424.29,-18.47 413.72,-17.8 415.6,-24.54"/>
</g>
<!-- Node9 -->
<g id="node9" class="node">
<title>Node9</title>
<g id="a_node9"><a xlink:title=" ">
<polygon fill="white" stroke="#bfbfbf" points="204.5,-0.5 204.5,-19.5 261.5,-19.5 261.5,-0.5 204.5,-0.5"/>
<text text-anchor="middle" x="233" y="-7.5" font-family="Helvetica,sans-Serif" font-size="10.00">ostream</text>
</a>
</g>
</g>
<!-- Node7&#45;&gt;Node9 -->
<g id="edge8" class="edge">
<title>Node7&#45;&gt;Node9</title>
<path fill="none" stroke="midnightblue" d="M253.87,-56.08C250.49,-48.77 245.58,-38.18 241.38,-29.1"/>
<polygon fill="midnightblue" stroke="midnightblue" points="244.43,-27.36 237.05,-19.75 238.08,-30.3 244.43,-27.36"/>
</g>
<!-- Node10 -->
<g id="node10" class="node">
<title>Node10</title>
<g id="a_node10"><a xlink:href="exprtype_8hpp.html" target="_top" xlink:title=" ">
<polygon fill="white" stroke="black" points="279.5,-0.5 279.5,-19.5 406.5,-19.5 406.5,-0.5 279.5,-0.5"/>
<text text-anchor="middle" x="343" y="-7.5" font-family="Helvetica,sans-Serif" font-size="10.00">common/exprtype.hpp</text>
</a>
</g>
</g>
<!-- Node7&#45;&gt;Node10 -->
<g id="edge10" class="edge">
<title>Node7&#45;&gt;Node10</title>
<path fill="none" stroke="midnightblue" d="M271.66,-56.32C284.92,-47.9 305.27,-34.97 320.85,-25.07"/>
<polygon fill="midnightblue" stroke="midnightblue" points="322.81,-27.97 329.38,-19.65 319.06,-22.06 322.81,-27.97"/>
</g>
<!-- Node11&#45;&gt;Node7 -->
<g id="edge12" class="edge">
<title>Node11&#45;&gt;Node7</title>
<path fill="none" stroke="midnightblue" d="M306.68,-112.32C298.11,-104.34 285.19,-92.31 274.81,-82.65"/>
<polygon fill="midnightblue" stroke="midnightblue" points="277.19,-80.09 267.49,-75.83 272.42,-85.21 277.19,-80.09"/>
</g>
<!-- Node11&#45;&gt;Node10 -->
<g id="edge13" class="edge">
<title>Node11&#45;&gt;Node10</title>
<path fill="none" stroke="midnightblue" d="M318.12,-112.37C322.48,-94.62 332.53,-53.67 338.44,-29.6"/>
<polygon fill="midnightblue" stroke="midnightblue" points="341.91,-30.14 340.89,-19.59 335.11,-28.47 341.91,-30.14"/>
</g>
<!-- Node12&#45;&gt;Node8 -->
<g id="edge15" class="edge">
<title>Node12&#45;&gt;Node8</title>
<path fill="none" stroke="midnightblue" d="M440.15,-56.08C441.87,-48.93 444.35,-38.64 446.5,-29.69"/>
<polygon fill="midnightblue" stroke="midnightblue" points="449.96,-30.29 448.89,-19.75 443.15,-28.65 449.96,-30.29"/>
</g>
<!-- Node12&#45;&gt;Node10 -->
<g id="edge17" class="edge">
<title>Node12&#45;&gt;Node10</title>
<path fill="none" stroke="midnightblue" d="M422.74,-56.32C407.78,-47.82 384.75,-34.73 367.27,-24.8"/>
<polygon fill="midnightblue" stroke="midnightblue" points="368.65,-21.55 358.23,-19.65 365.19,-27.64 368.65,-21.55"/>
</g>
<!-- Node13 -->
<g id="node13" class="node">
<title>Node13</title>
<g id="a_node13"><a xlink:href="config_8hpp.html" target="_top" xlink:title=" ">
<polygon fill="white" stroke="black" points="495.5,-0.5 495.5,-19.5 562.5,-19.5 562.5,-0.5 495.5,-0.5"/>
<text text-anchor="middle" x="529" y="-7.5" font-family="Helvetica,sans-Serif" font-size="10.00">config.hpp</text>
</a>
</g>
</g>
<!-- Node12&#45;&gt;Node13 -->
<g id="edge16" class="edge">
<title>Node12&#45;&gt;Node13</title>
<path fill="none" stroke="midnightblue" d="M452.62,-56.32C466.95,-47.82 489.01,-34.73 505.75,-24.8"/>
<polygon fill="midnightblue" stroke="midnightblue" points="507.6,-27.77 514.42,-19.65 504.03,-21.75 507.6,-27.77"/>
</g>
</g>
</svg>
