<?xml version="1.0" encoding="UTF-8" standalone="no"?>
<!DOCTYPE svg PUBLIC "-//W3C//DTD SVG 1.1//EN"
 "http://www.w3.org/Graphics/SVG/1.1/DTD/svg11.dtd">
<!-- Generated by graphviz version 2.43.0 (0)
 -->
<!-- Title: src/flvm.cpp Pages: 1 -->
<svg width="612pt" height="252pt"
 viewBox="0.00 0.00 612.00 252.00" xmlns="http://www.w3.org/2000/svg" xmlns:xlink="http://www.w3.org/1999/xlink">
<g id="graph0" class="graph" transform="scale(1 1) rotate(0) translate(4 248)">
<title>src/flvm.cpp</title>
<polygon fill="white" stroke="transparent" points="-4,4 -4,-248 608,-248 608,4 -4,4"/>
<!-- Node1 -->
<g id="node1" class="node">
<title>Node1</title>
<g id="a_node1"><a xlink:title=" ">
<polygon fill="#bfbfbf" stroke="black" points="83.5,-224.5 83.5,-243.5 160.5,-243.5 160.5,-224.5 83.5,-224.5"/>
<text text-anchor="middle" x="122" y="-231.5" font-family="Helvetica,sans-Serif" font-size="10.00">src/flvm.cpp</text>
</a>
</g>
</g>
<!-- Node2 -->
<g id="node2" class="node">
<title>Node2</title>
<g id="a_node2"><a xlink:href="version_8hpp.html" target="_top" xlink:title=" ">
<polygon fill="white" stroke="black" points="0,-168.5 0,-187.5 74,-187.5 74,-168.5 0,-168.5"/>
<text text-anchor="middle" x="37" y="-175.5" font-family="Helvetica,sans-Serif" font-size="10.00">version.hpp</text>
</a>
</g>
</g>
<!-- Node1&#45;&gt;Node2 -->
<g id="edge1" class="edge">
<title>Node1&#45;&gt;Node2</title>
<path fill="none" stroke="midnightblue" d="M108.34,-224.32C95.08,-215.9 74.73,-202.97 59.15,-193.07"/>
<polygon fill="midnightblue" stroke="midnightblue" points="60.94,-190.06 50.62,-187.65 57.19,-195.97 60.94,-190.06"/>
</g>
<!-- Node3 -->
<g id="node3" class="node">
<title>Node3</title>
<g id="a_node3"><a xlink:title=" ">
<polygon fill="white" stroke="#bfbfbf" points="92,-168.5 92,-187.5 152,-187.5 152,-168.5 92,-168.5"/>
<text text-anchor="middle" x="122" y="-175.5" font-family="Helvetica,sans-Serif" font-size="10.00">iostream</text>
</a>
</g>
</g>
<!-- Node1&#45;&gt;Node3 -->
<g id="edge2" class="edge">
<title>Node1&#45;&gt;Node3</title>
<path fill="none" stroke="midnightblue" d="M122,-224.08C122,-217.01 122,-206.86 122,-197.99"/>
<polygon fill="midnightblue" stroke="midnightblue" points="125.5,-197.75 122,-187.75 118.5,-197.75 125.5,-197.75"/>
</g>
<!-- Node4 -->
<g id="node4" class="node">
<title>Node4</title>
<g id="a_node4"><a xlink:href="vmachine_8hpp.html" target="_top" xlink:title=" ">
<polygon fill="white" stroke="black" points="170.5,-168.5 170.5,-187.5 297.5,-187.5 297.5,-168.5 170.5,-168.5"/>
<text text-anchor="middle" x="234" y="-175.5" font-family="Helvetica,sans-Serif" font-size="10.00">runtime/vmachine.hpp</text>
</a>
</g>
</g>
<!-- Node1&#45;&gt;Node4 -->
<g id="edge3" class="edge">
<title>Node1&#45;&gt;Node4</title>
<path fill="none" stroke="midnightblue" d="M139.99,-224.32C158.04,-215.62 186.05,-202.12 206.8,-192.11"/>
<polygon fill="midnightblue" stroke="midnightblue" points="208.56,-195.15 216.05,-187.65 205.52,-188.84 208.56,-195.15"/>
</g>
<!-- Node5 -->
<g id="node5" class="node">
<title>Node5</title>
<g id="a_node5"><a xlink:title=" ">
<polygon fill="white" stroke="#bfbfbf" points="65.5,-112.5 65.5,-131.5 120.5,-131.5 120.5,-112.5 65.5,-112.5"/>
<text text-anchor="middle" x="93" y="-119.5" font-family="Helvetica,sans-Serif" font-size="10.00">fstream</text>
</a>
</g>
</g>
<!-- Node4&#45;&gt;Node5 -->
<g id="edge4" class="edge">
<title>Node4&#45;&gt;Node5</title>
<path fill="none" stroke="midnightblue" d="M211.66,-168.44C188.25,-159.48 151.26,-145.31 124.81,-135.18"/>
<polygon fill="midnightblue" stroke="midnightblue" points="125.83,-131.82 115.24,-131.52 123.32,-138.36 125.83,-131.82"/>
</g>
<!-- Node6 -->
<g id="node6" class="node">
<title>Node6</title>
<g id="a_node6"><a xlink:title=" ">
<polygon fill="white" stroke="#bfbfbf" points="133.5,-0.5 133.5,-19.5 180.5,-19.5 180.5,-0.5 133.5,-0.5"/>
<text text-anchor="middle" x="157" y="-7.5" font-family="Helvetica,sans-Serif" font-size="10.00">vector</text>
</a>
</g>
</g>
<!-- Node4&#45;&gt;Node6 -->
<g id="edge5" class="edge">
<title>Node4&#45;&gt;Node6</title>
<path fill="none" stroke="midnightblue" d="M226.65,-168.5C212.77,-151.93 182.74,-113.64 168,-76 162.19,-61.16 159.45,-43.24 158.15,-29.98"/>
<polygon fill="midnightblue" stroke="midnightblue" points="161.62,-29.41 157.35,-19.71 154.64,-29.96 161.62,-29.41"/>
</g>
<!-- Node7 -->
<g id="node7" class="node">
<title>Node7</title>
<g id="a_node7"><a xlink:href="tables_8hpp.html" target="_top" xlink:title=" ">
<polygon fill="white" stroke="black" points="177.5,-56.5 177.5,-75.5 290.5,-75.5 290.5,-56.5 177.5,-56.5"/>
<text text-anchor="middle" x="234" y="-63.5" font-family="Helvetica,sans-Serif" font-size="10.00">common/tables.hpp</text>
</a>
</g>
</g>
<!-- Node4&#45;&gt;Node7 -->
<g id="edge6" class="edge">
<title>Node4&#45;&gt;Node7</title>
<path fill="none" stroke="midnightblue" d="M234,-168.37C234,-150.62 234,-109.67 234,-85.6"/>
<polygon fill="midnightblue" stroke="midnightblue" points="237.5,-85.59 234,-75.59 230.5,-85.59 237.5,-85.59"/>
</g>
<!-- Node11 -->
<g id="node11" class="node">
<title>Node11</title>
<g id="a_node11"><a xlink:href="poliz_8hpp.html" target="_top" xlink:title=" ">
<polygon fill="white" stroke="black" points="290.5,-112.5 290.5,-131.5 397.5,-131.5 397.5,-112.5 290.5,-112.5"/>
<text text-anchor="middle" x="344" y="-119.5" font-family="Helvetica,sans-Serif" font-size="10.00">common/poliz.hpp</text>
</a>
</g>
</g>
<!-- Node4&#45;&gt;Node11 -->
<g id="edge11" class="edge">
<title>Node4&#45;&gt;Node11</title>
<path fill="none" stroke="midnightblue" d="M251.67,-168.32C269.39,-159.62 296.9,-146.12 317.29,-136.11"/>
<polygon fill="midnightblue" stroke="midnightblue" points="318.94,-139.2 326.37,-131.65 315.85,-132.92 318.94,-139.2"/>
</g>
<!-- Node13 -->
<g id="node13" class="node">
<title>Node13</title>
<g id="a_node13"><a xlink:href="stack_8hpp.html" target="_top" xlink:title=" ">
<polygon fill="white" stroke="black" points="494,-56.5 494,-75.5 604,-75.5 604,-56.5 494,-56.5"/>
<text text-anchor="middle" x="549" y="-63.5" font-family="Helvetica,sans-Serif" font-size="10.00">common/stack.hpp</text>
</a>
</g>
</g>
<!-- Node4&#45;&gt;Node13 -->
<g id="edge15" class="edge">
<title>Node4&#45;&gt;Node13</title>
<path fill="none" stroke="midnightblue" d="M274.55,-168.45C309.79,-160.54 361.93,-147.65 406,-132 448.3,-116.98 495.32,-94.4 523.5,-80.2"/>
<polygon fill="midnightblue" stroke="midnightblue" points="525.32,-83.2 532.65,-75.55 522.15,-76.96 525.32,-83.2"/>
</g>
<!-- Node7&#45;&gt;Node6 -->
<g id="edge9" class="edge">
<title>Node7&#45;&gt;Node6</title>
<path fill="none" stroke="midnightblue" d="M221.63,-56.32C209.84,-48.06 191.87,-35.45 177.86,-25.63"/>
<polygon fill="midnightblue" stroke="midnightblue" points="179.54,-22.53 169.34,-19.65 175.52,-28.26 179.54,-22.53"/>
</g>
<!-- Node8 -->
<g id="node8" class="node">
<title>Node8</title>
<g id="a_node8"><a xlink:title=" ">
<polygon fill="white" stroke="#bfbfbf" points="305.5,-0.5 305.5,-19.5 358.5,-19.5 358.5,-0.5 305.5,-0.5"/>
<text text-anchor="middle" x="332" y="-7.5" font-family="Helvetica,sans-Serif" font-size="10.00">cstddef</text>
</a>
</g>
</g>
<!-- Node7&#45;&gt;Node8 -->
<g id="edge7" class="edge">
<title>Node7&#45;&gt;Node8</title>
<path fill="none" stroke="midnightblue" d="M249.75,-56.32C265.32,-47.74 289.38,-34.49 307.46,-24.52"/>
<polygon fill="midnightblue" stroke="midnightblue" points="309.22,-27.55 316.29,-19.65 305.85,-21.42 309.22,-27.55"/>
</g>
<!-- Node9 -->
<g id="node9" class="node">
<title>Node9</title>
<g id="a_node9"><a xlink:title=" ">
<polygon fill="white" stroke="#bfbfbf" points="205.5,-0.5 205.5,-19.5 262.5,-19.5 262.5,-0.5 205.5,-0.5"/>
<text text-anchor="middle" x="234" y="-7.5" font-family="Helvetica,sans-Serif" font-size="10.00">ostream</text>
</a>
</g>
</g>
<!-- Node7&#45;&gt;Node9 -->
<g id="edge8" class="edge">
<title>Node7&#45;&gt;Node9</title>
<path fill="none" stroke="midnightblue" d="M234,-56.08C234,-49.01 234,-38.86 234,-29.99"/>
<polygon fill="midnightblue" stroke="midnightblue" points="237.5,-29.75 234,-19.75 230.5,-29.75 237.5,-29.75"/>
</g>
<!-- Node10 -->
<g id="node10" class="node">
<title>Node10</title>
<g id="a_node10"><a xlink:href="exprtype_8hpp.html" target="_top" xlink:title=" ">
<polygon fill="white" stroke="black" points="385.5,-0.5 385.5,-19.5 512.5,-19.5 512.5,-0.5 385.5,-0.5"/>
<text text-anchor="middle" x="449" y="-7.5" font-family="Helvetica,sans-Serif" font-size="10.00">common/exprtype.hpp</text>
</a>
</g>
</g>
<!-- Node7&#45;&gt;Node10 -->
<g id="edge10" class="edge">
<title>Node7&#45;&gt;Node10</title>
<path fill="none" stroke="midnightblue" d="M268.07,-56.44C305.18,-47.12 364.66,-32.18 405.21,-22"/>
<polygon fill="midnightblue" stroke="midnightblue" points="406.25,-25.35 415.09,-19.52 404.54,-18.56 406.25,-25.35"/>
</g>
<!-- Node11&#45;&gt;Node7 -->
<g id="edge12" class="edge">
<title>Node11&#45;&gt;Node7</title>
<path fill="none" stroke="midnightblue" d="M326.33,-112.32C308.61,-103.62 281.1,-90.12 260.71,-80.11"/>
<polygon fill="midnightblue" stroke="midnightblue" points="262.15,-76.92 251.63,-75.65 259.06,-83.2 262.15,-76.92"/>
</g>
<!-- Node11&#45;&gt;Node10 -->
<g id="edge13" class="edge">
<title>Node11&#45;&gt;Node10</title>
<path fill="none" stroke="midnightblue" d="M390.27,-112.49C411.2,-106.12 434.1,-95.07 447,-76 456.09,-62.57 455.61,-43.75 453.44,-29.82"/>
<polygon fill="midnightblue" stroke="midnightblue" points="456.85,-29.02 451.48,-19.89 449.98,-30.38 456.85,-29.02"/>
</g>
<!-- Node12 -->
<g id="node12" class="node">
<title>Node12</title>
<g id="a_node12"><a xlink:href="cppcheck_8hpp.html" target="_top" xlink:title=" ">
<polygon fill="white" stroke="black" points="308.5,-56.5 308.5,-75.5 437.5,-75.5 437.5,-56.5 308.5,-56.5"/>
<text text-anchor="middle" x="373" y="-63.5" font-family="Helvetica,sans-Serif" font-size="10.00">common/cppcheck.hpp</text>
</a>
</g>
</g>
<!-- Node11&#45;&gt;Node12 -->
<g id="edge14" class="edge">
<title>Node11&#45;&gt;Node12</title>
<path fill="none" stroke="midnightblue" d="M348.79,-112.08C352.76,-104.69 358.53,-93.95 363.43,-84.81"/>
<polygon fill="midnightblue" stroke="midnightblue" points="366.65,-86.22 368.3,-75.75 360.49,-82.91 366.65,-86.22"/>
</g>
<!-- Node13&#45;&gt;Node8 -->
<g id="edge16" class="edge">
<title>Node13&#45;&gt;Node8</title>
<path fill="none" stroke="midnightblue" d="M514.62,-56.44C474.73,-46.52 409.26,-30.23 368.5,-20.08"/>
<polygon fill="midnightblue" stroke="midnightblue" points="369.25,-16.66 358.7,-17.64 367.56,-23.46 369.25,-16.66"/>
</g>
<!-- Node13&#45;&gt;Node10 -->
<g id="edge18" class="edge">
<title>Node13&#45;&gt;Node10</title>
<path fill="none" stroke="midnightblue" d="M532.93,-56.32C517.04,-47.74 492.49,-34.49 474.04,-24.52"/>
<polygon fill="midnightblue" stroke="midnightblue" points="475.49,-21.33 465.03,-19.65 472.16,-27.49 475.49,-21.33"/>
</g>
<!-- Node14 -->
<g id="node14" class="node">
<title>Node14</title>
<g id="a_node14"><a xlink:href="config_8hpp.html" target="_top" xlink:title=" ">
<polygon fill="white" stroke="black" points="531,-0.5 531,-19.5 599,-19.5 599,-0.5 531,-0.5"/>
<text text-anchor="middle" x="565" y="-7.5" font-family="Helvetica,sans-Serif" font-size="10.00">config.hpp</text>
</a>
</g>
</g>
<!-- Node13&#45;&gt;Node14 -->
<g id="edge17" class="edge">
<title>Node13&#45;&gt;Node14</title>
<path fill="none" stroke="midnightblue" d="M551.64,-56.08C553.79,-48.85 556.88,-38.41 559.55,-29.4"/>
<polygon fill="midnightblue" stroke="midnightblue" points="562.92,-30.33 562.41,-19.75 556.21,-28.34 562.92,-30.33"/>
</g>
</g>
</svg>
