<?xml version="1.0" encoding="UTF-8" standalone="no"?>
<!DOCTYPE svg PUBLIC "-//W3C//DTD SVG 1.1//EN"
 "http://www.w3.org/Graphics/SVG/1.1/DTD/svg11.dtd">
<!-- Generated by graphviz version 2.43.0 (0)
 -->
<!-- Title: src/common/obstacle.hpp Pages: 1 -->
<svg width="1231pt" height="84pt"
 viewBox="0.00 0.00 1231.00 84.00" xmlns="http://www.w3.org/2000/svg" xmlns:xlink="http://www.w3.org/1999/xlink">
<g id="graph0" class="graph" transform="scale(1 1) rotate(0) translate(4 80)">
<title>src/common/obstacle.hpp</title>
<polygon fill="white" stroke="transparent" points="-4,4 -4,-80 1227,-80 1227,4 -4,4"/>
<!-- Node1 -->
<g id="node1" class="node">
<title>Node1</title>
<g id="a_node1"><a xlink:title=" ">
<polygon fill="#bfbfbf" stroke="black" points="526.5,-56.5 526.5,-75.5 668.5,-75.5 668.5,-56.5 526.5,-56.5"/>
<text text-anchor="middle" x="597.5" y="-63.5" font-family="Helvetica,sans-Serif" font-size="10.00">src/common/obstacle.hpp</text>
</a>
</g>
</g>
<!-- Node2 -->
<g id="node2" class="node">
<title>Node2</title>
<g id="a_node2"><a xlink:href="obstacle_8cpp.html" target="_top" xlink:title=" ">
<polygon fill="white" stroke="black" points="0,-0.5 0,-19.5 141,-19.5 141,-0.5 0,-0.5"/>
<text text-anchor="middle" x="70.5" y="-7.5" font-family="Helvetica,sans-Serif" font-size="10.00">src/common/obstacle.cpp</text>
</a>
</g>
</g>
<!-- Node1&#45;&gt;Node2 -->
<g id="edge1" class="edge">
<title>Node1&#45;&gt;Node2</title>
<path fill="none" stroke="midnightblue" d="M516.36,-57.18C426.59,-48.45 277.66,-33.74 149.5,-20 146.75,-19.71 143.96,-19.4 141.13,-19.09"/>
<polygon fill="midnightblue" stroke="midnightblue" points="516.18,-60.68 526.47,-58.16 516.86,-53.71 516.18,-60.68"/>
</g>
<!-- Node3 -->
<g id="node3" class="node">
<title>Node3</title>
<g id="a_node3"><a xlink:href="exprtype_8cpp.html" target="_top" xlink:title=" ">
<polygon fill="white" stroke="black" points="159,-0.5 159,-19.5 302,-19.5 302,-0.5 159,-0.5"/>
<text text-anchor="middle" x="230.5" y="-7.5" font-family="Helvetica,sans-Serif" font-size="10.00">src/common/exprtype.cpp</text>
</a>
</g>
</g>
<!-- Node1&#45;&gt;Node3 -->
<g id="edge2" class="edge">
<title>Node1&#45;&gt;Node3</title>
<path fill="none" stroke="midnightblue" d="M529.4,-54.98C460.07,-44.78 353.77,-29.14 288.38,-19.52"/>
<polygon fill="midnightblue" stroke="midnightblue" points="528.94,-58.45 539.35,-56.44 529.96,-51.53 528.94,-58.45"/>
</g>
<!-- Node4 -->
<g id="node4" class="node">
<title>Node4</title>
<g id="a_node4"><a xlink:href="poliz_8cpp.html" target="_top" xlink:title=" ">
<polygon fill="white" stroke="black" points="320,-0.5 320,-19.5 443,-19.5 443,-0.5 320,-0.5"/>
<text text-anchor="middle" x="381.5" y="-7.5" font-family="Helvetica,sans-Serif" font-size="10.00">src/common/poliz.cpp</text>
</a>
</g>
</g>
<!-- Node1&#45;&gt;Node4 -->
<g id="edge3" class="edge">
<title>Node1&#45;&gt;Node4</title>
<path fill="none" stroke="midnightblue" d="M553.34,-53.96C512.54,-43.76 452.79,-28.82 415.57,-19.52"/>
<polygon fill="midnightblue" stroke="midnightblue" points="552.72,-57.41 563.27,-56.44 554.42,-50.62 552.72,-57.41"/>
</g>
<!-- Node5 -->
<g id="node5" class="node">
<title>Node5</title>
<g id="a_node5"><a xlink:href="stack_8cpp.html" target="_top" xlink:title=" ">
<polygon fill="white" stroke="black" points="461.5,-0.5 461.5,-19.5 587.5,-19.5 587.5,-0.5 461.5,-0.5"/>
<text text-anchor="middle" x="524.5" y="-7.5" font-family="Helvetica,sans-Serif" font-size="10.00">src/common/stack.cpp</text>
</a>
</g>
</g>
<!-- Node1&#45;&gt;Node5 -->
<g id="edge4" class="edge">
<title>Node1&#45;&gt;Node5</title>
<path fill="none" stroke="midnightblue" d="M577.36,-50.1C564.22,-40.38 547.52,-28.03 536.44,-19.83"/>
<polygon fill="midnightblue" stroke="midnightblue" points="575.65,-53.19 585.77,-56.32 579.81,-47.56 575.65,-53.19"/>
</g>
<!-- Node6 -->
<g id="node6" class="node">
<title>Node6</title>
<g id="a_node6"><a xlink:href="tables_8cpp.html" target="_top" xlink:title=" ">
<polygon fill="white" stroke="black" points="605.5,-0.5 605.5,-19.5 735.5,-19.5 735.5,-0.5 605.5,-0.5"/>
<text text-anchor="middle" x="670.5" y="-7.5" font-family="Helvetica,sans-Serif" font-size="10.00">src/common/tables.cpp</text>
</a>
</g>
</g>
<!-- Node1&#45;&gt;Node6 -->
<g id="edge5" class="edge">
<title>Node1&#45;&gt;Node6</title>
<path fill="none" stroke="midnightblue" d="M617.64,-50.1C630.78,-40.38 647.48,-28.03 658.56,-19.83"/>
<polygon fill="midnightblue" stroke="midnightblue" points="615.19,-47.56 609.23,-56.32 619.35,-53.19 615.19,-47.56"/>
</g>
<!-- Node7 -->
<g id="node7" class="node">
<title>Node7</title>
<g id="a_node7"><a xlink:href="parser_8cpp.html" target="_top" xlink:title=" ">
<polygon fill="white" stroke="black" points="754,-0.5 754,-19.5 885,-19.5 885,-0.5 754,-0.5"/>
<text text-anchor="middle" x="819.5" y="-7.5" font-family="Helvetica,sans-Serif" font-size="10.00">src/compiler/parser.cpp</text>
</a>
</g>
</g>
<!-- Node1&#45;&gt;Node7 -->
<g id="edge6" class="edge">
<title>Node1&#45;&gt;Node7</title>
<path fill="none" stroke="midnightblue" d="M642.62,-54.02C684.56,-43.82 746.15,-28.84 784.49,-19.52"/>
<polygon fill="midnightblue" stroke="midnightblue" points="641.57,-50.68 632.68,-56.44 643.22,-57.48 641.57,-50.68"/>
</g>
<!-- Node8 -->
<g id="node8" class="node">
<title>Node8</title>
<g id="a_node8"><a xlink:href="controlflow_8cpp.html" target="_top" xlink:title=" ">
<polygon fill="white" stroke="black" points="903.5,-0.5 903.5,-19.5 1061.5,-19.5 1061.5,-0.5 903.5,-0.5"/>
<text text-anchor="middle" x="982.5" y="-7.5" font-family="Helvetica,sans-Serif" font-size="10.00">src/optimizer/controlflow.cpp</text>
</a>
</g>
</g>
<!-- Node1&#45;&gt;Node8 -->
<g id="edge7" class="edge">
<title>Node1&#45;&gt;Node8</title>
<path fill="none" stroke="midnightblue" d="M668.5,-55.04C741.21,-44.84 853.05,-29.16 921.78,-19.52"/>
<polygon fill="midnightblue" stroke="midnightblue" points="667.92,-51.59 658.5,-56.44 668.89,-58.52 667.92,-51.59"/>
</g>
<!-- Node9 -->
<g id="node9" class="node">
<title>Node9</title>
<g id="a_node9"><a xlink:href="vmachine_8cpp.html" target="_top" xlink:title=" ">
<polygon fill="white" stroke="black" points="1080,-0.5 1080,-19.5 1223,-19.5 1223,-0.5 1080,-0.5"/>
<text text-anchor="middle" x="1151.5" y="-7.5" font-family="Helvetica,sans-Serif" font-size="10.00">src/runtime/vmachine.cpp</text>
</a>
</g>
</g>
<!-- Node1&#45;&gt;Node9 -->
<g id="edge8" class="edge">
<title>Node1&#45;&gt;Node9</title>
<path fill="none" stroke="midnightblue" d="M678.89,-57.65C773.17,-49.05 933.14,-34.16 1070.5,-20 1073.6,-19.68 1076.76,-19.35 1079.95,-19.01"/>
<polygon fill="midnightblue" stroke="midnightblue" points="678.49,-54.17 668.85,-58.57 679.13,-61.14 678.49,-54.17"/>
</g>
</g>
</svg>
