<?xml version="1.0" encoding="UTF-8" standalone="no"?>
<!DOCTYPE svg PUBLIC "-//W3C//DTD SVG 1.1//EN"
 "http://www.w3.org/Graphics/SVG/1.1/DTD/svg11.dtd">
<!-- Generated by graphviz version 2.43.0 (0)
 -->
<!-- Title: src/common/obstacle.hpp Pages: 1 -->
<svg width="1228pt" height="84pt"
 viewBox="0.00 0.00 1228.00 84.00" xmlns="http://www.w3.org/2000/svg" xmlns:xlink="http://www.w3.org/1999/xlink">
<g id="graph0" class="graph" transform="scale(1 1) rotate(0) translate(4 80)">
<title>src/common/obstacle.hpp</title>
<polygon fill="white" stroke="transparent" points="-4,4 -4,-80 1224,-80 1224,4 -4,4"/>
<!-- Node1 -->
<g id="node1" class="node">
<title>Node1</title>
<g id="a_node1"><a xlink:title=" ">
<polygon fill="#bfbfbf" stroke="black" points="526.5,-56.5 526.5,-75.5 668.5,-75.5 668.5,-56.5 526.5,-56.5"/>
<text text-anchor="middle" x="597.5" y="-63.5" font-family="Helvetica,sans-Serif" font-size="10.00">src/common/obstacle.hpp</text>
</a>
</g>
</g>
<!-- Node2 -->
<g id="node2" class="node">
<title>Node2</title>
<g id="a_node2"><a xlink:href="exprtype_8cpp.html" target="_top" xlink:title=" ">
<polygon fill="white" stroke="black" points="0,-0.5 0,-19.5 143,-19.5 143,-0.5 0,-0.5"/>
<text text-anchor="middle" x="71.5" y="-7.5" font-family="Helvetica,sans-Serif" font-size="10.00">src/common/exprtype.cpp</text>
</a>
</g>
</g>
<!-- Node1&#45;&gt;Node2 -->
<g id="edge1" class="edge">
<title>Node1&#45;&gt;Node2</title>
<path fill="none" stroke="midnightblue" d="M516.34,-57.09C426.93,-48.32 278.92,-33.59 151.5,-20 148.72,-19.7 145.89,-19.4 143.02,-19.09"/>
<polygon fill="midnightblue" stroke="midnightblue" points="516.12,-60.59 526.41,-58.08 516.8,-53.62 516.12,-60.59"/>
</g>
<!-- Node3 -->
<g id="node3" class="node">
<title>Node3</title>
<g id="a_node3"><a xlink:href="obstacle_8cpp.html" target="_top" xlink:title=" ">
<polygon fill="white" stroke="black" points="161,-0.5 161,-19.5 302,-19.5 302,-0.5 161,-0.5"/>
<text text-anchor="middle" x="231.5" y="-7.5" font-family="Helvetica,sans-Serif" font-size="10.00">src/common/obstacle.cpp</text>
</a>
</g>
</g>
<!-- Node1&#45;&gt;Node3 -->
<g id="edge2" class="edge">
<title>Node1&#45;&gt;Node3</title>
<path fill="none" stroke="midnightblue" d="M529.58,-54.98C460.45,-44.78 354.43,-29.14 289.22,-19.52"/>
<polygon fill="midnightblue" stroke="midnightblue" points="529.1,-58.45 539.51,-56.44 530.12,-51.52 529.1,-58.45"/>
</g>
<!-- Node4 -->
<g id="node4" class="node">
<title>Node4</title>
<g id="a_node4"><a xlink:href="poliz_8cpp.html" target="_top" xlink:title=" ">
<polygon fill="white" stroke="black" points="320,-0.5 320,-19.5 443,-19.5 443,-0.5 320,-0.5"/>
<text text-anchor="middle" x="381.5" y="-7.5" font-family="Helvetica,sans-Serif" font-size="10.00">src/common/poliz.cpp</text>
</a>
</g>
</g>
<!-- Node1&#45;&gt;Node4 -->
<g id="edge3" class="edge">
<title>Node1&#45;&gt;Node4</title>
<path fill="none" stroke="midnightblue" d="M553.34,-53.96C512.54,-43.76 452.79,-28.82 415.57,-19.52"/>
<polygon fill="midnightblue" stroke="midnightblue" points="552.72,-57.41 563.27,-56.44 554.42,-50.62 552.72,-57.41"/>
</g>
<!-- Node5 -->
<g id="node5" class="node">
<title>Node5</title>
<g id="a_node5"><a xlink:href="stack_8cpp.html" target="_top" xlink:title=" ">
<polygon fill="white" stroke="black" points="461.5,-0.5 461.5,-19.5 587.5,-19.5 587.5,-0.5 461.5,-0.5"/>
<text text-anchor="middle" x="524.5" y="-7.5" font-family="Helvetica,sans-Serif" font-size="10.00">src/common/stack.cpp</text>
</a>
</g>
</g>
<!-- Node1&#45;&gt;Node5 -->
<g id="edge4" class="edge">
<title>Node1&#45;&gt;Node5</title>
<path fill="none" stroke="midnightblue" d="M577.36,-50.1C564.22,-40.38 547.52,-28.03 536.44,-19.83"/>
<polygon fill="midnightblue" stroke="midnightblue" points="575.65,-53.19 585.77,-56.32 579.81,-47.56 575.65,-53.19"/>
</g>
<!-- Node6 -->
<g id="node6" class="node">
<title>Node6</title>
<g id="a_node6"><a xlink:href="tables_8cpp.html" target="_top" xlink:title=" ">
<polygon fill="white" stroke="black" points="605.5,-0.5 605.5,-19.5 735.5,-19.5 735.5,-0.5 605.5,-0.5"/>
<text text-anchor="middle" x="670.5" y="-7.5" font-family="Helvetica,sans-Serif" font-size="10.00">src/common/tables.cpp</text>
</a>
</g>
</g>
<!-- Node1&#45;&gt;Node6 -->
<g id="edge5" class="edge">
<title>Node1&#45;&gt;Node6</title>
<path fill="none" stroke="midnightblue" d="M617.64,-50.1C630.78,-40.38 647.48,-28.03 658.56,-19.83"/>
<polygon fill="midnightblue" stroke="midnightblue" points="615.19,-47.56 609.23,-56.32 619.35,-53.19 615.19,-47.56"/>
</g>
<!-- Node7 -->
<g id="node7" class="node">
<title>Node7</title>
<g id="a_node7"><a xlink:href="parser_8cpp.html" target="_top" xlink:title=" ">
<polygon fill="white" stroke="black" points="753.5,-0.5 753.5,-19.5 883.5,-19.5 883.5,-0.5 753.5,-0.5"/>
<text text-anchor="middle" x="818.5" y="-7.5" font-family="Helvetica,sans-Serif" font-size="10.00">src/compiler/parser.cpp</text>
</a>
</g>
</g>
<!-- Node1&#45;&gt;Node7 -->
<g id="edge6" class="edge">
<title>Node1&#45;&gt;Node7</title>
<path fill="none" stroke="midnightblue" d="M642.42,-54.02C684.17,-43.82 745.48,-28.84 783.65,-19.52"/>
<polygon fill="midnightblue" stroke="midnightblue" points="641.4,-50.67 632.52,-56.44 643.06,-57.47 641.4,-50.67"/>
</g>
<!-- Node8 -->
<g id="node8" class="node">
<title>Node8</title>
<g id="a_node8"><a xlink:href="controlflow_8cpp.html" target="_top" xlink:title=" ">
<polygon fill="white" stroke="black" points="902,-0.5 902,-19.5 1059,-19.5 1059,-0.5 902,-0.5"/>
<text text-anchor="middle" x="980.5" y="-7.5" font-family="Helvetica,sans-Serif" font-size="10.00">src/optimizer/controlflow.cpp</text>
</a>
</g>
</g>
<!-- Node1&#45;&gt;Node8 -->
<g id="edge7" class="edge">
<title>Node1&#45;&gt;Node8</title>
<path fill="none" stroke="midnightblue" d="M668.13,-55.04C740.46,-44.84 851.72,-29.16 920.1,-19.52"/>
<polygon fill="midnightblue" stroke="midnightblue" points="667.6,-51.58 658.19,-56.44 668.58,-58.51 667.6,-51.58"/>
</g>
<!-- Node9 -->
<g id="node9" class="node">
<title>Node9</title>
<g id="a_node9"><a xlink:href="vmachine_8cpp.html" target="_top" xlink:title=" ">
<polygon fill="white" stroke="black" points="1077,-0.5 1077,-19.5 1220,-19.5 1220,-0.5 1077,-0.5"/>
<text text-anchor="middle" x="1148.5" y="-7.5" font-family="Helvetica,sans-Serif" font-size="10.00">src/runtime/vmachine.cpp</text>
</a>
</g>
</g>
<!-- Node1&#45;&gt;Node9 -->
<g id="edge8" class="edge">
<title>Node1&#45;&gt;Node9</title>
<path fill="none" stroke="midnightblue" d="M678.55,-57.67C772.43,-49.09 931.73,-34.23 1068.5,-20 1071.28,-19.71 1074.11,-19.41 1076.98,-19.11"/>
<polygon fill="midnightblue" stroke="midnightblue" points="678.19,-54.19 668.55,-58.59 678.83,-61.16 678.19,-54.19"/>
</g>
</g>
</svg>
