<?xml version="1.0" encoding="UTF-8" standalone="no"?>
<!DOCTYPE svg PUBLIC "-//W3C//DTD SVG 1.1//EN"
 "http://www.w3.org/Graphics/SVG/1.1/DTD/svg11.dtd">
<!-- Generated by graphviz version 2.43.0 (0)
 -->
<!-- Title: src/optimizer/optimizer.hpp Pages: 1 -->
<svg width="456pt" height="252pt"
 viewBox="0.00 0.00 456.26 252.00" xmlns="http://www.w3.org/2000/svg" xmlns:xlink="http://www.w3.org/1999/xlink">
<g id="graph0" class="graph" transform="scale(1 1) rotate(0) translate(4 248)">
<title>src/optimizer/optimizer.hpp</title>
<polygon fill="white" stroke="transparent" points="-4,4 -4,-248 452.26,-248 452.26,4 -4,4"/>
<!-- Node1 -->
<g id="node1" class="node">
<title>Node1</title>
<g id="a_node1"><a xlink:title=" ">
<polygon fill="#bfbfbf" stroke="black" points="123.38,-224.5 123.38,-243.5 273.38,-243.5 273.38,-224.5 123.38,-224.5"/>
<text text-anchor="middle" x="198.38" y="-231.5" font-family="Helvetica,sans-Serif" font-size="10.00">src/optimizer/optimizer.hpp</text>
</a>
</g>
</g>
<!-- Node2 -->
<g id="node2" class="node">
<title>Node2</title>
<g id="a_node2"><a xlink:title=" ">
<polygon fill="white" stroke="#bfbfbf" points="14.88,-0.5 14.88,-19.5 61.88,-19.5 61.88,-0.5 14.88,-0.5"/>
<text text-anchor="middle" x="38.38" y="-7.5" font-family="Helvetica,sans-Serif" font-size="10.00">vector</text>
</a>
</g>
</g>
<!-- Node1&#45;&gt;Node2 -->
<g id="edge1" class="edge">
<title>Node1&#45;&gt;Node2</title>
<path fill="none" stroke="midnightblue" d="M132.38,-224.45C88.19,-217.25 35.62,-205.33 21.38,-188 -15.87,-142.65 4.67,-113.3 17.38,-56 19.51,-46.43 23.89,-36.48 28.1,-28.37"/>
<polygon fill="midnightblue" stroke="midnightblue" points="31.2,-30 33,-19.56 25.08,-26.6 31.2,-30"/>
</g>
<!-- Node3 -->
<g id="node3" class="node">
<title>Node3</title>
<g id="a_node3"><a xlink:href="tables_8hpp.html" target="_top" xlink:title=" ">
<polygon fill="white" stroke="black" points="150.88,-56.5 150.88,-75.5 263.88,-75.5 263.88,-56.5 150.88,-56.5"/>
<text text-anchor="middle" x="207.38" y="-63.5" font-family="Helvetica,sans-Serif" font-size="10.00">common/tables.hpp</text>
</a>
</g>
</g>
<!-- Node1&#45;&gt;Node3 -->
<g id="edge2" class="edge">
<title>Node1&#45;&gt;Node3</title>
<path fill="none" stroke="midnightblue" d="M198.87,-224.08C200.28,-197.95 204.44,-121.21 206.37,-85.58"/>
<polygon fill="midnightblue" stroke="midnightblue" points="209.87,-85.74 206.92,-75.57 202.88,-85.36 209.87,-85.74"/>
</g>
<!-- Node7 -->
<g id="node7" class="node">
<title>Node7</title>
<g id="a_node7"><a xlink:href="poliz_8hpp.html" target="_top" xlink:title=" ">
<polygon fill="white" stroke="black" points="226.88,-112.5 226.88,-131.5 333.88,-131.5 333.88,-112.5 226.88,-112.5"/>
<text text-anchor="middle" x="280.38" y="-119.5" font-family="Helvetica,sans-Serif" font-size="10.00">common/poliz.hpp</text>
</a>
</g>
</g>
<!-- Node1&#45;&gt;Node7 -->
<g id="edge7" class="edge">
<title>Node1&#45;&gt;Node7</title>
<path fill="none" stroke="midnightblue" d="M204.82,-224.37C218.41,-206.14 250.25,-163.43 267.95,-139.68"/>
<polygon fill="midnightblue" stroke="midnightblue" points="270.81,-141.7 273.98,-131.59 265.19,-137.52 270.81,-141.7"/>
</g>
<!-- Node8 -->
<g id="node8" class="node">
<title>Node8</title>
<g id="a_node8"><a xlink:href="controlflow_8hpp.html" target="_top" xlink:title=" ">
<polygon fill="white" stroke="black" points="30.38,-168.5 30.38,-187.5 170.38,-187.5 170.38,-168.5 30.38,-168.5"/>
<text text-anchor="middle" x="100.38" y="-175.5" font-family="Helvetica,sans-Serif" font-size="10.00">optimizer/controlflow.hpp</text>
</a>
</g>
</g>
<!-- Node1&#45;&gt;Node8 -->
<g id="edge10" class="edge">
<title>Node1&#45;&gt;Node8</title>
<path fill="none" stroke="midnightblue" d="M182.64,-224.32C167.06,-215.74 143,-202.49 124.92,-192.52"/>
<polygon fill="midnightblue" stroke="midnightblue" points="126.54,-189.42 116.09,-187.65 123.16,-195.55 126.54,-189.42"/>
</g>
<!-- Node10 -->
<g id="node10" class="node">
<title>Node10</title>
<g id="a_node10"><a xlink:href="acyclicgraph_8hpp.html" target="_top" xlink:title=" ">
<polygon fill="white" stroke="black" points="281.88,-168.5 281.88,-187.5 430.88,-187.5 430.88,-168.5 281.88,-168.5"/>
<text text-anchor="middle" x="356.38" y="-175.5" font-family="Helvetica,sans-Serif" font-size="10.00">optimizer/acyclicgraph.hpp</text>
</a>
</g>
</g>
<!-- Node1&#45;&gt;Node10 -->
<g id="edge15" class="edge">
<title>Node1&#45;&gt;Node10</title>
<path fill="none" stroke="midnightblue" d="M223.42,-224.44C250,-215.36 292.19,-200.94 321.9,-190.78"/>
<polygon fill="midnightblue" stroke="midnightblue" points="323.13,-194.06 331.46,-187.52 320.87,-187.44 323.13,-194.06"/>
</g>
<!-- Node3&#45;&gt;Node2 -->
<g id="edge5" class="edge">
<title>Node3&#45;&gt;Node2</title>
<path fill="none" stroke="midnightblue" d="M180.6,-56.44C151.12,-47.02 103.69,-31.87 71.8,-21.68"/>
<polygon fill="midnightblue" stroke="midnightblue" points="72.63,-18.27 62.04,-18.56 70.5,-24.94 72.63,-18.27"/>
</g>
<!-- Node4 -->
<g id="node4" class="node">
<title>Node4</title>
<g id="a_node4"><a xlink:title=" ">
<polygon fill="white" stroke="#bfbfbf" points="107.88,-0.5 107.88,-19.5 160.88,-19.5 160.88,-0.5 107.88,-0.5"/>
<text text-anchor="middle" x="134.38" y="-7.5" font-family="Helvetica,sans-Serif" font-size="10.00">cstddef</text>
</a>
</g>
</g>
<!-- Node3&#45;&gt;Node4 -->
<g id="edge3" class="edge">
<title>Node3&#45;&gt;Node4</title>
<path fill="none" stroke="midnightblue" d="M195.65,-56.32C184.54,-48.11 167.64,-35.6 154.4,-25.81"/>
<polygon fill="midnightblue" stroke="midnightblue" points="156.44,-22.97 146.32,-19.83 152.28,-28.59 156.44,-22.97"/>
</g>
<!-- Node5 -->
<g id="node5" class="node">
<title>Node5</title>
<g id="a_node5"><a xlink:title=" ">
<polygon fill="white" stroke="#bfbfbf" points="178.88,-0.5 178.88,-19.5 235.88,-19.5 235.88,-0.5 178.88,-0.5"/>
<text text-anchor="middle" x="207.38" y="-7.5" font-family="Helvetica,sans-Serif" font-size="10.00">ostream</text>
</a>
</g>
</g>
<!-- Node3&#45;&gt;Node5 -->
<g id="edge4" class="edge">
<title>Node3&#45;&gt;Node5</title>
<path fill="none" stroke="midnightblue" d="M207.38,-56.08C207.38,-49.01 207.38,-38.86 207.38,-29.99"/>
<polygon fill="midnightblue" stroke="midnightblue" points="210.88,-29.75 207.38,-19.75 203.88,-29.75 210.88,-29.75"/>
</g>
<!-- Node6 -->
<g id="node6" class="node">
<title>Node6</title>
<g id="a_node6"><a xlink:href="exprtype_8hpp.html" target="_top" xlink:title=" ">
<polygon fill="white" stroke="black" points="253.88,-0.5 253.88,-19.5 380.88,-19.5 380.88,-0.5 253.88,-0.5"/>
<text text-anchor="middle" x="317.38" y="-7.5" font-family="Helvetica,sans-Serif" font-size="10.00">common/exprtype.hpp</text>
</a>
</g>
</g>
<!-- Node3&#45;&gt;Node6 -->
<g id="edge6" class="edge">
<title>Node3&#45;&gt;Node6</title>
<path fill="none" stroke="midnightblue" d="M225.05,-56.32C242.78,-47.62 270.28,-34.12 290.67,-24.11"/>
<polygon fill="midnightblue" stroke="midnightblue" points="292.32,-27.2 299.75,-19.65 289.23,-20.92 292.32,-27.2"/>
</g>
<!-- Node7&#45;&gt;Node3 -->
<g id="edge8" class="edge">
<title>Node7&#45;&gt;Node3</title>
<path fill="none" stroke="midnightblue" d="M268.65,-112.32C257.54,-104.11 240.64,-91.6 227.4,-81.81"/>
<polygon fill="midnightblue" stroke="midnightblue" points="229.44,-78.97 219.32,-75.83 225.28,-84.59 229.44,-78.97"/>
</g>
<!-- Node7&#45;&gt;Node6 -->
<g id="edge9" class="edge">
<title>Node7&#45;&gt;Node6</title>
<path fill="none" stroke="midnightblue" d="M283.28,-112.37C289.28,-94.54 303.15,-53.3 311.24,-29.27"/>
<polygon fill="midnightblue" stroke="midnightblue" points="314.62,-30.19 314.49,-19.59 307.99,-27.95 314.62,-30.19"/>
</g>
<!-- Node8&#45;&gt;Node2 -->
<g id="edge11" class="edge">
<title>Node8&#45;&gt;Node2</title>
<path fill="none" stroke="midnightblue" d="M75.22,-168.38C58.96,-161.34 39.09,-149.65 29.38,-132 11.43,-99.36 22.57,-54.08 31.18,-29.19"/>
<polygon fill="midnightblue" stroke="midnightblue" points="34.55,-30.19 34.73,-19.59 27.98,-27.76 34.55,-30.19"/>
</g>
<!-- Node8&#45;&gt;Node3 -->
<g id="edge13" class="edge">
<title>Node8&#45;&gt;Node3</title>
<path fill="none" stroke="midnightblue" d="M108.78,-168.37C126.67,-149.97 168.79,-106.67 191.77,-83.05"/>
<polygon fill="midnightblue" stroke="midnightblue" points="194.56,-85.2 199.02,-75.59 189.54,-80.32 194.56,-85.2"/>
</g>
<!-- Node8&#45;&gt;Node7 -->
<g id="edge14" class="edge">
<title>Node8&#45;&gt;Node7</title>
<path fill="none" stroke="midnightblue" d="M128.9,-168.44C159.45,-159.28 208.09,-144.69 241.98,-134.52"/>
<polygon fill="midnightblue" stroke="midnightblue" points="243.42,-137.74 251.99,-131.52 241.41,-131.04 243.42,-137.74"/>
</g>
<!-- Node9 -->
<g id="node9" class="node">
<title>Node9</title>
<g id="a_node9"><a xlink:title=" ">
<polygon fill="white" stroke="#bfbfbf" points="38.88,-112.5 38.88,-131.5 93.88,-131.5 93.88,-112.5 38.88,-112.5"/>
<text text-anchor="middle" x="66.38" y="-119.5" font-family="Helvetica,sans-Serif" font-size="10.00">fstream</text>
</a>
</g>
</g>
<!-- Node8&#45;&gt;Node9 -->
<g id="edge12" class="edge">
<title>Node8&#45;&gt;Node9</title>
<path fill="none" stroke="midnightblue" d="M94.77,-168.08C90.01,-160.53 83.06,-149.49 77.23,-140.23"/>
<polygon fill="midnightblue" stroke="midnightblue" points="80.18,-138.35 71.89,-131.75 74.26,-142.08 80.18,-138.35"/>
</g>
<!-- Node10&#45;&gt;Node2 -->
<g id="edge16" class="edge">
<title>Node10&#45;&gt;Node2</title>
<path fill="none" stroke="midnightblue" d="M321.32,-168.46C292.79,-160.83 251.91,-148.34 218.38,-132 155.27,-101.24 88.6,-51.09 57.04,-26.12"/>
<polygon fill="midnightblue" stroke="midnightblue" points="59.1,-23.29 49.1,-19.78 54.73,-28.76 59.1,-23.29"/>
</g>
<!-- Node10&#45;&gt;Node3 -->
<g id="edge19" class="edge">
<title>Node10&#45;&gt;Node3</title>
<path fill="none" stroke="midnightblue" d="M357.2,-168.23C357.99,-154.5 357.41,-127.86 343.38,-112 325.71,-92.02 298.97,-80.88 273.86,-74.69"/>
<polygon fill="midnightblue" stroke="midnightblue" points="274.5,-71.24 263.98,-72.47 272.97,-78.07 274.5,-71.24"/>
</g>
<!-- Node10&#45;&gt;Node6 -->
<g id="edge18" class="edge">
<title>Node10&#45;&gt;Node6</title>
<path fill="none" stroke="midnightblue" d="M389.04,-168.43C419.67,-158.51 458.9,-139.89 445.38,-112 424.9,-69.76 377.24,-39.86 346.21,-24.04"/>
<polygon fill="midnightblue" stroke="midnightblue" points="347.68,-20.86 337.16,-19.58 344.58,-27.14 347.68,-20.86"/>
</g>
<!-- Node10&#45;&gt;Node7 -->
<g id="edge20" class="edge">
<title>Node10&#45;&gt;Node7</title>
<path fill="none" stroke="midnightblue" d="M344.17,-168.32C332.61,-160.11 315.01,-147.6 301.22,-137.81"/>
<polygon fill="midnightblue" stroke="midnightblue" points="302.99,-134.77 292.81,-131.83 298.94,-140.48 302.99,-134.77"/>
</g>
<!-- Node11 -->
<g id="node11" class="node">
<title>Node11</title>
<g id="a_node11"><a xlink:title=" ">
<polygon fill="white" stroke="#bfbfbf" points="390.88,-112.5 390.88,-131.5 435.88,-131.5 435.88,-112.5 390.88,-112.5"/>
<text text-anchor="middle" x="413.38" y="-119.5" font-family="Helvetica,sans-Serif" font-size="10.00">utility</text>
</a>
</g>
</g>
<!-- Node10&#45;&gt;Node11 -->
<g id="edge17" class="edge">
<title>Node10&#45;&gt;Node11</title>
<path fill="none" stroke="midnightblue" d="M365.54,-168.32C373.88,-160.42 386.41,-148.55 396.56,-138.94"/>
<polygon fill="midnightblue" stroke="midnightblue" points="399.2,-141.25 404.06,-131.83 394.39,-136.17 399.2,-141.25"/>
</g>
</g>
</svg>
