<?xml version="1.0" encoding="UTF-8" standalone="no"?>
<!DOCTYPE svg PUBLIC "-//W3C//DTD SVG 1.1//EN"
 "http://www.w3.org/Graphics/SVG/1.1/DTD/svg11.dtd">
<!-- Generated by graphviz version 2.43.0 (0)
 -->
<!-- Title: src/optimizer/optimizer.cpp Pages: 1 -->
<!--zoomable 308 -->
<svg id="main" version="1.1" xmlns="http://www.w3.org/2000/svg" xmlns:xlink="http://www.w3.org/1999/xlink" xml:space="preserve" onload="init(evt)">
<style type="text/css"><![CDATA[
.edge:hover path { stroke: red; }
.edge:hover polygon { stroke: red; fill: red; }
]]></style>
<script type="text/javascript"><![CDATA[
var edges = document.getElementsByTagName('g');
if (edges && edges.length) {
  for (var i=0;i<edges.length;i++) {
    if (edges[i].id.substr(0,4)=='edge') {
      edges[i].setAttribute('class','edge');
    }
  }
}
]]></script>
        <defs>
                <circle id="rim" cx="0" cy="0" r="7"/>
                <circle id="rim2" cx="0" cy="0" r="3.5"/>
                <g id="zoomPlus">
                        <use xlink:href="#rim" fill="#404040">
                                <set attributeName="fill" to="#808080" begin="zoomplus.mouseover" end="zoomplus.mouseout"/>
                        </use>
                        <path d="M-4,0h8M0,-4v8" fill="none" stroke="white" stroke-width="1.5" pointer-events="none"/>
                </g>
                <g id="zoomMin">
                        <use xlink:href="#rim" fill="#404040">
                                <set attributeName="fill" to="#808080" begin="zoomminus.mouseover" end="zoomminus.mouseout"/>
                        </use>
                        <path d="M-4,0h8" fill="none" stroke="white" stroke-width="1.5" pointer-events="none"/>
                </g>
                <g id="dirArrow">
                        <path fill="none" stroke="white" stroke-width="1.5" d="M0,-3.0v7 M-2.5,-0.5L0,-3.0L2.5,-0.5"/>
                </g>
               <g id="resetDef">
                       <use xlink:href="#rim2" fill="#404040">
                               <set attributeName="fill" to="#808080" begin="reset.mouseover" end="reset.mouseout"/>
                       </use>
               </g>
        </defs>

<script type="text/javascript">
var viewWidth = 877;
var viewHeight = 308;
var sectionId = 'dynsection-0';
</script>
<script xlink:href="svgpan.js"/>
<svg id="graph" class="graph">
<g id="viewport">
<title>src/optimizer/optimizer.cpp</title>
<polygon fill="white" stroke="transparent" points="-4,4 -4,-304 873,-304 873,4 -4,4"/>
<!-- Node1 -->
<g id="node1" class="node">
<title>Node1</title>
<g id="a_node1"><a xlink:title=" ">
<polygon fill="#bfbfbf" stroke="black" points="568,-280.5 568,-299.5 718,-299.5 718,-280.5 568,-280.5"/>
<text text-anchor="middle" x="643" y="-287.5" font-family="Helvetica,sans-Serif" font-size="10.00">src/optimizer/optimizer.cpp</text>
</a>
</g>
</g>
<!-- Node2 -->
<g id="node2" class="node">
<title>Node2</title>
<g id="a_node2"><a xlink:href="optimizer_8hpp.html" target="_top" xlink:title=" ">
<polygon fill="white" stroke="black" points="347,-224.5 347,-243.5 481,-243.5 481,-224.5 347,-224.5"/>
<text text-anchor="middle" x="414" y="-231.5" font-family="Helvetica,sans-Serif" font-size="10.00">optimizer/optimizer.hpp</text>
</a>
</g>
</g>
<!-- Node1&#45;&gt;Node2 -->
<g id="edge1" class="edge">
<title>Node1&#45;&gt;Node2</title>
<path fill="none" stroke="midnightblue" d="M606.71,-280.44C567.02,-271.08 503.29,-256.06 460.09,-245.87"/>
<polygon fill="midnightblue" stroke="midnightblue" points="460.65,-242.41 450.12,-243.52 459.05,-249.22 460.65,-242.41"/>
</g>
<!-- Node3 -->
<g id="node3" class="node">
<title>Node3</title>
<g id="a_node3"><a xlink:title=" ">
<polygon fill="white" stroke="#bfbfbf" points="108.5,-0.5 108.5,-19.5 155.5,-19.5 155.5,-0.5 108.5,-0.5"/>
<text text-anchor="middle" x="132" y="-7.5" font-family="Helvetica,sans-Serif" font-size="10.00">vector</text>
</a>
</g>
</g>
<!-- Node1&#45;&gt;Node3 -->
<g id="edge29" class="edge">
<title>Node1&#45;&gt;Node3</title>
<path fill="none" stroke="midnightblue" d="M567.98,-283.92C398.36,-271.44 0,-236.05 0,-179 0,-179 0,-179 0,-121 0,-69.57 59.86,-37.53 98.96,-22.08"/>
<polygon fill="midnightblue" stroke="midnightblue" points="100.29,-25.32 108.4,-18.51 97.81,-18.77 100.29,-25.32"/>
</g>
<!-- Node7 -->
<g id="node7" class="node">
<title>Node7</title>
<g id="a_node7"><a xlink:href="exprtype_8hpp.html" target="_top" xlink:title=" ">
<polygon fill="white" stroke="black" points="537.5,-0.5 537.5,-19.5 664.5,-19.5 664.5,-0.5 537.5,-0.5"/>
<text text-anchor="middle" x="601" y="-7.5" font-family="Helvetica,sans-Serif" font-size="10.00">common/exprtype.hpp</text>
</a>
</g>
</g>
<!-- Node1&#45;&gt;Node7 -->
<g id="edge23" class="edge">
<title>Node1&#45;&gt;Node7</title>
<path fill="none" stroke="midnightblue" d="M643,-280.44C643,-261.94 643,-216.81 643,-179 643,-179 643,-179 643,-121 643,-86.41 624.65,-49.49 612.21,-28.43"/>
<polygon fill="midnightblue" stroke="midnightblue" points="615.06,-26.38 606.84,-19.69 609.09,-30.04 615.06,-26.38"/>
</g>
<!-- Node14 -->
<g id="node14" class="node">
<title>Node14</title>
<g id="a_node14"><a xlink:href="util_8hpp.html" target="_top" xlink:title=" ">
<polygon fill="white" stroke="black" points="28.5,-168.5 28.5,-187.5 131.5,-187.5 131.5,-168.5 28.5,-168.5"/>
<text text-anchor="middle" x="80" y="-175.5" font-family="Helvetica,sans-Serif" font-size="10.00">optimizer/util.hpp</text>
</a>
</g>
</g>
<!-- Node1&#45;&gt;Node14 -->
<g id="edge24" class="edge">
<title>Node1&#45;&gt;Node14</title>
<path fill="none" stroke="midnightblue" d="M571.16,-280.47C509.14,-272.61 417.26,-259.79 338,-244 260.02,-228.46 170.25,-204.43 119.81,-190.35"/>
<polygon fill="midnightblue" stroke="midnightblue" points="120.54,-186.92 109.96,-187.59 118.65,-193.66 120.54,-186.92"/>
</g>
<!-- Node15 -->
<g id="node15" class="node">
<title>Node15</title>
<g id="a_node15"><a xlink:title=" ">
<polygon fill="white" stroke="#bfbfbf" points="671,-224.5 671,-243.5 731,-243.5 731,-224.5 671,-224.5"/>
<text text-anchor="middle" x="701" y="-231.5" font-family="Helvetica,sans-Serif" font-size="10.00">iostream</text>
</a>
</g>
</g>
<!-- Node1&#45;&gt;Node15 -->
<g id="edge27" class="edge">
<title>Node1&#45;&gt;Node15</title>
<path fill="none" stroke="midnightblue" d="M652.32,-280.32C660.89,-272.34 673.81,-260.31 684.19,-250.65"/>
<polygon fill="midnightblue" stroke="midnightblue" points="686.58,-253.21 691.51,-243.83 681.81,-248.09 686.58,-253.21"/>
</g>
<!-- Node16 -->
<g id="node16" class="node">
<title>Node16</title>
<g id="a_node16"><a xlink:title=" ">
<polygon fill="white" stroke="#bfbfbf" points="749,-224.5 749,-243.5 813,-243.5 813,-224.5 749,-224.5"/>
<text text-anchor="middle" x="781" y="-231.5" font-family="Helvetica,sans-Serif" font-size="10.00">algorithm</text>
</a>
</g>
</g>
<!-- Node1&#45;&gt;Node16 -->
<g id="edge28" class="edge">
<title>Node1&#45;&gt;Node16</title>
<path fill="none" stroke="midnightblue" d="M664.87,-280.44C687.78,-271.48 723.98,-257.31 749.87,-247.18"/>
<polygon fill="midnightblue" stroke="midnightblue" points="751.2,-250.42 759.24,-243.52 748.65,-243.9 751.2,-250.42"/>
</g>
<!-- Node17 -->
<g id="node17" class="node">
<title>Node17</title>
<g id="a_node17"><a xlink:title=" ">
<polygon fill="white" stroke="#bfbfbf" points="831,-224.5 831,-243.5 869,-243.5 869,-224.5 831,-224.5"/>
<text text-anchor="middle" x="850" y="-231.5" font-family="Helvetica,sans-Serif" font-size="10.00">map</text>
</a>
</g>
</g>
<!-- Node1&#45;&gt;Node17 -->
<g id="edge30" class="edge">
<title>Node1&#45;&gt;Node17</title>
<path fill="none" stroke="midnightblue" d="M679.87,-280.47C714.13,-272.38 766.78,-259.53 820.99,-244.16"/>
<polygon fill="midnightblue" stroke="midnightblue" points="822.12,-247.48 830.77,-241.36 820.19,-240.75 822.12,-247.48"/>
</g>
<!-- Node2&#45;&gt;Node3 -->
<g id="edge2" class="edge">
<title>Node2&#45;&gt;Node3</title>
<path fill="none" stroke="midnightblue" d="M346.91,-226.44C288.2,-219.55 208.43,-207.04 183,-188 133.11,-150.64 129.62,-67.57 130.8,-30.05"/>
<polygon fill="midnightblue" stroke="midnightblue" points="134.32,-29.74 131.3,-19.58 127.33,-29.41 134.32,-29.74"/>
</g>
<!-- Node4 -->
<g id="node4" class="node">
<title>Node4</title>
<g id="a_node4"><a xlink:href="tables_8hpp.html" target="_top" xlink:title=" ">
<polygon fill="white" stroke="black" points="425.5,-56.5 425.5,-75.5 538.5,-75.5 538.5,-56.5 425.5,-56.5"/>
<text text-anchor="middle" x="482" y="-63.5" font-family="Helvetica,sans-Serif" font-size="10.00">common/tables.hpp</text>
</a>
</g>
</g>
<!-- Node2&#45;&gt;Node4 -->
<g id="edge3" class="edge">
<title>Node2&#45;&gt;Node4</title>
<path fill="none" stroke="midnightblue" d="M481.06,-226.85C506.26,-220.89 532.53,-209.52 548,-188 567.72,-160.58 563.78,-141.86 548,-112 540.58,-97.95 526.58,-87.47 513.38,-80.17"/>
<polygon fill="midnightblue" stroke="midnightblue" points="514.96,-77.04 504.46,-75.62 511.78,-83.28 514.96,-77.04"/>
</g>
<!-- Node8 -->
<g id="node8" class="node">
<title>Node8</title>
<g id="a_node8"><a xlink:href="poliz_8hpp.html" target="_top" xlink:title=" ">
<polygon fill="white" stroke="black" points="291.5,-112.5 291.5,-131.5 398.5,-131.5 398.5,-112.5 291.5,-112.5"/>
<text text-anchor="middle" x="345" y="-119.5" font-family="Helvetica,sans-Serif" font-size="10.00">common/poliz.hpp</text>
</a>
</g>
</g>
<!-- Node2&#45;&gt;Node8 -->
<g id="edge8" class="edge">
<title>Node2&#45;&gt;Node8</title>
<path fill="none" stroke="midnightblue" d="M407.35,-224.22C400.69,-215.28 390.25,-200.93 382,-188 371.98,-172.3 361.58,-153.79 354.36,-140.54"/>
<polygon fill="midnightblue" stroke="midnightblue" points="357.35,-138.71 349.52,-131.57 351.19,-142.04 357.35,-138.71"/>
</g>
<!-- Node10 -->
<g id="node10" class="node">
<title>Node10</title>
<g id="a_node10"><a xlink:href="controlflow_8hpp.html" target="_top" xlink:title=" ">
<polygon fill="white" stroke="black" points="192.5,-168.5 192.5,-187.5 333.5,-187.5 333.5,-168.5 192.5,-168.5"/>
<text text-anchor="middle" x="263" y="-175.5" font-family="Helvetica,sans-Serif" font-size="10.00">optimizer/controlflow.hpp</text>
</a>
</g>
</g>
<!-- Node2&#45;&gt;Node10 -->
<g id="edge12" class="edge">
<title>Node2&#45;&gt;Node10</title>
<path fill="none" stroke="midnightblue" d="M390.07,-224.44C364.78,-215.4 324.7,-201.06 296.32,-190.92"/>
<polygon fill="midnightblue" stroke="midnightblue" points="297.41,-187.59 286.81,-187.52 295.05,-194.18 297.41,-187.59"/>
</g>
<!-- Node12 -->
<g id="node12" class="node">
<title>Node12</title>
<g id="a_node12"><a xlink:href="acyclicgraph_8hpp.html" target="_top" xlink:title=" ">
<polygon fill="white" stroke="black" points="390.5,-168.5 390.5,-187.5 539.5,-187.5 539.5,-168.5 390.5,-168.5"/>
<text text-anchor="middle" x="465" y="-175.5" font-family="Helvetica,sans-Serif" font-size="10.00">optimizer/acyclicgraph.hpp</text>
</a>
</g>
</g>
<!-- Node2&#45;&gt;Node12 -->
<g id="edge17" class="edge">
<title>Node2&#45;&gt;Node12</title>
<path fill="none" stroke="midnightblue" d="M422.42,-224.08C429.85,-216.22 440.85,-204.57 449.81,-195.08"/>
<polygon fill="midnightblue" stroke="midnightblue" points="452.41,-197.42 456.74,-187.75 447.32,-192.62 452.41,-197.42"/>
</g>
<!-- Node4&#45;&gt;Node3 -->
<g id="edge6" class="edge">
<title>Node4&#45;&gt;Node3</title>
<path fill="none" stroke="midnightblue" d="M426.54,-56.44C353.26,-45.14 226.41,-25.57 165.95,-16.24"/>
<polygon fill="midnightblue" stroke="midnightblue" points="166.22,-12.74 155.8,-14.67 165.15,-19.66 166.22,-12.74"/>
</g>
<!-- Node5 -->
<g id="node5" class="node">
<title>Node5</title>
<g id="a_node5"><a xlink:title=" ">
<polygon fill="white" stroke="#bfbfbf" points="385.5,-0.5 385.5,-19.5 438.5,-19.5 438.5,-0.5 385.5,-0.5"/>
<text text-anchor="middle" x="412" y="-7.5" font-family="Helvetica,sans-Serif" font-size="10.00">cstddef</text>
</a>
</g>
</g>
<!-- Node4&#45;&gt;Node5 -->
<g id="edge4" class="edge">
<title>Node4&#45;&gt;Node5</title>
<path fill="none" stroke="midnightblue" d="M470.75,-56.32C460.2,-48.18 444.2,-35.84 431.56,-26.09"/>
<polygon fill="midnightblue" stroke="midnightblue" points="433.51,-23.17 423.45,-19.83 429.23,-28.71 433.51,-23.17"/>
</g>
<!-- Node6 -->
<g id="node6" class="node">
<title>Node6</title>
<g id="a_node6"><a xlink:title=" ">
<polygon fill="white" stroke="#bfbfbf" points="456.5,-0.5 456.5,-19.5 513.5,-19.5 513.5,-0.5 456.5,-0.5"/>
<text text-anchor="middle" x="485" y="-7.5" font-family="Helvetica,sans-Serif" font-size="10.00">ostream</text>
</a>
</g>
</g>
<!-- Node4&#45;&gt;Node6 -->
<g id="edge5" class="edge">
<title>Node4&#45;&gt;Node6</title>
<path fill="none" stroke="midnightblue" d="M482.5,-56.08C482.89,-49.01 483.45,-38.86 483.95,-29.99"/>
<polygon fill="midnightblue" stroke="midnightblue" points="487.45,-29.93 484.51,-19.75 480.46,-29.54 487.45,-29.93"/>
</g>
<!-- Node4&#45;&gt;Node7 -->
<g id="edge7" class="edge">
<title>Node4&#45;&gt;Node7</title>
<path fill="none" stroke="midnightblue" d="M500.86,-56.44C520.27,-47.64 550.73,-33.81 572.96,-23.72"/>
<polygon fill="midnightblue" stroke="midnightblue" points="574.57,-26.84 582.23,-19.52 571.68,-20.46 574.57,-26.84"/>
</g>
<!-- Node8&#45;&gt;Node4 -->
<g id="edge9" class="edge">
<title>Node8&#45;&gt;Node4</title>
<path fill="none" stroke="midnightblue" d="M366.71,-112.44C389.35,-103.52 425.07,-89.44 450.75,-79.32"/>
<polygon fill="midnightblue" stroke="midnightblue" points="452.37,-82.44 460.39,-75.52 449.81,-75.93 452.37,-82.44"/>
</g>
<!-- Node8&#45;&gt;Node7 -->
<g id="edge10" class="edge">
<title>Node8&#45;&gt;Node7</title>
<path fill="none" stroke="midnightblue" d="M398.62,-118.7C441.78,-114.7 502.52,-104.04 548,-76 566.91,-64.34 582.11,-43.49 591.3,-28.55"/>
<polygon fill="midnightblue" stroke="midnightblue" points="594.42,-30.13 596.45,-19.73 588.38,-26.6 594.42,-30.13"/>
</g>
<!-- Node9 -->
<g id="node9" class="node">
<title>Node9</title>
<g id="a_node9"><a xlink:href="cppcheck_8hpp.html" target="_top" xlink:title=" ">
<polygon fill="white" stroke="black" points="239.5,-56.5 239.5,-75.5 368.5,-75.5 368.5,-56.5 239.5,-56.5"/>
<text text-anchor="middle" x="304" y="-63.5" font-family="Helvetica,sans-Serif" font-size="10.00">common/cppcheck.hpp</text>
</a>
</g>
</g>
<!-- Node8&#45;&gt;Node9 -->
<g id="edge11" class="edge">
<title>Node8&#45;&gt;Node9</title>
<path fill="none" stroke="midnightblue" d="M338.23,-112.08C332.44,-104.46 323.94,-93.26 316.86,-83.94"/>
<polygon fill="midnightblue" stroke="midnightblue" points="319.48,-81.6 310.64,-75.75 313.9,-85.83 319.48,-81.6"/>
</g>
<!-- Node10&#45;&gt;Node3 -->
<g id="edge13" class="edge">
<title>Node10&#45;&gt;Node3</title>
<path fill="none" stroke="midnightblue" d="M230.47,-168.48C210.45,-161.67 185.71,-150.19 170,-132 144.43,-102.38 136.05,-55.58 133.31,-29.72"/>
<polygon fill="midnightblue" stroke="midnightblue" points="136.8,-29.39 132.43,-19.74 129.83,-30.01 136.8,-29.39"/>
</g>
<!-- Node10&#45;&gt;Node4 -->
<g id="edge15" class="edge">
<title>Node10&#45;&gt;Node4</title>
<path fill="none" stroke="midnightblue" d="M262.91,-168.44C263.25,-154.5 266.06,-126.97 282,-112 301.12,-94.05 364.49,-81.86 414.83,-74.74"/>
<polygon fill="midnightblue" stroke="midnightblue" points="415.6,-78.17 425.03,-73.34 414.65,-71.23 415.6,-78.17"/>
</g>
<!-- Node10&#45;&gt;Node8 -->
<g id="edge16" class="edge">
<title>Node10&#45;&gt;Node8</title>
<path fill="none" stroke="midnightblue" d="M276.17,-168.32C288.85,-159.98 308.23,-147.21 323.21,-137.35"/>
<polygon fill="midnightblue" stroke="midnightblue" points="325.43,-140.08 331.86,-131.65 321.58,-134.23 325.43,-140.08"/>
</g>
<!-- Node11 -->
<g id="node11" class="node">
<title>Node11</title>
<g id="a_node11"><a xlink:title=" ">
<polygon fill="white" stroke="#bfbfbf" points="179.5,-112.5 179.5,-131.5 234.5,-131.5 234.5,-112.5 179.5,-112.5"/>
<text text-anchor="middle" x="207" y="-119.5" font-family="Helvetica,sans-Serif" font-size="10.00">fstream</text>
</a>
</g>
</g>
<!-- Node10&#45;&gt;Node11 -->
<g id="edge14" class="edge">
<title>Node10&#45;&gt;Node11</title>
<path fill="none" stroke="midnightblue" d="M254,-168.32C245.81,-160.42 233.49,-148.55 223.53,-138.94"/>
<polygon fill="midnightblue" stroke="midnightblue" points="225.79,-136.26 216.16,-131.83 220.93,-141.29 225.79,-136.26"/>
</g>
<!-- Node12&#45;&gt;Node3 -->
<g id="edge18" class="edge">
<title>Node12&#45;&gt;Node3</title>
<path fill="none" stroke="midnightblue" d="M461.42,-168.22C451.67,-145.49 422.28,-84.51 377,-56 342.29,-34.15 224.5,-19.97 165.81,-14.1"/>
<polygon fill="midnightblue" stroke="midnightblue" points="165.86,-10.58 155.57,-13.09 165.18,-17.55 165.86,-10.58"/>
</g>
<!-- Node12&#45;&gt;Node4 -->
<g id="edge21" class="edge">
<title>Node12&#45;&gt;Node4</title>
<path fill="none" stroke="midnightblue" d="M466.33,-168.37C469.08,-150.62 475.41,-109.67 479.13,-85.6"/>
<polygon fill="midnightblue" stroke="midnightblue" points="482.6,-86.01 480.67,-75.59 475.69,-84.94 482.6,-86.01"/>
</g>
<!-- Node12&#45;&gt;Node7 -->
<g id="edge20" class="edge">
<title>Node12&#45;&gt;Node7</title>
<path fill="none" stroke="midnightblue" d="M489.93,-168.49C508.04,-161.23 532.08,-149.2 548,-132 575.69,-102.1 590.47,-55.4 596.93,-29.64"/>
<polygon fill="midnightblue" stroke="midnightblue" points="600.38,-30.24 599.26,-19.7 593.57,-28.64 600.38,-30.24"/>
</g>
<!-- Node12&#45;&gt;Node8 -->
<g id="edge22" class="edge">
<title>Node12&#45;&gt;Node8</title>
<path fill="none" stroke="midnightblue" d="M445.99,-168.44C426.41,-159.64 395.69,-145.81 373.27,-135.72"/>
<polygon fill="midnightblue" stroke="midnightblue" points="374.48,-132.43 363.93,-131.52 371.61,-138.81 374.48,-132.43"/>
</g>
<!-- Node13 -->
<g id="node13" class="node">
<title>Node13</title>
<g id="a_node13"><a xlink:title=" ">
<polygon fill="white" stroke="#bfbfbf" points="493.5,-112.5 493.5,-131.5 538.5,-131.5 538.5,-112.5 493.5,-112.5"/>
<text text-anchor="middle" x="516" y="-119.5" font-family="Helvetica,sans-Serif" font-size="10.00">utility</text>
</a>
</g>
</g>
<!-- Node12&#45;&gt;Node13 -->
<g id="edge19" class="edge">
<title>Node12&#45;&gt;Node13</title>
<path fill="none" stroke="midnightblue" d="M473.42,-168.08C480.85,-160.22 491.85,-148.57 500.81,-139.08"/>
<polygon fill="midnightblue" stroke="midnightblue" points="503.41,-141.42 507.74,-131.75 498.32,-136.62 503.41,-141.42"/>
</g>
<!-- Node14&#45;&gt;Node3 -->
<g id="edge25" class="edge">
<title>Node14&#45;&gt;Node3</title>
<path fill="none" stroke="midnightblue" d="M79.98,-168.41C80.21,-148.07 82.5,-95.66 99,-56 103.32,-45.62 110.5,-35.41 117.06,-27.34"/>
<polygon fill="midnightblue" stroke="midnightblue" points="119.92,-29.39 123.78,-19.52 114.61,-24.83 119.92,-29.39"/>
</g>
<!-- Node14&#45;&gt;Node8 -->
<g id="edge26" class="edge">
<title>Node14&#45;&gt;Node8</title>
<path fill="none" stroke="midnightblue" d="M121.99,-168.44C168.41,-158.98 243.23,-143.74 293.24,-133.55"/>
<polygon fill="midnightblue" stroke="midnightblue" points="294.11,-136.94 303.21,-131.52 292.71,-130.08 294.11,-136.94"/>
</g>
</g>
</svg>
        <g id="navigator" transform="translate(0 0)" fill="#404254">
                <rect fill="#f2f5e9" fill-opacity="0.5" stroke="#606060" stroke-width=".5" x="0" y="0" width="60" height="60"/>
                <use id="zoomplus" xlink:href="#zoomPlus" x="17" y="9" onmousedown="handleZoom(evt,'in')"/>
                <use id="zoomminus" xlink:href="#zoomMin" x="42" y="9" onmousedown="handleZoom(evt,'out')"/>
                <use id="reset" xlink:href="#resetDef" x="30" y="36" onmousedown="handleReset()"/>
                <g id="arrowUp" xlink:href="#dirArrow" transform="translate(30 24)" onmousedown="handlePan(0,-1)">
                  <use xlink:href="#rim" fill="#404040">
                        <set attributeName="fill" to="#808080" begin="arrowUp.mouseover" end="arrowUp.mouseout"/>
                  </use>
                  <path fill="none" stroke="white" stroke-width="1.5" d="M0,-3.0v7 M-2.5,-0.5L0,-3.0L2.5,-0.5"/>
                </g>
                <g id="arrowRight" xlink:href="#dirArrow" transform="rotate(90) translate(36 -43)" onmousedown="handlePan(1,0)">
                  <use xlink:href="#rim" fill="#404040">
                        <set attributeName="fill" to="#808080" begin="arrowRight.mouseover" end="arrowRight.mouseout"/>
                  </use>
                  <path fill="none" stroke="white" stroke-width="1.5" d="M0,-3.0v7 M-2.5,-0.5L0,-3.0L2.5,-0.5"/>
                </g>
                <g id="arrowDown" xlink:href="#dirArrow" transform="rotate(180) translate(-30 -48)" onmousedown="handlePan(0,1)">
                  <use xlink:href="#rim" fill="#404040">
                        <set attributeName="fill" to="#808080" begin="arrowDown.mouseover" end="arrowDown.mouseout"/>
                  </use>
                  <path fill="none" stroke="white" stroke-width="1.5" d="M0,-3.0v7 M-2.5,-0.5L0,-3.0L2.5,-0.5"/>
                </g>
                <g id="arrowLeft" xlink:href="#dirArrow" transform="rotate(270) translate(-36 17)" onmousedown="handlePan(-1,0)">
                  <use xlink:href="#rim" fill="#404040">
                        <set attributeName="fill" to="#808080" begin="arrowLeft.mouseover" end="arrowLeft.mouseout"/>
                  </use>
                  <path fill="none" stroke="white" stroke-width="1.5" d="M0,-3.0v7 M-2.5,-0.5L0,-3.0L2.5,-0.5"/>
                </g>
        </g>
        <svg viewBox="0 0 15 15" width="100%" height="30px" preserveAspectRatio="xMaxYMin meet">
         <g id="arrow_out" transform="scale(0.3 0.3)">
          <a xlink:href="optimizer_8cpp__incl_org.svg" target="_base">
           <rect id="button" ry="5" rx="5" y="6" x="6" height="38" width="38"
                fill="#f2f5e9" fill-opacity="0.5" stroke="#606060" stroke-width="1.0"/>
           <path id="arrow"
             d="M 11.500037,31.436501 C 11.940474,20.09759 22.043105,11.32322 32.158766,21.979434 L 37.068811,17.246167 C 37.068811,17.246167 37.088388,32 37.088388,32 L 22.160133,31.978069 C 22.160133,31.978069 26.997745,27.140456 26.997745,27.140456 C 18.528582,18.264221 13.291696,25.230495 11.500037,31.436501 z"
             style="fill:#404040;"/>
          </a>
         </g>
        </svg>
</svg>
