<?xml version="1.0" encoding="UTF-8" standalone="no"?>
<!DOCTYPE svg PUBLIC "-//W3C//DTD SVG 1.1//EN"
 "http://www.w3.org/Graphics/SVG/1.1/DTD/svg11.dtd">
<!-- Generated by graphviz version 2.43.0 (0)
 -->
<!-- Title: src/optimizer/optimizer.cpp Pages: 1 -->
<!--zoomable 308 -->
<svg id="main" version="1.1" xmlns="http://www.w3.org/2000/svg" xmlns:xlink="http://www.w3.org/1999/xlink" xml:space="preserve" onload="init(evt)">
<style type="text/css"><![CDATA[
.edge:hover path { stroke: red; }
.edge:hover polygon { stroke: red; fill: red; }
]]></style>
<script type="text/javascript"><![CDATA[
var edges = document.getElementsByTagName('g');
if (edges && edges.length) {
  for (var i=0;i<edges.length;i++) {
    if (edges[i].id.substr(0,4)=='edge') {
      edges[i].setAttribute('class','edge');
    }
  }
}
]]></script>
        <defs>
                <circle id="rim" cx="0" cy="0" r="7"/>
                <circle id="rim2" cx="0" cy="0" r="3.5"/>
                <g id="zoomPlus">
                        <use xlink:href="#rim" fill="#404040">
                                <set attributeName="fill" to="#808080" begin="zoomplus.mouseover" end="zoomplus.mouseout"/>
                        </use>
                        <path d="M-4,0h8M0,-4v8" fill="none" stroke="white" stroke-width="1.5" pointer-events="none"/>
                </g>
                <g id="zoomMin">
                        <use xlink:href="#rim" fill="#404040">
                                <set attributeName="fill" to="#808080" begin="zoomminus.mouseover" end="zoomminus.mouseout"/>
                        </use>
                        <path d="M-4,0h8" fill="none" stroke="white" stroke-width="1.5" pointer-events="none"/>
                </g>
                <g id="dirArrow">
                        <path fill="none" stroke="white" stroke-width="1.5" d="M0,-3.0v7 M-2.5,-0.5L0,-3.0L2.5,-0.5"/>
                </g>
               <g id="resetDef">
                       <use xlink:href="#rim2" fill="#404040">
                               <set attributeName="fill" to="#808080" begin="reset.mouseover" end="reset.mouseout"/>
                       </use>
               </g>
        </defs>

<script type="text/javascript">
var viewWidth = 872;
var viewHeight = 308;
var sectionId = 'dynsection-0';
</script>
<script xlink:href="svgpan.js"/>
<svg id="graph" class="graph">
<g id="viewport">
<title>src/optimizer/optimizer.cpp</title>
<polygon fill="white" stroke="transparent" points="-4,4 -4,-304 868,-304 868,4 -4,4"/>
<!-- Node1 -->
<g id="node1" class="node">
<title>Node1</title>
<g id="a_node1"><a xlink:title=" ">
<polygon fill="#bfbfbf" stroke="black" points="563.5,-280.5 563.5,-299.5 712.5,-299.5 712.5,-280.5 563.5,-280.5"/>
<text text-anchor="middle" x="638" y="-287.5" font-family="Helvetica,sans-Serif" font-size="10.00">src/optimizer/optimizer.cpp</text>
</a>
</g>
</g>
<!-- Node2 -->
<g id="node2" class="node">
<title>Node2</title>
<g id="a_node2"><a xlink:href="optimizer_8hpp.html" target="_top" xlink:title=" ">
<polygon fill="white" stroke="black" points="278.5,-224.5 278.5,-243.5 411.5,-243.5 411.5,-224.5 278.5,-224.5"/>
<text text-anchor="middle" x="345" y="-231.5" font-family="Helvetica,sans-Serif" font-size="10.00">optimizer/optimizer.hpp</text>
</a>
</g>
</g>
<!-- Node1&#45;&gt;Node2 -->
<g id="edge1" class="edge">
<title>Node1&#45;&gt;Node2</title>
<path fill="none" stroke="midnightblue" d="M591.57,-280.44C539.92,-270.92 456.49,-255.55 401.19,-245.36"/>
<polygon fill="midnightblue" stroke="midnightblue" points="401.68,-241.89 391.21,-243.52 400.41,-248.77 401.68,-241.89"/>
</g>
<!-- Node3 -->
<g id="node3" class="node">
<title>Node3</title>
<g id="a_node3"><a xlink:title=" ">
<polygon fill="white" stroke="#bfbfbf" points="122.5,-0.5 122.5,-19.5 169.5,-19.5 169.5,-0.5 122.5,-0.5"/>
<text text-anchor="middle" x="146" y="-7.5" font-family="Helvetica,sans-Serif" font-size="10.00">vector</text>
</a>
</g>
</g>
<!-- Node1&#45;&gt;Node3 -->
<g id="edge28" class="edge">
<title>Node1&#45;&gt;Node3</title>
<path fill="none" stroke="midnightblue" d="M563.25,-283.84C394.78,-271.21 0,-235.59 0,-179 0,-179 0,-179 0,-121 0,-65.03 69.29,-33.97 112.4,-20.06"/>
<polygon fill="midnightblue" stroke="midnightblue" points="113.69,-23.33 122.22,-17.04 111.63,-16.64 113.69,-23.33"/>
</g>
<!-- Node7 -->
<g id="node7" class="node">
<title>Node7</title>
<g id="a_node7"><a xlink:href="exprtype_8hpp.html" target="_top" xlink:title=" ">
<polygon fill="white" stroke="black" points="532.5,-0.5 532.5,-19.5 659.5,-19.5 659.5,-0.5 532.5,-0.5"/>
<text text-anchor="middle" x="596" y="-7.5" font-family="Helvetica,sans-Serif" font-size="10.00">common/exprtype.hpp</text>
</a>
</g>
</g>
<!-- Node1&#45;&gt;Node7 -->
<g id="edge22" class="edge">
<title>Node1&#45;&gt;Node7</title>
<path fill="none" stroke="midnightblue" d="M638,-280.44C638,-261.94 638,-216.81 638,-179 638,-179 638,-179 638,-121 638,-86.41 619.65,-49.49 607.21,-28.43"/>
<polygon fill="midnightblue" stroke="midnightblue" points="610.06,-26.38 601.84,-19.69 604.09,-30.04 610.06,-26.38"/>
</g>
<!-- Node13 -->
<g id="node13" class="node">
<title>Node13</title>
<g id="a_node13"><a xlink:href="util_8hpp.html" target="_top" xlink:title=" ">
<polygon fill="white" stroke="black" points="66.5,-168.5 66.5,-187.5 169.5,-187.5 169.5,-168.5 66.5,-168.5"/>
<text text-anchor="middle" x="118" y="-175.5" font-family="Helvetica,sans-Serif" font-size="10.00">optimizer/util.hpp</text>
</a>
</g>
</g>
<!-- Node1&#45;&gt;Node13 -->
<g id="edge23" class="edge">
<title>Node1&#45;&gt;Node13</title>
<path fill="none" stroke="midnightblue" d="M563.16,-286.03C487.96,-281.62 369.29,-270.72 270,-244 223.44,-231.47 172.52,-207.39 143.03,-192.32"/>
<polygon fill="midnightblue" stroke="midnightblue" points="144.37,-189.07 133.88,-187.58 141.15,-195.29 144.37,-189.07"/>
</g>
<!-- Node14 -->
<g id="node14" class="node">
<title>Node14</title>
<g id="a_node14"><a xlink:title=" ">
<polygon fill="white" stroke="#bfbfbf" points="666,-224.5 666,-243.5 726,-243.5 726,-224.5 666,-224.5"/>
<text text-anchor="middle" x="696" y="-231.5" font-family="Helvetica,sans-Serif" font-size="10.00">iostream</text>
</a>
</g>
</g>
<!-- Node1&#45;&gt;Node14 -->
<g id="edge26" class="edge">
<title>Node1&#45;&gt;Node14</title>
<path fill="none" stroke="midnightblue" d="M647.32,-280.32C655.89,-272.34 668.81,-260.31 679.19,-250.65"/>
<polygon fill="midnightblue" stroke="midnightblue" points="681.58,-253.21 686.51,-243.83 676.81,-248.09 681.58,-253.21"/>
</g>
<!-- Node15 -->
<g id="node15" class="node">
<title>Node15</title>
<g id="a_node15"><a xlink:title=" ">
<polygon fill="white" stroke="#bfbfbf" points="744,-224.5 744,-243.5 808,-243.5 808,-224.5 744,-224.5"/>
<text text-anchor="middle" x="776" y="-231.5" font-family="Helvetica,sans-Serif" font-size="10.00">algorithm</text>
</a>
</g>
</g>
<!-- Node1&#45;&gt;Node15 -->
<g id="edge27" class="edge">
<title>Node1&#45;&gt;Node15</title>
<path fill="none" stroke="midnightblue" d="M659.87,-280.44C682.78,-271.48 718.98,-257.31 744.87,-247.18"/>
<polygon fill="midnightblue" stroke="midnightblue" points="746.2,-250.42 754.24,-243.52 743.65,-243.9 746.2,-250.42"/>
</g>
<!-- Node16 -->
<g id="node16" class="node">
<title>Node16</title>
<g id="a_node16"><a xlink:title=" ">
<polygon fill="white" stroke="#bfbfbf" points="826,-224.5 826,-243.5 864,-243.5 864,-224.5 826,-224.5"/>
<text text-anchor="middle" x="845" y="-231.5" font-family="Helvetica,sans-Serif" font-size="10.00">map</text>
</a>
</g>
</g>
<!-- Node1&#45;&gt;Node16 -->
<g id="edge29" class="edge">
<title>Node1&#45;&gt;Node16</title>
<path fill="none" stroke="midnightblue" d="M674.87,-280.47C709.13,-272.38 761.78,-259.53 815.99,-244.16"/>
<polygon fill="midnightblue" stroke="midnightblue" points="817.12,-247.48 825.77,-241.36 815.19,-240.75 817.12,-247.48"/>
</g>
<!-- Node2&#45;&gt;Node3 -->
<g id="edge2" class="edge">
<title>Node2&#45;&gt;Node3</title>
<path fill="none" stroke="midnightblue" d="M278.47,-232.23C202.45,-229.77 84.93,-220.63 57,-188 12.71,-136.25 90.19,-58.65 127.56,-26.16"/>
<polygon fill="midnightblue" stroke="midnightblue" points="129.93,-28.74 135.28,-19.59 125.39,-23.41 129.93,-28.74"/>
</g>
<!-- Node4 -->
<g id="node4" class="node">
<title>Node4</title>
<g id="a_node4"><a xlink:href="tables_8hpp.html" target="_top" xlink:title=" ">
<polygon fill="white" stroke="black" points="420.5,-56.5 420.5,-75.5 533.5,-75.5 533.5,-56.5 420.5,-56.5"/>
<text text-anchor="middle" x="477" y="-63.5" font-family="Helvetica,sans-Serif" font-size="10.00">common/tables.hpp</text>
</a>
</g>
</g>
<!-- Node2&#45;&gt;Node4 -->
<g id="edge3" class="edge">
<title>Node2&#45;&gt;Node4</title>
<path fill="none" stroke="midnightblue" d="M283.8,-224.45C259.88,-218.12 234.13,-207.13 217,-188 194.14,-162.47 181.83,-138.13 204,-112 229.92,-81.46 337.96,-71.61 410.1,-68.46"/>
<polygon fill="midnightblue" stroke="midnightblue" points="410.62,-71.94 420.47,-68.04 410.34,-64.95 410.62,-71.94"/>
</g>
<!-- Node8 -->
<g id="node8" class="node">
<title>Node8</title>
<g id="a_node8"><a xlink:href="poliz_8hpp.html" target="_top" xlink:title=" ">
<polygon fill="white" stroke="black" points="324.5,-112.5 324.5,-131.5 431.5,-131.5 431.5,-112.5 324.5,-112.5"/>
<text text-anchor="middle" x="378" y="-119.5" font-family="Helvetica,sans-Serif" font-size="10.00">common/poliz.hpp</text>
</a>
</g>
</g>
<!-- Node2&#45;&gt;Node8 -->
<g id="edge8" class="edge">
<title>Node2&#45;&gt;Node8</title>
<path fill="none" stroke="midnightblue" d="M352.79,-224.46C360.03,-215.93 370.37,-202.1 375,-188 379.9,-173.06 380.36,-155.14 379.76,-141.91"/>
<polygon fill="midnightblue" stroke="midnightblue" points="383.23,-141.41 379.04,-131.68 376.25,-141.9 383.23,-141.41"/>
</g>
<!-- Node9 -->
<g id="node9" class="node">
<title>Node9</title>
<g id="a_node9"><a xlink:href="controlflow_8hpp.html" target="_top" xlink:title=" ">
<polygon fill="white" stroke="black" points="226,-168.5 226,-187.5 366,-187.5 366,-168.5 226,-168.5"/>
<text text-anchor="middle" x="296" y="-175.5" font-family="Helvetica,sans-Serif" font-size="10.00">optimizer/controlflow.hpp</text>
</a>
</g>
</g>
<!-- Node2&#45;&gt;Node9 -->
<g id="edge11" class="edge">
<title>Node2&#45;&gt;Node9</title>
<path fill="none" stroke="midnightblue" d="M336.91,-224.08C329.84,-216.3 319.41,-204.8 310.85,-195.37"/>
<polygon fill="midnightblue" stroke="midnightblue" points="313.25,-192.8 303.94,-187.75 308.07,-197.51 313.25,-192.8"/>
</g>
<!-- Node11 -->
<g id="node11" class="node">
<title>Node11</title>
<g id="a_node11"><a xlink:href="acyclicgraph_8hpp.html" target="_top" xlink:title=" ">
<polygon fill="white" stroke="black" points="429.5,-168.5 429.5,-187.5 578.5,-187.5 578.5,-168.5 429.5,-168.5"/>
<text text-anchor="middle" x="504" y="-175.5" font-family="Helvetica,sans-Serif" font-size="10.00">optimizer/acyclicgraph.hpp</text>
</a>
</g>
</g>
<!-- Node2&#45;&gt;Node11 -->
<g id="edge16" class="edge">
<title>Node2&#45;&gt;Node11</title>
<path fill="none" stroke="midnightblue" d="M370.19,-224.44C396.94,-215.36 439.4,-200.94 469.31,-190.78"/>
<polygon fill="midnightblue" stroke="midnightblue" points="470.58,-194.05 478.92,-187.52 468.33,-187.42 470.58,-194.05"/>
</g>
<!-- Node4&#45;&gt;Node3 -->
<g id="edge6" class="edge">
<title>Node4&#45;&gt;Node3</title>
<path fill="none" stroke="midnightblue" d="M424.55,-56.44C355.91,-45.24 237.56,-25.94 179.75,-16.51"/>
<polygon fill="midnightblue" stroke="midnightblue" points="180.12,-13.02 169.69,-14.86 178.99,-19.93 180.12,-13.02"/>
</g>
<!-- Node5 -->
<g id="node5" class="node">
<title>Node5</title>
<g id="a_node5"><a xlink:title=" ">
<polygon fill="white" stroke="#bfbfbf" points="380.5,-0.5 380.5,-19.5 433.5,-19.5 433.5,-0.5 380.5,-0.5"/>
<text text-anchor="middle" x="407" y="-7.5" font-family="Helvetica,sans-Serif" font-size="10.00">cstddef</text>
</a>
</g>
</g>
<!-- Node4&#45;&gt;Node5 -->
<g id="edge4" class="edge">
<title>Node4&#45;&gt;Node5</title>
<path fill="none" stroke="midnightblue" d="M465.75,-56.32C455.2,-48.18 439.2,-35.84 426.56,-26.09"/>
<polygon fill="midnightblue" stroke="midnightblue" points="428.51,-23.17 418.45,-19.83 424.23,-28.71 428.51,-23.17"/>
</g>
<!-- Node6 -->
<g id="node6" class="node">
<title>Node6</title>
<g id="a_node6"><a xlink:title=" ">
<polygon fill="white" stroke="#bfbfbf" points="451.5,-0.5 451.5,-19.5 508.5,-19.5 508.5,-0.5 451.5,-0.5"/>
<text text-anchor="middle" x="480" y="-7.5" font-family="Helvetica,sans-Serif" font-size="10.00">ostream</text>
</a>
</g>
</g>
<!-- Node4&#45;&gt;Node6 -->
<g id="edge5" class="edge">
<title>Node4&#45;&gt;Node6</title>
<path fill="none" stroke="midnightblue" d="M477.5,-56.08C477.89,-49.01 478.45,-38.86 478.95,-29.99"/>
<polygon fill="midnightblue" stroke="midnightblue" points="482.45,-29.93 479.51,-19.75 475.46,-29.54 482.45,-29.93"/>
</g>
<!-- Node4&#45;&gt;Node7 -->
<g id="edge7" class="edge">
<title>Node4&#45;&gt;Node7</title>
<path fill="none" stroke="midnightblue" d="M495.86,-56.44C515.27,-47.64 545.73,-33.81 567.96,-23.72"/>
<polygon fill="midnightblue" stroke="midnightblue" points="569.57,-26.84 577.23,-19.52 566.68,-20.46 569.57,-26.84"/>
</g>
<!-- Node8&#45;&gt;Node4 -->
<g id="edge9" class="edge">
<title>Node8&#45;&gt;Node4</title>
<path fill="none" stroke="midnightblue" d="M393.91,-112.32C409.64,-103.74 433.94,-90.49 452.21,-80.52"/>
<polygon fill="midnightblue" stroke="midnightblue" points="454.03,-83.52 461.13,-75.65 450.68,-77.37 454.03,-83.52"/>
</g>
<!-- Node8&#45;&gt;Node7 -->
<g id="edge10" class="edge">
<title>Node8&#45;&gt;Node7</title>
<path fill="none" stroke="midnightblue" d="M431.6,-114.92C465.67,-109.08 509.52,-97.77 543,-76 561.63,-63.89 576.88,-43.13 586.16,-28.32"/>
<polygon fill="midnightblue" stroke="midnightblue" points="589.24,-29.99 591.37,-19.61 583.23,-26.4 589.24,-29.99"/>
</g>
<!-- Node9&#45;&gt;Node3 -->
<g id="edge12" class="edge">
<title>Node9&#45;&gt;Node3</title>
<path fill="none" stroke="midnightblue" d="M266.82,-168.39C247.03,-161.3 221.41,-149.55 204,-132 174.71,-102.48 158.07,-55.3 150.68,-29.44"/>
<polygon fill="midnightblue" stroke="midnightblue" points="154.05,-28.51 148.06,-19.77 147.29,-30.34 154.05,-28.51"/>
</g>
<!-- Node9&#45;&gt;Node4 -->
<g id="edge14" class="edge">
<title>Node9&#45;&gt;Node4</title>
<path fill="none" stroke="midnightblue" d="M296.16,-168.07C296.92,-154.11 300.44,-127.16 316,-112 340.95,-87.69 377.89,-76.29 410.09,-71.03"/>
<polygon fill="midnightblue" stroke="midnightblue" points="410.97,-74.44 420.36,-69.53 409.96,-67.51 410.97,-74.44"/>
</g>
<!-- Node9&#45;&gt;Node8 -->
<g id="edge15" class="edge">
<title>Node9&#45;&gt;Node8</title>
<path fill="none" stroke="midnightblue" d="M309.17,-168.32C321.85,-159.98 341.23,-147.21 356.21,-137.35"/>
<polygon fill="midnightblue" stroke="midnightblue" points="358.43,-140.08 364.86,-131.65 354.58,-134.23 358.43,-140.08"/>
</g>
<!-- Node10 -->
<g id="node10" class="node">
<title>Node10</title>
<g id="a_node10"><a xlink:title=" ">
<polygon fill="white" stroke="#bfbfbf" points="212.5,-112.5 212.5,-131.5 267.5,-131.5 267.5,-112.5 212.5,-112.5"/>
<text text-anchor="middle" x="240" y="-119.5" font-family="Helvetica,sans-Serif" font-size="10.00">fstream</text>
</a>
</g>
</g>
<!-- Node9&#45;&gt;Node10 -->
<g id="edge13" class="edge">
<title>Node9&#45;&gt;Node10</title>
<path fill="none" stroke="midnightblue" d="M287,-168.32C278.81,-160.42 266.49,-148.55 256.53,-138.94"/>
<polygon fill="midnightblue" stroke="midnightblue" points="258.79,-136.26 249.16,-131.83 253.93,-141.29 258.79,-136.26"/>
</g>
<!-- Node11&#45;&gt;Node3 -->
<g id="edge17" class="edge">
<title>Node11&#45;&gt;Node3</title>
<path fill="none" stroke="midnightblue" d="M497.65,-168.14C487.28,-154.29 465.42,-127.49 441,-112 355.37,-57.66 237.09,-28.77 179.8,-17.17"/>
<polygon fill="midnightblue" stroke="midnightblue" points="180.32,-13.71 169.83,-15.21 178.97,-20.58 180.32,-13.71"/>
</g>
<!-- Node11&#45;&gt;Node4 -->
<g id="edge20" class="edge">
<title>Node11&#45;&gt;Node4</title>
<path fill="none" stroke="midnightblue" d="M515.7,-168.34C530.82,-156.05 553.95,-132.71 543,-112 535.58,-97.95 521.58,-87.47 508.38,-80.17"/>
<polygon fill="midnightblue" stroke="midnightblue" points="509.96,-77.04 499.46,-75.62 506.78,-83.28 509.96,-77.04"/>
</g>
<!-- Node11&#45;&gt;Node7 -->
<g id="edge19" class="edge">
<title>Node11&#45;&gt;Node7</title>
<path fill="none" stroke="midnightblue" d="M518.38,-168.38C530.58,-160.39 547.68,-147.41 558,-132 579.57,-99.8 589.44,-54.67 593.51,-29.61"/>
<polygon fill="midnightblue" stroke="midnightblue" points="596.98,-30.04 594.99,-19.64 590.06,-29.01 596.98,-30.04"/>
</g>
<!-- Node11&#45;&gt;Node8 -->
<g id="edge21" class="edge">
<title>Node11&#45;&gt;Node8</title>
<path fill="none" stroke="midnightblue" d="M484.03,-168.44C463.39,-159.6 430.94,-145.69 407.37,-135.59"/>
<polygon fill="midnightblue" stroke="midnightblue" points="408.44,-132.24 397.87,-131.52 405.68,-138.67 408.44,-132.24"/>
</g>
<!-- Node12 -->
<g id="node12" class="node">
<title>Node12</title>
<g id="a_node12"><a xlink:title=" ">
<polygon fill="white" stroke="#bfbfbf" points="488.5,-112.5 488.5,-131.5 533.5,-131.5 533.5,-112.5 488.5,-112.5"/>
<text text-anchor="middle" x="511" y="-119.5" font-family="Helvetica,sans-Serif" font-size="10.00">utility</text>
</a>
</g>
</g>
<!-- Node11&#45;&gt;Node12 -->
<g id="edge18" class="edge">
<title>Node11&#45;&gt;Node12</title>
<path fill="none" stroke="midnightblue" d="M505.16,-168.08C506.08,-160.93 507.42,-150.64 508.58,-141.69"/>
<polygon fill="midnightblue" stroke="midnightblue" points="512.05,-142.12 509.87,-131.75 505.11,-141.22 512.05,-142.12"/>
</g>
<!-- Node13&#45;&gt;Node3 -->
<g id="edge24" class="edge">
<title>Node13&#45;&gt;Node3</title>
<path fill="none" stroke="midnightblue" d="M119.51,-168.08C123.91,-141.95 136.86,-65.21 142.87,-29.58"/>
<polygon fill="midnightblue" stroke="midnightblue" points="146.34,-30.01 144.55,-19.57 139.44,-28.85 146.34,-30.01"/>
</g>
<!-- Node13&#45;&gt;Node8 -->
<g id="edge25" class="edge">
<title>Node13&#45;&gt;Node8</title>
<path fill="none" stroke="midnightblue" d="M159.2,-168.44C204.65,-159 277.84,-143.8 326.91,-133.61"/>
<polygon fill="midnightblue" stroke="midnightblue" points="327.92,-136.98 336.99,-131.52 326.49,-130.12 327.92,-136.98"/>
</g>
</g>
</svg>
        <g id="navigator" transform="translate(0 0)" fill="#404254">
                <rect fill="#f2f5e9" fill-opacity="0.5" stroke="#606060" stroke-width=".5" x="0" y="0" width="60" height="60"/>
                <use id="zoomplus" xlink:href="#zoomPlus" x="17" y="9" onmousedown="handleZoom(evt,'in')"/>
                <use id="zoomminus" xlink:href="#zoomMin" x="42" y="9" onmousedown="handleZoom(evt,'out')"/>
                <use id="reset" xlink:href="#resetDef" x="30" y="36" onmousedown="handleReset()"/>
                <g id="arrowUp" xlink:href="#dirArrow" transform="translate(30 24)" onmousedown="handlePan(0,-1)">
                  <use xlink:href="#rim" fill="#404040">
                        <set attributeName="fill" to="#808080" begin="arrowUp.mouseover" end="arrowUp.mouseout"/>
                  </use>
                  <path fill="none" stroke="white" stroke-width="1.5" d="M0,-3.0v7 M-2.5,-0.5L0,-3.0L2.5,-0.5"/>
                </g>
                <g id="arrowRight" xlink:href="#dirArrow" transform="rotate(90) translate(36 -43)" onmousedown="handlePan(1,0)">
                  <use xlink:href="#rim" fill="#404040">
                        <set attributeName="fill" to="#808080" begin="arrowRight.mouseover" end="arrowRight.mouseout"/>
                  </use>
                  <path fill="none" stroke="white" stroke-width="1.5" d="M0,-3.0v7 M-2.5,-0.5L0,-3.0L2.5,-0.5"/>
                </g>
                <g id="arrowDown" xlink:href="#dirArrow" transform="rotate(180) translate(-30 -48)" onmousedown="handlePan(0,1)">
                  <use xlink:href="#rim" fill="#404040">
                        <set attributeName="fill" to="#808080" begin="arrowDown.mouseover" end="arrowDown.mouseout"/>
                  </use>
                  <path fill="none" stroke="white" stroke-width="1.5" d="M0,-3.0v7 M-2.5,-0.5L0,-3.0L2.5,-0.5"/>
                </g>
                <g id="arrowLeft" xlink:href="#dirArrow" transform="rotate(270) translate(-36 17)" onmousedown="handlePan(-1,0)">
                  <use xlink:href="#rim" fill="#404040">
                        <set attributeName="fill" to="#808080" begin="arrowLeft.mouseover" end="arrowLeft.mouseout"/>
                  </use>
                  <path fill="none" stroke="white" stroke-width="1.5" d="M0,-3.0v7 M-2.5,-0.5L0,-3.0L2.5,-0.5"/>
                </g>
        </g>
        <svg viewBox="0 0 15 15" width="100%" height="30px" preserveAspectRatio="xMaxYMin meet">
         <g id="arrow_out" transform="scale(0.3 0.3)">
          <a xlink:href="optimizer_8cpp__incl_org.svg" target="_base">
           <rect id="button" ry="5" rx="5" y="6" x="6" height="38" width="38"
                fill="#f2f5e9" fill-opacity="0.5" stroke="#606060" stroke-width="1.0"/>
           <path id="arrow"
             d="M 11.500037,31.436501 C 11.940474,20.09759 22.043105,11.32322 32.158766,21.979434 L 37.068811,17.246167 C 37.068811,17.246167 37.088388,32 37.088388,32 L 22.160133,31.978069 C 22.160133,31.978069 26.997745,27.140456 26.997745,27.140456 C 18.528582,18.264221 13.291696,25.230495 11.500037,31.436501 z"
             style="fill:#404040;"/>
          </a>
         </g>
        </svg>
</svg>
