<?xml version="1.0" encoding="UTF-8" standalone="no"?>
<!DOCTYPE svg PUBLIC "-//W3C//DTD SVG 1.1//EN"
 "http://www.w3.org/Graphics/SVG/1.1/DTD/svg11.dtd">
<!-- Generated by graphviz version 2.43.0 (0)
 -->
<!-- Title: src/optimizer/optimizer.hpp Pages: 1 -->
<svg width="548pt" height="252pt"
 viewBox="0.00 0.00 548.48 252.00" xmlns="http://www.w3.org/2000/svg" xmlns:xlink="http://www.w3.org/1999/xlink">
<g id="graph0" class="graph" transform="scale(1 1) rotate(0) translate(4 248)">
<title>src/optimizer/optimizer.hpp</title>
<polygon fill="white" stroke="transparent" points="-4,4 -4,-248 544.48,-248 544.48,4 -4,4"/>
<!-- Node1 -->
<g id="node1" class="node">
<title>Node1</title>
<g id="a_node1"><a xlink:title=" ">
<polygon fill="#bfbfbf" stroke="black" points="144.48,-224.5 144.48,-243.5 295.48,-243.5 295.48,-224.5 144.48,-224.5"/>
<text text-anchor="middle" x="219.98" y="-231.5" font-family="Helvetica,sans-Serif" font-size="10.00">src/optimizer/optimizer.hpp</text>
</a>
</g>
</g>
<!-- Node2 -->
<g id="node2" class="node">
<title>Node2</title>
<g id="a_node2"><a xlink:title=" ">
<polygon fill="white" stroke="#bfbfbf" points="137.48,-0.5 137.48,-19.5 184.48,-19.5 184.48,-0.5 137.48,-0.5"/>
<text text-anchor="middle" x="160.98" y="-7.5" font-family="Helvetica,sans-Serif" font-size="10.00">vector</text>
</a>
</g>
</g>
<!-- Node1&#45;&gt;Node2 -->
<g id="edge1" class="edge">
<title>Node1&#45;&gt;Node2</title>
<path fill="none" stroke="midnightblue" d="M144.38,-226.31C110.37,-220.35 71.18,-209.12 40.98,-188 16.34,-170.76 11.82,-160.75 2.98,-132 -15.85,-70.69 75.7,-34.68 127.46,-19.51"/>
<polygon fill="midnightblue" stroke="midnightblue" points="128.56,-22.83 137.23,-16.75 126.66,-16.09 128.56,-22.83"/>
</g>
<!-- Node3 -->
<g id="node3" class="node">
<title>Node3</title>
<g id="a_node3"><a xlink:href="tables_8hpp.html" target="_top" xlink:title=" ">
<polygon fill="white" stroke="black" points="310.48,-56.5 310.48,-75.5 423.48,-75.5 423.48,-56.5 310.48,-56.5"/>
<text text-anchor="middle" x="366.98" y="-63.5" font-family="Helvetica,sans-Serif" font-size="10.00">common/tables.hpp</text>
</a>
</g>
</g>
<!-- Node1&#45;&gt;Node3 -->
<g id="edge2" class="edge">
<title>Node1&#45;&gt;Node3</title>
<path fill="none" stroke="midnightblue" d="M295.5,-224.73C343.12,-217.84 398.46,-206.17 413.98,-188 435.96,-162.28 431.9,-142.83 417.98,-112 412.37,-99.56 401.42,-89.17 391.11,-81.53"/>
<polygon fill="midnightblue" stroke="midnightblue" points="392.94,-78.54 382.72,-75.76 388.98,-84.31 392.94,-78.54"/>
</g>
<!-- Node7 -->
<g id="node7" class="node">
<title>Node7</title>
<g id="a_node7"><a xlink:href="poliz_8hpp.html" target="_top" xlink:title=" ">
<polygon fill="white" stroke="black" points="162.48,-112.5 162.48,-131.5 269.48,-131.5 269.48,-112.5 162.48,-112.5"/>
<text text-anchor="middle" x="215.98" y="-119.5" font-family="Helvetica,sans-Serif" font-size="10.00">common/poliz.hpp</text>
</a>
</g>
</g>
<!-- Node1&#45;&gt;Node7 -->
<g id="edge7" class="edge">
<title>Node1&#45;&gt;Node7</title>
<path fill="none" stroke="midnightblue" d="M219.67,-224.37C219.02,-206.62 217.54,-165.67 216.66,-141.6"/>
<polygon fill="midnightblue" stroke="midnightblue" points="220.16,-141.46 216.3,-131.59 213.16,-141.71 220.16,-141.46"/>
</g>
<!-- Node9 -->
<g id="node9" class="node">
<title>Node9</title>
<g id="a_node9"><a xlink:href="controlflow_8hpp.html" target="_top" xlink:title=" ">
<polygon fill="white" stroke="black" points="50.48,-168.5 50.48,-187.5 191.48,-187.5 191.48,-168.5 50.48,-168.5"/>
<text text-anchor="middle" x="120.98" y="-175.5" font-family="Helvetica,sans-Serif" font-size="10.00">optimizer/controlflow.hpp</text>
</a>
</g>
</g>
<!-- Node1&#45;&gt;Node9 -->
<g id="edge11" class="edge">
<title>Node1&#45;&gt;Node9</title>
<path fill="none" stroke="midnightblue" d="M204.08,-224.32C188.35,-215.74 164.04,-202.49 145.78,-192.52"/>
<polygon fill="midnightblue" stroke="midnightblue" points="147.31,-189.37 136.85,-187.65 143.95,-195.52 147.31,-189.37"/>
</g>
<!-- Node11 -->
<g id="node11" class="node">
<title>Node11</title>
<g id="a_node11"><a xlink:href="acyclicgraph_8hpp.html" target="_top" xlink:title=" ">
<polygon fill="white" stroke="black" points="256.48,-168.5 256.48,-187.5 405.48,-187.5 405.48,-168.5 256.48,-168.5"/>
<text text-anchor="middle" x="330.98" y="-175.5" font-family="Helvetica,sans-Serif" font-size="10.00">optimizer/acyclicgraph.hpp</text>
</a>
</g>
</g>
<!-- Node1&#45;&gt;Node11 -->
<g id="edge16" class="edge">
<title>Node1&#45;&gt;Node11</title>
<path fill="none" stroke="midnightblue" d="M237.82,-224.32C255.7,-215.62 283.46,-202.12 304.03,-192.11"/>
<polygon fill="midnightblue" stroke="midnightblue" points="305.73,-195.18 313.19,-187.65 302.67,-188.88 305.73,-195.18"/>
</g>
<!-- Node3&#45;&gt;Node2 -->
<g id="edge5" class="edge">
<title>Node3&#45;&gt;Node2</title>
<path fill="none" stroke="midnightblue" d="M334.34,-56.44C296.02,-46.4 232.8,-29.83 194.22,-19.71"/>
<polygon fill="midnightblue" stroke="midnightblue" points="195.06,-16.32 184.5,-17.16 193.29,-23.09 195.06,-16.32"/>
</g>
<!-- Node4 -->
<g id="node4" class="node">
<title>Node4</title>
<g id="a_node4"><a xlink:title=" ">
<polygon fill="white" stroke="#bfbfbf" points="267.48,-0.5 267.48,-19.5 320.48,-19.5 320.48,-0.5 267.48,-0.5"/>
<text text-anchor="middle" x="293.98" y="-7.5" font-family="Helvetica,sans-Serif" font-size="10.00">cstddef</text>
</a>
</g>
</g>
<!-- Node3&#45;&gt;Node4 -->
<g id="edge3" class="edge">
<title>Node3&#45;&gt;Node4</title>
<path fill="none" stroke="midnightblue" d="M355.26,-56.32C344.15,-48.11 327.24,-35.6 314,-25.81"/>
<polygon fill="midnightblue" stroke="midnightblue" points="316.05,-22.97 305.93,-19.83 311.88,-28.59 316.05,-22.97"/>
</g>
<!-- Node5 -->
<g id="node5" class="node">
<title>Node5</title>
<g id="a_node5"><a xlink:title=" ">
<polygon fill="white" stroke="#bfbfbf" points="338.48,-0.5 338.48,-19.5 395.48,-19.5 395.48,-0.5 338.48,-0.5"/>
<text text-anchor="middle" x="366.98" y="-7.5" font-family="Helvetica,sans-Serif" font-size="10.00">ostream</text>
</a>
</g>
</g>
<!-- Node3&#45;&gt;Node5 -->
<g id="edge4" class="edge">
<title>Node3&#45;&gt;Node5</title>
<path fill="none" stroke="midnightblue" d="M366.98,-56.08C366.98,-49.01 366.98,-38.86 366.98,-29.99"/>
<polygon fill="midnightblue" stroke="midnightblue" points="370.48,-29.75 366.98,-19.75 363.48,-29.75 370.48,-29.75"/>
</g>
<!-- Node6 -->
<g id="node6" class="node">
<title>Node6</title>
<g id="a_node6"><a xlink:href="exprtype_8hpp.html" target="_top" xlink:title=" ">
<polygon fill="white" stroke="black" points="413.48,-0.5 413.48,-19.5 540.48,-19.5 540.48,-0.5 413.48,-0.5"/>
<text text-anchor="middle" x="476.98" y="-7.5" font-family="Helvetica,sans-Serif" font-size="10.00">common/exprtype.hpp</text>
</a>
</g>
</g>
<!-- Node3&#45;&gt;Node6 -->
<g id="edge6" class="edge">
<title>Node3&#45;&gt;Node6</title>
<path fill="none" stroke="midnightblue" d="M384.66,-56.32C402.38,-47.62 429.89,-34.12 450.27,-24.11"/>
<polygon fill="midnightblue" stroke="midnightblue" points="451.92,-27.2 459.35,-19.65 448.84,-20.92 451.92,-27.2"/>
</g>
<!-- Node7&#45;&gt;Node3 -->
<g id="edge8" class="edge">
<title>Node7&#45;&gt;Node3</title>
<path fill="none" stroke="midnightblue" d="M239.91,-112.44C265.2,-103.4 305.29,-89.06 333.66,-78.92"/>
<polygon fill="midnightblue" stroke="midnightblue" points="334.93,-82.18 343.17,-75.52 332.58,-75.59 334.93,-82.18"/>
</g>
<!-- Node7&#45;&gt;Node6 -->
<g id="edge9" class="edge">
<title>Node7&#45;&gt;Node6</title>
<path fill="none" stroke="midnightblue" d="M269.94,-120.68C316.4,-118 383.45,-108.17 431.98,-76 449.27,-64.54 461.83,-43.96 469.22,-29.02"/>
<polygon fill="midnightblue" stroke="midnightblue" points="472.48,-30.3 473.5,-19.76 466.13,-27.37 472.48,-30.3"/>
</g>
<!-- Node8 -->
<g id="node8" class="node">
<title>Node8</title>
<g id="a_node8"><a xlink:href="cppcheck_8hpp.html" target="_top" xlink:title=" ">
<polygon fill="white" stroke="black" points="124.48,-56.5 124.48,-75.5 253.48,-75.5 253.48,-56.5 124.48,-56.5"/>
<text text-anchor="middle" x="188.98" y="-63.5" font-family="Helvetica,sans-Serif" font-size="10.00">common/cppcheck.hpp</text>
</a>
</g>
</g>
<!-- Node7&#45;&gt;Node8 -->
<g id="edge10" class="edge">
<title>Node7&#45;&gt;Node8</title>
<path fill="none" stroke="midnightblue" d="M211.53,-112.08C207.83,-104.69 202.46,-93.95 197.89,-84.81"/>
<polygon fill="midnightblue" stroke="midnightblue" points="200.96,-83.13 193.36,-75.75 194.7,-86.26 200.96,-83.13"/>
</g>
<!-- Node9&#45;&gt;Node2 -->
<g id="edge12" class="edge">
<title>Node9&#45;&gt;Node2</title>
<path fill="none" stroke="midnightblue" d="M118.1,-168.35C111.77,-147.86 98.51,-95.16 114.98,-56 120.01,-44.05 129.93,-33.69 139.27,-25.93"/>
<polygon fill="midnightblue" stroke="midnightblue" points="141.42,-28.69 147.2,-19.81 137.14,-23.15 141.42,-28.69"/>
</g>
<!-- Node9&#45;&gt;Node3 -->
<g id="edge14" class="edge">
<title>Node9&#45;&gt;Node3</title>
<path fill="none" stroke="midnightblue" d="M122.71,-168.3C125.99,-154.16 134.51,-126.35 152.98,-112 175.66,-94.39 246.24,-81.88 300.21,-74.59"/>
<polygon fill="midnightblue" stroke="midnightblue" points="300.96,-78.02 310.42,-73.25 300.05,-71.08 300.96,-78.02"/>
</g>
<!-- Node9&#45;&gt;Node7 -->
<g id="edge15" class="edge">
<title>Node9&#45;&gt;Node7</title>
<path fill="none" stroke="midnightblue" d="M136.25,-168.32C151.21,-159.82 174.24,-146.73 191.71,-136.8"/>
<polygon fill="midnightblue" stroke="midnightblue" points="193.79,-139.64 200.76,-131.65 190.34,-133.55 193.79,-139.64"/>
</g>
<!-- Node10 -->
<g id="node10" class="node">
<title>Node10</title>
<g id="a_node10"><a xlink:title=" ">
<polygon fill="white" stroke="#bfbfbf" points="12.48,-112.5 12.48,-131.5 67.48,-131.5 67.48,-112.5 12.48,-112.5"/>
<text text-anchor="middle" x="39.98" y="-119.5" font-family="Helvetica,sans-Serif" font-size="10.00">fstream</text>
</a>
</g>
</g>
<!-- Node9&#45;&gt;Node10 -->
<g id="edge13" class="edge">
<title>Node9&#45;&gt;Node10</title>
<path fill="none" stroke="midnightblue" d="M107.97,-168.32C95.45,-159.98 76.3,-147.21 61.51,-137.35"/>
<polygon fill="midnightblue" stroke="midnightblue" points="63.23,-134.29 52.97,-131.65 59.35,-140.11 63.23,-134.29"/>
</g>
<!-- Node11&#45;&gt;Node2 -->
<g id="edge17" class="edge">
<title>Node11&#45;&gt;Node2</title>
<path fill="none" stroke="midnightblue" d="M328.24,-168.47C320.87,-146.85 298.73,-89.27 261.98,-56 242.7,-38.54 215.52,-26.95 194.22,-19.91"/>
<polygon fill="midnightblue" stroke="midnightblue" points="195.18,-16.55 184.59,-16.91 193.09,-23.23 195.18,-16.55"/>
</g>
<!-- Node11&#45;&gt;Node3 -->
<g id="edge20" class="edge">
<title>Node11&#45;&gt;Node3</title>
<path fill="none" stroke="midnightblue" d="M333.81,-168.37C339.65,-150.54 353.14,-109.3 361,-85.27"/>
<polygon fill="midnightblue" stroke="midnightblue" points="364.39,-86.18 364.17,-75.59 357.74,-84.01 364.39,-86.18"/>
</g>
<!-- Node11&#45;&gt;Node6 -->
<g id="edge19" class="edge">
<title>Node11&#45;&gt;Node6</title>
<path fill="none" stroke="midnightblue" d="M354.7,-168.5C373.38,-160.97 399.29,-148.59 417.98,-132 449.34,-104.17 465.72,-55.93 472.72,-29.55"/>
<polygon fill="midnightblue" stroke="midnightblue" points="476.15,-30.25 475.16,-19.71 469.35,-28.57 476.15,-30.25"/>
</g>
<!-- Node11&#45;&gt;Node7 -->
<g id="edge21" class="edge">
<title>Node11&#45;&gt;Node7</title>
<path fill="none" stroke="midnightblue" d="M312.76,-168.44C294.09,-159.68 264.83,-145.94 243.37,-135.86"/>
<polygon fill="midnightblue" stroke="midnightblue" points="244.66,-132.6 234.12,-131.52 241.69,-138.93 244.66,-132.6"/>
</g>
<!-- Node12 -->
<g id="node12" class="node">
<title>Node12</title>
<g id="a_node12"><a xlink:title=" ">
<polygon fill="white" stroke="#bfbfbf" points="364.48,-112.5 364.48,-131.5 409.48,-131.5 409.48,-112.5 364.48,-112.5"/>
<text text-anchor="middle" x="386.98" y="-119.5" font-family="Helvetica,sans-Serif" font-size="10.00">utility</text>
</a>
</g>
</g>
<!-- Node11&#45;&gt;Node12 -->
<g id="edge18" class="edge">
<title>Node11&#45;&gt;Node12</title>
<path fill="none" stroke="midnightblue" d="M339.98,-168.32C348.18,-160.42 360.49,-148.55 370.46,-138.94"/>
<polygon fill="midnightblue" stroke="midnightblue" points="373.05,-141.29 377.82,-131.83 368.2,-136.26 373.05,-141.29"/>
</g>
</g>
</svg>
