<?xml version="1.0" encoding="UTF-8" standalone="no"?>
<!DOCTYPE svg PUBLIC "-//W3C//DTD SVG 1.1//EN"
 "http://www.w3.org/Graphics/SVG/1.1/DTD/svg11.dtd">
<!-- Generated by graphviz version 2.43.0 (0)
 -->
<!-- Title: src/compiler/parser.cpp Pages: 1 -->
<svg width="1147pt" height="364pt"
 viewBox="0.00 0.00 1147.07 364.00" xmlns="http://www.w3.org/2000/svg" xmlns:xlink="http://www.w3.org/1999/xlink">
<g id="graph0" class="graph" transform="scale(1 1) rotate(0) translate(4 360)">
<title>src/compiler/parser.cpp</title>
<polygon fill="white" stroke="transparent" points="-4,4 -4,-360 1143.07,-360 1143.07,4 -4,4"/>
<!-- Node1 -->
<g id="node1" class="node">
<title>Node1</title>
<g id="a_node1"><a xlink:title=" ">
<polygon fill="#bfbfbf" stroke="black" points="747.64,-336.5 747.64,-355.5 878.64,-355.5 878.64,-336.5 747.64,-336.5"/>
<text text-anchor="middle" x="813.14" y="-343.5" font-family="Helvetica,sans-Serif" font-size="10.00">src/compiler/parser.cpp</text>
</a>
</g>
</g>
<!-- Node2 -->
<g id="node2" class="node">
<title>Node2</title>
<g id="a_node2"><a xlink:title=" ">
<polygon fill="white" stroke="#bfbfbf" points="830.14,-168.5 830.14,-187.5 890.14,-187.5 890.14,-168.5 830.14,-168.5"/>
<text text-anchor="middle" x="860.14" y="-175.5" font-family="Helvetica,sans-Serif" font-size="10.00">iostream</text>
</a>
</g>
</g>
<!-- Node1&#45;&gt;Node2 -->
<g id="edge1" class="edge">
<title>Node1&#45;&gt;Node2</title>
<path fill="none" stroke="midnightblue" d="M822.37,-336.33C830.67,-327.91 842.41,-314.34 848.14,-300 861.79,-265.81 862.41,-222.06 861.42,-197.63"/>
<polygon fill="midnightblue" stroke="midnightblue" points="864.91,-197.39 860.88,-187.59 857.92,-197.77 864.91,-197.39"/>
</g>
<!-- Node3 -->
<g id="node3" class="node">
<title>Node3</title>
<g id="a_node3"><a xlink:title=" ">
<polygon fill="white" stroke="#bfbfbf" points="29.14,-280.5 29.14,-299.5 79.14,-299.5 79.14,-280.5 29.14,-280.5"/>
<text text-anchor="middle" x="54.14" y="-287.5" font-family="Helvetica,sans-Serif" font-size="10.00">cstring</text>
</a>
</g>
</g>
<!-- Node1&#45;&gt;Node3 -->
<g id="edge2" class="edge">
<title>Node1&#45;&gt;Node3</title>
<path fill="none" stroke="midnightblue" d="M747.25,-344.49C620.1,-342.72 332.34,-334.83 93.14,-300 91.86,-299.81 90.57,-299.61 89.26,-299.39"/>
<polygon fill="midnightblue" stroke="midnightblue" points="89.69,-295.9 79.2,-297.42 88.35,-302.77 89.69,-295.9"/>
</g>
<!-- Node4 -->
<g id="node4" class="node">
<title>Node4</title>
<g id="a_node4"><a xlink:title=" ">
<polygon fill="white" stroke="#bfbfbf" points="88.64,-112.5 88.64,-131.5 133.64,-131.5 133.64,-112.5 88.64,-112.5"/>
<text text-anchor="middle" x="111.14" y="-119.5" font-family="Helvetica,sans-Serif" font-size="10.00">utility</text>
</a>
</g>
</g>
<!-- Node1&#45;&gt;Node4 -->
<g id="edge3" class="edge">
<title>Node1&#45;&gt;Node4</title>
<path fill="none" stroke="midnightblue" d="M747.48,-342.2C602.78,-334.86 262.09,-310.77 171.14,-244 136.92,-218.88 121.09,-168.77 114.76,-141.58"/>
<polygon fill="midnightblue" stroke="midnightblue" points="118.17,-140.82 112.66,-131.77 111.33,-142.28 118.17,-140.82"/>
</g>
<!-- Node5 -->
<g id="node5" class="node">
<title>Node5</title>
<g id="a_node5"><a xlink:title=" ">
<polygon fill="white" stroke="#bfbfbf" points="656.64,-0.5 656.64,-19.5 703.64,-19.5 703.64,-0.5 656.64,-0.5"/>
<text text-anchor="middle" x="680.14" y="-7.5" font-family="Helvetica,sans-Serif" font-size="10.00">vector</text>
</a>
</g>
</g>
<!-- Node1&#45;&gt;Node5 -->
<g id="edge4" class="edge">
<title>Node1&#45;&gt;Node5</title>
<path fill="none" stroke="midnightblue" d="M878.76,-343.45C957.78,-340.24 1084.26,-330.36 1119.14,-300 1141.84,-280.24 1138.14,-265.1 1138.14,-235 1138.14,-235 1138.14,-235 1138.14,-121 1138.14,-33.74 819.83,-15.52 713.94,-11.87"/>
<polygon fill="midnightblue" stroke="midnightblue" points="713.91,-8.37 703.8,-11.55 713.68,-15.37 713.91,-8.37"/>
</g>
<!-- Node6 -->
<g id="node6" class="node">
<title>Node6</title>
<g id="a_node6"><a xlink:title=" ">
<polygon fill="white" stroke="#bfbfbf" points="787.14,-280.5 787.14,-299.5 839.14,-299.5 839.14,-280.5 787.14,-280.5"/>
<text text-anchor="middle" x="813.14" y="-287.5" font-family="Helvetica,sans-Serif" font-size="10.00">cassert</text>
</a>
</g>
</g>
<!-- Node1&#45;&gt;Node6 -->
<g id="edge5" class="edge">
<title>Node1&#45;&gt;Node6</title>
<path fill="none" stroke="midnightblue" d="M813.14,-336.08C813.14,-329.01 813.14,-318.86 813.14,-309.99"/>
<polygon fill="midnightblue" stroke="midnightblue" points="816.64,-309.75 813.14,-299.75 809.64,-309.75 816.64,-309.75"/>
</g>
<!-- Node7 -->
<g id="node7" class="node">
<title>Node7</title>
<g id="a_node7"><a xlink:href="exprtype_8hpp.html" target="_top" xlink:title=" ">
<polygon fill="white" stroke="black" points="117.64,-0.5 117.64,-19.5 244.64,-19.5 244.64,-0.5 117.64,-0.5"/>
<text text-anchor="middle" x="181.14" y="-7.5" font-family="Helvetica,sans-Serif" font-size="10.00">common/exprtype.hpp</text>
</a>
</g>
</g>
<!-- Node1&#45;&gt;Node7 -->
<g id="edge6" class="edge">
<title>Node1&#45;&gt;Node7</title>
<path fill="none" stroke="midnightblue" d="M747.5,-345.54C567.63,-346.45 76.44,-344.75 20.14,-300 -3.42,-281.27 1.14,-265.1 1.14,-235 1.14,-235 1.14,-235 1.14,-121 1.14,-63.71 68.34,-35.37 120.62,-21.98"/>
<polygon fill="midnightblue" stroke="midnightblue" points="121.63,-25.34 130.52,-19.57 119.98,-18.53 121.63,-25.34"/>
</g>
<!-- Node8 -->
<g id="node8" class="node">
<title>Node8</title>
<g id="a_node8"><a xlink:href="tables_8hpp.html" target="_top" xlink:title=" ">
<polygon fill="white" stroke="black" points="451.64,-56.5 451.64,-75.5 564.64,-75.5 564.64,-56.5 451.64,-56.5"/>
<text text-anchor="middle" x="508.14" y="-63.5" font-family="Helvetica,sans-Serif" font-size="10.00">common/tables.hpp</text>
</a>
</g>
</g>
<!-- Node1&#45;&gt;Node8 -->
<g id="edge7" class="edge">
<title>Node1&#45;&gt;Node8</title>
<path fill="none" stroke="midnightblue" d="M825.04,-336.43C859.81,-310.34 956.17,-229.91 914.14,-168 876.34,-112.31 680.49,-84.32 575.24,-73.11"/>
<polygon fill="midnightblue" stroke="midnightblue" points="575.34,-69.6 565.03,-72.05 574.62,-76.56 575.34,-69.6"/>
</g>
<!-- Node11 -->
<g id="node11" class="node">
<title>Node11</title>
<g id="a_node11"><a xlink:href="obstacle_8hpp.html" target="_top" xlink:title=" ">
<polygon fill="white" stroke="black" points="984.64,-280.5 984.64,-299.5 1109.64,-299.5 1109.64,-280.5 984.64,-280.5"/>
<text text-anchor="middle" x="1047.14" y="-287.5" font-family="Helvetica,sans-Serif" font-size="10.00">common/obstacle.hpp</text>
</a>
</g>
</g>
<!-- Node1&#45;&gt;Node11 -->
<g id="edge12" class="edge">
<title>Node1&#45;&gt;Node11</title>
<path fill="none" stroke="midnightblue" d="M850.22,-336.44C890.87,-327.06 956.17,-311.99 1000.32,-301.8"/>
<polygon fill="midnightblue" stroke="midnightblue" points="1001.28,-305.18 1010.24,-299.52 999.71,-298.35 1001.28,-305.18"/>
</g>
<!-- Node12 -->
<g id="node12" class="node">
<title>Node12</title>
<g id="a_node12"><a xlink:href="parser_8hpp.html" target="_top" xlink:title=" ">
<polygon fill="white" stroke="black" points="557.14,-280.5 557.14,-299.5 671.14,-299.5 671.14,-280.5 557.14,-280.5"/>
<text text-anchor="middle" x="614.14" y="-287.5" font-family="Helvetica,sans-Serif" font-size="10.00">compiler/parser.hpp</text>
</a>
</g>
</g>
<!-- Node1&#45;&gt;Node12 -->
<g id="edge13" class="edge">
<title>Node1&#45;&gt;Node12</title>
<path fill="none" stroke="midnightblue" d="M781.61,-336.44C747.55,-327.2 693.13,-312.44 655.63,-302.26"/>
<polygon fill="midnightblue" stroke="midnightblue" points="656.09,-298.76 645.53,-299.52 654.26,-305.51 656.09,-298.76"/>
</g>
<!-- Node8&#45;&gt;Node5 -->
<g id="edge10" class="edge">
<title>Node8&#45;&gt;Node5</title>
<path fill="none" stroke="midnightblue" d="M535.39,-56.44C565.57,-46.97 614.22,-31.7 646.68,-21.5"/>
<polygon fill="midnightblue" stroke="midnightblue" points="648.11,-24.72 656.61,-18.39 646.02,-18.04 648.11,-24.72"/>
</g>
<!-- Node8&#45;&gt;Node7 -->
<g id="edge11" class="edge">
<title>Node8&#45;&gt;Node7</title>
<path fill="none" stroke="midnightblue" d="M456.33,-56.44C398.33,-46.87 304.4,-31.36 242.71,-21.17"/>
<polygon fill="midnightblue" stroke="midnightblue" points="243.15,-17.69 232.71,-19.52 242.01,-24.6 243.15,-17.69"/>
</g>
<!-- Node9 -->
<g id="node9" class="node">
<title>Node9</title>
<g id="a_node9"><a xlink:title=" ">
<polygon fill="white" stroke="#bfbfbf" points="335.64,-0.5 335.64,-19.5 388.64,-19.5 388.64,-0.5 335.64,-0.5"/>
<text text-anchor="middle" x="362.14" y="-7.5" font-family="Helvetica,sans-Serif" font-size="10.00">cstddef</text>
</a>
</g>
</g>
<!-- Node8&#45;&gt;Node9 -->
<g id="edge8" class="edge">
<title>Node8&#45;&gt;Node9</title>
<path fill="none" stroke="midnightblue" d="M485.01,-56.44C460.66,-47.44 422.13,-33.19 394.72,-23.05"/>
<polygon fill="midnightblue" stroke="midnightblue" points="395.76,-19.7 385.17,-19.52 393.33,-26.27 395.76,-19.7"/>
</g>
<!-- Node10 -->
<g id="node10" class="node">
<title>Node10</title>
<g id="a_node10"><a xlink:title=" ">
<polygon fill="white" stroke="#bfbfbf" points="479.64,-0.5 479.64,-19.5 536.64,-19.5 536.64,-0.5 479.64,-0.5"/>
<text text-anchor="middle" x="508.14" y="-7.5" font-family="Helvetica,sans-Serif" font-size="10.00">ostream</text>
</a>
</g>
</g>
<!-- Node8&#45;&gt;Node10 -->
<g id="edge9" class="edge">
<title>Node8&#45;&gt;Node10</title>
<path fill="none" stroke="midnightblue" d="M508.14,-56.08C508.14,-49.01 508.14,-38.86 508.14,-29.99"/>
<polygon fill="midnightblue" stroke="midnightblue" points="511.64,-29.75 508.14,-19.75 504.64,-29.75 511.64,-29.75"/>
</g>
<!-- Node12&#45;&gt;Node2 -->
<g id="edge14" class="edge">
<title>Node12&#45;&gt;Node2</title>
<path fill="none" stroke="midnightblue" d="M671.37,-287.22C714.17,-283.41 772.43,-272.77 815.14,-244 832.34,-232.41 844.92,-211.85 852.33,-196.95"/>
<polygon fill="midnightblue" stroke="midnightblue" points="855.58,-198.27 856.64,-187.72 849.24,-195.31 855.58,-198.27"/>
</g>
<!-- Node12&#45;&gt;Node7 -->
<g id="edge17" class="edge">
<title>Node12&#45;&gt;Node7</title>
<path fill="none" stroke="midnightblue" d="M556.78,-288.54C452.47,-286.83 236.46,-279.02 171.14,-244 108.12,-210.21 51.61,-178 79.14,-112 95.12,-73.69 133.48,-42.48 158.33,-25.35"/>
<polygon fill="midnightblue" stroke="midnightblue" points="160.44,-28.15 166.81,-19.68 156.55,-22.33 160.44,-28.15"/>
</g>
<!-- Node12&#45;&gt;Node8 -->
<g id="edge18" class="edge">
<title>Node12&#45;&gt;Node8</title>
<path fill="none" stroke="midnightblue" d="M622.71,-280.32C633.78,-267.99 650.79,-244.62 643.14,-224 630.82,-190.77 557.38,-115.58 524.29,-82.79"/>
<polygon fill="midnightblue" stroke="midnightblue" points="526.74,-80.29 517.16,-75.76 521.83,-85.27 526.74,-80.29"/>
</g>
<!-- Node13 -->
<g id="node13" class="node">
<title>Node13</title>
<g id="a_node13"><a xlink:title=" ">
<polygon fill="white" stroke="#bfbfbf" points="708.64,-112.5 708.64,-131.5 763.64,-131.5 763.64,-112.5 708.64,-112.5"/>
<text text-anchor="middle" x="736.14" y="-119.5" font-family="Helvetica,sans-Serif" font-size="10.00">fstream</text>
</a>
</g>
</g>
<!-- Node12&#45;&gt;Node13 -->
<g id="edge15" class="edge">
<title>Node12&#45;&gt;Node13</title>
<path fill="none" stroke="midnightblue" d="M671.22,-286.03C718.22,-281.64 785.46,-270.79 838.14,-244 870.95,-227.32 884.33,-221.69 899.14,-188 902.72,-179.86 904.53,-175.07 899.14,-168 895.25,-162.89 820.38,-143.71 773.48,-132.1"/>
<polygon fill="midnightblue" stroke="midnightblue" points="774.2,-128.67 763.65,-129.68 772.52,-135.47 774.2,-128.67"/>
</g>
<!-- Node14 -->
<g id="node14" class="node">
<title>Node14</title>
<g id="a_node14"><a xlink:href="config_8hpp.html" target="_top" xlink:title=" ">
<polygon fill="white" stroke="black" points="228.14,-168.5 228.14,-187.5 296.14,-187.5 296.14,-168.5 228.14,-168.5"/>
<text text-anchor="middle" x="262.14" y="-175.5" font-family="Helvetica,sans-Serif" font-size="10.00">config.hpp</text>
</a>
</g>
</g>
<!-- Node12&#45;&gt;Node14 -->
<g id="edge16" class="edge">
<title>Node12&#45;&gt;Node14</title>
<path fill="none" stroke="midnightblue" d="M583.25,-280.48C551.7,-271.68 501.35,-257.39 458.14,-244 401.24,-226.37 335.64,-204.24 296.6,-190.88"/>
<polygon fill="midnightblue" stroke="midnightblue" points="297.39,-187.45 286.79,-187.52 295.12,-194.08 297.39,-187.45"/>
</g>
<!-- Node15 -->
<g id="node15" class="node">
<title>Node15</title>
<g id="a_node15"><a xlink:href="poliz_8hpp.html" target="_top" xlink:title=" ">
<polygon fill="white" stroke="black" points="392.64,-112.5 392.64,-131.5 499.64,-131.5 499.64,-112.5 392.64,-112.5"/>
<text text-anchor="middle" x="446.14" y="-119.5" font-family="Helvetica,sans-Serif" font-size="10.00">common/poliz.hpp</text>
</a>
</g>
</g>
<!-- Node12&#45;&gt;Node15 -->
<g id="edge19" class="edge">
<title>Node12&#45;&gt;Node15</title>
<path fill="none" stroke="midnightblue" d="M558.39,-280.43C534.66,-274.09 508.52,-263.08 491.14,-244 467.62,-218.18 484.17,-200.41 471.14,-168 467.31,-158.46 461.87,-148.41 457.05,-140.24"/>
<polygon fill="midnightblue" stroke="midnightblue" points="460,-138.35 451.8,-131.64 454.02,-142 460,-138.35"/>
</g>
<!-- Node17 -->
<g id="node17" class="node">
<title>Node17</title>
<g id="a_node17"><a xlink:href="stack_8hpp.html" target="_top" xlink:title=" ">
<polygon fill="white" stroke="black" points="180.14,-224.5 180.14,-243.5 290.14,-243.5 290.14,-224.5 180.14,-224.5"/>
<text text-anchor="middle" x="235.14" y="-231.5" font-family="Helvetica,sans-Serif" font-size="10.00">common/stack.hpp</text>
</a>
</g>
</g>
<!-- Node12&#45;&gt;Node17 -->
<g id="edge23" class="edge">
<title>Node12&#45;&gt;Node17</title>
<path fill="none" stroke="midnightblue" d="M556.99,-280.86C488.06,-271.04 372.47,-254.57 300.19,-244.27"/>
<polygon fill="midnightblue" stroke="midnightblue" points="300.68,-240.8 290.29,-242.86 299.69,-247.73 300.68,-240.8"/>
</g>
<!-- Node18 -->
<g id="node18" class="node">
<title>Node18</title>
<g id="a_node18"><a xlink:href="cursor_8hpp.html" target="_top" xlink:title=" ">
<polygon fill="white" stroke="black" points="692.64,-224.5 692.64,-243.5 805.64,-243.5 805.64,-224.5 692.64,-224.5"/>
<text text-anchor="middle" x="749.14" y="-231.5" font-family="Helvetica,sans-Serif" font-size="10.00">compiler/cursor.hpp</text>
</a>
</g>
</g>
<!-- Node12&#45;&gt;Node18 -->
<g id="edge27" class="edge">
<title>Node12&#45;&gt;Node18</title>
<path fill="none" stroke="midnightblue" d="M635.53,-280.44C657.85,-271.52 693.04,-257.44 718.35,-247.32"/>
<polygon fill="midnightblue" stroke="midnightblue" points="719.86,-250.48 727.85,-243.52 717.26,-243.98 719.86,-250.48"/>
</g>
<!-- Node19 -->
<g id="node19" class="node">
<title>Node19</title>
<g id="a_node19"><a xlink:href="optimizer_8hpp.html" target="_top" xlink:title=" ">
<polygon fill="white" stroke="black" points="500.14,-224.5 500.14,-243.5 634.14,-243.5 634.14,-224.5 500.14,-224.5"/>
<text text-anchor="middle" x="567.14" y="-231.5" font-family="Helvetica,sans-Serif" font-size="10.00">optimizer/optimizer.hpp</text>
</a>
</g>
</g>
<!-- Node12&#45;&gt;Node19 -->
<g id="edge29" class="edge">
<title>Node12&#45;&gt;Node19</title>
<path fill="none" stroke="midnightblue" d="M606.38,-280.08C599.6,-272.3 589.6,-260.8 581.39,-251.37"/>
<polygon fill="midnightblue" stroke="midnightblue" points="583.96,-249 574.76,-243.75 578.68,-253.59 583.96,-249"/>
</g>
<!-- Node15&#45;&gt;Node7 -->
<g id="edge21" class="edge">
<title>Node15&#45;&gt;Node7</title>
<path fill="none" stroke="midnightblue" d="M409.01,-112.46C377.93,-104.72 332.74,-92.07 295.14,-76 261.41,-61.58 225.02,-39.59 202.65,-25.25"/>
<polygon fill="midnightblue" stroke="midnightblue" points="204.27,-22.13 193.97,-19.62 200.46,-28 204.27,-22.13"/>
</g>
<!-- Node15&#45;&gt;Node8 -->
<g id="edge20" class="edge">
<title>Node15&#45;&gt;Node8</title>
<path fill="none" stroke="midnightblue" d="M456.1,-112.32C465.27,-104.34 479.08,-92.31 490.17,-82.65"/>
<polygon fill="midnightblue" stroke="midnightblue" points="492.76,-85.04 498,-75.83 488.16,-79.76 492.76,-85.04"/>
</g>
<!-- Node16 -->
<g id="node16" class="node">
<title>Node16</title>
<g id="a_node16"><a xlink:href="cppcheck_8hpp.html" target="_top" xlink:title=" ">
<polygon fill="white" stroke="black" points="304.64,-56.5 304.64,-75.5 433.64,-75.5 433.64,-56.5 304.64,-56.5"/>
<text text-anchor="middle" x="369.14" y="-63.5" font-family="Helvetica,sans-Serif" font-size="10.00">common/cppcheck.hpp</text>
</a>
</g>
</g>
<!-- Node15&#45;&gt;Node16 -->
<g id="edge22" class="edge">
<title>Node15&#45;&gt;Node16</title>
<path fill="none" stroke="midnightblue" d="M433.77,-112.32C421.98,-104.06 404.01,-91.45 390.01,-81.63"/>
<polygon fill="midnightblue" stroke="midnightblue" points="391.68,-78.53 381.48,-75.65 387.66,-84.26 391.68,-78.53"/>
</g>
<!-- Node17&#45;&gt;Node7 -->
<g id="edge26" class="edge">
<title>Node17&#45;&gt;Node7</title>
<path fill="none" stroke="midnightblue" d="M220.59,-224.35C208.92,-216.5 193.33,-203.76 186.14,-188 161.94,-134.96 170.85,-63.37 177.1,-29.82"/>
<polygon fill="midnightblue" stroke="midnightblue" points="180.6,-30.13 179.14,-19.63 173.74,-28.75 180.6,-30.13"/>
</g>
<!-- Node17&#45;&gt;Node9 -->
<g id="edge24" class="edge">
<title>Node17&#45;&gt;Node9</title>
<path fill="none" stroke="midnightblue" d="M229.9,-224.08C223.17,-211.47 213.06,-187.77 219.14,-168 236.81,-110.5 252.5,-98.44 295.14,-56 307.49,-43.71 323.64,-32.75 336.99,-24.72"/>
<polygon fill="midnightblue" stroke="midnightblue" points="338.83,-27.7 345.71,-19.65 335.31,-21.65 338.83,-27.7"/>
</g>
<!-- Node17&#45;&gt;Node14 -->
<g id="edge25" class="edge">
<title>Node17&#45;&gt;Node14</title>
<path fill="none" stroke="midnightblue" d="M239.6,-224.08C243.29,-216.69 248.66,-205.95 253.24,-196.81"/>
<polygon fill="midnightblue" stroke="midnightblue" points="256.42,-198.26 257.77,-187.75 250.16,-195.13 256.42,-198.26"/>
</g>
<!-- Node18&#45;&gt;Node2 -->
<g id="edge28" class="edge">
<title>Node18&#45;&gt;Node2</title>
<path fill="none" stroke="midnightblue" d="M766.97,-224.32C784.86,-215.62 812.62,-202.12 833.19,-192.11"/>
<polygon fill="midnightblue" stroke="midnightblue" points="834.89,-195.18 842.35,-187.65 831.83,-188.88 834.89,-195.18"/>
</g>
<!-- Node19&#45;&gt;Node5 -->
<g id="edge30" class="edge">
<title>Node19&#45;&gt;Node5</title>
<path fill="none" stroke="midnightblue" d="M634.37,-228.1C690.63,-222.44 764.59,-210.81 783.14,-188 827.64,-133.27 741.31,-57.07 700.2,-25.54"/>
<polygon fill="midnightblue" stroke="midnightblue" points="702.28,-22.72 692.18,-19.52 698.07,-28.32 702.28,-22.72"/>
</g>
<!-- Node19&#45;&gt;Node8 -->
<g id="edge31" class="edge">
<title>Node19&#45;&gt;Node8</title>
<path fill="none" stroke="midnightblue" d="M563.97,-224.08C554.64,-197.83 527.17,-120.55 514.58,-85.12"/>
<polygon fill="midnightblue" stroke="midnightblue" points="517.83,-83.82 511.19,-75.57 511.24,-86.16 517.83,-83.82"/>
</g>
<!-- Node19&#45;&gt;Node15 -->
<g id="edge32" class="edge">
<title>Node19&#45;&gt;Node15</title>
<path fill="none" stroke="midnightblue" d="M559.35,-224.21C547.8,-211.34 525.21,-186.87 504.14,-168 492.19,-157.29 477.96,-146.23 466.59,-137.76"/>
<polygon fill="midnightblue" stroke="midnightblue" points="468.67,-134.94 458.54,-131.83 464.52,-140.58 468.67,-134.94"/>
</g>
<!-- Node20 -->
<g id="node20" class="node">
<title>Node20</title>
<g id="a_node20"><a xlink:href="controlflow_8hpp.html" target="_top" xlink:title=" ">
<polygon fill="white" stroke="black" points="632.64,-168.5 632.64,-187.5 773.64,-187.5 773.64,-168.5 632.64,-168.5"/>
<text text-anchor="middle" x="703.14" y="-175.5" font-family="Helvetica,sans-Serif" font-size="10.00">optimizer/controlflow.hpp</text>
</a>
</g>
</g>
<!-- Node19&#45;&gt;Node20 -->
<g id="edge33" class="edge">
<title>Node19&#45;&gt;Node20</title>
<path fill="none" stroke="midnightblue" d="M588.69,-224.44C611.17,-215.52 646.63,-201.44 672.12,-191.32"/>
<polygon fill="midnightblue" stroke="midnightblue" points="673.69,-194.46 681.69,-187.52 671.11,-187.95 673.69,-194.46"/>
</g>
<!-- Node21 -->
<g id="node21" class="node">
<title>Node21</title>
<g id="a_node21"><a xlink:href="acyclicgraph_8hpp.html" target="_top" xlink:title=" ">
<polygon fill="white" stroke="black" points="313.64,-168.5 313.64,-187.5 462.64,-187.5 462.64,-168.5 313.64,-168.5"/>
<text text-anchor="middle" x="388.14" y="-175.5" font-family="Helvetica,sans-Serif" font-size="10.00">optimizer/acyclicgraph.hpp</text>
</a>
</g>
</g>
<!-- Node19&#45;&gt;Node21 -->
<g id="edge38" class="edge">
<title>Node19&#45;&gt;Node21</title>
<path fill="none" stroke="midnightblue" d="M538.78,-224.44C508.4,-215.28 460.03,-200.69 426.32,-190.52"/>
<polygon fill="midnightblue" stroke="midnightblue" points="426.96,-187.05 416.37,-187.52 424.93,-193.76 426.96,-187.05"/>
</g>
<!-- Node20&#45;&gt;Node5 -->
<g id="edge34" class="edge">
<title>Node20&#45;&gt;Node5</title>
<path fill="none" stroke="midnightblue" d="M701.9,-168.08C698.28,-141.95 687.65,-65.21 682.71,-29.58"/>
<polygon fill="midnightblue" stroke="midnightblue" points="686.17,-28.99 681.33,-19.57 679.23,-29.95 686.17,-28.99"/>
</g>
<!-- Node20&#45;&gt;Node8 -->
<g id="edge36" class="edge">
<title>Node20&#45;&gt;Node8</title>
<path fill="none" stroke="midnightblue" d="M693.54,-168.28C678.4,-154.86 647.63,-128.91 618.14,-112 594.55,-98.47 566.09,-86.95 544.03,-78.94"/>
<polygon fill="midnightblue" stroke="midnightblue" points="544.98,-75.57 534.38,-75.52 542.64,-82.17 544.98,-75.57"/>
</g>
<!-- Node20&#45;&gt;Node13 -->
<g id="edge35" class="edge">
<title>Node20&#45;&gt;Node13</title>
<path fill="none" stroke="midnightblue" d="M708.59,-168.08C713.16,-160.61 719.81,-149.72 725.43,-140.52"/>
<polygon fill="midnightblue" stroke="midnightblue" points="728.56,-142.11 730.79,-131.75 722.59,-138.46 728.56,-142.11"/>
</g>
<!-- Node20&#45;&gt;Node15 -->
<g id="edge37" class="edge">
<title>Node20&#45;&gt;Node15</title>
<path fill="none" stroke="midnightblue" d="M662.42,-168.44C617.49,-159 545.14,-143.8 496.64,-133.61"/>
<polygon fill="midnightblue" stroke="midnightblue" points="497.18,-130.15 486.67,-131.52 495.74,-137 497.18,-130.15"/>
</g>
<!-- Node21&#45;&gt;Node4 -->
<g id="edge40" class="edge">
<title>Node21&#45;&gt;Node4</title>
<path fill="none" stroke="midnightblue" d="M344.25,-168.44C288.42,-157.56 193.3,-139.02 143.59,-129.33"/>
<polygon fill="midnightblue" stroke="midnightblue" points="144.18,-125.88 133.7,-127.4 142.84,-132.75 144.18,-125.88"/>
</g>
<!-- Node21&#45;&gt;Node5 -->
<g id="edge39" class="edge">
<title>Node21&#45;&gt;Node5</title>
<path fill="none" stroke="midnightblue" d="M417.15,-168.42C442.02,-160.53 478.43,-147.69 508.14,-132 568.08,-100.34 631.55,-50.96 661.9,-26.21"/>
<polygon fill="midnightblue" stroke="midnightblue" points="664.39,-28.7 669.89,-19.64 659.94,-23.29 664.39,-28.7"/>
</g>
<!-- Node21&#45;&gt;Node7 -->
<g id="edge41" class="edge">
<title>Node21&#45;&gt;Node7</title>
<path fill="none" stroke="midnightblue" d="M375.94,-168.44C351.91,-151.48 297,-112.07 253.14,-76 233.57,-59.9 212.13,-40.27 197.78,-26.82"/>
<polygon fill="midnightblue" stroke="midnightblue" points="199.9,-24.01 190.22,-19.69 195.09,-29.1 199.9,-24.01"/>
</g>
<!-- Node21&#45;&gt;Node8 -->
<g id="edge42" class="edge">
<title>Node21&#45;&gt;Node8</title>
<path fill="none" stroke="midnightblue" d="M384.16,-168.07C378.82,-154.6 371.3,-128.85 383.14,-112 392.45,-98.76 429.1,-86.52 460.33,-78.15"/>
<polygon fill="midnightblue" stroke="midnightblue" points="461.44,-81.48 470.24,-75.58 459.68,-74.71 461.44,-81.48"/>
</g>
<!-- Node21&#45;&gt;Node15 -->
<g id="edge43" class="edge">
<title>Node21&#45;&gt;Node15</title>
<path fill="none" stroke="midnightblue" d="M397.46,-168.32C406.03,-160.34 418.95,-148.31 429.33,-138.65"/>
<polygon fill="midnightblue" stroke="midnightblue" points="431.72,-141.21 436.65,-131.83 426.95,-136.09 431.72,-141.21"/>
</g>
</g>
</svg>
