<?xml version="1.0" encoding="UTF-8" standalone="no"?>
<!DOCTYPE svg PUBLIC "-//W3C//DTD SVG 1.1//EN"
 "http://www.w3.org/Graphics/SVG/1.1/DTD/svg11.dtd">
<!-- Generated by graphviz version 2.43.0 (0)
 -->
<!-- Title: src/compiler/parser.hpp Pages: 1 -->
<!--zoomable 308 -->
<svg id="main" version="1.1" xmlns="http://www.w3.org/2000/svg" xmlns:xlink="http://www.w3.org/1999/xlink" xml:space="preserve" onload="init(evt)">
<style type="text/css"><![CDATA[
.edge:hover path { stroke: red; }
.edge:hover polygon { stroke: red; fill: red; }
]]></style>
<script type="text/javascript"><![CDATA[
var edges = document.getElementsByTagName('g');
if (edges && edges.length) {
  for (var i=0;i<edges.length;i++) {
    if (edges[i].id.substr(0,4)=='edge') {
      edges[i].setAttribute('class','edge');
    }
  }
}
]]></script>
        <defs>
                <circle id="rim" cx="0" cy="0" r="7"/>
                <circle id="rim2" cx="0" cy="0" r="3.5"/>
                <g id="zoomPlus">
                        <use xlink:href="#rim" fill="#404040">
                                <set attributeName="fill" to="#808080" begin="zoomplus.mouseover" end="zoomplus.mouseout"/>
                        </use>
                        <path d="M-4,0h8M0,-4v8" fill="none" stroke="white" stroke-width="1.5" pointer-events="none"/>
                </g>
                <g id="zoomMin">
                        <use xlink:href="#rim" fill="#404040">
                                <set attributeName="fill" to="#808080" begin="zoomminus.mouseover" end="zoomminus.mouseout"/>
                        </use>
                        <path d="M-4,0h8" fill="none" stroke="white" stroke-width="1.5" pointer-events="none"/>
                </g>
                <g id="dirArrow">
                        <path fill="none" stroke="white" stroke-width="1.5" d="M0,-3.0v7 M-2.5,-0.5L0,-3.0L2.5,-0.5"/>
                </g>
               <g id="resetDef">
                       <use xlink:href="#rim2" fill="#404040">
                               <set attributeName="fill" to="#808080" begin="reset.mouseover" end="reset.mouseout"/>
                       </use>
               </g>
        </defs>

<script type="text/javascript">
var viewWidth = 895;
var viewHeight = 308;
var sectionId = 'dynsection-0';
</script>
<script xlink:href="svgpan.js"/>
<svg id="graph" class="graph">
<g id="viewport">
<title>src/compiler/parser.hpp</title>
<polygon fill="white" stroke="transparent" points="-4,4 -4,-304 891.31,-304 891.31,4 -4,4"/>
<!-- Node1 -->
<g id="node1" class="node">
<title>Node1</title>
<g id="a_node1"><a xlink:title=" ">
<polygon fill="#bfbfbf" stroke="black" points="257.5,-280.5 257.5,-299.5 388.5,-299.5 388.5,-280.5 257.5,-280.5"/>
<text text-anchor="middle" x="323" y="-287.5" font-family="Helvetica,sans-Serif" font-size="10.00">src/compiler/parser.hpp</text>
</a>
</g>
</g>
<!-- Node2 -->
<g id="node2" class="node">
<title>Node2</title>
<g id="a_node2"><a xlink:title=" ">
<polygon fill="white" stroke="#bfbfbf" points="0,-168.5 0,-187.5 60,-187.5 60,-168.5 0,-168.5"/>
<text text-anchor="middle" x="30" y="-175.5" font-family="Helvetica,sans-Serif" font-size="10.00">iostream</text>
</a>
</g>
</g>
<!-- Node1&#45;&gt;Node2 -->
<g id="edge1" class="edge">
<title>Node1&#45;&gt;Node2</title>
<path fill="none" stroke="midnightblue" d="M257.45,-289.37C174.31,-288.27 37.88,-280.73 6,-244 -6.02,-230.16 4.78,-209.77 15.48,-195.52"/>
<polygon fill="midnightblue" stroke="midnightblue" points="18.35,-197.54 21.93,-187.57 12.91,-193.13 18.35,-197.54"/>
</g>
<!-- Node3 -->
<g id="node3" class="node">
<title>Node3</title>
<g id="a_node3"><a xlink:title=" ">
<polygon fill="white" stroke="#bfbfbf" points="389.5,-112.5 389.5,-131.5 444.5,-131.5 444.5,-112.5 389.5,-112.5"/>
<text text-anchor="middle" x="417" y="-119.5" font-family="Helvetica,sans-Serif" font-size="10.00">fstream</text>
</a>
</g>
</g>
<!-- Node1&#45;&gt;Node3 -->
<g id="edge2" class="edge">
<title>Node1&#45;&gt;Node3</title>
<path fill="none" stroke="midnightblue" d="M336.73,-280.19C348.39,-272.07 364.82,-259.02 375,-244 396.97,-211.6 408.58,-166.54 413.7,-141.56"/>
<polygon fill="midnightblue" stroke="midnightblue" points="417.16,-142.09 415.6,-131.61 410.28,-140.77 417.16,-142.09"/>
</g>
<!-- Node4 -->
<g id="node4" class="node">
<title>Node4</title>
<g id="a_node4"><a xlink:href="config_8hpp.html" target="_top" xlink:title=" ">
<polygon fill="white" stroke="black" points="133.5,-168.5 133.5,-187.5 200.5,-187.5 200.5,-168.5 133.5,-168.5"/>
<text text-anchor="middle" x="167" y="-175.5" font-family="Helvetica,sans-Serif" font-size="10.00">config.hpp</text>
</a>
</g>
</g>
<!-- Node1&#45;&gt;Node4 -->
<g id="edge3" class="edge">
<title>Node1&#45;&gt;Node4</title>
<path fill="none" stroke="midnightblue" d="M257.21,-284.49C228.14,-279.02 196.08,-267.57 176,-244 165.27,-231.41 163.82,-212.19 164.57,-197.92"/>
<polygon fill="midnightblue" stroke="midnightblue" points="168.07,-198.03 165.51,-187.75 161.1,-197.38 168.07,-198.03"/>
</g>
<!-- Node5 -->
<g id="node5" class="node">
<title>Node5</title>
<g id="a_node5"><a xlink:href="exprtype_8hpp.html" target="_top" xlink:title=" ">
<polygon fill="white" stroke="black" points="431.5,-0.5 431.5,-19.5 558.5,-19.5 558.5,-0.5 431.5,-0.5"/>
<text text-anchor="middle" x="495" y="-7.5" font-family="Helvetica,sans-Serif" font-size="10.00">common/exprtype.hpp</text>
</a>
</g>
</g>
<!-- Node1&#45;&gt;Node5 -->
<g id="edge4" class="edge">
<title>Node1&#45;&gt;Node5</title>
<path fill="none" stroke="midnightblue" d="M323,-280.44C323,-261.94 323,-216.81 323,-179 323,-179 323,-179 323,-121 323,-64.51 389.66,-35.72 439.99,-22.04"/>
<polygon fill="midnightblue" stroke="midnightblue" points="441,-25.39 449.81,-19.5 439.25,-18.61 441,-25.39"/>
</g>
<!-- Node6 -->
<g id="node6" class="node">
<title>Node6</title>
<g id="a_node6"><a xlink:href="tables_8hpp.html" target="_top" xlink:title=" ">
<polygon fill="white" stroke="black" points="541.5,-56.5 541.5,-75.5 654.5,-75.5 654.5,-56.5 541.5,-56.5"/>
<text text-anchor="middle" x="598" y="-63.5" font-family="Helvetica,sans-Serif" font-size="10.00">common/tables.hpp</text>
</a>
</g>
</g>
<!-- Node1&#45;&gt;Node6 -->
<g id="edge5" class="edge">
<title>Node1&#45;&gt;Node6</title>
<path fill="none" stroke="midnightblue" d="M325.77,-280.15C336.86,-244.72 377.67,-114.98 381,-112 402.91,-92.42 475.93,-80.19 531.26,-73.5"/>
<polygon fill="midnightblue" stroke="midnightblue" points="531.85,-76.96 541.37,-72.32 531.03,-70 531.85,-76.96"/>
</g>
<!-- Node10 -->
<g id="node10" class="node">
<title>Node10</title>
<g id="a_node10"><a xlink:href="poliz_8hpp.html" target="_top" xlink:title=" ">
<polygon fill="white" stroke="black" points="462.5,-112.5 462.5,-131.5 569.5,-131.5 569.5,-112.5 462.5,-112.5"/>
<text text-anchor="middle" x="516" y="-119.5" font-family="Helvetica,sans-Serif" font-size="10.00">common/poliz.hpp</text>
</a>
</g>
</g>
<!-- Node1&#45;&gt;Node10 -->
<g id="edge10" class="edge">
<title>Node1&#45;&gt;Node10</title>
<path fill="none" stroke="midnightblue" d="M338.6,-280.42C353.44,-271.97 376.09,-258.28 394,-244 436.36,-210.23 480.01,-163.49 501.81,-139.17"/>
<polygon fill="midnightblue" stroke="midnightblue" points="504.54,-141.36 508.57,-131.56 499.31,-136.71 504.54,-141.36"/>
</g>
<!-- Node11 -->
<g id="node11" class="node">
<title>Node11</title>
<g id="a_node11"><a xlink:href="stack_8hpp.html" target="_top" xlink:title=" ">
<polygon fill="white" stroke="black" points="185,-224.5 185,-243.5 295,-243.5 295,-224.5 185,-224.5"/>
<text text-anchor="middle" x="240" y="-231.5" font-family="Helvetica,sans-Serif" font-size="10.00">common/stack.hpp</text>
</a>
</g>
</g>
<!-- Node1&#45;&gt;Node11 -->
<g id="edge13" class="edge">
<title>Node1&#45;&gt;Node11</title>
<path fill="none" stroke="midnightblue" d="M309.66,-280.32C296.84,-271.98 277.22,-259.21 262.06,-249.35"/>
<polygon fill="midnightblue" stroke="midnightblue" points="263.59,-246.17 253.3,-243.65 259.78,-252.04 263.59,-246.17"/>
</g>
<!-- Node12 -->
<g id="node12" class="node">
<title>Node12</title>
<g id="a_node12"><a xlink:href="cursor_8hpp.html" target="_top" xlink:title=" ">
<polygon fill="white" stroke="black" points="15.5,-224.5 15.5,-243.5 128.5,-243.5 128.5,-224.5 15.5,-224.5"/>
<text text-anchor="middle" x="72" y="-231.5" font-family="Helvetica,sans-Serif" font-size="10.00">compiler/cursor.hpp</text>
</a>
</g>
</g>
<!-- Node1&#45;&gt;Node12 -->
<g id="edge17" class="edge">
<title>Node1&#45;&gt;Node12</title>
<path fill="none" stroke="midnightblue" d="M283.23,-280.44C239.44,-271.02 168.99,-255.87 121.62,-245.68"/>
<polygon fill="midnightblue" stroke="midnightblue" points="122.1,-242.2 111.59,-243.52 120.63,-249.04 122.1,-242.2"/>
</g>
<!-- Node13 -->
<g id="node13" class="node">
<title>Node13</title>
<g id="a_node13"><a xlink:href="optimizer_8hpp.html" target="_top" xlink:title=" ">
<polygon fill="white" stroke="black" points="555.5,-224.5 555.5,-243.5 688.5,-243.5 688.5,-224.5 555.5,-224.5"/>
<text text-anchor="middle" x="622" y="-231.5" font-family="Helvetica,sans-Serif" font-size="10.00">optimizer/optimizer.hpp</text>
</a>
</g>
</g>
<!-- Node1&#45;&gt;Node13 -->
<g id="edge19" class="edge">
<title>Node1&#45;&gt;Node13</title>
<path fill="none" stroke="midnightblue" d="M370.38,-280.44C423.08,-270.92 508.23,-255.55 564.66,-245.36"/>
<polygon fill="midnightblue" stroke="midnightblue" points="565.63,-248.74 574.84,-243.52 564.38,-241.85 565.63,-248.74"/>
</g>
<!-- Node6&#45;&gt;Node5 -->
<g id="edge9" class="edge">
<title>Node6&#45;&gt;Node5</title>
<path fill="none" stroke="midnightblue" d="M581.45,-56.32C565.01,-47.7 539.57,-34.36 520.53,-24.39"/>
<polygon fill="midnightblue" stroke="midnightblue" points="521.99,-21.2 511.51,-19.65 518.74,-27.4 521.99,-21.2"/>
</g>
<!-- Node7 -->
<g id="node7" class="node">
<title>Node7</title>
<g id="a_node7"><a xlink:title=" ">
<polygon fill="white" stroke="#bfbfbf" points="287.5,-0.5 287.5,-19.5 340.5,-19.5 340.5,-0.5 287.5,-0.5"/>
<text text-anchor="middle" x="314" y="-7.5" font-family="Helvetica,sans-Serif" font-size="10.00">cstddef</text>
</a>
</g>
</g>
<!-- Node6&#45;&gt;Node7 -->
<g id="edge6" class="edge">
<title>Node6&#45;&gt;Node7</title>
<path fill="none" stroke="midnightblue" d="M553,-56.44C497.1,-45.82 402.8,-27.88 350.93,-18.02"/>
<polygon fill="midnightblue" stroke="midnightblue" points="351.32,-14.53 340.84,-16.1 350.01,-21.41 351.32,-14.53"/>
</g>
<!-- Node8 -->
<g id="node8" class="node">
<title>Node8</title>
<g id="a_node8"><a xlink:title=" ">
<polygon fill="white" stroke="#bfbfbf" points="576.5,-0.5 576.5,-19.5 633.5,-19.5 633.5,-0.5 576.5,-0.5"/>
<text text-anchor="middle" x="605" y="-7.5" font-family="Helvetica,sans-Serif" font-size="10.00">ostream</text>
</a>
</g>
</g>
<!-- Node6&#45;&gt;Node8 -->
<g id="edge7" class="edge">
<title>Node6&#45;&gt;Node8</title>
<path fill="none" stroke="midnightblue" d="M599.16,-56.08C600.08,-48.93 601.42,-38.64 602.58,-29.69"/>
<polygon fill="midnightblue" stroke="midnightblue" points="606.05,-30.12 603.87,-19.75 599.11,-29.22 606.05,-30.12"/>
</g>
<!-- Node9 -->
<g id="node9" class="node">
<title>Node9</title>
<g id="a_node9"><a xlink:title=" ">
<polygon fill="white" stroke="#bfbfbf" points="779.5,-0.5 779.5,-19.5 826.5,-19.5 826.5,-0.5 779.5,-0.5"/>
<text text-anchor="middle" x="803" y="-7.5" font-family="Helvetica,sans-Serif" font-size="10.00">vector</text>
</a>
</g>
</g>
<!-- Node6&#45;&gt;Node9 -->
<g id="edge8" class="edge">
<title>Node6&#45;&gt;Node9</title>
<path fill="none" stroke="midnightblue" d="M630.48,-56.44C668.52,-46.42 731.19,-29.92 769.61,-19.79"/>
<polygon fill="midnightblue" stroke="midnightblue" points="770.52,-23.18 779.3,-17.24 768.74,-16.41 770.52,-23.18"/>
</g>
<!-- Node10&#45;&gt;Node5 -->
<g id="edge12" class="edge">
<title>Node10&#45;&gt;Node5</title>
<path fill="none" stroke="midnightblue" d="M514.35,-112.37C510.96,-94.62 503.15,-53.67 498.55,-29.6"/>
<polygon fill="midnightblue" stroke="midnightblue" points="501.95,-28.76 496.64,-19.59 495.08,-30.07 501.95,-28.76"/>
</g>
<!-- Node10&#45;&gt;Node6 -->
<g id="edge11" class="edge">
<title>Node10&#45;&gt;Node6</title>
<path fill="none" stroke="midnightblue" d="M529.17,-112.32C541.85,-103.98 561.23,-91.21 576.21,-81.35"/>
<polygon fill="midnightblue" stroke="midnightblue" points="578.43,-84.08 584.86,-75.65 574.58,-78.23 578.43,-84.08"/>
</g>
<!-- Node11&#45;&gt;Node4 -->
<g id="edge15" class="edge">
<title>Node11&#45;&gt;Node4</title>
<path fill="none" stroke="midnightblue" d="M228.27,-224.32C217.16,-216.11 200.26,-203.6 187.02,-193.81"/>
<polygon fill="midnightblue" stroke="midnightblue" points="189.06,-190.97 178.94,-187.83 184.9,-196.59 189.06,-190.97"/>
</g>
<!-- Node11&#45;&gt;Node5 -->
<g id="edge16" class="edge">
<title>Node11&#45;&gt;Node5</title>
<path fill="none" stroke="midnightblue" d="M242.9,-224.19C254.2,-190.08 295.34,-67.94 309,-56 339.64,-29.22 383.54,-17.77 421,-13.1"/>
<polygon fill="midnightblue" stroke="midnightblue" points="421.82,-16.53 431.37,-11.96 421.05,-9.57 421.82,-16.53"/>
</g>
<!-- Node11&#45;&gt;Node7 -->
<g id="edge14" class="edge">
<title>Node11&#45;&gt;Node7</title>
<path fill="none" stroke="midnightblue" d="M239.61,-224.32C238.76,-197.58 238.87,-114.74 269,-56 274.94,-44.41 284.96,-33.95 294.03,-26.04"/>
<polygon fill="midnightblue" stroke="midnightblue" points="296.45,-28.58 301.96,-19.53 292.01,-23.17 296.45,-28.58"/>
</g>
<!-- Node12&#45;&gt;Node2 -->
<g id="edge18" class="edge">
<title>Node12&#45;&gt;Node2</title>
<path fill="none" stroke="midnightblue" d="M65.06,-224.08C59.07,-216.38 50.25,-205.03 42.95,-195.65"/>
<polygon fill="midnightblue" stroke="midnightblue" points="45.71,-193.5 36.81,-187.75 40.18,-197.79 45.71,-193.5"/>
</g>
<!-- Node13&#45;&gt;Node6 -->
<g id="edge21" class="edge">
<title>Node13&#45;&gt;Node6</title>
<path fill="none" stroke="midnightblue" d="M630.21,-224.18C637.54,-215.66 647.76,-202.02 652,-188 654.58,-179.49 654.16,-176.62 652,-168 643.99,-136.01 623.69,-103.08 610.39,-83.85"/>
<polygon fill="midnightblue" stroke="midnightblue" points="613.15,-81.7 604.51,-75.58 607.45,-85.75 613.15,-81.7"/>
</g>
<!-- Node13&#45;&gt;Node9 -->
<g id="edge20" class="edge">
<title>Node13&#45;&gt;Node9</title>
<path fill="none" stroke="midnightblue" d="M688.59,-229.48C750.4,-224.65 835.96,-213.45 857,-188 873.11,-168.51 921.12,-219.66 846,-56 840.69,-44.42 831.14,-33.96 822.4,-26.05"/>
<polygon fill="midnightblue" stroke="midnightblue" points="824.62,-23.34 814.73,-19.54 820.09,-28.68 824.62,-23.34"/>
</g>
<!-- Node13&#45;&gt;Node10 -->
<g id="edge22" class="edge">
<title>Node13&#45;&gt;Node10</title>
<path fill="none" stroke="midnightblue" d="M555.19,-225.39C531.94,-219.16 508.16,-207.99 494,-188 483.72,-173.49 492.91,-153.79 502.36,-139.9"/>
<polygon fill="midnightblue" stroke="midnightblue" points="505.28,-141.84 508.41,-131.72 499.65,-137.68 505.28,-141.84"/>
</g>
<!-- Node14 -->
<g id="node14" class="node">
<title>Node14</title>
<g id="a_node14"><a xlink:href="controlflow_8hpp.html" target="_top" xlink:title=" ">
<polygon fill="white" stroke="black" points="503,-168.5 503,-187.5 643,-187.5 643,-168.5 503,-168.5"/>
<text text-anchor="middle" x="573" y="-175.5" font-family="Helvetica,sans-Serif" font-size="10.00">optimizer/controlflow.hpp</text>
</a>
</g>
</g>
<!-- Node13&#45;&gt;Node14 -->
<g id="edge23" class="edge">
<title>Node13&#45;&gt;Node14</title>
<path fill="none" stroke="midnightblue" d="M613.91,-224.08C606.84,-216.3 596.41,-204.8 587.85,-195.37"/>
<polygon fill="midnightblue" stroke="midnightblue" points="590.25,-192.8 580.94,-187.75 585.07,-197.51 590.25,-192.8"/>
</g>
<!-- Node15 -->
<g id="node15" class="node">
<title>Node15</title>
<g id="a_node15"><a xlink:href="acyclicgraph_8hpp.html" target="_top" xlink:title=" ">
<polygon fill="white" stroke="black" points="698.5,-168.5 698.5,-187.5 847.5,-187.5 847.5,-168.5 698.5,-168.5"/>
<text text-anchor="middle" x="773" y="-175.5" font-family="Helvetica,sans-Serif" font-size="10.00">optimizer/acyclicgraph.hpp</text>
</a>
</g>
</g>
<!-- Node13&#45;&gt;Node15 -->
<g id="edge28" class="edge">
<title>Node13&#45;&gt;Node15</title>
<path fill="none" stroke="midnightblue" d="M645.93,-224.44C671.22,-215.4 711.3,-201.06 739.68,-190.92"/>
<polygon fill="midnightblue" stroke="midnightblue" points="740.95,-194.18 749.19,-187.52 738.59,-187.59 740.95,-194.18"/>
</g>
<!-- Node14&#45;&gt;Node3 -->
<g id="edge25" class="edge">
<title>Node14&#45;&gt;Node3</title>
<path fill="none" stroke="midnightblue" d="M548.28,-168.44C522.15,-159.4 480.74,-145.06 451.42,-134.92"/>
<polygon fill="midnightblue" stroke="midnightblue" points="452.2,-131.48 441.6,-131.52 449.91,-138.1 452.2,-131.48"/>
</g>
<!-- Node14&#45;&gt;Node6 -->
<g id="edge26" class="edge">
<title>Node14&#45;&gt;Node6</title>
<path fill="none" stroke="midnightblue" d="M574.96,-168.37C579,-150.62 588.3,-109.67 593.77,-85.6"/>
<polygon fill="midnightblue" stroke="midnightblue" points="597.24,-86.12 596.05,-75.59 590.42,-84.57 597.24,-86.12"/>
</g>
<!-- Node14&#45;&gt;Node9 -->
<g id="edge24" class="edge">
<title>Node14&#45;&gt;Node9</title>
<path fill="none" stroke="midnightblue" d="M585.04,-168.31C622.3,-141.42 736.01,-59.35 782.68,-25.67"/>
<polygon fill="midnightblue" stroke="midnightblue" points="785.02,-28.3 791.08,-19.61 780.92,-22.62 785.02,-28.3"/>
</g>
<!-- Node14&#45;&gt;Node10 -->
<g id="edge27" class="edge">
<title>Node14&#45;&gt;Node10</title>
<path fill="none" stroke="midnightblue" d="M563.84,-168.32C555.5,-160.42 542.97,-148.55 532.82,-138.94"/>
<polygon fill="midnightblue" stroke="midnightblue" points="534.99,-136.17 525.32,-131.83 530.18,-141.25 534.99,-136.17"/>
</g>
<!-- Node15&#45;&gt;Node5 -->
<g id="edge31" class="edge">
<title>Node15&#45;&gt;Node5</title>
<path fill="none" stroke="midnightblue" d="M767.84,-168.43C753.99,-146.22 713.69,-86.39 664,-56 635.25,-38.42 599.66,-27.62 568.57,-21.03"/>
<polygon fill="midnightblue" stroke="midnightblue" points="569.14,-17.58 558.65,-19.04 567.76,-24.44 569.14,-17.58"/>
</g>
<!-- Node15&#45;&gt;Node6 -->
<g id="edge32" class="edge">
<title>Node15&#45;&gt;Node6</title>
<path fill="none" stroke="midnightblue" d="M759.27,-168.37C729.11,-149.41 656.86,-104 620.18,-80.94"/>
<polygon fill="midnightblue" stroke="midnightblue" points="622,-77.95 611.67,-75.59 618.27,-83.88 622,-77.95"/>
</g>
<!-- Node15&#45;&gt;Node9 -->
<g id="edge29" class="edge">
<title>Node15&#45;&gt;Node9</title>
<path fill="none" stroke="midnightblue" d="M792.3,-168.48C806.43,-161.08 824.56,-148.89 833,-132 850.18,-97.63 829.1,-52.74 814.57,-28.45"/>
<polygon fill="midnightblue" stroke="midnightblue" points="817.33,-26.27 809.05,-19.66 811.41,-29.99 817.33,-26.27"/>
</g>
<!-- Node15&#45;&gt;Node10 -->
<g id="edge33" class="edge">
<title>Node15&#45;&gt;Node10</title>
<path fill="none" stroke="midnightblue" d="M732.28,-168.44C687.35,-159 615,-143.8 566.5,-133.61"/>
<polygon fill="midnightblue" stroke="midnightblue" points="567.04,-130.15 556.53,-131.52 565.6,-137 567.04,-130.15"/>
</g>
<!-- Node16 -->
<g id="node16" class="node">
<title>Node16</title>
<g id="a_node16"><a xlink:title=" ">
<polygon fill="white" stroke="#bfbfbf" points="778.5,-112.5 778.5,-131.5 823.5,-131.5 823.5,-112.5 778.5,-112.5"/>
<text text-anchor="middle" x="801" y="-119.5" font-family="Helvetica,sans-Serif" font-size="10.00">utility</text>
</a>
</g>
</g>
<!-- Node15&#45;&gt;Node16 -->
<g id="edge30" class="edge">
<title>Node15&#45;&gt;Node16</title>
<path fill="none" stroke="midnightblue" d="M777.62,-168.08C781.46,-160.69 787.02,-149.95 791.76,-140.81"/>
<polygon fill="midnightblue" stroke="midnightblue" points="794.97,-142.24 796.46,-131.75 788.75,-139.02 794.97,-142.24"/>
</g>
</g>
</svg>
        <g id="navigator" transform="translate(0 0)" fill="#404254">
                <rect fill="#f2f5e9" fill-opacity="0.5" stroke="#606060" stroke-width=".5" x="0" y="0" width="60" height="60"/>
                <use id="zoomplus" xlink:href="#zoomPlus" x="17" y="9" onmousedown="handleZoom(evt,'in')"/>
                <use id="zoomminus" xlink:href="#zoomMin" x="42" y="9" onmousedown="handleZoom(evt,'out')"/>
                <use id="reset" xlink:href="#resetDef" x="30" y="36" onmousedown="handleReset()"/>
                <g id="arrowUp" xlink:href="#dirArrow" transform="translate(30 24)" onmousedown="handlePan(0,-1)">
                  <use xlink:href="#rim" fill="#404040">
                        <set attributeName="fill" to="#808080" begin="arrowUp.mouseover" end="arrowUp.mouseout"/>
                  </use>
                  <path fill="none" stroke="white" stroke-width="1.5" d="M0,-3.0v7 M-2.5,-0.5L0,-3.0L2.5,-0.5"/>
                </g>
                <g id="arrowRight" xlink:href="#dirArrow" transform="rotate(90) translate(36 -43)" onmousedown="handlePan(1,0)">
                  <use xlink:href="#rim" fill="#404040">
                        <set attributeName="fill" to="#808080" begin="arrowRight.mouseover" end="arrowRight.mouseout"/>
                  </use>
                  <path fill="none" stroke="white" stroke-width="1.5" d="M0,-3.0v7 M-2.5,-0.5L0,-3.0L2.5,-0.5"/>
                </g>
                <g id="arrowDown" xlink:href="#dirArrow" transform="rotate(180) translate(-30 -48)" onmousedown="handlePan(0,1)">
                  <use xlink:href="#rim" fill="#404040">
                        <set attributeName="fill" to="#808080" begin="arrowDown.mouseover" end="arrowDown.mouseout"/>
                  </use>
                  <path fill="none" stroke="white" stroke-width="1.5" d="M0,-3.0v7 M-2.5,-0.5L0,-3.0L2.5,-0.5"/>
                </g>
                <g id="arrowLeft" xlink:href="#dirArrow" transform="rotate(270) translate(-36 17)" onmousedown="handlePan(-1,0)">
                  <use xlink:href="#rim" fill="#404040">
                        <set attributeName="fill" to="#808080" begin="arrowLeft.mouseover" end="arrowLeft.mouseout"/>
                  </use>
                  <path fill="none" stroke="white" stroke-width="1.5" d="M0,-3.0v7 M-2.5,-0.5L0,-3.0L2.5,-0.5"/>
                </g>
        </g>
        <svg viewBox="0 0 15 15" width="100%" height="30px" preserveAspectRatio="xMaxYMin meet">
         <g id="arrow_out" transform="scale(0.3 0.3)">
          <a xlink:href="parser_8hpp__incl_org.svg" target="_base">
           <rect id="button" ry="5" rx="5" y="6" x="6" height="38" width="38"
                fill="#f2f5e9" fill-opacity="0.5" stroke="#606060" stroke-width="1.0"/>
           <path id="arrow"
             d="M 11.500037,31.436501 C 11.940474,20.09759 22.043105,11.32322 32.158766,21.979434 L 37.068811,17.246167 C 37.068811,17.246167 37.088388,32 37.088388,32 L 22.160133,31.978069 C 22.160133,31.978069 26.997745,27.140456 26.997745,27.140456 C 18.528582,18.264221 13.291696,25.230495 11.500037,31.436501 z"
             style="fill:#404040;"/>
          </a>
         </g>
        </svg>
</svg>
