<?xml version="1.0" encoding="UTF-8" standalone="no"?>
<!DOCTYPE svg PUBLIC "-//W3C//DTD SVG 1.1//EN"
 "http://www.w3.org/Graphics/SVG/1.1/DTD/svg11.dtd">
<!-- Generated by graphviz version 2.43.0 (0)
 -->
<!-- Title: src/compiler/parser.cpp Pages: 1 -->
<svg width="1142pt" height="364pt"
 viewBox="0.00 0.00 1142.06 364.00" xmlns="http://www.w3.org/2000/svg" xmlns:xlink="http://www.w3.org/1999/xlink">
<g id="graph0" class="graph" transform="scale(1 1) rotate(0) translate(4 360)">
<title>src/compiler/parser.cpp</title>
<polygon fill="white" stroke="transparent" points="-4,4 -4,-360 1138.06,-360 1138.06,4 -4,4"/>
<!-- Node1 -->
<g id="node1" class="node">
<title>Node1</title>
<g id="a_node1"><a xlink:title=" ">
<polygon fill="#bfbfbf" stroke="black" points="747.14,-336.5 747.14,-355.5 877.14,-355.5 877.14,-336.5 747.14,-336.5"/>
<text text-anchor="middle" x="812.14" y="-343.5" font-family="Helvetica,sans-Serif" font-size="10.00">src/compiler/parser.cpp</text>
</a>
</g>
</g>
<!-- Node2 -->
<g id="node2" class="node">
<title>Node2</title>
<g id="a_node2"><a xlink:title=" ">
<polygon fill="white" stroke="#bfbfbf" points="815.14,-168.5 815.14,-187.5 875.14,-187.5 875.14,-168.5 815.14,-168.5"/>
<text text-anchor="middle" x="845.14" y="-175.5" font-family="Helvetica,sans-Serif" font-size="10.00">iostream</text>
</a>
</g>
</g>
<!-- Node1&#45;&gt;Node2 -->
<g id="edge1" class="edge">
<title>Node1&#45;&gt;Node2</title>
<path fill="none" stroke="midnightblue" d="M821.17,-336.25C829.33,-327.77 840.98,-314.16 847.14,-300 860.7,-268.81 860.21,-257.77 856.14,-224 855.07,-215.11 852.85,-205.43 850.68,-197.34"/>
<polygon fill="midnightblue" stroke="midnightblue" points="853.98,-196.17 847.87,-187.51 847.25,-198.09 853.98,-196.17"/>
</g>
<!-- Node3 -->
<g id="node3" class="node">
<title>Node3</title>
<g id="a_node3"><a xlink:title=" ">
<polygon fill="white" stroke="#bfbfbf" points="29.14,-280.5 29.14,-299.5 79.14,-299.5 79.14,-280.5 29.14,-280.5"/>
<text text-anchor="middle" x="54.14" y="-287.5" font-family="Helvetica,sans-Serif" font-size="10.00">cstring</text>
</a>
</g>
</g>
<!-- Node1&#45;&gt;Node3 -->
<g id="edge2" class="edge">
<title>Node1&#45;&gt;Node3</title>
<path fill="none" stroke="midnightblue" d="M746.83,-344.49C620.11,-342.72 332.32,-334.84 93.14,-300 91.86,-299.81 90.57,-299.61 89.26,-299.39"/>
<polygon fill="midnightblue" stroke="midnightblue" points="89.69,-295.9 79.2,-297.42 88.34,-302.77 89.69,-295.9"/>
</g>
<!-- Node4 -->
<g id="node4" class="node">
<title>Node4</title>
<g id="a_node4"><a xlink:title=" ">
<polygon fill="white" stroke="#bfbfbf" points="239.64,-112.5 239.64,-131.5 284.64,-131.5 284.64,-112.5 239.64,-112.5"/>
<text text-anchor="middle" x="262.14" y="-119.5" font-family="Helvetica,sans-Serif" font-size="10.00">utility</text>
</a>
</g>
</g>
<!-- Node1&#45;&gt;Node4 -->
<g id="edge3" class="edge">
<title>Node1&#45;&gt;Node4</title>
<path fill="none" stroke="midnightblue" d="M747.09,-339.78C606.98,-327.69 281.52,-294.89 184.14,-244 147.42,-224.81 106.03,-201.7 130.14,-168 152.61,-136.6 198.31,-126.86 229.58,-123.98"/>
<polygon fill="midnightblue" stroke="midnightblue" points="229.86,-127.47 239.57,-123.24 229.34,-120.48 229.86,-127.47"/>
</g>
<!-- Node5 -->
<g id="node5" class="node">
<title>Node5</title>
<g id="a_node5"><a xlink:title=" ">
<polygon fill="white" stroke="#bfbfbf" points="752.64,-0.5 752.64,-19.5 799.64,-19.5 799.64,-0.5 752.64,-0.5"/>
<text text-anchor="middle" x="776.14" y="-7.5" font-family="Helvetica,sans-Serif" font-size="10.00">vector</text>
</a>
</g>
</g>
<!-- Node1&#45;&gt;Node5 -->
<g id="edge4" class="edge">
<title>Node1&#45;&gt;Node5</title>
<path fill="none" stroke="midnightblue" d="M877.25,-343.32C955.27,-339.98 1079.78,-329.96 1114.14,-300 1136.82,-280.22 1133.14,-265.1 1133.14,-235 1133.14,-235 1133.14,-235 1133.14,-121 1133.14,-53.77 899,-23.29 809.95,-14.13"/>
<polygon fill="midnightblue" stroke="midnightblue" points="810.14,-10.63 799.84,-13.11 809.44,-17.59 810.14,-10.63"/>
</g>
<!-- Node6 -->
<g id="node6" class="node">
<title>Node6</title>
<g id="a_node6"><a xlink:title=" ">
<polygon fill="white" stroke="#bfbfbf" points="786.14,-280.5 786.14,-299.5 838.14,-299.5 838.14,-280.5 786.14,-280.5"/>
<text text-anchor="middle" x="812.14" y="-287.5" font-family="Helvetica,sans-Serif" font-size="10.00">cassert</text>
</a>
</g>
</g>
<!-- Node1&#45;&gt;Node6 -->
<g id="edge5" class="edge">
<title>Node1&#45;&gt;Node6</title>
<path fill="none" stroke="midnightblue" d="M812.14,-336.08C812.14,-329.01 812.14,-318.86 812.14,-309.99"/>
<polygon fill="midnightblue" stroke="midnightblue" points="815.64,-309.75 812.14,-299.75 808.64,-309.75 815.64,-309.75"/>
</g>
<!-- Node7 -->
<g id="node7" class="node">
<title>Node7</title>
<g id="a_node7"><a xlink:href="exprtype_8hpp.html" target="_top" xlink:title=" ">
<polygon fill="white" stroke="black" points="215.64,-0.5 215.64,-19.5 342.64,-19.5 342.64,-0.5 215.64,-0.5"/>
<text text-anchor="middle" x="279.14" y="-7.5" font-family="Helvetica,sans-Serif" font-size="10.00">common/exprtype.hpp</text>
</a>
</g>
</g>
<!-- Node1&#45;&gt;Node7 -->
<g id="edge6" class="edge">
<title>Node1&#45;&gt;Node7</title>
<path fill="none" stroke="midnightblue" d="M746.91,-345.54C567.53,-346.43 76.41,-344.72 20.14,-300 -3.42,-281.27 1.14,-265.1 1.14,-235 1.14,-235 1.14,-235 1.14,-121 1.14,-73.9 140.86,-38.3 222.2,-21.56"/>
<polygon fill="midnightblue" stroke="midnightblue" points="223.19,-24.93 232.3,-19.52 221.8,-18.07 223.19,-24.93"/>
</g>
<!-- Node8 -->
<g id="node8" class="node">
<title>Node8</title>
<g id="a_node8"><a xlink:href="tables_8hpp.html" target="_top" xlink:title=" ">
<polygon fill="white" stroke="black" points="471.64,-56.5 471.64,-75.5 584.64,-75.5 584.64,-56.5 471.64,-56.5"/>
<text text-anchor="middle" x="528.14" y="-63.5" font-family="Helvetica,sans-Serif" font-size="10.00">common/tables.hpp</text>
</a>
</g>
</g>
<!-- Node1&#45;&gt;Node8 -->
<g id="edge7" class="edge">
<title>Node1&#45;&gt;Node8</title>
<path fill="none" stroke="midnightblue" d="M825.96,-336.25C837.68,-328.16 854.13,-315.14 864.14,-300 910.24,-230.28 938.21,-159.07 869.14,-112 825.81,-82.47 681.46,-72.28 595.08,-68.79"/>
<polygon fill="midnightblue" stroke="midnightblue" points="594.97,-65.28 584.84,-68.4 594.7,-72.28 594.97,-65.28"/>
</g>
<!-- Node11 -->
<g id="node11" class="node">
<title>Node11</title>
<g id="a_node11"><a xlink:href="obstacle_8hpp.html" target="_top" xlink:title=" ">
<polygon fill="white" stroke="black" points="979.64,-280.5 979.64,-299.5 1104.64,-299.5 1104.64,-280.5 979.64,-280.5"/>
<text text-anchor="middle" x="1042.14" y="-287.5" font-family="Helvetica,sans-Serif" font-size="10.00">common/obstacle.hpp</text>
</a>
</g>
</g>
<!-- Node1&#45;&gt;Node11 -->
<g id="edge12" class="edge">
<title>Node1&#45;&gt;Node11</title>
<path fill="none" stroke="midnightblue" d="M848.58,-336.44C888.54,-327.06 952.73,-311.99 996.13,-301.8"/>
<polygon fill="midnightblue" stroke="midnightblue" points="996.93,-305.21 1005.87,-299.52 995.33,-298.39 996.93,-305.21"/>
</g>
<!-- Node12 -->
<g id="node12" class="node">
<title>Node12</title>
<g id="a_node12"><a xlink:href="parser_8hpp.html" target="_top" xlink:title=" ">
<polygon fill="white" stroke="black" points="561.64,-280.5 561.64,-299.5 674.64,-299.5 674.64,-280.5 561.64,-280.5"/>
<text text-anchor="middle" x="618.14" y="-287.5" font-family="Helvetica,sans-Serif" font-size="10.00">compiler/parser.hpp</text>
</a>
</g>
</g>
<!-- Node1&#45;&gt;Node12 -->
<g id="edge13" class="edge">
<title>Node1&#45;&gt;Node12</title>
<path fill="none" stroke="midnightblue" d="M781.4,-336.44C748.2,-327.2 695.15,-312.44 658.58,-302.26"/>
<polygon fill="midnightblue" stroke="midnightblue" points="659.31,-298.83 648.74,-299.52 657.43,-305.57 659.31,-298.83"/>
</g>
<!-- Node8&#45;&gt;Node5 -->
<g id="edge10" class="edge">
<title>Node8&#45;&gt;Node5</title>
<path fill="none" stroke="midnightblue" d="M567.44,-56.44C615.71,-45.93 696.8,-28.28 742.39,-18.35"/>
<polygon fill="midnightblue" stroke="midnightblue" points="743.34,-21.72 752.36,-16.18 741.85,-14.88 743.34,-21.72"/>
</g>
<!-- Node8&#45;&gt;Node7 -->
<g id="edge11" class="edge">
<title>Node8&#45;&gt;Node7</title>
<path fill="none" stroke="midnightblue" d="M488.69,-56.44C445.25,-47.02 375.35,-31.87 328.36,-21.68"/>
<polygon fill="midnightblue" stroke="midnightblue" points="328.93,-18.22 318.41,-19.52 327.44,-25.06 328.93,-18.22"/>
</g>
<!-- Node9 -->
<g id="node9" class="node">
<title>Node9</title>
<g id="a_node9"><a xlink:title=" ">
<polygon fill="white" stroke="#bfbfbf" points="394.64,-0.5 394.64,-19.5 447.64,-19.5 447.64,-0.5 394.64,-0.5"/>
<text text-anchor="middle" x="421.14" y="-7.5" font-family="Helvetica,sans-Serif" font-size="10.00">cstddef</text>
</a>
</g>
</g>
<!-- Node8&#45;&gt;Node9 -->
<g id="edge8" class="edge">
<title>Node8&#45;&gt;Node9</title>
<path fill="none" stroke="midnightblue" d="M510.95,-56.32C493.79,-47.66 467.19,-34.24 447.39,-24.25"/>
<polygon fill="midnightblue" stroke="midnightblue" points="448.79,-21.04 438.29,-19.65 445.64,-27.28 448.79,-21.04"/>
</g>
<!-- Node10 -->
<g id="node10" class="node">
<title>Node10</title>
<g id="a_node10"><a xlink:title=" ">
<polygon fill="white" stroke="#bfbfbf" points="499.64,-0.5 499.64,-19.5 556.64,-19.5 556.64,-0.5 499.64,-0.5"/>
<text text-anchor="middle" x="528.14" y="-7.5" font-family="Helvetica,sans-Serif" font-size="10.00">ostream</text>
</a>
</g>
</g>
<!-- Node8&#45;&gt;Node10 -->
<g id="edge9" class="edge">
<title>Node8&#45;&gt;Node10</title>
<path fill="none" stroke="midnightblue" d="M528.14,-56.08C528.14,-49.01 528.14,-38.86 528.14,-29.99"/>
<polygon fill="midnightblue" stroke="midnightblue" points="531.64,-29.75 528.14,-19.75 524.64,-29.75 531.64,-29.75"/>
</g>
<!-- Node12&#45;&gt;Node2 -->
<g id="edge14" class="edge">
<title>Node12&#45;&gt;Node2</title>
<path fill="none" stroke="midnightblue" d="M630.55,-280.4C650.06,-267.13 689.36,-241.38 725.14,-224 752.23,-210.84 784.22,-199.01 808.35,-190.79"/>
<polygon fill="midnightblue" stroke="midnightblue" points="809.48,-194.11 817.85,-187.61 807.25,-187.47 809.48,-194.11"/>
</g>
<!-- Node12&#45;&gt;Node7 -->
<g id="edge17" class="edge">
<title>Node12&#45;&gt;Node7</title>
<path fill="none" stroke="midnightblue" d="M561.61,-287.43C459.89,-283.9 250.42,-273.23 184.14,-244 144.39,-226.47 111.14,-222.44 111.14,-179 111.14,-179 111.14,-179 111.14,-121 111.14,-65.23 176.75,-36.2 225.96,-22.28"/>
<polygon fill="midnightblue" stroke="midnightblue" points="227.13,-25.59 235.88,-19.61 225.31,-18.83 227.13,-25.59"/>
</g>
<!-- Node12&#45;&gt;Node8 -->
<g id="edge18" class="edge">
<title>Node12&#45;&gt;Node8</title>
<path fill="none" stroke="midnightblue" d="M626.39,-280.27C638.6,-267.48 662.39,-243.11 684.14,-224 703.64,-206.86 718.77,-211.34 730.14,-188 734.03,-180.01 734.81,-175.56 730.14,-168 698.58,-116.93 632.51,-90.82 584.51,-78.08"/>
<polygon fill="midnightblue" stroke="midnightblue" points="585.11,-74.63 574.56,-75.56 583.39,-81.41 585.11,-74.63"/>
</g>
<!-- Node13 -->
<g id="node13" class="node">
<title>Node13</title>
<g id="a_node13"><a xlink:title=" ">
<polygon fill="white" stroke="#bfbfbf" points="804.64,-112.5 804.64,-131.5 859.64,-131.5 859.64,-112.5 804.64,-112.5"/>
<text text-anchor="middle" x="832.14" y="-119.5" font-family="Helvetica,sans-Serif" font-size="10.00">fstream</text>
</a>
</g>
</g>
<!-- Node12&#45;&gt;Node13 -->
<g id="edge15" class="edge">
<title>Node12&#45;&gt;Node13</title>
<path fill="none" stroke="midnightblue" d="M674.83,-284.08C735.93,-277.79 828.21,-265.1 856.14,-244 884.86,-222.3 899.1,-200.74 884.14,-168 878.36,-155.36 867.09,-144.91 856.51,-137.27"/>
<polygon fill="midnightblue" stroke="midnightblue" points="858.18,-134.18 847.92,-131.53 854.29,-140 858.18,-134.18"/>
</g>
<!-- Node14 -->
<g id="node14" class="node">
<title>Node14</title>
<g id="a_node14"><a xlink:href="config_8hpp.html" target="_top" xlink:title=" ">
<polygon fill="white" stroke="black" points="139.64,-168.5 139.64,-187.5 206.64,-187.5 206.64,-168.5 139.64,-168.5"/>
<text text-anchor="middle" x="173.14" y="-175.5" font-family="Helvetica,sans-Serif" font-size="10.00">config.hpp</text>
</a>
</g>
</g>
<!-- Node12&#45;&gt;Node14 -->
<g id="edge16" class="edge">
<title>Node12&#45;&gt;Node14</title>
<path fill="none" stroke="midnightblue" d="M561.34,-289.49C461.6,-289.29 260.23,-283.79 204.14,-244 188.88,-233.17 180.87,-212.79 176.84,-197.72"/>
<polygon fill="midnightblue" stroke="midnightblue" points="180.24,-196.86 174.57,-187.9 173.42,-198.44 180.24,-196.86"/>
</g>
<!-- Node15 -->
<g id="node15" class="node">
<title>Node15</title>
<g id="a_node15"><a xlink:href="poliz_8hpp.html" target="_top" xlink:title=" ">
<polygon fill="white" stroke="black" points="417.64,-112.5 417.64,-131.5 524.64,-131.5 524.64,-112.5 417.64,-112.5"/>
<text text-anchor="middle" x="471.14" y="-119.5" font-family="Helvetica,sans-Serif" font-size="10.00">common/poliz.hpp</text>
</a>
</g>
</g>
<!-- Node12&#45;&gt;Node15 -->
<g id="edge19" class="edge">
<title>Node12&#45;&gt;Node15</title>
<path fill="none" stroke="midnightblue" d="M561.42,-280.5C538.05,-274.17 512.63,-263.17 496.14,-244 471.15,-214.97 468.86,-167.56 469.76,-141.54"/>
<polygon fill="midnightblue" stroke="midnightblue" points="473.26,-141.7 470.31,-131.52 466.27,-141.32 473.26,-141.7"/>
</g>
<!-- Node16 -->
<g id="node16" class="node">
<title>Node16</title>
<g id="a_node16"><a xlink:href="stack_8hpp.html" target="_top" xlink:title=" ">
<polygon fill="white" stroke="black" points="213.14,-224.5 213.14,-243.5 323.14,-243.5 323.14,-224.5 213.14,-224.5"/>
<text text-anchor="middle" x="268.14" y="-231.5" font-family="Helvetica,sans-Serif" font-size="10.00">common/stack.hpp</text>
</a>
</g>
</g>
<!-- Node12&#45;&gt;Node16 -->
<g id="edge22" class="edge">
<title>Node12&#45;&gt;Node16</title>
<path fill="none" stroke="midnightblue" d="M562.68,-280.44C500.47,-270.85 399.66,-255.29 333.63,-245.1"/>
<polygon fill="midnightblue" stroke="midnightblue" points="333.76,-241.58 323.34,-243.52 332.69,-248.5 333.76,-241.58"/>
</g>
<!-- Node17 -->
<g id="node17" class="node">
<title>Node17</title>
<g id="a_node17"><a xlink:href="cursor_8hpp.html" target="_top" xlink:title=" ">
<polygon fill="white" stroke="black" points="733.64,-224.5 733.64,-243.5 846.64,-243.5 846.64,-224.5 733.64,-224.5"/>
<text text-anchor="middle" x="790.14" y="-231.5" font-family="Helvetica,sans-Serif" font-size="10.00">compiler/cursor.hpp</text>
</a>
</g>
</g>
<!-- Node12&#45;&gt;Node17 -->
<g id="edge26" class="edge">
<title>Node12&#45;&gt;Node17</title>
<path fill="none" stroke="midnightblue" d="M645.39,-280.44C674.58,-271.28 721.06,-256.69 753.45,-246.52"/>
<polygon fill="midnightblue" stroke="midnightblue" points="754.52,-249.85 763.01,-243.52 752.42,-243.17 754.52,-249.85"/>
</g>
<!-- Node18 -->
<g id="node18" class="node">
<title>Node18</title>
<g id="a_node18"><a xlink:href="optimizer_8hpp.html" target="_top" xlink:title=" ">
<polygon fill="white" stroke="black" points="505.64,-224.5 505.64,-243.5 638.64,-243.5 638.64,-224.5 505.64,-224.5"/>
<text text-anchor="middle" x="572.14" y="-231.5" font-family="Helvetica,sans-Serif" font-size="10.00">optimizer/optimizer.hpp</text>
</a>
</g>
</g>
<!-- Node12&#45;&gt;Node18 -->
<g id="edge28" class="edge">
<title>Node12&#45;&gt;Node18</title>
<path fill="none" stroke="midnightblue" d="M610.54,-280.08C603.91,-272.3 594.12,-260.8 586.08,-251.37"/>
<polygon fill="midnightblue" stroke="midnightblue" points="588.74,-249.09 579.6,-243.75 583.42,-253.63 588.74,-249.09"/>
</g>
<!-- Node15&#45;&gt;Node7 -->
<g id="edge21" class="edge">
<title>Node15&#45;&gt;Node7</title>
<path fill="none" stroke="midnightblue" d="M457.93,-112.5C438.04,-99.79 399.12,-75.28 365.14,-56 345.54,-44.88 322.94,-33.09 305.83,-24.38"/>
<polygon fill="midnightblue" stroke="midnightblue" points="306.96,-21.02 296.46,-19.63 303.8,-27.27 306.96,-21.02"/>
</g>
<!-- Node15&#45;&gt;Node8 -->
<g id="edge20" class="edge">
<title>Node15&#45;&gt;Node8</title>
<path fill="none" stroke="midnightblue" d="M480.3,-112.32C488.64,-104.42 501.17,-92.55 511.32,-82.94"/>
<polygon fill="midnightblue" stroke="midnightblue" points="513.96,-85.25 518.82,-75.83 509.15,-80.17 513.96,-85.25"/>
</g>
<!-- Node16&#45;&gt;Node7 -->
<g id="edge25" class="edge">
<title>Node16&#45;&gt;Node7</title>
<path fill="none" stroke="midnightblue" d="M262.07,-224.32C249.02,-204.63 220.28,-154.92 230.14,-112 237.35,-80.64 255.64,-47.72 267.72,-28.3"/>
<polygon fill="midnightblue" stroke="midnightblue" points="270.79,-29.99 273.23,-19.68 264.89,-26.22 270.79,-29.99"/>
</g>
<!-- Node16&#45;&gt;Node9 -->
<g id="edge23" class="edge">
<title>Node16&#45;&gt;Node9</title>
<path fill="none" stroke="midnightblue" d="M270.21,-224.17C273.46,-211.26 280.51,-186.74 291.14,-168 323.71,-110.56 377.86,-53.45 404.83,-26.7"/>
<polygon fill="midnightblue" stroke="midnightblue" points="407.29,-29.2 411.98,-19.7 402.39,-24.2 407.29,-29.2"/>
</g>
<!-- Node16&#45;&gt;Node14 -->
<g id="edge24" class="edge">
<title>Node16&#45;&gt;Node14</title>
<path fill="none" stroke="midnightblue" d="M252.88,-224.32C237.92,-215.82 214.89,-202.73 197.41,-192.8"/>
<polygon fill="midnightblue" stroke="midnightblue" points="198.79,-189.55 188.37,-187.65 195.33,-195.64 198.79,-189.55"/>
</g>
<!-- Node17&#45;&gt;Node2 -->
<g id="edge27" class="edge">
<title>Node17&#45;&gt;Node2</title>
<path fill="none" stroke="midnightblue" d="M799.22,-224.08C807.31,-216.14 819.34,-204.34 829.05,-194.8"/>
<polygon fill="midnightblue" stroke="midnightblue" points="831.54,-197.25 836.23,-187.75 826.64,-192.26 831.54,-197.25"/>
</g>
<!-- Node18&#45;&gt;Node5 -->
<g id="edge29" class="edge">
<title>Node18&#45;&gt;Node5</title>
<path fill="none" stroke="midnightblue" d="M604.16,-224.46C677.73,-204.5 853.75,-154.79 869.14,-132 896.36,-91.69 836.71,-46.96 800.78,-24.89"/>
<polygon fill="midnightblue" stroke="midnightblue" points="802.18,-21.65 791.8,-19.53 798.6,-27.66 802.18,-21.65"/>
</g>
<!-- Node18&#45;&gt;Node8 -->
<g id="edge30" class="edge">
<title>Node18&#45;&gt;Node8</title>
<path fill="none" stroke="midnightblue" d="M569.77,-224.08C562.85,-197.95 542.51,-121.21 533.06,-85.58"/>
<polygon fill="midnightblue" stroke="midnightblue" points="536.36,-84.34 530.41,-75.57 529.59,-86.13 536.36,-84.34"/>
</g>
<!-- Node18&#45;&gt;Node15 -->
<g id="edge31" class="edge">
<title>Node18&#45;&gt;Node15</title>
<path fill="none" stroke="midnightblue" d="M564.22,-224.37C547.33,-205.97 507.57,-162.67 485.88,-139.05"/>
<polygon fill="midnightblue" stroke="midnightblue" points="488.37,-136.59 479.03,-131.59 483.21,-141.32 488.37,-136.59"/>
</g>
<!-- Node19 -->
<g id="node19" class="node">
<title>Node19</title>
<g id="a_node19"><a xlink:href="controlflow_8hpp.html" target="_top" xlink:title=" ">
<polygon fill="white" stroke="black" points="581.14,-168.5 581.14,-187.5 721.14,-187.5 721.14,-168.5 581.14,-168.5"/>
<text text-anchor="middle" x="651.14" y="-175.5" font-family="Helvetica,sans-Serif" font-size="10.00">optimizer/controlflow.hpp</text>
</a>
</g>
</g>
<!-- Node18&#45;&gt;Node19 -->
<g id="edge32" class="edge">
<title>Node18&#45;&gt;Node19</title>
<path fill="none" stroke="midnightblue" d="M584.83,-224.32C597.04,-215.98 615.72,-203.21 630.14,-193.35"/>
<polygon fill="midnightblue" stroke="midnightblue" points="632.2,-196.19 638.48,-187.65 628.25,-190.41 632.2,-196.19"/>
</g>
<!-- Node20 -->
<g id="node20" class="node">
<title>Node20</title>
<g id="a_node20"><a xlink:href="acyclicgraph_8hpp.html" target="_top" xlink:title=" ">
<polygon fill="white" stroke="black" points="300.64,-168.5 300.64,-187.5 449.64,-187.5 449.64,-168.5 300.64,-168.5"/>
<text text-anchor="middle" x="375.14" y="-175.5" font-family="Helvetica,sans-Serif" font-size="10.00">optimizer/acyclicgraph.hpp</text>
</a>
</g>
</g>
<!-- Node18&#45;&gt;Node20 -->
<g id="edge37" class="edge">
<title>Node18&#45;&gt;Node20</title>
<path fill="none" stroke="midnightblue" d="M540.93,-224.44C507.21,-215.2 453.34,-200.44 416.21,-190.26"/>
<polygon fill="midnightblue" stroke="midnightblue" points="416.78,-186.78 406.21,-187.52 414.93,-193.54 416.78,-186.78"/>
</g>
<!-- Node19&#45;&gt;Node5 -->
<g id="edge33" class="edge">
<title>Node19&#45;&gt;Node5</title>
<path fill="none" stroke="midnightblue" d="M657.86,-168.08C677.88,-141.49 737.33,-62.54 763.52,-27.76"/>
<polygon fill="midnightblue" stroke="midnightblue" points="766.47,-29.66 769.69,-19.57 760.88,-25.45 766.47,-29.66"/>
</g>
<!-- Node19&#45;&gt;Node8 -->
<g id="edge35" class="edge">
<title>Node19&#45;&gt;Node8</title>
<path fill="none" stroke="midnightblue" d="M641.49,-168.37C620.74,-149.81 571.65,-105.91 545.4,-82.44"/>
<polygon fill="midnightblue" stroke="midnightblue" points="547.53,-79.65 537.75,-75.59 542.87,-84.87 547.53,-79.65"/>
</g>
<!-- Node19&#45;&gt;Node13 -->
<g id="edge34" class="edge">
<title>Node19&#45;&gt;Node13</title>
<path fill="none" stroke="midnightblue" d="M679.82,-168.44C710.94,-159.16 760.74,-144.3 794.87,-134.12"/>
<polygon fill="midnightblue" stroke="midnightblue" points="795.9,-137.46 804.48,-131.25 793.9,-130.76 795.9,-137.46"/>
</g>
<!-- Node19&#45;&gt;Node15 -->
<g id="edge36" class="edge">
<title>Node19&#45;&gt;Node15</title>
<path fill="none" stroke="midnightblue" d="M622.62,-168.44C592.07,-159.28 543.43,-144.69 509.54,-134.52"/>
<polygon fill="midnightblue" stroke="midnightblue" points="510.11,-131.04 499.53,-131.52 508.1,-137.74 510.11,-131.04"/>
</g>
<!-- Node20&#45;&gt;Node4 -->
<g id="edge39" class="edge">
<title>Node20&#45;&gt;Node4</title>
<path fill="none" stroke="midnightblue" d="M357.24,-168.44C338.89,-159.68 310.13,-145.94 289.05,-135.86"/>
<polygon fill="midnightblue" stroke="midnightblue" points="290.49,-132.67 279.96,-131.52 287.48,-138.99 290.49,-132.67"/>
</g>
<!-- Node20&#45;&gt;Node5 -->
<g id="edge38" class="edge">
<title>Node20&#45;&gt;Node5</title>
<path fill="none" stroke="midnightblue" d="M412.49,-168.43C444.91,-160.51 492.85,-147.61 533.14,-132 616.48,-99.7 709.71,-48.85 752.43,-24.66"/>
<polygon fill="midnightblue" stroke="midnightblue" points="754.27,-27.64 761.23,-19.65 750.81,-21.56 754.27,-27.64"/>
</g>
<!-- Node20&#45;&gt;Node7 -->
<g id="edge40" class="edge">
<title>Node20&#45;&gt;Node7</title>
<path fill="none" stroke="midnightblue" d="M369.98,-168.08C354.74,-141.72 309.72,-63.88 289.35,-28.66"/>
<polygon fill="midnightblue" stroke="midnightblue" points="292.13,-26.47 284.1,-19.57 286.07,-29.98 292.13,-26.47"/>
</g>
<!-- Node20&#45;&gt;Node8 -->
<g id="edge41" class="edge">
<title>Node20&#45;&gt;Node8</title>
<path fill="none" stroke="midnightblue" d="M377.38,-168.15C381.33,-154.31 390.79,-127.53 408.14,-112 426.34,-95.72 450.99,-85.12 473.22,-78.34"/>
<polygon fill="midnightblue" stroke="midnightblue" points="474.25,-81.68 482.9,-75.57 472.32,-74.95 474.25,-81.68"/>
</g>
<!-- Node20&#45;&gt;Node15 -->
<g id="edge42" class="edge">
<title>Node20&#45;&gt;Node15</title>
<path fill="none" stroke="midnightblue" d="M390.56,-168.32C405.68,-159.82 428.96,-146.73 446.61,-136.8"/>
<polygon fill="midnightblue" stroke="midnightblue" points="448.75,-139.61 455.75,-131.65 445.32,-133.51 448.75,-139.61"/>
</g>
</g>
</svg>
