<?xml version="1.0" encoding="UTF-8" standalone="no"?>
<!DOCTYPE svg PUBLIC "-//W3C//DTD SVG 1.1//EN"
 "http://www.w3.org/Graphics/SVG/1.1/DTD/svg11.dtd">
<!-- Generated by graphviz version 2.43.0 (0)
 -->
<!-- Title: src/compiler/parser.hpp Pages: 1 -->
<svg width="877pt" height="308pt"
 viewBox="0.00 0.00 876.61 308.00" xmlns="http://www.w3.org/2000/svg" xmlns:xlink="http://www.w3.org/1999/xlink">
<g id="graph0" class="graph" transform="scale(1 1) rotate(0) translate(4 304)">
<title>src/compiler/parser.hpp</title>
<polygon fill="white" stroke="transparent" points="-4,4 -4,-304 872.61,-304 872.61,4 -4,4"/>
<!-- Node1 -->
<g id="node1" class="node">
<title>Node1</title>
<g id="a_node1"><a xlink:title=" ">
<polygon fill="#bfbfbf" stroke="black" points="259,-280.5 259,-299.5 390,-299.5 390,-280.5 259,-280.5"/>
<text text-anchor="middle" x="324.5" y="-287.5" font-family="Helvetica,sans-Serif" font-size="10.00">src/compiler/parser.hpp</text>
</a>
</g>
</g>
<!-- Node2 -->
<g id="node2" class="node">
<title>Node2</title>
<g id="a_node2"><a xlink:title=" ">
<polygon fill="white" stroke="#bfbfbf" points="59.5,-168.5 59.5,-187.5 119.5,-187.5 119.5,-168.5 59.5,-168.5"/>
<text text-anchor="middle" x="89.5" y="-175.5" font-family="Helvetica,sans-Serif" font-size="10.00">iostream</text>
</a>
</g>
</g>
<!-- Node1&#45;&gt;Node2 -->
<g id="edge1" class="edge">
<title>Node1&#45;&gt;Node2</title>
<path fill="none" stroke="midnightblue" d="M273.68,-280.45C241.36,-273.63 199.39,-262.15 165.5,-244 141.48,-231.14 118.35,-209.62 104.04,-194.89"/>
<polygon fill="midnightblue" stroke="midnightblue" points="106.47,-192.36 97.05,-187.5 101.39,-197.17 106.47,-192.36"/>
</g>
<!-- Node3 -->
<g id="node3" class="node">
<title>Node3</title>
<g id="a_node3"><a xlink:title=" ">
<polygon fill="white" stroke="#bfbfbf" points="793,-112.5 793,-131.5 848,-131.5 848,-112.5 793,-112.5"/>
<text text-anchor="middle" x="820.5" y="-119.5" font-family="Helvetica,sans-Serif" font-size="10.00">fstream</text>
</a>
</g>
</g>
<!-- Node1&#45;&gt;Node3 -->
<g id="edge2" class="edge">
<title>Node1&#45;&gt;Node3</title>
<path fill="none" stroke="midnightblue" d="M390.24,-285.38C463.94,-280.29 586.6,-268.72 689.5,-244 760.32,-226.99 801.72,-247.65 843.5,-188 853.75,-173.36 844.22,-153.69 834.5,-139.83"/>
<polygon fill="midnightblue" stroke="midnightblue" points="837.13,-137.51 828.29,-131.68 831.56,-141.76 837.13,-137.51"/>
</g>
<!-- Node4 -->
<g id="node4" class="node">
<title>Node4</title>
<g id="a_node4"><a xlink:href="config_8hpp.html" target="_top" xlink:title=" ">
<polygon fill="white" stroke="black" points="207.5,-168.5 207.5,-187.5 275.5,-187.5 275.5,-168.5 207.5,-168.5"/>
<text text-anchor="middle" x="241.5" y="-175.5" font-family="Helvetica,sans-Serif" font-size="10.00">config.hpp</text>
</a>
</g>
</g>
<!-- Node1&#45;&gt;Node4 -->
<g id="edge3" class="edge">
<title>Node1&#45;&gt;Node4</title>
<path fill="none" stroke="midnightblue" d="M306.19,-280.46C291.76,-272.83 272.2,-260.35 260.5,-244 250.77,-230.41 245.99,-211.86 243.66,-198.06"/>
<polygon fill="midnightblue" stroke="midnightblue" points="247.07,-197.21 242.22,-187.79 240.14,-198.18 247.07,-197.21"/>
</g>
<!-- Node5 -->
<g id="node5" class="node">
<title>Node5</title>
<g id="a_node5"><a xlink:href="exprtype_8hpp.html" target="_top" xlink:title=" ">
<polygon fill="white" stroke="black" points="240,-0.5 240,-19.5 367,-19.5 367,-0.5 240,-0.5"/>
<text text-anchor="middle" x="303.5" y="-7.5" font-family="Helvetica,sans-Serif" font-size="10.00">common/exprtype.hpp</text>
</a>
</g>
</g>
<!-- Node1&#45;&gt;Node5 -->
<g id="edge4" class="edge">
<title>Node1&#45;&gt;Node5</title>
<path fill="none" stroke="midnightblue" d="M293.04,-280.48C250.39,-266.8 179.5,-235.56 179.5,-179 179.5,-179 179.5,-179 179.5,-121 179.5,-72.26 233.77,-39.87 270.51,-23.52"/>
<polygon fill="midnightblue" stroke="midnightblue" points="272.06,-26.67 279.88,-19.52 269.31,-20.23 272.06,-26.67"/>
</g>
<!-- Node6 -->
<g id="node6" class="node">
<title>Node6</title>
<g id="a_node6"><a xlink:href="tables_8hpp.html" target="_top" xlink:title=" ">
<polygon fill="white" stroke="black" points="556,-56.5 556,-75.5 669,-75.5 669,-56.5 556,-56.5"/>
<text text-anchor="middle" x="612.5" y="-63.5" font-family="Helvetica,sans-Serif" font-size="10.00">common/tables.hpp</text>
</a>
</g>
</g>
<!-- Node1&#45;&gt;Node6 -->
<g id="edge5" class="edge">
<title>Node1&#45;&gt;Node6</title>
<path fill="none" stroke="midnightblue" d="M390.03,-288.18C522.46,-284.84 813.42,-268.32 860.5,-188 869.08,-173.36 874.63,-132.26 856.5,-112 833.43,-86.21 743.22,-75.07 679.23,-70.35"/>
<polygon fill="midnightblue" stroke="midnightblue" points="679.41,-66.85 669.19,-69.64 678.92,-73.83 679.41,-66.85"/>
</g>
<!-- Node10 -->
<g id="node10" class="node">
<title>Node10</title>
<g id="a_node10"><a xlink:href="poliz_8hpp.html" target="_top" xlink:title=" ">
<polygon fill="white" stroke="black" points="375,-112.5 375,-131.5 482,-131.5 482,-112.5 375,-112.5"/>
<text text-anchor="middle" x="428.5" y="-119.5" font-family="Helvetica,sans-Serif" font-size="10.00">common/poliz.hpp</text>
</a>
</g>
</g>
<!-- Node1&#45;&gt;Node10 -->
<g id="edge10" class="edge">
<title>Node1&#45;&gt;Node10</title>
<path fill="none" stroke="midnightblue" d="M342.66,-280.35C357,-272.66 376.52,-260.14 388.5,-244 411.72,-212.73 421.92,-167.25 426.03,-141.89"/>
<polygon fill="midnightblue" stroke="midnightblue" points="429.52,-142.18 427.51,-131.77 422.59,-141.16 429.52,-142.18"/>
</g>
<!-- Node12 -->
<g id="node12" class="node">
<title>Node12</title>
<g id="a_node12"><a xlink:href="stack_8hpp.html" target="_top" xlink:title=" ">
<polygon fill="white" stroke="black" points="269.5,-224.5 269.5,-243.5 379.5,-243.5 379.5,-224.5 269.5,-224.5"/>
<text text-anchor="middle" x="324.5" y="-231.5" font-family="Helvetica,sans-Serif" font-size="10.00">common/stack.hpp</text>
</a>
</g>
</g>
<!-- Node1&#45;&gt;Node12 -->
<g id="edge14" class="edge">
<title>Node1&#45;&gt;Node12</title>
<path fill="none" stroke="midnightblue" d="M324.5,-280.08C324.5,-273.01 324.5,-262.86 324.5,-253.99"/>
<polygon fill="midnightblue" stroke="midnightblue" points="328,-253.75 324.5,-243.75 321,-253.75 328,-253.75"/>
</g>
<!-- Node13 -->
<g id="node13" class="node">
<title>Node13</title>
<g id="a_node13"><a xlink:href="cursor_8hpp.html" target="_top" xlink:title=" ">
<polygon fill="white" stroke="black" points="0,-224.5 0,-243.5 113,-243.5 113,-224.5 0,-224.5"/>
<text text-anchor="middle" x="56.5" y="-231.5" font-family="Helvetica,sans-Serif" font-size="10.00">compiler/cursor.hpp</text>
</a>
</g>
</g>
<!-- Node1&#45;&gt;Node13 -->
<g id="edge18" class="edge">
<title>Node1&#45;&gt;Node13</title>
<path fill="none" stroke="midnightblue" d="M282.03,-280.44C235.09,-270.98 159.42,-255.74 108.85,-245.55"/>
<polygon fill="midnightblue" stroke="midnightblue" points="109.26,-242.06 98.77,-243.52 107.88,-248.92 109.26,-242.06"/>
</g>
<!-- Node14 -->
<g id="node14" class="node">
<title>Node14</title>
<g id="a_node14"><a xlink:href="optimizer_8hpp.html" target="_top" xlink:title=" ">
<polygon fill="white" stroke="black" points="546.5,-224.5 546.5,-243.5 680.5,-243.5 680.5,-224.5 546.5,-224.5"/>
<text text-anchor="middle" x="613.5" y="-231.5" font-family="Helvetica,sans-Serif" font-size="10.00">optimizer/optimizer.hpp</text>
</a>
</g>
</g>
<!-- Node1&#45;&gt;Node14 -->
<g id="edge20" class="edge">
<title>Node1&#45;&gt;Node14</title>
<path fill="none" stroke="midnightblue" d="M370.29,-280.44C421.24,-270.92 503.53,-255.55 558.07,-245.36"/>
<polygon fill="midnightblue" stroke="midnightblue" points="558.73,-248.79 567.92,-243.52 557.45,-241.91 558.73,-248.79"/>
</g>
<!-- Node6&#45;&gt;Node5 -->
<g id="edge9" class="edge">
<title>Node6&#45;&gt;Node5</title>
<path fill="none" stroke="midnightblue" d="M563.54,-56.44C508.96,-46.9 420.71,-31.48 362.4,-21.29"/>
<polygon fill="midnightblue" stroke="midnightblue" points="362.69,-17.79 352.23,-19.52 361.48,-24.69 362.69,-17.79"/>
</g>
<!-- Node7 -->
<g id="node7" class="node">
<title>Node7</title>
<g id="a_node7"><a xlink:title=" ">
<polygon fill="white" stroke="#bfbfbf" points="449,-0.5 449,-19.5 502,-19.5 502,-0.5 449,-0.5"/>
<text text-anchor="middle" x="475.5" y="-7.5" font-family="Helvetica,sans-Serif" font-size="10.00">cstddef</text>
</a>
</g>
</g>
<!-- Node6&#45;&gt;Node7 -->
<g id="edge6" class="edge">
<title>Node6&#45;&gt;Node7</title>
<path fill="none" stroke="midnightblue" d="M590.79,-56.44C568.15,-47.52 532.43,-33.44 506.75,-23.32"/>
<polygon fill="midnightblue" stroke="midnightblue" points="507.69,-19.93 497.11,-19.52 505.13,-26.44 507.69,-19.93"/>
</g>
<!-- Node8 -->
<g id="node8" class="node">
<title>Node8</title>
<g id="a_node8"><a xlink:title=" ">
<polygon fill="white" stroke="#bfbfbf" points="584,-0.5 584,-19.5 641,-19.5 641,-0.5 584,-0.5"/>
<text text-anchor="middle" x="612.5" y="-7.5" font-family="Helvetica,sans-Serif" font-size="10.00">ostream</text>
</a>
</g>
</g>
<!-- Node6&#45;&gt;Node8 -->
<g id="edge7" class="edge">
<title>Node6&#45;&gt;Node8</title>
<path fill="none" stroke="midnightblue" d="M612.5,-56.08C612.5,-49.01 612.5,-38.86 612.5,-29.99"/>
<polygon fill="midnightblue" stroke="midnightblue" points="616,-29.75 612.5,-19.75 609,-29.75 616,-29.75"/>
</g>
<!-- Node9 -->
<g id="node9" class="node">
<title>Node9</title>
<g id="a_node9"><a xlink:title=" ">
<polygon fill="white" stroke="#bfbfbf" points="707,-0.5 707,-19.5 754,-19.5 754,-0.5 707,-0.5"/>
<text text-anchor="middle" x="730.5" y="-7.5" font-family="Helvetica,sans-Serif" font-size="10.00">vector</text>
</a>
</g>
</g>
<!-- Node6&#45;&gt;Node9 -->
<g id="edge8" class="edge">
<title>Node6&#45;&gt;Node9</title>
<path fill="none" stroke="midnightblue" d="M631.2,-56.44C650.44,-47.64 680.65,-33.81 702.7,-23.72"/>
<polygon fill="midnightblue" stroke="midnightblue" points="704.25,-26.86 711.89,-19.52 701.34,-20.5 704.25,-26.86"/>
</g>
<!-- Node10&#45;&gt;Node5 -->
<g id="edge12" class="edge">
<title>Node10&#45;&gt;Node5</title>
<path fill="none" stroke="midnightblue" d="M413.09,-112.41C398.75,-104.06 377.14,-90.52 360.5,-76 343.62,-61.26 327.04,-41.61 316.16,-27.78"/>
<polygon fill="midnightblue" stroke="midnightblue" points="318.76,-25.43 309.88,-19.65 313.22,-29.7 318.76,-25.43"/>
</g>
<!-- Node10&#45;&gt;Node6 -->
<g id="edge11" class="edge">
<title>Node10&#45;&gt;Node6</title>
<path fill="none" stroke="midnightblue" d="M457.66,-112.44C489.01,-103.24 539.03,-88.56 573.7,-78.39"/>
<polygon fill="midnightblue" stroke="midnightblue" points="574.87,-81.69 583.48,-75.52 572.9,-74.97 574.87,-81.69"/>
</g>
<!-- Node11 -->
<g id="node11" class="node">
<title>Node11</title>
<g id="a_node11"><a xlink:href="cppcheck_8hpp.html" target="_top" xlink:title=" ">
<polygon fill="white" stroke="black" points="370,-56.5 370,-75.5 499,-75.5 499,-56.5 370,-56.5"/>
<text text-anchor="middle" x="434.5" y="-63.5" font-family="Helvetica,sans-Serif" font-size="10.00">common/cppcheck.hpp</text>
</a>
</g>
</g>
<!-- Node10&#45;&gt;Node11 -->
<g id="edge13" class="edge">
<title>Node10&#45;&gt;Node11</title>
<path fill="none" stroke="midnightblue" d="M429.49,-112.08C430.29,-104.93 431.43,-94.64 432.42,-85.69"/>
<polygon fill="midnightblue" stroke="midnightblue" points="435.9,-86.08 433.53,-75.75 428.94,-85.3 435.9,-86.08"/>
</g>
<!-- Node12&#45;&gt;Node4 -->
<g id="edge16" class="edge">
<title>Node12&#45;&gt;Node4</title>
<path fill="none" stroke="midnightblue" d="M311.16,-224.32C298.34,-215.98 278.72,-203.21 263.56,-193.35"/>
<polygon fill="midnightblue" stroke="midnightblue" points="265.09,-190.17 254.8,-187.65 261.28,-196.04 265.09,-190.17"/>
</g>
<!-- Node12&#45;&gt;Node5 -->
<g id="edge17" class="edge">
<title>Node12&#45;&gt;Node5</title>
<path fill="none" stroke="midnightblue" d="M323.68,-224.3C320.59,-191.63 309.64,-75.87 305.29,-29.96"/>
<polygon fill="midnightblue" stroke="midnightblue" points="308.77,-29.51 304.34,-19.88 301.8,-30.17 308.77,-29.51"/>
</g>
<!-- Node12&#45;&gt;Node7 -->
<g id="edge15" class="edge">
<title>Node12&#45;&gt;Node7</title>
<path fill="none" stroke="midnightblue" d="M325.19,-224.19C327.86,-192.12 338.5,-82.16 360.5,-56 380.03,-32.78 413.1,-21.48 438.78,-16.02"/>
<polygon fill="midnightblue" stroke="midnightblue" points="439.76,-19.4 448.92,-14.08 438.44,-12.52 439.76,-19.4"/>
</g>
<!-- Node13&#45;&gt;Node2 -->
<g id="edge19" class="edge">
<title>Node13&#45;&gt;Node2</title>
<path fill="none" stroke="midnightblue" d="M61.95,-224.08C66.51,-216.61 73.17,-205.72 78.79,-196.52"/>
<polygon fill="midnightblue" stroke="midnightblue" points="81.92,-198.11 84.15,-187.75 75.95,-194.46 81.92,-198.11"/>
</g>
<!-- Node14&#45;&gt;Node6 -->
<g id="edge22" class="edge">
<title>Node14&#45;&gt;Node6</title>
<path fill="none" stroke="midnightblue" d="M622.25,-224.29C630.06,-215.84 640.95,-202.25 645.5,-188 657.15,-151.52 637.22,-108.05 623.6,-84.42"/>
<polygon fill="midnightblue" stroke="midnightblue" points="626.43,-82.33 618.26,-75.58 620.43,-85.95 626.43,-82.33"/>
</g>
<!-- Node14&#45;&gt;Node9 -->
<g id="edge21" class="edge">
<title>Node14&#45;&gt;Node9</title>
<path fill="none" stroke="midnightblue" d="M680.63,-227.89C740,-221.97 820.63,-210.08 843.5,-188 868.15,-164.2 871.33,-142.89 856.5,-112 836.47,-70.26 789.85,-40.35 759.28,-24.37"/>
<polygon fill="midnightblue" stroke="midnightblue" points="760.48,-21.05 749.98,-19.67 757.33,-27.3 760.48,-21.05"/>
</g>
<!-- Node14&#45;&gt;Node10 -->
<g id="edge23" class="edge">
<title>Node14&#45;&gt;Node10</title>
<path fill="none" stroke="midnightblue" d="M566.28,-224.48C538.81,-217.85 504.57,-206.55 478.5,-188 461.16,-175.66 447.02,-155.57 438.26,-140.98"/>
<polygon fill="midnightblue" stroke="midnightblue" points="441.08,-138.87 433.08,-131.93 435,-142.35 441.08,-138.87"/>
</g>
<!-- Node15 -->
<g id="node15" class="node">
<title>Node15</title>
<g id="a_node15"><a xlink:href="controlflow_8hpp.html" target="_top" xlink:title=" ">
<polygon fill="white" stroke="black" points="694,-168.5 694,-187.5 835,-187.5 835,-168.5 694,-168.5"/>
<text text-anchor="middle" x="764.5" y="-175.5" font-family="Helvetica,sans-Serif" font-size="10.00">optimizer/controlflow.hpp</text>
</a>
</g>
</g>
<!-- Node14&#45;&gt;Node15 -->
<g id="edge24" class="edge">
<title>Node14&#45;&gt;Node15</title>
<path fill="none" stroke="midnightblue" d="M637.43,-224.44C662.72,-215.4 702.8,-201.06 731.18,-190.92"/>
<polygon fill="midnightblue" stroke="midnightblue" points="732.45,-194.18 740.69,-187.52 730.09,-187.59 732.45,-194.18"/>
</g>
<!-- Node16 -->
<g id="node16" class="node">
<title>Node16</title>
<g id="a_node16"><a xlink:href="acyclicgraph_8hpp.html" target="_top" xlink:title=" ">
<polygon fill="white" stroke="black" points="488,-168.5 488,-187.5 637,-187.5 637,-168.5 488,-168.5"/>
<text text-anchor="middle" x="562.5" y="-175.5" font-family="Helvetica,sans-Serif" font-size="10.00">optimizer/acyclicgraph.hpp</text>
</a>
</g>
</g>
<!-- Node14&#45;&gt;Node16 -->
<g id="edge29" class="edge">
<title>Node14&#45;&gt;Node16</title>
<path fill="none" stroke="midnightblue" d="M605.08,-224.08C597.65,-216.22 586.65,-204.57 577.69,-195.08"/>
<polygon fill="midnightblue" stroke="midnightblue" points="580.18,-192.62 570.76,-187.75 575.09,-197.42 580.18,-192.62"/>
</g>
<!-- Node15&#45;&gt;Node3 -->
<g id="edge26" class="edge">
<title>Node15&#45;&gt;Node3</title>
<path fill="none" stroke="midnightblue" d="M773.5,-168.32C781.69,-160.42 794.01,-148.55 803.97,-138.94"/>
<polygon fill="midnightblue" stroke="midnightblue" points="806.57,-141.29 811.34,-131.83 801.71,-136.26 806.57,-141.29"/>
</g>
<!-- Node15&#45;&gt;Node6 -->
<g id="edge27" class="edge">
<title>Node15&#45;&gt;Node6</title>
<path fill="none" stroke="midnightblue" d="M757.68,-168.07C747.03,-154.6 725.33,-128.87 702.5,-112 684.6,-98.77 662.22,-87.57 644.26,-79.64"/>
<polygon fill="midnightblue" stroke="midnightblue" points="645.36,-76.31 634.79,-75.59 642.61,-82.74 645.36,-76.31"/>
</g>
<!-- Node15&#45;&gt;Node9 -->
<g id="edge25" class="edge">
<title>Node15&#45;&gt;Node9</title>
<path fill="none" stroke="midnightblue" d="M762.67,-168.08C757.32,-141.95 741.6,-65.21 734.3,-29.58"/>
<polygon fill="midnightblue" stroke="midnightblue" points="737.69,-28.66 732.25,-19.57 730.83,-30.07 737.69,-28.66"/>
</g>
<!-- Node15&#45;&gt;Node10 -->
<g id="edge28" class="edge">
<title>Node15&#45;&gt;Node10</title>
<path fill="none" stroke="midnightblue" d="M711.26,-168.44C651.54,-158.85 554.76,-143.29 491.37,-133.1"/>
<polygon fill="midnightblue" stroke="midnightblue" points="491.92,-129.65 481.49,-131.52 490.81,-136.56 491.92,-129.65"/>
</g>
<!-- Node16&#45;&gt;Node5 -->
<g id="edge32" class="edge">
<title>Node16&#45;&gt;Node5</title>
<path fill="none" stroke="midnightblue" d="M554.67,-168.3C547.24,-159.66 536.26,-145.73 529.5,-132 513.98,-100.45 533.16,-80.05 507.5,-56 488.65,-38.33 427.57,-26.39 377.12,-19.27"/>
<polygon fill="midnightblue" stroke="midnightblue" points="377.57,-15.8 367.19,-17.91 376.62,-22.74 377.57,-15.8"/>
</g>
<!-- Node16&#45;&gt;Node6 -->
<g id="edge33" class="edge">
<title>Node16&#45;&gt;Node6</title>
<path fill="none" stroke="midnightblue" d="M569.27,-168.49C575.95,-159.76 586.06,-145.57 592.5,-132 599.62,-117 604.95,-98.87 608.31,-85.57"/>
<polygon fill="midnightblue" stroke="midnightblue" points="611.75,-86.25 610.67,-75.71 604.94,-84.62 611.75,-86.25"/>
</g>
<!-- Node16&#45;&gt;Node9 -->
<g id="edge30" class="edge">
<title>Node16&#45;&gt;Node9</title>
<path fill="none" stroke="midnightblue" d="M573.5,-168.37C594.62,-151.58 641.91,-112.92 677.5,-76 692.28,-60.67 707.47,-41.64 717.78,-28.14"/>
<polygon fill="midnightblue" stroke="midnightblue" points="720.85,-29.89 724.07,-19.8 715.26,-25.68 720.85,-29.89"/>
</g>
<!-- Node16&#45;&gt;Node10 -->
<g id="edge34" class="edge">
<title>Node16&#45;&gt;Node10</title>
<path fill="none" stroke="midnightblue" d="M541.27,-168.44C519.12,-159.52 484.18,-145.44 459.06,-135.32"/>
<polygon fill="midnightblue" stroke="midnightblue" points="460.22,-132.01 449.63,-131.52 457.6,-138.5 460.22,-132.01"/>
</g>
<!-- Node17 -->
<g id="node17" class="node">
<title>Node17</title>
<g id="a_node17"><a xlink:title=" ">
<polygon fill="white" stroke="#bfbfbf" points="539,-112.5 539,-131.5 584,-131.5 584,-112.5 539,-112.5"/>
<text text-anchor="middle" x="561.5" y="-119.5" font-family="Helvetica,sans-Serif" font-size="10.00">utility</text>
</a>
</g>
</g>
<!-- Node16&#45;&gt;Node17 -->
<g id="edge31" class="edge">
<title>Node16&#45;&gt;Node17</title>
<path fill="none" stroke="midnightblue" d="M562.33,-168.08C562.2,-161.01 562.02,-150.86 561.85,-141.99"/>
<polygon fill="midnightblue" stroke="midnightblue" points="565.35,-141.68 561.66,-131.75 558.35,-141.81 565.35,-141.68"/>
</g>
</g>
</svg>
