<?xml version="1.0" encoding="UTF-8" standalone="no"?>
<!DOCTYPE svg PUBLIC "-//W3C//DTD SVG 1.1//EN"
 "http://www.w3.org/Graphics/SVG/1.1/DTD/svg11.dtd">
<!-- Generated by graphviz version 2.43.0 (0)
 -->
<!-- Title: src/compiler/parser.hpp Pages: 1 -->
<svg width="513pt" height="196pt"
 viewBox="0.00 0.00 513.00 196.00" xmlns="http://www.w3.org/2000/svg" xmlns:xlink="http://www.w3.org/1999/xlink">
<g id="graph0" class="graph" transform="scale(1 1) rotate(0) translate(4 192)">
<title>src/compiler/parser.hpp</title>
<polygon fill="white" stroke="transparent" points="-4,4 -4,-192 509,-192 509,4 -4,4"/>
<!-- Node1 -->
<g id="node1" class="node">
<title>Node1</title>
<g id="a_node1"><a xlink:title=" ">
<polygon fill="#bfbfbf" stroke="black" points="117,-168.5 117,-187.5 248,-187.5 248,-168.5 117,-168.5"/>
<text text-anchor="middle" x="182.5" y="-175.5" font-family="Helvetica,sans-Serif" font-size="10.00">src/compiler/parser.hpp</text>
</a>
</g>
</g>
<!-- Node2 -->
<g id="node2" class="node">
<title>Node2</title>
<g id="a_node2"><a xlink:href="parser_8cpp.html" target="_top" xlink:title=" ">
<polygon fill="white" stroke="black" points="0,-112.5 0,-131.5 131,-131.5 131,-112.5 0,-112.5"/>
<text text-anchor="middle" x="65.5" y="-119.5" font-family="Helvetica,sans-Serif" font-size="10.00">src/compiler/parser.cpp</text>
</a>
</g>
</g>
<!-- Node1&#45;&gt;Node2 -->
<g id="edge1" class="edge">
<title>Node1&#45;&gt;Node2</title>
<path fill="none" stroke="midnightblue" d="M154.84,-164.23C132.95,-154.13 103,-140.31 83.95,-131.52"/>
<polygon fill="midnightblue" stroke="midnightblue" points="153.41,-167.43 163.96,-168.44 156.35,-161.08 153.41,-167.43"/>
</g>
<!-- Node3 -->
<g id="node3" class="node">
<title>Node3</title>
<g id="a_node3"><a xlink:href="flc_8cpp.html" target="_top" xlink:title=" ">
<polygon fill="white" stroke="black" points="149.5,-112.5 149.5,-131.5 215.5,-131.5 215.5,-112.5 149.5,-112.5"/>
<text text-anchor="middle" x="182.5" y="-119.5" font-family="Helvetica,sans-Serif" font-size="10.00">src/flc.cpp</text>
</a>
</g>
</g>
<!-- Node1&#45;&gt;Node3 -->
<g id="edge2" class="edge">
<title>Node1&#45;&gt;Node3</title>
<path fill="none" stroke="midnightblue" d="M182.5,-157.8C182.5,-148.91 182.5,-138.78 182.5,-131.75"/>
<polygon fill="midnightblue" stroke="midnightblue" points="179,-158.08 182.5,-168.08 186,-158.08 179,-158.08"/>
</g>
<!-- Node4 -->
<g id="node4" class="node">
<title>Node4</title>
<g id="a_node4"><a xlink:href="vmachine_8hpp.html" target="_top" xlink:title=" ">
<polygon fill="white" stroke="black" points="233.5,-112.5 233.5,-131.5 377.5,-131.5 377.5,-112.5 233.5,-112.5"/>
<text text-anchor="middle" x="305.5" y="-119.5" font-family="Helvetica,sans-Serif" font-size="10.00">src/runtime/vmachine.hpp</text>
</a>
</g>
</g>
<!-- Node1&#45;&gt;Node4 -->
<g id="edge3" class="edge">
<title>Node1&#45;&gt;Node4</title>
<path fill="none" stroke="midnightblue" d="M211.27,-164.37C234.31,-154.26 265.98,-140.35 286.1,-131.52"/>
<polygon fill="midnightblue" stroke="midnightblue" points="209.74,-161.22 201.99,-168.44 212.55,-167.63 209.74,-161.22"/>
</g>
<!-- Node5 -->
<g id="node5" class="node">
<title>Node5</title>
<g id="a_node5"><a xlink:href="debugger_8hpp.html" target="_top" xlink:title=" ">
<polygon fill="white" stroke="black" points="100,-56.5 100,-75.5 249,-75.5 249,-56.5 100,-56.5"/>
<text text-anchor="middle" x="174.5" y="-63.5" font-family="Helvetica,sans-Serif" font-size="10.00">src/debugger/debugger.hpp</text>
</a>
</g>
</g>
<!-- Node4&#45;&gt;Node5 -->
<g id="edge4" class="edge">
<title>Node4&#45;&gt;Node5</title>
<path fill="none" stroke="midnightblue" d="M275.18,-108.5C250.62,-98.38 216.68,-84.39 195.16,-75.52"/>
<polygon fill="midnightblue" stroke="midnightblue" points="274.16,-111.87 284.74,-112.44 276.83,-105.4 274.16,-111.87"/>
</g>
<!-- Node8 -->
<g id="node8" class="node">
<title>Node8</title>
<g id="a_node8"><a xlink:href="flvm_8cpp.html" target="_top" xlink:title=" ">
<polygon fill="white" stroke="black" points="267,-56.5 267,-75.5 344,-75.5 344,-56.5 267,-56.5"/>
<text text-anchor="middle" x="305.5" y="-63.5" font-family="Helvetica,sans-Serif" font-size="10.00">src/flvm.cpp</text>
</a>
</g>
</g>
<!-- Node4&#45;&gt;Node8 -->
<g id="edge7" class="edge">
<title>Node4&#45;&gt;Node8</title>
<path fill="none" stroke="midnightblue" d="M305.5,-101.8C305.5,-92.91 305.5,-82.78 305.5,-75.75"/>
<polygon fill="midnightblue" stroke="midnightblue" points="302,-102.08 305.5,-112.08 309,-102.08 302,-102.08"/>
</g>
<!-- Node9 -->
<g id="node9" class="node">
<title>Node9</title>
<g id="a_node9"><a xlink:href="vmachine_8cpp.html" target="_top" xlink:title=" ">
<polygon fill="white" stroke="black" points="362,-56.5 362,-75.5 505,-75.5 505,-56.5 362,-56.5"/>
<text text-anchor="middle" x="433.5" y="-63.5" font-family="Helvetica,sans-Serif" font-size="10.00">src/runtime/vmachine.cpp</text>
</a>
</g>
</g>
<!-- Node4&#45;&gt;Node9 -->
<g id="edge8" class="edge">
<title>Node4&#45;&gt;Node9</title>
<path fill="none" stroke="midnightblue" d="M335.12,-108.5C359.12,-98.38 392.28,-84.39 413.31,-75.52"/>
<polygon fill="midnightblue" stroke="midnightblue" points="333.64,-105.33 325.78,-112.44 336.36,-111.78 333.64,-105.33"/>
</g>
<!-- Node6 -->
<g id="node6" class="node">
<title>Node6</title>
<g id="a_node6"><a xlink:href="debugger_8cpp.html" target="_top" xlink:title=" ">
<polygon fill="white" stroke="black" points="34,-0.5 34,-19.5 183,-19.5 183,-0.5 34,-0.5"/>
<text text-anchor="middle" x="108.5" y="-7.5" font-family="Helvetica,sans-Serif" font-size="10.00">src/debugger/debugger.cpp</text>
</a>
</g>
</g>
<!-- Node5&#45;&gt;Node6 -->
<g id="edge5" class="edge">
<title>Node5&#45;&gt;Node6</title>
<path fill="none" stroke="midnightblue" d="M155.95,-49.82C144.12,-40.15 129.21,-27.95 119.3,-19.83"/>
<polygon fill="midnightblue" stroke="midnightblue" points="153.94,-52.7 163.9,-56.32 158.37,-47.28 153.94,-52.7"/>
</g>
<!-- Node7 -->
<g id="node7" class="node">
<title>Node7</title>
<g id="a_node7"><a xlink:href="fldbg_8cpp.html" target="_top" xlink:title=" ">
<polygon fill="white" stroke="black" points="201,-0.5 201,-19.5 280,-19.5 280,-0.5 201,-0.5"/>
<text text-anchor="middle" x="240.5" y="-7.5" font-family="Helvetica,sans-Serif" font-size="10.00">src/fldbg.cpp</text>
</a>
</g>
</g>
<!-- Node5&#45;&gt;Node7 -->
<g id="edge6" class="edge">
<title>Node5&#45;&gt;Node7</title>
<path fill="none" stroke="midnightblue" d="M193.05,-49.82C204.88,-40.15 219.79,-27.95 229.7,-19.83"/>
<polygon fill="midnightblue" stroke="midnightblue" points="190.63,-47.28 185.1,-56.32 195.06,-52.7 190.63,-47.28"/>
</g>
</g>
</svg>
