<?xml version="1.0" encoding="UTF-8" standalone="no"?>
<!DOCTYPE svg PUBLIC "-//W3C//DTD SVG 1.1//EN"
 "http://www.w3.org/Graphics/SVG/1.1/DTD/svg11.dtd">
<!-- Generated by graphviz version 2.43.0 (0)
 -->
<!-- Title: src/common/poliz.hpp Pages: 1 -->
<!--zoomable 252 -->
<svg id="main" version="1.1" xmlns="http://www.w3.org/2000/svg" xmlns:xlink="http://www.w3.org/1999/xlink" xml:space="preserve" onload="init(evt)">
<style type="text/css"><![CDATA[
.edge:hover path { stroke: red; }
.edge:hover polygon { stroke: red; fill: red; }
]]></style>
<script type="text/javascript"><![CDATA[
var edges = document.getElementsByTagName('g');
if (edges && edges.length) {
  for (var i=0;i<edges.length;i++) {
    if (edges[i].id.substr(0,4)=='edge') {
      edges[i].setAttribute('class','edge');
    }
  }
}
]]></script>
        <defs>
                <circle id="rim" cx="0" cy="0" r="7"/>
                <circle id="rim2" cx="0" cy="0" r="3.5"/>
                <g id="zoomPlus">
                        <use xlink:href="#rim" fill="#404040">
                                <set attributeName="fill" to="#808080" begin="zoomplus.mouseover" end="zoomplus.mouseout"/>
                        </use>
                        <path d="M-4,0h8M0,-4v8" fill="none" stroke="white" stroke-width="1.5" pointer-events="none"/>
                </g>
                <g id="zoomMin">
                        <use xlink:href="#rim" fill="#404040">
                                <set attributeName="fill" to="#808080" begin="zoomminus.mouseover" end="zoomminus.mouseout"/>
                        </use>
                        <path d="M-4,0h8" fill="none" stroke="white" stroke-width="1.5" pointer-events="none"/>
                </g>
                <g id="dirArrow">
                        <path fill="none" stroke="white" stroke-width="1.5" d="M0,-3.0v7 M-2.5,-0.5L0,-3.0L2.5,-0.5"/>
                </g>
               <g id="resetDef">
                       <use xlink:href="#rim2" fill="#404040">
                               <set attributeName="fill" to="#808080" begin="reset.mouseover" end="reset.mouseout"/>
                       </use>
               </g>
        </defs>

<script type="text/javascript">
var viewWidth = 1294;
var viewHeight = 252;
var sectionId = 'dynsection-1';
</script>
<script xlink:href="svgpan.js"/>
<svg id="graph" class="graph">
<g id="viewport">
<title>src/common/poliz.hpp</title>
<polygon fill="white" stroke="transparent" points="-4,4 -4,-248 1290,-248 1290,4 -4,4"/>
<!-- Node1 -->
<g id="node1" class="node">
<title>Node1</title>
<g id="a_node1"><a xlink:title=" ">
<polygon fill="#bfbfbf" stroke="black" points="271.5,-224.5 271.5,-243.5 395.5,-243.5 395.5,-224.5 271.5,-224.5"/>
<text text-anchor="middle" x="333.5" y="-231.5" font-family="Helvetica,sans-Serif" font-size="10.00">src/common/poliz.hpp</text>
</a>
</g>
</g>
<!-- Node2 -->
<g id="node2" class="node">
<title>Node2</title>
<g id="a_node2"><a xlink:href="poliz_8cpp.html" target="_top" xlink:title=" ">
<polygon fill="white" stroke="black" points="0,-168.5 0,-187.5 123,-187.5 123,-168.5 0,-168.5"/>
<text text-anchor="middle" x="61.5" y="-175.5" font-family="Helvetica,sans-Serif" font-size="10.00">src/common/poliz.cpp</text>
</a>
</g>
</g>
<!-- Node1&#45;&gt;Node2 -->
<g id="edge1" class="edge">
<title>Node1&#45;&gt;Node2</title>
<path fill="none" stroke="midnightblue" d="M280.48,-222.47C229.07,-212.27 152.06,-196.98 104.4,-187.52"/>
<polygon fill="midnightblue" stroke="midnightblue" points="279.91,-225.93 290.4,-224.44 281.27,-219.06 279.91,-225.93"/>
</g>
<!-- Node3 -->
<g id="node3" class="node">
<title>Node3</title>
<g id="a_node3"><a xlink:href="parser_8hpp.html" target="_top" xlink:title=" ">
<polygon fill="white" stroke="black" points="138,-56.5 138,-75.5 269,-75.5 269,-56.5 138,-56.5"/>
<text text-anchor="middle" x="203.5" y="-63.5" font-family="Helvetica,sans-Serif" font-size="10.00">src/compiler/parser.hpp</text>
</a>
</g>
</g>
<!-- Node1&#45;&gt;Node3 -->
<g id="edge2" class="edge">
<title>Node1&#45;&gt;Node3</title>
<path fill="none" stroke="midnightblue" d="M290.64,-221.38C250.07,-207.68 192.23,-180.4 170.5,-132 161.27,-111.45 180.83,-88.05 193.61,-75.7"/>
<polygon fill="midnightblue" stroke="midnightblue" points="289.71,-224.75 300.3,-224.49 291.86,-218.09 289.71,-224.75"/>
</g>
<!-- Node6 -->
<g id="node6" class="node">
<title>Node6</title>
<g id="a_node6"><a xlink:href="vmachine_8hpp.html" target="_top" xlink:title=" ">
<polygon fill="white" stroke="black" points="948.5,-168.5 948.5,-187.5 1092.5,-187.5 1092.5,-168.5 948.5,-168.5"/>
<text text-anchor="middle" x="1020.5" y="-175.5" font-family="Helvetica,sans-Serif" font-size="10.00">src/runtime/vmachine.hpp</text>
</a>
</g>
</g>
<!-- Node1&#45;&gt;Node6 -->
<g id="edge5" class="edge">
<title>Node1&#45;&gt;Node6</title>
<path fill="none" stroke="midnightblue" d="M405.69,-227.33C537.62,-216.96 816.25,-195.05 948.24,-184.68"/>
<polygon fill="midnightblue" stroke="midnightblue" points="405.37,-223.84 395.68,-228.11 405.92,-230.82 405.37,-223.84"/>
</g>
<!-- Node12 -->
<g id="node12" class="node">
<title>Node12</title>
<g id="a_node12"><a xlink:href="acyclicgraph_8hpp.html" target="_top" xlink:title=" ">
<polygon fill="white" stroke="black" points="250.5,-168.5 250.5,-187.5 416.5,-187.5 416.5,-168.5 250.5,-168.5"/>
<text text-anchor="middle" x="333.5" y="-175.5" font-family="Helvetica,sans-Serif" font-size="10.00">src/optimizer/acyclicgraph.hpp</text>
</a>
</g>
</g>
<!-- Node1&#45;&gt;Node12 -->
<g id="edge11" class="edge">
<title>Node1&#45;&gt;Node12</title>
<path fill="none" stroke="midnightblue" d="M333.5,-213.8C333.5,-204.91 333.5,-194.78 333.5,-187.75"/>
<polygon fill="midnightblue" stroke="midnightblue" points="330,-214.08 333.5,-224.08 337,-214.08 330,-214.08"/>
</g>
<!-- Node14 -->
<g id="node14" class="node">
<title>Node14</title>
<g id="a_node14"><a xlink:href="optimizer_8hpp.html" target="_top" xlink:title=" ">
<polygon fill="white" stroke="black" points="179.5,-112.5 179.5,-131.5 329.5,-131.5 329.5,-112.5 179.5,-112.5"/>
<text text-anchor="middle" x="254.5" y="-119.5" font-family="Helvetica,sans-Serif" font-size="10.00">src/optimizer/optimizer.hpp</text>
</a>
</g>
</g>
<!-- Node1&#45;&gt;Node14 -->
<g id="edge21" class="edge">
<title>Node1&#45;&gt;Node14</title>
<path fill="none" stroke="midnightblue" d="M284.9,-220.77C268.2,-213.99 251.26,-203.64 241.5,-188 230.41,-170.23 241.66,-144.87 249.09,-131.7"/>
<polygon fill="midnightblue" stroke="midnightblue" points="284.06,-224.19 294.65,-224.36 286.48,-217.62 284.06,-224.19"/>
</g>
<!-- Node17 -->
<g id="node17" class="node">
<title>Node17</title>
<g id="a_node17"><a xlink:href="controlflow_8hpp.html" target="_top" xlink:title=" ">
<polygon fill="white" stroke="black" points="434.5,-168.5 434.5,-187.5 592.5,-187.5 592.5,-168.5 434.5,-168.5"/>
<text text-anchor="middle" x="513.5" y="-175.5" font-family="Helvetica,sans-Serif" font-size="10.00">src/optimizer/controlflow.hpp</text>
</a>
</g>
</g>
<!-- Node1&#45;&gt;Node17 -->
<g id="edge17" class="edge">
<title>Node1&#45;&gt;Node17</title>
<path fill="none" stroke="midnightblue" d="M371.61,-221.57C405.56,-211.38 454.49,-196.7 485.11,-187.52"/>
<polygon fill="midnightblue" stroke="midnightblue" points="370.59,-218.22 362.02,-224.44 372.61,-224.92 370.59,-218.22"/>
</g>
<!-- Node19 -->
<g id="node19" class="node">
<title>Node19</title>
<g id="a_node19"><a xlink:href="util_8hpp.html" target="_top" xlink:title=" ">
<polygon fill="white" stroke="black" points="610.5,-168.5 610.5,-187.5 730.5,-187.5 730.5,-168.5 610.5,-168.5"/>
<text text-anchor="middle" x="670.5" y="-175.5" font-family="Helvetica,sans-Serif" font-size="10.00">src/optimizer/util.hpp</text>
</a>
</g>
</g>
<!-- Node1&#45;&gt;Node19 -->
<g id="edge22" class="edge">
<title>Node1&#45;&gt;Node19</title>
<path fill="none" stroke="midnightblue" d="M396.82,-222.85C460.49,-212.65 557.56,-197.1 617.35,-187.52"/>
<polygon fill="midnightblue" stroke="midnightblue" points="396.22,-219.41 386.9,-224.44 397.33,-226.32 396.22,-219.41"/>
</g>
<!-- Node4 -->
<g id="node4" class="node">
<title>Node4</title>
<g id="a_node4"><a xlink:href="parser_8cpp.html" target="_top" xlink:title=" ">
<polygon fill="white" stroke="black" points="80.5,-0.5 80.5,-19.5 210.5,-19.5 210.5,-0.5 80.5,-0.5"/>
<text text-anchor="middle" x="145.5" y="-7.5" font-family="Helvetica,sans-Serif" font-size="10.00">src/compiler/parser.cpp</text>
</a>
</g>
</g>
<!-- Node3&#45;&gt;Node4 -->
<g id="edge3" class="edge">
<title>Node3&#45;&gt;Node4</title>
<path fill="none" stroke="midnightblue" d="M186.59,-49.25C176.3,-39.67 163.53,-27.79 154.99,-19.83"/>
<polygon fill="midnightblue" stroke="midnightblue" points="184.48,-52.07 194.18,-56.32 189.25,-46.95 184.48,-52.07"/>
</g>
<!-- Node5 -->
<g id="node5" class="node">
<title>Node5</title>
<g id="a_node5"><a xlink:href="flc_8cpp.html" target="_top" xlink:title=" ">
<polygon fill="white" stroke="black" points="229,-0.5 229,-19.5 294,-19.5 294,-0.5 229,-0.5"/>
<text text-anchor="middle" x="261.5" y="-7.5" font-family="Helvetica,sans-Serif" font-size="10.00">src/flc.cpp</text>
</a>
</g>
</g>
<!-- Node3&#45;&gt;Node5 -->
<g id="edge4" class="edge">
<title>Node3&#45;&gt;Node5</title>
<path fill="none" stroke="midnightblue" d="M220.41,-49.25C230.7,-39.67 243.47,-27.79 252.01,-19.83"/>
<polygon fill="midnightblue" stroke="midnightblue" points="217.75,-46.95 212.82,-56.32 222.52,-52.07 217.75,-46.95"/>
</g>
<!-- Node7 -->
<g id="node7" class="node">
<title>Node7</title>
<g id="a_node7"><a xlink:href="debugger_8hpp.html" target="_top" xlink:title=" ">
<polygon fill="white" stroke="black" points="881,-112.5 881,-131.5 1030,-131.5 1030,-112.5 881,-112.5"/>
<text text-anchor="middle" x="955.5" y="-119.5" font-family="Helvetica,sans-Serif" font-size="10.00">src/debugger/debugger.hpp</text>
</a>
</g>
</g>
<!-- Node6&#45;&gt;Node7 -->
<g id="edge6" class="edge">
<title>Node6&#45;&gt;Node7</title>
<path fill="none" stroke="midnightblue" d="M1002.23,-161.82C990.58,-152.15 975.9,-139.95 966.13,-131.83"/>
<polygon fill="midnightblue" stroke="midnightblue" points="1000.13,-164.63 1010.06,-168.32 1004.6,-159.24 1000.13,-164.63"/>
</g>
<!-- Node10 -->
<g id="node10" class="node">
<title>Node10</title>
<g id="a_node10"><a xlink:href="flvm_8cpp.html" target="_top" xlink:title=" ">
<polygon fill="white" stroke="black" points="1048.5,-112.5 1048.5,-131.5 1124.5,-131.5 1124.5,-112.5 1048.5,-112.5"/>
<text text-anchor="middle" x="1086.5" y="-119.5" font-family="Helvetica,sans-Serif" font-size="10.00">src/flvm.cpp</text>
</a>
</g>
</g>
<!-- Node6&#45;&gt;Node10 -->
<g id="edge9" class="edge">
<title>Node6&#45;&gt;Node10</title>
<path fill="none" stroke="midnightblue" d="M1039.05,-161.82C1050.88,-152.15 1065.79,-139.95 1075.7,-131.83"/>
<polygon fill="midnightblue" stroke="midnightblue" points="1036.63,-159.28 1031.1,-168.32 1041.06,-164.7 1036.63,-159.28"/>
</g>
<!-- Node11 -->
<g id="node11" class="node">
<title>Node11</title>
<g id="a_node11"><a xlink:href="vmachine_8cpp.html" target="_top" xlink:title=" ">
<polygon fill="white" stroke="black" points="1143,-112.5 1143,-131.5 1286,-131.5 1286,-112.5 1143,-112.5"/>
<text text-anchor="middle" x="1214.5" y="-119.5" font-family="Helvetica,sans-Serif" font-size="10.00">src/runtime/vmachine.cpp</text>
</a>
</g>
</g>
<!-- Node6&#45;&gt;Node11 -->
<g id="edge10" class="edge">
<title>Node6&#45;&gt;Node11</title>
<path fill="none" stroke="midnightblue" d="M1061.1,-165.7C1097.72,-155.51 1150.76,-140.74 1183.9,-131.52"/>
<polygon fill="midnightblue" stroke="midnightblue" points="1059.94,-162.39 1051.24,-168.44 1061.81,-169.13 1059.94,-162.39"/>
</g>
<!-- Node8 -->
<g id="node8" class="node">
<title>Node8</title>
<g id="a_node8"><a xlink:href="debugger_8cpp.html" target="_top" xlink:title=" ">
<polygon fill="white" stroke="black" points="815.5,-56.5 815.5,-75.5 963.5,-75.5 963.5,-56.5 815.5,-56.5"/>
<text text-anchor="middle" x="889.5" y="-63.5" font-family="Helvetica,sans-Serif" font-size="10.00">src/debugger/debugger.cpp</text>
</a>
</g>
</g>
<!-- Node7&#45;&gt;Node8 -->
<g id="edge7" class="edge">
<title>Node7&#45;&gt;Node8</title>
<path fill="none" stroke="midnightblue" d="M936.95,-105.82C925.12,-96.15 910.21,-83.95 900.3,-75.83"/>
<polygon fill="midnightblue" stroke="midnightblue" points="934.94,-108.7 944.9,-112.32 939.37,-103.28 934.94,-108.7"/>
</g>
<!-- Node9 -->
<g id="node9" class="node">
<title>Node9</title>
<g id="a_node9"><a xlink:href="fldbg_8cpp.html" target="_top" xlink:title=" ">
<polygon fill="white" stroke="black" points="981.5,-56.5 981.5,-75.5 1059.5,-75.5 1059.5,-56.5 981.5,-56.5"/>
<text text-anchor="middle" x="1020.5" y="-63.5" font-family="Helvetica,sans-Serif" font-size="10.00">src/fldbg.cpp</text>
</a>
</g>
</g>
<!-- Node7&#45;&gt;Node9 -->
<g id="edge8" class="edge">
<title>Node7&#45;&gt;Node9</title>
<path fill="none" stroke="midnightblue" d="M973.77,-105.82C985.42,-96.15 1000.1,-83.95 1009.87,-75.83"/>
<polygon fill="midnightblue" stroke="midnightblue" points="971.4,-103.24 965.94,-112.32 975.87,-108.63 971.4,-103.24"/>
</g>
<!-- Node13 -->
<g id="node13" class="node">
<title>Node13</title>
<g id="a_node13"><a xlink:href="acyclicgraph_8cpp.html" target="_top" xlink:title=" ">
<polygon fill="white" stroke="black" points="485,-112.5 485,-131.5 650,-131.5 650,-112.5 485,-112.5"/>
<text text-anchor="middle" x="567.5" y="-119.5" font-family="Helvetica,sans-Serif" font-size="10.00">src/optimizer/acyclicgraph.cpp</text>
</a>
</g>
</g>
<!-- Node12&#45;&gt;Node13 -->
<g id="edge12" class="edge">
<title>Node12&#45;&gt;Node13</title>
<path fill="none" stroke="midnightblue" d="M380.5,-166.15C424.72,-155.95 490.02,-140.88 530.6,-131.52"/>
<polygon fill="midnightblue" stroke="midnightblue" points="379.53,-162.78 370.58,-168.44 381.11,-169.61 379.53,-162.78"/>
</g>
<!-- Node12&#45;&gt;Node14 -->
<g id="edge13" class="edge">
<title>Node12&#45;&gt;Node14</title>
<path fill="none" stroke="midnightblue" d="M312.47,-162.62C298.03,-152.76 279.36,-139.99 267.16,-131.65"/>
<polygon fill="midnightblue" stroke="midnightblue" points="310.58,-165.57 320.81,-168.32 314.53,-159.79 310.58,-165.57"/>
</g>
<!-- Node16 -->
<g id="node16" class="node">
<title>Node16</title>
<g id="a_node16"><a xlink:href="util_8cpp.html" target="_top" xlink:title=" ">
<polygon fill="white" stroke="black" points="348,-112.5 348,-131.5 467,-131.5 467,-112.5 348,-112.5"/>
<text text-anchor="middle" x="407.5" y="-119.5" font-family="Helvetica,sans-Serif" font-size="10.00">src/optimizer/util.cpp</text>
</a>
</g>
</g>
<!-- Node12&#45;&gt;Node16 -->
<g id="edge16" class="edge">
<title>Node12&#45;&gt;Node16</title>
<path fill="none" stroke="midnightblue" d="M353.53,-162.38C366.91,-152.62 384.06,-140.11 395.39,-131.83"/>
<polygon fill="midnightblue" stroke="midnightblue" points="351.4,-159.6 345.39,-168.32 355.53,-165.26 351.4,-159.6"/>
</g>
<!-- Node14&#45;&gt;Node3 -->
<g id="edge14" class="edge">
<title>Node14&#45;&gt;Node3</title>
<path fill="none" stroke="midnightblue" d="M239.12,-104.72C230.13,-95.2 219.14,-83.56 211.76,-75.75"/>
<polygon fill="midnightblue" stroke="midnightblue" points="236.67,-107.22 246.08,-112.08 241.76,-102.41 236.67,-107.22"/>
</g>
<!-- Node15 -->
<g id="node15" class="node">
<title>Node15</title>
<g id="a_node15"><a xlink:href="optimizer_8cpp.html" target="_top" xlink:title=" ">
<polygon fill="white" stroke="black" points="500,-56.5 500,-75.5 649,-75.5 649,-56.5 500,-56.5"/>
<text text-anchor="middle" x="574.5" y="-63.5" font-family="Helvetica,sans-Serif" font-size="10.00">src/optimizer/optimizer.cpp</text>
</a>
</g>
</g>
<!-- Node14&#45;&gt;Node15 -->
<g id="edge15" class="edge">
<title>Node14&#45;&gt;Node15</title>
<path fill="none" stroke="midnightblue" d="M315.37,-110.73C375.84,-100.52 467.49,-85.06 524.03,-75.52"/>
<polygon fill="midnightblue" stroke="midnightblue" points="314.48,-107.33 305.2,-112.44 315.65,-114.23 314.48,-107.33"/>
</g>
<!-- Node17&#45;&gt;Node14 -->
<g id="edge19" class="edge">
<title>Node17&#45;&gt;Node14</title>
<path fill="none" stroke="midnightblue" d="M462.4,-166.35C413.45,-156.14 340.55,-140.94 295.35,-131.52"/>
<polygon fill="midnightblue" stroke="midnightblue" points="461.96,-169.83 472.46,-168.44 463.39,-162.98 461.96,-169.83"/>
</g>
<!-- Node17&#45;&gt;Node16 -->
<g id="edge20" class="edge">
<title>Node17&#45;&gt;Node16</title>
<path fill="none" stroke="midnightblue" d="M487.44,-163.73C467.82,-153.73 441.47,-140.31 424.49,-131.65"/>
<polygon fill="midnightblue" stroke="midnightblue" points="485.97,-166.9 496.47,-168.32 489.15,-160.67 485.97,-166.9"/>
</g>
<!-- Node18 -->
<g id="node18" class="node">
<title>Node18</title>
<g id="a_node18"><a xlink:href="controlflow_8cpp.html" target="_top" xlink:title=" ">
<polygon fill="white" stroke="black" points="668,-112.5 668,-131.5 825,-131.5 825,-112.5 668,-112.5"/>
<text text-anchor="middle" x="746.5" y="-119.5" font-family="Helvetica,sans-Serif" font-size="10.00">src/optimizer/controlflow.cpp</text>
</a>
</g>
</g>
<!-- Node17&#45;&gt;Node18 -->
<g id="edge18" class="edge">
<title>Node17&#45;&gt;Node18</title>
<path fill="none" stroke="midnightblue" d="M560.3,-166.15C604.33,-155.95 669.35,-140.88 709.75,-131.52"/>
<polygon fill="midnightblue" stroke="midnightblue" points="559.37,-162.78 550.42,-168.44 560.95,-169.6 559.37,-162.78"/>
</g>
<!-- Node19&#45;&gt;Node13 -->
<g id="edge23" class="edge">
<title>Node19&#45;&gt;Node13</title>
<path fill="none" stroke="midnightblue" d="M644.92,-163.59C625.88,-153.61 600.44,-140.27 584.01,-131.65"/>
<polygon fill="midnightblue" stroke="midnightblue" points="643.47,-166.78 653.95,-168.32 646.72,-160.58 643.47,-166.78"/>
</g>
<!-- Node19&#45;&gt;Node15 -->
<g id="edge25" class="edge">
<title>Node19&#45;&gt;Node15</title>
<path fill="none" stroke="midnightblue" d="M740.75,-171.65C798.14,-164.57 865.15,-148.42 834.5,-112 811.16,-84.27 717.32,-73.63 649.06,-69.54"/>
<polygon fill="midnightblue" stroke="midnightblue" points="740.07,-168.2 730.54,-172.83 740.88,-175.16 740.07,-168.2"/>
</g>
<!-- Node19&#45;&gt;Node16 -->
<g id="edge26" class="edge">
<title>Node19&#45;&gt;Node16</title>
<path fill="none" stroke="midnightblue" d="M618.92,-166.41C569.22,-156.2 494.97,-140.96 448.98,-131.52"/>
<polygon fill="midnightblue" stroke="midnightblue" points="618.33,-169.86 628.83,-168.44 619.74,-163 618.33,-169.86"/>
</g>
<!-- Node19&#45;&gt;Node18 -->
<g id="edge24" class="edge">
<title>Node19&#45;&gt;Node18</title>
<path fill="none" stroke="midnightblue" d="M691.08,-162.38C704.81,-152.62 722.43,-140.11 734.07,-131.83"/>
<polygon fill="midnightblue" stroke="midnightblue" points="688.84,-159.68 682.71,-168.32 692.89,-165.38 688.84,-159.68"/>
</g>
</g>
</svg>
        <g id="navigator" transform="translate(0 0)" fill="#404254">
                <rect fill="#f2f5e9" fill-opacity="0.5" stroke="#606060" stroke-width=".5" x="0" y="0" width="60" height="60"/>
                <use id="zoomplus" xlink:href="#zoomPlus" x="17" y="9" onmousedown="handleZoom(evt,'in')"/>
                <use id="zoomminus" xlink:href="#zoomMin" x="42" y="9" onmousedown="handleZoom(evt,'out')"/>
                <use id="reset" xlink:href="#resetDef" x="30" y="36" onmousedown="handleReset()"/>
                <g id="arrowUp" xlink:href="#dirArrow" transform="translate(30 24)" onmousedown="handlePan(0,-1)">
                  <use xlink:href="#rim" fill="#404040">
                        <set attributeName="fill" to="#808080" begin="arrowUp.mouseover" end="arrowUp.mouseout"/>
                  </use>
                  <path fill="none" stroke="white" stroke-width="1.5" d="M0,-3.0v7 M-2.5,-0.5L0,-3.0L2.5,-0.5"/>
                </g>
                <g id="arrowRight" xlink:href="#dirArrow" transform="rotate(90) translate(36 -43)" onmousedown="handlePan(1,0)">
                  <use xlink:href="#rim" fill="#404040">
                        <set attributeName="fill" to="#808080" begin="arrowRight.mouseover" end="arrowRight.mouseout"/>
                  </use>
                  <path fill="none" stroke="white" stroke-width="1.5" d="M0,-3.0v7 M-2.5,-0.5L0,-3.0L2.5,-0.5"/>
                </g>
                <g id="arrowDown" xlink:href="#dirArrow" transform="rotate(180) translate(-30 -48)" onmousedown="handlePan(0,1)">
                  <use xlink:href="#rim" fill="#404040">
                        <set attributeName="fill" to="#808080" begin="arrowDown.mouseover" end="arrowDown.mouseout"/>
                  </use>
                  <path fill="none" stroke="white" stroke-width="1.5" d="M0,-3.0v7 M-2.5,-0.5L0,-3.0L2.5,-0.5"/>
                </g>
                <g id="arrowLeft" xlink:href="#dirArrow" transform="rotate(270) translate(-36 17)" onmousedown="handlePan(-1,0)">
                  <use xlink:href="#rim" fill="#404040">
                        <set attributeName="fill" to="#808080" begin="arrowLeft.mouseover" end="arrowLeft.mouseout"/>
                  </use>
                  <path fill="none" stroke="white" stroke-width="1.5" d="M0,-3.0v7 M-2.5,-0.5L0,-3.0L2.5,-0.5"/>
                </g>
        </g>
        <svg viewBox="0 0 15 15" width="100%" height="30px" preserveAspectRatio="xMaxYMin meet">
         <g id="arrow_out" transform="scale(0.3 0.3)">
          <a xlink:href="poliz_8hpp__dep__incl_org.svg" target="_base">
           <rect id="button" ry="5" rx="5" y="6" x="6" height="38" width="38"
                fill="#f2f5e9" fill-opacity="0.5" stroke="#606060" stroke-width="1.0"/>
           <path id="arrow"
             d="M 11.500037,31.436501 C 11.940474,20.09759 22.043105,11.32322 32.158766,21.979434 L 37.068811,17.246167 C 37.068811,17.246167 37.088388,32 37.088388,32 L 22.160133,31.978069 C 22.160133,31.978069 26.997745,27.140456 26.997745,27.140456 C 18.528582,18.264221 13.291696,25.230495 11.500037,31.436501 z"
             style="fill:#404040;"/>
          </a>
         </g>
        </svg>
</svg>
