<?xml version="1.0" encoding="UTF-8" standalone="no"?>
<!DOCTYPE svg PUBLIC "-//W3C//DTD SVG 1.1//EN"
 "http://www.w3.org/Graphics/SVG/1.1/DTD/svg11.dtd">
<!-- Generated by graphviz version 2.43.0 (0)
 -->
<!-- Title: src/common/poliz.hpp Pages: 1 -->
<svg width="1296pt" height="252pt"
 viewBox="0.00 0.00 1296.00 252.00" xmlns="http://www.w3.org/2000/svg" xmlns:xlink="http://www.w3.org/1999/xlink">
<g id="graph0" class="graph" transform="scale(1 1) rotate(0) translate(4 248)">
<title>src/common/poliz.hpp</title>
<polygon fill="white" stroke="transparent" points="-4,4 -4,-248 1292,-248 1292,4 -4,4"/>
<!-- Node1 -->
<g id="node1" class="node">
<title>Node1</title>
<g id="a_node1"><a xlink:title=" ">
<polygon fill="#bfbfbf" stroke="black" points="271.5,-224.5 271.5,-243.5 395.5,-243.5 395.5,-224.5 271.5,-224.5"/>
<text text-anchor="middle" x="333.5" y="-231.5" font-family="Helvetica,sans-Serif" font-size="10.00">src/common/poliz.hpp</text>
</a>
</g>
</g>
<!-- Node2 -->
<g id="node2" class="node">
<title>Node2</title>
<g id="a_node2"><a xlink:href="poliz_8cpp.html" target="_top" xlink:title=" ">
<polygon fill="white" stroke="black" points="0,-168.5 0,-187.5 123,-187.5 123,-168.5 0,-168.5"/>
<text text-anchor="middle" x="61.5" y="-175.5" font-family="Helvetica,sans-Serif" font-size="10.00">src/common/poliz.cpp</text>
</a>
</g>
</g>
<!-- Node1&#45;&gt;Node2 -->
<g id="edge1" class="edge">
<title>Node1&#45;&gt;Node2</title>
<path fill="none" stroke="midnightblue" d="M280.48,-222.47C229.07,-212.27 152.06,-196.98 104.4,-187.52"/>
<polygon fill="midnightblue" stroke="midnightblue" points="279.91,-225.93 290.4,-224.44 281.27,-219.06 279.91,-225.93"/>
</g>
<!-- Node3 -->
<g id="node3" class="node">
<title>Node3</title>
<g id="a_node3"><a xlink:href="parser_8hpp.html" target="_top" xlink:title=" ">
<polygon fill="white" stroke="black" points="138,-56.5 138,-75.5 269,-75.5 269,-56.5 138,-56.5"/>
<text text-anchor="middle" x="203.5" y="-63.5" font-family="Helvetica,sans-Serif" font-size="10.00">src/compiler/parser.hpp</text>
</a>
</g>
</g>
<!-- Node1&#45;&gt;Node3 -->
<g id="edge2" class="edge">
<title>Node1&#45;&gt;Node3</title>
<path fill="none" stroke="midnightblue" d="M290.64,-221.38C250.07,-207.68 192.23,-180.4 170.5,-132 161.27,-111.45 180.83,-88.05 193.61,-75.7"/>
<polygon fill="midnightblue" stroke="midnightblue" points="289.71,-224.75 300.3,-224.49 291.86,-218.09 289.71,-224.75"/>
</g>
<!-- Node6 -->
<g id="node6" class="node">
<title>Node6</title>
<g id="a_node6"><a xlink:href="acyclicgraph_8hpp.html" target="_top" xlink:title=" ">
<polygon fill="white" stroke="black" points="250.5,-168.5 250.5,-187.5 416.5,-187.5 416.5,-168.5 250.5,-168.5"/>
<text text-anchor="middle" x="333.5" y="-175.5" font-family="Helvetica,sans-Serif" font-size="10.00">src/optimizer/acyclicgraph.hpp</text>
</a>
</g>
</g>
<!-- Node1&#45;&gt;Node6 -->
<g id="edge5" class="edge">
<title>Node1&#45;&gt;Node6</title>
<path fill="none" stroke="midnightblue" d="M333.5,-213.8C333.5,-204.91 333.5,-194.78 333.5,-187.75"/>
<polygon fill="midnightblue" stroke="midnightblue" points="330,-214.08 333.5,-224.08 337,-214.08 330,-214.08"/>
</g>
<!-- Node8 -->
<g id="node8" class="node">
<title>Node8</title>
<g id="a_node8"><a xlink:href="optimizer_8hpp.html" target="_top" xlink:title=" ">
<polygon fill="white" stroke="black" points="180,-112.5 180,-131.5 331,-131.5 331,-112.5 180,-112.5"/>
<text text-anchor="middle" x="255.5" y="-119.5" font-family="Helvetica,sans-Serif" font-size="10.00">src/optimizer/optimizer.hpp</text>
</a>
</g>
</g>
<!-- Node1&#45;&gt;Node8 -->
<g id="edge20" class="edge">
<title>Node1&#45;&gt;Node8</title>
<path fill="none" stroke="midnightblue" d="M284.9,-220.77C268.2,-213.99 251.26,-203.64 241.5,-188 230.38,-170.18 242.15,-144.84 249.88,-131.69"/>
<polygon fill="midnightblue" stroke="midnightblue" points="284.06,-224.19 294.65,-224.36 286.48,-217.62 284.06,-224.19"/>
</g>
<!-- Node11 -->
<g id="node11" class="node">
<title>Node11</title>
<g id="a_node11"><a xlink:href="controlflow_8hpp.html" target="_top" xlink:title=" ">
<polygon fill="white" stroke="black" points="434.5,-168.5 434.5,-187.5 592.5,-187.5 592.5,-168.5 434.5,-168.5"/>
<text text-anchor="middle" x="513.5" y="-175.5" font-family="Helvetica,sans-Serif" font-size="10.00">src/optimizer/controlflow.hpp</text>
</a>
</g>
</g>
<!-- Node1&#45;&gt;Node11 -->
<g id="edge11" class="edge">
<title>Node1&#45;&gt;Node11</title>
<path fill="none" stroke="midnightblue" d="M371.61,-221.57C405.56,-211.38 454.49,-196.7 485.11,-187.52"/>
<polygon fill="midnightblue" stroke="midnightblue" points="370.59,-218.22 362.02,-224.44 372.61,-224.92 370.59,-218.22"/>
</g>
<!-- Node13 -->
<g id="node13" class="node">
<title>Node13</title>
<g id="a_node13"><a xlink:href="util_8hpp.html" target="_top" xlink:title=" ">
<polygon fill="white" stroke="black" points="610.5,-168.5 610.5,-187.5 730.5,-187.5 730.5,-168.5 610.5,-168.5"/>
<text text-anchor="middle" x="670.5" y="-175.5" font-family="Helvetica,sans-Serif" font-size="10.00">src/optimizer/util.hpp</text>
</a>
</g>
</g>
<!-- Node1&#45;&gt;Node13 -->
<g id="edge15" class="edge">
<title>Node1&#45;&gt;Node13</title>
<path fill="none" stroke="midnightblue" d="M396.82,-222.85C460.49,-212.65 557.56,-197.1 617.35,-187.52"/>
<polygon fill="midnightblue" stroke="midnightblue" points="396.22,-219.41 386.9,-224.44 397.33,-226.32 396.22,-219.41"/>
</g>
<!-- Node14 -->
<g id="node14" class="node">
<title>Node14</title>
<g id="a_node14"><a xlink:href="vmachine_8hpp.html" target="_top" xlink:title=" ">
<polygon fill="white" stroke="black" points="950.5,-168.5 950.5,-187.5 1094.5,-187.5 1094.5,-168.5 950.5,-168.5"/>
<text text-anchor="middle" x="1022.5" y="-175.5" font-family="Helvetica,sans-Serif" font-size="10.00">src/runtime/vmachine.hpp</text>
</a>
</g>
</g>
<!-- Node1&#45;&gt;Node14 -->
<g id="edge21" class="edge">
<title>Node1&#45;&gt;Node14</title>
<path fill="none" stroke="midnightblue" d="M405.59,-227.35C537.94,-216.98 818.18,-195.01 950.48,-184.64"/>
<polygon fill="midnightblue" stroke="midnightblue" points="405.25,-223.87 395.55,-228.14 405.8,-230.84 405.25,-223.87"/>
</g>
<!-- Node4 -->
<g id="node4" class="node">
<title>Node4</title>
<g id="a_node4"><a xlink:href="parser_8cpp.html" target="_top" xlink:title=" ">
<polygon fill="white" stroke="black" points="80,-0.5 80,-19.5 211,-19.5 211,-0.5 80,-0.5"/>
<text text-anchor="middle" x="145.5" y="-7.5" font-family="Helvetica,sans-Serif" font-size="10.00">src/compiler/parser.cpp</text>
</a>
</g>
</g>
<!-- Node3&#45;&gt;Node4 -->
<g id="edge3" class="edge">
<title>Node3&#45;&gt;Node4</title>
<path fill="none" stroke="midnightblue" d="M186.59,-49.25C176.3,-39.67 163.53,-27.79 154.99,-19.83"/>
<polygon fill="midnightblue" stroke="midnightblue" points="184.48,-52.07 194.18,-56.32 189.25,-46.95 184.48,-52.07"/>
</g>
<!-- Node5 -->
<g id="node5" class="node">
<title>Node5</title>
<g id="a_node5"><a xlink:href="flc_8cpp.html" target="_top" xlink:title=" ">
<polygon fill="white" stroke="black" points="229.5,-0.5 229.5,-19.5 295.5,-19.5 295.5,-0.5 229.5,-0.5"/>
<text text-anchor="middle" x="262.5" y="-7.5" font-family="Helvetica,sans-Serif" font-size="10.00">src/flc.cpp</text>
</a>
</g>
</g>
<!-- Node3&#45;&gt;Node5 -->
<g id="edge4" class="edge">
<title>Node3&#45;&gt;Node5</title>
<path fill="none" stroke="midnightblue" d="M220.39,-49.54C230.91,-39.91 244.07,-27.87 252.85,-19.83"/>
<polygon fill="midnightblue" stroke="midnightblue" points="217.99,-46.99 212.98,-56.32 222.72,-52.15 217.99,-46.99"/>
</g>
<!-- Node7 -->
<g id="node7" class="node">
<title>Node7</title>
<g id="a_node7"><a xlink:href="acyclicgraph_8cpp.html" target="_top" xlink:title=" ">
<polygon fill="white" stroke="black" points="486,-112.5 486,-131.5 651,-131.5 651,-112.5 486,-112.5"/>
<text text-anchor="middle" x="568.5" y="-119.5" font-family="Helvetica,sans-Serif" font-size="10.00">src/optimizer/acyclicgraph.cpp</text>
</a>
</g>
</g>
<!-- Node6&#45;&gt;Node7 -->
<g id="edge6" class="edge">
<title>Node6&#45;&gt;Node7</title>
<path fill="none" stroke="midnightblue" d="M380.71,-166.15C425.11,-155.95 490.69,-140.88 531.44,-131.52"/>
<polygon fill="midnightblue" stroke="midnightblue" points="379.7,-162.79 370.74,-168.44 381.27,-169.62 379.7,-162.79"/>
</g>
<!-- Node6&#45;&gt;Node8 -->
<g id="edge7" class="edge">
<title>Node6&#45;&gt;Node8</title>
<path fill="none" stroke="midnightblue" d="M312.73,-162.62C298.48,-152.76 280.04,-139.99 268,-131.65"/>
<polygon fill="midnightblue" stroke="midnightblue" points="310.75,-165.51 320.97,-168.32 314.74,-159.75 310.75,-165.51"/>
</g>
<!-- Node10 -->
<g id="node10" class="node">
<title>Node10</title>
<g id="a_node10"><a xlink:href="util_8cpp.html" target="_top" xlink:title=" ">
<polygon fill="white" stroke="black" points="349,-112.5 349,-131.5 468,-131.5 468,-112.5 349,-112.5"/>
<text text-anchor="middle" x="408.5" y="-119.5" font-family="Helvetica,sans-Serif" font-size="10.00">src/optimizer/util.cpp</text>
</a>
</g>
</g>
<!-- Node6&#45;&gt;Node10 -->
<g id="edge10" class="edge">
<title>Node6&#45;&gt;Node10</title>
<path fill="none" stroke="midnightblue" d="M353.81,-162.38C367.36,-152.62 384.74,-140.11 396.23,-131.83"/>
<polygon fill="midnightblue" stroke="midnightblue" points="351.62,-159.64 345.55,-168.32 355.71,-165.32 351.62,-159.64"/>
</g>
<!-- Node8&#45;&gt;Node3 -->
<g id="edge8" class="edge">
<title>Node8&#45;&gt;Node3</title>
<path fill="none" stroke="midnightblue" d="M239.82,-104.72C230.66,-95.2 219.45,-83.56 211.93,-75.75"/>
<polygon fill="midnightblue" stroke="midnightblue" points="237.46,-107.31 246.91,-112.08 242.5,-102.45 237.46,-107.31"/>
</g>
<!-- Node9 -->
<g id="node9" class="node">
<title>Node9</title>
<g id="a_node9"><a xlink:href="optimizer_8cpp.html" target="_top" xlink:title=" ">
<polygon fill="white" stroke="black" points="501.5,-56.5 501.5,-75.5 651.5,-75.5 651.5,-56.5 501.5,-56.5"/>
<text text-anchor="middle" x="576.5" y="-63.5" font-family="Helvetica,sans-Serif" font-size="10.00">src/optimizer/optimizer.cpp</text>
</a>
</g>
</g>
<!-- Node8&#45;&gt;Node9 -->
<g id="edge9" class="edge">
<title>Node8&#45;&gt;Node9</title>
<path fill="none" stroke="midnightblue" d="M316.56,-110.73C377.22,-100.52 469.15,-85.06 525.87,-75.52"/>
<polygon fill="midnightblue" stroke="midnightblue" points="315.64,-107.33 306.36,-112.44 316.81,-114.24 315.64,-107.33"/>
</g>
<!-- Node11&#45;&gt;Node8 -->
<g id="edge13" class="edge">
<title>Node11&#45;&gt;Node8</title>
<path fill="none" stroke="midnightblue" d="M462.6,-166.35C413.84,-156.14 341.21,-140.94 296.19,-131.52"/>
<polygon fill="midnightblue" stroke="midnightblue" points="462.11,-169.82 472.62,-168.44 463.55,-162.97 462.11,-169.82"/>
</g>
<!-- Node11&#45;&gt;Node10 -->
<g id="edge14" class="edge">
<title>Node11&#45;&gt;Node10</title>
<path fill="none" stroke="midnightblue" d="M487.69,-163.73C468.25,-153.73 442.15,-140.31 425.33,-131.65"/>
<polygon fill="midnightblue" stroke="midnightblue" points="486.14,-166.86 496.63,-168.32 489.34,-160.64 486.14,-166.86"/>
</g>
<!-- Node12 -->
<g id="node12" class="node">
<title>Node12</title>
<g id="a_node12"><a xlink:href="controlflow_8cpp.html" target="_top" xlink:title=" ">
<polygon fill="white" stroke="black" points="669.5,-112.5 669.5,-131.5 827.5,-131.5 827.5,-112.5 669.5,-112.5"/>
<text text-anchor="middle" x="748.5" y="-119.5" font-family="Helvetica,sans-Serif" font-size="10.00">src/optimizer/controlflow.cpp</text>
</a>
</g>
</g>
<!-- Node11&#45;&gt;Node12 -->
<g id="edge12" class="edge">
<title>Node11&#45;&gt;Node12</title>
<path fill="none" stroke="midnightblue" d="M560.71,-166.15C605.11,-155.95 670.69,-140.88 711.44,-131.52"/>
<polygon fill="midnightblue" stroke="midnightblue" points="559.7,-162.79 550.74,-168.44 561.27,-169.62 559.7,-162.79"/>
</g>
<!-- Node13&#45;&gt;Node7 -->
<g id="edge16" class="edge">
<title>Node13&#45;&gt;Node7</title>
<path fill="none" stroke="midnightblue" d="M645.17,-163.59C626.31,-153.61 601.12,-140.27 584.85,-131.65"/>
<polygon fill="midnightblue" stroke="midnightblue" points="643.64,-166.74 654.11,-168.32 646.91,-160.55 643.64,-166.74"/>
</g>
<!-- Node13&#45;&gt;Node9 -->
<g id="edge18" class="edge">
<title>Node13&#45;&gt;Node9</title>
<path fill="none" stroke="midnightblue" d="M740.7,-171.93C798.96,-165.04 867.64,-148.99 836.5,-112 813.23,-84.36 719.91,-73.69 651.71,-69.58"/>
<polygon fill="midnightblue" stroke="midnightblue" points="740.26,-168.46 730.71,-173.04 741.03,-175.41 740.26,-168.46"/>
</g>
<!-- Node13&#45;&gt;Node10 -->
<g id="edge19" class="edge">
<title>Node13&#45;&gt;Node10</title>
<path fill="none" stroke="midnightblue" d="M619.12,-166.41C569.6,-156.2 495.64,-140.96 449.82,-131.52"/>
<polygon fill="midnightblue" stroke="midnightblue" points="618.48,-169.85 628.99,-168.44 619.9,-163 618.48,-169.85"/>
</g>
<!-- Node13&#45;&gt;Node12 -->
<g id="edge17" class="edge">
<title>Node13&#45;&gt;Node12</title>
<path fill="none" stroke="midnightblue" d="M691.27,-162.62C705.52,-152.76 723.96,-139.99 736,-131.65"/>
<polygon fill="midnightblue" stroke="midnightblue" points="689.26,-159.75 683.03,-168.32 693.25,-165.51 689.26,-159.75"/>
</g>
<!-- Node15 -->
<g id="node15" class="node">
<title>Node15</title>
<g id="a_node15"><a xlink:href="debugger_8hpp.html" target="_top" xlink:title=" ">
<polygon fill="white" stroke="black" points="883,-112.5 883,-131.5 1032,-131.5 1032,-112.5 883,-112.5"/>
<text text-anchor="middle" x="957.5" y="-119.5" font-family="Helvetica,sans-Serif" font-size="10.00">src/debugger/debugger.hpp</text>
</a>
</g>
</g>
<!-- Node14&#45;&gt;Node15 -->
<g id="edge22" class="edge">
<title>Node14&#45;&gt;Node15</title>
<path fill="none" stroke="midnightblue" d="M1004.23,-161.82C992.58,-152.15 977.9,-139.95 968.13,-131.83"/>
<polygon fill="midnightblue" stroke="midnightblue" points="1002.13,-164.63 1012.06,-168.32 1006.6,-159.24 1002.13,-164.63"/>
</g>
<!-- Node18 -->
<g id="node18" class="node">
<title>Node18</title>
<g id="a_node18"><a xlink:href="flvm_8cpp.html" target="_top" xlink:title=" ">
<polygon fill="white" stroke="black" points="1050,-112.5 1050,-131.5 1127,-131.5 1127,-112.5 1050,-112.5"/>
<text text-anchor="middle" x="1088.5" y="-119.5" font-family="Helvetica,sans-Serif" font-size="10.00">src/flvm.cpp</text>
</a>
</g>
</g>
<!-- Node14&#45;&gt;Node18 -->
<g id="edge25" class="edge">
<title>Node14&#45;&gt;Node18</title>
<path fill="none" stroke="midnightblue" d="M1041.05,-161.82C1052.88,-152.15 1067.79,-139.95 1077.7,-131.83"/>
<polygon fill="midnightblue" stroke="midnightblue" points="1038.63,-159.28 1033.1,-168.32 1043.06,-164.7 1038.63,-159.28"/>
</g>
<!-- Node19 -->
<g id="node19" class="node">
<title>Node19</title>
<g id="a_node19"><a xlink:href="vmachine_8cpp.html" target="_top" xlink:title=" ">
<polygon fill="white" stroke="black" points="1145,-112.5 1145,-131.5 1288,-131.5 1288,-112.5 1145,-112.5"/>
<text text-anchor="middle" x="1216.5" y="-119.5" font-family="Helvetica,sans-Serif" font-size="10.00">src/runtime/vmachine.cpp</text>
</a>
</g>
</g>
<!-- Node14&#45;&gt;Node19 -->
<g id="edge26" class="edge">
<title>Node14&#45;&gt;Node19</title>
<path fill="none" stroke="midnightblue" d="M1063.1,-165.7C1099.72,-155.51 1152.76,-140.74 1185.9,-131.52"/>
<polygon fill="midnightblue" stroke="midnightblue" points="1061.94,-162.39 1053.24,-168.44 1063.81,-169.13 1061.94,-162.39"/>
</g>
<!-- Node16 -->
<g id="node16" class="node">
<title>Node16</title>
<g id="a_node16"><a xlink:href="debugger_8cpp.html" target="_top" xlink:title=" ">
<polygon fill="white" stroke="black" points="817,-56.5 817,-75.5 966,-75.5 966,-56.5 817,-56.5"/>
<text text-anchor="middle" x="891.5" y="-63.5" font-family="Helvetica,sans-Serif" font-size="10.00">src/debugger/debugger.cpp</text>
</a>
</g>
</g>
<!-- Node15&#45;&gt;Node16 -->
<g id="edge23" class="edge">
<title>Node15&#45;&gt;Node16</title>
<path fill="none" stroke="midnightblue" d="M938.95,-105.82C927.12,-96.15 912.21,-83.95 902.3,-75.83"/>
<polygon fill="midnightblue" stroke="midnightblue" points="936.94,-108.7 946.9,-112.32 941.37,-103.28 936.94,-108.7"/>
</g>
<!-- Node17 -->
<g id="node17" class="node">
<title>Node17</title>
<g id="a_node17"><a xlink:href="fldbg_8cpp.html" target="_top" xlink:title=" ">
<polygon fill="white" stroke="black" points="984,-56.5 984,-75.5 1063,-75.5 1063,-56.5 984,-56.5"/>
<text text-anchor="middle" x="1023.5" y="-63.5" font-family="Helvetica,sans-Serif" font-size="10.00">src/fldbg.cpp</text>
</a>
</g>
</g>
<!-- Node15&#45;&gt;Node17 -->
<g id="edge24" class="edge">
<title>Node15&#45;&gt;Node17</title>
<path fill="none" stroke="midnightblue" d="M976.05,-105.82C987.88,-96.15 1002.79,-83.95 1012.7,-75.83"/>
<polygon fill="midnightblue" stroke="midnightblue" points="973.63,-103.28 968.1,-112.32 978.06,-108.7 973.63,-103.28"/>
</g>
</g>
</svg>
