<?xml version="1.0" encoding="UTF-8" standalone="no"?>
<!DOCTYPE svg PUBLIC "-//W3C//DTD SVG 1.1//EN"
 "http://www.w3.org/Graphics/SVG/1.1/DTD/svg11.dtd">
<!-- Generated by graphviz version 2.43.0 (0)
 -->
<!-- Title: src/common/stack.cpp Pages: 1 -->
<svg width="448pt" height="140pt"
 viewBox="0.00 0.00 447.50 140.00" xmlns="http://www.w3.org/2000/svg" xmlns:xlink="http://www.w3.org/1999/xlink">
<g id="graph0" class="graph" transform="scale(1 1) rotate(0) translate(4 136)">
<title>src/common/stack.cpp</title>
<polygon fill="white" stroke="transparent" points="-4,4 -4,-136 443.5,-136 443.5,4 -4,4"/>
<!-- Node1 -->
<g id="node1" class="node">
<title>Node1</title>
<g id="a_node1"><a xlink:title=" ">
<polygon fill="#bfbfbf" stroke="black" points="140,-112.5 140,-131.5 266,-131.5 266,-112.5 140,-112.5"/>
<text text-anchor="middle" x="203" y="-119.5" font-family="Helvetica,sans-Serif" font-size="10.00">src/common/stack.cpp</text>
</a>
</g>
</g>
<!-- Node2 -->
<g id="node2" class="node">
<title>Node2</title>
<g id="a_node2"><a xlink:title=" ">
<polygon fill="white" stroke="#bfbfbf" points="0,-56.5 0,-75.5 52,-75.5 52,-56.5 0,-56.5"/>
<text text-anchor="middle" x="26" y="-63.5" font-family="Helvetica,sans-Serif" font-size="10.00">cassert</text>
</a>
</g>
</g>
<!-- Node1&#45;&gt;Node2 -->
<g id="edge1" class="edge">
<title>Node1&#45;&gt;Node2</title>
<path fill="none" stroke="midnightblue" d="M174.95,-112.44C144.39,-103.12 95.39,-88.17 62.01,-77.99"/>
<polygon fill="midnightblue" stroke="midnightblue" points="62.77,-74.56 52.18,-74.99 60.73,-81.25 62.77,-74.56"/>
</g>
<!-- Node3 -->
<g id="node3" class="node">
<title>Node3</title>
<g id="a_node3"><a xlink:title=" ">
<polygon fill="white" stroke="#bfbfbf" points="70,-56.5 70,-75.5 130,-75.5 130,-56.5 70,-56.5"/>
<text text-anchor="middle" x="100" y="-63.5" font-family="Helvetica,sans-Serif" font-size="10.00">iostream</text>
</a>
</g>
</g>
<!-- Node1&#45;&gt;Node3 -->
<g id="edge2" class="edge">
<title>Node1&#45;&gt;Node3</title>
<path fill="none" stroke="midnightblue" d="M186.45,-112.32C170.01,-103.7 144.57,-90.36 125.53,-80.39"/>
<polygon fill="midnightblue" stroke="midnightblue" points="126.99,-77.2 116.51,-75.65 123.74,-83.4 126.99,-77.2"/>
</g>
<!-- Node4 -->
<g id="node4" class="node">
<title>Node4</title>
<g id="a_node4"><a xlink:href="stack_8hpp.html" target="_top" xlink:title=" ">
<polygon fill="white" stroke="black" points="148,-56.5 148,-75.5 258,-75.5 258,-56.5 148,-56.5"/>
<text text-anchor="middle" x="203" y="-63.5" font-family="Helvetica,sans-Serif" font-size="10.00">common/stack.hpp</text>
</a>
</g>
</g>
<!-- Node1&#45;&gt;Node4 -->
<g id="edge3" class="edge">
<title>Node1&#45;&gt;Node4</title>
<path fill="none" stroke="midnightblue" d="M203,-112.08C203,-105.01 203,-94.86 203,-85.99"/>
<polygon fill="midnightblue" stroke="midnightblue" points="206.5,-85.75 203,-75.75 199.5,-85.75 206.5,-85.75"/>
</g>
<!-- Node7 -->
<g id="node7" class="node">
<title>Node7</title>
<g id="a_node7"><a xlink:href="exprtype_8hpp.html" target="_top" xlink:title=" ">
<polygon fill="white" stroke="black" points="238.5,-0.5 238.5,-19.5 365.5,-19.5 365.5,-0.5 238.5,-0.5"/>
<text text-anchor="middle" x="302" y="-7.5" font-family="Helvetica,sans-Serif" font-size="10.00">common/exprtype.hpp</text>
</a>
</g>
</g>
<!-- Node1&#45;&gt;Node7 -->
<g id="edge8" class="edge">
<title>Node1&#45;&gt;Node7</title>
<path fill="none" stroke="midnightblue" d="M219.32,-112.4C233.3,-104.41 253.29,-91.44 267,-76 279.34,-62.1 288.93,-43.09 294.93,-29.22"/>
<polygon fill="midnightblue" stroke="midnightblue" points="298.24,-30.36 298.8,-19.78 291.77,-27.7 298.24,-30.36"/>
</g>
<!-- Node8 -->
<g id="node8" class="node">
<title>Node8</title>
<g id="a_node8"><a xlink:href="obstacle_8hpp.html" target="_top" xlink:title=" ">
<polygon fill="white" stroke="black" points="314.5,-56.5 314.5,-75.5 439.5,-75.5 439.5,-56.5 314.5,-56.5"/>
<text text-anchor="middle" x="377" y="-63.5" font-family="Helvetica,sans-Serif" font-size="10.00">common/obstacle.hpp</text>
</a>
</g>
</g>
<!-- Node1&#45;&gt;Node8 -->
<g id="edge7" class="edge">
<title>Node1&#45;&gt;Node8</title>
<path fill="none" stroke="midnightblue" d="M230.57,-112.44C260.1,-103.28 307.12,-88.69 339.88,-78.52"/>
<polygon fill="midnightblue" stroke="midnightblue" points="341.04,-81.82 349.56,-75.52 338.97,-75.14 341.04,-81.82"/>
</g>
<!-- Node5 -->
<g id="node5" class="node">
<title>Node5</title>
<g id="a_node5"><a xlink:title=" ">
<polygon fill="white" stroke="#bfbfbf" points="82.5,-0.5 82.5,-19.5 135.5,-19.5 135.5,-0.5 82.5,-0.5"/>
<text text-anchor="middle" x="109" y="-7.5" font-family="Helvetica,sans-Serif" font-size="10.00">cstddef</text>
</a>
</g>
</g>
<!-- Node4&#45;&gt;Node5 -->
<g id="edge4" class="edge">
<title>Node4&#45;&gt;Node5</title>
<path fill="none" stroke="midnightblue" d="M187.9,-56.32C173.1,-47.82 150.31,-34.73 133.02,-24.8"/>
<polygon fill="midnightblue" stroke="midnightblue" points="134.48,-21.6 124.07,-19.65 130.99,-27.67 134.48,-21.6"/>
</g>
<!-- Node6 -->
<g id="node6" class="node">
<title>Node6</title>
<g id="a_node6"><a xlink:href="config_8hpp.html" target="_top" xlink:title=" ">
<polygon fill="white" stroke="black" points="153.5,-0.5 153.5,-19.5 220.5,-19.5 220.5,-0.5 153.5,-0.5"/>
<text text-anchor="middle" x="187" y="-7.5" font-family="Helvetica,sans-Serif" font-size="10.00">config.hpp</text>
</a>
</g>
</g>
<!-- Node4&#45;&gt;Node6 -->
<g id="edge5" class="edge">
<title>Node4&#45;&gt;Node6</title>
<path fill="none" stroke="midnightblue" d="M200.36,-56.08C198.21,-48.85 195.12,-38.41 192.45,-29.4"/>
<polygon fill="midnightblue" stroke="midnightblue" points="195.79,-28.34 189.59,-19.75 189.08,-30.33 195.79,-28.34"/>
</g>
<!-- Node4&#45;&gt;Node7 -->
<g id="edge6" class="edge">
<title>Node4&#45;&gt;Node7</title>
<path fill="none" stroke="midnightblue" d="M218.91,-56.32C234.64,-47.74 258.94,-34.49 277.21,-24.52"/>
<polygon fill="midnightblue" stroke="midnightblue" points="279.03,-27.52 286.13,-19.65 275.68,-21.37 279.03,-27.52"/>
</g>
</g>
</svg>
