<?xml version="1.0" encoding="UTF-8" standalone="no"?>
<!DOCTYPE svg PUBLIC "-//W3C//DTD SVG 1.1//EN"
 "http://www.w3.org/Graphics/SVG/1.1/DTD/svg11.dtd">
<!-- Generated by graphviz version 2.43.0 (0)
 -->
<!-- Title: src/common/stack.hpp Pages: 1 -->
<!--zoomable 196 -->
<svg id="main" version="1.1" xmlns="http://www.w3.org/2000/svg" xmlns:xlink="http://www.w3.org/1999/xlink" xml:space="preserve" onload="init(evt)">
<style type="text/css"><![CDATA[
.edge:hover path { stroke: red; }
.edge:hover polygon { stroke: red; fill: red; }
]]></style>
<script type="text/javascript"><![CDATA[
var edges = document.getElementsByTagName('g');
if (edges && edges.length) {
  for (var i=0;i<edges.length;i++) {
    if (edges[i].id.substr(0,4)=='edge') {
      edges[i].setAttribute('class','edge');
    }
  }
}
]]></script>
        <defs>
                <circle id="rim" cx="0" cy="0" r="7"/>
                <circle id="rim2" cx="0" cy="0" r="3.5"/>
                <g id="zoomPlus">
                        <use xlink:href="#rim" fill="#404040">
                                <set attributeName="fill" to="#808080" begin="zoomplus.mouseover" end="zoomplus.mouseout"/>
                        </use>
                        <path d="M-4,0h8M0,-4v8" fill="none" stroke="white" stroke-width="1.5" pointer-events="none"/>
                </g>
                <g id="zoomMin">
                        <use xlink:href="#rim" fill="#404040">
                                <set attributeName="fill" to="#808080" begin="zoomminus.mouseover" end="zoomminus.mouseout"/>
                        </use>
                        <path d="M-4,0h8" fill="none" stroke="white" stroke-width="1.5" pointer-events="none"/>
                </g>
                <g id="dirArrow">
                        <path fill="none" stroke="white" stroke-width="1.5" d="M0,-3.0v7 M-2.5,-0.5L0,-3.0L2.5,-0.5"/>
                </g>
               <g id="resetDef">
                       <use xlink:href="#rim2" fill="#404040">
                               <set attributeName="fill" to="#808080" begin="reset.mouseover" end="reset.mouseout"/>
                       </use>
               </g>
        </defs>

<script type="text/javascript">
var viewWidth = 674;
var viewHeight = 196;
var sectionId = 'dynsection-1';
</script>
<script xlink:href="svgpan.js"/>
<svg id="graph" class="graph">
<g id="viewport">
<title>src/common/stack.hpp</title>
<polygon fill="white" stroke="transparent" points="-4,4 -4,-192 669.5,-192 669.5,4 -4,4"/>
<!-- Node1 -->
<g id="node1" class="node">
<title>Node1</title>
<g id="a_node1"><a xlink:title=" ">
<polygon fill="#bfbfbf" stroke="black" points="146.5,-168.5 146.5,-187.5 273.5,-187.5 273.5,-168.5 146.5,-168.5"/>
<text text-anchor="middle" x="210" y="-175.5" font-family="Helvetica,sans-Serif" font-size="10.00">src/common/stack.hpp</text>
</a>
</g>
</g>
<!-- Node2 -->
<g id="node2" class="node">
<title>Node2</title>
<g id="a_node2"><a xlink:href="stack_8cpp.html" target="_top" xlink:title=" ">
<polygon fill="white" stroke="black" points="0,-112.5 0,-131.5 126,-131.5 126,-112.5 0,-112.5"/>
<text text-anchor="middle" x="63" y="-119.5" font-family="Helvetica,sans-Serif" font-size="10.00">src/common/stack.cpp</text>
</a>
</g>
</g>
<!-- Node1&#45;&gt;Node2 -->
<g id="edge1" class="edge">
<title>Node1&#45;&gt;Node2</title>
<path fill="none" stroke="midnightblue" d="M177.08,-164.91C149.44,-154.75 110.66,-140.51 86.18,-131.52"/>
<polygon fill="midnightblue" stroke="midnightblue" points="176.11,-168.28 186.71,-168.44 178.53,-161.71 176.11,-168.28"/>
</g>
<!-- Node3 -->
<g id="node3" class="node">
<title>Node3</title>
<g id="a_node3"><a xlink:href="parser_8hpp.html" target="_top" xlink:title=" ">
<polygon fill="white" stroke="black" points="144.5,-112.5 144.5,-131.5 275.5,-131.5 275.5,-112.5 144.5,-112.5"/>
<text text-anchor="middle" x="210" y="-119.5" font-family="Helvetica,sans-Serif" font-size="10.00">src/compiler/parser.hpp</text>
</a>
</g>
</g>
<!-- Node1&#45;&gt;Node3 -->
<g id="edge2" class="edge">
<title>Node1&#45;&gt;Node3</title>
<path fill="none" stroke="midnightblue" d="M210,-157.8C210,-148.91 210,-138.78 210,-131.75"/>
<polygon fill="midnightblue" stroke="midnightblue" points="206.5,-158.08 210,-168.08 213.5,-158.08 206.5,-158.08"/>
</g>
<!-- Node6 -->
<g id="node6" class="node">
<title>Node6</title>
<g id="a_node6"><a xlink:href="vmachine_8hpp.html" target="_top" xlink:title=" ">
<polygon fill="white" stroke="black" points="344,-112.5 344,-131.5 488,-131.5 488,-112.5 344,-112.5"/>
<text text-anchor="middle" x="416" y="-119.5" font-family="Helvetica,sans-Serif" font-size="10.00">src/runtime/vmachine.hpp</text>
</a>
</g>
</g>
<!-- Node1&#45;&gt;Node6 -->
<g id="edge5" class="edge">
<title>Node1&#45;&gt;Node6</title>
<path fill="none" stroke="midnightblue" d="M252.62,-165.83C291.51,-155.63 348.16,-140.78 383.51,-131.52"/>
<polygon fill="midnightblue" stroke="midnightblue" points="251.43,-162.52 242.64,-168.44 253.2,-169.29 251.43,-162.52"/>
</g>
<!-- Node4 -->
<g id="node4" class="node">
<title>Node4</title>
<g id="a_node4"><a xlink:href="parser_8cpp.html" target="_top" xlink:title=" ">
<polygon fill="white" stroke="black" points="27.5,-56.5 27.5,-75.5 158.5,-75.5 158.5,-56.5 27.5,-56.5"/>
<text text-anchor="middle" x="93" y="-63.5" font-family="Helvetica,sans-Serif" font-size="10.00">src/compiler/parser.cpp</text>
</a>
</g>
</g>
<!-- Node3&#45;&gt;Node4 -->
<g id="edge3" class="edge">
<title>Node3&#45;&gt;Node4</title>
<path fill="none" stroke="midnightblue" d="M182.34,-108.23C160.45,-98.13 130.5,-84.31 111.45,-75.52"/>
<polygon fill="midnightblue" stroke="midnightblue" points="180.91,-111.43 191.46,-112.44 183.85,-105.08 180.91,-111.43"/>
</g>
<!-- Node5 -->
<g id="node5" class="node">
<title>Node5</title>
<g id="a_node5"><a xlink:href="flc_8cpp.html" target="_top" xlink:title=" ">
<polygon fill="white" stroke="black" points="177,-56.5 177,-75.5 243,-75.5 243,-56.5 177,-56.5"/>
<text text-anchor="middle" x="210" y="-63.5" font-family="Helvetica,sans-Serif" font-size="10.00">src/flc.cpp</text>
</a>
</g>
</g>
<!-- Node3&#45;&gt;Node5 -->
<g id="edge4" class="edge">
<title>Node3&#45;&gt;Node5</title>
<path fill="none" stroke="midnightblue" d="M210,-101.8C210,-92.91 210,-82.78 210,-75.75"/>
<polygon fill="midnightblue" stroke="midnightblue" points="206.5,-102.08 210,-112.08 213.5,-102.08 206.5,-102.08"/>
</g>
<!-- Node7 -->
<g id="node7" class="node">
<title>Node7</title>
<g id="a_node7"><a xlink:href="debugger_8hpp.html" target="_top" xlink:title=" ">
<polygon fill="white" stroke="black" points="260.5,-56.5 260.5,-75.5 409.5,-75.5 409.5,-56.5 260.5,-56.5"/>
<text text-anchor="middle" x="335" y="-63.5" font-family="Helvetica,sans-Serif" font-size="10.00">src/debugger/debugger.hpp</text>
</a>
</g>
</g>
<!-- Node6&#45;&gt;Node7 -->
<g id="edge6" class="edge">
<title>Node6&#45;&gt;Node7</title>
<path fill="none" stroke="midnightblue" d="M394.43,-106.62C379.64,-96.76 360.49,-83.99 347.98,-75.65"/>
<polygon fill="midnightblue" stroke="midnightblue" points="392.72,-109.69 402.99,-112.32 396.61,-103.86 392.72,-109.69"/>
</g>
<!-- Node10 -->
<g id="node10" class="node">
<title>Node10</title>
<g id="a_node10"><a xlink:href="flvm_8cpp.html" target="_top" xlink:title=" ">
<polygon fill="white" stroke="black" points="427.5,-56.5 427.5,-75.5 504.5,-75.5 504.5,-56.5 427.5,-56.5"/>
<text text-anchor="middle" x="466" y="-63.5" font-family="Helvetica,sans-Serif" font-size="10.00">src/flvm.cpp</text>
</a>
</g>
</g>
<!-- Node6&#45;&gt;Node10 -->
<g id="edge9" class="edge">
<title>Node6&#45;&gt;Node10</title>
<path fill="none" stroke="midnightblue" d="M431.08,-104.72C439.89,-95.2 450.67,-83.56 457.9,-75.75"/>
<polygon fill="midnightblue" stroke="midnightblue" points="428.48,-102.37 424.26,-112.08 433.62,-107.12 428.48,-102.37"/>
</g>
<!-- Node11 -->
<g id="node11" class="node">
<title>Node11</title>
<g id="a_node11"><a xlink:href="vmachine_8cpp.html" target="_top" xlink:title=" ">
<polygon fill="white" stroke="black" points="522.5,-56.5 522.5,-75.5 665.5,-75.5 665.5,-56.5 522.5,-56.5"/>
<text text-anchor="middle" x="594" y="-63.5" font-family="Helvetica,sans-Serif" font-size="10.00">src/runtime/vmachine.cpp</text>
</a>
</g>
</g>
<!-- Node6&#45;&gt;Node11 -->
<g id="edge10" class="edge">
<title>Node6&#45;&gt;Node11</title>
<path fill="none" stroke="midnightblue" d="M454.12,-109.44C487.68,-99.26 535.77,-84.66 565.93,-75.52"/>
<polygon fill="midnightblue" stroke="midnightblue" points="452.76,-106.19 444.2,-112.44 454.79,-112.89 452.76,-106.19"/>
</g>
<!-- Node8 -->
<g id="node8" class="node">
<title>Node8</title>
<g id="a_node8"><a xlink:href="debugger_8cpp.html" target="_top" xlink:title=" ">
<polygon fill="white" stroke="black" points="194.5,-0.5 194.5,-19.5 343.5,-19.5 343.5,-0.5 194.5,-0.5"/>
<text text-anchor="middle" x="269" y="-7.5" font-family="Helvetica,sans-Serif" font-size="10.00">src/debugger/debugger.cpp</text>
</a>
</g>
</g>
<!-- Node7&#45;&gt;Node8 -->
<g id="edge7" class="edge">
<title>Node7&#45;&gt;Node8</title>
<path fill="none" stroke="midnightblue" d="M316.45,-49.82C304.62,-40.15 289.71,-27.95 279.8,-19.83"/>
<polygon fill="midnightblue" stroke="midnightblue" points="314.44,-52.7 324.4,-56.32 318.87,-47.28 314.44,-52.7"/>
</g>
<!-- Node9 -->
<g id="node9" class="node">
<title>Node9</title>
<g id="a_node9"><a xlink:href="fldbg_8cpp.html" target="_top" xlink:title=" ">
<polygon fill="white" stroke="black" points="361.5,-0.5 361.5,-19.5 440.5,-19.5 440.5,-0.5 361.5,-0.5"/>
<text text-anchor="middle" x="401" y="-7.5" font-family="Helvetica,sans-Serif" font-size="10.00">src/fldbg.cpp</text>
</a>
</g>
</g>
<!-- Node7&#45;&gt;Node9 -->
<g id="edge8" class="edge">
<title>Node7&#45;&gt;Node9</title>
<path fill="none" stroke="midnightblue" d="M353.55,-49.82C365.38,-40.15 380.29,-27.95 390.2,-19.83"/>
<polygon fill="midnightblue" stroke="midnightblue" points="351.13,-47.28 345.6,-56.32 355.56,-52.7 351.13,-47.28"/>
</g>
</g>
</svg>
        <g id="navigator" transform="translate(0 0)" fill="#404254">
                <rect fill="#f2f5e9" fill-opacity="0.5" stroke="#606060" stroke-width=".5" x="0" y="0" width="60" height="60"/>
                <use id="zoomplus" xlink:href="#zoomPlus" x="17" y="9" onmousedown="handleZoom(evt,'in')"/>
                <use id="zoomminus" xlink:href="#zoomMin" x="42" y="9" onmousedown="handleZoom(evt,'out')"/>
                <use id="reset" xlink:href="#resetDef" x="30" y="36" onmousedown="handleReset()"/>
                <g id="arrowUp" xlink:href="#dirArrow" transform="translate(30 24)" onmousedown="handlePan(0,-1)">
                  <use xlink:href="#rim" fill="#404040">
                        <set attributeName="fill" to="#808080" begin="arrowUp.mouseover" end="arrowUp.mouseout"/>
                  </use>
                  <path fill="none" stroke="white" stroke-width="1.5" d="M0,-3.0v7 M-2.5,-0.5L0,-3.0L2.5,-0.5"/>
                </g>
                <g id="arrowRight" xlink:href="#dirArrow" transform="rotate(90) translate(36 -43)" onmousedown="handlePan(1,0)">
                  <use xlink:href="#rim" fill="#404040">
                        <set attributeName="fill" to="#808080" begin="arrowRight.mouseover" end="arrowRight.mouseout"/>
                  </use>
                  <path fill="none" stroke="white" stroke-width="1.5" d="M0,-3.0v7 M-2.5,-0.5L0,-3.0L2.5,-0.5"/>
                </g>
                <g id="arrowDown" xlink:href="#dirArrow" transform="rotate(180) translate(-30 -48)" onmousedown="handlePan(0,1)">
                  <use xlink:href="#rim" fill="#404040">
                        <set attributeName="fill" to="#808080" begin="arrowDown.mouseover" end="arrowDown.mouseout"/>
                  </use>
                  <path fill="none" stroke="white" stroke-width="1.5" d="M0,-3.0v7 M-2.5,-0.5L0,-3.0L2.5,-0.5"/>
                </g>
                <g id="arrowLeft" xlink:href="#dirArrow" transform="rotate(270) translate(-36 17)" onmousedown="handlePan(-1,0)">
                  <use xlink:href="#rim" fill="#404040">
                        <set attributeName="fill" to="#808080" begin="arrowLeft.mouseover" end="arrowLeft.mouseout"/>
                  </use>
                  <path fill="none" stroke="white" stroke-width="1.5" d="M0,-3.0v7 M-2.5,-0.5L0,-3.0L2.5,-0.5"/>
                </g>
        </g>
        <svg viewBox="0 0 15 15" width="100%" height="30px" preserveAspectRatio="xMaxYMin meet">
         <g id="arrow_out" transform="scale(0.3 0.3)">
          <a xlink:href="stack_8hpp__dep__incl_org.svg" target="_base">
           <rect id="button" ry="5" rx="5" y="6" x="6" height="38" width="38"
                fill="#f2f5e9" fill-opacity="0.5" stroke="#606060" stroke-width="1.0"/>
           <path id="arrow"
             d="M 11.500037,31.436501 C 11.940474,20.09759 22.043105,11.32322 32.158766,21.979434 L 37.068811,17.246167 C 37.068811,17.246167 37.088388,32 37.088388,32 L 22.160133,31.978069 C 22.160133,31.978069 26.997745,27.140456 26.997745,27.140456 C 18.528582,18.264221 13.291696,25.230495 11.500037,31.436501 z"
             style="fill:#404040;"/>
          </a>
         </g>
        </svg>
</svg>
