<?xml version="1.0" encoding="UTF-8" standalone="no"?>
<!DOCTYPE svg PUBLIC "-//W3C//DTD SVG 1.1//EN"
 "http://www.w3.org/Graphics/SVG/1.1/DTD/svg11.dtd">
<!-- Generated by graphviz version 2.43.0 (0)
 -->
<!-- Title: DAGRow Pages: 1 -->
<svg width="185pt" height="177pt"
 viewBox="0.00 0.00 184.50 177.00" xmlns="http://www.w3.org/2000/svg" xmlns:xlink="http://www.w3.org/1999/xlink">
<g id="graph0" class="graph" transform="scale(1 1) rotate(0) translate(4 173)">
<title>DAGRow</title>
<polygon fill="white" stroke="transparent" points="-4,4 -4,-173 180.5,-173 180.5,4 -4,4"/>
<!-- Node1 -->
<g id="node1" class="node">
<title>Node1</title>
<g id="a_node1"><a xlink:title=" ">
<polygon fill="#bfbfbf" stroke="black" points="41.5,-74 41.5,-93 100.5,-93 100.5,-74 41.5,-74"/>
<text text-anchor="middle" x="71" y="-81" font-family="Helvetica,sans-Serif" font-size="10.00">DAGRow</text>
</a>
</g>
</g>
<!-- Node1&#45;&gt;Node1 -->
<g id="edge5" class="edge">
<title>Node1&#45;&gt;Node1</title>
<path fill="none" stroke="#9a32cd" stroke-dasharray="5,2" d="M110.67,-89.95C115.41,-88.77 118.5,-86.62 118.5,-83.5 118.5,-78.5 110.58,-76 100.69,-76"/>
<polygon fill="#9a32cd" stroke="#9a32cd" points="110.26,-86.47 100.69,-91 111,-93.43 110.26,-86.47"/>
<text text-anchor="middle" x="129.5" y="-92" font-family="Helvetica,sans-Serif" font-size="10.00"> lvar</text>
<text text-anchor="middle" x="129.5" y="-81" font-family="Helvetica,sans-Serif" font-size="10.00">prev</text>
<text text-anchor="middle" x="129.5" y="-70" font-family="Helvetica,sans-Serif" font-size="10.00">rvar</text>
</g>
<!-- Node2 -->
<g id="node2" class="node">
<title>Node2</title>
<g id="a_node2"><a xlink:title=" ">
<polygon fill="white" stroke="#bfbfbf" points="0,-0.5 0,-19.5 142,-19.5 142,-0.5 0,-0.5"/>
<text text-anchor="middle" x="71" y="-7.5" font-family="Helvetica,sans-Serif" font-size="10.00">std::vector&lt; DAGRow * &gt;</text>
</a>
</g>
</g>
<!-- Node1&#45;&gt;Node2 -->
<g id="edge2" class="edge">
<title>Node1&#45;&gt;Node2</title>
<path fill="none" stroke="#9a32cd" stroke-dasharray="5,2" d="M45.95,-68.27C35.1,-60.13 26.07,-49.31 32,-38 36.13,-30.12 43.71,-24.09 51.11,-19.74"/>
<polygon fill="#9a32cd" stroke="#9a32cd" points="44.14,-71.27 54.39,-73.93 48.04,-65.45 44.14,-71.27"/>
<text text-anchor="middle" x="56.5" y="-41" font-family="Helvetica,sans-Serif" font-size="10.00"> elements</text>
</g>
<!-- Node2&#45;&gt;Node1 -->
<g id="edge1" class="edge">
<title>Node2&#45;&gt;Node1</title>
<path fill="none" stroke="#9a32cd" stroke-dasharray="5,2" d="M81.6,-28.54C83,-31.6 84.22,-34.82 85,-38 88.07,-50.59 81.83,-64.82 76.72,-73.73"/>
<polygon fill="#9a32cd" stroke="#9a32cd" points="84.61,-26.74 76.8,-19.58 78.43,-30.04 84.61,-26.74"/>
<text text-anchor="middle" x="105" y="-41" font-family="Helvetica,sans-Serif" font-size="10.00"> created</text>
</g>
<!-- Node3 -->
<g id="node3" class="node">
<title>Node3</title>
<g id="a_node3"><a xlink:href="classIdentTable.html" target="_top" xlink:title=" ">
<polygon fill="white" stroke="black" points="37.5,-148.5 37.5,-167.5 104.5,-167.5 104.5,-148.5 37.5,-148.5"/>
<text text-anchor="middle" x="71" y="-155.5" font-family="Helvetica,sans-Serif" font-size="10.00">IdentTable</text>
</a>
</g>
</g>
<!-- Node3&#45;&gt;Node1 -->
<g id="edge3" class="edge">
<title>Node3&#45;&gt;Node1</title>
<path fill="none" stroke="#9a32cd" stroke-dasharray="5,2" d="M71,-138.03C71,-123.48 71,-104.09 71,-93.09"/>
<polygon fill="#9a32cd" stroke="#9a32cd" points="67.5,-138.4 71,-148.4 74.5,-138.4 67.5,-138.4"/>
<text text-anchor="middle" x="85" y="-121" font-family="Helvetica,sans-Serif" font-size="10.00"> ident</text>
</g>
<!-- Node3&#45;&gt;Node3 -->
<g id="edge4" class="edge">
<title>Node3&#45;&gt;Node3</title>
<path fill="none" stroke="#9a32cd" stroke-dasharray="5,2" d="M114.72,-163.33C119.45,-162.31 122.5,-160.53 122.5,-158 122.5,-153.95 114.7,-151.83 104.68,-151.64"/>
<polygon fill="#9a32cd" stroke="#9a32cd" points="114.27,-159.86 104.68,-164.36 114.99,-166.82 114.27,-159.86"/>
<text text-anchor="middle" x="149.5" y="-161" font-family="Helvetica,sans-Serif" font-size="10.00"> mainTable</text>
<text text-anchor="middle" x="149.5" y="-150" font-family="Helvetica,sans-Serif" font-size="10.00">next</text>
</g>
</g>
</svg>
