<?xml version="1.0" encoding="UTF-8" standalone="no"?>
<!DOCTYPE svg PUBLIC "-//W3C//DTD SVG 1.1//EN"
 "http://www.w3.org/Graphics/SVG/1.1/DTD/svg11.dtd">
<!-- Generated by graphviz version 2.43.0 (0)
 -->
<!-- Title: flowTree Pages: 1 -->
<svg width="320pt" height="117pt"
 viewBox="0.00 0.00 320.00 117.00" xmlns="http://www.w3.org/2000/svg" xmlns:xlink="http://www.w3.org/1999/xlink">
<g id="graph0" class="graph" transform="scale(1 1) rotate(0) translate(4 113)">
<title>flowTree</title>
<polygon fill="white" stroke="transparent" points="-4,4 -4,-113 316,-113 316,4 -4,4"/>
<!-- Node1 -->
<g id="node1" class="node">
<title>Node1</title>
<g id="a_node1"><a xlink:title=" ">
<polygon fill="#bfbfbf" stroke="black" points="138.5,-0.5 138.5,-19.5 195.5,-19.5 195.5,-0.5 138.5,-0.5"/>
<text text-anchor="middle" x="167" y="-7.5" font-family="Helvetica,sans-Serif" font-size="10.00">flowTree</text>
</a>
</g>
</g>
<!-- Node2 -->
<g id="node2" class="node">
<title>Node2</title>
<g id="a_node2"><a xlink:title=" ">
<polygon fill="white" stroke="#bfbfbf" points="0,-78.5 0,-108.5 126,-108.5 126,-78.5 0,-78.5"/>
<text text-anchor="start" x="8" y="-96.5" font-family="Helvetica,sans-Serif" font-size="10.00">std::vector&lt; std::pair</text>
<text text-anchor="middle" x="63" y="-85.5" font-family="Helvetica,sans-Serif" font-size="10.00">&lt; flowTree *, char &gt; &gt;</text>
</a>
</g>
</g>
<!-- Node2&#45;&gt;Node1 -->
<g id="edge1" class="edge">
<title>Node2&#45;&gt;Node1</title>
<path fill="none" stroke="#9a32cd" stroke-dasharray="5,2" d="M89.25,-71.93C110.85,-55 140.38,-31.86 156.1,-19.54"/>
<polygon fill="#9a32cd" stroke="#9a32cd" points="86.83,-69.38 81.12,-78.3 91.15,-74.89 86.83,-69.38"/>
<text text-anchor="middle" x="143.5" y="-52" font-family="Helvetica,sans-Serif" font-size="10.00"> prev</text>
<text text-anchor="middle" x="143.5" y="-41" font-family="Helvetica,sans-Serif" font-size="10.00">next</text>
</g>
<!-- Node3 -->
<g id="node3" class="node">
<title>Node3</title>
<g id="a_node3"><a xlink:href="classPOLIZ.html" target="_top" xlink:title=" ">
<polygon fill="white" stroke="black" points="144.5,-84 144.5,-103 189.5,-103 189.5,-84 144.5,-84"/>
<text text-anchor="middle" x="167" y="-91" font-family="Helvetica,sans-Serif" font-size="10.00">POLIZ</text>
</a>
</g>
</g>
<!-- Node3&#45;&gt;Node1 -->
<g id="edge2" class="edge">
<title>Node3&#45;&gt;Node1</title>
<path fill="none" stroke="#9a32cd" stroke-dasharray="5,2" d="M167,-73.38C167,-56.4 167,-32.37 167,-19.66"/>
<polygon fill="#9a32cd" stroke="#9a32cd" points="163.5,-73.78 167,-83.78 170.5,-73.78 163.5,-73.78"/>
<text text-anchor="middle" x="182" y="-46.5" font-family="Helvetica,sans-Serif" font-size="10.00"> block</text>
</g>
<!-- Node4 -->
<g id="node4" class="node">
<title>Node4</title>
<g id="a_node4"><a xlink:title=" ">
<polygon fill="white" stroke="#bfbfbf" points="208,-84 208,-103 312,-103 312,-84 208,-84"/>
<text text-anchor="middle" x="260" y="-91" font-family="Helvetica,sans-Serif" font-size="10.00">std::vector&lt; int &gt;</text>
</a>
</g>
</g>
<!-- Node4&#45;&gt;Node1 -->
<g id="edge3" class="edge">
<title>Node4&#45;&gt;Node1</title>
<path fill="none" stroke="#9a32cd" stroke-dasharray="5,2" d="M243.71,-76.84C232.02,-65.76 215.8,-50.68 201,-38 193.56,-31.62 184.91,-24.76 178.19,-19.55"/>
<polygon fill="#9a32cd" stroke="#9a32cd" points="241.34,-79.42 250.99,-83.79 246.17,-74.35 241.34,-79.42"/>
<text text-anchor="middle" x="245.5" y="-46.5" font-family="Helvetica,sans-Serif" font-size="10.00"> checked</text>
</g>
</g>
</svg>
