<?xml version="1.0" encoding="UTF-8" standalone="no"?>
<!DOCTYPE svg PUBLIC "-//W3C//DTD SVG 1.1//EN"
 "http://www.w3.org/Graphics/SVG/1.1/DTD/svg11.dtd">
<!-- Generated by graphviz version 2.43.0 (0)
 -->
<!-- Title: flowTree Pages: 1 -->
<svg width="321pt" height="117pt"
 viewBox="0.00 0.00 320.50 117.00" xmlns="http://www.w3.org/2000/svg" xmlns:xlink="http://www.w3.org/1999/xlink">
<g id="graph0" class="graph" transform="scale(1 1) rotate(0) translate(4 113)">
<title>flowTree</title>
<polygon fill="white" stroke="transparent" points="-4,4 -4,-113 316.5,-113 316.5,4 -4,4"/>
<!-- Node1 -->
<g id="node1" class="node">
<title>Node1</title>
<g id="a_node1"><a xlink:title=" ">
<polygon fill="#bfbfbf" stroke="black" points="138.5,-0.5 138.5,-19.5 196.5,-19.5 196.5,-0.5 138.5,-0.5"/>
<text text-anchor="middle" x="167.5" y="-7.5" font-family="Helvetica,sans-Serif" font-size="10.00">flowTree</text>
</a>
</g>
</g>
<!-- Node2 -->
<g id="node2" class="node">
<title>Node2</title>
<g id="a_node2"><a xlink:title=" ">
<polygon fill="white" stroke="#bfbfbf" points="0,-78.5 0,-108.5 127,-108.5 127,-78.5 0,-78.5"/>
<text text-anchor="start" x="8" y="-96.5" font-family="Helvetica,sans-Serif" font-size="10.00">std::vector&lt; std::pair</text>
<text text-anchor="middle" x="63.5" y="-85.5" font-family="Helvetica,sans-Serif" font-size="10.00">&lt; flowTree *, char &gt; &gt;</text>
</a>
</g>
</g>
<!-- Node2&#45;&gt;Node1 -->
<g id="edge1" class="edge">
<title>Node2&#45;&gt;Node1</title>
<path fill="none" stroke="#9a32cd" stroke-dasharray="5,2" d="M89.75,-71.93C111.35,-55 140.88,-31.86 156.6,-19.54"/>
<polygon fill="#9a32cd" stroke="#9a32cd" points="87.33,-69.38 81.62,-78.3 91.65,-74.89 87.33,-69.38"/>
<text text-anchor="middle" x="144" y="-52" font-family="Helvetica,sans-Serif" font-size="10.00"> next</text>
<text text-anchor="middle" x="144" y="-41" font-family="Helvetica,sans-Serif" font-size="10.00">prev</text>
</g>
<!-- Node3 -->
<g id="node3" class="node">
<title>Node3</title>
<g id="a_node3"><a xlink:href="classPOLIZ.html" target="_top" xlink:title=" ">
<polygon fill="white" stroke="black" points="145,-84 145,-103 190,-103 190,-84 145,-84"/>
<text text-anchor="middle" x="167.5" y="-91" font-family="Helvetica,sans-Serif" font-size="10.00">POLIZ</text>
</a>
</g>
</g>
<!-- Node3&#45;&gt;Node1 -->
<g id="edge2" class="edge">
<title>Node3&#45;&gt;Node1</title>
<path fill="none" stroke="#9a32cd" stroke-dasharray="5,2" d="M167.5,-73.38C167.5,-56.4 167.5,-32.37 167.5,-19.66"/>
<polygon fill="#9a32cd" stroke="#9a32cd" points="164,-73.78 167.5,-83.78 171,-73.78 164,-73.78"/>
<text text-anchor="middle" x="182.5" y="-46.5" font-family="Helvetica,sans-Serif" font-size="10.00"> block</text>
</g>
<!-- Node4 -->
<g id="node4" class="node">
<title>Node4</title>
<g id="a_node4"><a xlink:title=" ">
<polygon fill="white" stroke="#bfbfbf" points="208.5,-84 208.5,-103 312.5,-103 312.5,-84 208.5,-84"/>
<text text-anchor="middle" x="260.5" y="-91" font-family="Helvetica,sans-Serif" font-size="10.00">std::vector&lt; int &gt;</text>
</a>
</g>
</g>
<!-- Node4&#45;&gt;Node1 -->
<g id="edge3" class="edge">
<title>Node4&#45;&gt;Node1</title>
<path fill="none" stroke="#9a32cd" stroke-dasharray="5,2" d="M244.21,-76.84C232.52,-65.76 216.3,-50.68 201.5,-38 194.06,-31.62 185.41,-24.76 178.69,-19.55"/>
<polygon fill="#9a32cd" stroke="#9a32cd" points="241.84,-79.42 251.49,-83.79 246.67,-74.35 241.84,-79.42"/>
<text text-anchor="middle" x="246" y="-46.5" font-family="Helvetica,sans-Serif" font-size="10.00"> checked</text>
</g>
</g>
</svg>
