<?xml version="1.0" encoding="UTF-8" standalone="no"?>
<!DOCTYPE svg PUBLIC "-//W3C//DTD SVG 1.1//EN"
 "http://www.w3.org/Graphics/SVG/1.1/DTD/svg11.dtd">
<!-- Generated by graphviz version 2.43.0 (0)
 -->
<!-- Title: src/common/tables.cpp Pages: 1 -->
<svg width="574pt" height="140pt"
 viewBox="0.00 0.00 573.50 140.00" xmlns="http://www.w3.org/2000/svg" xmlns:xlink="http://www.w3.org/1999/xlink">
<g id="graph0" class="graph" transform="scale(1 1) rotate(0) translate(4 136)">
<title>src/common/tables.cpp</title>
<polygon fill="white" stroke="transparent" points="-4,4 -4,-136 569.5,-136 569.5,4 -4,4"/>
<!-- Node1 -->
<g id="node1" class="node">
<title>Node1</title>
<g id="a_node1"><a xlink:title=" ">
<polygon fill="#bfbfbf" stroke="black" points="153,-112.5 153,-131.5 283,-131.5 283,-112.5 153,-112.5"/>
<text text-anchor="middle" x="218" y="-119.5" font-family="Helvetica,sans-Serif" font-size="10.00">src/common/tables.cpp</text>
</a>
</g>
</g>
<!-- Node2 -->
<g id="node2" class="node">
<title>Node2</title>
<g id="a_node2"><a xlink:title=" ">
<polygon fill="white" stroke="#bfbfbf" points="0,-56.5 0,-75.5 60,-75.5 60,-56.5 0,-56.5"/>
<text text-anchor="middle" x="30" y="-63.5" font-family="Helvetica,sans-Serif" font-size="10.00">iostream</text>
</a>
</g>
</g>
<!-- Node1&#45;&gt;Node2 -->
<g id="edge1" class="edge">
<title>Node1&#45;&gt;Node2</title>
<path fill="none" stroke="midnightblue" d="M188.21,-112.44C156.17,-103.24 105.07,-88.56 69.65,-78.39"/>
<polygon fill="midnightblue" stroke="midnightblue" points="70.23,-74.91 59.65,-75.52 68.29,-81.64 70.23,-74.91"/>
</g>
<!-- Node3 -->
<g id="node3" class="node">
<title>Node3</title>
<g id="a_node3"><a xlink:title=" ">
<polygon fill="white" stroke="#bfbfbf" points="78,-56.5 78,-75.5 128,-75.5 128,-56.5 78,-56.5"/>
<text text-anchor="middle" x="103" y="-63.5" font-family="Helvetica,sans-Serif" font-size="10.00">cstring</text>
</a>
</g>
</g>
<!-- Node1&#45;&gt;Node3 -->
<g id="edge2" class="edge">
<title>Node1&#45;&gt;Node3</title>
<path fill="none" stroke="midnightblue" d="M199.78,-112.44C181.1,-103.68 151.84,-89.94 130.38,-79.86"/>
<polygon fill="midnightblue" stroke="midnightblue" points="131.68,-76.6 121.14,-75.52 128.7,-82.93 131.68,-76.6"/>
</g>
<!-- Node4 -->
<g id="node4" class="node">
<title>Node4</title>
<g id="a_node4"><a xlink:title=" ">
<polygon fill="white" stroke="#bfbfbf" points="147.5,-0.5 147.5,-19.5 194.5,-19.5 194.5,-0.5 147.5,-0.5"/>
<text text-anchor="middle" x="171" y="-7.5" font-family="Helvetica,sans-Serif" font-size="10.00">vector</text>
</a>
</g>
</g>
<!-- Node1&#45;&gt;Node4 -->
<g id="edge3" class="edge">
<title>Node1&#45;&gt;Node4</title>
<path fill="none" stroke="midnightblue" d="M205.73,-112.21C195.5,-104.09 181.58,-91.05 175,-76 168.63,-61.43 168.05,-43.25 168.82,-29.83"/>
<polygon fill="midnightblue" stroke="midnightblue" points="172.31,-30.12 169.69,-19.85 165.34,-29.51 172.31,-30.12"/>
</g>
<!-- Node5 -->
<g id="node5" class="node">
<title>Node5</title>
<g id="a_node5"><a xlink:href="config_8hpp.html" target="_top" xlink:title=" ">
<polygon fill="white" stroke="black" points="184,-56.5 184,-75.5 252,-75.5 252,-56.5 184,-56.5"/>
<text text-anchor="middle" x="218" y="-63.5" font-family="Helvetica,sans-Serif" font-size="10.00">config.hpp</text>
</a>
</g>
</g>
<!-- Node1&#45;&gt;Node5 -->
<g id="edge4" class="edge">
<title>Node1&#45;&gt;Node5</title>
<path fill="none" stroke="midnightblue" d="M218,-112.08C218,-105.01 218,-94.86 218,-85.99"/>
<polygon fill="midnightblue" stroke="midnightblue" points="221.5,-85.75 218,-75.75 214.5,-85.75 221.5,-85.75"/>
</g>
<!-- Node6 -->
<g id="node6" class="node">
<title>Node6</title>
<g id="a_node6"><a xlink:href="tables_8hpp.html" target="_top" xlink:title=" ">
<polygon fill="white" stroke="black" points="270.5,-56.5 270.5,-75.5 383.5,-75.5 383.5,-56.5 270.5,-56.5"/>
<text text-anchor="middle" x="327" y="-63.5" font-family="Helvetica,sans-Serif" font-size="10.00">common/tables.hpp</text>
</a>
</g>
</g>
<!-- Node1&#45;&gt;Node6 -->
<g id="edge5" class="edge">
<title>Node1&#45;&gt;Node6</title>
<path fill="none" stroke="midnightblue" d="M235.51,-112.32C253.07,-103.62 280.33,-90.12 300.53,-80.11"/>
<polygon fill="midnightblue" stroke="midnightblue" points="302.12,-83.23 309.53,-75.65 299.02,-76.96 302.12,-83.23"/>
</g>
<!-- Node9 -->
<g id="node9" class="node">
<title>Node9</title>
<g id="a_node9"><a xlink:href="exprtype_8hpp.html" target="_top" xlink:title=" ">
<polygon fill="white" stroke="black" points="360.5,-0.5 360.5,-19.5 487.5,-19.5 487.5,-0.5 360.5,-0.5"/>
<text text-anchor="middle" x="424" y="-7.5" font-family="Helvetica,sans-Serif" font-size="10.00">common/exprtype.hpp</text>
</a>
</g>
</g>
<!-- Node1&#45;&gt;Node9 -->
<g id="edge11" class="edge">
<title>Node1&#45;&gt;Node9</title>
<path fill="none" stroke="midnightblue" d="M283.09,-117.52C318.93,-112.59 362.24,-101.32 393,-76 407.31,-64.22 415.44,-44.29 419.75,-29.6"/>
<polygon fill="midnightblue" stroke="midnightblue" points="423.22,-30.17 422.34,-19.61 416.44,-28.41 423.22,-30.17"/>
</g>
<!-- Node10 -->
<g id="node10" class="node">
<title>Node10</title>
<g id="a_node10"><a xlink:href="obstacle_8hpp.html" target="_top" xlink:title=" ">
<polygon fill="white" stroke="black" points="440.5,-56.5 440.5,-75.5 565.5,-75.5 565.5,-56.5 440.5,-56.5"/>
<text text-anchor="middle" x="503" y="-63.5" font-family="Helvetica,sans-Serif" font-size="10.00">common/obstacle.hpp</text>
</a>
</g>
</g>
<!-- Node1&#45;&gt;Node10 -->
<g id="edge10" class="edge">
<title>Node1&#45;&gt;Node10</title>
<path fill="none" stroke="midnightblue" d="M263.16,-112.44C313.29,-102.94 394.22,-87.61 448.01,-77.42"/>
<polygon fill="midnightblue" stroke="midnightblue" points="448.88,-80.82 458.05,-75.52 447.58,-73.94 448.88,-80.82"/>
</g>
<!-- Node6&#45;&gt;Node4 -->
<g id="edge8" class="edge">
<title>Node6&#45;&gt;Node4</title>
<path fill="none" stroke="midnightblue" d="M302.28,-56.44C275.84,-47.29 233.76,-32.73 204.39,-22.56"/>
<polygon fill="midnightblue" stroke="midnightblue" points="205.18,-19.13 194.58,-19.16 202.89,-25.74 205.18,-19.13"/>
</g>
<!-- Node7 -->
<g id="node7" class="node">
<title>Node7</title>
<g id="a_node7"><a xlink:title=" ">
<polygon fill="white" stroke="#bfbfbf" points="214.5,-0.5 214.5,-19.5 267.5,-19.5 267.5,-0.5 214.5,-0.5"/>
<text text-anchor="middle" x="241" y="-7.5" font-family="Helvetica,sans-Serif" font-size="10.00">cstddef</text>
</a>
</g>
</g>
<!-- Node6&#45;&gt;Node7 -->
<g id="edge6" class="edge">
<title>Node6&#45;&gt;Node7</title>
<path fill="none" stroke="midnightblue" d="M313.18,-56.32C299.77,-47.9 279.18,-34.97 263.41,-25.07"/>
<polygon fill="midnightblue" stroke="midnightblue" points="265.11,-22.01 254.78,-19.65 261.39,-27.94 265.11,-22.01"/>
</g>
<!-- Node8 -->
<g id="node8" class="node">
<title>Node8</title>
<g id="a_node8"><a xlink:title=" ">
<polygon fill="white" stroke="#bfbfbf" points="285.5,-0.5 285.5,-19.5 342.5,-19.5 342.5,-0.5 285.5,-0.5"/>
<text text-anchor="middle" x="314" y="-7.5" font-family="Helvetica,sans-Serif" font-size="10.00">ostream</text>
</a>
</g>
</g>
<!-- Node6&#45;&gt;Node8 -->
<g id="edge7" class="edge">
<title>Node6&#45;&gt;Node8</title>
<path fill="none" stroke="midnightblue" d="M324.85,-56.08C323.13,-48.93 320.65,-38.64 318.5,-29.69"/>
<polygon fill="midnightblue" stroke="midnightblue" points="321.85,-28.65 316.11,-19.75 315.04,-30.29 321.85,-28.65"/>
</g>
<!-- Node6&#45;&gt;Node9 -->
<g id="edge9" class="edge">
<title>Node6&#45;&gt;Node9</title>
<path fill="none" stroke="midnightblue" d="M342.58,-56.32C358,-47.74 381.81,-34.49 399.71,-24.52"/>
<polygon fill="midnightblue" stroke="midnightblue" points="401.42,-27.58 408.45,-19.65 398.01,-21.46 401.42,-27.58"/>
</g>
</g>
</svg>
