<?xml version="1.0" encoding="UTF-8" standalone="no"?>
<!DOCTYPE svg PUBLIC "-//W3C//DTD SVG 1.1//EN"
 "http://www.w3.org/Graphics/SVG/1.1/DTD/svg11.dtd">
<!-- Generated by graphviz version 2.43.0 (0)
 -->
<!-- Title: src/common/tables.hpp Pages: 1 -->
<!--zoomable 308 -->
<svg id="main" version="1.1" xmlns="http://www.w3.org/2000/svg" xmlns:xlink="http://www.w3.org/1999/xlink" xml:space="preserve" onload="init(evt)">
<style type="text/css"><![CDATA[
.edge:hover path { stroke: red; }
.edge:hover polygon { stroke: red; fill: red; }
]]></style>
<script type="text/javascript"><![CDATA[
var edges = document.getElementsByTagName('g');
if (edges && edges.length) {
  for (var i=0;i<edges.length;i++) {
    if (edges[i].id.substr(0,4)=='edge') {
      edges[i].setAttribute('class','edge');
    }
  }
}
]]></script>
        <defs>
                <circle id="rim" cx="0" cy="0" r="7"/>
                <circle id="rim2" cx="0" cy="0" r="3.5"/>
                <g id="zoomPlus">
                        <use xlink:href="#rim" fill="#404040">
                                <set attributeName="fill" to="#808080" begin="zoomplus.mouseover" end="zoomplus.mouseout"/>
                        </use>
                        <path d="M-4,0h8M0,-4v8" fill="none" stroke="white" stroke-width="1.5" pointer-events="none"/>
                </g>
                <g id="zoomMin">
                        <use xlink:href="#rim" fill="#404040">
                                <set attributeName="fill" to="#808080" begin="zoomminus.mouseover" end="zoomminus.mouseout"/>
                        </use>
                        <path d="M-4,0h8" fill="none" stroke="white" stroke-width="1.5" pointer-events="none"/>
                </g>
                <g id="dirArrow">
                        <path fill="none" stroke="white" stroke-width="1.5" d="M0,-3.0v7 M-2.5,-0.5L0,-3.0L2.5,-0.5"/>
                </g>
               <g id="resetDef">
                       <use xlink:href="#rim2" fill="#404040">
                               <set attributeName="fill" to="#808080" begin="reset.mouseover" end="reset.mouseout"/>
                       </use>
               </g>
        </defs>

<script type="text/javascript">
var viewWidth = 1326;
var viewHeight = 308;
var sectionId = 'dynsection-1';
</script>
<script xlink:href="svgpan.js"/>
<svg id="graph" class="graph">
<g id="viewport">
<title>src/common/tables.hpp</title>
<polygon fill="white" stroke="transparent" points="-4,4 -4,-304 1322,-304 1322,4 -4,4"/>
<!-- Node1 -->
<g id="node1" class="node">
<title>Node1</title>
<g id="a_node1"><a xlink:title=" ">
<polygon fill="#bfbfbf" stroke="black" points="435,-280.5 435,-299.5 566,-299.5 566,-280.5 435,-280.5"/>
<text text-anchor="middle" x="500.5" y="-287.5" font-family="Helvetica,sans-Serif" font-size="10.00">src/common/tables.hpp</text>
</a>
</g>
</g>
<!-- Node2 -->
<g id="node2" class="node">
<title>Node2</title>
<g id="a_node2"><a xlink:href="poliz_8hpp.html" target="_top" xlink:title=" ">
<polygon fill="white" stroke="black" points="438.5,-224.5 438.5,-243.5 562.5,-243.5 562.5,-224.5 438.5,-224.5"/>
<text text-anchor="middle" x="500.5" y="-231.5" font-family="Helvetica,sans-Serif" font-size="10.00">src/common/poliz.hpp</text>
</a>
</g>
</g>
<!-- Node1&#45;&gt;Node2 -->
<g id="edge1" class="edge">
<title>Node1&#45;&gt;Node2</title>
<path fill="none" stroke="midnightblue" d="M500.5,-269.8C500.5,-260.91 500.5,-250.78 500.5,-243.75"/>
<polygon fill="midnightblue" stroke="midnightblue" points="497,-270.08 500.5,-280.08 504,-270.08 497,-270.08"/>
</g>
<!-- Node4 -->
<g id="node4" class="node">
<title>Node4</title>
<g id="a_node4"><a xlink:href="parser_8hpp.html" target="_top" xlink:title=" ">
<polygon fill="white" stroke="black" points="94,-56.5 94,-75.5 225,-75.5 225,-56.5 94,-56.5"/>
<text text-anchor="middle" x="159.5" y="-63.5" font-family="Helvetica,sans-Serif" font-size="10.00">src/compiler/parser.hpp</text>
</a>
</g>
</g>
<!-- Node1&#45;&gt;Node4 -->
<g id="edge29" class="edge">
<title>Node1&#45;&gt;Node4</title>
<path fill="none" stroke="midnightblue" d="M424.95,-283.55C378.62,-277.98 319.09,-266.72 270.5,-244 208.69,-215.09 187.72,-196.51 165.5,-132 158.86,-112.71 158.59,-88.41 159.02,-75.69"/>
<polygon fill="midnightblue" stroke="midnightblue" points="424.59,-287.03 434.92,-284.68 425.38,-280.08 424.59,-287.03"/>
</g>
<!-- Node5 -->
<g id="node5" class="node">
<title>Node5</title>
<g id="a_node5"><a xlink:href="parser_8cpp.html" target="_top" xlink:title=" ">
<polygon fill="white" stroke="black" points="0,-0.5 0,-19.5 131,-19.5 131,-0.5 0,-0.5"/>
<text text-anchor="middle" x="65.5" y="-7.5" font-family="Helvetica,sans-Serif" font-size="10.00">src/compiler/parser.cpp</text>
</a>
</g>
</g>
<!-- Node1&#45;&gt;Node5 -->
<g id="edge30" class="edge">
<title>Node1&#45;&gt;Node5</title>
<path fill="none" stroke="midnightblue" d="M424.66,-285.33C300.01,-277.21 65.5,-252.21 65.5,-179 65.5,-179 65.5,-179 65.5,-121 65.5,-83.19 65.5,-38.06 65.5,-19.56"/>
<polygon fill="midnightblue" stroke="midnightblue" points="424.7,-288.84 434.91,-285.98 425.15,-281.86 424.7,-288.84"/>
</g>
<!-- Node7 -->
<g id="node7" class="node">
<title>Node7</title>
<g id="a_node7"><a xlink:href="acyclicgraph_8hpp.html" target="_top" xlink:title=" ">
<polygon fill="white" stroke="black" points="254.5,-168.5 254.5,-187.5 420.5,-187.5 420.5,-168.5 254.5,-168.5"/>
<text text-anchor="middle" x="337.5" y="-175.5" font-family="Helvetica,sans-Serif" font-size="10.00">src/optimizer/acyclicgraph.hpp</text>
</a>
</g>
</g>
<!-- Node1&#45;&gt;Node7 -->
<g id="edge31" class="edge">
<title>Node1&#45;&gt;Node7</title>
<path fill="none" stroke="midnightblue" d="M477.95,-275.11C463.9,-266.36 445.52,-254.72 429.5,-244 400.25,-224.42 366.65,-200.24 349.28,-187.61"/>
<polygon fill="midnightblue" stroke="midnightblue" points="476.15,-278.11 486.49,-280.41 479.84,-272.16 476.15,-278.11"/>
</g>
<!-- Node9 -->
<g id="node9" class="node">
<title>Node9</title>
<g id="a_node9"><a xlink:href="optimizer_8hpp.html" target="_top" xlink:title=" ">
<polygon fill="white" stroke="black" points="187,-112.5 187,-131.5 338,-131.5 338,-112.5 187,-112.5"/>
<text text-anchor="middle" x="262.5" y="-119.5" font-family="Helvetica,sans-Serif" font-size="10.00">src/optimizer/optimizer.hpp</text>
</a>
</g>
</g>
<!-- Node1&#45;&gt;Node9 -->
<g id="edge34" class="edge">
<title>Node1&#45;&gt;Node9</title>
<path fill="none" stroke="midnightblue" d="M424.71,-282.74C362.64,-273.17 278.46,-248.98 236.5,-188 223.96,-169.78 242.39,-144.61 254.1,-131.59"/>
<polygon fill="midnightblue" stroke="midnightblue" points="424.46,-286.25 434.86,-284.21 425.47,-279.32 424.46,-286.25"/>
</g>
<!-- Node12 -->
<g id="node12" class="node">
<title>Node12</title>
<g id="a_node12"><a xlink:href="controlflow_8hpp.html" target="_top" xlink:title=" ">
<polygon fill="white" stroke="black" points="580.5,-168.5 580.5,-187.5 738.5,-187.5 738.5,-168.5 580.5,-168.5"/>
<text text-anchor="middle" x="659.5" y="-175.5" font-family="Helvetica,sans-Serif" font-size="10.00">src/optimizer/controlflow.hpp</text>
</a>
</g>
</g>
<!-- Node1&#45;&gt;Node12 -->
<g id="edge33" class="edge">
<title>Node1&#45;&gt;Node12</title>
<path fill="none" stroke="midnightblue" d="M523.13,-275.23C537.21,-266.52 555.6,-254.89 571.5,-244 599.71,-224.68 631.75,-200.39 648.3,-187.68"/>
<polygon fill="midnightblue" stroke="midnightblue" points="521.25,-272.27 514.57,-280.49 524.92,-278.24 521.25,-272.27"/>
</g>
<!-- Node13 -->
<g id="node13" class="node">
<title>Node13</title>
<g id="a_node13"><a xlink:href="controlflow_8cpp.html" target="_top" xlink:title=" ">
<polygon fill="white" stroke="black" points="737.5,-112.5 737.5,-131.5 895.5,-131.5 895.5,-112.5 737.5,-112.5"/>
<text text-anchor="middle" x="816.5" y="-119.5" font-family="Helvetica,sans-Serif" font-size="10.00">src/optimizer/controlflow.cpp</text>
</a>
</g>
</g>
<!-- Node1&#45;&gt;Node13 -->
<g id="edge32" class="edge">
<title>Node1&#45;&gt;Node13</title>
<path fill="none" stroke="midnightblue" d="M576.49,-280.01C677.62,-266.3 848.06,-236.53 885.5,-188 903.09,-165.2 864.39,-143.2 838.14,-131.56"/>
<polygon fill="midnightblue" stroke="midnightblue" points="575.78,-276.57 566.33,-281.36 576.7,-283.51 575.78,-276.57"/>
</g>
<!-- Node15 -->
<g id="node15" class="node">
<title>Node15</title>
<g id="a_node15"><a xlink:href="vmachine_8hpp.html" target="_top" xlink:title=" ">
<polygon fill="white" stroke="black" points="932.5,-168.5 932.5,-187.5 1076.5,-187.5 1076.5,-168.5 932.5,-168.5"/>
<text text-anchor="middle" x="1004.5" y="-175.5" font-family="Helvetica,sans-Serif" font-size="10.00">src/runtime/vmachine.hpp</text>
</a>
</g>
</g>
<!-- Node1&#45;&gt;Node15 -->
<g id="edge35" class="edge">
<title>Node1&#45;&gt;Node15</title>
<path fill="none" stroke="midnightblue" d="M576.33,-285.68C679.47,-280.35 858.08,-267.94 918.5,-244 951.21,-231.04 982.26,-202.06 996.44,-187.58"/>
<polygon fill="midnightblue" stroke="midnightblue" points="576.09,-282.19 566.28,-286.19 576.44,-289.18 576.09,-282.19"/>
</g>
<!-- Node21 -->
<g id="node21" class="node">
<title>Node21</title>
<g id="a_node21"><a xlink:href="tables_8cpp.html" target="_top" xlink:title=" ">
<polygon fill="white" stroke="black" points="970.5,-224.5 970.5,-243.5 1100.5,-243.5 1100.5,-224.5 970.5,-224.5"/>
<text text-anchor="middle" x="1035.5" y="-231.5" font-family="Helvetica,sans-Serif" font-size="10.00">src/common/tables.cpp</text>
</a>
</g>
</g>
<!-- Node1&#45;&gt;Node21 -->
<g id="edge28" class="edge">
<title>Node1&#45;&gt;Node21</title>
<path fill="none" stroke="midnightblue" d="M576.4,-281.86C666.93,-273.27 822.82,-258.21 956.5,-244 961.03,-243.52 965.7,-243.01 970.41,-242.49"/>
<polygon fill="midnightblue" stroke="midnightblue" points="575.85,-278.4 566.23,-282.83 576.51,-285.37 575.85,-278.4"/>
</g>
<!-- Node3 -->
<g id="node3" class="node">
<title>Node3</title>
<g id="a_node3"><a xlink:href="poliz_8cpp.html" target="_top" xlink:title=" ">
<polygon fill="white" stroke="black" points="439,-168.5 439,-187.5 562,-187.5 562,-168.5 439,-168.5"/>
<text text-anchor="middle" x="500.5" y="-175.5" font-family="Helvetica,sans-Serif" font-size="10.00">src/common/poliz.cpp</text>
</a>
</g>
</g>
<!-- Node2&#45;&gt;Node3 -->
<g id="edge2" class="edge">
<title>Node2&#45;&gt;Node3</title>
<path fill="none" stroke="midnightblue" d="M500.5,-213.8C500.5,-204.91 500.5,-194.78 500.5,-187.75"/>
<polygon fill="midnightblue" stroke="midnightblue" points="497,-214.08 500.5,-224.08 504,-214.08 497,-214.08"/>
</g>
<!-- Node2&#45;&gt;Node4 -->
<g id="edge3" class="edge">
<title>Node2&#45;&gt;Node4</title>
<path fill="none" stroke="midnightblue" d="M428.35,-231.96C373.2,-228.57 296.68,-218.12 236.5,-188 204.17,-171.82 196.11,-162.99 177.5,-132 166.53,-113.73 162.06,-88.58 160.39,-75.57"/>
<polygon fill="midnightblue" stroke="midnightblue" points="428.21,-235.45 438.39,-232.51 428.6,-228.47 428.21,-235.45"/>
</g>
<!-- Node2&#45;&gt;Node7 -->
<g id="edge6" class="edge">
<title>Node2&#45;&gt;Node7</title>
<path fill="none" stroke="midnightblue" d="M464.8,-221.17C434.1,-211 390.58,-196.59 363.21,-187.52"/>
<polygon fill="midnightblue" stroke="midnightblue" points="464.08,-224.62 474.67,-224.44 466.28,-217.98 464.08,-224.62"/>
</g>
<!-- Node2&#45;&gt;Node9 -->
<g id="edge21" class="edge">
<title>Node2&#45;&gt;Node9</title>
<path fill="none" stroke="midnightblue" d="M428.11,-230.29C361.1,-226.09 268.45,-215.35 245.5,-188 231.71,-171.56 246.52,-145.17 255.95,-131.63"/>
<polygon fill="midnightblue" stroke="midnightblue" points="428.03,-233.8 438.22,-230.89 428.44,-226.81 428.03,-233.8"/>
</g>
<!-- Node2&#45;&gt;Node12 -->
<g id="edge12" class="edge">
<title>Node2&#45;&gt;Node12</title>
<path fill="none" stroke="midnightblue" d="M535.33,-221.17C565.27,-211 607.72,-196.59 634.42,-187.52"/>
<polygon fill="midnightblue" stroke="midnightblue" points="534.04,-217.91 525.69,-224.44 536.29,-224.54 534.04,-217.91"/>
</g>
<!-- Node14 -->
<g id="node14" class="node">
<title>Node14</title>
<g id="a_node14"><a xlink:href="util_8hpp.html" target="_top" xlink:title=" ">
<polygon fill="white" stroke="black" points="756.5,-168.5 756.5,-187.5 876.5,-187.5 876.5,-168.5 756.5,-168.5"/>
<text text-anchor="middle" x="816.5" y="-175.5" font-family="Helvetica,sans-Serif" font-size="10.00">src/optimizer/util.hpp</text>
</a>
</g>
</g>
<!-- Node2&#45;&gt;Node14 -->
<g id="edge16" class="edge">
<title>Node2&#45;&gt;Node14</title>
<path fill="none" stroke="midnightblue" d="M560.61,-222.73C620.33,-212.52 710.83,-197.06 766.66,-187.52"/>
<polygon fill="midnightblue" stroke="midnightblue" points="559.84,-219.31 550.57,-224.44 561.02,-226.21 559.84,-219.31"/>
</g>
<!-- Node2&#45;&gt;Node15 -->
<g id="edge22" class="edge">
<title>Node2&#45;&gt;Node15</title>
<path fill="none" stroke="midnightblue" d="M572.72,-225.26C668.42,-215.01 836.29,-197.02 932.09,-186.76"/>
<polygon fill="midnightblue" stroke="midnightblue" points="572.12,-221.81 562.55,-226.35 572.87,-228.77 572.12,-221.81"/>
</g>
<!-- Node4&#45;&gt;Node5 -->
<g id="edge4" class="edge">
<title>Node4&#45;&gt;Node5</title>
<path fill="none" stroke="midnightblue" d="M135.44,-51.18C118.14,-41.24 95.35,-28.15 80.57,-19.65"/>
<polygon fill="midnightblue" stroke="midnightblue" points="133.98,-54.38 144.4,-56.32 137.47,-48.31 133.98,-54.38"/>
</g>
<!-- Node6 -->
<g id="node6" class="node">
<title>Node6</title>
<g id="a_node6"><a xlink:href="flc_8cpp.html" target="_top" xlink:title=" ">
<polygon fill="white" stroke="black" points="149.5,-0.5 149.5,-19.5 215.5,-19.5 215.5,-0.5 149.5,-0.5"/>
<text text-anchor="middle" x="182.5" y="-7.5" font-family="Helvetica,sans-Serif" font-size="10.00">src/flc.cpp</text>
</a>
</g>
</g>
<!-- Node4&#45;&gt;Node6 -->
<g id="edge5" class="edge">
<title>Node4&#45;&gt;Node6</title>
<path fill="none" stroke="midnightblue" d="M167.3,-46.69C171.18,-37.59 175.68,-27.01 178.77,-19.75"/>
<polygon fill="midnightblue" stroke="midnightblue" points="164,-45.51 163.3,-56.08 170.44,-48.25 164,-45.51"/>
</g>
<!-- Node8 -->
<g id="node8" class="node">
<title>Node8</title>
<g id="a_node8"><a xlink:href="acyclicgraph_8cpp.html" target="_top" xlink:title=" ">
<polygon fill="white" stroke="black" points="371,-112.5 371,-131.5 536,-131.5 536,-112.5 371,-112.5"/>
<text text-anchor="middle" x="453.5" y="-119.5" font-family="Helvetica,sans-Serif" font-size="10.00">src/optimizer/acyclicgraph.cpp</text>
</a>
</g>
</g>
<!-- Node7&#45;&gt;Node8 -->
<g id="edge7" class="edge">
<title>Node7&#45;&gt;Node8</title>
<path fill="none" stroke="midnightblue" d="M365.22,-164.1C386.89,-154.01 416.4,-140.27 435.21,-131.52"/>
<polygon fill="midnightblue" stroke="midnightblue" points="363.47,-161.05 355.88,-168.44 366.42,-167.4 363.47,-161.05"/>
</g>
<!-- Node7&#45;&gt;Node9 -->
<g id="edge8" class="edge">
<title>Node7&#45;&gt;Node9</title>
<path fill="none" stroke="midnightblue" d="M317.19,-162.38C303.64,-152.62 286.26,-140.11 274.77,-131.83"/>
<polygon fill="midnightblue" stroke="midnightblue" points="315.29,-165.32 325.45,-168.32 319.38,-159.64 315.29,-165.32"/>
</g>
<!-- Node11 -->
<g id="node11" class="node">
<title>Node11</title>
<g id="a_node11"><a xlink:href="util_8cpp.html" target="_top" xlink:title=" ">
<polygon fill="white" stroke="black" points="562,-112.5 562,-131.5 681,-131.5 681,-112.5 562,-112.5"/>
<text text-anchor="middle" x="621.5" y="-119.5" font-family="Helvetica,sans-Serif" font-size="10.00">src/optimizer/util.cpp</text>
</a>
</g>
</g>
<!-- Node7&#45;&gt;Node11 -->
<g id="edge11" class="edge">
<title>Node7&#45;&gt;Node11</title>
<path fill="none" stroke="midnightblue" d="M392.53,-166.54C446.2,-156.33 526.84,-141 576.71,-131.52"/>
<polygon fill="midnightblue" stroke="midnightblue" points="391.67,-163.14 382.5,-168.44 392.98,-170.01 391.67,-163.14"/>
</g>
<!-- Node9&#45;&gt;Node4 -->
<g id="edge9" class="edge">
<title>Node9&#45;&gt;Node4</title>
<path fill="none" stroke="midnightblue" d="M236.92,-107.59C217.88,-97.61 192.44,-84.27 176.01,-75.65"/>
<polygon fill="midnightblue" stroke="midnightblue" points="235.47,-110.78 245.95,-112.32 238.72,-104.58 235.47,-110.78"/>
</g>
<!-- Node10 -->
<g id="node10" class="node">
<title>Node10</title>
<g id="a_node10"><a xlink:href="optimizer_8cpp.html" target="_top" xlink:title=" ">
<polygon fill="white" stroke="black" points="443.5,-56.5 443.5,-75.5 593.5,-75.5 593.5,-56.5 443.5,-56.5"/>
<text text-anchor="middle" x="518.5" y="-63.5" font-family="Helvetica,sans-Serif" font-size="10.00">src/optimizer/optimizer.cpp</text>
</a>
</g>
</g>
<!-- Node9&#45;&gt;Node10 -->
<g id="edge10" class="edge">
<title>Node9&#45;&gt;Node10</title>
<path fill="none" stroke="midnightblue" d="M313.01,-110.35C361.39,-100.14 433.45,-84.94 478.13,-75.52"/>
<polygon fill="midnightblue" stroke="midnightblue" points="312.13,-106.95 303.06,-112.44 313.57,-113.8 312.13,-106.95"/>
</g>
<!-- Node12&#45;&gt;Node9 -->
<g id="edge14" class="edge">
<title>Node12&#45;&gt;Node9</title>
<path fill="none" stroke="midnightblue" d="M586.29,-167.04C511.31,-156.84 395.99,-141.16 325.11,-131.52"/>
<polygon fill="midnightblue" stroke="midnightblue" points="586.21,-170.56 596.59,-168.44 587.16,-163.63 586.21,-170.56"/>
</g>
<!-- Node12&#45;&gt;Node11 -->
<g id="edge15" class="edge">
<title>Node12&#45;&gt;Node11</title>
<path fill="none" stroke="midnightblue" d="M647.44,-159.86C640.86,-150.5 632.99,-139.33 627.66,-131.75"/>
<polygon fill="midnightblue" stroke="midnightblue" points="644.61,-161.92 653.23,-168.08 650.33,-157.89 644.61,-161.92"/>
</g>
<!-- Node12&#45;&gt;Node13 -->
<g id="edge13" class="edge">
<title>Node12&#45;&gt;Node13</title>
<path fill="none" stroke="midnightblue" d="M693.89,-165.17C723.45,-155 765.37,-140.59 791.74,-131.52"/>
<polygon fill="midnightblue" stroke="midnightblue" points="692.7,-161.88 684.38,-168.44 694.97,-168.5 692.7,-161.88"/>
</g>
<!-- Node14&#45;&gt;Node8 -->
<g id="edge17" class="edge">
<title>Node14&#45;&gt;Node8</title>
<path fill="none" stroke="midnightblue" d="M748.72,-166.92C680.14,-156.71 575.29,-141.12 510.75,-131.52"/>
<polygon fill="midnightblue" stroke="midnightblue" points="748.58,-170.43 758.98,-168.44 749.61,-163.51 748.58,-170.43"/>
</g>
<!-- Node14&#45;&gt;Node10 -->
<g id="edge19" class="edge">
<title>Node14&#45;&gt;Node10</title>
<path fill="none" stroke="midnightblue" d="M790.58,-163.75C773.05,-154.79 749.38,-142.69 728.5,-132 711.16,-123.12 707.69,-118.96 689.5,-112 646.93,-95.7 596.2,-83.17 561.11,-75.52"/>
<polygon fill="midnightblue" stroke="midnightblue" points="789.13,-166.94 799.63,-168.38 792.32,-160.71 789.13,-166.94"/>
</g>
<!-- Node14&#45;&gt;Node11 -->
<g id="edge20" class="edge">
<title>Node14&#45;&gt;Node11</title>
<path fill="none" stroke="midnightblue" d="M775.69,-165.7C738.89,-155.51 685.57,-140.74 652.25,-131.52"/>
<polygon fill="midnightblue" stroke="midnightblue" points="775.03,-169.15 785.6,-168.44 776.9,-162.4 775.03,-169.15"/>
</g>
<!-- Node14&#45;&gt;Node13 -->
<g id="edge18" class="edge">
<title>Node14&#45;&gt;Node13</title>
<path fill="none" stroke="midnightblue" d="M816.5,-157.8C816.5,-148.91 816.5,-138.78 816.5,-131.75"/>
<polygon fill="midnightblue" stroke="midnightblue" points="813,-158.08 816.5,-168.08 820,-158.08 813,-158.08"/>
</g>
<!-- Node16 -->
<g id="node16" class="node">
<title>Node16</title>
<g id="a_node16"><a xlink:href="debugger_8hpp.html" target="_top" xlink:title=" ">
<polygon fill="white" stroke="black" points="913,-112.5 913,-131.5 1062,-131.5 1062,-112.5 913,-112.5"/>
<text text-anchor="middle" x="987.5" y="-119.5" font-family="Helvetica,sans-Serif" font-size="10.00">src/debugger/debugger.hpp</text>
</a>
</g>
</g>
<!-- Node15&#45;&gt;Node16 -->
<g id="edge23" class="edge">
<title>Node15&#45;&gt;Node16</title>
<path fill="none" stroke="midnightblue" d="M998.64,-158.4C995.8,-149.36 992.52,-138.94 990.25,-131.75"/>
<polygon fill="midnightblue" stroke="midnightblue" points="995.35,-159.6 1001.69,-168.08 1002.03,-157.49 995.35,-159.6"/>
</g>
<!-- Node19 -->
<g id="node19" class="node">
<title>Node19</title>
<g id="a_node19"><a xlink:href="flvm_8cpp.html" target="_top" xlink:title=" ">
<polygon fill="white" stroke="black" points="1080,-112.5 1080,-131.5 1157,-131.5 1157,-112.5 1080,-112.5"/>
<text text-anchor="middle" x="1118.5" y="-119.5" font-family="Helvetica,sans-Serif" font-size="10.00">src/flvm.cpp</text>
</a>
</g>
</g>
<!-- Node15&#45;&gt;Node19 -->
<g id="edge26" class="edge">
<title>Node15&#45;&gt;Node19</title>
<path fill="none" stroke="midnightblue" d="M1031.74,-164.1C1053.04,-154.01 1082.04,-140.27 1100.52,-131.52"/>
<polygon fill="midnightblue" stroke="midnightblue" points="1030.1,-161 1022.56,-168.44 1033.1,-167.33 1030.1,-161"/>
</g>
<!-- Node20 -->
<g id="node20" class="node">
<title>Node20</title>
<g id="a_node20"><a xlink:href="vmachine_8cpp.html" target="_top" xlink:title=" ">
<polygon fill="white" stroke="black" points="1175,-112.5 1175,-131.5 1318,-131.5 1318,-112.5 1175,-112.5"/>
<text text-anchor="middle" x="1246.5" y="-119.5" font-family="Helvetica,sans-Serif" font-size="10.00">src/runtime/vmachine.cpp</text>
</a>
</g>
</g>
<!-- Node15&#45;&gt;Node20 -->
<g id="edge27" class="edge">
<title>Node15&#45;&gt;Node20</title>
<path fill="none" stroke="midnightblue" d="M1052.82,-166.22C1098.55,-156.01 1166.28,-140.9 1208.33,-131.52"/>
<polygon fill="midnightblue" stroke="midnightblue" points="1051.84,-162.85 1042.85,-168.44 1053.37,-169.68 1051.84,-162.85"/>
</g>
<!-- Node17 -->
<g id="node17" class="node">
<title>Node17</title>
<g id="a_node17"><a xlink:href="debugger_8cpp.html" target="_top" xlink:title=" ">
<polygon fill="white" stroke="black" points="979,-56.5 979,-75.5 1128,-75.5 1128,-56.5 979,-56.5"/>
<text text-anchor="middle" x="1053.5" y="-63.5" font-family="Helvetica,sans-Serif" font-size="10.00">src/debugger/debugger.cpp</text>
</a>
</g>
</g>
<!-- Node16&#45;&gt;Node17 -->
<g id="edge24" class="edge">
<title>Node16&#45;&gt;Node17</title>
<path fill="none" stroke="midnightblue" d="M1006.05,-105.82C1017.88,-96.15 1032.79,-83.95 1042.7,-75.83"/>
<polygon fill="midnightblue" stroke="midnightblue" points="1003.63,-103.28 998.1,-112.32 1008.06,-108.7 1003.63,-103.28"/>
</g>
<!-- Node18 -->
<g id="node18" class="node">
<title>Node18</title>
<g id="a_node18"><a xlink:href="fldbg_8cpp.html" target="_top" xlink:title=" ">
<polygon fill="white" stroke="black" points="882,-56.5 882,-75.5 961,-75.5 961,-56.5 882,-56.5"/>
<text text-anchor="middle" x="921.5" y="-63.5" font-family="Helvetica,sans-Serif" font-size="10.00">src/fldbg.cpp</text>
</a>
</g>
</g>
<!-- Node16&#45;&gt;Node18 -->
<g id="edge25" class="edge">
<title>Node16&#45;&gt;Node18</title>
<path fill="none" stroke="midnightblue" d="M968.95,-105.82C957.12,-96.15 942.21,-83.95 932.3,-75.83"/>
<polygon fill="midnightblue" stroke="midnightblue" points="966.94,-108.7 976.9,-112.32 971.37,-103.28 966.94,-108.7"/>
</g>
</g>
</svg>
        <g id="navigator" transform="translate(0 0)" fill="#404254">
                <rect fill="#f2f5e9" fill-opacity="0.5" stroke="#606060" stroke-width=".5" x="0" y="0" width="60" height="60"/>
                <use id="zoomplus" xlink:href="#zoomPlus" x="17" y="9" onmousedown="handleZoom(evt,'in')"/>
                <use id="zoomminus" xlink:href="#zoomMin" x="42" y="9" onmousedown="handleZoom(evt,'out')"/>
                <use id="reset" xlink:href="#resetDef" x="30" y="36" onmousedown="handleReset()"/>
                <g id="arrowUp" xlink:href="#dirArrow" transform="translate(30 24)" onmousedown="handlePan(0,-1)">
                  <use xlink:href="#rim" fill="#404040">
                        <set attributeName="fill" to="#808080" begin="arrowUp.mouseover" end="arrowUp.mouseout"/>
                  </use>
                  <path fill="none" stroke="white" stroke-width="1.5" d="M0,-3.0v7 M-2.5,-0.5L0,-3.0L2.5,-0.5"/>
                </g>
                <g id="arrowRight" xlink:href="#dirArrow" transform="rotate(90) translate(36 -43)" onmousedown="handlePan(1,0)">
                  <use xlink:href="#rim" fill="#404040">
                        <set attributeName="fill" to="#808080" begin="arrowRight.mouseover" end="arrowRight.mouseout"/>
                  </use>
                  <path fill="none" stroke="white" stroke-width="1.5" d="M0,-3.0v7 M-2.5,-0.5L0,-3.0L2.5,-0.5"/>
                </g>
                <g id="arrowDown" xlink:href="#dirArrow" transform="rotate(180) translate(-30 -48)" onmousedown="handlePan(0,1)">
                  <use xlink:href="#rim" fill="#404040">
                        <set attributeName="fill" to="#808080" begin="arrowDown.mouseover" end="arrowDown.mouseout"/>
                  </use>
                  <path fill="none" stroke="white" stroke-width="1.5" d="M0,-3.0v7 M-2.5,-0.5L0,-3.0L2.5,-0.5"/>
                </g>
                <g id="arrowLeft" xlink:href="#dirArrow" transform="rotate(270) translate(-36 17)" onmousedown="handlePan(-1,0)">
                  <use xlink:href="#rim" fill="#404040">
                        <set attributeName="fill" to="#808080" begin="arrowLeft.mouseover" end="arrowLeft.mouseout"/>
                  </use>
                  <path fill="none" stroke="white" stroke-width="1.5" d="M0,-3.0v7 M-2.5,-0.5L0,-3.0L2.5,-0.5"/>
                </g>
        </g>
        <svg viewBox="0 0 15 15" width="100%" height="30px" preserveAspectRatio="xMaxYMin meet">
         <g id="arrow_out" transform="scale(0.3 0.3)">
          <a xlink:href="tables_8hpp__dep__incl_org.svg" target="_base">
           <rect id="button" ry="5" rx="5" y="6" x="6" height="38" width="38"
                fill="#f2f5e9" fill-opacity="0.5" stroke="#606060" stroke-width="1.0"/>
           <path id="arrow"
             d="M 11.500037,31.436501 C 11.940474,20.09759 22.043105,11.32322 32.158766,21.979434 L 37.068811,17.246167 C 37.068811,17.246167 37.088388,32 37.088388,32 L 22.160133,31.978069 C 22.160133,31.978069 26.997745,27.140456 26.997745,27.140456 C 18.528582,18.264221 13.291696,25.230495 11.500037,31.436501 z"
             style="fill:#404040;"/>
          </a>
         </g>
        </svg>
</svg>
