<?xml version="1.0" encoding="UTF-8" standalone="no"?>
<!DOCTYPE svg PUBLIC "-//W3C//DTD SVG 1.1//EN"
 "http://www.w3.org/Graphics/SVG/1.1/DTD/svg11.dtd">
<!-- Generated by graphviz version 2.43.0 (0)
 -->
<!-- Title: src/common/tables.hpp Pages: 1 -->
<svg width="1326pt" height="308pt"
 viewBox="0.00 0.00 1325.50 308.00" xmlns="http://www.w3.org/2000/svg" xmlns:xlink="http://www.w3.org/1999/xlink">
<g id="graph0" class="graph" transform="scale(1 1) rotate(0) translate(4 304)">
<title>src/common/tables.hpp</title>
<polygon fill="white" stroke="transparent" points="-4,4 -4,-304 1321.5,-304 1321.5,4 -4,4"/>
<!-- Node1 -->
<g id="node1" class="node">
<title>Node1</title>
<g id="a_node1"><a xlink:title=" ">
<polygon fill="#bfbfbf" stroke="black" points="434.5,-280.5 434.5,-299.5 565.5,-299.5 565.5,-280.5 434.5,-280.5"/>
<text text-anchor="middle" x="500" y="-287.5" font-family="Helvetica,sans-Serif" font-size="10.00">src/common/tables.hpp</text>
</a>
</g>
</g>
<!-- Node2 -->
<g id="node2" class="node">
<title>Node2</title>
<g id="a_node2"><a xlink:href="poliz_8hpp.html" target="_top" xlink:title=" ">
<polygon fill="white" stroke="black" points="438,-224.5 438,-243.5 562,-243.5 562,-224.5 438,-224.5"/>
<text text-anchor="middle" x="500" y="-231.5" font-family="Helvetica,sans-Serif" font-size="10.00">src/common/poliz.hpp</text>
</a>
</g>
</g>
<!-- Node1&#45;&gt;Node2 -->
<g id="edge1" class="edge">
<title>Node1&#45;&gt;Node2</title>
<path fill="none" stroke="midnightblue" d="M500,-269.8C500,-260.91 500,-250.78 500,-243.75"/>
<polygon fill="midnightblue" stroke="midnightblue" points="496.5,-270.08 500,-280.08 503.5,-270.08 496.5,-270.08"/>
</g>
<!-- Node4 -->
<g id="node4" class="node">
<title>Node4</title>
<g id="a_node4"><a xlink:href="parser_8hpp.html" target="_top" xlink:title=" ">
<polygon fill="white" stroke="black" points="93.5,-56.5 93.5,-75.5 224.5,-75.5 224.5,-56.5 93.5,-56.5"/>
<text text-anchor="middle" x="159" y="-63.5" font-family="Helvetica,sans-Serif" font-size="10.00">src/compiler/parser.hpp</text>
</a>
</g>
</g>
<!-- Node1&#45;&gt;Node4 -->
<g id="edge30" class="edge">
<title>Node1&#45;&gt;Node4</title>
<path fill="none" stroke="midnightblue" d="M424.45,-283.55C378.12,-277.98 318.59,-266.72 270,-244 208.19,-215.09 187.22,-196.51 165,-132 158.36,-112.71 158.09,-88.41 158.52,-75.69"/>
<polygon fill="midnightblue" stroke="midnightblue" points="424.09,-287.03 434.42,-284.68 424.88,-280.08 424.09,-287.03"/>
</g>
<!-- Node5 -->
<g id="node5" class="node">
<title>Node5</title>
<g id="a_node5"><a xlink:href="parser_8cpp.html" target="_top" xlink:title=" ">
<polygon fill="white" stroke="black" points="0,-0.5 0,-19.5 130,-19.5 130,-0.5 0,-0.5"/>
<text text-anchor="middle" x="65" y="-7.5" font-family="Helvetica,sans-Serif" font-size="10.00">src/compiler/parser.cpp</text>
</a>
</g>
</g>
<!-- Node1&#45;&gt;Node5 -->
<g id="edge29" class="edge">
<title>Node1&#45;&gt;Node5</title>
<path fill="none" stroke="midnightblue" d="M424.16,-285.33C299.51,-277.21 65,-252.21 65,-179 65,-179 65,-179 65,-121 65,-83.19 65,-38.06 65,-19.56"/>
<polygon fill="midnightblue" stroke="midnightblue" points="424.2,-288.84 434.41,-285.98 424.65,-281.86 424.2,-288.84"/>
</g>
<!-- Node7 -->
<g id="node7" class="node">
<title>Node7</title>
<g id="a_node7"><a xlink:href="vmachine_8hpp.html" target="_top" xlink:title=" ">
<polygon fill="white" stroke="black" points="932,-168.5 932,-187.5 1076,-187.5 1076,-168.5 932,-168.5"/>
<text text-anchor="middle" x="1004" y="-175.5" font-family="Helvetica,sans-Serif" font-size="10.00">src/runtime/vmachine.hpp</text>
</a>
</g>
</g>
<!-- Node1&#45;&gt;Node7 -->
<g id="edge31" class="edge">
<title>Node1&#45;&gt;Node7</title>
<path fill="none" stroke="midnightblue" d="M575.83,-285.68C678.97,-280.35 857.58,-267.94 918,-244 950.71,-231.04 981.76,-202.06 995.94,-187.58"/>
<polygon fill="midnightblue" stroke="midnightblue" points="575.59,-282.19 565.78,-286.19 575.94,-289.18 575.59,-282.19"/>
</g>
<!-- Node13 -->
<g id="node13" class="node">
<title>Node13</title>
<g id="a_node13"><a xlink:href="acyclicgraph_8hpp.html" target="_top" xlink:title=" ">
<polygon fill="white" stroke="black" points="254,-168.5 254,-187.5 420,-187.5 420,-168.5 254,-168.5"/>
<text text-anchor="middle" x="337" y="-175.5" font-family="Helvetica,sans-Serif" font-size="10.00">src/optimizer/acyclicgraph.hpp</text>
</a>
</g>
</g>
<!-- Node1&#45;&gt;Node13 -->
<g id="edge32" class="edge">
<title>Node1&#45;&gt;Node13</title>
<path fill="none" stroke="midnightblue" d="M477.45,-275.11C463.4,-266.36 445.02,-254.72 429,-244 399.75,-224.42 366.15,-200.24 348.78,-187.61"/>
<polygon fill="midnightblue" stroke="midnightblue" points="475.65,-278.11 485.99,-280.41 479.34,-272.16 475.65,-278.11"/>
</g>
<!-- Node15 -->
<g id="node15" class="node">
<title>Node15</title>
<g id="a_node15"><a xlink:href="optimizer_8hpp.html" target="_top" xlink:title=" ">
<polygon fill="white" stroke="black" points="186,-112.5 186,-131.5 336,-131.5 336,-112.5 186,-112.5"/>
<text text-anchor="middle" x="261" y="-119.5" font-family="Helvetica,sans-Serif" font-size="10.00">src/optimizer/optimizer.hpp</text>
</a>
</g>
</g>
<!-- Node1&#45;&gt;Node15 -->
<g id="edge35" class="edge">
<title>Node1&#45;&gt;Node15</title>
<path fill="none" stroke="midnightblue" d="M424.21,-282.74C362.14,-273.17 277.96,-248.98 236,-188 223.53,-169.87 241.42,-144.67 252.81,-131.61"/>
<polygon fill="midnightblue" stroke="midnightblue" points="423.96,-286.25 434.36,-284.21 424.97,-279.32 423.96,-286.25"/>
</g>
<!-- Node18 -->
<g id="node18" class="node">
<title>Node18</title>
<g id="a_node18"><a xlink:href="controlflow_8hpp.html" target="_top" xlink:title=" ">
<polygon fill="white" stroke="black" points="580,-168.5 580,-187.5 738,-187.5 738,-168.5 580,-168.5"/>
<text text-anchor="middle" x="659" y="-175.5" font-family="Helvetica,sans-Serif" font-size="10.00">src/optimizer/controlflow.hpp</text>
</a>
</g>
</g>
<!-- Node1&#45;&gt;Node18 -->
<g id="edge34" class="edge">
<title>Node1&#45;&gt;Node18</title>
<path fill="none" stroke="midnightblue" d="M522.63,-275.23C536.71,-266.52 555.1,-254.89 571,-244 599.21,-224.68 631.25,-200.39 647.8,-187.68"/>
<polygon fill="midnightblue" stroke="midnightblue" points="520.75,-272.27 514.07,-280.49 524.42,-278.24 520.75,-272.27"/>
</g>
<!-- Node19 -->
<g id="node19" class="node">
<title>Node19</title>
<g id="a_node19"><a xlink:href="controlflow_8cpp.html" target="_top" xlink:title=" ">
<polygon fill="white" stroke="black" points="737.5,-112.5 737.5,-131.5 894.5,-131.5 894.5,-112.5 737.5,-112.5"/>
<text text-anchor="middle" x="816" y="-119.5" font-family="Helvetica,sans-Serif" font-size="10.00">src/optimizer/controlflow.cpp</text>
</a>
</g>
</g>
<!-- Node1&#45;&gt;Node19 -->
<g id="edge33" class="edge">
<title>Node1&#45;&gt;Node19</title>
<path fill="none" stroke="midnightblue" d="M575.99,-280.01C677.12,-266.3 847.56,-236.53 885,-188 902.59,-165.2 863.89,-143.2 837.64,-131.56"/>
<polygon fill="midnightblue" stroke="midnightblue" points="575.28,-276.57 565.83,-281.36 576.2,-283.51 575.28,-276.57"/>
</g>
<!-- Node21 -->
<g id="node21" class="node">
<title>Node21</title>
<g id="a_node21"><a xlink:href="tables_8cpp.html" target="_top" xlink:title=" ">
<polygon fill="white" stroke="black" points="970,-224.5 970,-243.5 1100,-243.5 1100,-224.5 970,-224.5"/>
<text text-anchor="middle" x="1035" y="-231.5" font-family="Helvetica,sans-Serif" font-size="10.00">src/common/tables.cpp</text>
</a>
</g>
</g>
<!-- Node1&#45;&gt;Node21 -->
<g id="edge28" class="edge">
<title>Node1&#45;&gt;Node21</title>
<path fill="none" stroke="midnightblue" d="M575.9,-281.86C666.43,-273.27 822.32,-258.21 956,-244 960.53,-243.52 965.2,-243.01 969.91,-242.49"/>
<polygon fill="midnightblue" stroke="midnightblue" points="575.35,-278.4 565.73,-282.83 576.01,-285.37 575.35,-278.4"/>
</g>
<!-- Node3 -->
<g id="node3" class="node">
<title>Node3</title>
<g id="a_node3"><a xlink:href="poliz_8cpp.html" target="_top" xlink:title=" ">
<polygon fill="white" stroke="black" points="438.5,-168.5 438.5,-187.5 561.5,-187.5 561.5,-168.5 438.5,-168.5"/>
<text text-anchor="middle" x="500" y="-175.5" font-family="Helvetica,sans-Serif" font-size="10.00">src/common/poliz.cpp</text>
</a>
</g>
</g>
<!-- Node2&#45;&gt;Node3 -->
<g id="edge2" class="edge">
<title>Node2&#45;&gt;Node3</title>
<path fill="none" stroke="midnightblue" d="M500,-213.8C500,-204.91 500,-194.78 500,-187.75"/>
<polygon fill="midnightblue" stroke="midnightblue" points="496.5,-214.08 500,-224.08 503.5,-214.08 496.5,-214.08"/>
</g>
<!-- Node2&#45;&gt;Node4 -->
<g id="edge3" class="edge">
<title>Node2&#45;&gt;Node4</title>
<path fill="none" stroke="midnightblue" d="M427.85,-231.96C372.7,-228.57 296.18,-218.12 236,-188 203.67,-171.82 195.61,-162.99 177,-132 166.03,-113.73 161.56,-88.58 159.89,-75.57"/>
<polygon fill="midnightblue" stroke="midnightblue" points="427.71,-235.45 437.89,-232.51 428.1,-228.47 427.71,-235.45"/>
</g>
<!-- Node2&#45;&gt;Node7 -->
<g id="edge6" class="edge">
<title>Node2&#45;&gt;Node7</title>
<path fill="none" stroke="midnightblue" d="M572.22,-225.26C667.92,-215.01 835.79,-197.02 931.59,-186.76"/>
<polygon fill="midnightblue" stroke="midnightblue" points="571.62,-221.81 562.05,-226.35 572.37,-228.77 571.62,-221.81"/>
</g>
<!-- Node2&#45;&gt;Node13 -->
<g id="edge12" class="edge">
<title>Node2&#45;&gt;Node13</title>
<path fill="none" stroke="midnightblue" d="M464.3,-221.17C433.6,-211 390.08,-196.59 362.71,-187.52"/>
<polygon fill="midnightblue" stroke="midnightblue" points="463.58,-224.62 474.17,-224.44 465.78,-217.98 463.58,-224.62"/>
</g>
<!-- Node2&#45;&gt;Node15 -->
<g id="edge22" class="edge">
<title>Node2&#45;&gt;Node15</title>
<path fill="none" stroke="midnightblue" d="M427.61,-230.29C360.6,-226.09 267.95,-215.35 245,-188 231.26,-171.62 245.53,-145.21 254.65,-131.65"/>
<polygon fill="midnightblue" stroke="midnightblue" points="427.53,-233.8 437.72,-230.89 427.94,-226.81 427.53,-233.8"/>
</g>
<!-- Node2&#45;&gt;Node18 -->
<g id="edge18" class="edge">
<title>Node2&#45;&gt;Node18</title>
<path fill="none" stroke="midnightblue" d="M534.83,-221.17C564.77,-211 607.22,-196.59 633.92,-187.52"/>
<polygon fill="midnightblue" stroke="midnightblue" points="533.54,-217.91 525.19,-224.44 535.79,-224.54 533.54,-217.91"/>
</g>
<!-- Node20 -->
<g id="node20" class="node">
<title>Node20</title>
<g id="a_node20"><a xlink:href="util_8hpp.html" target="_top" xlink:title=" ">
<polygon fill="white" stroke="black" points="756,-168.5 756,-187.5 876,-187.5 876,-168.5 756,-168.5"/>
<text text-anchor="middle" x="816" y="-175.5" font-family="Helvetica,sans-Serif" font-size="10.00">src/optimizer/util.hpp</text>
</a>
</g>
</g>
<!-- Node2&#45;&gt;Node20 -->
<g id="edge23" class="edge">
<title>Node2&#45;&gt;Node20</title>
<path fill="none" stroke="midnightblue" d="M560.11,-222.73C619.83,-212.52 710.33,-197.06 766.16,-187.52"/>
<polygon fill="midnightblue" stroke="midnightblue" points="559.34,-219.31 550.07,-224.44 560.52,-226.21 559.34,-219.31"/>
</g>
<!-- Node4&#45;&gt;Node5 -->
<g id="edge4" class="edge">
<title>Node4&#45;&gt;Node5</title>
<path fill="none" stroke="midnightblue" d="M134.94,-51.18C117.64,-41.24 94.85,-28.15 80.07,-19.65"/>
<polygon fill="midnightblue" stroke="midnightblue" points="133.48,-54.38 143.9,-56.32 136.97,-48.31 133.48,-54.38"/>
</g>
<!-- Node6 -->
<g id="node6" class="node">
<title>Node6</title>
<g id="a_node6"><a xlink:href="flc_8cpp.html" target="_top" xlink:title=" ">
<polygon fill="white" stroke="black" points="148.5,-0.5 148.5,-19.5 213.5,-19.5 213.5,-0.5 148.5,-0.5"/>
<text text-anchor="middle" x="181" y="-7.5" font-family="Helvetica,sans-Serif" font-size="10.00">src/flc.cpp</text>
</a>
</g>
</g>
<!-- Node4&#45;&gt;Node6 -->
<g id="edge5" class="edge">
<title>Node4&#45;&gt;Node6</title>
<path fill="none" stroke="midnightblue" d="M166.46,-46.69C170.17,-37.59 174.48,-27.01 177.43,-19.75"/>
<polygon fill="midnightblue" stroke="midnightblue" points="163.16,-45.5 162.63,-56.08 169.65,-48.14 163.16,-45.5"/>
</g>
<!-- Node8 -->
<g id="node8" class="node">
<title>Node8</title>
<g id="a_node8"><a xlink:href="debugger_8hpp.html" target="_top" xlink:title=" ">
<polygon fill="white" stroke="black" points="912.5,-112.5 912.5,-131.5 1061.5,-131.5 1061.5,-112.5 912.5,-112.5"/>
<text text-anchor="middle" x="987" y="-119.5" font-family="Helvetica,sans-Serif" font-size="10.00">src/debugger/debugger.hpp</text>
</a>
</g>
</g>
<!-- Node7&#45;&gt;Node8 -->
<g id="edge7" class="edge">
<title>Node7&#45;&gt;Node8</title>
<path fill="none" stroke="midnightblue" d="M998.14,-158.4C995.3,-149.36 992.02,-138.94 989.75,-131.75"/>
<polygon fill="midnightblue" stroke="midnightblue" points="994.85,-159.6 1001.19,-168.08 1001.53,-157.49 994.85,-159.6"/>
</g>
<!-- Node11 -->
<g id="node11" class="node">
<title>Node11</title>
<g id="a_node11"><a xlink:href="flvm_8cpp.html" target="_top" xlink:title=" ">
<polygon fill="white" stroke="black" points="1080,-112.5 1080,-131.5 1156,-131.5 1156,-112.5 1080,-112.5"/>
<text text-anchor="middle" x="1118" y="-119.5" font-family="Helvetica,sans-Serif" font-size="10.00">src/flvm.cpp</text>
</a>
</g>
</g>
<!-- Node7&#45;&gt;Node11 -->
<g id="edge10" class="edge">
<title>Node7&#45;&gt;Node11</title>
<path fill="none" stroke="midnightblue" d="M1031.24,-164.1C1052.54,-154.01 1081.54,-140.27 1100.02,-131.52"/>
<polygon fill="midnightblue" stroke="midnightblue" points="1029.6,-161 1022.06,-168.44 1032.6,-167.33 1029.6,-161"/>
</g>
<!-- Node12 -->
<g id="node12" class="node">
<title>Node12</title>
<g id="a_node12"><a xlink:href="vmachine_8cpp.html" target="_top" xlink:title=" ">
<polygon fill="white" stroke="black" points="1174.5,-112.5 1174.5,-131.5 1317.5,-131.5 1317.5,-112.5 1174.5,-112.5"/>
<text text-anchor="middle" x="1246" y="-119.5" font-family="Helvetica,sans-Serif" font-size="10.00">src/runtime/vmachine.cpp</text>
</a>
</g>
</g>
<!-- Node7&#45;&gt;Node12 -->
<g id="edge11" class="edge">
<title>Node7&#45;&gt;Node12</title>
<path fill="none" stroke="midnightblue" d="M1052.32,-166.22C1098.05,-156.01 1165.78,-140.9 1207.83,-131.52"/>
<polygon fill="midnightblue" stroke="midnightblue" points="1051.34,-162.85 1042.35,-168.44 1052.87,-169.68 1051.34,-162.85"/>
</g>
<!-- Node9 -->
<g id="node9" class="node">
<title>Node9</title>
<g id="a_node9"><a xlink:href="debugger_8cpp.html" target="_top" xlink:title=" ">
<polygon fill="white" stroke="black" points="978,-56.5 978,-75.5 1126,-75.5 1126,-56.5 978,-56.5"/>
<text text-anchor="middle" x="1052" y="-63.5" font-family="Helvetica,sans-Serif" font-size="10.00">src/debugger/debugger.cpp</text>
</a>
</g>
</g>
<!-- Node8&#45;&gt;Node9 -->
<g id="edge8" class="edge">
<title>Node8&#45;&gt;Node9</title>
<path fill="none" stroke="midnightblue" d="M1005.27,-105.82C1016.92,-96.15 1031.6,-83.95 1041.37,-75.83"/>
<polygon fill="midnightblue" stroke="midnightblue" points="1002.9,-103.24 997.44,-112.32 1007.37,-108.63 1002.9,-103.24"/>
</g>
<!-- Node10 -->
<g id="node10" class="node">
<title>Node10</title>
<g id="a_node10"><a xlink:href="fldbg_8cpp.html" target="_top" xlink:title=" ">
<polygon fill="white" stroke="black" points="882,-56.5 882,-75.5 960,-75.5 960,-56.5 882,-56.5"/>
<text text-anchor="middle" x="921" y="-63.5" font-family="Helvetica,sans-Serif" font-size="10.00">src/fldbg.cpp</text>
</a>
</g>
</g>
<!-- Node8&#45;&gt;Node10 -->
<g id="edge9" class="edge">
<title>Node8&#45;&gt;Node10</title>
<path fill="none" stroke="midnightblue" d="M968.45,-105.82C956.62,-96.15 941.71,-83.95 931.8,-75.83"/>
<polygon fill="midnightblue" stroke="midnightblue" points="966.44,-108.7 976.4,-112.32 970.87,-103.28 966.44,-108.7"/>
</g>
<!-- Node14 -->
<g id="node14" class="node">
<title>Node14</title>
<g id="a_node14"><a xlink:href="acyclicgraph_8cpp.html" target="_top" xlink:title=" ">
<polygon fill="white" stroke="black" points="370.5,-112.5 370.5,-131.5 535.5,-131.5 535.5,-112.5 370.5,-112.5"/>
<text text-anchor="middle" x="453" y="-119.5" font-family="Helvetica,sans-Serif" font-size="10.00">src/optimizer/acyclicgraph.cpp</text>
</a>
</g>
</g>
<!-- Node13&#45;&gt;Node14 -->
<g id="edge13" class="edge">
<title>Node13&#45;&gt;Node14</title>
<path fill="none" stroke="midnightblue" d="M364.72,-164.1C386.39,-154.01 415.9,-140.27 434.71,-131.52"/>
<polygon fill="midnightblue" stroke="midnightblue" points="362.97,-161.05 355.38,-168.44 365.92,-167.4 362.97,-161.05"/>
</g>
<!-- Node13&#45;&gt;Node15 -->
<g id="edge14" class="edge">
<title>Node13&#45;&gt;Node15</title>
<path fill="none" stroke="midnightblue" d="M316.42,-162.38C302.69,-152.62 285.07,-140.11 273.43,-131.83"/>
<polygon fill="midnightblue" stroke="midnightblue" points="314.61,-165.38 324.79,-168.32 318.66,-159.68 314.61,-165.38"/>
</g>
<!-- Node17 -->
<g id="node17" class="node">
<title>Node17</title>
<g id="a_node17"><a xlink:href="util_8cpp.html" target="_top" xlink:title=" ">
<polygon fill="white" stroke="black" points="561.5,-112.5 561.5,-131.5 680.5,-131.5 680.5,-112.5 561.5,-112.5"/>
<text text-anchor="middle" x="621" y="-119.5" font-family="Helvetica,sans-Serif" font-size="10.00">src/optimizer/util.cpp</text>
</a>
</g>
</g>
<!-- Node13&#45;&gt;Node17 -->
<g id="edge17" class="edge">
<title>Node13&#45;&gt;Node17</title>
<path fill="none" stroke="midnightblue" d="M392.03,-166.54C445.7,-156.33 526.34,-141 576.21,-131.52"/>
<polygon fill="midnightblue" stroke="midnightblue" points="391.17,-163.14 382,-168.44 392.48,-170.01 391.17,-163.14"/>
</g>
<!-- Node15&#45;&gt;Node4 -->
<g id="edge15" class="edge">
<title>Node15&#45;&gt;Node4</title>
<path fill="none" stroke="midnightblue" d="M235.67,-107.59C216.81,-97.61 191.62,-84.27 175.35,-75.65"/>
<polygon fill="midnightblue" stroke="midnightblue" points="234.14,-110.74 244.61,-112.32 237.41,-104.55 234.14,-110.74"/>
</g>
<!-- Node16 -->
<g id="node16" class="node">
<title>Node16</title>
<g id="a_node16"><a xlink:href="optimizer_8cpp.html" target="_top" xlink:title=" ">
<polygon fill="white" stroke="black" points="443.5,-56.5 443.5,-75.5 592.5,-75.5 592.5,-56.5 443.5,-56.5"/>
<text text-anchor="middle" x="518" y="-63.5" font-family="Helvetica,sans-Serif" font-size="10.00">src/optimizer/optimizer.cpp</text>
</a>
</g>
</g>
<!-- Node15&#45;&gt;Node16 -->
<g id="edge16" class="edge">
<title>Node15&#45;&gt;Node16</title>
<path fill="none" stroke="midnightblue" d="M311.71,-110.35C360.28,-100.14 432.62,-84.94 477.47,-75.52"/>
<polygon fill="midnightblue" stroke="midnightblue" points="310.79,-106.96 301.72,-112.44 312.23,-113.81 310.79,-106.96"/>
</g>
<!-- Node18&#45;&gt;Node15 -->
<g id="edge20" class="edge">
<title>Node18&#45;&gt;Node15</title>
<path fill="none" stroke="midnightblue" d="M585.61,-167.04C510.44,-156.84 394.82,-141.16 323.77,-131.52"/>
<polygon fill="midnightblue" stroke="midnightblue" points="585.56,-170.57 595.94,-168.44 586.5,-163.63 585.56,-170.57"/>
</g>
<!-- Node18&#45;&gt;Node17 -->
<g id="edge21" class="edge">
<title>Node18&#45;&gt;Node17</title>
<path fill="none" stroke="midnightblue" d="M646.94,-159.86C640.36,-150.5 632.49,-139.33 627.16,-131.75"/>
<polygon fill="midnightblue" stroke="midnightblue" points="644.11,-161.92 652.73,-168.08 649.83,-157.89 644.11,-161.92"/>
</g>
<!-- Node18&#45;&gt;Node19 -->
<g id="edge19" class="edge">
<title>Node18&#45;&gt;Node19</title>
<path fill="none" stroke="midnightblue" d="M693.39,-165.17C722.95,-155 764.87,-140.59 791.24,-131.52"/>
<polygon fill="midnightblue" stroke="midnightblue" points="692.2,-161.88 683.88,-168.44 694.47,-168.5 692.2,-161.88"/>
</g>
<!-- Node20&#45;&gt;Node14 -->
<g id="edge24" class="edge">
<title>Node20&#45;&gt;Node14</title>
<path fill="none" stroke="midnightblue" d="M748.22,-166.92C679.64,-156.71 574.79,-141.12 510.25,-131.52"/>
<polygon fill="midnightblue" stroke="midnightblue" points="748.08,-170.43 758.48,-168.44 749.11,-163.51 748.08,-170.43"/>
</g>
<!-- Node20&#45;&gt;Node16 -->
<g id="edge26" class="edge">
<title>Node20&#45;&gt;Node16</title>
<path fill="none" stroke="midnightblue" d="M790.08,-163.75C772.55,-154.79 748.88,-142.69 728,-132 710.66,-123.12 707.19,-118.96 689,-112 646.43,-95.7 595.7,-83.17 560.61,-75.52"/>
<polygon fill="midnightblue" stroke="midnightblue" points="788.63,-166.94 799.13,-168.38 791.82,-160.71 788.63,-166.94"/>
</g>
<!-- Node20&#45;&gt;Node17 -->
<g id="edge27" class="edge">
<title>Node20&#45;&gt;Node17</title>
<path fill="none" stroke="midnightblue" d="M775.19,-165.7C738.39,-155.51 685.07,-140.74 651.75,-131.52"/>
<polygon fill="midnightblue" stroke="midnightblue" points="774.53,-169.15 785.1,-168.44 776.4,-162.4 774.53,-169.15"/>
</g>
<!-- Node20&#45;&gt;Node19 -->
<g id="edge25" class="edge">
<title>Node20&#45;&gt;Node19</title>
<path fill="none" stroke="midnightblue" d="M816,-157.8C816,-148.91 816,-138.78 816,-131.75"/>
<polygon fill="midnightblue" stroke="midnightblue" points="812.5,-158.08 816,-168.08 819.5,-158.08 812.5,-158.08"/>
</g>
</g>
</svg>
