<?xml version="1.0" encoding="UTF-8" standalone="no"?>
<!DOCTYPE svg PUBLIC "-//W3C//DTD SVG 1.1//EN"
 "http://www.w3.org/Graphics/SVG/1.1/DTD/svg11.dtd">
<!-- Generated by graphviz version 2.43.0 (0)
 -->
<!-- Title: src/optimizer/util.hpp Pages: 1 -->
<svg width="401pt" height="196pt"
 viewBox="0.00 0.00 401.00 196.00" xmlns="http://www.w3.org/2000/svg" xmlns:xlink="http://www.w3.org/1999/xlink">
<g id="graph0" class="graph" transform="scale(1 1) rotate(0) translate(4 192)">
<title>src/optimizer/util.hpp</title>
<polygon fill="white" stroke="transparent" points="-4,4 -4,-192 397,-192 397,4 -4,4"/>
<!-- Node1 -->
<g id="node1" class="node">
<title>Node1</title>
<g id="a_node1"><a xlink:title=" ">
<polygon fill="#bfbfbf" stroke="black" points="33.5,-168.5 33.5,-187.5 153.5,-187.5 153.5,-168.5 33.5,-168.5"/>
<text text-anchor="middle" x="93.5" y="-175.5" font-family="Helvetica,sans-Serif" font-size="10.00">src/optimizer/util.hpp</text>
</a>
</g>
</g>
<!-- Node2 -->
<g id="node2" class="node">
<title>Node2</title>
<g id="a_node2"><a xlink:title=" ">
<polygon fill="white" stroke="#bfbfbf" points="0,-0.5 0,-19.5 47,-19.5 47,-0.5 0,-0.5"/>
<text text-anchor="middle" x="23.5" y="-7.5" font-family="Helvetica,sans-Serif" font-size="10.00">vector</text>
</a>
</g>
</g>
<!-- Node1&#45;&gt;Node2 -->
<g id="edge1" class="edge">
<title>Node1&#45;&gt;Node2</title>
<path fill="none" stroke="midnightblue" d="M89.74,-168.08C78.67,-141.83 46.08,-64.55 31.14,-29.12"/>
<polygon fill="midnightblue" stroke="midnightblue" points="34.22,-27.42 27.11,-19.57 27.77,-30.14 34.22,-27.42"/>
</g>
<!-- Node3 -->
<g id="node3" class="node">
<title>Node3</title>
<g id="a_node3"><a xlink:href="poliz_8hpp.html" target="_top" xlink:title=" ">
<polygon fill="white" stroke="black" points="139,-112.5 139,-131.5 246,-131.5 246,-112.5 139,-112.5"/>
<text text-anchor="middle" x="192.5" y="-119.5" font-family="Helvetica,sans-Serif" font-size="10.00">common/poliz.hpp</text>
</a>
</g>
</g>
<!-- Node1&#45;&gt;Node3 -->
<g id="edge2" class="edge">
<title>Node1&#45;&gt;Node3</title>
<path fill="none" stroke="midnightblue" d="M109.41,-168.32C125.14,-159.74 149.44,-146.49 167.71,-136.52"/>
<polygon fill="midnightblue" stroke="midnightblue" points="169.53,-139.52 176.63,-131.65 166.18,-133.37 169.53,-139.52"/>
</g>
<!-- Node4 -->
<g id="node4" class="node">
<title>Node4</title>
<g id="a_node4"><a xlink:href="tables_8hpp.html" target="_top" xlink:title=" ">
<polygon fill="white" stroke="black" points="94,-56.5 94,-75.5 207,-75.5 207,-56.5 94,-56.5"/>
<text text-anchor="middle" x="150.5" y="-63.5" font-family="Helvetica,sans-Serif" font-size="10.00">common/tables.hpp</text>
</a>
</g>
</g>
<!-- Node3&#45;&gt;Node4 -->
<g id="edge3" class="edge">
<title>Node3&#45;&gt;Node4</title>
<path fill="none" stroke="midnightblue" d="M185.56,-112.08C179.57,-104.38 170.75,-93.03 163.45,-83.65"/>
<polygon fill="midnightblue" stroke="midnightblue" points="166.21,-81.5 157.31,-75.75 160.68,-85.79 166.21,-81.5"/>
</g>
<!-- Node7 -->
<g id="node7" class="node">
<title>Node7</title>
<g id="a_node7"><a xlink:href="exprtype_8hpp.html" target="_top" xlink:title=" ">
<polygon fill="white" stroke="black" points="211,-0.5 211,-19.5 338,-19.5 338,-0.5 211,-0.5"/>
<text text-anchor="middle" x="274.5" y="-7.5" font-family="Helvetica,sans-Serif" font-size="10.00">common/exprtype.hpp</text>
</a>
</g>
</g>
<!-- Node3&#45;&gt;Node7 -->
<g id="edge8" class="edge">
<title>Node3&#45;&gt;Node7</title>
<path fill="none" stroke="midnightblue" d="M198.93,-112.37C212.53,-94.14 244.36,-51.43 262.07,-27.68"/>
<polygon fill="midnightblue" stroke="midnightblue" points="264.92,-29.7 268.1,-19.59 259.31,-25.52 264.92,-29.7"/>
</g>
<!-- Node8 -->
<g id="node8" class="node">
<title>Node8</title>
<g id="a_node8"><a xlink:href="cppcheck_8hpp.html" target="_top" xlink:title=" ">
<polygon fill="white" stroke="black" points="264,-56.5 264,-75.5 393,-75.5 393,-56.5 264,-56.5"/>
<text text-anchor="middle" x="328.5" y="-63.5" font-family="Helvetica,sans-Serif" font-size="10.00">common/cppcheck.hpp</text>
</a>
</g>
</g>
<!-- Node3&#45;&gt;Node8 -->
<g id="edge9" class="edge">
<title>Node3&#45;&gt;Node8</title>
<path fill="none" stroke="midnightblue" d="M214.05,-112.44C236.53,-103.52 271.99,-89.44 297.48,-79.32"/>
<polygon fill="midnightblue" stroke="midnightblue" points="299.05,-82.46 307.05,-75.52 296.47,-75.95 299.05,-82.46"/>
</g>
<!-- Node4&#45;&gt;Node2 -->
<g id="edge6" class="edge">
<title>Node4&#45;&gt;Node2</title>
<path fill="none" stroke="midnightblue" d="M130.38,-56.44C109.48,-47.56 76.57,-33.56 52.78,-23.45"/>
<polygon fill="midnightblue" stroke="midnightblue" points="54.1,-20.21 43.53,-19.52 51.36,-26.65 54.1,-20.21"/>
</g>
<!-- Node5 -->
<g id="node5" class="node">
<title>Node5</title>
<g id="a_node5"><a xlink:title=" ">
<polygon fill="white" stroke="#bfbfbf" points="65,-0.5 65,-19.5 118,-19.5 118,-0.5 65,-0.5"/>
<text text-anchor="middle" x="91.5" y="-7.5" font-family="Helvetica,sans-Serif" font-size="10.00">cstddef</text>
</a>
</g>
</g>
<!-- Node4&#45;&gt;Node5 -->
<g id="edge4" class="edge">
<title>Node4&#45;&gt;Node5</title>
<path fill="none" stroke="midnightblue" d="M141.02,-56.32C132.3,-48.34 119.16,-36.31 108.6,-26.65"/>
<polygon fill="midnightblue" stroke="midnightblue" points="110.89,-24 101.15,-19.83 106.17,-29.17 110.89,-24"/>
</g>
<!-- Node6 -->
<g id="node6" class="node">
<title>Node6</title>
<g id="a_node6"><a xlink:title=" ">
<polygon fill="white" stroke="#bfbfbf" points="136,-0.5 136,-19.5 193,-19.5 193,-0.5 136,-0.5"/>
<text text-anchor="middle" x="164.5" y="-7.5" font-family="Helvetica,sans-Serif" font-size="10.00">ostream</text>
</a>
</g>
</g>
<!-- Node4&#45;&gt;Node6 -->
<g id="edge5" class="edge">
<title>Node4&#45;&gt;Node6</title>
<path fill="none" stroke="midnightblue" d="M152.81,-56.08C154.67,-48.93 157.34,-38.64 159.65,-29.69"/>
<polygon fill="midnightblue" stroke="midnightblue" points="163.11,-30.31 162.23,-19.75 156.33,-28.55 163.11,-30.31"/>
</g>
<!-- Node4&#45;&gt;Node7 -->
<g id="edge7" class="edge">
<title>Node4&#45;&gt;Node7</title>
<path fill="none" stroke="midnightblue" d="M170.15,-56.44C190.46,-47.6 222.4,-33.69 245.6,-23.59"/>
<polygon fill="midnightblue" stroke="midnightblue" points="247.17,-26.72 254.94,-19.52 244.38,-20.3 247.17,-26.72"/>
</g>
</g>
</svg>
