<?xml version="1.0" encoding="UTF-8" standalone="no"?>
<!DOCTYPE svg PUBLIC "-//W3C//DTD SVG 1.1//EN"
 "http://www.w3.org/Graphics/SVG/1.1/DTD/svg11.dtd">
<!-- Generated by graphviz version 2.43.0 (0)
 -->
<!-- Title: src/optimizer/util.hpp Pages: 1 -->
<svg width="655pt" height="84pt"
 viewBox="0.00 0.00 655.00 84.00" xmlns="http://www.w3.org/2000/svg" xmlns:xlink="http://www.w3.org/1999/xlink">
<g id="graph0" class="graph" transform="scale(1 1) rotate(0) translate(4 80)">
<title>src/optimizer/util.hpp</title>
<polygon fill="white" stroke="transparent" points="-4,4 -4,-80 651,-80 651,4 -4,4"/>
<!-- Node1 -->
<g id="node1" class="node">
<title>Node1</title>
<g id="a_node1"><a xlink:title=" ">
<polygon fill="#bfbfbf" stroke="black" points="288.5,-56.5 288.5,-75.5 408.5,-75.5 408.5,-56.5 288.5,-56.5"/>
<text text-anchor="middle" x="348.5" y="-63.5" font-family="Helvetica,sans-Serif" font-size="10.00">src/optimizer/util.hpp</text>
</a>
</g>
</g>
<!-- Node2 -->
<g id="node2" class="node">
<title>Node2</title>
<g id="a_node2"><a xlink:href="acyclicgraph_8cpp.html" target="_top" xlink:title=" ">
<polygon fill="white" stroke="black" points="0,-0.5 0,-19.5 165,-19.5 165,-0.5 0,-0.5"/>
<text text-anchor="middle" x="82.5" y="-7.5" font-family="Helvetica,sans-Serif" font-size="10.00">src/optimizer/acyclicgraph.cpp</text>
</a>
</g>
</g>
<!-- Node1&#45;&gt;Node2 -->
<g id="edge1" class="edge">
<title>Node1&#45;&gt;Node2</title>
<path fill="none" stroke="midnightblue" d="M296.33,-54.41C246.06,-44.2 170.97,-28.96 124.45,-19.52"/>
<polygon fill="midnightblue" stroke="midnightblue" points="295.86,-57.88 306.35,-56.44 297.25,-51.02 295.86,-57.88"/>
</g>
<!-- Node3 -->
<g id="node3" class="node">
<title>Node3</title>
<g id="a_node3"><a xlink:href="controlflow_8cpp.html" target="_top" xlink:title=" ">
<polygon fill="white" stroke="black" points="183.5,-0.5 183.5,-19.5 341.5,-19.5 341.5,-0.5 183.5,-0.5"/>
<text text-anchor="middle" x="262.5" y="-7.5" font-family="Helvetica,sans-Serif" font-size="10.00">src/optimizer/controlflow.cpp</text>
</a>
</g>
</g>
<!-- Node1&#45;&gt;Node3 -->
<g id="edge2" class="edge">
<title>Node1&#45;&gt;Node3</title>
<path fill="none" stroke="midnightblue" d="M326.05,-50.9C310.28,-41 289.69,-28.07 276.28,-19.65"/>
<polygon fill="midnightblue" stroke="midnightblue" points="324.35,-53.97 334.68,-56.32 328.07,-48.04 324.35,-53.97"/>
</g>
<!-- Node4 -->
<g id="node4" class="node">
<title>Node4</title>
<g id="a_node4"><a xlink:href="optimizer_8cpp.html" target="_top" xlink:title=" ">
<polygon fill="white" stroke="black" points="359.5,-0.5 359.5,-19.5 509.5,-19.5 509.5,-0.5 359.5,-0.5"/>
<text text-anchor="middle" x="434.5" y="-7.5" font-family="Helvetica,sans-Serif" font-size="10.00">src/optimizer/optimizer.cpp</text>
</a>
</g>
</g>
<!-- Node1&#45;&gt;Node4 -->
<g id="edge3" class="edge">
<title>Node1&#45;&gt;Node4</title>
<path fill="none" stroke="midnightblue" d="M370.95,-50.9C386.72,-41 407.31,-28.07 420.72,-19.65"/>
<polygon fill="midnightblue" stroke="midnightblue" points="368.93,-48.04 362.32,-56.32 372.65,-53.97 368.93,-48.04"/>
</g>
<!-- Node5 -->
<g id="node5" class="node">
<title>Node5</title>
<g id="a_node5"><a xlink:href="util_8cpp.html" target="_top" xlink:title=" ">
<polygon fill="white" stroke="black" points="528,-0.5 528,-19.5 647,-19.5 647,-0.5 528,-0.5"/>
<text text-anchor="middle" x="587.5" y="-7.5" font-family="Helvetica,sans-Serif" font-size="10.00">src/optimizer/util.cpp</text>
</a>
</g>
</g>
<!-- Node1&#45;&gt;Node5 -->
<g id="edge4" class="edge">
<title>Node1&#45;&gt;Node5</title>
<path fill="none" stroke="midnightblue" d="M396.22,-54.22C441.39,-44.01 508.27,-28.9 549.81,-19.52"/>
<polygon fill="midnightblue" stroke="midnightblue" points="395.35,-50.83 386.37,-56.44 396.9,-57.65 395.35,-50.83"/>
</g>
</g>
</svg>
