<?xml version="1.0" encoding="UTF-8" standalone="no"?>
<!DOCTYPE svg PUBLIC "-//W3C//DTD SVG 1.1//EN"
 "http://www.w3.org/Graphics/SVG/1.1/DTD/svg11.dtd">
<!-- Generated by graphviz version 2.43.0 (0)
 -->
<!-- Title: src/optimizer/util.cpp Pages: 1 -->
<svg width="546pt" height="252pt"
 viewBox="0.00 0.00 546.00 252.00" xmlns="http://www.w3.org/2000/svg" xmlns:xlink="http://www.w3.org/1999/xlink">
<g id="graph0" class="graph" transform="scale(1 1) rotate(0) translate(4 248)">
<title>src/optimizer/util.cpp</title>
<polygon fill="white" stroke="transparent" points="-4,4 -4,-248 542,-248 542,4 -4,4"/>
<!-- Node1 -->
<g id="node1" class="node">
<title>Node1</title>
<g id="a_node1"><a xlink:title=" ">
<polygon fill="#bfbfbf" stroke="black" points="151,-224.5 151,-243.5 270,-243.5 270,-224.5 151,-224.5"/>
<text text-anchor="middle" x="210.5" y="-231.5" font-family="Helvetica,sans-Serif" font-size="10.00">src/optimizer/util.cpp</text>
</a>
</g>
</g>
<!-- Node2 -->
<g id="node2" class="node">
<title>Node2</title>
<g id="a_node2"><a xlink:href="util_8hpp.html" target="_top" xlink:title=" ">
<polygon fill="white" stroke="black" points="159,-168.5 159,-187.5 262,-187.5 262,-168.5 159,-168.5"/>
<text text-anchor="middle" x="210.5" y="-175.5" font-family="Helvetica,sans-Serif" font-size="10.00">optimizer/util.hpp</text>
</a>
</g>
</g>
<!-- Node1&#45;&gt;Node2 -->
<g id="edge1" class="edge">
<title>Node1&#45;&gt;Node2</title>
<path fill="none" stroke="midnightblue" d="M210.5,-224.08C210.5,-217.01 210.5,-206.86 210.5,-197.99"/>
<polygon fill="midnightblue" stroke="midnightblue" points="214,-197.75 210.5,-187.75 207,-197.75 214,-197.75"/>
</g>
<!-- Node10 -->
<g id="node10" class="node">
<title>Node10</title>
<g id="a_node10"><a xlink:href="controlflow_8hpp.html" target="_top" xlink:title=" ">
<polygon fill="white" stroke="black" points="0,-168.5 0,-187.5 141,-187.5 141,-168.5 0,-168.5"/>
<text text-anchor="middle" x="70.5" y="-175.5" font-family="Helvetica,sans-Serif" font-size="10.00">optimizer/controlflow.hpp</text>
</a>
</g>
</g>
<!-- Node1&#45;&gt;Node10 -->
<g id="edge11" class="edge">
<title>Node1&#45;&gt;Node10</title>
<path fill="none" stroke="midnightblue" d="M188.32,-224.44C165.07,-215.48 128.35,-201.31 102.08,-191.18"/>
<polygon fill="midnightblue" stroke="midnightblue" points="103.17,-187.85 92.58,-187.52 100.65,-194.38 103.17,-187.85"/>
</g>
<!-- Node12 -->
<g id="node12" class="node">
<title>Node12</title>
<g id="a_node12"><a xlink:href="acyclicgraph_8hpp.html" target="_top" xlink:title=" ">
<polygon fill="white" stroke="black" points="280,-168.5 280,-187.5 429,-187.5 429,-168.5 280,-168.5"/>
<text text-anchor="middle" x="354.5" y="-175.5" font-family="Helvetica,sans-Serif" font-size="10.00">optimizer/acyclicgraph.hpp</text>
</a>
</g>
</g>
<!-- Node1&#45;&gt;Node12 -->
<g id="edge16" class="edge">
<title>Node1&#45;&gt;Node12</title>
<path fill="none" stroke="midnightblue" d="M233.32,-224.44C257.33,-215.44 295.33,-201.19 322.37,-191.05"/>
<polygon fill="midnightblue" stroke="midnightblue" points="323.66,-194.3 331.79,-187.52 321.2,-187.75 323.66,-194.3"/>
</g>
<!-- Node3 -->
<g id="node3" class="node">
<title>Node3</title>
<g id="a_node3"><a xlink:title=" ">
<polygon fill="white" stroke="#bfbfbf" points="115,-0.5 115,-19.5 162,-19.5 162,-0.5 115,-0.5"/>
<text text-anchor="middle" x="138.5" y="-7.5" font-family="Helvetica,sans-Serif" font-size="10.00">vector</text>
</a>
</g>
</g>
<!-- Node2&#45;&gt;Node3 -->
<g id="edge2" class="edge">
<title>Node2&#45;&gt;Node3</title>
<path fill="none" stroke="midnightblue" d="M199.28,-168.45C189.02,-160.12 174.02,-146.6 164.5,-132 149.99,-109.73 149.24,-101.95 143.5,-76 140.1,-60.62 138.92,-42.74 138.55,-29.63"/>
<polygon fill="midnightblue" stroke="midnightblue" points="142.04,-29.47 138.4,-19.53 135.05,-29.58 142.04,-29.47"/>
</g>
<!-- Node4 -->
<g id="node4" class="node">
<title>Node4</title>
<g id="a_node4"><a xlink:href="poliz_8hpp.html" target="_top" xlink:title=" ">
<polygon fill="white" stroke="black" points="207,-112.5 207,-131.5 314,-131.5 314,-112.5 207,-112.5"/>
<text text-anchor="middle" x="260.5" y="-119.5" font-family="Helvetica,sans-Serif" font-size="10.00">common/poliz.hpp</text>
</a>
</g>
</g>
<!-- Node2&#45;&gt;Node4 -->
<g id="edge3" class="edge">
<title>Node2&#45;&gt;Node4</title>
<path fill="none" stroke="midnightblue" d="M218.76,-168.08C225.96,-160.3 236.61,-148.8 245.35,-139.37"/>
<polygon fill="midnightblue" stroke="midnightblue" points="248.17,-141.47 252.4,-131.75 243.03,-136.71 248.17,-141.47"/>
</g>
<!-- Node5 -->
<g id="node5" class="node">
<title>Node5</title>
<g id="a_node5"><a xlink:href="tables_8hpp.html" target="_top" xlink:title=" ">
<polygon fill="white" stroke="black" points="186,-56.5 186,-75.5 299,-75.5 299,-56.5 186,-56.5"/>
<text text-anchor="middle" x="242.5" y="-63.5" font-family="Helvetica,sans-Serif" font-size="10.00">common/tables.hpp</text>
</a>
</g>
</g>
<!-- Node4&#45;&gt;Node5 -->
<g id="edge4" class="edge">
<title>Node4&#45;&gt;Node5</title>
<path fill="none" stroke="midnightblue" d="M257.53,-112.08C255.12,-104.85 251.64,-94.41 248.63,-85.4"/>
<polygon fill="midnightblue" stroke="midnightblue" points="251.9,-84.13 245.42,-75.75 245.26,-86.34 251.9,-84.13"/>
</g>
<!-- Node8 -->
<g id="node8" class="node">
<title>Node8</title>
<g id="a_node8"><a xlink:href="exprtype_8hpp.html" target="_top" xlink:title=" ">
<polygon fill="white" stroke="black" points="411,-0.5 411,-19.5 538,-19.5 538,-0.5 411,-0.5"/>
<text text-anchor="middle" x="474.5" y="-7.5" font-family="Helvetica,sans-Serif" font-size="10.00">common/exprtype.hpp</text>
</a>
</g>
</g>
<!-- Node4&#45;&gt;Node8 -->
<g id="edge9" class="edge">
<title>Node4&#45;&gt;Node8</title>
<path fill="none" stroke="midnightblue" d="M308.31,-112.48C362.21,-102.48 443.78,-85.99 454.5,-76 467.18,-64.19 471.89,-44.55 473.61,-29.95"/>
<polygon fill="midnightblue" stroke="midnightblue" points="477.13,-29.81 474.44,-19.56 470.15,-29.25 477.13,-29.81"/>
</g>
<!-- Node9 -->
<g id="node9" class="node">
<title>Node9</title>
<g id="a_node9"><a xlink:href="cppcheck_8hpp.html" target="_top" xlink:title=" ">
<polygon fill="white" stroke="black" points="317,-56.5 317,-75.5 446,-75.5 446,-56.5 317,-56.5"/>
<text text-anchor="middle" x="381.5" y="-63.5" font-family="Helvetica,sans-Serif" font-size="10.00">common/cppcheck.hpp</text>
</a>
</g>
</g>
<!-- Node4&#45;&gt;Node9 -->
<g id="edge10" class="edge">
<title>Node4&#45;&gt;Node9</title>
<path fill="none" stroke="midnightblue" d="M279.67,-112.44C299.41,-103.64 330.39,-89.81 352.99,-79.72"/>
<polygon fill="midnightblue" stroke="midnightblue" points="354.71,-82.79 362.42,-75.52 351.86,-76.4 354.71,-82.79"/>
</g>
<!-- Node5&#45;&gt;Node3 -->
<g id="edge7" class="edge">
<title>Node5&#45;&gt;Node3</title>
<path fill="none" stroke="midnightblue" d="M225.79,-56.32C209.19,-47.7 183.5,-34.36 164.28,-24.39"/>
<polygon fill="midnightblue" stroke="midnightblue" points="165.66,-21.16 155.17,-19.65 162.43,-27.37 165.66,-21.16"/>
</g>
<!-- Node6 -->
<g id="node6" class="node">
<title>Node6</title>
<g id="a_node6"><a xlink:title=" ">
<polygon fill="white" stroke="#bfbfbf" points="198,-0.5 198,-19.5 251,-19.5 251,-0.5 198,-0.5"/>
<text text-anchor="middle" x="224.5" y="-7.5" font-family="Helvetica,sans-Serif" font-size="10.00">cstddef</text>
</a>
</g>
</g>
<!-- Node5&#45;&gt;Node6 -->
<g id="edge5" class="edge">
<title>Node5&#45;&gt;Node6</title>
<path fill="none" stroke="midnightblue" d="M239.53,-56.08C237.12,-48.85 233.64,-38.41 230.63,-29.4"/>
<polygon fill="midnightblue" stroke="midnightblue" points="233.9,-28.13 227.42,-19.75 227.26,-30.34 233.9,-28.13"/>
</g>
<!-- Node7 -->
<g id="node7" class="node">
<title>Node7</title>
<g id="a_node7"><a xlink:title=" ">
<polygon fill="white" stroke="#bfbfbf" points="269,-0.5 269,-19.5 326,-19.5 326,-0.5 269,-0.5"/>
<text text-anchor="middle" x="297.5" y="-7.5" font-family="Helvetica,sans-Serif" font-size="10.00">ostream</text>
</a>
</g>
</g>
<!-- Node5&#45;&gt;Node7 -->
<g id="edge6" class="edge">
<title>Node5&#45;&gt;Node7</title>
<path fill="none" stroke="midnightblue" d="M251.58,-56.08C259.67,-48.14 271.7,-36.34 281.41,-26.8"/>
<polygon fill="midnightblue" stroke="midnightblue" points="283.9,-29.25 288.59,-19.75 279,-24.26 283.9,-29.25"/>
</g>
<!-- Node5&#45;&gt;Node8 -->
<g id="edge8" class="edge">
<title>Node5&#45;&gt;Node8</title>
<path fill="none" stroke="midnightblue" d="M279.26,-56.44C319.56,-47.06 384.31,-31.99 428.08,-21.8"/>
<polygon fill="midnightblue" stroke="midnightblue" points="428.96,-25.19 437.91,-19.52 427.38,-18.37 428.96,-25.19"/>
</g>
<!-- Node10&#45;&gt;Node3 -->
<g id="edge12" class="edge">
<title>Node10&#45;&gt;Node3</title>
<path fill="none" stroke="midnightblue" d="M51.34,-168.33C29.39,-157.05 -2.16,-135.93 9.5,-112 30.16,-69.59 78.19,-39.74 109.46,-23.98"/>
<polygon fill="midnightblue" stroke="midnightblue" points="111.12,-27.06 118.57,-19.54 108.05,-20.77 111.12,-27.06"/>
</g>
<!-- Node10&#45;&gt;Node4 -->
<g id="edge15" class="edge">
<title>Node10&#45;&gt;Node4</title>
<path fill="none" stroke="midnightblue" d="M100.61,-168.44C133.13,-159.2 185.08,-144.44 220.89,-134.26"/>
<polygon fill="midnightblue" stroke="midnightblue" points="221.87,-137.62 230.53,-131.52 219.96,-130.88 221.87,-137.62"/>
</g>
<!-- Node10&#45;&gt;Node5 -->
<g id="edge14" class="edge">
<title>Node10&#45;&gt;Node5</title>
<path fill="none" stroke="midnightblue" d="M84,-168.37C113.51,-149.49 184.04,-104.38 220.24,-81.24"/>
<polygon fill="midnightblue" stroke="midnightblue" points="222.53,-83.93 229.07,-75.59 218.76,-78.03 222.53,-83.93"/>
</g>
<!-- Node11 -->
<g id="node11" class="node">
<title>Node11</title>
<g id="a_node11"><a xlink:title=" ">
<polygon fill="white" stroke="#bfbfbf" points="19,-112.5 19,-131.5 74,-131.5 74,-112.5 19,-112.5"/>
<text text-anchor="middle" x="46.5" y="-119.5" font-family="Helvetica,sans-Serif" font-size="10.00">fstream</text>
</a>
</g>
</g>
<!-- Node10&#45;&gt;Node11 -->
<g id="edge13" class="edge">
<title>Node10&#45;&gt;Node11</title>
<path fill="none" stroke="midnightblue" d="M66.54,-168.08C63.29,-160.77 58.58,-150.18 54.55,-141.1"/>
<polygon fill="midnightblue" stroke="midnightblue" points="57.65,-139.47 50.39,-131.75 51.25,-142.31 57.65,-139.47"/>
</g>
<!-- Node12&#45;&gt;Node3 -->
<g id="edge17" class="edge">
<title>Node12&#45;&gt;Node3</title>
<path fill="none" stroke="midnightblue" d="M279.68,-168.65C251.4,-162.36 220.52,-151.32 197.5,-132 165.23,-104.92 149.15,-55.99 142.46,-29.4"/>
<polygon fill="midnightblue" stroke="midnightblue" points="145.83,-28.44 140.15,-19.5 139.02,-30.04 145.83,-28.44"/>
</g>
<!-- Node12&#45;&gt;Node4 -->
<g id="edge21" class="edge">
<title>Node12&#45;&gt;Node4</title>
<path fill="none" stroke="midnightblue" d="M339.4,-168.32C324.6,-159.82 301.81,-146.73 284.52,-136.8"/>
<polygon fill="midnightblue" stroke="midnightblue" points="285.98,-133.6 275.57,-131.65 282.49,-139.67 285.98,-133.6"/>
</g>
<!-- Node12&#45;&gt;Node5 -->
<g id="edge20" class="edge">
<title>Node12&#45;&gt;Node5</title>
<path fill="none" stroke="midnightblue" d="M364.15,-168.45C377.61,-155.46 398.96,-130.35 385.5,-112 374.88,-97.52 334.14,-85.57 298.85,-77.64"/>
<polygon fill="midnightblue" stroke="midnightblue" points="299.59,-74.21 289.07,-75.5 298.1,-81.05 299.59,-74.21"/>
</g>
<!-- Node12&#45;&gt;Node8 -->
<g id="edge19" class="edge">
<title>Node12&#45;&gt;Node8</title>
<path fill="none" stroke="midnightblue" d="M372.77,-168.35C400.99,-153.83 454.16,-121.6 475.5,-76 482.23,-61.62 481.26,-43.43 479.02,-29.95"/>
<polygon fill="midnightblue" stroke="midnightblue" points="482.41,-29.02 476.99,-19.92 475.55,-30.42 482.41,-29.02"/>
</g>
<!-- Node13 -->
<g id="node13" class="node">
<title>Node13</title>
<g id="a_node13"><a xlink:title=" ">
<polygon fill="white" stroke="#bfbfbf" points="332,-112.5 332,-131.5 377,-131.5 377,-112.5 332,-112.5"/>
<text text-anchor="middle" x="354.5" y="-119.5" font-family="Helvetica,sans-Serif" font-size="10.00">utility</text>
</a>
</g>
</g>
<!-- Node12&#45;&gt;Node13 -->
<g id="edge18" class="edge">
<title>Node12&#45;&gt;Node13</title>
<path fill="none" stroke="midnightblue" d="M354.5,-168.08C354.5,-161.01 354.5,-150.86 354.5,-141.99"/>
<polygon fill="midnightblue" stroke="midnightblue" points="358,-141.75 354.5,-131.75 351,-141.75 358,-141.75"/>
</g>
</g>
</svg>
