<?xml version="1.0" encoding="UTF-8" standalone="no"?>
<!DOCTYPE svg PUBLIC "-//W3C//DTD SVG 1.1//EN"
 "http://www.w3.org/Graphics/SVG/1.1/DTD/svg11.dtd">
<!-- Generated by graphviz version 2.43.0 (0)
 -->
<!-- Title: src/optimizer/util.cpp Pages: 1 -->
<svg width="515pt" height="252pt"
 viewBox="0.00 0.00 514.50 252.00" xmlns="http://www.w3.org/2000/svg" xmlns:xlink="http://www.w3.org/1999/xlink">
<g id="graph0" class="graph" transform="scale(1 1) rotate(0) translate(4 248)">
<title>src/optimizer/util.cpp</title>
<polygon fill="white" stroke="transparent" points="-4,4 -4,-248 510.5,-248 510.5,4 -4,4"/>
<!-- Node1 -->
<g id="node1" class="node">
<title>Node1</title>
<g id="a_node1"><a xlink:title=" ">
<polygon fill="#bfbfbf" stroke="black" points="150.5,-224.5 150.5,-243.5 269.5,-243.5 269.5,-224.5 150.5,-224.5"/>
<text text-anchor="middle" x="210" y="-231.5" font-family="Helvetica,sans-Serif" font-size="10.00">src/optimizer/util.cpp</text>
</a>
</g>
</g>
<!-- Node2 -->
<g id="node2" class="node">
<title>Node2</title>
<g id="a_node2"><a xlink:href="util_8hpp.html" target="_top" xlink:title=" ">
<polygon fill="white" stroke="black" points="158.5,-168.5 158.5,-187.5 261.5,-187.5 261.5,-168.5 158.5,-168.5"/>
<text text-anchor="middle" x="210" y="-175.5" font-family="Helvetica,sans-Serif" font-size="10.00">optimizer/util.hpp</text>
</a>
</g>
</g>
<!-- Node1&#45;&gt;Node2 -->
<g id="edge1" class="edge">
<title>Node1&#45;&gt;Node2</title>
<path fill="none" stroke="midnightblue" d="M210,-224.08C210,-217.01 210,-206.86 210,-197.99"/>
<polygon fill="midnightblue" stroke="midnightblue" points="213.5,-197.75 210,-187.75 206.5,-197.75 213.5,-197.75"/>
</g>
<!-- Node9 -->
<g id="node9" class="node">
<title>Node9</title>
<g id="a_node9"><a xlink:href="controlflow_8hpp.html" target="_top" xlink:title=" ">
<polygon fill="white" stroke="black" points="0,-168.5 0,-187.5 140,-187.5 140,-168.5 0,-168.5"/>
<text text-anchor="middle" x="70" y="-175.5" font-family="Helvetica,sans-Serif" font-size="10.00">optimizer/controlflow.hpp</text>
</a>
</g>
</g>
<!-- Node1&#45;&gt;Node9 -->
<g id="edge10" class="edge">
<title>Node1&#45;&gt;Node9</title>
<path fill="none" stroke="midnightblue" d="M187.82,-224.44C164.57,-215.48 127.85,-201.31 101.58,-191.18"/>
<polygon fill="midnightblue" stroke="midnightblue" points="102.67,-187.85 92.08,-187.52 100.15,-194.38 102.67,-187.85"/>
</g>
<!-- Node11 -->
<g id="node11" class="node">
<title>Node11</title>
<g id="a_node11"><a xlink:href="acyclicgraph_8hpp.html" target="_top" xlink:title=" ">
<polygon fill="white" stroke="black" points="279.5,-168.5 279.5,-187.5 428.5,-187.5 428.5,-168.5 279.5,-168.5"/>
<text text-anchor="middle" x="354" y="-175.5" font-family="Helvetica,sans-Serif" font-size="10.00">optimizer/acyclicgraph.hpp</text>
</a>
</g>
</g>
<!-- Node1&#45;&gt;Node11 -->
<g id="edge15" class="edge">
<title>Node1&#45;&gt;Node11</title>
<path fill="none" stroke="midnightblue" d="M232.82,-224.44C256.83,-215.44 294.83,-201.19 321.87,-191.05"/>
<polygon fill="midnightblue" stroke="midnightblue" points="323.16,-194.3 331.29,-187.52 320.7,-187.75 323.16,-194.3"/>
</g>
<!-- Node3 -->
<g id="node3" class="node">
<title>Node3</title>
<g id="a_node3"><a xlink:title=" ">
<polygon fill="white" stroke="#bfbfbf" points="148.5,-0.5 148.5,-19.5 195.5,-19.5 195.5,-0.5 148.5,-0.5"/>
<text text-anchor="middle" x="172" y="-7.5" font-family="Helvetica,sans-Serif" font-size="10.00">vector</text>
</a>
</g>
</g>
<!-- Node2&#45;&gt;Node3 -->
<g id="edge2" class="edge">
<title>Node2&#45;&gt;Node3</title>
<path fill="none" stroke="midnightblue" d="M199.01,-168.37C189.55,-160.17 176.56,-146.92 171,-132 158.2,-97.68 163.3,-53.97 167.86,-29.59"/>
<polygon fill="midnightblue" stroke="midnightblue" points="171.33,-30.07 169.91,-19.57 164.47,-28.67 171.33,-30.07"/>
</g>
<!-- Node4 -->
<g id="node4" class="node">
<title>Node4</title>
<g id="a_node4"><a xlink:href="poliz_8hpp.html" target="_top" xlink:title=" ">
<polygon fill="white" stroke="black" points="180.5,-112.5 180.5,-131.5 287.5,-131.5 287.5,-112.5 180.5,-112.5"/>
<text text-anchor="middle" x="234" y="-119.5" font-family="Helvetica,sans-Serif" font-size="10.00">common/poliz.hpp</text>
</a>
</g>
</g>
<!-- Node2&#45;&gt;Node4 -->
<g id="edge3" class="edge">
<title>Node2&#45;&gt;Node4</title>
<path fill="none" stroke="midnightblue" d="M213.96,-168.08C217.21,-160.77 221.92,-150.18 225.95,-141.1"/>
<polygon fill="midnightblue" stroke="midnightblue" points="229.25,-142.31 230.11,-131.75 222.85,-139.47 229.25,-142.31"/>
</g>
<!-- Node5 -->
<g id="node5" class="node">
<title>Node5</title>
<g id="a_node5"><a xlink:href="tables_8hpp.html" target="_top" xlink:title=" ">
<polygon fill="white" stroke="black" points="276.5,-56.5 276.5,-75.5 389.5,-75.5 389.5,-56.5 276.5,-56.5"/>
<text text-anchor="middle" x="333" y="-63.5" font-family="Helvetica,sans-Serif" font-size="10.00">common/tables.hpp</text>
</a>
</g>
</g>
<!-- Node4&#45;&gt;Node5 -->
<g id="edge4" class="edge">
<title>Node4&#45;&gt;Node5</title>
<path fill="none" stroke="midnightblue" d="M249.91,-112.32C265.64,-103.74 289.94,-90.49 308.21,-80.52"/>
<polygon fill="midnightblue" stroke="midnightblue" points="310.03,-83.52 317.13,-75.65 306.68,-77.37 310.03,-83.52"/>
</g>
<!-- Node8 -->
<g id="node8" class="node">
<title>Node8</title>
<g id="a_node8"><a xlink:href="exprtype_8hpp.html" target="_top" xlink:title=" ">
<polygon fill="white" stroke="black" points="379.5,-0.5 379.5,-19.5 506.5,-19.5 506.5,-0.5 379.5,-0.5"/>
<text text-anchor="middle" x="443" y="-7.5" font-family="Helvetica,sans-Serif" font-size="10.00">common/exprtype.hpp</text>
</a>
</g>
</g>
<!-- Node4&#45;&gt;Node8 -->
<g id="edge9" class="edge">
<title>Node4&#45;&gt;Node8</title>
<path fill="none" stroke="midnightblue" d="M287.86,-115.73C321.98,-110.22 365.6,-98.96 398,-76 414.92,-64.01 427.55,-43.52 435.05,-28.75"/>
<polygon fill="midnightblue" stroke="midnightblue" points="438.27,-30.14 439.42,-19.61 431.95,-27.13 438.27,-30.14"/>
</g>
<!-- Node5&#45;&gt;Node3 -->
<g id="edge7" class="edge">
<title>Node5&#45;&gt;Node3</title>
<path fill="none" stroke="midnightblue" d="M307.49,-56.44C279.85,-47.17 235.63,-32.34 205.28,-22.16"/>
<polygon fill="midnightblue" stroke="midnightblue" points="206.15,-18.76 195.56,-18.9 203.93,-25.4 206.15,-18.76"/>
</g>
<!-- Node6 -->
<g id="node6" class="node">
<title>Node6</title>
<g id="a_node6"><a xlink:title=" ">
<polygon fill="white" stroke="#bfbfbf" points="233.5,-0.5 233.5,-19.5 286.5,-19.5 286.5,-0.5 233.5,-0.5"/>
<text text-anchor="middle" x="260" y="-7.5" font-family="Helvetica,sans-Serif" font-size="10.00">cstddef</text>
</a>
</g>
</g>
<!-- Node5&#45;&gt;Node6 -->
<g id="edge5" class="edge">
<title>Node5&#45;&gt;Node6</title>
<path fill="none" stroke="midnightblue" d="M321.27,-56.32C310.16,-48.11 293.26,-35.6 280.02,-25.81"/>
<polygon fill="midnightblue" stroke="midnightblue" points="282.06,-22.97 271.94,-19.83 277.9,-28.59 282.06,-22.97"/>
</g>
<!-- Node7 -->
<g id="node7" class="node">
<title>Node7</title>
<g id="a_node7"><a xlink:title=" ">
<polygon fill="white" stroke="#bfbfbf" points="304.5,-0.5 304.5,-19.5 361.5,-19.5 361.5,-0.5 304.5,-0.5"/>
<text text-anchor="middle" x="333" y="-7.5" font-family="Helvetica,sans-Serif" font-size="10.00">ostream</text>
</a>
</g>
</g>
<!-- Node5&#45;&gt;Node7 -->
<g id="edge6" class="edge">
<title>Node5&#45;&gt;Node7</title>
<path fill="none" stroke="midnightblue" d="M333,-56.08C333,-49.01 333,-38.86 333,-29.99"/>
<polygon fill="midnightblue" stroke="midnightblue" points="336.5,-29.75 333,-19.75 329.5,-29.75 336.5,-29.75"/>
</g>
<!-- Node5&#45;&gt;Node8 -->
<g id="edge8" class="edge">
<title>Node5&#45;&gt;Node8</title>
<path fill="none" stroke="midnightblue" d="M350.67,-56.32C368.39,-47.62 395.9,-34.12 416.29,-24.11"/>
<polygon fill="midnightblue" stroke="midnightblue" points="417.94,-27.2 425.37,-19.65 414.85,-20.92 417.94,-27.2"/>
</g>
<!-- Node9&#45;&gt;Node3 -->
<g id="edge11" class="edge">
<title>Node9&#45;&gt;Node3</title>
<path fill="none" stroke="midnightblue" d="M55.2,-168.35C36.84,-156.43 9.28,-133.94 21,-112 45.72,-65.72 102.08,-36.94 138.52,-22.46"/>
<polygon fill="midnightblue" stroke="midnightblue" points="140.13,-25.59 148.22,-18.75 137.63,-19.05 140.13,-25.59"/>
</g>
<!-- Node9&#45;&gt;Node4 -->
<g id="edge14" class="edge">
<title>Node9&#45;&gt;Node4</title>
<path fill="none" stroke="midnightblue" d="M95.99,-168.44C123.7,-159.32 167.75,-144.81 198.62,-134.65"/>
<polygon fill="midnightblue" stroke="midnightblue" points="199.73,-137.97 208.14,-131.52 197.54,-131.32 199.73,-137.97"/>
</g>
<!-- Node9&#45;&gt;Node5 -->
<g id="edge13" class="edge">
<title>Node9&#45;&gt;Node5</title>
<path fill="none" stroke="midnightblue" d="M80.87,-168.42C98.73,-154.7 135.8,-127.78 171,-112 205.49,-96.54 246.54,-85.21 278.68,-77.78"/>
<polygon fill="midnightblue" stroke="midnightblue" points="279.8,-81.12 288.79,-75.51 278.26,-74.29 279.8,-81.12"/>
</g>
<!-- Node10 -->
<g id="node10" class="node">
<title>Node10</title>
<g id="a_node10"><a xlink:title=" ">
<polygon fill="white" stroke="#bfbfbf" points="30.5,-112.5 30.5,-131.5 85.5,-131.5 85.5,-112.5 30.5,-112.5"/>
<text text-anchor="middle" x="58" y="-119.5" font-family="Helvetica,sans-Serif" font-size="10.00">fstream</text>
</a>
</g>
</g>
<!-- Node9&#45;&gt;Node10 -->
<g id="edge12" class="edge">
<title>Node9&#45;&gt;Node10</title>
<path fill="none" stroke="midnightblue" d="M68.02,-168.08C66.43,-160.93 64.14,-150.64 62.15,-141.69"/>
<polygon fill="midnightblue" stroke="midnightblue" points="65.53,-140.75 59.94,-131.75 58.7,-142.27 65.53,-140.75"/>
</g>
<!-- Node11&#45;&gt;Node3 -->
<g id="edge16" class="edge">
<title>Node11&#45;&gt;Node3</title>
<path fill="none" stroke="midnightblue" d="M346.9,-168.19C336.36,-155.3 315.68,-130.81 296,-112 261.35,-78.88 217.04,-44.49 191.86,-25.62"/>
<polygon fill="midnightblue" stroke="midnightblue" points="193.91,-22.78 183.8,-19.61 189.73,-28.39 193.91,-22.78"/>
</g>
<!-- Node11&#45;&gt;Node4 -->
<g id="edge20" class="edge">
<title>Node11&#45;&gt;Node4</title>
<path fill="none" stroke="midnightblue" d="M334.99,-168.44C315.41,-159.64 284.69,-145.81 262.27,-135.72"/>
<polygon fill="midnightblue" stroke="midnightblue" points="263.48,-132.43 252.93,-131.52 260.61,-138.81 263.48,-132.43"/>
</g>
<!-- Node11&#45;&gt;Node5 -->
<g id="edge19" class="edge">
<title>Node11&#45;&gt;Node5</title>
<path fill="none" stroke="midnightblue" d="M352.35,-168.37C348.96,-150.62 341.15,-109.67 336.55,-85.6"/>
<polygon fill="midnightblue" stroke="midnightblue" points="339.95,-84.76 334.64,-75.59 333.08,-86.07 339.95,-84.76"/>
</g>
<!-- Node11&#45;&gt;Node8 -->
<g id="edge18" class="edge">
<title>Node11&#45;&gt;Node8</title>
<path fill="none" stroke="midnightblue" d="M384.61,-168.46C402.78,-161.69 424.47,-150.26 436,-132 455.78,-100.68 451.67,-55.22 447.17,-29.87"/>
<polygon fill="midnightblue" stroke="midnightblue" points="450.54,-28.89 445.16,-19.77 443.68,-30.26 450.54,-28.89"/>
</g>
<!-- Node12 -->
<g id="node12" class="node">
<title>Node12</title>
<g id="a_node12"><a xlink:title=" ">
<polygon fill="white" stroke="#bfbfbf" points="382.5,-112.5 382.5,-131.5 427.5,-131.5 427.5,-112.5 382.5,-112.5"/>
<text text-anchor="middle" x="405" y="-119.5" font-family="Helvetica,sans-Serif" font-size="10.00">utility</text>
</a>
</g>
</g>
<!-- Node11&#45;&gt;Node12 -->
<g id="edge17" class="edge">
<title>Node11&#45;&gt;Node12</title>
<path fill="none" stroke="midnightblue" d="M362.42,-168.08C369.85,-160.22 380.85,-148.57 389.81,-139.08"/>
<polygon fill="midnightblue" stroke="midnightblue" points="392.41,-141.42 396.74,-131.75 387.32,-136.62 392.41,-141.42"/>
</g>
</g>
</svg>
