<?xml version="1.0" encoding="UTF-8" standalone="no"?>
<!DOCTYPE svg PUBLIC "-//W3C//DTD SVG 1.1//EN"
 "http://www.w3.org/Graphics/SVG/1.1/DTD/svg11.dtd">
<!-- Generated by graphviz version 2.43.0 (0)
 -->
<!-- Title: src/runtime/vmachine.hpp Pages: 1 -->
<svg width="547pt" height="196pt"
 viewBox="0.00 0.00 546.50 196.00" xmlns="http://www.w3.org/2000/svg" xmlns:xlink="http://www.w3.org/1999/xlink">
<g id="graph0" class="graph" transform="scale(1 1) rotate(0) translate(4 192)">
<title>src/runtime/vmachine.hpp</title>
<polygon fill="white" stroke="transparent" points="-4,4 -4,-192 542.5,-192 542.5,4 -4,4"/>
<!-- Node1 -->
<g id="node1" class="node">
<title>Node1</title>
<g id="a_node1"><a xlink:title=" ">
<polygon fill="#bfbfbf" stroke="black" points="96.5,-168.5 96.5,-187.5 240.5,-187.5 240.5,-168.5 96.5,-168.5"/>
<text text-anchor="middle" x="168.5" y="-175.5" font-family="Helvetica,sans-Serif" font-size="10.00">src/runtime/vmachine.hpp</text>
</a>
</g>
</g>
<!-- Node2 -->
<g id="node2" class="node">
<title>Node2</title>
<g id="a_node2"><a xlink:title=" ">
<polygon fill="white" stroke="#bfbfbf" points="0,-112.5 0,-131.5 55,-131.5 55,-112.5 0,-112.5"/>
<text text-anchor="middle" x="27.5" y="-119.5" font-family="Helvetica,sans-Serif" font-size="10.00">fstream</text>
</a>
</g>
</g>
<!-- Node1&#45;&gt;Node2 -->
<g id="edge1" class="edge">
<title>Node1&#45;&gt;Node2</title>
<path fill="none" stroke="midnightblue" d="M146.16,-168.44C122.75,-159.48 85.76,-145.31 59.31,-135.18"/>
<polygon fill="midnightblue" stroke="midnightblue" points="60.33,-131.82 49.74,-131.52 57.82,-138.36 60.33,-131.82"/>
</g>
<!-- Node3 -->
<g id="node3" class="node">
<title>Node3</title>
<g id="a_node3"><a xlink:title=" ">
<polygon fill="white" stroke="#bfbfbf" points="68,-0.5 68,-19.5 115,-19.5 115,-0.5 68,-0.5"/>
<text text-anchor="middle" x="91.5" y="-7.5" font-family="Helvetica,sans-Serif" font-size="10.00">vector</text>
</a>
</g>
</g>
<!-- Node1&#45;&gt;Node3 -->
<g id="edge2" class="edge">
<title>Node1&#45;&gt;Node3</title>
<path fill="none" stroke="midnightblue" d="M161.15,-168.5C147.27,-151.93 117.24,-113.64 102.5,-76 96.69,-61.16 93.95,-43.24 92.65,-29.98"/>
<polygon fill="midnightblue" stroke="midnightblue" points="96.12,-29.41 91.85,-19.71 89.14,-29.96 96.12,-29.41"/>
</g>
<!-- Node4 -->
<g id="node4" class="node">
<title>Node4</title>
<g id="a_node4"><a xlink:href="tables_8hpp.html" target="_top" xlink:title=" ">
<polygon fill="white" stroke="black" points="112,-56.5 112,-75.5 225,-75.5 225,-56.5 112,-56.5"/>
<text text-anchor="middle" x="168.5" y="-63.5" font-family="Helvetica,sans-Serif" font-size="10.00">common/tables.hpp</text>
</a>
</g>
</g>
<!-- Node1&#45;&gt;Node4 -->
<g id="edge3" class="edge">
<title>Node1&#45;&gt;Node4</title>
<path fill="none" stroke="midnightblue" d="M168.5,-168.37C168.5,-150.62 168.5,-109.67 168.5,-85.6"/>
<polygon fill="midnightblue" stroke="midnightblue" points="172,-85.59 168.5,-75.59 165,-85.59 172,-85.59"/>
</g>
<!-- Node8 -->
<g id="node8" class="node">
<title>Node8</title>
<g id="a_node8"><a xlink:href="poliz_8hpp.html" target="_top" xlink:title=" ">
<polygon fill="white" stroke="black" points="225,-112.5 225,-131.5 332,-131.5 332,-112.5 225,-112.5"/>
<text text-anchor="middle" x="278.5" y="-119.5" font-family="Helvetica,sans-Serif" font-size="10.00">common/poliz.hpp</text>
</a>
</g>
</g>
<!-- Node1&#45;&gt;Node8 -->
<g id="edge8" class="edge">
<title>Node1&#45;&gt;Node8</title>
<path fill="none" stroke="midnightblue" d="M186.17,-168.32C203.89,-159.62 231.4,-146.12 251.79,-136.11"/>
<polygon fill="midnightblue" stroke="midnightblue" points="253.44,-139.2 260.87,-131.65 250.35,-132.92 253.44,-139.2"/>
</g>
<!-- Node10 -->
<g id="node10" class="node">
<title>Node10</title>
<g id="a_node10"><a xlink:href="stack_8hpp.html" target="_top" xlink:title=" ">
<polygon fill="white" stroke="black" points="428.5,-56.5 428.5,-75.5 538.5,-75.5 538.5,-56.5 428.5,-56.5"/>
<text text-anchor="middle" x="483.5" y="-63.5" font-family="Helvetica,sans-Serif" font-size="10.00">common/stack.hpp</text>
</a>
</g>
</g>
<!-- Node1&#45;&gt;Node10 -->
<g id="edge12" class="edge">
<title>Node1&#45;&gt;Node10</title>
<path fill="none" stroke="midnightblue" d="M209.05,-168.45C244.29,-160.54 296.43,-147.65 340.5,-132 382.8,-116.98 429.82,-94.4 458,-80.2"/>
<polygon fill="midnightblue" stroke="midnightblue" points="459.82,-83.2 467.15,-75.55 456.65,-76.96 459.82,-83.2"/>
</g>
<!-- Node4&#45;&gt;Node3 -->
<g id="edge6" class="edge">
<title>Node4&#45;&gt;Node3</title>
<path fill="none" stroke="midnightblue" d="M156.13,-56.32C144.34,-48.06 126.37,-35.45 112.36,-25.63"/>
<polygon fill="midnightblue" stroke="midnightblue" points="114.04,-22.53 103.84,-19.65 110.02,-28.26 114.04,-22.53"/>
</g>
<!-- Node5 -->
<g id="node5" class="node">
<title>Node5</title>
<g id="a_node5"><a xlink:title=" ">
<polygon fill="white" stroke="#bfbfbf" points="240,-0.5 240,-19.5 293,-19.5 293,-0.5 240,-0.5"/>
<text text-anchor="middle" x="266.5" y="-7.5" font-family="Helvetica,sans-Serif" font-size="10.00">cstddef</text>
</a>
</g>
</g>
<!-- Node4&#45;&gt;Node5 -->
<g id="edge4" class="edge">
<title>Node4&#45;&gt;Node5</title>
<path fill="none" stroke="midnightblue" d="M184.25,-56.32C199.82,-47.74 223.88,-34.49 241.96,-24.52"/>
<polygon fill="midnightblue" stroke="midnightblue" points="243.72,-27.55 250.79,-19.65 240.35,-21.42 243.72,-27.55"/>
</g>
<!-- Node6 -->
<g id="node6" class="node">
<title>Node6</title>
<g id="a_node6"><a xlink:title=" ">
<polygon fill="white" stroke="#bfbfbf" points="140,-0.5 140,-19.5 197,-19.5 197,-0.5 140,-0.5"/>
<text text-anchor="middle" x="168.5" y="-7.5" font-family="Helvetica,sans-Serif" font-size="10.00">ostream</text>
</a>
</g>
</g>
<!-- Node4&#45;&gt;Node6 -->
<g id="edge5" class="edge">
<title>Node4&#45;&gt;Node6</title>
<path fill="none" stroke="midnightblue" d="M168.5,-56.08C168.5,-49.01 168.5,-38.86 168.5,-29.99"/>
<polygon fill="midnightblue" stroke="midnightblue" points="172,-29.75 168.5,-19.75 165,-29.75 172,-29.75"/>
</g>
<!-- Node7 -->
<g id="node7" class="node">
<title>Node7</title>
<g id="a_node7"><a xlink:href="exprtype_8hpp.html" target="_top" xlink:title=" ">
<polygon fill="white" stroke="black" points="320,-0.5 320,-19.5 447,-19.5 447,-0.5 320,-0.5"/>
<text text-anchor="middle" x="383.5" y="-7.5" font-family="Helvetica,sans-Serif" font-size="10.00">common/exprtype.hpp</text>
</a>
</g>
</g>
<!-- Node4&#45;&gt;Node7 -->
<g id="edge7" class="edge">
<title>Node4&#45;&gt;Node7</title>
<path fill="none" stroke="midnightblue" d="M202.57,-56.44C239.68,-47.12 299.16,-32.18 339.71,-22"/>
<polygon fill="midnightblue" stroke="midnightblue" points="340.75,-25.35 349.59,-19.52 339.04,-18.56 340.75,-25.35"/>
</g>
<!-- Node8&#45;&gt;Node4 -->
<g id="edge9" class="edge">
<title>Node8&#45;&gt;Node4</title>
<path fill="none" stroke="midnightblue" d="M260.83,-112.32C243.11,-103.62 215.6,-90.12 195.21,-80.11"/>
<polygon fill="midnightblue" stroke="midnightblue" points="196.65,-76.92 186.13,-75.65 193.56,-83.2 196.65,-76.92"/>
</g>
<!-- Node8&#45;&gt;Node7 -->
<g id="edge10" class="edge">
<title>Node8&#45;&gt;Node7</title>
<path fill="none" stroke="midnightblue" d="M324.77,-112.49C345.7,-106.12 368.6,-95.07 381.5,-76 390.59,-62.57 390.11,-43.75 387.94,-29.82"/>
<polygon fill="midnightblue" stroke="midnightblue" points="391.35,-29.02 385.98,-19.89 384.48,-30.38 391.35,-29.02"/>
</g>
<!-- Node9 -->
<g id="node9" class="node">
<title>Node9</title>
<g id="a_node9"><a xlink:href="cppcheck_8hpp.html" target="_top" xlink:title=" ">
<polygon fill="white" stroke="black" points="243,-56.5 243,-75.5 372,-75.5 372,-56.5 243,-56.5"/>
<text text-anchor="middle" x="307.5" y="-63.5" font-family="Helvetica,sans-Serif" font-size="10.00">common/cppcheck.hpp</text>
</a>
</g>
</g>
<!-- Node8&#45;&gt;Node9 -->
<g id="edge11" class="edge">
<title>Node8&#45;&gt;Node9</title>
<path fill="none" stroke="midnightblue" d="M283.29,-112.08C287.26,-104.69 293.03,-93.95 297.93,-84.81"/>
<polygon fill="midnightblue" stroke="midnightblue" points="301.15,-86.22 302.8,-75.75 294.99,-82.91 301.15,-86.22"/>
</g>
<!-- Node10&#45;&gt;Node5 -->
<g id="edge13" class="edge">
<title>Node10&#45;&gt;Node5</title>
<path fill="none" stroke="midnightblue" d="M449.12,-56.44C409.23,-46.52 343.76,-30.23 303,-20.08"/>
<polygon fill="midnightblue" stroke="midnightblue" points="303.75,-16.66 293.2,-17.64 302.06,-23.46 303.75,-16.66"/>
</g>
<!-- Node10&#45;&gt;Node7 -->
<g id="edge15" class="edge">
<title>Node10&#45;&gt;Node7</title>
<path fill="none" stroke="midnightblue" d="M467.43,-56.32C451.54,-47.74 426.99,-34.49 408.54,-24.52"/>
<polygon fill="midnightblue" stroke="midnightblue" points="409.99,-21.33 399.53,-19.65 406.66,-27.49 409.99,-21.33"/>
</g>
<!-- Node11 -->
<g id="node11" class="node">
<title>Node11</title>
<g id="a_node11"><a xlink:href="config_8hpp.html" target="_top" xlink:title=" ">
<polygon fill="white" stroke="black" points="465.5,-0.5 465.5,-19.5 533.5,-19.5 533.5,-0.5 465.5,-0.5"/>
<text text-anchor="middle" x="499.5" y="-7.5" font-family="Helvetica,sans-Serif" font-size="10.00">config.hpp</text>
</a>
</g>
</g>
<!-- Node10&#45;&gt;Node11 -->
<g id="edge14" class="edge">
<title>Node10&#45;&gt;Node11</title>
<path fill="none" stroke="midnightblue" d="M486.14,-56.08C488.29,-48.85 491.38,-38.41 494.05,-29.4"/>
<polygon fill="midnightblue" stroke="midnightblue" points="497.42,-30.33 496.91,-19.75 490.71,-28.34 497.42,-30.33"/>
</g>
</g>
</svg>
