<?xml version="1.0" encoding="UTF-8" standalone="no"?>
<!DOCTYPE svg PUBLIC "-//W3C//DTD SVG 1.1//EN"
 "http://www.w3.org/Graphics/SVG/1.1/DTD/svg11.dtd">
<!-- Generated by graphviz version 2.43.0 (0)
 -->
<!-- Title: src/runtime/vmachine.cpp Pages: 1 -->
<svg width="984pt" height="252pt"
 viewBox="0.00 0.00 983.50 252.00" xmlns="http://www.w3.org/2000/svg" xmlns:xlink="http://www.w3.org/1999/xlink">
<g id="graph0" class="graph" transform="scale(1 1) rotate(0) translate(4 248)">
<title>src/runtime/vmachine.cpp</title>
<polygon fill="white" stroke="transparent" points="-4,4 -4,-248 979.5,-248 979.5,4 -4,4"/>
<!-- Node1 -->
<g id="node1" class="node">
<title>Node1</title>
<g id="a_node1"><a xlink:title=" ">
<polygon fill="#bfbfbf" stroke="black" points="342.5,-224.5 342.5,-243.5 485.5,-243.5 485.5,-224.5 342.5,-224.5"/>
<text text-anchor="middle" x="414" y="-231.5" font-family="Helvetica,sans-Serif" font-size="10.00">src/runtime/vmachine.cpp</text>
</a>
</g>
</g>
<!-- Node2 -->
<g id="node2" class="node">
<title>Node2</title>
<g id="a_node2"><a xlink:title=" ">
<polygon fill="white" stroke="#bfbfbf" points="0,-168.5 0,-187.5 60,-187.5 60,-168.5 0,-168.5"/>
<text text-anchor="middle" x="30" y="-175.5" font-family="Helvetica,sans-Serif" font-size="10.00">iostream</text>
</a>
</g>
</g>
<!-- Node1&#45;&gt;Node2 -->
<g id="edge1" class="edge">
<title>Node1&#45;&gt;Node2</title>
<path fill="none" stroke="midnightblue" d="M342.33,-225.7C274.58,-218.34 169.94,-205.77 70.13,-188.05"/>
<polygon fill="midnightblue" stroke="midnightblue" points="70.63,-184.59 60.17,-186.27 69.4,-191.48 70.63,-184.59"/>
</g>
<!-- Node3 -->
<g id="node3" class="node">
<title>Node3</title>
<g id="a_node3"><a xlink:title=" ">
<polygon fill="white" stroke="#bfbfbf" points="78,-168.5 78,-187.5 128,-187.5 128,-168.5 78,-168.5"/>
<text text-anchor="middle" x="103" y="-175.5" font-family="Helvetica,sans-Serif" font-size="10.00">cstring</text>
</a>
</g>
</g>
<!-- Node1&#45;&gt;Node3 -->
<g id="edge2" class="edge">
<title>Node1&#45;&gt;Node3</title>
<path fill="none" stroke="midnightblue" d="M350.41,-224.47C296.37,-216.81 216.54,-204.54 138.22,-188.09"/>
<polygon fill="midnightblue" stroke="midnightblue" points="138.69,-184.61 128.19,-185.96 137.24,-191.46 138.69,-184.61"/>
</g>
<!-- Node4 -->
<g id="node4" class="node">
<title>Node4</title>
<g id="a_node4"><a xlink:title=" ">
<polygon fill="white" stroke="#bfbfbf" points="146,-168.5 146,-187.5 202,-187.5 202,-168.5 146,-168.5"/>
<text text-anchor="middle" x="174" y="-175.5" font-family="Helvetica,sans-Serif" font-size="10.00">unistd.h</text>
</a>
</g>
</g>
<!-- Node1&#45;&gt;Node4 -->
<g id="edge3" class="edge">
<title>Node1&#45;&gt;Node4</title>
<path fill="none" stroke="midnightblue" d="M374.27,-224.44C335.39,-216.02 274.22,-202.61 212.22,-188.25"/>
<polygon fill="midnightblue" stroke="midnightblue" points="212.8,-184.79 202.27,-185.94 211.22,-191.61 212.8,-184.79"/>
</g>
<!-- Node5 -->
<g id="node5" class="node">
<title>Node5</title>
<g id="a_node5"><a xlink:title=" ">
<polygon fill="white" stroke="#bfbfbf" points="220.5,-168.5 220.5,-187.5 275.5,-187.5 275.5,-168.5 220.5,-168.5"/>
<text text-anchor="middle" x="248" y="-175.5" font-family="Helvetica,sans-Serif" font-size="10.00">signal.h</text>
</a>
</g>
</g>
<!-- Node1&#45;&gt;Node5 -->
<g id="edge4" class="edge">
<title>Node1&#45;&gt;Node5</title>
<path fill="none" stroke="midnightblue" d="M387.7,-224.44C359.65,-215.32 315.06,-200.81 283.82,-190.65"/>
<polygon fill="midnightblue" stroke="midnightblue" points="284.77,-187.28 274.18,-187.52 282.61,-193.94 284.77,-187.28"/>
</g>
<!-- Node6 -->
<g id="node6" class="node">
<title>Node6</title>
<g id="a_node6"><a xlink:title=" ">
<polygon fill="white" stroke="#bfbfbf" points="294,-168.5 294,-187.5 360,-187.5 360,-168.5 294,-168.5"/>
<text text-anchor="middle" x="327" y="-175.5" font-family="Helvetica,sans-Serif" font-size="10.00">sys/wait.h</text>
</a>
</g>
</g>
<!-- Node1&#45;&gt;Node6 -->
<g id="edge5" class="edge">
<title>Node1&#45;&gt;Node6</title>
<path fill="none" stroke="midnightblue" d="M400.02,-224.32C386.45,-215.9 365.62,-202.97 349.68,-193.07"/>
<polygon fill="midnightblue" stroke="midnightblue" points="351.29,-189.95 340.94,-187.65 347.59,-195.9 351.29,-189.95"/>
</g>
<!-- Node7 -->
<g id="node7" class="node">
<title>Node7</title>
<g id="a_node7"><a xlink:title=" ">
<polygon fill="white" stroke="#bfbfbf" points="378,-168.5 378,-187.5 450,-187.5 450,-168.5 378,-168.5"/>
<text text-anchor="middle" x="414" y="-175.5" font-family="Helvetica,sans-Serif" font-size="10.00">sys/types.h</text>
</a>
</g>
</g>
<!-- Node1&#45;&gt;Node7 -->
<g id="edge6" class="edge">
<title>Node1&#45;&gt;Node7</title>
<path fill="none" stroke="midnightblue" d="M414,-224.08C414,-217.01 414,-206.86 414,-197.99"/>
<polygon fill="midnightblue" stroke="midnightblue" points="417.5,-197.75 414,-187.75 410.5,-197.75 417.5,-197.75"/>
</g>
<!-- Node8 -->
<g id="node8" class="node">
<title>Node8</title>
<g id="a_node8"><a xlink:title=" ">
<polygon fill="white" stroke="#bfbfbf" points="468,-168.5 468,-187.5 532,-187.5 532,-168.5 468,-168.5"/>
<text text-anchor="middle" x="500" y="-175.5" font-family="Helvetica,sans-Serif" font-size="10.00">sys/stat.h</text>
</a>
</g>
</g>
<!-- Node1&#45;&gt;Node8 -->
<g id="edge7" class="edge">
<title>Node1&#45;&gt;Node8</title>
<path fill="none" stroke="midnightblue" d="M427.82,-224.32C441.23,-215.9 461.82,-202.97 477.59,-193.07"/>
<polygon fill="midnightblue" stroke="midnightblue" points="479.61,-195.94 486.22,-187.65 475.89,-190.01 479.61,-195.94"/>
</g>
<!-- Node9 -->
<g id="node9" class="node">
<title>Node9</title>
<g id="a_node9"><a xlink:title=" ">
<polygon fill="white" stroke="#bfbfbf" points="550.5,-168.5 550.5,-187.5 597.5,-187.5 597.5,-168.5 550.5,-168.5"/>
<text text-anchor="middle" x="574" y="-175.5" font-family="Helvetica,sans-Serif" font-size="10.00">fcntl.h</text>
</a>
</g>
</g>
<!-- Node1&#45;&gt;Node9 -->
<g id="edge8" class="edge">
<title>Node1&#45;&gt;Node9</title>
<path fill="none" stroke="midnightblue" d="M439.35,-224.44C466.74,-215.2 510.51,-200.43 540.67,-190.25"/>
<polygon fill="midnightblue" stroke="midnightblue" points="541.98,-193.5 550.33,-186.99 539.74,-186.87 541.98,-193.5"/>
</g>
<!-- Node10 -->
<g id="node10" class="node">
<title>Node10</title>
<g id="a_node10"><a xlink:href="vmachine_8hpp.html" target="_top" xlink:title=" ">
<polygon fill="white" stroke="black" points="615.5,-168.5 615.5,-187.5 742.5,-187.5 742.5,-168.5 615.5,-168.5"/>
<text text-anchor="middle" x="679" y="-175.5" font-family="Helvetica,sans-Serif" font-size="10.00">runtime/vmachine.hpp</text>
</a>
</g>
</g>
<!-- Node1&#45;&gt;Node10 -->
<g id="edge9" class="edge">
<title>Node1&#45;&gt;Node10</title>
<path fill="none" stroke="midnightblue" d="M455.99,-224.44C502.41,-214.98 577.23,-199.74 627.24,-189.55"/>
<polygon fill="midnightblue" stroke="midnightblue" points="628.11,-192.94 637.21,-187.52 626.71,-186.08 628.11,-192.94"/>
</g>
<!-- Node16 -->
<g id="node16" class="node">
<title>Node16</title>
<g id="a_node16"><a xlink:href="exprtype_8hpp.html" target="_top" xlink:title=" ">
<polygon fill="white" stroke="black" points="674.5,-0.5 674.5,-19.5 801.5,-19.5 801.5,-0.5 674.5,-0.5"/>
<text text-anchor="middle" x="738" y="-7.5" font-family="Helvetica,sans-Serif" font-size="10.00">common/exprtype.hpp</text>
</a>
</g>
</g>
<!-- Node1&#45;&gt;Node16 -->
<g id="edge24" class="edge">
<title>Node1&#45;&gt;Node16</title>
<path fill="none" stroke="midnightblue" d="M485.7,-231.45C572.18,-228.24 711.04,-218.36 752,-188 802.52,-150.55 832.19,-111.71 803,-56 795.72,-42.11 781.99,-31.65 769.02,-24.33"/>
<polygon fill="midnightblue" stroke="midnightblue" points="770.3,-21.05 759.81,-19.55 767.07,-27.27 770.3,-21.05"/>
</g>
<!-- Node20 -->
<g id="node20" class="node">
<title>Node20</title>
<g id="a_node20"><a xlink:href="obstacle_8hpp.html" target="_top" xlink:title=" ">
<polygon fill="white" stroke="black" points="850.5,-168.5 850.5,-187.5 975.5,-187.5 975.5,-168.5 850.5,-168.5"/>
<text text-anchor="middle" x="913" y="-175.5" font-family="Helvetica,sans-Serif" font-size="10.00">common/obstacle.hpp</text>
</a>
</g>
</g>
<!-- Node1&#45;&gt;Node20 -->
<g id="edge25" class="edge">
<title>Node1&#45;&gt;Node20</title>
<path fill="none" stroke="midnightblue" d="M485.71,-225.58C569.69,-216.83 712.98,-201.75 836,-188 837.46,-187.84 838.94,-187.67 840.43,-187.5"/>
<polygon fill="midnightblue" stroke="midnightblue" points="840.85,-190.98 850.39,-186.37 840.06,-184.02 840.85,-190.98"/>
</g>
<!-- Node11 -->
<g id="node11" class="node">
<title>Node11</title>
<g id="a_node11"><a xlink:title=" ">
<polygon fill="white" stroke="#bfbfbf" points="552.5,-112.5 552.5,-131.5 607.5,-131.5 607.5,-112.5 552.5,-112.5"/>
<text text-anchor="middle" x="580" y="-119.5" font-family="Helvetica,sans-Serif" font-size="10.00">fstream</text>
</a>
</g>
</g>
<!-- Node10&#45;&gt;Node11 -->
<g id="edge10" class="edge">
<title>Node10&#45;&gt;Node11</title>
<path fill="none" stroke="midnightblue" d="M663.09,-168.32C647.36,-159.74 623.06,-146.49 604.79,-136.52"/>
<polygon fill="midnightblue" stroke="midnightblue" points="606.32,-133.37 595.87,-131.65 602.97,-139.52 606.32,-133.37"/>
</g>
<!-- Node12 -->
<g id="node12" class="node">
<title>Node12</title>
<g id="a_node12"><a xlink:title=" ">
<polygon fill="white" stroke="#bfbfbf" points="463.5,-0.5 463.5,-19.5 510.5,-19.5 510.5,-0.5 463.5,-0.5"/>
<text text-anchor="middle" x="487" y="-7.5" font-family="Helvetica,sans-Serif" font-size="10.00">vector</text>
</a>
</g>
</g>
<!-- Node10&#45;&gt;Node12 -->
<g id="edge11" class="edge">
<title>Node10&#45;&gt;Node12</title>
<path fill="none" stroke="midnightblue" d="M616.83,-168.47C589.36,-162.13 558.11,-151.11 535,-132 503.61,-106.04 492.63,-56.65 488.88,-29.69"/>
<polygon fill="midnightblue" stroke="midnightblue" points="492.34,-29.16 487.67,-19.65 485.39,-29.99 492.34,-29.16"/>
</g>
<!-- Node13 -->
<g id="node13" class="node">
<title>Node13</title>
<g id="a_node13"><a xlink:href="tables_8hpp.html" target="_top" xlink:title=" ">
<polygon fill="white" stroke="black" points="514.5,-56.5 514.5,-75.5 627.5,-75.5 627.5,-56.5 514.5,-56.5"/>
<text text-anchor="middle" x="571" y="-63.5" font-family="Helvetica,sans-Serif" font-size="10.00">common/tables.hpp</text>
</a>
</g>
</g>
<!-- Node10&#45;&gt;Node13 -->
<g id="edge12" class="edge">
<title>Node10&#45;&gt;Node13</title>
<path fill="none" stroke="midnightblue" d="M636.08,-168.5C600.54,-160.48 554.14,-147.42 543,-132 532.16,-116.99 543.79,-97.12 555.19,-83.32"/>
<polygon fill="midnightblue" stroke="midnightblue" points="558.02,-85.41 562.05,-75.61 552.79,-80.75 558.02,-85.41"/>
</g>
<!-- Node17 -->
<g id="node17" class="node">
<title>Node17</title>
<g id="a_node17"><a xlink:href="poliz_8hpp.html" target="_top" xlink:title=" ">
<polygon fill="white" stroke="black" points="625.5,-112.5 625.5,-131.5 732.5,-131.5 732.5,-112.5 625.5,-112.5"/>
<text text-anchor="middle" x="679" y="-119.5" font-family="Helvetica,sans-Serif" font-size="10.00">common/poliz.hpp</text>
</a>
</g>
</g>
<!-- Node10&#45;&gt;Node17 -->
<g id="edge17" class="edge">
<title>Node10&#45;&gt;Node17</title>
<path fill="none" stroke="midnightblue" d="M679,-168.08C679,-161.01 679,-150.86 679,-141.99"/>
<polygon fill="midnightblue" stroke="midnightblue" points="682.5,-141.75 679,-131.75 675.5,-141.75 682.5,-141.75"/>
</g>
<!-- Node18 -->
<g id="node18" class="node">
<title>Node18</title>
<g id="a_node18"><a xlink:href="stack_8hpp.html" target="_top" xlink:title=" ">
<polygon fill="white" stroke="black" points="684,-56.5 684,-75.5 794,-75.5 794,-56.5 684,-56.5"/>
<text text-anchor="middle" x="739" y="-63.5" font-family="Helvetica,sans-Serif" font-size="10.00">common/stack.hpp</text>
</a>
</g>
</g>
<!-- Node10&#45;&gt;Node18 -->
<g id="edge20" class="edge">
<title>Node10&#45;&gt;Node18</title>
<path fill="none" stroke="midnightblue" d="M699.22,-168.49C713.77,-161.17 732.3,-149.06 741,-132 748.29,-117.7 746.87,-99.23 744.16,-85.64"/>
<polygon fill="midnightblue" stroke="midnightblue" points="747.48,-84.47 741.74,-75.56 740.67,-86.11 747.48,-84.47"/>
</g>
<!-- Node13&#45;&gt;Node12 -->
<g id="edge15" class="edge">
<title>Node13&#45;&gt;Node12</title>
<path fill="none" stroke="midnightblue" d="M557.5,-56.32C544.4,-47.9 524.29,-34.97 508.89,-25.07"/>
<polygon fill="midnightblue" stroke="midnightblue" points="510.77,-22.12 500.46,-19.65 506.98,-28.01 510.77,-22.12"/>
</g>
<!-- Node14 -->
<g id="node14" class="node">
<title>Node14</title>
<g id="a_node14"><a xlink:title=" ">
<polygon fill="white" stroke="#bfbfbf" points="603.5,-0.5 603.5,-19.5 656.5,-19.5 656.5,-0.5 603.5,-0.5"/>
<text text-anchor="middle" x="630" y="-7.5" font-family="Helvetica,sans-Serif" font-size="10.00">cstddef</text>
</a>
</g>
</g>
<!-- Node13&#45;&gt;Node14 -->
<g id="edge13" class="edge">
<title>Node13&#45;&gt;Node14</title>
<path fill="none" stroke="midnightblue" d="M580.48,-56.32C589.2,-48.34 602.34,-36.31 612.9,-26.65"/>
<polygon fill="midnightblue" stroke="midnightblue" points="615.33,-29.17 620.35,-19.83 610.61,-24 615.33,-29.17"/>
</g>
<!-- Node15 -->
<g id="node15" class="node">
<title>Node15</title>
<g id="a_node15"><a xlink:title=" ">
<polygon fill="white" stroke="#bfbfbf" points="528.5,-0.5 528.5,-19.5 585.5,-19.5 585.5,-0.5 528.5,-0.5"/>
<text text-anchor="middle" x="557" y="-7.5" font-family="Helvetica,sans-Serif" font-size="10.00">ostream</text>
</a>
</g>
</g>
<!-- Node13&#45;&gt;Node15 -->
<g id="edge14" class="edge">
<title>Node13&#45;&gt;Node15</title>
<path fill="none" stroke="midnightblue" d="M568.69,-56.08C566.83,-48.93 564.16,-38.64 561.85,-29.69"/>
<polygon fill="midnightblue" stroke="midnightblue" points="565.17,-28.55 559.27,-19.75 558.39,-30.31 565.17,-28.55"/>
</g>
<!-- Node13&#45;&gt;Node16 -->
<g id="edge16" class="edge">
<title>Node13&#45;&gt;Node16</title>
<path fill="none" stroke="midnightblue" d="M597.46,-56.44C625.68,-47.32 670.54,-32.81 701.97,-22.65"/>
<polygon fill="midnightblue" stroke="midnightblue" points="703.22,-25.92 711.66,-19.52 701.07,-19.26 703.22,-25.92"/>
</g>
<!-- Node17&#45;&gt;Node13 -->
<g id="edge18" class="edge">
<title>Node17&#45;&gt;Node13</title>
<path fill="none" stroke="midnightblue" d="M661.65,-112.32C644.33,-103.66 617.48,-90.24 597.5,-80.25"/>
<polygon fill="midnightblue" stroke="midnightblue" points="598.82,-77 588.31,-75.65 595.69,-83.26 598.82,-77"/>
</g>
<!-- Node17&#45;&gt;Node16 -->
<g id="edge19" class="edge">
<title>Node17&#45;&gt;Node16</title>
<path fill="none" stroke="midnightblue" d="M675.83,-112.43C671.58,-99.43 665.58,-74.3 675,-56 682.08,-42.25 695.52,-31.77 708.18,-24.39"/>
<polygon fill="midnightblue" stroke="midnightblue" points="710,-27.39 717.15,-19.57 706.69,-21.22 710,-27.39"/>
</g>
<!-- Node18&#45;&gt;Node14 -->
<g id="edge21" class="edge">
<title>Node18&#45;&gt;Node14</title>
<path fill="none" stroke="midnightblue" d="M721.49,-56.32C703.93,-47.62 676.67,-34.12 656.47,-24.11"/>
<polygon fill="midnightblue" stroke="midnightblue" points="657.98,-20.96 647.47,-19.65 654.88,-27.23 657.98,-20.96"/>
</g>
<!-- Node18&#45;&gt;Node16 -->
<g id="edge23" class="edge">
<title>Node18&#45;&gt;Node16</title>
<path fill="none" stroke="midnightblue" d="M738.83,-56.08C738.7,-49.01 738.52,-38.86 738.35,-29.99"/>
<polygon fill="midnightblue" stroke="midnightblue" points="741.85,-29.68 738.16,-19.75 734.85,-29.81 741.85,-29.68"/>
</g>
<!-- Node19 -->
<g id="node19" class="node">
<title>Node19</title>
<g id="a_node19"><a xlink:href="config_8hpp.html" target="_top" xlink:title=" ">
<polygon fill="white" stroke="black" points="819.5,-0.5 819.5,-19.5 886.5,-19.5 886.5,-0.5 819.5,-0.5"/>
<text text-anchor="middle" x="853" y="-7.5" font-family="Helvetica,sans-Serif" font-size="10.00">config.hpp</text>
</a>
</g>
</g>
<!-- Node18&#45;&gt;Node19 -->
<g id="edge22" class="edge">
<title>Node18&#45;&gt;Node19</title>
<path fill="none" stroke="midnightblue" d="M757.06,-56.44C775.57,-47.68 804.58,-33.94 825.86,-23.86"/>
<polygon fill="midnightblue" stroke="midnightblue" points="827.48,-26.96 835.02,-19.52 824.49,-20.63 827.48,-26.96"/>
</g>
</g>
</svg>
