<?xml version="1.0" encoding="UTF-8" standalone="no"?>
<!DOCTYPE svg PUBLIC "-//W3C//DTD SVG 1.1//EN"
 "http://www.w3.org/Graphics/SVG/1.1/DTD/svg11.dtd">
<!-- Generated by graphviz version 2.43.0 (0)
 -->
<!-- Title: src/runtime/vmachine.hpp Pages: 1 -->
<svg width="479pt" height="140pt"
 viewBox="0.00 0.00 479.00 140.00" xmlns="http://www.w3.org/2000/svg" xmlns:xlink="http://www.w3.org/1999/xlink">
<g id="graph0" class="graph" transform="scale(1 1) rotate(0) translate(4 136)">
<title>src/runtime/vmachine.hpp</title>
<polygon fill="white" stroke="transparent" points="-4,4 -4,-136 475,-136 475,4 -4,4"/>
<!-- Node1 -->
<g id="node1" class="node">
<title>Node1</title>
<g id="a_node1"><a xlink:title=" ">
<polygon fill="#bfbfbf" stroke="black" points="199.5,-112.5 199.5,-131.5 343.5,-131.5 343.5,-112.5 199.5,-112.5"/>
<text text-anchor="middle" x="271.5" y="-119.5" font-family="Helvetica,sans-Serif" font-size="10.00">src/runtime/vmachine.hpp</text>
</a>
</g>
</g>
<!-- Node2 -->
<g id="node2" class="node">
<title>Node2</title>
<g id="a_node2"><a xlink:href="debugger_8hpp.html" target="_top" xlink:title=" ">
<polygon fill="white" stroke="black" points="66,-56.5 66,-75.5 215,-75.5 215,-56.5 66,-56.5"/>
<text text-anchor="middle" x="140.5" y="-63.5" font-family="Helvetica,sans-Serif" font-size="10.00">src/debugger/debugger.hpp</text>
</a>
</g>
</g>
<!-- Node1&#45;&gt;Node2 -->
<g id="edge1" class="edge">
<title>Node1&#45;&gt;Node2</title>
<path fill="none" stroke="midnightblue" d="M241.18,-108.5C216.62,-98.38 182.68,-84.39 161.16,-75.52"/>
<polygon fill="midnightblue" stroke="midnightblue" points="240.16,-111.87 250.74,-112.44 242.83,-105.4 240.16,-111.87"/>
</g>
<!-- Node5 -->
<g id="node5" class="node">
<title>Node5</title>
<g id="a_node5"><a xlink:href="flvm_8cpp.html" target="_top" xlink:title=" ">
<polygon fill="white" stroke="black" points="233,-56.5 233,-75.5 310,-75.5 310,-56.5 233,-56.5"/>
<text text-anchor="middle" x="271.5" y="-63.5" font-family="Helvetica,sans-Serif" font-size="10.00">src/flvm.cpp</text>
</a>
</g>
</g>
<!-- Node1&#45;&gt;Node5 -->
<g id="edge4" class="edge">
<title>Node1&#45;&gt;Node5</title>
<path fill="none" stroke="midnightblue" d="M271.5,-101.8C271.5,-92.91 271.5,-82.78 271.5,-75.75"/>
<polygon fill="midnightblue" stroke="midnightblue" points="268,-102.08 271.5,-112.08 275,-102.08 268,-102.08"/>
</g>
<!-- Node6 -->
<g id="node6" class="node">
<title>Node6</title>
<g id="a_node6"><a xlink:href="vmachine_8cpp.html" target="_top" xlink:title=" ">
<polygon fill="white" stroke="black" points="328,-56.5 328,-75.5 471,-75.5 471,-56.5 328,-56.5"/>
<text text-anchor="middle" x="399.5" y="-63.5" font-family="Helvetica,sans-Serif" font-size="10.00">src/runtime/vmachine.cpp</text>
</a>
</g>
</g>
<!-- Node1&#45;&gt;Node6 -->
<g id="edge5" class="edge">
<title>Node1&#45;&gt;Node6</title>
<path fill="none" stroke="midnightblue" d="M301.12,-108.5C325.12,-98.38 358.28,-84.39 379.31,-75.52"/>
<polygon fill="midnightblue" stroke="midnightblue" points="299.64,-105.33 291.78,-112.44 302.36,-111.78 299.64,-105.33"/>
</g>
<!-- Node3 -->
<g id="node3" class="node">
<title>Node3</title>
<g id="a_node3"><a xlink:href="debugger_8cpp.html" target="_top" xlink:title=" ">
<polygon fill="white" stroke="black" points="0,-0.5 0,-19.5 149,-19.5 149,-0.5 0,-0.5"/>
<text text-anchor="middle" x="74.5" y="-7.5" font-family="Helvetica,sans-Serif" font-size="10.00">src/debugger/debugger.cpp</text>
</a>
</g>
</g>
<!-- Node2&#45;&gt;Node3 -->
<g id="edge2" class="edge">
<title>Node2&#45;&gt;Node3</title>
<path fill="none" stroke="midnightblue" d="M121.95,-49.82C110.12,-40.15 95.21,-27.95 85.3,-19.83"/>
<polygon fill="midnightblue" stroke="midnightblue" points="119.94,-52.7 129.9,-56.32 124.37,-47.28 119.94,-52.7"/>
</g>
<!-- Node4 -->
<g id="node4" class="node">
<title>Node4</title>
<g id="a_node4"><a xlink:href="fldbg_8cpp.html" target="_top" xlink:title=" ">
<polygon fill="white" stroke="black" points="167,-0.5 167,-19.5 246,-19.5 246,-0.5 167,-0.5"/>
<text text-anchor="middle" x="206.5" y="-7.5" font-family="Helvetica,sans-Serif" font-size="10.00">src/fldbg.cpp</text>
</a>
</g>
</g>
<!-- Node2&#45;&gt;Node4 -->
<g id="edge3" class="edge">
<title>Node2&#45;&gt;Node4</title>
<path fill="none" stroke="midnightblue" d="M159.05,-49.82C170.88,-40.15 185.79,-27.95 195.7,-19.83"/>
<polygon fill="midnightblue" stroke="midnightblue" points="156.63,-47.28 151.1,-56.32 161.06,-52.7 156.63,-47.28"/>
</g>
</g>
</svg>
