<?xml version="1.0" encoding="UTF-8" standalone="no"?>
<!DOCTYPE svg PUBLIC "-//W3C//DTD SVG 1.1//EN"
 "http://www.w3.org/Graphics/SVG/1.1/DTD/svg11.dtd">
<!-- Generated by graphviz version 2.43.0 (0)
 -->
<!-- Title: src/runtime/vmachine.cpp Pages: 1 -->
<svg width="1045pt" height="252pt"
 viewBox="0.00 0.00 1044.50 252.00" xmlns="http://www.w3.org/2000/svg" xmlns:xlink="http://www.w3.org/1999/xlink">
<g id="graph0" class="graph" transform="scale(1 1) rotate(0) translate(4 248)">
<title>src/runtime/vmachine.cpp</title>
<polygon fill="white" stroke="transparent" points="-4,4 -4,-248 1040.5,-248 1040.5,4 -4,4"/>
<!-- Node1 -->
<g id="node1" class="node">
<title>Node1</title>
<g id="a_node1"><a xlink:title=" ">
<polygon fill="#bfbfbf" stroke="black" points="342.5,-224.5 342.5,-243.5 485.5,-243.5 485.5,-224.5 342.5,-224.5"/>
<text text-anchor="middle" x="414" y="-231.5" font-family="Helvetica,sans-Serif" font-size="10.00">src/runtime/vmachine.cpp</text>
</a>
</g>
</g>
<!-- Node2 -->
<g id="node2" class="node">
<title>Node2</title>
<g id="a_node2"><a xlink:title=" ">
<polygon fill="white" stroke="#bfbfbf" points="0,-168.5 0,-187.5 60,-187.5 60,-168.5 0,-168.5"/>
<text text-anchor="middle" x="30" y="-175.5" font-family="Helvetica,sans-Serif" font-size="10.00">iostream</text>
</a>
</g>
</g>
<!-- Node1&#45;&gt;Node2 -->
<g id="edge1" class="edge">
<title>Node1&#45;&gt;Node2</title>
<path fill="none" stroke="midnightblue" d="M342.33,-225.7C274.58,-218.34 169.94,-205.77 70.13,-188.05"/>
<polygon fill="midnightblue" stroke="midnightblue" points="70.63,-184.59 60.17,-186.27 69.4,-191.48 70.63,-184.59"/>
</g>
<!-- Node3 -->
<g id="node3" class="node">
<title>Node3</title>
<g id="a_node3"><a xlink:title=" ">
<polygon fill="white" stroke="#bfbfbf" points="78,-168.5 78,-187.5 128,-187.5 128,-168.5 78,-168.5"/>
<text text-anchor="middle" x="103" y="-175.5" font-family="Helvetica,sans-Serif" font-size="10.00">cstring</text>
</a>
</g>
</g>
<!-- Node1&#45;&gt;Node3 -->
<g id="edge2" class="edge">
<title>Node1&#45;&gt;Node3</title>
<path fill="none" stroke="midnightblue" d="M350.41,-224.47C296.37,-216.81 216.54,-204.54 138.22,-188.09"/>
<polygon fill="midnightblue" stroke="midnightblue" points="138.69,-184.61 128.19,-185.96 137.24,-191.46 138.69,-184.61"/>
</g>
<!-- Node4 -->
<g id="node4" class="node">
<title>Node4</title>
<g id="a_node4"><a xlink:title=" ">
<polygon fill="white" stroke="#bfbfbf" points="146,-168.5 146,-187.5 202,-187.5 202,-168.5 146,-168.5"/>
<text text-anchor="middle" x="174" y="-175.5" font-family="Helvetica,sans-Serif" font-size="10.00">unistd.h</text>
</a>
</g>
</g>
<!-- Node1&#45;&gt;Node4 -->
<g id="edge3" class="edge">
<title>Node1&#45;&gt;Node4</title>
<path fill="none" stroke="midnightblue" d="M374.27,-224.44C335.39,-216.02 274.22,-202.61 212.22,-188.25"/>
<polygon fill="midnightblue" stroke="midnightblue" points="212.8,-184.79 202.27,-185.94 211.22,-191.61 212.8,-184.79"/>
</g>
<!-- Node5 -->
<g id="node5" class="node">
<title>Node5</title>
<g id="a_node5"><a xlink:title=" ">
<polygon fill="white" stroke="#bfbfbf" points="220.5,-168.5 220.5,-187.5 275.5,-187.5 275.5,-168.5 220.5,-168.5"/>
<text text-anchor="middle" x="248" y="-175.5" font-family="Helvetica,sans-Serif" font-size="10.00">signal.h</text>
</a>
</g>
</g>
<!-- Node1&#45;&gt;Node5 -->
<g id="edge4" class="edge">
<title>Node1&#45;&gt;Node5</title>
<path fill="none" stroke="midnightblue" d="M387.7,-224.44C359.65,-215.32 315.06,-200.81 283.82,-190.65"/>
<polygon fill="midnightblue" stroke="midnightblue" points="284.77,-187.28 274.18,-187.52 282.61,-193.94 284.77,-187.28"/>
</g>
<!-- Node6 -->
<g id="node6" class="node">
<title>Node6</title>
<g id="a_node6"><a xlink:title=" ">
<polygon fill="white" stroke="#bfbfbf" points="294,-168.5 294,-187.5 360,-187.5 360,-168.5 294,-168.5"/>
<text text-anchor="middle" x="327" y="-175.5" font-family="Helvetica,sans-Serif" font-size="10.00">sys/wait.h</text>
</a>
</g>
</g>
<!-- Node1&#45;&gt;Node6 -->
<g id="edge5" class="edge">
<title>Node1&#45;&gt;Node6</title>
<path fill="none" stroke="midnightblue" d="M400.02,-224.32C386.45,-215.9 365.62,-202.97 349.68,-193.07"/>
<polygon fill="midnightblue" stroke="midnightblue" points="351.29,-189.95 340.94,-187.65 347.59,-195.9 351.29,-189.95"/>
</g>
<!-- Node7 -->
<g id="node7" class="node">
<title>Node7</title>
<g id="a_node7"><a xlink:title=" ">
<polygon fill="white" stroke="#bfbfbf" points="378,-168.5 378,-187.5 450,-187.5 450,-168.5 378,-168.5"/>
<text text-anchor="middle" x="414" y="-175.5" font-family="Helvetica,sans-Serif" font-size="10.00">sys/types.h</text>
</a>
</g>
</g>
<!-- Node1&#45;&gt;Node7 -->
<g id="edge6" class="edge">
<title>Node1&#45;&gt;Node7</title>
<path fill="none" stroke="midnightblue" d="M414,-224.08C414,-217.01 414,-206.86 414,-197.99"/>
<polygon fill="midnightblue" stroke="midnightblue" points="417.5,-197.75 414,-187.75 410.5,-197.75 417.5,-197.75"/>
</g>
<!-- Node8 -->
<g id="node8" class="node">
<title>Node8</title>
<g id="a_node8"><a xlink:title=" ">
<polygon fill="white" stroke="#bfbfbf" points="468,-168.5 468,-187.5 532,-187.5 532,-168.5 468,-168.5"/>
<text text-anchor="middle" x="500" y="-175.5" font-family="Helvetica,sans-Serif" font-size="10.00">sys/stat.h</text>
</a>
</g>
</g>
<!-- Node1&#45;&gt;Node8 -->
<g id="edge7" class="edge">
<title>Node1&#45;&gt;Node8</title>
<path fill="none" stroke="midnightblue" d="M427.82,-224.32C441.23,-215.9 461.82,-202.97 477.59,-193.07"/>
<polygon fill="midnightblue" stroke="midnightblue" points="479.61,-195.94 486.22,-187.65 475.89,-190.01 479.61,-195.94"/>
</g>
<!-- Node9 -->
<g id="node9" class="node">
<title>Node9</title>
<g id="a_node9"><a xlink:title=" ">
<polygon fill="white" stroke="#bfbfbf" points="550.5,-168.5 550.5,-187.5 597.5,-187.5 597.5,-168.5 550.5,-168.5"/>
<text text-anchor="middle" x="574" y="-175.5" font-family="Helvetica,sans-Serif" font-size="10.00">fcntl.h</text>
</a>
</g>
</g>
<!-- Node1&#45;&gt;Node9 -->
<g id="edge8" class="edge">
<title>Node1&#45;&gt;Node9</title>
<path fill="none" stroke="midnightblue" d="M439.35,-224.44C466.74,-215.2 510.51,-200.43 540.67,-190.25"/>
<polygon fill="midnightblue" stroke="midnightblue" points="541.98,-193.5 550.33,-186.99 539.74,-186.87 541.98,-193.5"/>
</g>
<!-- Node10 -->
<g id="node10" class="node">
<title>Node10</title>
<g id="a_node10"><a xlink:href="vmachine_8hpp.html" target="_top" xlink:title=" ">
<polygon fill="white" stroke="black" points="615.5,-168.5 615.5,-187.5 742.5,-187.5 742.5,-168.5 615.5,-168.5"/>
<text text-anchor="middle" x="679" y="-175.5" font-family="Helvetica,sans-Serif" font-size="10.00">runtime/vmachine.hpp</text>
</a>
</g>
</g>
<!-- Node1&#45;&gt;Node10 -->
<g id="edge9" class="edge">
<title>Node1&#45;&gt;Node10</title>
<path fill="none" stroke="midnightblue" d="M455.99,-224.44C502.41,-214.98 577.23,-199.74 627.24,-189.55"/>
<polygon fill="midnightblue" stroke="midnightblue" points="628.11,-192.94 637.21,-187.52 626.71,-186.08 628.11,-192.94"/>
</g>
<!-- Node16 -->
<g id="node16" class="node">
<title>Node16</title>
<g id="a_node16"><a xlink:href="exprtype_8hpp.html" target="_top" xlink:title=" ">
<polygon fill="white" stroke="black" points="653.5,-0.5 653.5,-19.5 780.5,-19.5 780.5,-0.5 653.5,-0.5"/>
<text text-anchor="middle" x="717" y="-7.5" font-family="Helvetica,sans-Serif" font-size="10.00">common/exprtype.hpp</text>
</a>
</g>
</g>
<!-- Node1&#45;&gt;Node16 -->
<g id="edge25" class="edge">
<title>Node1&#45;&gt;Node16</title>
<path fill="none" stroke="midnightblue" d="M485.66,-228.85C570.66,-223 706.56,-210.45 752,-188 815.11,-156.82 837.06,-141.04 864,-76 867.4,-67.79 869.29,-63.15 864,-56 853.16,-41.34 812,-29.51 775.99,-21.66"/>
<polygon fill="midnightblue" stroke="midnightblue" points="776.5,-18.19 766,-19.56 775.06,-25.04 776.5,-18.19"/>
</g>
<!-- Node21 -->
<g id="node21" class="node">
<title>Node21</title>
<g id="a_node21"><a xlink:href="obstacle_8hpp.html" target="_top" xlink:title=" ">
<polygon fill="white" stroke="black" points="911.5,-168.5 911.5,-187.5 1036.5,-187.5 1036.5,-168.5 911.5,-168.5"/>
<text text-anchor="middle" x="974" y="-175.5" font-family="Helvetica,sans-Serif" font-size="10.00">common/obstacle.hpp</text>
</a>
</g>
</g>
<!-- Node1&#45;&gt;Node21 -->
<g id="edge26" class="edge">
<title>Node1&#45;&gt;Node21</title>
<path fill="none" stroke="midnightblue" d="M485.66,-226.85C580.01,-218.64 751.05,-203.33 897,-188 898.46,-187.85 899.94,-187.69 901.43,-187.53"/>
<polygon fill="midnightblue" stroke="midnightblue" points="901.84,-191.01 911.4,-186.44 901.08,-184.05 901.84,-191.01"/>
</g>
<!-- Node11 -->
<g id="node11" class="node">
<title>Node11</title>
<g id="a_node11"><a xlink:title=" ">
<polygon fill="white" stroke="#bfbfbf" points="552.5,-112.5 552.5,-131.5 607.5,-131.5 607.5,-112.5 552.5,-112.5"/>
<text text-anchor="middle" x="580" y="-119.5" font-family="Helvetica,sans-Serif" font-size="10.00">fstream</text>
</a>
</g>
</g>
<!-- Node10&#45;&gt;Node11 -->
<g id="edge10" class="edge">
<title>Node10&#45;&gt;Node11</title>
<path fill="none" stroke="midnightblue" d="M663.09,-168.32C647.36,-159.74 623.06,-146.49 604.79,-136.52"/>
<polygon fill="midnightblue" stroke="midnightblue" points="606.32,-133.37 595.87,-131.65 602.97,-139.52 606.32,-133.37"/>
</g>
<!-- Node12 -->
<g id="node12" class="node">
<title>Node12</title>
<g id="a_node12"><a xlink:title=" ">
<polygon fill="white" stroke="#bfbfbf" points="384.5,-0.5 384.5,-19.5 431.5,-19.5 431.5,-0.5 384.5,-0.5"/>
<text text-anchor="middle" x="408" y="-7.5" font-family="Helvetica,sans-Serif" font-size="10.00">vector</text>
</a>
</g>
</g>
<!-- Node10&#45;&gt;Node12 -->
<g id="edge11" class="edge">
<title>Node10&#45;&gt;Node12</title>
<path fill="none" stroke="midnightblue" d="M636.82,-168.46C603.32,-160.94 555.67,-148.61 516,-132 470.08,-112.78 447.41,-116.87 419,-76 409.71,-62.64 407.35,-44.07 407.08,-30.2"/>
<polygon fill="midnightblue" stroke="midnightblue" points="410.59,-29.92 407.25,-19.87 403.59,-29.81 410.59,-29.92"/>
</g>
<!-- Node13 -->
<g id="node13" class="node">
<title>Node13</title>
<g id="a_node13"><a xlink:href="tables_8hpp.html" target="_top" xlink:title=" ">
<polygon fill="white" stroke="black" points="428.5,-56.5 428.5,-75.5 541.5,-75.5 541.5,-56.5 428.5,-56.5"/>
<text text-anchor="middle" x="485" y="-63.5" font-family="Helvetica,sans-Serif" font-size="10.00">common/tables.hpp</text>
</a>
</g>
</g>
<!-- Node10&#45;&gt;Node13 -->
<g id="edge12" class="edge">
<title>Node10&#45;&gt;Node13</title>
<path fill="none" stroke="midnightblue" d="M634.45,-168.47C606.55,-161.67 570.76,-150.22 543,-132 523.92,-119.47 507.17,-99.12 496.65,-84.53"/>
<polygon fill="midnightblue" stroke="midnightblue" points="499.24,-82.13 490.66,-75.91 493.49,-86.12 499.24,-82.13"/>
</g>
<!-- Node17 -->
<g id="node17" class="node">
<title>Node17</title>
<g id="a_node17"><a xlink:href="poliz_8hpp.html" target="_top" xlink:title=" ">
<polygon fill="white" stroke="black" points="625.5,-112.5 625.5,-131.5 732.5,-131.5 732.5,-112.5 625.5,-112.5"/>
<text text-anchor="middle" x="679" y="-119.5" font-family="Helvetica,sans-Serif" font-size="10.00">common/poliz.hpp</text>
</a>
</g>
</g>
<!-- Node10&#45;&gt;Node17 -->
<g id="edge17" class="edge">
<title>Node10&#45;&gt;Node17</title>
<path fill="none" stroke="midnightblue" d="M679,-168.08C679,-161.01 679,-150.86 679,-141.99"/>
<polygon fill="midnightblue" stroke="midnightblue" points="682.5,-141.75 679,-131.75 675.5,-141.75 682.5,-141.75"/>
</g>
<!-- Node19 -->
<g id="node19" class="node">
<title>Node19</title>
<g id="a_node19"><a xlink:href="stack_8hpp.html" target="_top" xlink:title=" ">
<polygon fill="white" stroke="black" points="745,-56.5 745,-75.5 855,-75.5 855,-56.5 745,-56.5"/>
<text text-anchor="middle" x="800" y="-63.5" font-family="Helvetica,sans-Serif" font-size="10.00">common/stack.hpp</text>
</a>
</g>
</g>
<!-- Node10&#45;&gt;Node19 -->
<g id="edge21" class="edge">
<title>Node10&#45;&gt;Node19</title>
<path fill="none" stroke="midnightblue" d="M692.42,-168.43C705.4,-159.88 725.35,-146.03 741,-132 757.94,-116.81 775.19,-97.23 786.63,-83.55"/>
<polygon fill="midnightblue" stroke="midnightblue" points="789.59,-85.46 793.24,-75.51 784.18,-81.01 789.59,-85.46"/>
</g>
<!-- Node13&#45;&gt;Node12 -->
<g id="edge15" class="edge">
<title>Node13&#45;&gt;Node12</title>
<path fill="none" stroke="midnightblue" d="M472.63,-56.32C460.84,-48.06 442.87,-35.45 428.86,-25.63"/>
<polygon fill="midnightblue" stroke="midnightblue" points="430.54,-22.53 420.34,-19.65 426.52,-28.26 430.54,-22.53"/>
</g>
<!-- Node14 -->
<g id="node14" class="node">
<title>Node14</title>
<g id="a_node14"><a xlink:title=" ">
<polygon fill="white" stroke="#bfbfbf" points="557.5,-0.5 557.5,-19.5 610.5,-19.5 610.5,-0.5 557.5,-0.5"/>
<text text-anchor="middle" x="584" y="-7.5" font-family="Helvetica,sans-Serif" font-size="10.00">cstddef</text>
</a>
</g>
</g>
<!-- Node13&#45;&gt;Node14 -->
<g id="edge13" class="edge">
<title>Node13&#45;&gt;Node14</title>
<path fill="none" stroke="midnightblue" d="M500.91,-56.32C516.64,-47.74 540.94,-34.49 559.21,-24.52"/>
<polygon fill="midnightblue" stroke="midnightblue" points="561.03,-27.52 568.13,-19.65 557.68,-21.37 561.03,-27.52"/>
</g>
<!-- Node15 -->
<g id="node15" class="node">
<title>Node15</title>
<g id="a_node15"><a xlink:title=" ">
<polygon fill="white" stroke="#bfbfbf" points="456.5,-0.5 456.5,-19.5 513.5,-19.5 513.5,-0.5 456.5,-0.5"/>
<text text-anchor="middle" x="485" y="-7.5" font-family="Helvetica,sans-Serif" font-size="10.00">ostream</text>
</a>
</g>
</g>
<!-- Node13&#45;&gt;Node15 -->
<g id="edge14" class="edge">
<title>Node13&#45;&gt;Node15</title>
<path fill="none" stroke="midnightblue" d="M485,-56.08C485,-49.01 485,-38.86 485,-29.99"/>
<polygon fill="midnightblue" stroke="midnightblue" points="488.5,-29.75 485,-19.75 481.5,-29.75 488.5,-29.75"/>
</g>
<!-- Node13&#45;&gt;Node16 -->
<g id="edge16" class="edge">
<title>Node13&#45;&gt;Node16</title>
<path fill="none" stroke="midnightblue" d="M521.76,-56.44C562.06,-47.06 626.81,-31.99 670.58,-21.8"/>
<polygon fill="midnightblue" stroke="midnightblue" points="671.46,-25.19 680.41,-19.52 669.88,-18.37 671.46,-25.19"/>
</g>
<!-- Node17&#45;&gt;Node13 -->
<g id="edge18" class="edge">
<title>Node17&#45;&gt;Node13</title>
<path fill="none" stroke="midnightblue" d="M648.26,-112.44C615.06,-103.2 562.01,-88.44 525.44,-78.26"/>
<polygon fill="midnightblue" stroke="midnightblue" points="526.17,-74.83 515.6,-75.52 524.29,-81.57 526.17,-74.83"/>
</g>
<!-- Node17&#45;&gt;Node16 -->
<g id="edge19" class="edge">
<title>Node17&#45;&gt;Node16</title>
<path fill="none" stroke="midnightblue" d="M682.66,-112.45C686.46,-103.46 692.46,-88.85 697,-76 702.47,-60.52 707.9,-42.68 711.72,-29.61"/>
<polygon fill="midnightblue" stroke="midnightblue" points="715.1,-30.48 714.51,-19.91 708.38,-28.55 715.1,-30.48"/>
</g>
<!-- Node18 -->
<g id="node18" class="node">
<title>Node18</title>
<g id="a_node18"><a xlink:href="cppcheck_8hpp.html" target="_top" xlink:title=" ">
<polygon fill="white" stroke="black" points="559.5,-56.5 559.5,-75.5 688.5,-75.5 688.5,-56.5 559.5,-56.5"/>
<text text-anchor="middle" x="624" y="-63.5" font-family="Helvetica,sans-Serif" font-size="10.00">common/cppcheck.hpp</text>
</a>
</g>
</g>
<!-- Node17&#45;&gt;Node18 -->
<g id="edge20" class="edge">
<title>Node17&#45;&gt;Node18</title>
<path fill="none" stroke="midnightblue" d="M669.92,-112.08C661.83,-104.14 649.8,-92.34 640.09,-82.8"/>
<polygon fill="midnightblue" stroke="midnightblue" points="642.5,-80.26 632.91,-75.75 637.6,-85.25 642.5,-80.26"/>
</g>
<!-- Node19&#45;&gt;Node14 -->
<g id="edge22" class="edge">
<title>Node19&#45;&gt;Node14</title>
<path fill="none" stroke="midnightblue" d="M765.77,-56.44C726.08,-46.52 660.9,-30.23 620.33,-20.08"/>
<polygon fill="midnightblue" stroke="midnightblue" points="621.13,-16.67 610.58,-17.64 619.43,-23.46 621.13,-16.67"/>
</g>
<!-- Node19&#45;&gt;Node16 -->
<g id="edge24" class="edge">
<title>Node19&#45;&gt;Node16</title>
<path fill="none" stroke="midnightblue" d="M786.66,-56.32C773.84,-47.98 754.22,-35.21 739.06,-25.35"/>
<polygon fill="midnightblue" stroke="midnightblue" points="740.59,-22.17 730.3,-19.65 736.78,-28.04 740.59,-22.17"/>
</g>
<!-- Node20 -->
<g id="node20" class="node">
<title>Node20</title>
<g id="a_node20"><a xlink:href="config_8hpp.html" target="_top" xlink:title=" ">
<polygon fill="white" stroke="black" points="799,-0.5 799,-19.5 867,-19.5 867,-0.5 799,-0.5"/>
<text text-anchor="middle" x="833" y="-7.5" font-family="Helvetica,sans-Serif" font-size="10.00">config.hpp</text>
</a>
</g>
</g>
<!-- Node19&#45;&gt;Node20 -->
<g id="edge23" class="edge">
<title>Node19&#45;&gt;Node20</title>
<path fill="none" stroke="midnightblue" d="M805.45,-56.08C810.01,-48.61 816.67,-37.72 822.29,-28.52"/>
<polygon fill="midnightblue" stroke="midnightblue" points="825.42,-30.11 827.65,-19.75 819.45,-26.46 825.42,-30.11"/>
</g>
</g>
</svg>
