<?xml version="1.0" encoding="UTF-8" standalone="no"?>
<!DOCTYPE svg PUBLIC "-//W3C//DTD SVG 1.1//EN"
 "http://www.w3.org/Graphics/SVG/1.1/DTD/svg11.dtd">
<!-- Generated by graphviz version 2.43.0 (0)
 -->
<!-- Title: src/runtime/vmachine.hpp Pages: 1 -->
<svg width="481pt" height="196pt"
 viewBox="0.00 0.00 481.00 196.00" xmlns="http://www.w3.org/2000/svg" xmlns:xlink="http://www.w3.org/1999/xlink">
<g id="graph0" class="graph" transform="scale(1 1) rotate(0) translate(4 192)">
<title>src/runtime/vmachine.hpp</title>
<polygon fill="white" stroke="transparent" points="-4,4 -4,-192 477,-192 477,4 -4,4"/>
<!-- Node1 -->
<g id="node1" class="node">
<title>Node1</title>
<g id="a_node1"><a xlink:title=" ">
<polygon fill="#bfbfbf" stroke="black" points="72.5,-168.5 72.5,-187.5 216.5,-187.5 216.5,-168.5 72.5,-168.5"/>
<text text-anchor="middle" x="144.5" y="-175.5" font-family="Helvetica,sans-Serif" font-size="10.00">src/runtime/vmachine.hpp</text>
</a>
</g>
</g>
<!-- Node2 -->
<g id="node2" class="node">
<title>Node2</title>
<g id="a_node2"><a xlink:title=" ">
<polygon fill="white" stroke="#bfbfbf" points="0,-112.5 0,-131.5 55,-131.5 55,-112.5 0,-112.5"/>
<text text-anchor="middle" x="27.5" y="-119.5" font-family="Helvetica,sans-Serif" font-size="10.00">fstream</text>
</a>
</g>
</g>
<!-- Node1&#45;&gt;Node2 -->
<g id="edge1" class="edge">
<title>Node1&#45;&gt;Node2</title>
<path fill="none" stroke="midnightblue" d="M125.96,-168.44C106.88,-159.64 76.93,-145.81 55.06,-135.72"/>
<polygon fill="midnightblue" stroke="midnightblue" points="56.5,-132.53 45.95,-131.52 53.57,-138.88 56.5,-132.53"/>
</g>
<!-- Node3 -->
<g id="node3" class="node">
<title>Node3</title>
<g id="a_node3"><a xlink:title=" ">
<polygon fill="white" stroke="#bfbfbf" points="50,-0.5 50,-19.5 97,-19.5 97,-0.5 50,-0.5"/>
<text text-anchor="middle" x="73.5" y="-7.5" font-family="Helvetica,sans-Serif" font-size="10.00">vector</text>
</a>
</g>
</g>
<!-- Node1&#45;&gt;Node3 -->
<g id="edge2" class="edge">
<title>Node1&#45;&gt;Node3</title>
<path fill="none" stroke="midnightblue" d="M140.68,-168.08C129.46,-141.83 96.4,-64.55 81.25,-29.12"/>
<polygon fill="midnightblue" stroke="midnightblue" points="84.32,-27.39 77.16,-19.57 77.88,-30.14 84.32,-27.39"/>
</g>
<!-- Node4 -->
<g id="node4" class="node">
<title>Node4</title>
<g id="a_node4"><a xlink:href="tables_8hpp.html" target="_top" xlink:title=" ">
<polygon fill="white" stroke="black" points="112,-56.5 112,-75.5 225,-75.5 225,-56.5 112,-56.5"/>
<text text-anchor="middle" x="168.5" y="-63.5" font-family="Helvetica,sans-Serif" font-size="10.00">common/tables.hpp</text>
</a>
</g>
</g>
<!-- Node1&#45;&gt;Node4 -->
<g id="edge3" class="edge">
<title>Node1&#45;&gt;Node4</title>
<path fill="none" stroke="midnightblue" d="M146.38,-168.37C150.26,-150.62 159.19,-109.67 164.44,-85.6"/>
<polygon fill="midnightblue" stroke="midnightblue" points="167.91,-86.11 166.63,-75.59 161.07,-84.62 167.91,-86.11"/>
</g>
<!-- Node8 -->
<g id="node8" class="node">
<title>Node8</title>
<g id="a_node8"><a xlink:href="poliz_8hpp.html" target="_top" xlink:title=" ">
<polygon fill="white" stroke="black" points="173,-112.5 173,-131.5 280,-131.5 280,-112.5 173,-112.5"/>
<text text-anchor="middle" x="226.5" y="-119.5" font-family="Helvetica,sans-Serif" font-size="10.00">common/poliz.hpp</text>
</a>
</g>
</g>
<!-- Node1&#45;&gt;Node8 -->
<g id="edge8" class="edge">
<title>Node1&#45;&gt;Node8</title>
<path fill="none" stroke="midnightblue" d="M157.67,-168.32C170.35,-159.98 189.73,-147.21 204.71,-137.35"/>
<polygon fill="midnightblue" stroke="midnightblue" points="206.93,-140.08 213.36,-131.65 203.08,-134.23 206.93,-140.08"/>
</g>
<!-- Node9 -->
<g id="node9" class="node">
<title>Node9</title>
<g id="a_node9"><a xlink:href="stack_8hpp.html" target="_top" xlink:title=" ">
<polygon fill="white" stroke="black" points="293.5,-56.5 293.5,-75.5 403.5,-75.5 403.5,-56.5 293.5,-56.5"/>
<text text-anchor="middle" x="348.5" y="-63.5" font-family="Helvetica,sans-Serif" font-size="10.00">common/stack.hpp</text>
</a>
</g>
</g>
<!-- Node1&#45;&gt;Node9 -->
<g id="edge11" class="edge">
<title>Node1&#45;&gt;Node9</title>
<path fill="none" stroke="midnightblue" d="M192.9,-168.49C222.19,-161.79 259.39,-150.42 288.5,-132 308.28,-119.49 325.77,-98.84 336.69,-84.18"/>
<polygon fill="midnightblue" stroke="midnightblue" points="339.61,-86.11 342.6,-75.95 333.92,-82.03 339.61,-86.11"/>
</g>
<!-- Node4&#45;&gt;Node3 -->
<g id="edge6" class="edge">
<title>Node4&#45;&gt;Node3</title>
<path fill="none" stroke="midnightblue" d="M153.24,-56.32C138.28,-47.82 115.25,-34.73 97.77,-24.8"/>
<polygon fill="midnightblue" stroke="midnightblue" points="99.15,-21.55 88.73,-19.65 95.69,-27.64 99.15,-21.55"/>
</g>
<!-- Node5 -->
<g id="node5" class="node">
<title>Node5</title>
<g id="a_node5"><a xlink:title=" ">
<polygon fill="white" stroke="#bfbfbf" points="335,-0.5 335,-19.5 388,-19.5 388,-0.5 335,-0.5"/>
<text text-anchor="middle" x="361.5" y="-7.5" font-family="Helvetica,sans-Serif" font-size="10.00">cstddef</text>
</a>
</g>
</g>
<!-- Node4&#45;&gt;Node5 -->
<g id="edge4" class="edge">
<title>Node4&#45;&gt;Node5</title>
<path fill="none" stroke="midnightblue" d="M199.08,-56.44C233.28,-46.87 288.64,-31.39 325.05,-21.2"/>
<polygon fill="midnightblue" stroke="midnightblue" points="326.1,-24.54 334.79,-18.47 324.22,-17.8 326.1,-24.54"/>
</g>
<!-- Node6 -->
<g id="node6" class="node">
<title>Node6</title>
<g id="a_node6"><a xlink:title=" ">
<polygon fill="white" stroke="#bfbfbf" points="115,-0.5 115,-19.5 172,-19.5 172,-0.5 115,-0.5"/>
<text text-anchor="middle" x="143.5" y="-7.5" font-family="Helvetica,sans-Serif" font-size="10.00">ostream</text>
</a>
</g>
</g>
<!-- Node4&#45;&gt;Node6 -->
<g id="edge5" class="edge">
<title>Node4&#45;&gt;Node6</title>
<path fill="none" stroke="midnightblue" d="M164.37,-56.08C160.99,-48.77 156.08,-38.18 151.88,-29.1"/>
<polygon fill="midnightblue" stroke="midnightblue" points="154.93,-27.36 147.55,-19.75 148.58,-30.3 154.93,-27.36"/>
</g>
<!-- Node7 -->
<g id="node7" class="node">
<title>Node7</title>
<g id="a_node7"><a xlink:href="exprtype_8hpp.html" target="_top" xlink:title=" ">
<polygon fill="white" stroke="black" points="190,-0.5 190,-19.5 317,-19.5 317,-0.5 190,-0.5"/>
<text text-anchor="middle" x="253.5" y="-7.5" font-family="Helvetica,sans-Serif" font-size="10.00">common/exprtype.hpp</text>
</a>
</g>
</g>
<!-- Node4&#45;&gt;Node7 -->
<g id="edge7" class="edge">
<title>Node4&#45;&gt;Node7</title>
<path fill="none" stroke="midnightblue" d="M182.16,-56.32C195.42,-47.9 215.77,-34.97 231.35,-25.07"/>
<polygon fill="midnightblue" stroke="midnightblue" points="233.31,-27.97 239.88,-19.65 229.56,-22.06 233.31,-27.97"/>
</g>
<!-- Node8&#45;&gt;Node4 -->
<g id="edge9" class="edge">
<title>Node8&#45;&gt;Node4</title>
<path fill="none" stroke="midnightblue" d="M217.18,-112.32C208.61,-104.34 195.69,-92.31 185.31,-82.65"/>
<polygon fill="midnightblue" stroke="midnightblue" points="187.69,-80.09 177.99,-75.83 182.92,-85.21 187.69,-80.09"/>
</g>
<!-- Node8&#45;&gt;Node7 -->
<g id="edge10" class="edge">
<title>Node8&#45;&gt;Node7</title>
<path fill="none" stroke="midnightblue" d="M228.62,-112.37C232.98,-94.62 243.03,-53.67 248.94,-29.6"/>
<polygon fill="midnightblue" stroke="midnightblue" points="252.41,-30.14 251.39,-19.59 245.61,-28.47 252.41,-30.14"/>
</g>
<!-- Node9&#45;&gt;Node5 -->
<g id="edge12" class="edge">
<title>Node9&#45;&gt;Node5</title>
<path fill="none" stroke="midnightblue" d="M350.65,-56.08C352.37,-48.93 354.85,-38.64 357,-29.69"/>
<polygon fill="midnightblue" stroke="midnightblue" points="360.46,-30.29 359.39,-19.75 353.65,-28.65 360.46,-30.29"/>
</g>
<!-- Node9&#45;&gt;Node7 -->
<g id="edge14" class="edge">
<title>Node9&#45;&gt;Node7</title>
<path fill="none" stroke="midnightblue" d="M333.24,-56.32C318.28,-47.82 295.25,-34.73 277.77,-24.8"/>
<polygon fill="midnightblue" stroke="midnightblue" points="279.15,-21.55 268.73,-19.65 275.69,-27.64 279.15,-21.55"/>
</g>
<!-- Node10 -->
<g id="node10" class="node">
<title>Node10</title>
<g id="a_node10"><a xlink:href="config_8hpp.html" target="_top" xlink:title=" ">
<polygon fill="white" stroke="black" points="406,-0.5 406,-19.5 473,-19.5 473,-0.5 406,-0.5"/>
<text text-anchor="middle" x="439.5" y="-7.5" font-family="Helvetica,sans-Serif" font-size="10.00">config.hpp</text>
</a>
</g>
</g>
<!-- Node9&#45;&gt;Node10 -->
<g id="edge13" class="edge">
<title>Node9&#45;&gt;Node10</title>
<path fill="none" stroke="midnightblue" d="M363.12,-56.32C377.45,-47.82 399.51,-34.73 416.25,-24.8"/>
<polygon fill="midnightblue" stroke="midnightblue" points="418.1,-27.77 424.92,-19.65 414.53,-21.75 418.1,-27.77"/>
</g>
</g>
</svg>
